<?xml version="1.0" encoding="UTF-8"?>
<svg enable-background="new 0 0 56.943 56.943" version="1.1" viewBox="0 0 56.943 56.943" xml:space="preserve" xmlns="http://www.w3.org/2000/svg"><defs><filter id="filter483" color-interpolation-filters="sRGB"><feColorMatrix values="0.21 0.72 0.072 0 0 0.21 0.72 0.072 0 0 0.21 0.72 0.072 0 0 0 0 0 1 0 "/></filter><filter id="filter487" color-interpolation-filters="sRGB"><feColorMatrix values="0.21 0.72 0.072 0 0 0.21 0.72 0.072 0 0 0.21 0.72 0.072 0 0 0 0 0 1 0 "/></filter><filter id="filter491" color-interpolation-filters="sRGB"><feColorMatrix values="0.21 0.72 0.072 0 0 0.21 0.72 0.072 0 0 0.21 0.72 0.072 0 0 0 0 0 1 0 "/></filter><filter id="filter495" color-interpolation-filters="sRGB"><feColorMatrix values="0.21 0.72 0.072 0 0 0.21 0.72 0.072 0 0 0.21 0.72 0.072 0 0 0 0 0 1 0 "/></filter><filter id="filter499" color-interpolation-filters="sRGB"><feColorMatrix values="0.21 0.72 0.072 0 0 0.21 0.72 0.072 0 0 0.21 0.72 0.072 0 0 0 0 0 1 0 "/></filter><filter id="filter503" color-interpolation-filters="sRGB"><feColorMatrix values="0.21 0.72 0.072 0 0 0.21 0.72 0.072 0 0 0.21 0.72 0.072 0 0 0 0 0 1 0 "/></filter><filter id="filter507" color-interpolation-filters="sRGB"><feColorMatrix values="0.21 0.72 0.072 0 0 0.21 0.72 0.072 0 0 0.21 0.72 0.072 0 0 0 0 0 1 0 "/></filter><filter id="filter511" color-interpolation-filters="sRGB"><feColorMatrix values="0.21 0.72 0.072 0 0 0.21 0.72 0.072 0 0 0.21 0.72 0.072 0 0 0 0 0 1 0 "/></filter><filter color-interpolation-filters="sRGB"><feColorMatrix values="0.21 0.72 0.072 0 0 0.21 0.72 0.072 0 0 0.21 0.72 0.072 0 0 0 0 0 1 0 "/></filter><filter color-interpolation-filters="sRGB"><feColorMatrix values="0.21 0.72 0.072 0 0 0.21 0.72 0.072 0 0 0.21 0.72 0.072 0 0 0 0 0 1 0 "/></filter><filter color-interpolation-filters="sRGB"><feColorMatrix values="0.21 0.72 0.072 0 0 0.21 0.72 0.072 0 0 0.21 0.72 0.072 0 0 0 0 0 1 0 "/></filter><filter color-interpolation-filters="sRGB"><feColorMatrix values="0.21 0.72 0.072 0 0 0.21 0.72 0.072 0 0 0.21 0.72 0.072 0 0 0 0 0 1 0 "/></filter><filter color-interpolation-filters="sRGB"><feColorMatrix values="0.21 0.72 0.072 0 0 0.21 0.72 0.072 0 0 0.21 0.72 0.072 0 0 0 0 0 1 0 "/></filter><filter color-interpolation-filters="sRGB"><feColorMatrix values="0.21 0.72 0.072 0 0 0.21 0.72 0.072 0 0 0.21 0.72 0.072 0 0 0 0 0 1 0 "/></filter><filter color-interpolation-filters="sRGB"><feColorMatrix values="0.21 0.72 0.072 0 0 0.21 0.72 0.072 0 0 0.21 0.72 0.072 0 0 0 0 0 1 0 "/></filter><filter color-interpolation-filters="sRGB"><feColorMatrix values="0.21 0.72 0.072 0 0 0.21 0.72 0.072 0 0 0.21 0.72 0.072 0 0 0 0 0 1 0 "/></filter><filter color-interpolation-filters="sRGB"><feColorMatrix values="0.21 0.72 0.072 0 0 0.21 0.72 0.072 0 0 0.21 0.72 0.072 0 0 0 0 0 1 0 "/></filter><filter color-interpolation-filters="sRGB"><feColorMatrix values="0.21 0.72 0.072 0 0 0.21 0.72 0.072 0 0 0.21 0.72 0.072 0 0 0 0 0 1 0 "/></filter><filter color-interpolation-filters="sRGB"><feColorMatrix values="0.21 0.72 0.072 0 0 0.21 0.72 0.072 0 0 0.21 0.72 0.072 0 0 0 0 0 1 0 "/></filter><filter color-interpolation-filters="sRGB"><feColorMatrix values="0.21 0.72 0.072 0 0 0.21 0.72 0.072 0 0 0.21 0.72 0.072 0 0 0 0 0 1 0 "/></filter><filter color-interpolation-filters="sRGB"><feColorMatrix values="0.21 0.72 0.072 0 0 0.21 0.72 0.072 0 0 0.21 0.72 0.072 0 0 0 0 0 1 0 "/></filter><filter color-interpolation-filters="sRGB"><feColorMatrix values="0.21 0.72 0.072 0 0 0.21 0.72 0.072 0 0 0.21 0.72 0.072 0 0 0 0 0 1 0 "/></filter><filter color-interpolation-filters="sRGB"><feColorMatrix values="0.21 0.72 0.072 0 0 0.21 0.72 0.072 0 0 0.21 0.72 0.072 0 0 0 0 0 1 0 "/></filter></defs><path d="m15.763 15.763c2.322-2.322 5.124-3.858 8.084-4.644l-10.751-10.751c-0.49-0.49-1.285-0.49-1.775 0l-10.953 10.952c-0.49 0.49-0.49 1.285 0 1.775l10.751 10.751c0.785-2.96 2.322-5.762 4.644-8.083z" fill="#BFA380" filter="url(#filter483)"/><path d="m41.18 41.18c-2.322 2.322-5.124 3.858-8.084 4.644l10.751 10.751c0.49 0.49 1.285 0.49 1.775 0l10.953-10.953c0.49-0.49 0.49-1.285 0-1.775l-10.751-10.751c-0.786 2.96-2.322 5.763-4.644 8.084z" fill="#BFA380" filter="url(#filter487)"/><g fill="#9E6C53" filter="url(#filter491)"><path d="m14.471 9.463h-3v-3c0-0.552-0.448-1-1-1s-1 0.448-1 1v3h-3c-0.552 0-1 0.448-1 1s0.448 1 1 1h3v3c0 0.552 0.448 1 1 1s1-0.448 1-1v-3h3c0.552 0 1-0.448 1-1s-0.447-1-1-1z"/><path d="m50.471 45.463h-3v-3c0-0.552-0.448-1-1-1s-1 0.448-1 1v3h-3c-0.552 0-1 0.448-1 1s0.448 1 1 1h3v3c0 0.552 0.448 1 1 1s1-0.448 1-1v-3h3c0.552 0 1-0.448 1-1s-0.447-1-1-1z"/></g><circle cx="28.471" cy="28.471" r="17.973" fill="#556080" filter="url(#filter495)" stroke="#38454F" stroke-miterlimit="10" stroke-width="2"/><g fill="#7383BF" filter="url(#filter499)"><path d="m14.471 29.472c0.552 0 1-0.448 1-1s-0.448-1-1-1h-4c-0.552 0-1 0.448-1 1s0.448 1 1 1h4z"/><path d="m46.471 27.472h-4c-0.552 0-1 0.448-1 1s0.448 1 1 1h4c0.552 0 1-0.448 1-1s-0.447-1-1-1z"/><path d="m28.471 9.463c-0.552 0-1 0.448-1 1v4c0 0.552 0.448 1 1 1s1-0.448 1-1v-4c0-0.552-0.447-1-1-1z"/><path d="m28.471 41.463c-0.552 0-1 0.448-1 1v4c0 0.552 0.448 1 1 1s1-0.448 1-1v-4c0-0.552-0.447-1-1-1z"/><path d="m19.285 37.661c-0.391-0.391-1.023-0.391-1.414 0l-2.829 2.828c-0.391 0.39-0.391 1.023 0 1.414 0.195 0.195 0.451 0.293 0.707 0.293s0.512-0.098 0.707-0.293l2.829-2.828c0.391-0.39 0.391-1.023 0-1.414z"/><path d="m37.67 19.276c0.195 0.195 0.451 0.293 0.707 0.293s0.512-0.098 0.707-0.293l2.829-2.828c0.391-0.39 0.391-1.023 0-1.414s-1.023-0.391-1.414 0l-2.829 2.828c-0.391 0.39-0.391 1.024 0 1.414z"/><path d="m17.865 19.27c0.195 0.195 0.451 0.293 0.707 0.293s0.512-0.098 0.707-0.293c0.391-0.391 0.391-1.023 0-1.414l-2.829-2.829c-0.391-0.391-1.023-0.391-1.414 0s-0.391 1.023 0 1.414l2.829 2.829z"/><path d="m39.078 37.655c-0.391-0.391-1.023-0.391-1.414 0s-0.391 1.023 0 1.414l2.829 2.829c0.195 0.195 0.451 0.293 0.707 0.293s0.512-0.098 0.707-0.293c0.391-0.391 0.391-1.023 0-1.414l-2.829-2.829z"/><path d="m15.917 31.836c-0.143-0.534-0.69-0.852-1.225-0.707l-3.864 1.035c-0.534 0.143-0.85 0.691-0.707 1.225 0.12 0.447 0.523 0.742 0.965 0.742 0.085 0 0.172-0.011 0.259-0.035l3.864-1.035c0.534-0.143 0.851-0.692 0.708-1.225z"/><path d="m41.031 25.106c0.12 0.447 0.523 0.742 0.965 0.742 0.085 0 0.172-0.011 0.259-0.035l3.864-1.035c0.534-0.143 0.85-0.691 0.707-1.225-0.143-0.533-0.688-0.854-1.225-0.707l-3.864 1.035c-0.533 0.143-0.849 0.692-0.706 1.225z"/><path d="m23.882 15.199c0.12 0.447 0.523 0.742 0.965 0.742 0.085 0 0.172-0.011 0.259-0.035 0.534-0.143 0.85-0.691 0.707-1.225l-1.035-3.864c-0.143-0.533-0.689-0.852-1.225-0.707-0.534 0.143-0.85 0.691-0.707 1.225l1.036 3.864z"/><path d="m33.061 41.727c-0.143-0.533-0.688-0.853-1.225-0.707-0.534 0.143-0.85 0.691-0.707 1.225l1.035 3.864c0.12 0.447 0.523 0.742 0.965 0.742 0.085 0 0.172-0.011 0.259-0.035 0.534-0.143 0.85-0.691 0.707-1.225l-1.034-3.864z"/><path d="m21.979 39.725c-0.479-0.277-1.09-0.112-1.366 0.366l-2 3.464c-0.276 0.478-0.112 1.09 0.366 1.366 0.157 0.091 0.33 0.134 0.499 0.134 0.346 0 0.682-0.179 0.867-0.5l2-3.464c0.276-0.477 0.113-1.089-0.366-1.366z"/><path d="m34.979 17.209c0.157 0.091 0.33 0.134 0.499 0.134 0.346 0 0.682-0.179 0.867-0.5l2-3.464c0.276-0.478 0.112-1.09-0.366-1.366-0.478-0.277-1.09-0.112-1.366 0.366l-2 3.464c-0.276 0.478-0.112 1.089 0.366 1.366z"/><path d="m12.383 20.329l3.464 2c0.158 0.091 0.33 0.134 0.499 0.134 0.346 0 0.682-0.179 0.867-0.5 0.276-0.479 0.112-1.09-0.366-1.366l-3.464-2c-0.481-0.277-1.09-0.112-1.366 0.366s-0.113 1.09 0.366 1.366z"/><path d="m44.56 36.597l-3.464-2c-0.479-0.277-1.09-0.113-1.366 0.366-0.276 0.478-0.112 1.09 0.366 1.366l3.464 2c0.157 0.091 0.33 0.134 0.499 0.134 0.346 0 0.682-0.179 0.867-0.5 0.276-0.478 0.112-1.09-0.366-1.366z"/><path d="m17.218 34.971c-0.277-0.478-0.888-0.644-1.366-0.366l-3.464 2c-0.479 0.276-0.642 0.888-0.366 1.366 0.186 0.321 0.521 0.5 0.867 0.5 0.169 0 0.341-0.043 0.499-0.134l3.464-2c0.478-0.277 0.642-0.888 0.366-1.366z"/><path d="m39.734 21.971c0.186 0.321 0.521 0.5 0.867 0.5 0.169 0 0.342-0.043 0.499-0.134l3.464-2c0.479-0.276 0.642-0.888 0.366-1.366-0.276-0.479-0.888-0.643-1.366-0.366l-3.464 2c-0.478 0.276-0.642 0.888-0.366 1.366z"/><path d="m20.605 16.839c0.186 0.321 0.521 0.5 0.867 0.5 0.169 0 0.341-0.043 0.499-0.134 0.478-0.276 0.642-0.888 0.366-1.366l-2-3.464c-0.276-0.479-0.887-0.643-1.366-0.366-0.478 0.276-0.642 0.888-0.366 1.366l2 3.464z"/><path d="m36.337 40.088c-0.277-0.479-0.888-0.644-1.366-0.366-0.479 0.276-0.642 0.888-0.366 1.366l2 3.464c0.186 0.321 0.521 0.5 0.867 0.5 0.169 0 0.342-0.043 0.499-0.134 0.479-0.276 0.642-0.888 0.366-1.366l-2-3.464z"/><path d="m25.115 41.023c-0.533-0.143-1.082 0.173-1.225 0.707l-1.036 3.864c-0.143 0.533 0.173 1.082 0.707 1.225 0.086 0.023 0.174 0.035 0.259 0.035 0.441 0 0.846-0.295 0.965-0.742l1.036-3.864c0.144-0.534-0.172-1.082-0.706-1.225z"/><path d="m33.398 10.113c-0.533-0.144-1.082 0.174-1.225 0.707l-1.036 3.864c-0.143 0.533 0.173 1.082 0.707 1.225 0.086 0.023 0.174 0.035 0.259 0.035 0.441 0 0.846-0.295 0.965-0.742l1.036-3.864c0.144-0.533-0.173-1.082-0.706-1.225z"/><path d="m10.826 24.77l3.863 1.035c0.087 0.023 0.174 0.035 0.259 0.035 0.442 0 0.846-0.295 0.965-0.742 0.143-0.533-0.173-1.082-0.707-1.225l-3.863-1.035c-0.538-0.145-1.082 0.174-1.225 0.707-0.142 0.534 0.175 1.082 0.708 1.225z"/><path d="m46.117 32.156l-3.864-1.035c-0.536-0.146-1.083 0.174-1.225 0.707-0.143 0.534 0.173 1.082 0.707 1.225l3.864 1.035c0.087 0.023 0.174 0.035 0.259 0.035 0.442 0 0.846-0.295 0.965-0.742 0.144-0.534-0.173-1.082-0.706-1.225z"/></g><line x1="43.593" x2="41.471" y1="13.341" y2="15.463" fill="none" filter="url(#filter503)" stroke="#38454F" stroke-miterlimit="10" stroke-width="2"/><path d="m45.392 15.14l-3.598-3.598c-0.178-0.178-0.178-0.467 0-0.645l2.183-2.183c0.178-0.178 0.467-0.178 0.645 0l3.598 3.598c0.178 0.178 0.178 0.467 0 0.645l-2.183 2.183c-0.179 0.178-0.467 0.178-0.645 0z" fill="#C7CAC7" filter="url(#filter507)"/><path d="m36.094 33.68l-4.139-3.291c0.319-0.574 0.517-1.225 0.517-1.927 0-1.858-1.28-3.411-3-3.858v-6.142c0-0.552-0.448-1-1-1s-1 0.448-1 1v6.142c-1.72 0.447-3 2-3 3.858 0 2.206 1.794 4 4 4 0.775 0 1.492-0.231 2.105-0.614l4.272 3.396c0.184 0.146 0.404 0.217 0.622 0.217 0.294 0 0.586-0.129 0.783-0.377 0.344-0.431 0.272-1.06-0.16-1.404zm-9.623-5.217c0-1.103 0.897-2 2-2s2 0.897 2 2-0.897 2-2 2-2-0.897-2-2z" fill="#fff" filter="url(#filter511)"/></svg>
