<?xml version="1.0" encoding="iso-8859-1"?>
<!-- Generator: Adobe Illustrator 19.0.0, SVG Export Plug-In . SVG Version: 6.00 Build 0)  -->
<svg version="1.1" id="Capa_1" xmlns="http://www.w3.org/2000/svg" xmlns:xlink="http://www.w3.org/1999/xlink" x="0px" y="0px"
	 viewBox="0 0 511.999 511.999" style="enable-background:new 0 0 511.999 511.999;" xml:space="preserve">
<path style="fill:#FF6700;" d="M117.276,191.071c-18.61,0-36.394-7.679-49.156-21.224l-36.403-38.639
	c-3.218-3.416-0.794-9.024,3.898-9.02l131.483,0.09c0.205,0.001,0.355,0.005,0.504,0.01l132.954,0.001
	c0.777,0,1.551,0.014,2.321,0.041c31.525,1.116,58.229,27.122,60.789,59.208l0.762,9.535H117.276V191.071z"/>
<path style="fill:#FF7F00;" d="M363.165,191.071l-0.498-8.303c-0.892-14.873-7.017-29.045-17.247-39.906
	c-11.264-11.956-26.387-18.858-42.584-19.43c-0.754-0.027-1.515-0.041-2.279-0.041H183.372l-16.284-0.011
	c-22.519-0.131-44.001-8.577-60.531-23.786L79.96,75.12c-3.971-3.655-1.385-10.281,4.01-10.281h216.586
	c31.689,0,61.748,12.125,84.639,34.141c22.823,21.951,36.116,51.389,37.432,82.89l0.384,9.201L363.165,191.071L363.165,191.071z"/>
<path style="fill:#FF9700;" d="M421.859,191.071l-0.311-8.51c-2.381-65.393-55.527-116.618-120.992-116.618h-99.458
	c-15.367,0-30.222-6.416-40.757-17.602l-32.082-34.069c-2.453-2.605-0.607-6.882,2.972-6.882h169.325
	c47.035,0,91.534,18.12,125.3,51.022c33.701,32.839,52.974,76.729,54.267,123.583l0.127,4.607c0.067,2.447-1.899,4.468-4.347,4.468
	h-54.044V191.071z"/>
<path style="fill:#0A9177;" d="M267.719,474.174l5.895-1.496c5.556-1.178,10.691-3.939,14.847-7.984
	c5.962-5.801,9.245-13.576,9.245-21.891l-0.005-16.418h33.187l0.005,16.413c0,17.182-6.734,33.289-18.959,45.358
	c-9.66,9.534-21.822,15.635-35.171,17.645l-9.043,1.558v-33.186H267.719z"/>
<path style="fill:#423E3C;" d="M344.411,430.977h-60.474c-3.137,0-5.68-2.543-5.68-5.68v-31.733c0-3.137,2.543-5.68,5.68-5.68
	h60.474c3.137,0,5.68,2.543,5.68,5.68v31.733C350.091,428.434,347.547,430.977,344.411,430.977z"/>
<path style="fill:#0A9177;" d="M297.685,403.757l-0.046-80.86l-85.366-85.366l49.95,0.937l51.843,51.843l43.619-43.619h49.348
	l-76.206,76.206l0.045,80.853c0.002,3.205-2.595,5.804-5.8,5.804h-21.586C300.284,409.555,297.687,406.959,297.685,403.757z"/>
<path style="fill:#1ABA9B;" d="M203.441,349.243v-26.345l-66.923-66.922l13.908-4.364c7.085-2.224,14.414-3.709,21.786-4.415
	l4.144-0.397l43.51,43.512l43.62-43.62h49.348l-76.206,76.206v26.345H203.441z"/>
<path style="fill:#2B2725;" d="M249.84,391.486h-60.474c-3.137,0-5.68-2.543-5.68-5.68v-31.733c0-3.137,2.543-5.68,5.68-5.68h60.474
	c3.137,0,5.68,2.543,5.68,5.68v31.733C255.521,388.942,252.978,391.486,249.84,391.486z"/>
<path style="fill:#1ABA9B;" d="M257.529,505.775c-30.835-4.8-54.087-32.276-54.087-63.914v-65.248c0-3.204,2.597-5.8,5.8-5.8h21.587
	c3.204,0,5.8,2.597,5.8,5.8v65.544c0,14.562,10.163,27.382,24.167,30.484l6.922,1.533v33.187L257.529,505.775z"/>
<path style="fill:#FF9700;" d="M90.428,272.722c-3.25,0-5.818-1.045-7.402-1.924c-3.799-2.107-6.528-5.744-7.489-9.982l-3.34-14.753
	l64.879-22.607c14.62-5.093,29.881-7.676,45.359-7.676l285.997-0.079l-11.04,20.95c-3.663,6.875-10.775,11.146-18.565,11.146
	H182.435c-11.884,0-23.601,1.983-34.827,5.894l-9.206,3.209l-0.838,0.292l-42.109,14.672
	C93.824,272.433,92.131,272.722,90.428,272.722z"/>
<path style="fill:#2C59C6;" d="M78.129,230.217c4.151-13.131,6.192-24.731,6.239-35.462l0.055-12.213l11.609,3.888
	c6.932,2.347,14.081,3.538,21.246,3.538l354.329,1.104v18.892c0,3.822-3.099,6.921-6.921,6.921H182.435
	c-15.354,0-30.493,2.562-44.995,7.616l-65.243,21.564L78.129,230.217z"/>
<g>
	<path style="fill:#CC5200;" d="M123.517,167.955h33.048c2.936,0,4.74-3.524,3.084-6.119c-4.942-7.75-11.748-13.549-22.114-15.627
		h-32.812c-3.02,0-4.754,3.666-2.984,6.285C106.586,159.665,113.128,165.417,123.517,167.955z"/>
	<path style="fill:#CC5200;" d="M206.588,167.955h33.048c2.936,0,4.74-3.524,3.084-6.119c-4.942-7.75-11.748-13.549-22.114-15.627
		h-32.812c-3.02,0-4.755,3.666-2.984,6.285C189.656,159.665,196.198,165.417,206.588,167.955z"/>
</g>
<g>
	<path style="fill:#CE6200;" d="M201.184,97.994c-4.942-7.75-11.749-13.549-22.114-15.627h-32.812c-3.02,0-4.754,3.667-2.984,6.285
		c4.847,7.17,11.39,12.922,21.779,15.462H198.1C201.036,104.114,202.839,100.59,201.184,97.994z"/>
	<path style="fill:#CE6200;" d="M248.122,104.114h33.048c2.936,0,4.739-3.524,3.084-6.12c-4.942-7.75-11.748-13.549-22.114-15.627
		h-32.812c-3.02,0-4.755,3.667-2.984,6.285C231.19,95.823,237.734,101.576,248.122,104.114z"/>
</g>
<g>
	<path style="fill:#CC7605;" d="M294.441,48.385h33.048c2.936,0,4.739-3.524,3.084-6.119c-4.942-7.75-11.748-13.549-22.114-15.627
		h-32.812c-3.02,0-4.754,3.666-2.984,6.285C277.51,40.095,284.053,45.847,294.441,48.385z"/>
	<path style="fill:#CC7605;" d="M242.719,41.983c-4.942-7.75-11.748-13.549-22.114-15.627h-32.812c-3.02,0-4.755,3.666-2.984,6.285
		c4.847,7.17,11.39,12.922,21.779,15.462h33.048C242.572,48.103,244.375,44.58,242.719,41.983z"/>
</g>
<path style="fill:#CC5200;" d="M289.658,167.955h33.048c2.936,0,4.739-3.524,3.084-6.119c-4.942-7.75-11.748-13.549-22.113-15.627
	h-32.812c-3.02,0-4.755,3.666-2.984,6.285C272.726,159.665,279.27,165.417,289.658,167.955z"/>
<path d="M300.388,0H137.328c-5.42,0-10.311,3.216-12.461,8.192c-2.15,4.977-1.137,10.742,2.579,14.687l27.96,29.691
	c1.59,1.688,3.273,3.271,5.028,4.761H86.092c-5.635,0-10.598,3.392-12.646,8.64s-0.692,11.106,3.455,14.921l25.183,23.173
	c4.297,3.954,8.909,7.47,13.763,10.55l-76.859-0.053h-0.011c-5.418,0-10.309,3.214-12.46,8.189
	c-2.152,4.978-1.139,10.746,2.58,14.692l34.277,36.382c4.16,4.415,8.836,8.257,13.877,11.494
	c1.798,15.988-1.75,34.332-11.056,57.354c-0.004,0.009-0.005,0.019-0.009,0.028c-0.122,0.304-0.22,0.617-0.301,0.935
	c-0.016,0.063-0.029,0.125-0.043,0.187c-0.065,0.284-0.115,0.572-0.146,0.864c-0.004,0.038-0.011,0.076-0.015,0.114
	c-0.029,0.318-0.036,0.64-0.023,0.964c0.003,0.069,0.01,0.137,0.015,0.206c0.017,0.251,0.047,0.502,0.089,0.753
	c0.015,0.086,0.027,0.172,0.045,0.258c0.01,0.051,0.015,0.103,0.027,0.154l3.225,14.243c1.393,6.154,5.356,11.438,10.875,14.499
	c3.325,1.846,7.036,2.783,10.765,2.783c2.458,0,4.926-0.408,7.293-1.233l38.032-13.252l60.502,60.501v15.368h-1.801
	c-10.485,0-19.015,8.53-19.015,19.015v19.366c0,10.485,8.53,19.015,19.015,19.015h1.801v43.076
	c0,38.912,31.224,70.974,69.604,71.473c0.316,0.005,0.63,0.007,0.944,0.007c18.673,0,36.235-7.201,49.541-20.337
	c13.534-13.359,20.987-31.188,20.987-50.203v-0.004l-0.001-2.825h1.08c10.485,0,19.015-8.53,19.015-19.015v-19.366
	c0-10.485-8.53-19.015-19.015-19.015h-1.111l-0.032-56.557l70.879-70.878h29.954c10.345,0,19.793-5.672,24.656-14.803l11.48-21.557
	c2.197-2.641,3.521-6.033,3.521-9.729v-10.52h1.072c4.14,0,7.495-3.355,7.495-7.495v-3.485C486.598,83.534,403.064,0,300.388,0z
	 M74.286,163.548L42.26,129.554l124.935,0.085c0.16,0.001,0.318,0.011,0.478,0.011h132.716c0.682,0,1.36,0.012,2.03,0.035
	c28.096,0.995,51.154,24.214,52.992,52.514H117.487C101.201,182.201,85.454,175.402,74.286,163.548z M151.778,258.729
	c7.051-2.312,14.297-3.822,21.653-4.5l41.132,41.132c1.464,1.463,3.382,2.195,5.301,2.195c1.918,0,3.836-0.732,5.301-2.195
	l41.564-41.563h26.489l-62.476,62.476c-1.405,1.406-2.195,3.312-2.195,5.3v18.472h-17.027v-18.472c0-1.988-0.789-3.893-2.195-5.3
	L151.778,258.729z M194.201,253.799h25.45l12.937,12.937l-12.726,12.726L194.201,253.799z M240.852,253.799h4.674l-2.336,2.336
	L240.852,253.799z M196.528,376.192v6.263h-1.801c-2.221,0-4.025-1.806-4.025-4.025v-19.366c0-2.221,1.806-4.025,4.025-4.025h49.747
	c2.221,0,4.025,1.806,4.025,4.025v19.366c0,2.221-1.806,4.025-4.025,4.025h-0.939v-6.263c0-7.453-6.064-13.517-13.517-13.517
	h-19.972C202.592,362.675,196.528,368.739,196.528,376.192z M259.571,496.478c-27.044-3.751-48.053-27.534-48.053-55.958v-62.855
	h17.027v63.15c0,18.794,13.428,34.812,31.027,38.404V496.478z M266.4,464.983c-12.609-0.346-22.866-11.188-22.866-24.168v-43.37
	h0.939c10.485,0,19.015-8.53,19.015-19.015v-19.366c0-10.485-8.53-19.015-19.015-19.015h-0.939V324.68l23.498-23.499l23.5,23.5
	l0.032,56.553h-1.629c-10.485,0-19.015,8.53-19.015,19.015v19.366c0,10.485,8.53,19.015,19.015,19.015h1.66l0.001,2.829
	c0,6.408-2.529,12.399-7.124,16.869C278.882,462.796,272.79,465.152,266.4,464.983z M306.088,480.995
	c-8.678,8.566-19.657,13.916-31.527,15.506v-17.248c7.257-1.418,13.933-4.894,19.365-10.18c7.52-7.316,11.661-17.123,11.661-27.613
	v-0.004l-0.001-2.825h17.028l0.001,2.829C322.615,456.434,316.746,470.474,306.088,480.995z M337.584,400.923l-0.003-4.7h1.102
	c2.221,0,4.025,1.806,4.025,4.025v19.366c0,2.221-1.806,4.025-4.025,4.025h-49.747c-2.221,0-4.025-1.806-4.025-4.025v-19.366
	c0-2.221,1.806-4.025,4.025-4.025h1.638l0.003,4.717c0.004,7.876,6.415,14.284,14.292,14.284h18.424
	c3.818,0,7.409-1.487,10.108-4.188C336.101,408.334,337.586,404.744,337.584,400.923z M324.744,316.274
	c-1.406,1.407-2.196,3.315-2.195,5.305l0.045,78.655h-17.027l-0.045-78.663c-0.001-1.987-0.79-3.891-2.195-5.296l-25.694-25.694
	l13.076-13.075l17.857,17.857c1.464,1.463,3.383,2.195,5.301,2.195c1.918,0,3.836-0.732,5.3-2.195l41.563-41.563h26.49
	L324.744,316.274z M301.31,266.905l13.105-13.105h25.113l-25.662,25.663L301.31,266.905z M449.798,231.951
	c-2.253,4.23-6.631,6.858-11.424,6.858H182.509c-12.762,0-25.344,2.13-37.401,6.33l-8.734,3.043
	c-0.598,0.128-1.181,0.331-1.739,0.606L93.06,263.275c-1.96,0.683-4.038,0.504-5.855-0.503c-1.815-1.007-3.067-2.677-3.526-4.702
	l-1.746-7.713l57.959-20.195c13.732-4.786,28.071-7.212,42.618-7.212h272.08L449.798,231.951z M463.04,207.712
	c0,0.138-0.111,0.25-0.249,0.25H182.51c-16.23,0-32.229,2.707-47.551,8.048L85.621,233.2c4.841-14.898,7.15-28.114,7.063-40.315
	c7.907,2.805,16.292,4.307,24.802,4.307h345.553v10.52H463.04z M429.2,182.201c-0.405-13.163-2.792-25.835-6.873-37.728
	c-1.803-5.252-8.468-6.818-12.395-2.892l-0.017,0.017c-2.034,2.034-2.701,5.044-1.769,7.764c3.553,10.359,5.655,21.387,6.054,32.84
	h-43.758c-0.852-17.035-7.674-33.102-19.425-45.579c-12.702-13.484-29.771-21.267-48.073-21.916
	c-0.848-0.029-1.699-0.045-2.554-0.045H183.443l-16.247-0.011c-20.422-0.118-39.924-7.777-54.962-21.614L89.723,72.321h210.666
	c32.941,0,62.655,14.061,83.465,36.493c2.904,3.13,7.804,3.269,10.823,0.25l0,0c2.854-2.854,2.928-7.453,0.183-10.413
	c-23.551-25.397-57.184-41.32-94.472-41.32h-99.252c-13.127,0-25.817-5.48-34.816-15.037L140.608,14.99h159.779
	c93.069,0,169.032,74.647,171.174,167.211H429.2z"/>
<path d="M156.691,167.179c2.93,0,4.73-3.517,3.078-6.107c-4.932-7.734-11.724-13.521-22.068-15.594h-32.745
	c-3.014,0-4.745,3.659-2.978,6.272c4.837,7.156,11.367,12.896,21.734,15.429H156.691z"/>
<path d="M206.611,167.179h32.979c2.93,0,4.73-3.517,3.078-6.107c-4.932-7.734-11.724-13.521-22.068-15.594h-32.745
	c-3.014,0-4.745,3.659-2.978,6.272C189.715,158.905,196.244,164.646,206.611,167.179z"/>
<path d="M201.219,97.362c-4.931-7.734-11.724-13.521-22.068-15.594h-32.745c-3.014,0-4.745,3.659-2.978,6.272
	c4.837,7.156,11.367,12.896,21.734,15.43h32.979C201.072,103.469,202.871,99.953,201.219,97.362z"/>
<path d="M248.061,103.469h32.979c2.93,0,4.73-3.517,3.078-6.107c-4.931-7.734-11.724-13.521-22.068-15.594h-32.745
	c-3.014,0-4.745,3.659-2.978,6.272C231.164,95.195,237.694,100.935,248.061,103.469z"/>
<path d="M294.285,47.855h32.979c2.93,0,4.73-3.517,3.078-6.107c-4.932-7.734-11.724-13.521-22.068-15.594h-32.745
	c-3.014,0-4.745,3.659-2.978,6.272C277.388,39.581,283.917,45.322,294.285,47.855z"/>
<path d="M242.669,41.467c-4.932-7.734-11.724-13.521-22.068-15.594h-32.745c-3.014,0-4.745,3.659-2.978,6.272
	c4.838,7.155,11.367,12.896,21.734,15.429h32.979C242.522,47.573,244.321,44.057,242.669,41.467z"/>
<path d="M289.511,167.179h32.979c2.93,0,4.73-3.517,3.078-6.107c-4.932-7.734-11.724-13.521-22.068-15.594h-32.745
	c-3.014,0-4.745,3.659-2.978,6.272C272.614,158.905,279.144,164.646,289.511,167.179z"/>
<g>
</g>
<g>
</g>
<g>
</g>
<g>
</g>
<g>
</g>
<g>
</g>
<g>
</g>
<g>
</g>
<g>
</g>
<g>
</g>
<g>
</g>
<g>
</g>
<g>
</g>
<g>
</g>
<g>
</g>
</svg>
