<?xml version="1.0" encoding="iso-8859-1"?>
<!-- Generator: Adobe Illustrator 19.0.0, SVG Export Plug-In . SVG Version: 6.00 Build 0)  -->
<svg version="1.1" id="Capa_1" xmlns="http://www.w3.org/2000/svg" xmlns:xlink="http://www.w3.org/1999/xlink" x="0px" y="0px"
	 viewBox="0 0 512 512" style="enable-background:new 0 0 512 512;" xml:space="preserve">
<path style="fill:#87461A;" d="M361.635,238.193l-2.835-5.495v-92.041h31.902v127.262
	C390.702,267.919,367.025,248.637,361.635,238.193z"/>
<path style="fill:#9DD82A;" d="M374.751,167.967c-21.951,0-39.811-17.859-39.811-39.811V97.953c0-21.951,17.859-39.81,39.811-39.81
	c21.952,0,39.811,17.858,39.811,39.81v30.203C414.561,150.108,396.703,167.967,374.751,167.967z"/>
<path style="fill:#526D6A;" d="M460.41,415.812h19.02c5.319,0,8.569,5.842,5.763,10.362l-13.34,21.489
	c-0.89,1.435-2.978,1.435-3.868,0l-13.34-21.489C451.841,421.654,455.091,415.812,460.41,415.812z"/>
<path style="fill:#E27310;" d="M98.504,453.858v-78.843c0-21.052,3.206-41.783,9.53-61.616l1.342-4.208l146.287-37.831
	l146.287,37.831l1.342,4.208c6.323,19.833,9.53,40.565,9.53,61.616v78.843L98.504,453.858L98.504,453.858z"/>
<path style="fill:#FFA300;" d="M141.484,453.858v-78.843c0-25.134,3.253-49.528,9.671-72.51l1.239-4.439l103.27-26.706
	l103.27,26.706l1.239,4.439c6.417,22.98,9.671,47.376,9.671,72.51v78.843L141.484,453.858L141.484,453.858z"/>
<path style="fill:#E08B03;" d="M369.843,453.858v-78.843c0-25.134-3.253-49.528-9.671-72.51l-1.239-4.439l-103.27-26.706v182.497
	H369.843z"/>
<g>
	<path style="fill:#CD6B0B;" d="M256.089,345.849l54.183,14.126c2.491,0.649,4.21,2.925,4.154,5.499l-1.927,88.385l-15.185-27.402
		L256.089,345.849z"/>
	<path style="fill:#CD6B0B;" d="M256.089,345.849l-53.035,14.11c-2.478,0.659-4.183,2.928-4.127,5.492l1.927,88.407l15.185-27.402
		L256.089,345.849z"/>
</g>
<polygon style="fill:#B75A06;" points="200.361,453.858 256.089,345.849 311.819,453.858 "/>
<path style="fill:#4DA741;" d="M255.663,272.393L83.971,316.794c-2.059,0.533-3.88-1.446-3.179-3.454l3.294-9.431
	c10.551-30.207,27.634-58.086,49.402-80.623c21.887-22.659,48.698-40.11,77.536-50.464l30.39-10.911
	c4.574-1.643,9.369-2.477,14.25-2.477c4.88,0,9.675,0.834,14.251,2.477l30.389,10.911c28.838,10.355,55.649,27.805,77.536,50.464
	c21.769,22.537,38.852,50.416,49.402,80.623l4.057,11.616c0.375,1.075-0.599,2.134-1.702,1.849L255.663,272.393z"/>
<path style="fill:#9DD82A;" d="M156.781,285.019c2.698-7.409,5.705-14.537,8.939-21.185c15.871-32.619,37.887-56.606,63.669-69.362
	l24.09-11.92c1.377-0.681,2.993-0.681,4.37,0l24.09,11.92c25.782,12.758,47.798,36.742,63.668,69.362
	c3.23,6.641,6.238,13.769,8.939,21.183l5.205,14.292l-104.088-26.917L151.576,299.31L156.781,285.019z"/>
<path style="fill:#526D6A;" d="M31.897,415.812h19.02c5.319,0,8.569,5.842,5.763,10.362l-12.241,19.72
	c-1.396,2.249-4.669,2.249-6.065,0l-12.241-19.72C23.328,421.654,26.578,415.812,31.897,415.812z"/>
<path d="M504.5,460.858c0.005,0-497.003,0-496.999,0c0.006,0-0.006,0,0,0H504.5c4.143,0,7.5-3.357,7.5-7.5
	c0-4.143-3.357-7.5-7.5-7.5h-23.285l11.448-18.44c2.329-3.754,2.442-8.485,0.294-12.347c-2.147-3.86-6.227-6.259-10.646-6.259
	h-12.527l-31.728-93.903c-8.368-29.473-22.242-56.397-40.361-79.44c0.001-0.055,0.008-0.108,0.008-0.164v-66.373
	c14.227-8.04,23.858-23.299,23.858-40.775V97.953c0-25.812-20.999-46.811-46.811-46.811c-25.813,0-46.812,20.999-46.812,46.811
	v30.203c0,17.476,9.632,32.735,23.859,40.776v22.898c-15.119-10.637-31.595-19.3-49.131-25.597l-30.389-10.911
	c-10.716-3.848-22.519-3.849-33.232,0l-30.389,10.911c-64.98,23.331-115.57,78.894-135.381,148.659L41.543,408.81H29.017
	c-4.418,0-8.498,2.398-10.646,6.259s-2.035,8.593,0.295,12.349l11.447,18.439H7.5c-4.143,0-7.5,3.357-7.5,7.5
	c0,4.143,3.357,7.5,7.5,7.5 M342.94,128.156V97.953c0-17.54,14.271-31.81,31.811-31.81c17.54,0,31.81,14.27,31.81,31.81v30.203
	c0,17.54-14.27,31.811-31.81,31.811C357.211,159.967,342.94,145.697,342.94,128.156z M382.702,174.967v43.293
	c-5.057-5.225-10.372-10.171-15.901-14.845v-28.448L382.702,174.967L382.702,174.967z M41.407,435.609l-7.322-11.797H48.73
	L41.407,435.609z M91.504,375.015v70.842H52.701l11.448-18.44c2.329-3.754,2.442-8.485,0.294-12.347
	c-1.578-2.836-4.202-4.872-7.233-5.759l29.013-85.869l12.52-3.237C93.939,337.985,91.504,356.363,91.504,375.015z M134.483,375.015
	v70.842h-27.979v-70.842c0-20.243,3.077-40.134,9.153-59.185l26.627-6.885C137.214,329.754,134.483,352.033,134.483,375.015z
	 M196.219,354.22c-3.363,0.905-5.66,4.006-5.547,7.486l2.74,84.151h-43.929v-70.842c0-24.46,3.2-48.242,9.376-70.357l89.73-23.204
	v57.761l-0.512,1.047L196.219,354.22z M164.298,287.757c2.559-7.027,5.42-13.856,8.616-20.422
	c15.089-31.013,35.844-53.728,60.023-65.692l15.652-7.744v72.062L164.298,287.757z M205.859,367.16l33.478-9.012l-31.661,64.794
	L205.859,367.16z M213.174,445.857l42.916-87.826l42.916,87.826H213.174z M304.503,422.943l-31.661-64.794l33.478,9.012
	L304.503,422.943z M404.822,445.857h-27.979v-46.324c0-3.821-2.903-7.011-6.706-7.384c-0.053-0.005-0.105-0.01-0.158-0.016
	c-4.36-0.43-8.137,3.004-8.137,7.385v46.339h-43.077l2.74-84.15c0.113-3.481-2.184-6.581-5.547-7.487l-51.857-13.959l-0.512-1.047
	v-57.541l88.878,22.984c4.16,14.898,6.966,30.554,8.357,46.663c0.307,3.56,3.094,6.397,6.649,6.757
	c0.05,0.005,0.101,0.01,0.151,0.015c4.647,0.47,8.536-3.426,8.13-8.079c-1.234-14.149-3.502-27.904-6.709-41.07l26.627,6.885
	c6.074,19.051,9.153,38.941,9.153,59.185v70.843H404.822z M263.59,266.179v-71.86l14.801,7.323
	c24.178,11.965,44.934,34.68,60.023,65.692c3.195,6.566,6.056,13.394,8.616,20.421L263.59,266.179z M403.509,302.363
	c-0.042-0.012-0.084-0.021-0.125-0.033l-39.007-10.088c-15.218-48.009-43.421-86.274-79.333-104.046l-26.054-12.892
	c-2.096-1.037-4.557-1.037-6.652,0l-26.054,12.892c-35.912,17.771-64.115,56.036-79.333,104.046l-38.992,10.084
	c-0.052,0.013-0.104,0.026-0.155,0.04l-16.165,4.18c20.693-59.246,65.554-105.897,122.089-126.196l30.39-10.911
	c7.445-2.674,15.647-2.674,23.094,0l30.389,10.911c56.535,20.299,101.395,66.949,122.089,126.196L403.509,302.363z M419.823,445.857
	v-70.842c0-18.652-2.435-37.03-7.238-54.81l12.52,3.237l29.014,85.868c-3.031,0.887-5.656,2.923-7.233,5.759
	c-2.148,3.861-2.035,8.593,0.295,12.349l11.447,18.439H419.823z M469.92,435.609l-7.322-11.797h14.646L469.92,435.609z"/>
<g>
</g>
<g>
</g>
<g>
</g>
<g>
</g>
<g>
</g>
<g>
</g>
<g>
</g>
<g>
</g>
<g>
</g>
<g>
</g>
<g>
</g>
<g>
</g>
<g>
</g>
<g>
</g>
<g>
</g>
</svg>
