<?xml version="1.0" encoding="iso-8859-1"?>
<!-- Generator: Adobe Illustrator 19.0.0, SVG Export Plug-In . SVG Version: 6.00 Build 0)  -->
<svg version="1.1" id="Capa_1" xmlns="http://www.w3.org/2000/svg" xmlns:xlink="http://www.w3.org/1999/xlink" x="0px" y="0px"
	 viewBox="0 0 512 512" style="enable-background:new 0 0 512 512;" xml:space="preserve">
<path style="fill:#285CC6;" d="M220.809,110.411l-14.15,13.664h-35.246l-41.213,0.076V242.48l-0.084,8.383
	c-0.077,7.71-6.449,14.019-14.16,14.019H69.24c-11.559,0-20.929,9.37-20.929,20.929V318.6c0,11.961,9.697,21.658,21.658,21.658h88.9
	l9.834-6.768h60.896V114.141C229.598,109.564,224.101,107.231,220.809,110.411z"/>
<path style="fill:#1B50AF;" d="M220.809,110.411l-14.15,13.664h-9.67V333.49h32.609V114.141
	C229.598,109.564,224.101,107.231,220.809,110.411z"/>
<path style="fill:#6CA1FF;" d="M191.943,333.49v-24.419H66.517c-3.747,0-7.27,1.535-9.923,4.325l-8.016,8.434
	c1.563,10.424,10.531,18.428,21.392,18.428h88.9l9.834-6.768L191.943,333.49L191.943,333.49z"/>
<path style="fill:#F0EBD2;" d="M185.356,333.49v-22.386c0-14.253,11.596-25.847,25.849-25.847h18.394v48.234L185.356,333.49
	L185.356,333.49z"/>
<g>
	<rect x="53.284" y="360.473" style="fill:#7A9DA0;" width="23.835" height="65.618"/>
	<rect x="193.858" y="360.473" style="fill:#7A9DA0;" width="23.835" height="65.618"/>
</g>
<path style="fill:#9BB8BC;" d="M242.956,412.252c-1.354,0.18-2.731,0.274-4.128,0.274H38.236c-0.742,0-1.455-0.298-1.977-0.825
	l-1.341-1.356c-0.731-0.738-1.727-1.155-2.767-1.155H11.228c-2.734,0-4.616,2.744-3.632,5.295l2.397,6.21
	c4.53,11.737,15.621,19.321,28.254,19.321H238.81c1.393,0,2.772-0.065,4.146-0.164V412.252z"/>
<path style="fill:#6D6864;" d="M166.476,372.95l-5.56-3.936c-1.593-1.128-3.498-1.733-5.45-1.733H89.075
	c-2.129,0-4.094,1.079-5.256,2.886l-0.779,1.209c-1.071,1.665-2.916,2.672-4.896,2.672H44.524c-3.215,0-5.822-2.606-5.822-5.822
	v-19.385c0-5.324,4.316-9.641,9.641-9.641h110.197l8.303-5.715c0.997-0.686,2.177-1.053,3.388-1.053h67.563
	c5.577,0,10.098,4.521,10.098,10.098v21.422c0,5.577-4.521,10.098-10.098,10.098h-67.866
	C168.691,374.048,167.486,373.664,166.476,372.95z"/>
<path style="fill:#F0EBD2;" d="M130.128,243.537V82.347c0-5.715,4.65-10.365,10.365-10.365h21.614
	c5.715,0,10.364,4.65,10.364,10.365v141.926c0,10.623-8.642,19.265-19.265,19.265h-23.079V243.537z"/>
<path style="fill:#285CC6;" d="M428.149,110.411l-14.15,13.664h-35.246l-41.214,0.076V242.48l-0.084,8.383
	c-0.077,7.71-6.449,14.019-14.16,14.019h-46.717c-11.559,0-20.929,9.37-20.929,20.929V318.6c0,11.961,9.697,21.658,21.658,21.658
	h88.9l9.834-6.768h60.896V114.141C436.938,109.564,431.441,107.231,428.149,110.411z"/>
<path style="fill:#1B50AF;" d="M428.149,110.411l-14.15,13.664h-6.849V333.49h29.788V114.141
	C436.938,109.564,431.441,107.231,428.149,110.411z"/>
<path style="fill:#6CA1FF;" d="M399.282,333.49v-24.419H273.856c-3.747,0-7.27,1.535-9.923,4.325l-8.016,8.434
	c1.563,10.424,10.531,18.428,21.392,18.428h88.9l9.834-6.768L399.282,333.49L399.282,333.49z"/>
<path style="fill:#F0EBD2;" d="M392.695,333.49v-22.386c0-14.253,11.596-25.847,25.849-25.847h18.394v48.234L392.695,333.49
	L392.695,333.49z"/>
<g>
	<rect x="260.619" y="360.473" style="fill:#7A9DA0;" width="23.835" height="65.618"/>
	<rect x="401.193" y="360.473" style="fill:#7A9DA0;" width="23.835" height="65.618"/>
</g>
<path style="fill:#7DA7AA;" d="M245.586,440.017c-12.634,0-23.723-7.584-28.254-19.321l-2.397-6.21
	c-0.985-2.551,0.898-5.294,3.632-5.294h20.923c1.04,0,2.036,0.416,2.767,1.155l1.341,1.355c0.522,0.528,1.234,0.825,1.977,0.825
	h200.593c14.787,0,27.531-10.406,30.488-24.894l0.745-3.653c0.37-1.813,1.965-3.114,3.814-3.114h19.827
	c2.395,0,4.221,2.141,3.845,4.506l-0.843,5.284c-4.488,28.14-29.376,49.361-57.893,49.361L245.586,440.017L245.586,440.017z"/>
<path style="fill:#605A57;" d="M373.816,372.95l-5.56-3.936c-1.593-1.128-3.498-1.733-5.45-1.733h-66.392
	c-2.129,0-4.094,1.079-5.256,2.886l-0.779,1.209c-1.071,1.665-2.916,2.672-4.896,2.672h-33.621c-3.215,0-5.822-2.606-5.822-5.822
	v-19.385c0-5.324,4.316-9.641,9.641-9.641h110.197l8.303-5.715c0.997-0.686,2.177-1.053,3.388-1.053h67.563
	c5.577,0,10.098,4.521,10.098,10.098v21.422c0,5.577-4.521,10.098-10.098,10.098h-67.866
	C376.031,374.048,374.825,373.664,373.816,372.95z"/>
<path style="fill:#F0EBD2;" d="M337.467,243.537V82.347c0-5.715,4.65-10.365,10.365-10.365h21.614
	c5.715,0,10.364,4.65,10.364,10.365v141.926c0,10.623-8.642,19.265-19.265,19.265h-23.079V243.537z"/>
<path d="M505.883,377.229c-2.691-2.014-6.028-2.976-9.389-2.976h-11.125c-7.247,0-13.502,5.152-14.845,12.239
	c-2.175,11.486-12.673,19.522-24.364,19.522h-13.024v-24.588h13.111c9.464,0,17.134-7.671,17.134-17.134v-21.49
	c0-9.462-7.671-17.134-17.134-17.134h-1.215V115.544c0-4.829-2.502-9.43-6.762-11.704c-4.97-2.652-10.98-1.769-14.965,2.077
	l-11.12,10.739h-24.46V81.281c0-9.324-7.559-16.883-16.883-16.883H348.12c-9.324,0-16.883,7.559-16.883,16.883v169.414
	c0,3.982-3.228,7.21-7.21,7.21h-46.865c-15.464,0-28,12.535-28,28v32.891c0,5.083,1.333,9.859,3.658,14.006
	c-0.339,0.07-0.666,0.167-0.998,0.257c-3.096-4.461-8.248-7.392-14.078-7.392h-1.215V250.57c0-4.162-3.374-7.536-7.536-7.536l0,0
	c-4.162,0-7.536,3.374-7.536,7.536v27.771H211.07c-15.459,0-28.458,10.709-31.985,25.096H69.718c-5.268,0-10.222,2.028-13.986,5.702
	v-23.235c0-7.14,5.788-12.927,12.927-12.927h46.865c12.306,0,22.283-9.976,22.283-22.283v-0.19h16.074
	c13.995,0,25.342-11.345,25.342-25.342v-93.436h27.506c1.953,0,3.828-0.758,5.233-2.114l9.496-9.171v81.189
	c0,4.162,3.374,7.536,7.536,7.536l0,0c4.162,0,7.536-3.374,7.536-7.536v-86.152c0-4.467-2.141-8.76-5.918-11.147
	c-5.115-3.234-11.595-2.482-15.81,1.585l-11.12,10.739h-24.46V81.281c0-9.324-7.559-16.883-16.883-16.883h-22.721
	c-9.324,0-16.883,7.559-16.883,16.883v169.414c0,3.982-3.228,7.21-7.21,7.21H68.66c-15.464,0-28,12.535-28,28v32.891
	c0,5.083,1.333,9.859,3.658,14.006c-7.581,1.567-13.297,8.293-13.297,16.332v17.09c0,8.188,6.512,14.866,14.627,15.173v24.617h-6.64
	c-2.162-2.126-5.092-3.346-8.202-3.346H12.008c-2.659,0-5.295,0.785-7.401,2.409c-3.502,2.699-5.142,6.994-4.452,11.197
	c2.977,18.153,18.498,31.328,36.905,31.328h201.194v-0.715c2.368,0.464,4.809,0.715,7.308,0.715h201.194
	c32.277,0,60.254-24.049,65.074-55.94C512.654,386.203,510.46,380.654,505.883,377.229z M137.806,206.555h9.014
	c4.162,0,7.536-3.374,7.536-7.536c0-4.162-3.374-7.536-7.536-7.536h-9.014v-8.791h9.014c4.162,0,7.536-3.374,7.536-7.536
	c0-4.162-3.374-7.536-7.536-7.536h-9.014v-8.79h9.014c4.162,0,7.536-3.374,7.536-7.536s-3.374-7.536-7.536-7.536h-9.014v-8.791
	h9.014c4.162,0,7.536-3.374,7.536-7.536c0-4.162-3.374-7.536-7.536-7.536h-9.014v-8.791h9.014c4.162,0,7.536-3.374,7.536-7.536
	c0-4.162-3.374-7.536-7.536-7.536h-9.014V81.281c0-0.999,0.813-1.812,1.811-1.812h22.721c0.999,0,1.812,0.813,1.812,1.812v143.883
	c0,5.662-4.607,10.269-10.269,10.269h-16.074L137.806,206.555L137.806,206.555z M346.307,206.555h9.014
	c4.162,0,7.536-3.374,7.536-7.536c0-4.162-3.374-7.536-7.536-7.536h-9.014v-8.791h9.014c4.162,0,7.536-3.374,7.536-7.536
	c0-4.162-3.374-7.536-7.536-7.536h-9.014v-8.79h9.014c4.162,0,7.536-3.374,7.536-7.536s-3.374-7.536-7.536-7.536h-9.014v-8.791
	h9.014c4.162,0,7.536-3.374,7.536-7.536c0-4.162-3.374-7.536-7.536-7.536h-9.014v-8.791h9.014c4.162,0,7.536-3.374,7.536-7.536
	c0-4.162-3.374-7.536-7.536-7.536h-9.014V81.281c0-0.999,0.813-1.812,1.811-1.812h22.721c0.999,0,1.812,0.813,1.812,1.812v143.883
	c0,5.662-4.607,10.269-10.269,10.269h-16.074L346.307,206.555L346.307,206.555z M264.233,285.904
	c0-7.129,5.799-12.927,12.928-12.927h46.865c12.286,0,22.283-9.997,22.283-22.283v-0.19h16.074c13.973,0,25.341-11.367,25.341-25.34
	v-93.436h27.505c1.953,0,3.829-0.758,5.235-2.114l9.496-9.171v157.899h-10.386c-15.459,0-28.458,10.709-31.985,25.096H278.22
	c-5.268,0-10.222,2.028-13.986,5.702v-23.235H264.233z M429.958,293.413v32.253h-28.25v-14.389c0-9.851,8.014-17.865,17.864-17.865
	L429.958,293.413L429.958,293.413z M386.636,318.508v7.158h-9.864c-1.526,0-3.016,0.463-4.272,1.329l-7.935,5.462h-86.671
	c-4.279,0-8.101-1.981-10.608-5.071l7.422-7.422c0.939-0.938,2.186-1.456,3.513-1.456L386.636,318.508L386.636,318.508z
	 M254.877,364.291v-16.065c0.29-0.42,0.774-0.696,1.322-0.696h110.707c1.526,0,3.016-0.463,4.272-1.329l7.935-5.462h67.13
	c1.137,0,2.063,0.925,2.063,2.062v21.49c0,1.137-0.925,2.063-2.063,2.063h-67.419l-5.04-3.568c-2.978-2.108-6.48-3.221-10.129-3.221
	h-66.598c-5.136,0-9.65,2.717-12.179,6.789H254.74C254.823,365.676,254.877,364.99,254.877,364.291z M418.063,381.425v24.588h-7.882
	v-24.588H418.063z M395.108,381.425v24.588H292.069v-24.812c3.057-0.75,5.385-3.359,5.7-6.565h65.888
	c0.512,0,1.004,0.156,1.422,0.452l6.996,4.952c1.273,0.902,2.794,1.386,4.355,1.386L395.108,381.425L395.108,381.425z
	 M276.998,381.425v24.588h-7.777v-24.588H276.998z M254.149,381.396v24.617h-6.64c-2.162-2.126-5.092-3.346-8.202-3.346h-14.674
	v-21.242h13.111c3.202,0,6.191-0.899,8.758-2.435C248.723,380.426,251.339,381.291,254.149,381.396z M193.206,311.277
	c0-9.851,8.014-17.865,17.864-17.865h10.386v32.253h-28.25L193.206,311.277L193.206,311.277z M66.205,319.964
	c0.939-0.938,2.186-1.456,3.513-1.456h108.417v7.158h-9.864c-1.526,0-3.016,0.463-4.273,1.329l-7.935,5.462h-86.67
	c-4.279,0-8.101-1.981-10.608-5.071L66.205,319.964z M37.059,432.529c-9.619,0-17.917-6.024-21.029-14.79h13.18
	c2.034,2.121,4.853,3.346,7.849,3.346h172.712c1.264,4.196,3.226,8.05,5.742,11.444H37.059z M60.719,406.013v-24.588h7.777v24.588
	H60.719z M83.568,406.013v-24.812c3.057-0.75,5.385-3.359,5.7-6.565h65.888c0.512,0,1.004,0.156,1.422,0.452l6.996,4.952
	c1.273,0.902,2.794,1.386,4.354,1.386h18.68v24.588L83.568,406.013L83.568,406.013z M201.679,406.013v-24.588h7.882v24.588H201.679z
	 M170.324,366.353l-5.04-3.568c-2.978-2.108-6.48-3.221-10.129-3.221H88.558c-5.136,0-9.65,2.717-12.179,6.789H46.222
	c-0.072,0-0.129-0.058-0.129-0.129v-17.09c0-0.885,0.72-1.605,1.606-1.605h110.707c1.526,0,3.016-0.463,4.273-1.329l7.935-5.462
	h67.13c1.137,0,2.063,0.925,2.063,2.062v3.339c-0.177,0.973-0.285,1.971-0.285,2.995v16.183c-0.357,0.616-1.016,1.037-1.778,1.037
	L170.324,366.353L170.324,366.353z M446.755,432.529H245.561c-9.619,0-17.917-6.024-21.029-14.79h13.18
	c2.034,2.122,4.853,3.346,7.849,3.346h201.194c18.773,0,34.997-13.369,38.613-31.761h11.494l0.064,0.084
	C493.21,413.992,471.641,432.529,446.755,432.529z"/>
<g>
</g>
<g>
</g>
<g>
</g>
<g>
</g>
<g>
</g>
<g>
</g>
<g>
</g>
<g>
</g>
<g>
</g>
<g>
</g>
<g>
</g>
<g>
</g>
<g>
</g>
<g>
</g>
<g>
</g>
</svg>
