<?xml version="1.0" encoding="iso-8859-1"?>
<!-- Generator: Adobe Illustrator 19.0.0, SVG Export Plug-In . SVG Version: 6.00 Build 0)  -->
<svg version="1.1" id="Capa_1" xmlns="http://www.w3.org/2000/svg" xmlns:xlink="http://www.w3.org/1999/xlink" x="0px" y="0px"
	 viewBox="0 0 512.002 512.002" style="enable-background:new 0 0 512.002 512.002;" xml:space="preserve">
<path style="fill:#7D9C9E;" d="M206.91,221.292l0.5-1.558c6.38-19.923,26.362-33.839,48.591-33.839
	c22.229,0,42.21,13.915,48.591,33.839l0.5,1.558l-8.326,105.163l-13.766-14.578c-6.762-7.978-16.601-12.554-26.999-12.554
	c-10.398,0-20.237,4.576-26.999,12.554l-13.766,14.578L206.91,221.292z"/>
<path style="fill:#638889;" d="M251.738,221.292l0.5-1.558c4.104-12.816,13.84-23.137,26.177-28.876
	c-6.843-3.184-14.483-4.963-22.415-4.963c-22.229,0-42.21,13.915-48.591,33.84l-0.5,1.558l8.326,105.163l13.766-14.578
	c6.761-7.978,16.601-12.554,26.999-12.554c0.642,0,1.282,0.018,1.92,0.053L251.738,221.292z"/>
<path style="fill:#5A8B8C;" d="M256,236.407c19.221,0,36.753,10.409,45.274,26.105l3.817-41.219l-0.5-1.558
	c-6.38-19.923-26.362-33.839-48.591-33.839s-42.21,13.915-48.591,33.839l-0.5,1.558l3.817,41.219
	C219.247,246.815,236.779,236.407,256,236.407z"/>
<path style="fill:#467777;" d="M252.942,236.501l-1.075-13.578c-0.085-1.077,0.04-2.16,0.37-3.189l0,0
	c4.104-12.816,13.84-23.137,26.177-28.876c-1.695-0.789-3.438-1.489-5.223-2.1c-0.038-0.013-0.076-0.025-0.114-0.038
	c-1.751-0.595-3.542-1.101-5.365-1.513c-0.079-0.018-0.159-0.034-0.239-0.051c-0.768-0.165-1.533-0.343-2.31-0.459
	c-0.179-0.026-0.355-0.062-0.533-0.091c-0.88-0.145-1.766-0.27-2.658-0.371c-0.116-0.013-0.234-0.022-0.351-0.034
	c-0.759-0.081-1.521-0.143-2.287-0.192c-0.228-0.014-0.456-0.029-0.685-0.04c-0.88-0.044-1.762-0.074-2.65-0.074
	c-22.229,0-42.21,13.915-48.591,33.839l-0.5,1.558l3.817,41.219C218.792,247.652,234.936,237.538,252.942,236.501z"/>
<path style="fill:#12586D;" d="M256,376.399c-22.986,0-41.687-18.7-41.687-41.687s18.701-41.687,41.687-41.687
	c22.985,0,41.687,18.7,41.687,41.687S278.986,376.399,256,376.399z"/>
<path style="fill:#0B4E5E;" d="M256,334.713c0-15.396,8.396-28.86,20.843-36.079c-6.136-3.559-13.253-5.608-20.843-5.608
	c-22.986,0-41.687,18.7-41.687,41.687s18.701,41.687,41.687,41.687c7.59,0,14.707-2.049,20.843-5.608
	C264.396,363.571,256,350.108,256,334.713z"/>
<path style="fill:#9BB8BC;" d="M256,348.847c-7.794,0-14.134-6.34-14.134-14.134s6.34-14.134,14.134-14.134
	c7.794,0,14.134,6.34,14.134,14.134S263.793,348.847,256,348.847z"/>
<path style="fill:#6D6864;" d="M95.195,143.515V94.096c0-8.372,5.743-15.487,13.966-17.305c10.302-2.275,20.8-3.427,31.205-3.427
	s20.901,1.153,31.2,3.427c8.225,1.818,13.968,8.933,13.968,17.305v49.419H95.195z"/>
<path style="fill:#12586D;" d="M20.459,263.355c-7.409,0-13.436-6.026-13.436-13.435l0.016-52.16l10.147,12.61
	c1.13,0.313,2.23,0.471,3.273,0.471h54.33l-4.862,52.516L20.459,263.355L20.459,263.355z"/>
<path style="fill:#0C4156;" d="M20.459,211.844c-3.708,0-7.161-1.479-9.721-4.162c-2.56-2.682-3.873-6.207-3.699-9.922
	c0.337-7.171,6.393-12.788,13.786-12.788h56.359l-2.488,26.871H20.459z"/>
<path style="fill:#9BB8BC;" d="M79.299,151.254c2.101-22.691,20.87-39.803,43.659-39.803h34.815
	c22.789,0,41.558,17.112,43.659,39.803l16.32,207.141l-157.626-0.082L79.299,151.254z"/>
<path style="fill:#86AAAD;" d="M128.036,358.312l19.172-207.058c1.561-16.863,12.332-30.638,27.112-36.605
	c-5.109-2.063-10.694-3.199-16.547-3.199h-34.815c-22.789,0-41.558,17.112-43.659,39.803L60.127,358.312H128.036z"/>
<path style="fill:#3A3735;" d="M140.366,438.638c-44.246,0-80.244-35.998-80.244-80.245s35.998-80.243,80.244-80.243
	s80.244,35.997,80.244,80.243S184.612,438.638,140.366,438.638z"/>
<g>
	<path style="fill:#2D221E;" d="M138.94,358.393c0-29.929,16.482-56.065,40.835-69.858c-11.65-6.598-25.091-10.386-39.409-10.386
		c-44.246,0-80.244,35.997-80.244,80.244c0,44.246,35.998,80.245,80.244,80.245c14.318,0,27.759-3.787,39.409-10.386
		C155.422,414.46,138.94,388.322,138.94,358.393z"/>
	<path style="fill:#2D221E;" d="M370.209,358.393c0-29.929,16.482-56.065,40.835-69.858c-11.65-6.598-25.091-10.386-39.409-10.386
		c-44.246,0-80.244,35.997-80.244,80.244c0,44.246,35.998,80.245,80.244,80.245c14.318,0,27.759-3.787,39.409-10.386
		C386.69,414.46,370.209,388.322,370.209,358.393z"/>
</g>
<path style="fill:#7D9C9E;" d="M79.299,151.254c2.101-22.691,20.87-39.803,43.659-39.803h34.815
	c22.789,0,41.558,17.112,43.659,39.803l6.622,84.046l-13.646-11.321c-15.216-12.623-34.913-19.863-54.043-19.863
	c-20.091,0-39.213,7.483-53.845,21.07l-15.391,14.292L79.299,151.254z"/>
<path style="fill:#6B9091;" d="M86.521,225.186c14.632-13.587,33.754-21.07,53.845-21.07c0.647,0,1.295,0.029,1.943,0.045
	l4.899-52.908c1.561-16.863,12.332-30.638,27.112-36.605c-1.908-0.771-3.883-1.411-5.914-1.912
	c-0.009-0.002-0.019-0.005-0.028-0.007c-0.639-0.158-1.285-0.298-1.935-0.427c-0.045-0.009-0.089-0.02-0.135-0.029
	c-0.61-0.119-1.225-0.221-1.843-0.315c-0.086-0.013-0.172-0.03-0.258-0.042c-0.574-0.083-1.154-0.149-1.735-0.211
	c-0.131-0.014-0.261-0.034-0.392-0.046c-0.559-0.054-1.123-0.09-1.688-0.123c-0.152-0.009-0.304-0.025-0.458-0.032
	c-0.715-0.035-1.436-0.052-2.16-0.052H122.96c-22.789,0-41.558,17.112-43.659,39.803l-8.169,88.224L86.521,225.186z"/>
<path style="fill:#7FE4F4;" d="M140.366,414.205c-30.774,0-55.811-25.037-55.811-55.812s25.037-55.811,55.811-55.811
	s55.811,25.036,55.811,55.811S171.14,414.205,140.366,414.205z"/>
<path style="fill:#6D6864;" d="M416.804,143.515V94.096c0-8.372-5.743-15.487-13.966-17.305c-10.302-2.275-20.8-3.427-31.205-3.427
	c-10.405,0-20.901,1.153-31.2,3.427c-8.225,1.818-13.968,8.933-13.968,17.305v49.419H416.804z"/>
<path style="fill:#12586D;" d="M491.541,263.355c7.409,0,13.436-6.027,13.436-13.436l-0.016-52.16l-10.147,12.61
	c-1.13,0.313-2.23,0.471-3.273,0.471h-54.33l4.862,52.516L491.541,263.355L491.541,263.355z"/>
<path style="fill:#0C4156;" d="M491.541,211.844c3.708,0,7.161-1.479,9.721-4.162c2.56-2.682,3.873-6.207,3.699-9.922
	c-0.337-7.171-6.393-12.788-13.786-12.788h-56.359l2.488,26.871H491.541z"/>
<path style="fill:#9BB8BC;" d="M432.701,151.254c-2.101-22.691-20.87-39.803-43.659-39.803h-34.815
	c-22.789,0-41.558,17.112-43.659,39.803l-16.32,207.141l157.626-0.082L432.701,151.254z"/>
<path style="fill:#86AAAD;" d="M378.476,151.254c1.561-16.863,12.332-30.638,27.112-36.605c-5.109-2.063-10.694-3.199-16.547-3.199
	h-34.815c-22.789,0-41.558,17.112-43.659,39.803l-16.32,207.141l67.912-0.036L378.476,151.254z"/>
<path style="fill:#3A3735;" d="M371.634,438.638c44.246,0,80.244-35.998,80.244-80.245s-35.998-80.243-80.244-80.243
	s-80.244,35.997-80.244,80.243S327.388,438.638,371.634,438.638z"/>
<path style="fill:#7D9C9E;" d="M432.701,151.254c-2.101-22.691-20.87-39.803-43.659-39.803h-34.815
	c-22.789,0-41.558,17.112-43.659,39.803l-6.605,83.829l13.629-11.104c15.216-12.623,34.913-19.863,54.043-19.863
	c20.091,0,39.213,7.483,53.845,21.07l15.391,14.292L432.701,151.254z"/>
<path style="fill:#6B9091;" d="M317.592,223.978c15.216-12.623,34.913-19.863,54.043-19.863c0.894,0,1.783,0.033,2.672,0.062
	l4.17-52.925c1.561-16.863,12.332-30.638,27.112-36.605c-1.908-0.771-3.883-1.411-5.914-1.912c-0.009-0.002-0.019-0.005-0.028-0.007
	c-0.639-0.158-1.285-0.298-1.935-0.427c-0.045-0.009-0.089-0.02-0.135-0.029c-0.61-0.119-1.225-0.221-1.843-0.315
	c-0.086-0.013-0.172-0.03-0.258-0.042c-0.574-0.083-1.154-0.149-1.735-0.211c-0.131-0.014-0.261-0.034-0.392-0.046
	c-0.559-0.054-1.123-0.09-1.688-0.123c-0.152-0.009-0.304-0.025-0.457-0.032c-0.715-0.035-1.436-0.052-2.16-0.052h-34.815
	c-22.789,0-41.558,17.112-43.659,39.803l-6.605,83.829L317.592,223.978z"/>
<path style="fill:#7FE4F4;" d="M371.634,414.205c30.774,0,55.811-25.037,55.811-55.812s-25.037-55.811-55.811-55.811
	s-55.811,25.036-55.811,55.811S340.86,414.205,371.634,414.205z"/>
<g>
	<path style="fill:#4DCDDB;" d="M140.366,302.583c-20.2,0-37.928,10.787-47.726,26.902c8.437-5.129,18.334-8.085,28.908-8.085
		c30.774,0,55.811,25.036,55.811,55.811c0,10.574-2.957,20.471-8.086,28.908c16.117-9.799,26.903-27.527,26.903-47.726
		C196.176,327.619,171.14,302.583,140.366,302.583z"/>
	<path style="fill:#4DCDDB;" d="M371.634,302.583c-20.2,0-37.928,10.787-47.726,26.902c8.437-5.129,18.334-8.085,28.908-8.085
		c30.774,0,55.811,25.036,55.811,55.811c0,10.574-2.957,20.471-8.086,28.908c16.117-9.799,26.903-27.527,26.903-47.726
		C427.445,327.619,402.409,302.583,371.634,302.583z"/>
</g>
<path d="M140.366,295.559c-34.647,0-62.834,28.188-62.834,62.834c0,34.647,28.188,62.835,62.834,62.835s62.834-28.188,62.834-62.835
	C203.199,323.747,175.013,295.559,140.366,295.559z M140.366,406.178c-26.349,0-47.784-21.436-47.784-47.785
	s21.436-47.784,47.784-47.784s47.784,21.435,47.784,47.784S166.714,406.178,140.366,406.178z"/>
<path d="M511.975,197.915c-0.004-0.164,0.009-0.323,0.001-0.487c-0.514-10.923-9.651-19.48-20.801-19.48h-48.949l-2.531-27.343
	c-1.198-12.937-7.073-24.302-15.868-32.525V94.096c0-11.694-8.01-21.631-19.478-24.162c-21.709-4.793-43.723-4.793-65.432,0
	c-11.468,2.531-19.478,12.468-19.478,24.162v23.986c-8.795,8.222-14.67,19.588-15.867,32.524l-4.323,46.695
	c-10.588-11.291-26.048-18.429-43.25-18.429c-17.202,0-32.662,7.139-43.25,18.429l-4.323-46.695
	c-1.198-12.936-7.072-24.302-15.867-32.524V94.096c0-11.694-8.01-21.631-19.478-24.162c-21.708-4.793-43.723-4.793-65.432,0
	c-11.468,2.531-19.478,12.468-19.478,24.162v23.986c-8.795,8.222-14.67,19.588-15.868,32.525l-2.531,27.343h-48.95
	c-11.15,0-20.287,8.556-20.801,19.48c-0.008,0.164,0.005,0.323,0.001,0.487C0.014,198.078,0,198.242,0,198.407v51.513
	c0,11.281,9.178,20.459,20.459,20.459h40.756l-6.692,72.28c-0.933,5.105-1.425,10.363-1.425,15.734c0,0.017,0.001,0.034,0.001,0.051
	c0,0.018,0,0.035,0.001,0.053c0.057,48.073,39.181,87.164,87.266,87.164c45.162,0,82.417-34.484,86.827-78.504
	c7.671,6.819,17.761,10.972,28.808,10.972c11.049,0,21.134-4.163,28.804-10.986c4.403,44.026,41.663,78.518,86.831,78.518
	c48.085,0,87.209-39.091,87.266-87.164c0-0.018,0.001-0.035,0.001-0.053c0-0.017,0.001-0.034,0.001-0.051
	c0-5.371-0.491-10.629-1.425-15.734l-6.692-72.28h40.757c11.281,0,20.459-9.178,20.459-20.459v-51.513
	C512,198.242,511.986,198.078,511.975,197.915z M103.222,94.096c0-4.576,3.155-8.468,7.673-9.467
	c19.555-4.317,39.386-4.318,58.942,0c4.517,0.998,7.673,4.891,7.673,9.467v14.267c-6.072-2.533-12.737-3.936-19.736-3.936h-34.815
	c-6.998,0-13.663,1.403-19.736,3.936V94.096H103.222z M87.291,151.993c1.716-18.538,17.05-32.516,35.667-32.516h34.815
	c18.618,0,33.951,13.979,35.667,32.516l6.093,65.807c-16.361-13.573-37.814-21.711-59.168-21.711
	c-22.358,0-43.376,8.422-59.306,23.214L87.291,151.993z M78.63,245.537c0.333-0.347,0.646-0.718,0.916-1.138
	c13.37-20.826,36.107-33.26,60.819-33.26c23.381,0,47.787,12.268,61.393,30.694l5.623,60.729
	c-16.021-19.197-40.114-31.435-67.016-31.435s-50.995,12.238-67.016,31.435L78.63,245.537z M62.609,255.329h-42.15
	c-2.983,0-5.409-2.426-5.409-5.409v-31.813c1.753,0.484,3.569,0.76,5.409,0.76h45.525L62.609,255.329z M20.459,203.817
	c-1.493,0-2.884-0.596-3.914-1.677c-1.03-1.08-1.558-2.501-1.488-4.004c0.133-2.832,2.72-5.137,5.768-5.137H68.38l-1.001,10.818
	H20.459z M140.366,430.611c-39.729,0-72.061-32.249-72.21-71.943l1.273-13.752c6.333-33.399,35.723-58.739,70.937-58.739
	s64.604,25.34,70.938,58.739l1.273,13.752C212.427,398.362,180.095,430.611,140.366,430.611z M256,363.079
	c-15.641,0-28.366-12.725-28.366-28.366c0-15.641,12.725-28.366,28.366-28.366c15.641,0,28.366,12.725,28.366,28.366
	C284.366,350.354,271.641,363.079,256,363.079z M289.122,306.686c-7.97-9.405-19.857-15.391-33.122-15.391
	s-25.152,5.986-33.122,15.391l-3.844-41.51c7.631-12.15,21.767-19.692,36.966-19.692c15.381,0,29.329,7.504,36.964,19.708
	L289.122,306.686z M294.871,244.59c-10.448-8.978-24.197-14.156-38.871-14.156c-14.519,0-28.361,5.221-38.866,14.21l-0.588-6.354
	c0-0.001,0-0.002,0-0.003l-1.491-16.105c5.225-16.316,21.599-28.26,40.946-28.26s35.721,11.944,40.946,28.26L294.871,244.59z
	 M334.491,94.096c0-4.576,3.155-8.468,7.673-9.467c19.556-4.315,39.386-4.317,58.942,0c4.517,0.998,7.673,4.891,7.673,9.467v14.267
	c-6.072-2.533-12.737-3.936-19.736-3.936h-34.815c-6.998,0-13.663,1.403-19.736,3.936L334.491,94.096L334.491,94.096z
	 M304.619,302.562C304.634,302.436,304.611,302.689,304.619,302.562l5.776-62.384c0.425-0.574,0.863-1.141,1.31-1.702
	c0.243-0.259,0.472-0.531,0.676-0.822c8.814-10.638,21.581-18.711,35.84-23.018c3.176-0.959,5.361-3.865,5.361-7.182l0,0
	c0-5.002-4.818-8.651-9.605-7.203c-11.551,3.493-22.322,9.073-31.395,16.307l5.978-64.566c1.716-18.538,17.05-32.516,35.667-32.516
	h34.815c18.617,0,33.951,13.979,35.667,32.516l6.232,67.31c-9.687-8.995-21.259-15.627-33.867-19.447
	c-4.776-1.447-9.577,2.217-9.577,7.208v0.055c0,3.285,2.135,6.198,5.279,7.155c16.157,4.921,30.248,15.435,39.678,30.125
	c0.27,0.419,0.583,0.792,0.916,1.138l5.28,57.025c-16.02-19.197-40.114-31.435-67.016-31.435
	C344.733,271.127,320.64,283.365,304.619,302.562L304.619,302.562z M371.634,430.611c-39.729,0-72.062-32.249-72.211-71.943
	l1.273-13.752c6.333-33.399,35.724-58.739,70.938-58.739s64.604,25.34,70.937,58.739l1.273,13.752
	C443.695,398.362,411.363,430.611,371.634,430.611z M443.62,192.998h47.555c3.047,0,5.635,2.305,5.768,5.137
	c0.07,1.503-0.458,2.925-1.488,4.004c-1.031,1.081-2.421,1.677-3.914,1.677h-46.919L443.62,192.998z M496.95,249.921
	c0,2.983-2.426,5.409-5.409,5.409h-42.149l-3.376-36.462h45.525c1.84,0,3.656-0.275,5.409-0.76V249.921z"/>
<path d="M371.634,295.559c-34.647,0-62.834,28.188-62.834,62.834c0,34.647,28.188,62.835,62.834,62.835s62.834-28.188,62.834-62.835
	C434.468,323.747,406.282,295.559,371.634,295.559z M371.634,406.178c-26.349,0-47.784-21.436-47.784-47.785
	s21.436-47.784,47.784-47.784s47.784,21.435,47.784,47.784S397.983,406.178,371.634,406.178z"/>
<path d="M118.094,353.835l15.352-15.353c2.939-2.939,2.939-7.703,0-10.641c-2.939-2.938-7.704-2.939-10.641,0.001l-15.352,15.353
	c-2.939,2.939-2.939,7.703,0,10.641c1.469,1.469,3.395,2.203,5.321,2.203S116.624,355.305,118.094,353.835z"/>
<path d="M154.846,333.461l-40.889,38.973c-3.009,2.867-3.122,7.629-0.256,10.639c1.479,1.551,3.462,2.333,5.448,2.333
	c1.865,0,3.734-0.69,5.19-2.078l40.889-38.973c3.009-2.867,3.122-7.629,0.256-10.639
	C162.617,330.708,157.854,330.594,154.846,333.461z"/>
<path d="M389.196,327.842c-2.939-2.94-7.704-2.939-10.641-0.001c-2.939,2.94-2.939,7.704,0,10.641l15.352,15.353
	c1.469,1.47,3.395,2.204,5.321,2.204c1.925,0,3.852-0.734,5.321-2.203c2.939-2.94,2.939-7.704,0-10.641L389.196,327.842z"/>
<path d="M357.154,333.461c-3.009-2.869-7.771-2.753-10.639,0.255c-2.867,3.009-2.753,7.772,0.256,10.639l40.889,38.973
	c1.457,1.39,3.325,2.078,5.19,2.078c1.986,0,3.969-0.782,5.448-2.333c2.867-3.009,2.753-7.772-0.256-10.639L357.154,333.461z"/>
<path d="M256,315.61c-10.533,0-19.102,8.569-19.102,19.103c0,10.533,8.569,19.102,19.102,19.102
	c10.533,0,19.103-8.568,19.103-19.102C275.103,324.18,266.533,315.61,256,315.61z M256,338.764c-2.234,0-4.052-1.818-4.052-4.051
	c0-2.235,1.818-4.052,4.052-4.052c2.234,0,4.052,1.818,4.052,4.052C260.052,336.946,258.234,338.764,256,338.764z"/>
<g>
</g>
<g>
</g>
<g>
</g>
<g>
</g>
<g>
</g>
<g>
</g>
<g>
</g>
<g>
</g>
<g>
</g>
<g>
</g>
<g>
</g>
<g>
</g>
<g>
</g>
<g>
</g>
<g>
</g>
</svg>
