<?xml version="1.0" encoding="iso-8859-1"?>
<!-- Generator: Adobe Illustrator 19.0.0, SVG Export Plug-In . SVG Version: 6.00 Build 0)  -->
<svg version="1.1" id="Capa_1" xmlns="http://www.w3.org/2000/svg" xmlns:xlink="http://www.w3.org/1999/xlink" x="0px" y="0px"
	 viewBox="0 0 511.998 511.998" style="enable-background:new 0 0 511.998 511.998;" xml:space="preserve">
<path style="fill:#FF7F00;" d="M43.163,381.694c-13.794,0-24.976-11.182-24.976-24.976v-41.195
	c0-13.311,10.791-24.103,24.103-24.103h57.878c8.841,0,16.009-7.167,16.009-16.009V122.778H235.31v250.81h-72.933l-11.778,8.107
	H43.163V381.694z"/>
<g>
	<path style="fill:#E87105;" d="M64.432,330.167c8.841,0,16.009-7.168,16.009-16.009v-22.739H42.289
		c-13.311,0-24.103,10.791-24.103,24.103v14.644H64.432z"/>
	<path style="fill:#E87105;" d="M116.176,122.778v38.748h26.533c31.406,0,56.865,25.459,56.865,56.865v155.198h35.736v-250.81
		H116.176z"/>
</g>
<path style="fill:#B75904;" d="M182.32,373.588v-27.773c0-16.567,13.43-29.995,29.995-29.995h22.994v57.768H182.32z"/>
<g>
	<path style="fill:#2D2A28;" d="M158.157,419.751l-5.105-3.614c-1.909-1.352-4.191-2.078-6.531-2.078H67.008
		c-2.55,0-4.904,1.292-6.296,3.456l0,0c-1.864,2.898-5.074,4.65-8.519,4.65H16.808c-5.594,0-10.13-4.535-10.13-10.13v-20.06
		c0-6.378,5.171-11.548,11.548-11.548h131.979l8.414-5.791c2.191-1.508,4.788-2.316,7.447-2.316h79.059
		c6.678,0,12.093,5.414,12.093,12.093v25.658c0,6.679-5.414,12.094-12.094,12.094h-79.378
		C163.028,422.166,160.376,421.322,158.157,419.751z"/>
	<path style="fill:#2D2A28;" d="M115.405,124.044c-6.769,0-12.274-5.506-12.274-12.274v-9.664c0-6.769,5.506-12.275,12.274-12.275
		h122.438c6.769,0,12.274,5.507,12.274,12.275v9.664c0,6.769-5.506,12.274-12.274,12.274
		C237.843,124.044,115.405,124.044,115.405,124.044z"/>
</g>
<path style="fill:#FF7F00;" d="M468.837,381.694c13.794,0,24.976-11.182,24.976-24.976v-41.195
	c0-13.311-10.791-24.103-24.103-24.103h-57.878c-8.841,0-16.009-7.167-16.009-16.009V122.778H276.689v250.81h72.933l11.779,8.107
	h107.436V381.694z"/>
<g>
	<path style="fill:#E87105;" d="M356.261,161.962h39.563v-39.184H276.689v250.81h44.801V196.731
		C321.491,177.529,337.059,161.962,356.261,161.962z"/>
	<path style="fill:#E87105;" d="M440.625,314.595c0,8.841,7.167,16.009,16.009,16.009h37.18v-15.081
		c0-13.311-10.791-24.103-24.103-24.103h-29.085V314.595z"/>
</g>
<path style="fill:#B75904;" d="M329.679,373.588v-27.773c0-16.567-13.43-29.995-29.995-29.995h-22.994v57.768H329.679z"/>
<g>
	<path style="fill:#2D2A28;" d="M353.842,419.751l5.105-3.614c1.909-1.352,4.191-2.078,6.531-2.078h79.513
		c2.55,0,4.904,1.292,6.296,3.456l0,0c1.864,2.898,5.074,4.65,8.519,4.65h35.385c5.594,0,10.13-4.535,10.13-10.13v-20.06
		c0-6.378-5.171-11.548-11.548-11.548H361.794l-8.414-5.791c-2.191-1.508-4.788-2.316-7.447-2.316h-79.059
		c-6.678,0-12.093,5.414-12.093,12.093v25.658c0,6.679,5.414,12.094,12.094,12.094h79.378
		C348.972,422.166,351.624,421.322,353.842,419.751z"/>
	<path style="fill:#2D2A28;" d="M396.595,124.044c6.769,0,12.274-5.506,12.274-12.274v-9.664c0-6.769-5.506-12.275-12.274-12.275
		H274.157c-6.769,0-12.274,5.507-12.274,12.275v9.664c0,6.769,5.506,12.274,12.274,12.274
		C274.157,124.044,396.595,124.044,396.595,124.044z"/>
</g>
<g>
	<path style="fill:#2D2521;" d="M163.479,111.77v-9.664c0-6.769,5.506-12.275,12.274-12.275h-60.348
		c-6.769,0-12.274,5.507-12.274,12.275v9.664c0,6.769,5.506,12.274,12.274,12.274h60.348
		C168.986,124.044,163.479,118.539,163.479,111.77z"/>
	<path style="fill:#2D2521;" d="M322.23,111.77v-9.664c0-6.769,5.506-12.275,12.274-12.275h-60.348
		c-6.769,0-12.274,5.507-12.274,12.275v9.664c0,6.769,5.506,12.274,12.274,12.274h60.348
		C327.737,124.044,322.23,118.539,322.23,111.77z"/>
</g>
<g>
	<path style="fill:#0B66D3;" d="M165.432,182.993c-7.917,0-14.358-6.44-14.358-14.357s6.441-14.359,14.358-14.359
		c7.917,0,14.358,6.441,14.358,14.359S173.348,182.993,165.432,182.993z"/>
	<path style="fill:#0B66D3;" d="M165.432,233.518c-7.917,0-14.358-6.44-14.358-14.357s6.441-14.359,14.358-14.359
		c7.917,0,14.358,6.441,14.358,14.359S173.348,233.518,165.432,233.518z"/>
	<path style="fill:#0B66D3;" d="M165.432,284.043c-7.917,0-14.358-6.44-14.358-14.357c0-7.917,6.441-14.359,14.358-14.359
		c7.917,0,14.358,6.441,14.358,14.359C179.79,277.602,173.348,284.043,165.432,284.043z"/>
	<path style="fill:#0B66D3;" d="M346.568,182.993c7.917,0,14.358-6.44,14.358-14.357s-6.441-14.359-14.358-14.359
		c-7.917,0-14.358,6.441-14.358,14.359S338.651,182.993,346.568,182.993z"/>
	<path style="fill:#0B66D3;" d="M346.568,233.518c7.917,0,14.358-6.44,14.358-14.357s-6.441-14.359-14.358-14.359
		c-7.917,0-14.358,6.441-14.358,14.359S338.651,233.518,346.568,233.518z"/>
	<path style="fill:#0B66D3;" d="M346.568,284.043c7.917,0,14.358-6.44,14.358-14.357c0-7.917-6.441-14.359-14.358-14.359
		c-7.917,0-14.358,6.441-14.358,14.359C332.21,277.602,338.651,284.043,346.568,284.043z"/>
</g>
<path d="M195.751,389.592h-18.689c-4.158,0-7.528,3.37-7.528,7.528s3.371,7.528,7.528,7.528h18.689c4.158,0,7.528-3.37,7.528-7.528
	S199.909,389.592,195.751,389.592z"/>
<path d="M231.722,389.592h-9.574c-4.158,0-7.528,3.37-7.528,7.528s3.371,7.528,7.528,7.528h9.574c4.158,0,7.528-3.37,7.528-7.528
	S235.88,389.592,231.722,389.592z"/>
<path d="M495.207,373.507c3.344-5.139,5.294-11.265,5.294-17.838v-39.235c0-17.612-14.328-31.94-31.94-31.94h-55.902
	c-5.548,0-10.061-4.513-10.061-10.061V130.623c7.451-1.698,13.033-8.366,13.033-16.325V99.837c0-9.239-7.516-16.755-16.755-16.755
	H271.737c-7.236,0-13.399,4.62-15.737,11.059c-2.339-6.439-8.501-11.059-15.738-11.059H113.125c-9.239,0-16.755,7.516-16.755,16.755
	v14.462c0,7.958,5.582,14.625,13.033,16.325v143.808c0,5.548-4.514,10.061-10.061,10.061H43.437c-17.612,0-31.94,14.328-31.94,31.94
	v39.235c0,6.575,1.951,12.699,5.294,17.838C7.395,374.341,0,382.246,0,391.856v20.387c0,9.193,7.479,16.672,16.672,16.672h42.402
	c4.158,0,7.528-3.37,7.528-7.528c0-0.314,0.256-0.569,0.57-0.569h79.444c0.914,0,1.793,0.279,2.54,0.809l8.345,5.906
	c1.272,0.899,2.792,1.383,4.349,1.383h83.283c4.041,0,7.783-1.28,10.865-3.441c3.082,2.161,6.824,3.441,10.864,3.441h83.284
	c1.558,0,3.078-0.483,4.349-1.383l8.345-5.907c0.746-0.528,1.624-0.808,2.54-0.808h79.444c0.314,0,0.569,0.256,0.569,0.569
	c0,4.159,3.37,7.528,7.528,7.528h42.403c9.193,0,16.672-7.479,16.672-16.672v-20.387C512,382.246,504.604,374.341,495.207,373.507z
	 M270.038,99.837c0-0.938,0.762-1.698,1.698-1.698h127.138c0.938,0,1.698,0.762,1.698,1.698v14.462c0,0.938-0.762,1.698-1.698,1.698
	H271.737c-0.938,0-1.698-0.762-1.698-1.698L270.038,99.837L270.038,99.837z M111.425,99.837c0-0.938,0.762-1.698,1.698-1.698
	h127.138c0.937,0,1.698,0.762,1.698,1.698v14.462c0,0.938-0.762,1.698-1.698,1.698H113.125c-0.937,0-1.698-0.762-1.698-1.698V99.837
	H111.425z M26.555,316.433c0-9.309,7.574-16.883,16.883-16.883h38.758v15.394c0,11.898-4.634,23.083-13.046,31.497
	c-2.94,2.94-2.94,7.707,0,10.646c1.47,1.47,3.397,2.204,5.323,2.204s3.854-0.735,5.323-2.205
	c11.257-11.257,17.456-26.223,17.456-42.142V299.55h2.089c12.914,0,23.578-9.797,24.962-22.348h21.37
	c3.048,8.002,10.779,13.713,19.838,13.713c11.712,0,21.242-9.529,21.242-21.241c0-11.712-9.529-21.241-21.242-21.241
	c-9.059,0-16.79,5.711-19.838,13.713H124.46v-35.424h21.213c3.048,8.002,10.779,13.713,19.838,13.713
	c11.712,0,21.242-9.529,21.242-21.241c0-11.712-9.529-21.241-21.242-21.241c-9.059,0-16.79,5.711-19.838,13.713H124.46v-35.424
	h21.213c3.048,8.002,10.779,13.713,19.838,13.713c11.712,0,21.242-9.529,21.242-21.241s-9.529-21.241-21.242-21.241
	c-9.059,0-16.79,5.711-19.838,13.713H124.46v-30.129h102.707v177.817h-13.85c-20.858,0-37.827,16.969-37.827,37.827v18.626h-13.228
	c-1.525,0-3.012,0.463-4.268,1.327l-9.839,6.772H44.312c-9.791,0-17.756-7.965-17.756-17.755
	C26.555,355.669,26.555,316.433,26.555,316.433z M159.325,269.674c0-3.41,2.774-6.184,6.185-6.184s6.185,2.775,6.185,6.184
	c0,3.41-2.774,6.184-6.185,6.184S159.325,273.084,159.325,269.674z M159.325,219.192c0-3.41,2.774-6.184,6.185-6.184
	s6.185,2.774,6.185,6.184s-2.774,6.184-6.185,6.184S159.325,222.603,159.325,219.192z M159.325,168.711
	c0-3.41,2.774-6.184,6.185-6.184s6.185,2.775,6.185,6.184s-2.774,6.184-6.185,6.184S159.325,172.122,159.325,168.711z
	 M227.167,323.928v41.396h-36.62v-18.626c0-12.555,10.215-22.77,22.77-22.77h13.85V323.928z M248.08,412.499
	c-0.72,0.825-1.766,1.359-2.945,1.359h-80.889l-6.389-4.522c-3.304-2.34-7.191-3.577-11.24-3.577H67.173
	c-5.889,0-11.028,3.274-13.691,8.098h-36.81c-0.89,0-1.615-0.725-1.615-1.615v-20.387c0-1.861,1.515-3.376,3.376-3.376h132.061
	c1.525,0,3.012-0.463,4.268-1.327l9.839-6.772h80.534c1.178,0,2.225,0.534,2.945,1.359c-0.114,0.84-0.194,1.691-0.194,2.562v25.635
	C247.886,410.809,247.966,411.659,248.08,412.499z M245.135,365.325h-2.911V130.93c6.374-0.748,11.652-5.086,13.776-10.934
	c2.124,5.847,7.401,10.186,13.776,10.934v83.6c0,4.049,3.232,7.355,7.281,7.448c0.05,0.001,0.1,0.002,0.151,0.003
	c4.183,0.097,7.626-3.264,7.626-7.448v-83.479H387.54v30.129h-21.213c-3.144-8.253-11.27-14.069-20.696-13.696
	c-10.817,0.429-19.752,9.213-20.35,20.023c-0.679,12.255,9.097,22.443,21.208,22.443c9.059,0,16.79-5.711,19.839-13.713h21.213
	v35.424h-21.213c-3.144-8.253-11.27-14.069-20.696-13.696c-10.817,0.429-19.752,9.213-20.35,20.023
	c-0.679,12.255,9.097,22.443,21.208,22.443c9.059,0,16.79-5.711,19.839-13.713h21.213v35.424h-21.213
	c-3.144-8.253-11.27-14.069-20.696-13.696c-10.817,0.429-19.752,9.213-20.35,20.023c-0.679,12.255,9.097,22.443,21.208,22.443
	c9.059,0,16.79-5.711,19.839-13.713h21.37c1.384,12.55,12.049,22.348,24.962,22.348h2.089v15.394
	c0,15.919,6.199,30.887,17.456,42.143c1.471,1.47,3.398,2.204,5.324,2.204c1.926,0,3.854-0.735,5.324-2.204
	c2.94-2.941,2.94-7.707,0-10.647c-8.414-8.413-13.046-19.598-13.046-31.496v-15.394h38.757c9.324,0,16.883,7.559,16.883,16.883
	v39.235c0,9.806-7.949,17.755-17.755,17.755H363.846l-9.841-6.773c-1.255-0.864-2.743-1.326-4.266-1.326H336.51v-18.626
	c0-20.891-16.936-37.827-37.827-37.827h-13.851v-45.498c0-4.049-3.232-7.359-7.281-7.454c-0.05-0.001-0.1-0.002-0.151-0.004
	c-4.183-0.098-7.626,3.27-7.626,7.454v101.955h-2.911c-4.041,0-7.783,1.28-10.864,3.441
	C252.918,366.604,249.176,365.325,245.135,365.325z M352.674,168.711c0,3.41-2.776,6.184-6.185,6.184
	c-3.41,0-6.184-2.774-6.184-6.184s2.775-6.184,6.184-6.184C349.898,162.527,352.674,165.302,352.674,168.711z M352.674,219.192
	c0,3.41-2.776,6.184-6.185,6.184c-3.41,0-6.184-2.775-6.184-6.184s2.775-6.184,6.184-6.184
	C349.898,213.008,352.674,215.782,352.674,219.192z M352.674,269.674c0,3.41-2.776,6.184-6.185,6.184
	c-3.41,0-6.184-2.775-6.184-6.184c0-3.41,2.775-6.184,6.184-6.184C349.898,263.49,352.674,266.263,352.674,269.674z
	 M321.454,346.698v18.626h-36.62v-41.396h13.85C311.239,323.928,321.454,334.143,321.454,346.698z M496.943,412.243
	c0,0.891-0.725,1.615-1.615,1.615h-36.811c-2.663-4.824-7.8-8.098-13.691-8.098h-79.444c-4.049,0-7.936,1.236-11.239,3.576
	l-6.389,4.523h-80.889c-1.178,0-2.225-0.533-2.944-1.359c0.114-0.84,0.194-1.691,0.194-2.562v-25.635
	c0-0.871-0.079-1.722-0.194-2.562c0.72-0.826,1.766-1.359,2.944-1.359h80.534l9.84,6.772c1.256,0.864,2.743,1.327,4.268,1.327
	h132.06c1.862,0,3.377,1.515,3.377,3.376L496.943,412.243L496.943,412.243z"/>
<path d="M334.937,389.592h-18.69c-4.159,0-7.528,3.37-7.528,7.528s3.37,7.528,7.528,7.528h18.69c4.159,0,7.528-3.37,7.528-7.528
	S339.096,389.592,334.937,389.592z"/>
<path d="M289.851,389.592h-9.574c-4.159,0-7.528,3.37-7.528,7.528s3.37,7.528,7.528,7.528h9.574c4.159,0,7.528-3.37,7.528-7.528
	S294.01,389.592,289.851,389.592z"/>
<g>
</g>
<g>
</g>
<g>
</g>
<g>
</g>
<g>
</g>
<g>
</g>
<g>
</g>
<g>
</g>
<g>
</g>
<g>
</g>
<g>
</g>
<g>
</g>
<g>
</g>
<g>
</g>
<g>
</g>
</svg>
