<?xml version="1.0" encoding="iso-8859-1"?>
<!-- Generator: Adobe Illustrator 19.0.0, SVG Export Plug-In . SVG Version: 6.00 Build 0)  -->
<svg version="1.1" id="Capa_1" xmlns="http://www.w3.org/2000/svg" xmlns:xlink="http://www.w3.org/1999/xlink" x="0px" y="0px"
	 viewBox="0 0 512 512" style="enable-background:new 0 0 512 512;" xml:space="preserve">
<path style="fill:#37D1C9;" d="M498.91,426.681c-4.572-1.148-8.635-3.66-11.749-7.264l-3.419-3.958
	c-1.397-1.618-3.904-1.618-5.303-0.001l-3.42,3.957c-4.367,5.053-10.676,7.95-17.309,7.95c-6.635,0-12.946-2.9-17.313-7.955
	l-3.42-3.959c-1.397-1.618-3.905-1.618-5.303,0l-3.42,3.959c-4.367,5.056-10.677,7.955-17.313,7.955c-6.685,0-13-2.896-17.329-7.945
	l-3.844-4.483l-0.821-9.967H122.008v10.372l-3.802,4.285c-4.363,4.917-10.612,7.738-17.146,7.738c-6.635,0-12.946-2.9-17.313-7.955
	l-3.42-3.959c-1.397-1.618-3.905-1.618-5.303,0l-3.42,3.959c-4.367,5.056-10.677,7.955-17.313,7.955
	c-6.633,0-12.942-2.898-17.309-7.95l-3.42-3.957c-1.398-1.617-3.905-1.617-5.303,0.001l-3.419,3.959
	c-3.114,3.605-7.177,6.117-11.749,7.264l-2.917,0.732c-1.854,0.464-3.154,2.13-3.154,4.042v62.186c0,2.302,1.865,4.167,4.167,4.167
	h489.624c2.302,0,4.167-1.865,4.167-4.167v-62.186c0-1.911-1.3-3.577-3.153-4.042L498.91,426.681z"/>
<path style="fill:#20C4A8;" d="M500.812,461.552H11.188c-2.302,0-4.167-1.865-4.167-4.167v36.254c0,2.302,1.865,4.167,4.167,4.167
	h489.624c2.302,0,4.167-1.865,4.167-4.167v-36.254C504.979,459.687,503.114,461.552,500.812,461.552z"/>
<path style="fill:#0B66D3;" d="M279.068,20.553l39.229,22.885c1.49,0.87,1.238,3.096-0.41,3.61l-38.819,12.086V20.553z"/>
<path style="fill:#FAF7E6;" d="M393.926,139.871c-6.609,0-11.987-5.377-11.987-11.987c0-6.61,5.378-11.987,11.987-11.987h4.968
	c-2.089-3.504-3.189-7.493-3.189-11.594c0-12.509,10.176-22.685,22.685-22.685c10.359,0,19.25,6.86,21.903,16.785
	c2.919-2.45,6.574-3.791,10.384-3.791c8.925,0,16.188,7.261,16.188,16.188c0,1.725-0.281,3.436-0.836,5.097h17.321
	c6.609,0,11.987,5.377,11.987,11.987c0,6.61-5.378,11.987-11.987,11.987L393.926,139.871L393.926,139.871z"/>
<path style="fill:#EADDB9;" d="M424.533,129.809c-6.609,0-11.987-5.377-11.987-11.987c0-6.61,5.378-11.987,11.987-11.987h4.968
	c-2.089-3.504-3.189-7.493-3.189-11.594c0-3.647,0.871-7.093,2.406-10.149c-3.112-1.583-6.622-2.473-10.328-2.473
	c-12.509,0-22.685,10.176-22.685,22.685c0,4.101,1.1,8.089,3.189,11.594h-4.968c-6.609,0-11.987,5.377-11.987,11.987
	c0,6.61,5.378,11.987,11.987,11.987h89.422c5.953,0,10.893-4.367,11.818-10.063L424.533,129.809L424.533,129.809z"/>
<path style="fill:#FAF7E6;" d="M42.146,66.57c-5.959,0-10.808-4.848-10.808-10.808s4.848-10.808,10.808-10.808h4.367
	c-1.849-3.134-2.822-6.695-2.822-10.352c0-11.253,9.155-20.408,20.407-20.408c9.292,0,17.271,6.136,19.684,15.023
	c2.619-2.174,5.886-3.363,9.289-3.363c8.038,0,14.577,6.539,14.577,14.577c0,1.529-0.246,3.048-0.73,4.522h15.47
	c5.959,0,10.808,4.848,10.808,10.808s-4.848,10.808-10.808,10.808L42.146,66.57L42.146,66.57z"/>
<path style="fill:#EADDB9;" d="M76.115,52.829c-5.959,0-10.808-4.848-10.808-10.808s4.848-10.808,10.808-10.808h4.367
	c-1.849-3.134-2.822-6.695-2.822-10.352c0-0.498,0.039-0.988,0.075-1.477c-3.635-3.26-8.429-5.189-13.637-5.189
	c-11.252,0-20.407,9.155-20.407,20.408c0,3.658,0.973,7.218,2.822,10.352h-4.367c-5.959,0-10.808,4.848-10.808,10.808
	S36.187,66.57,42.147,66.57h80.243c5.96,0,10.808-4.848,10.808-10.808c0-1.018-0.151-1.999-0.415-2.933H76.115V52.829z"/>
<path style="fill:#FAF7E6;" d="M264.247,270.802c-48.277-25.166-122.635-28.924-162.663-28.924c-5.824,0-11.572,0.08-17.082,0.239
	l-3.585,0.103c-4.045,0.116-6.897-3.935-5.424-7.704l1.306-3.341c29.052-74.351,138.359-132.921,184.006-154.652l17.802-8.474
	l-6.826,18.496c-3.913,10.602-9.32,27.478-12.867,47.663c-8.188,46.613-2.607,90.094,16.142,125.743l4.228,8.039
	c2.365,4.496-2.478,9.357-6.983,7.01L264.247,270.802z"/>
<path style="fill:#EADDB9;" d="M261.167,122.858c3.339-15.143,7.462-27.768,10.615-36.312l6.826-18.496l-17.802,8.474
	c-45.647,21.731-154.954,80.301-184.007,154.652l-1.306,3.341c-1.473,3.769,1.379,7.819,5.424,7.704l3.585-0.103
	c5.511-0.158,11.258-0.239,17.082-0.239c6.017,0,12.82,0.087,20.182,0.317C150.373,191.139,214.031,148.843,261.167,122.858z"/>
<path style="fill:#FAF7E6;" d="M279.068,64.203l13.413,12.161c52.623,47.713,99.48,106.525,139.269,174.8l3.489,5.988
	c1.845,3.167-0.678,7.092-4.326,6.727l-6.895-0.691c-30.38-3.042-55.758-4.521-77.585-4.521c-22.743,0-41.625,1.609-57.725,4.92
	l-9.64,1.983V64.203z"/>
<path style="fill:#EADDB9;" d="M435.239,257.151l-3.489-5.988c-39.789-68.275-86.646-127.087-139.269-174.8l-13.413-12.161v40.754
	c44.932,44,85.324,96.373,120.302,156.023c7.841,0.613,16.037,1.345,24.648,2.207l6.895,0.691
	C434.561,264.243,437.085,260.319,435.239,257.151z"/>
<g>
	<path style="fill:#DD3A3A;" d="M279.068,183.53v-38.884h78.596l2.407,2.931c6.16,7.497,12.285,15.265,18.204,23.089l9.734,12.865
		L279.068,183.53L279.068,183.53z"/>
	<path style="fill:#DD3A3A;" d="M244.506,186.286c-35.346-12.829-72.857-23.201-92.07-28.242l-15.63-4.101l12.714-9.973
		c10.872-8.527,22.899-17.074,35.747-25.405l3.109-2.016l3.55,1.06c4.379,1.307,43.275,13.001,60.536,21.135l5.254,2.476
		l-0.711,5.765c-1.318,10.676-1.904,21.319-1.739,31.632l0.185,11.641L244.506,186.286z"/>
</g>
<path style="fill:#9BB8BC;" d="M167.286,319.139l3.57-17.275c0.916-4.409,4.85-7.602,9.357-7.602h0.191l0.381,0.018l209.755,13.054
	c5.016,0.315,8.942,4.494,8.942,9.515v33.039L167.286,319.139z"/>
<path style="fill:#87461A;" d="M150.362,423.157c-33.717,0-61.149-27.432-61.149-61.148v-35.489c0-4.799,1.988-9.183,5.597-12.345
	c2.996-2.625,6.824-4.072,10.779-4.072c0.729,0,1.469,0.049,2.199,0.146l313.993,41.582v10.176
	c0,33.717-27.432,61.148-61.148,61.148H150.362V423.157z"/>
<path style="fill:#773B12;" d="M395.355,389.951H185.083c-33.717,0-61.149-27.432-61.149-61.148v-16.414l-16.145-2.138
	c-0.73-0.098-1.47-0.146-2.199-0.146c-3.955,0-7.783,1.446-10.779,4.072c-3.61,3.161-5.597,7.545-5.597,12.345v35.489
	c0,33.717,27.432,61.149,61.149,61.149h210.271c25.191,0,46.867-15.315,56.222-37.119
	C410.163,388.56,402.92,389.951,395.355,389.951z"/>
<circle style="fill:#703711;" cx="132.7" cy="355.193" r="16.458"/>
<path d="M175.387,366.008l197.928,26.212c0.335,0.044,0.668,0.065,0.997,0.065c3.715,0,6.946-2.752,7.448-6.536
	c0.546-4.118-2.351-7.899-6.469-8.445l-197.929-26.212c-4.12-0.55-7.898,2.352-8.444,6.47
	C168.372,361.68,171.269,365.462,175.387,366.008z"/>
<path d="M132.696,379.916c13.63,0,24.719-11.09,24.719-24.719s-11.089-24.719-24.719-24.719s-24.719,11.089-24.719,24.719
	S119.066,379.916,132.696,379.916z M132.696,345.523c5.335,0,9.674,4.34,9.674,9.674s-4.34,9.674-9.674,9.674
	c-5.335,0-9.674-4.34-9.674-9.674S127.361,345.523,132.696,345.523z"/>
<path d="M393.926,146.892h89.422c10.481,0,19.008-8.527,19.008-19.008c0-10.481-8.527-19.008-19.008-19.008h-9.542
	c-0.981-11.9-10.979-21.284-23.129-21.284c-2.399,0-4.755,0.369-6.997,1.081c-5.274-8.593-14.696-14.075-25.291-14.075
	c-16.38,0-29.705,13.326-29.705,29.705c0,1.749,0.152,3.483,0.453,5.184c-8.17,2.128-14.219,9.569-14.219,18.397
	C374.919,138.365,383.446,146.892,393.926,146.892z M393.926,123.92h5.871c2.76,0,5.3-1.512,6.614-3.94
	c1.315-2.427,1.195-5.38-0.314-7.692c-1.551-2.378-2.371-5.14-2.371-7.986c0-8.085,6.577-14.661,14.661-14.661
	c6.875,0,12.749,4.674,14.284,11.366c0.601,2.62,2.553,4.721,5.123,5.51c2.571,0.786,5.365,0.146,7.333-1.685
	c1.523-1.417,3.493-2.197,5.547-2.197c4.501,0,8.164,3.662,8.164,8.164c0,0.978-0.186,1.956-0.55,2.908
	c-0.886,2.314-0.577,4.912,0.827,6.954c1.403,2.04,3.721,3.259,6.197,3.259h18.032c2.185,0,3.964,1.777,3.964,3.964
	c0,2.186-1.778,3.964-3.964,3.964h-89.42c-2.185,0-3.964-1.777-3.964-3.964C389.963,125.698,391.741,123.92,393.926,123.92z"/>
<path d="M42.146,73.591h80.243c9.831,0,17.828-7.998,17.828-17.828s-7.998-17.828-17.828-17.828h-7.863
	c-1.242-10.737-10.389-19.099-21.454-19.099c-2.029,0-4.025,0.284-5.937,0.832C82.208,12.021,73.672,7.173,64.097,7.173
	c-15.123,0-27.428,12.305-27.428,27.429c0,1.379,0.103,2.747,0.306,4.096c-7.316,2.223-12.658,9.032-12.658,17.065
	C24.317,65.592,32.316,73.591,42.146,73.591z M42.146,52.977h5.268c2.76,0,5.299-1.512,6.613-3.94
	c1.315-2.426,1.195-5.379-0.313-7.691c-1.31-2.009-2.002-4.342-2.002-6.747c0-6.829,5.555-12.384,12.383-12.384
	c5.808,0,10.77,3.949,12.065,9.601c0.601,2.62,2.553,4.72,5.123,5.509c2.57,0.787,5.365,0.147,7.333-1.685
	c1.224-1.138,2.804-1.765,4.452-1.765c3.614,0,6.553,2.941,6.553,6.553c0,0.782-0.148,1.568-0.442,2.335
	c-0.886,2.313-0.576,4.911,0.828,6.952c1.403,2.04,3.721,3.259,6.197,3.259h16.182c1.536,0,2.784,1.249,2.784,2.784
	c0,1.536-1.25,2.784-2.784,2.784H42.146c-1.536,0-2.784-1.249-2.784-2.784C39.362,54.224,40.611,52.977,42.146,52.977z"/>
<path d="M504.609,420.343c-8.785,0.071-15.959-7.037-15.994-15.796c-0.015-3.852-2.963-7.195-6.799-7.553
	c-4.479-0.418-8.245,3.095-8.245,7.488c0,8.747-7.116,15.862-15.863,15.862c-8.744,0-15.859-7.112-15.863-15.855
	c-0.002-3.83-2.985-7.139-6.798-7.495c-4.48-0.418-8.246,3.094-8.246,7.488c0,8.747-7.116,15.862-15.863,15.862
	c-3.688,0-7.151-1.259-9.909-3.467c16.831-12.425,27.773-32.389,27.773-54.868v-4.645c0-6.688-4.954-12.34-11.584-13.219
	l-10.717-1.419v-25.877c0-8.722-6.819-15.98-15.526-16.522l-103.885-6.465v-22.739c42.482-9.536,102.739-4.727,150.718,0.579
	c2.804,0.314,5.541-0.973,7.098-3.323s1.669-5.372,0.291-7.831c-24.459-43.648-51.664-83.563-81.354-119.442
	c-0.331-0.519-0.724-0.993-1.168-1.414c-23.214-27.908-47.941-53.352-74.06-76.18l34.367-10.7c2.294-0.714,4.222-2.395,5.036-4.655
	c1.268-3.522-0.196-7.292-3.276-9.09l-41.383-24.14c-2.817-1.643-6.438-1.311-8.933,1.004c-1.571,1.457-2.379,3.563-2.379,5.707
	v41.978c-11.622,5.077-49.122,22.177-89.604,48.318c-64.966,41.954-103.996,85.054-116.008,128.105
	c-0.653,2.343-0.134,4.856,1.394,6.749c1.528,1.893,3.881,2.917,6.303,2.781c0.693-0.043,35.476-1.996,77.712,1.477
	c4.395,0.361,8.159-3.119,8.159-7.529v-0.058c0-3.924-3.005-7.205-6.915-7.529c-19.611-1.622-37.582-2.076-51.504-2.076
	c-6.843,0-12.71,0.109-17.313,0.242c10.199-26.1,30.987-50.327,55.386-71.584c13.916,3.449,63.958,16.255,108.467,32.62
	c2.302,24.759,8.944,47.854,19.831,68.555c-19.017-9.913-41.822-16.601-65.023-21.086c-4.677-0.904-9.028,2.648-9.028,7.411l0,0
	c0,3.622,2.571,6.731,6.128,7.412c26.867,5.142,52.876,13.295,72.014,26.121v9.381l-90.825-5.653
	c-8.172-0.524-15.585,5.151-17.242,13.172l-2.045,9.893l-53.233-7.05c-8.941-1.178-17.984,2.86-23.005,10.886
	c-2.375,3.797-3.505,8.244-3.505,12.723v35.111c0,22.7,11.163,42.83,28.276,55.226c-2.69,1.981-5.978,3.109-9.41,3.109
	c-8.744,0-15.859-7.112-15.863-15.855c-0.002-3.83-2.985-7.139-6.798-7.495c-4.48-0.418-8.246,3.094-8.246,7.488
	c0,8.747-7.116,15.862-15.863,15.862c-8.744,0-15.859-7.112-15.863-15.855c-0.002-3.83-2.985-7.139-6.798-7.495
	c-4.48-0.418-8.246,3.094-8.246,7.488c0,8.701-7.042,15.788-15.726,15.862C3.45,420.379,0,423.658,0,427.866v69.44
	c0,4.154,3.368,7.522,7.522,7.522h496.956c4.154,0,7.522-3.368,7.522-7.522v-69.398C512,423.799,508.719,420.31,504.609,420.343z
	 M287.092,34.523l15.322,8.938l-15.322,4.771V34.523z M287.092,82.307c18.796,17.042,36.835,35.502,54.07,55.318h-54.07V82.307z
	 M287.092,152.671h66.786c6.109,7.437,12.111,15.049,18.003,22.837h-84.789V152.671z M287.092,190.551h95.882
	c14.686,20.447,28.649,42.011,41.844,64.653c-62.424-6.252-105.629-6.077-137.726,0.524L287.092,190.551L287.092,190.551z
	 M247.245,178.813c-35.481-12.666-73.139-22.968-93.225-28.174c11.496-9.044,23.45-17.445,35.232-25.097
	c15.125,4.455,45.778,14.014,59.78,20.531C247.66,157.217,247.072,168.146,247.245,178.813z M206.192,114.952
	c23.031-13.873,44.107-24.54,58.062-31.184c-4.223,11.447-9.318,27.696-12.854,46.928
	C238.646,125.292,219.673,119.122,206.192,114.952z M265.754,135.856c1.739-10.003,3.968-19.229,6.292-27.382v126.965
	C259.316,199.084,261.125,162.476,265.754,135.856z M178.714,303.489c0.151-0.731,0.831-1.236,1.573-1.201l209.755,13.054
	c0.794,0.05,1.417,0.712,1.417,1.507v23.884l-214.569-28.416L178.714,303.489z M97.238,362.008v-35.489
	c0-2.452,1.016-4.694,2.86-6.309c1.555-1.362,3.471-2.083,5.492-2.083c0.376,0,0.756,0.025,1.138,0.076l307.03,40.66v3.145
	c0,29.293-23.832,53.125-53.125,53.125H150.362C121.069,415.133,97.238,391.301,97.238,362.008z M496.956,489.784H15.044v-55.321
	c6.262-1.572,11.772-5.06,15.868-9.801c5.672,6.562,14.045,10.727,23.38,10.727c9.336,0,17.713-4.167,23.385-10.732
	c5.672,6.565,14.048,10.732,23.385,10.732c8.914,0,17.34-3.889,23.148-10.436c8.059,3.361,16.892,5.225,26.155,5.225h210.271
	c9.543,0,18.631-1.979,26.885-5.536c5.787,6.75,14.247,10.747,23.421,10.747c9.336,0,17.713-4.167,23.385-10.732
	c5.672,6.565,14.048,10.732,23.385,10.732c9.333,0,17.708-4.164,23.38-10.727c4.096,4.742,9.605,8.23,15.868,9.801v55.321H496.956z"
	/>
<g>
</g>
<g>
</g>
<g>
</g>
<g>
</g>
<g>
</g>
<g>
</g>
<g>
</g>
<g>
</g>
<g>
</g>
<g>
</g>
<g>
</g>
<g>
</g>
<g>
</g>
<g>
</g>
<g>
</g>
</svg>
