<?xml version="1.0" encoding="iso-8859-1"?>
<!-- Generator: Adobe Illustrator 19.0.0, SVG Export Plug-In . SVG Version: 6.00 Build 0)  -->
<svg version="1.1" id="Capa_1" xmlns="http://www.w3.org/2000/svg" xmlns:xlink="http://www.w3.org/1999/xlink" x="0px" y="0px"
	 viewBox="0 0 512 512" style="enable-background:new 0 0 512 512;" xml:space="preserve">
<g>
	<path style="fill:#0C4156;" d="M365.169,171.805c-0.57-7.556-0.568-65.449-1.403-73.051c-1.694-15.434-3.446-31.384-3.408-47.941
		c0-4.465,3.633-8.114,8.1-8.114h23.139l-0.425,8.415c-1.398,27.693-1.286,52.732-6.184,73.42L365.169,171.805z"/>
	<path style="fill:#0C4156;" d="M372.498,469.302c-3.225,0-6.247-1.264-8.511-3.559c-2.272-2.304-3.498-5.354-3.453-8.59
		c0.319-24.056,2.154-51.481,4.097-80.516c1.396-20.871,2.838-160.922,3.716-181.424l15.977,118.048
		c3.983,40.825,6.376,90.595,7.114,147.927l0.104,8.115h-19.045V469.302z"/>
</g>
<path style="fill:#12586D;" d="M390.542,469.302l-0.101-7.908c-1.813-141.7-13.337-232.668-34.253-270.377l0,0
	c-1.437-2.591-1.327-5.762,0.285-8.247v-0.001c20.091-30.956,30.813-73.045,33.742-132.454l0.376-7.617h100.056
	c7.921,0,14.342,6.421,14.342,14.342v394.801c0,9.643-7.817,17.46-17.46,17.46L390.542,469.302L390.542,469.302z"/>
<path style="fill:#0F5160;" d="M490.647,42.698H390.592l-0.376,7.617c-0.495,10.024-1.216,19.543-2.162,28.61h116.935V57.042
	C504.99,49.133,498.556,42.698,490.647,42.698z"/>
<path style="fill:#0C4156;" d="M415.331,219.138c-3.163-0.872-5.693-3.248-6.762-6.356l-11.942-34.687
	c-0.639-1.855-0.66-3.866-0.061-5.735l12.508-39.004c0.73-2.275,2.846-3.819,5.235-3.819h63.173c3.036,0,5.498,2.461,5.498,5.498
	v75.223c0,4.382-2.936,8.309-7.141,9.546l-25.634,7.542c-1.625,0.478-3.352,0.493-4.984,0.042L415.331,219.138z"/>
<path style="fill:#073A49;" d="M477.484,129.537h-63.173c-2.389,0-4.506,1.544-5.235,3.819l-7.813,24.365h81.72v-22.686
	C482.981,131.999,480.52,129.537,477.484,129.537z"/>
<g>
	<path style="fill:#424242;" d="M303.662,244.33c-14.131,0-25.627-11.496-25.627-25.627v-15.596
		c0-14.13,11.496-25.627,25.627-25.627h7.51c7.761,0,14.075,6.314,14.075,14.075v38.7c0,7.761-6.314,14.076-14.075,14.076
		L303.662,244.33L303.662,244.33z"/>
	<path style="fill:#424242;" d="M303.662,335.679c-14.131,0-25.627-11.496-25.627-25.627v-15.596
		c0-14.13,11.496-25.627,25.627-25.627h7.51c7.761,0,14.075,6.314,14.075,14.075v38.7c0,7.761-6.314,14.076-14.075,14.076
		L303.662,335.679L303.662,335.679z"/>
</g>
<path style="fill:#F0EBD2;" d="M37.048,401.484c-16.563,0-30.038-13.475-30.038-30.038V159.67c0-10.068,3.636-19.799,10.238-27.4
	l12.611-14.52c3.341-3.845,8.177-6.05,13.271-6.05h160.16c4.939,0,9.678,2.095,12.999,5.746l13.332,14.648
	c7.018,7.712,10.883,17.701,10.883,28.127v211.228c0,16.563-13.476,30.038-30.039,30.038H37.048z"/>
<path style="fill:#D3C99F;" d="M98.762,371.446V159.67c0-10.068,3.636-19.799,10.238-27.4l12.611-14.52
	c3.341-3.845,8.177-6.05,13.271-6.05H43.13c-5.093,0-9.931,2.205-13.271,6.05l-12.611,14.52c-6.602,7.602-10.238,17.332-10.238,27.4
	v211.776c0,16.563,13.475,30.038,30.038,30.038H128.8C112.237,401.484,98.762,388.009,98.762,371.446z"/>
<g>
	<rect x="7.01" y="249.2" style="fill:#DD3A3A;" width="233.498" height="33.237"/>
	<rect x="7.01" y="317.957" style="fill:#DD3A3A;" width="233.498" height="33.237"/>
</g>
<path style="fill:#827E6F;" d="M123.45,173.611c-18.245,0-35.628-7.6-47.693-20.847c-8.071-8.861-13.48-19.794-15.639-31.614
	l-1.726-9.451h129.415l-1.758,9.473c-4.16,22.411-20.685,41.66-42.1,49.036C137.392,172.466,130.495,173.611,123.45,173.611z"/>
<path style="fill:#DD3A3A;" d="M38.306,121.133c0.04,0.329,0.08,0.658,0.127,0.986c2.383,16.347,9.783,32.163,20.835,44.534
	c10.972,12.283,25.724,21.39,41.536,25.645c7.19,1.935,14.673,2.915,22.241,2.915c9.794,0,19.357-1.616,28.424-4.804
	c15.404-5.415,29.403-15.553,39.42-28.548c9.162-11.886,15.05-26.1,17.026-41.107l1.066-8.092c-1.818-0.624-3.737-0.964-5.692-0.964
	h-16.837l-0.992,6.865c-3.355,23.198-19.777,43.098-41.839,50.697c-6.405,2.207-13.161,3.326-20.081,3.326
	c-18.033,0-35.179-7.471-47.043-20.497c-8.408-9.232-14.013-21.134-15.779-33.513l-0.982-6.879H43.13
	c-2.037,0-4.028,0.368-5.903,1.036L38.306,121.133z"/>
<path d="M0,371.446c0,20.428,16.619,37.048,37.048,37.048h173.418c20.429,0,37.049-16.62,37.049-37.048V160.219
	c0-12.175-4.513-23.84-12.709-32.844l-13.332-14.65c-4.65-5.108-11.277-8.036-18.184-8.036H43.13
	c-7.125,0-13.891,3.084-18.563,8.464l-12.611,14.52C4.246,136.549,0,147.912,0,159.67V371.446 M178.171,119.71
	c-3.622,19.516-17.922,36.409-36.833,42.923c-20.833,7.176-44.808,1.043-59.659-15.263c-7.053-7.743-11.812-17.421-13.682-27.66
	L178.171,119.71L178.171,119.71z M52.787,119.71c1.996,13.981,8.231,27.282,17.788,37.775c13.582,14.913,33.18,23.113,52.966,23.113
	c7.647,0,15.326-1.226,22.691-3.763c24.844-8.557,43.415-31.244,47.157-57.125h6.584c-1.771,13.45-7.156,26.53-15.428,37.261
	c-9.084,11.784-21.774,20.973-35.732,25.881c-14.616,5.137-30.926,5.745-45.927,1.709c-14.327-3.855-27.696-12.111-37.644-23.247
	c-10.017-11.212-16.722-25.543-18.882-40.352c-0.06-0.415-0.104-0.836-0.158-1.254H52.787z M15.021,325.97h217.076v17.214H15.021
	V325.97z M232.493,371.446c0,12.146-9.882,22.027-22.028,22.027H37.048c-12.146,0-22.027-9.882-22.027-22.027v-13.24h217.472
	V371.446z M232.493,274.428h-27.077c-4.121,0-7.378,3.423-7.258,7.542c0.003,0.1,0.006,0.199,0.008,0.299
	c0.094,3.989,3.335,7.18,7.324,7.18h27.003v21.501H15.021v-21.501h143.903c4.106,0,7.372-3.372,7.326-7.478
	c-0.001-0.077-0.002-0.154-0.002-0.231c-0.028-4.041-3.285-7.312-7.325-7.312H15.021v-17.214h217.472V274.428z M232.493,242.192
	H15.021V159.67c0-8.138,2.939-16.002,8.276-22.147l8.91-10.259c3.147,16.369,10.639,31.529,21.834,44.06
	c12.042,13.478,27.582,23.071,44.943,27.743c7.819,2.104,15.934,3.149,24.053,3.149c10.466,0,20.933-1.738,30.758-5.193
	c16.908-5.943,31.654-16.621,42.648-30.88c8.944-11.603,14.928-25.01,17.606-39.258l9.648,10.6
	c5.673,6.234,8.797,14.307,8.797,22.734v81.974H232.493z"/>
<path d="M490.647,35.689L490.647,35.689H368.458l0,0c-8.313,0-15.09,6.778-15.11,15.107c-0.039,16.954,1.734,33.104,3.449,48.722
	c3.595,32.74,6.699,61.017-8.652,83.079c-1.736,2.497-1.798,5.793-0.153,8.351c19.955,31.051,14.477,112.957,9.645,185.221
	c-1.949,29.139-3.789,56.662-4.112,80.894c-0.068,5.127,1.877,9.958,5.474,13.605c3.591,3.639,8.386,5.644,13.5,5.644h18.529H429.4
	h58.131c13.492,0,24.469-10.976,24.469-24.469v-394.8C512,45.268,502.422,35.689,490.647,35.689z M398.218,50.71h92.43
	c3.491,0,6.331,2.84,6.331,6.331v12.413h-99.999C397.484,63.391,397.9,57.152,398.218,50.71L398.218,50.71z M368.458,50.71h14.714
	c-0.428,8.472-1.019,16.586-1.776,24.36c-0.158,0.607-0.25,1.24-0.25,1.896c0,0.125,0.013,0.248,0.019,0.372
	c-1.644,16.027-4.009,30.597-7.141,43.832c-0.577-7.633-1.428-15.41-2.293-23.289c-1.669-15.209-3.397-30.935-3.36-47.048
	C368.369,50.748,368.421,50.71,368.458,50.71z M372.498,461.29c-1.436,0-2.376-0.735-2.808-1.174
	c-0.753-0.764-1.161-1.776-1.146-2.855c0.316-23.83,2.144-51.159,4.08-80.091c1.416-21.169,2.844-42.533,3.726-63.134
	c3.681,37.736,6.287,85.876,7.078,147.253h-10.93V461.29z M487.531,461.29H429.4h-30.948
	c-1.832-143.121-13.683-235.262-35.258-274.159c16.743-25.796,27.262-59.078,32.3-102.655h101.485v367.367
	C496.979,457.052,492.74,461.29,487.531,461.29z"/>
<path d="M477.779,122.528H415.99c-6.463,0-12.131,4.136-14.104,10.289l-12.865,40.121c-0.496,1.543-0.478,3.206,0.05,4.738
	l12.871,37.389c1.822,5.291,6.131,9.34,11.525,10.828l32.251,8.904c0.654,0.181,1.326,0.271,1.999,0.271
	c0.714,0,1.428-0.102,2.12-0.305l27.981-8.233c7.168-2.109,12.174-8.8,12.174-16.273V134.74
	C489.991,128.006,484.513,122.528,477.779,122.528z M416.143,137.549h58.827v12.663h-62.887L416.143,137.549z M473.577,212.12
	l-25.927,7.628l-30.187-8.333c-0.618-0.17-1.11-0.634-1.318-1.239l-12.059-35.028l3.179-9.916h67.704v45.026
	C474.97,211.113,474.397,211.879,473.577,212.12z"/>
<path d="M318.682,171.877v-6.248c0-4.149-3.363-7.511-7.511-7.511s-7.511,3.362-7.511,7.511v4.841
	c-17.995,0.001-32.635,14.642-32.635,32.637v15.596c0,17.996,14.641,32.637,32.637,32.637h1.757c0.636,3.502,0.636,6.979,0,10.481
	h-1.757c-17.996,0-32.637,14.641-32.637,32.637v15.595c0,17.995,14.64,32.636,32.635,32.637v4.089c0,4.149,3.363,7.511,7.511,7.511
	s7.511-3.362,7.511-7.511v-5.496c7.923-3.035,13.574-10.7,13.574-19.677v-38.7c0-8.354-4.896-15.567-11.958-18.978
	c0.822-4.893,0.822-9.802,0-14.695c7.062-3.411,11.958-10.624,11.958-18.979v-38.7C332.256,182.577,326.605,174.912,318.682,171.877
	z M286.047,218.703v-15.596c0-9.713,7.902-17.616,17.616-17.616h7.51c3.343,0,6.064,2.72,6.064,6.064v38.7
	c0,3.344-2.72,6.065-6.064,6.065h-7.51C293.949,236.318,286.047,228.415,286.047,218.703z M286.047,310.052v-15.595
	c0-9.713,7.902-17.616,17.616-17.616h7.486c0.008,0,0.016,0.002,0.023,0.002c0.005,0,0.01-0.001,0.015-0.001
	c3.336,0.008,6.047,2.724,6.047,6.063v38.7c0,3.344-2.72,6.064-6.064,6.064h-7.51C293.949,327.668,286.047,319.765,286.047,310.052z
	"/>
<g>
</g>
<g>
</g>
<g>
</g>
<g>
</g>
<g>
</g>
<g>
</g>
<g>
</g>
<g>
</g>
<g>
</g>
<g>
</g>
<g>
</g>
<g>
</g>
<g>
</g>
<g>
</g>
<g>
</g>
</svg>
