<?xml version="1.0" encoding="iso-8859-1"?>
<!-- Generator: Adobe Illustrator 19.0.0, SVG Export Plug-In . SVG Version: 6.00 Build 0)  -->
<svg version="1.1" id="Capa_1" xmlns="http://www.w3.org/2000/svg" xmlns:xlink="http://www.w3.org/1999/xlink" x="0px" y="0px"
	 viewBox="0 0 512.001 512.001" style="enable-background:new 0 0 512.001 512.001;" xml:space="preserve">
<path style="fill:#87461A;" d="M217.375,166.949c-16.654-26.476-40.452-47.717-68.819-61.428l-11.607-5.61l-18.757-5.751l-6.345-1.4
	c-4.295-0.947-8.703-1.736-13.104-2.344l-9.195-1.271l-18.757-0.227l-4.946-2.086C56.397,82.85,50.049,73.322,50.049,63.12
	c0.001-14.178,11.536-25.713,25.713-25.713c8.362,0,15.165-6.803,15.165-15.165S84.125,7.077,75.763,7.077
	c-30.902,0-56.042,25.141-56.042,56.043c0,24.915,16.765,47.086,40.768,53.917l10.301,2.932l18.756-0.29l6.872,1.045
	c3.901,0.593,7.862,1.377,11.769,2.33l10.004,2.439l18.757,8.035l4.211,2.299c20.552,11.226,38.018,27.651,50.507,47.496
	c13.696,21.764,20.935,46.896,20.935,72.674c0,25.917-7.311,51.161-21.144,73.003c-12.47,19.692-29.862,36-50.298,47.162
	l-4.211,2.299l-18.757,8.042l-10.004,2.439c-3.881,0.946-7.841,1.73-11.772,2.329l-6.869,1.046l-18.756-0.29l-10.301,2.931
	c-24.003,6.828-40.768,29.001-40.768,53.918c0,30.902,25.141,56.043,56.043,56.043c8.362,0,15.165-6.803,15.165-15.165
	s-6.803-15.165-15.165-15.165c-14.177,0-25.713-11.535-25.713-25.713c0-10.366,6.196-19.667,15.785-23.697l4.954-2.083l18.756-0.247
	l9.195-1.27c4.379-0.606,8.787-1.394,13.103-2.346l6.346-1.4l18.757-5.768l11.613-5.624c28.325-13.719,52.112-34.986,68.788-61.503
	c16.735-26.61,25.582-57.366,25.582-88.943C242.93,224.322,234.093,193.529,217.375,166.949z"/>
<g>
	<path style="fill:#773B12;" d="M141.158,376.165l-4.211,2.299l-18.757,8.042l-10.004,2.439c-3.881,0.946-7.841,1.73-11.772,2.329
		l-5.028,0.766l18.129,0.28l6.869-1.046c3.931-0.6,7.891-1.383,11.772-2.329l10.004-2.439l18.757-8.042l4.211-2.299
		c20.436-11.162,37.828-27.47,50.298-47.162C225.26,307.161,232.57,281.917,232.57,256c0-25.779-7.239-50.909-20.935-72.674
		c-12.49-19.846-29.955-36.27-50.507-47.496l-4.211-2.299l-18.757-8.036l-10.004-2.439c-3.907-0.952-7.867-1.737-11.769-2.33
		l-6.872-1.045l-18.126,0.28l5.028,0.765c3.901,0.593,7.862,1.377,11.769,2.33l10.004,2.439l18.757,8.036l4.211,2.299
		c20.552,11.226,38.018,27.651,50.507,47.496C205.361,205.09,212.6,230.221,212.6,256c0,25.917-7.311,51.161-21.144,73.003
		C178.986,348.694,161.593,365.003,141.158,376.165z"/>
	<path style="fill:#773B12;" d="M39.691,448.88c0-24.917,16.765-47.09,40.768-53.918l9.506-2.704l-0.419,0.064l-18.756-0.29
		l-10.301,2.931C36.485,401.79,19.72,423.962,19.72,448.88c0,30.902,25.141,56.043,56.043,56.043c2.418,0,4.698-0.583,6.728-1.594
		C57.962,497.361,39.691,475.219,39.691,448.88z"/>
	<path style="fill:#773B12;" d="M60.488,117.038l10.301,2.932l18.756-0.29l0.419,0.064l-9.506-2.705
		c-24.003-6.831-40.768-29.003-40.768-53.917c0-26.34,18.271-48.481,42.801-54.448c-2.031-1.012-4.311-1.595-6.729-1.595
		c-30.902,0-56.042,25.141-56.042,56.043C19.72,88.035,36.485,110.206,60.488,117.038z"/>
</g>
<g>
	<path style="fill:#F0EBD2;" d="M127.569,425.741c-5.728,0-10.389-4.661-10.389-10.389v-32.659c0-5.728,4.661-10.389,10.389-10.389
		s10.389,4.661,10.389,10.389v32.659C137.958,421.079,133.297,425.741,127.569,425.741z"/>
	<path style="fill:#F0EBD2;" d="M127.569,139.697c-5.728,0-10.389-4.661-10.389-10.389V96.65c0-5.728,4.661-10.389,10.389-10.389
		s10.389,4.661,10.389,10.389v32.659C137.958,135.036,133.297,139.697,127.569,139.697z"/>
</g>
<g>
	<path style="fill:#E2D7AC;" d="M127.569,415.35v-32.659c0-3.835,2.095-7.183,5.195-8.984c-1.531-0.889-3.302-1.406-5.195-1.406
		c-5.728,0-10.389,4.661-10.389,10.389v32.659c0,5.728,4.661,10.389,10.389,10.389c1.894,0,3.665-0.518,5.195-1.406
		C129.663,422.535,127.569,419.186,127.569,415.35z"/>
	<path style="fill:#E2D7AC;" d="M127.569,129.307V96.65c0-3.835,2.095-7.183,5.195-8.984c-1.531-0.889-3.302-1.406-5.195-1.406
		c-5.728,0-10.389,4.661-10.389,10.389v32.659c0,5.728,4.661,10.389,10.389,10.389c1.894,0,3.665-0.518,5.195-1.406
		C129.663,136.491,127.569,133.143,127.569,129.307z"/>
</g>
<path style="fill:#F0EBD2;" d="M80.168,439.02c-5.728,0-10.389-4.661-10.389-10.389V86.847c0-5.728,4.661-10.388,10.389-10.388
	s10.388,4.66,10.388,10.388v341.784C90.557,434.359,85.897,439.02,80.168,439.02z"/>
<path style="fill:#E2D7AC;" d="M80.167,428.631V86.847c0-3.835,2.095-7.183,5.195-8.983c-1.53-0.889-3.301-1.405-5.195-1.405
	c-5.728,0-10.389,4.66-10.389,10.388v341.784c0,5.728,4.661,10.389,10.389,10.389c1.894,0,3.664-0.518,5.195-1.406
	C82.262,435.814,80.167,432.466,80.167,428.631z"/>
<g>
	<path style="fill:#DD3A3A;" d="M237.698,471.448c-3.049-25.963-5.723-59.51,0.715-88.722l0.579-2.631l2.041-1.758
		c8.282-7.132,17.269-13.179,27.475-18.486l11.82-6.147v103.091l-2.082,2.307c-5.398,5.988-14.637,11.938-29.077,18.724
		l-10.164,4.777L237.698,471.448z"/>
	<path style="fill:#DD3A3A;" d="M343.438,471.448c3.049-25.963,5.723-59.51-0.715-88.722l-0.579-2.631l-2.041-1.758
		c-8.282-7.132-17.269-13.179-27.475-18.486l-11.82-6.147v103.091l2.082,2.307c5.398,5.988,14.637,11.938,29.077,18.724
		l10.164,4.777L343.438,471.448z"/>
</g>
<path style="fill:#9BB8BC;" d="M290.568,467.641c-6.204,0-11.251-5.047-11.251-11.252V69.773l11.251-4.077l11.252,4.076v386.618
	C301.819,462.594,296.772,467.641,290.568,467.641z"/>
<path style="fill:#7BA0A3;" d="M290.569,456.389V69.773l5.626-2.039l-5.626-2.038l-11.251,4.077v386.617
	c0,6.205,5.047,11.252,11.251,11.252c2.05,0,3.968-0.56,5.625-1.523C292.837,464.169,290.569,460.543,290.569,456.389z"/>
<path style="fill:#6D6864;" d="M293.867,35.963l27.092,52.147c1.561,3.005-1.381,6.362-4.565,5.208l-24.559-8.901
	c-0.818-0.296-1.715-0.296-2.534,0l-24.558,8.901c-3.184,1.154-6.126-2.203-4.565-5.208l27.091-52.147
	C288.657,33.292,292.479,33.292,293.867,35.963z"/>
<g>
	<path style="fill:#DD3A3A;" d="M383.324,471.448c-3.049-25.963-5.723-59.51,0.715-88.722l0.579-2.631l2.041-1.758
		c8.282-7.132,17.269-13.179,27.475-18.486l11.82-6.147v103.091l-2.082,2.307c-5.398,5.988-14.637,11.938-29.077,18.724
		l-10.164,4.777L383.324,471.448z"/>
	<path style="fill:#DD3A3A;" d="M489.064,471.448c3.049-25.963,5.723-59.51-0.715-88.722l-0.579-2.631l-2.041-1.758
		c-8.282-7.132-17.269-13.179-27.475-18.486l-11.82-6.147v103.091l2.082,2.307c5.398,5.988,14.637,11.938,29.077,18.724
		l10.164,4.777L489.064,471.448z"/>
</g>
<path style="fill:#9BB8BC;" d="M436.194,467.641c-6.204,0-11.251-5.047-11.251-11.252V69.773l11.251-4.077l11.252,4.076v386.618
	C447.445,462.594,442.397,467.641,436.194,467.641z"/>
<path style="fill:#7BA0A3;" d="M436.194,456.389V69.773l5.626-2.039l-5.626-2.038l-11.251,4.077v386.617
	c0,6.205,5.047,11.252,11.251,11.252c2.05,0,3.968-0.56,5.625-1.523C438.463,464.169,436.194,460.543,436.194,456.389z"/>
<path style="fill:#6D6864;" d="M439.492,35.963l27.092,52.147c1.561,3.005-1.381,6.362-4.565,5.208l-24.559-8.901
	c-0.818-0.296-1.715-0.296-2.534,0l-24.558,8.901c-3.184,1.154-6.126-2.203-4.565-5.208l27.091-52.147
	C434.283,33.292,438.105,33.292,439.492,35.963z"/>
<path d="M219.324,157.348c-18.688-27.114-44.317-48.188-74.315-61.217c-0.277-9.39-7.984-16.949-17.44-16.949
	c-5.598,0-10.575,2.657-13.774,6.765c-5.467-1.221-11.01-2.181-16.582-2.869c-1.729-7.823-8.71-13.696-17.045-13.696
	c-6.519,0-12.205,3.595-15.206,8.901c-4.792-3.444-7.835-9.071-7.835-15.162c0-10.276,8.359-18.636,18.635-18.636
	c12.265,0,22.242-9.978,22.242-22.242S88.027,0,75.763,0C40.958,0,12.643,28.315,12.643,63.12c0,29.768,21.265,55.642,50.059,61.744
	v262.271c-28.797,6.101-50.059,31.968-50.059,61.744c0,34.805,28.315,63.12,63.12,63.12c12.265,0,22.242-9.978,22.242-22.242
	s-9.978-22.242-22.242-22.242c-10.276,0-18.636-8.36-18.636-18.636c0-5.595,2.531-10.771,6.658-14.251
	c2.454,6.681,8.862,11.469,16.383,11.469c9.547,0,17.32-7.704,17.453-17.222c5.435-0.684,10.844-1.632,16.174-2.822
	c3.199,4.107,8.176,6.763,13.773,6.763c9.459,0,17.168-7.562,17.441-16.957c30.353-13.189,56.234-34.61,74.941-62.122
	c19.663-28.919,30.056-62.716,30.056-97.738C250.007,220.584,239.398,186.47,219.324,157.348z M62.701,417.726
	c-12.476,5.242-20.74,17.517-20.74,31.153c0,18.638,15.163,33.801,33.801,33.801c3.901,0,7.077,3.176,7.077,7.077
	c0,3.901-3.176,7.077-7.077,7.077c-26.442,0-47.955-21.512-47.955-47.955c0-21.531,14.626-40.374,34.894-46.139
	C62.701,402.74,62.701,417.726,62.701,417.726z M62.701,109.258c-20.265-5.767-34.894-24.614-34.894-46.137
	c0.001-26.443,21.513-47.955,47.955-47.955c3.901,0,7.077,3.176,7.077,7.077s-3.176,7.077-7.077,7.077
	c-18.638,0-33.801,15.163-33.801,33.801c0,13.613,8.37,25.95,20.74,31.166C62.701,94.287,62.701,109.258,62.701,109.258z
	 M82.469,428.631c0,1.269-1.032,2.301-2.3,2.301c-1.268,0-2.301-1.032-2.301-2.301V86.847c0-1.269,1.032-2.3,2.301-2.3
	c1.269,0,2.3,1.032,2.3,2.3V428.631z M125.267,96.65c0-1.269,1.032-2.301,2.301-2.301c1.269,0,2.301,1.032,2.301,2.301v32.659
	c0,1.269-1.032,2.301-2.301,2.301c-1.269,0-2.301-1.032-2.301-2.301C125.267,129.308,125.267,96.65,125.267,96.65z M97.634,98.429
	c4.187,0.579,8.351,1.321,12.468,2.23v14.538c-4.116-1.003-8.277-1.83-12.468-2.468V98.429z M110.101,411.339
	c-4.115,0.907-8.279,1.653-12.468,2.232v-14.303c4.191-0.638,8.352-1.463,12.468-2.466V411.339z M129.87,415.35
	c0,1.269-1.032,2.301-2.301,2.301c-1.269,0-2.301-1.032-2.301-2.301v-32.659c0-1.269,1.032-2.301,2.301-2.301
	c1.269,0,2.301,1.032,2.301,2.301V415.35z M145.035,399.165v-15.902c21.656-11.828,39.995-28.994,53.254-49.933
	c14.654-23.139,22.399-49.879,22.399-77.33c0-17.762-3.254-35.23-9.52-51.617c-1.702-4.451-7.131-5.921-11.039-3.194
	c-0.074,0.052-0.148,0.102-0.222,0.153c-2.791,1.888-3.993,5.402-2.799,8.552c5.48,14.451,8.416,30.019,8.416,46.107
	c0,47.498-25.405,90.377-66.694,113.361c-3.043-2.575-6.971-4.135-11.26-4.135c-9.099,0-16.587,6.995-17.386,15.89
	c-4.128,1.136-8.32,2.066-12.548,2.788v-255.81c4.228,0.721,8.419,1.653,12.548,2.788c0.801,8.894,8.287,15.89,17.386,15.89
	c4.292,0,8.221-1.562,11.265-4.139c13.59,7.57,25.457,17.306,35.267,28.652c2.033,2.352,5.355,3.022,8.228,1.834
	c0.163-0.067,0.327-0.133,0.491-0.198c4.581-1.803,6.022-7.595,2.812-11.327c-11.42-13.284-25.162-24.434-40.595-32.864v-15.927
	c54.904,26.535,89.807,81.604,89.807,143.196C234.842,317.368,199.871,372.606,145.035,399.165z"/>
<path d="M346.718,374.727c-11.033-9.859-23.449-17.93-37.822-24.593V98.129l12.827,4.65c0.844,0.306,1.717,0.454,2.583,0.454
	c2.143,0,4.235-0.91,5.703-2.585c2.059-2.349,2.467-5.721,1.027-8.493l-33.738-64.938c-1.304-2.51-3.898-4.087-6.728-4.087
	c-2.83,0-5.424,1.576-6.728,4.087l-33.737,64.938c-1.441,2.772-1.032,6.145,1.027,8.493c2.059,2.351,5.351,3.196,8.285,2.13
	l12.827-4.65v252.006c-14.373,6.663-26.789,14.733-37.822,24.593c-1.151,1.029-1.959,2.382-2.319,3.882
	c-7.81,32.496-4.457,70.812-0.148,104.008c0.307,2.363,1.707,4.444,3.78,5.62c1.156,0.655,2.446,0.987,3.739,0.987
	c1.028,0,2.057-0.208,3.024-0.629c12.434-5.408,25.677-11.744,35.095-19.277c3.32,3.333,7.911,5.401,12.977,5.401
	c5.066,0,9.657-2.068,12.978-5.401c9.418,7.534,22.661,13.87,35.095,19.278c0.967,0.421,1.997,0.629,3.024,0.629
	c1.293,0,2.584-0.331,3.739-0.987c2.074-1.175,3.474-3.257,3.78-5.62c4.31-33.196,7.662-71.512-0.148-104.008
	C348.678,377.11,347.869,375.756,346.718,374.727z M272.24,453.687c-5.46,6.058-15.966,11.863-26.51,16.819
	c-3.339-28.435-5.249-59.585,0.58-86.039c7.773-6.693,16.338-12.452,25.928-17.44v86.66H272.24z M293.731,354.96
	c0,0.023,0,0.047,0,0.07v101.36c0,1.745-1.418,3.163-3.163,3.163c-1.744,0-3.162-1.418-3.162-3.163V355.031c0-0.024,0-0.048,0-0.072
	V92.631l3.162-1.146l3.163,1.146V354.96z M293.152,76.291c-0.834-0.303-1.709-0.454-2.584-0.454c-0.876,0-1.749,0.151-2.584,0.454
	l-15.463,5.605l18.048-34.738l18.049,34.738L293.152,76.291z M335.406,470.506c-10.543-4.955-21.049-10.761-26.51-16.819v-86.66
	c9.59,4.988,18.157,10.747,25.928,17.44C340.655,410.921,338.745,442.071,335.406,470.506z"/>
<path d="M494.663,378.609c-0.36-1.499-1.169-2.853-2.319-3.882c-11.033-9.859-23.449-17.93-37.822-24.593V98.129l12.827,4.65
	c0.844,0.306,1.717,0.454,2.583,0.454c2.143,0,4.235-0.91,5.703-2.585c2.059-2.349,2.467-5.721,1.027-8.493l-33.738-64.938
	c-1.304-2.51-3.898-4.087-6.728-4.087s-5.424,1.576-6.728,4.087l-33.737,64.938c-1.441,2.772-1.032,6.145,1.027,8.493
	c2.059,2.351,5.351,3.196,8.285,2.13l12.827-4.65v252.006c-14.373,6.663-26.789,14.733-37.822,24.593
	c-1.151,1.029-1.959,2.382-2.319,3.882c-7.81,32.496-4.457,70.812-0.148,104.008c0.307,2.363,1.707,4.444,3.78,5.62
	c1.156,0.655,2.446,0.987,3.739,0.987c1.028,0,2.057-0.208,3.024-0.629c12.434-5.408,25.677-11.744,35.095-19.277
	c3.32,3.333,7.911,5.401,12.977,5.401s9.657-2.068,12.978-5.401c9.418,7.534,22.661,13.87,35.095,19.278
	c0.967,0.421,1.997,0.629,3.024,0.629c1.293,0,2.584-0.331,3.739-0.987c2.074-1.175,3.474-3.257,3.78-5.62
	C499.119,449.421,502.473,411.105,494.663,378.609z M417.865,453.687c-5.46,6.058-15.966,11.863-26.51,16.819
	c-3.339-28.435-5.249-59.585,0.58-86.039c7.773-6.693,16.338-12.452,25.928-17.44v86.66H417.865z M439.356,354.96
	c0,0.023,0,0.047,0,0.07v101.36c0,1.745-1.418,3.163-3.163,3.163c-1.744,0-3.162-1.418-3.162-3.163V355.031c0-0.024,0-0.048,0-0.072
	V92.631l3.162-1.146l3.163,1.146V354.96z M438.777,76.291c-0.834-0.303-1.709-0.454-2.584-0.454s-1.749,0.151-2.584,0.454
	l-15.463,5.605l18.048-34.738l18.049,34.738L438.777,76.291z M481.031,470.506c-10.543-4.955-21.049-10.761-26.51-16.819v-86.66
	c9.59,4.988,18.157,10.747,25.928,17.44C486.28,410.921,484.371,442.071,481.031,470.506z"/>
<g>
</g>
<g>
</g>
<g>
</g>
<g>
</g>
<g>
</g>
<g>
</g>
<g>
</g>
<g>
</g>
<g>
</g>
<g>
</g>
<g>
</g>
<g>
</g>
<g>
</g>
<g>
</g>
<g>
</g>
</svg>
