<?xml version="1.0" encoding="iso-8859-1"?>
<!-- Generator: Adobe Illustrator 19.0.0, SVG Export Plug-In . SVG Version: 6.00 Build 0)  -->
<svg version="1.1" id="Capa_1" xmlns="http://www.w3.org/2000/svg" xmlns:xlink="http://www.w3.org/1999/xlink" x="0px" y="0px"
	 viewBox="0 0 512 512" style="enable-background:new 0 0 512 512;" xml:space="preserve">
<rect x="397.844" y="83.276" style="fill:#0B66D3;" width="27.446" height="347.137"/>
<g>
	<path style="fill:#FF8B00;" d="M410.612,105.406c-17.15-0.509-30.578-15.031-30.578-32.189V15.755c0-4.499,4.27-7.772,8.614-6.603
		l49.39,13.29c2.985,0.804,5.061,3.51,5.061,6.603v44.842C443.098,91.593,428.434,105.935,410.612,105.406z"/>
	<path style="fill:#FF8B00;" d="M380.035,439.799c0-17.704,14.667-32.048,32.487-31.519c17.15,0.509,30.576,15.031,30.576,32.188
		v44.171c0,3.092-2.075,5.799-5.061,6.603l-49.39,13.291c-4.344,1.169-8.614-2.104-8.614-6.603v-58.132H380.035z"/>
</g>
<rect x="86.71" y="83.276" style="fill:#0B66D3;" width="27.446" height="347.137"/>
<g>
	<path style="fill:#FF8B00;" d="M101.389,105.406c17.15-0.509,30.578-15.031,30.578-32.189V15.755c0-4.499-4.27-7.772-8.614-6.603
		l-49.39,13.291c-2.985,0.804-5.061,3.51-5.061,6.603v44.842C68.903,91.593,83.568,105.935,101.389,105.406z"/>
	<path style="fill:#FF8B00;" d="M131.966,439.799c0-17.704-14.667-32.048-32.487-31.519c-17.15,0.509-30.576,15.031-30.576,32.188
		v44.171c0,3.092,2.075,5.799,5.061,6.603l49.39,13.291c4.344,1.169,8.614-2.104,8.614-6.603v-58.132H131.966z"/>
	<path style="fill:#FF8B00;" d="M250.351,498.41c-52.735-43.403-82.982-107.472-82.982-175.776V187.806
		c0-67.323,29.539-130.804,81.042-174.163l1.863-1.568c3.598-3.028,8.854-3.028,12.452,0l1.863,1.568
		c51.504,43.359,81.042,106.839,81.042,174.163v134.828c0,68.304-30.247,132.372-82.984,175.778l0,0
		c-3.57,2.941-8.723,2.941-12.293,0L250.351,498.41z"/>
</g>
<path style="fill:#FF6700;" d="M264.589,13.643l-1.863-1.568c-1.934-1.628-4.348-2.373-6.726-2.25v490.771
	c2.345,0.121,4.724-0.602,6.646-2.184c52.737-43.405,82.984-107.474,82.984-175.778V187.806
	C345.631,120.482,316.091,57.002,264.589,13.643z"/>
<path style="fill:#0B66D3;" d="M256.001,388.344c-20.331,0-36.873-16.541-36.873-36.873V162.216
	c0-20.332,16.541-36.874,36.873-36.874s36.873,16.541,36.873,36.874v189.255C292.874,371.803,276.332,388.344,256.001,388.344z"/>
<path style="fill:#2D86E0;" d="M256.001,367.383c-8.774,0-15.912-7.138-15.912-15.912V162.216c0-8.775,7.138-15.913,15.912-15.913
	c8.774,0,15.912,7.138,15.912,15.913v189.255C271.912,360.245,264.775,367.383,256.001,367.383z"/>
<path d="M345.132,289.887c-4.134,0-7.486,3.352-7.486,7.486v25.261c0,63.304-26.938,122.828-74.159,164.546V394.68
	c20.629-3.564,36.374-21.576,36.374-43.208V162.216c0-21.632-15.745-39.645-36.374-43.209V23.249
	c47.194,41.715,74.159,101.378,74.159,164.556v60.855c0,4.134,3.352,7.486,7.486,7.486l0,0c4.134,0,7.486-3.352,7.486-7.486v-60.852
	c0-69.229-30.569-134.925-83.53-179.511l-7.767-6.539c-2.786-2.346-6.856-2.346-9.642,0l-7.767,6.539
	c-52.96,44.585-83.53,110.282-83.53,179.511v134.825c0,70.139,31.377,136.601,85.532,181.174l3.868,3.183
	c1.344,2.002,3.627,3.32,6.219,3.32c0.106,0,0.208-0.012,0.312-0.016c0.063,0.001,0.125,0.016,0.187,0.016
	c1.688,0,3.376-0.568,4.758-1.706l5.83-4.799c54.355-44.738,85.53-110.774,85.53-181.173v-25.261
	C352.618,293.239,349.266,289.887,345.132,289.887L345.132,289.887z M248.515,486.287c-46.6-41.673-73.161-100.797-73.161-163.653
	V187.806c0-62.732,26.585-121.999,73.161-163.67v94.872c-20.629,3.564-36.374,21.577-36.374,43.209v189.255
	c0,21.632,15.745,39.644,36.374,43.208V486.287z M256.001,380.359c-15.929,0-28.888-12.959-28.888-28.888V162.216
	c0-15.93,12.959-28.889,28.888-28.889s28.888,12.959,28.888,28.889v189.255C284.888,367.4,271.929,380.359,256.001,380.359z"/>
<path d="M270.415,343.986c-4.135,0-7.486,3.351-7.486,7.486c0,3.82-3.108,6.928-6.928,6.928c-3.82,0-6.928-3.108-6.928-6.928V319.29
	c0-4.135-3.351-7.486-7.486-7.486c-4.135,0-7.486,3.351-7.486,7.486v32.181c0,12.077,9.825,21.9,21.9,21.9
	c12.076,0,21.9-9.825,21.9-21.9C277.901,347.336,274.55,343.986,270.415,343.986z"/>
<path d="M241.586,169.702c4.135,0,7.486-3.351,7.486-7.486c0-3.821,3.108-6.929,6.928-6.929c3.82,0,6.928,3.108,6.928,6.929v20.428
	c0,4.135,3.351,7.486,7.486,7.486s7.486-3.351,7.486-7.486v-20.428c0-12.077-9.825-21.901-21.9-21.901
	c-12.076,0-21.9,9.826-21.9,21.901C234.1,166.352,237.451,169.702,241.586,169.702z"/>
<path d="M317.47,302.209c4.135,0,7.486-3.351,7.486-7.486V158.382c0-4.135-3.351-7.486-7.486-7.486s-7.486,3.351-7.486,7.486
	v136.342C309.984,298.858,313.335,302.209,317.47,302.209z"/>
<path d="M317.47,373.372c4.135,0,7.486-3.351,7.486-7.486v-44.163c0-4.135-3.351-7.486-7.486-7.486s-7.486,3.351-7.486,7.486v44.163
	C309.984,370.021,313.335,373.372,317.47,373.372z"/>
<path d="M194.532,222.058c-4.135,0-7.486,3.351-7.486,7.486v136.342c0,4.135,3.351,7.486,7.486,7.486
	c4.135,0,7.486-3.351,7.486-7.486V229.544C202.018,225.41,198.667,222.058,194.532,222.058z"/>
<path d="M194.532,150.896c-4.135,0-7.486,3.351-7.486,7.486v44.163c0,4.135,3.351,7.486,7.486,7.486
	c4.135,0,7.486-3.351,7.486-7.486v-44.163C202.018,154.247,198.667,150.896,194.532,150.896z"/>
<path d="M450.085,73.889v-49.7c0-3.386-2.272-6.349-5.541-7.229L389.486,2.143c-3.954-1.066-8.081-0.247-11.328,2.243
	c-3.248,2.488-5.111,6.262-5.111,10.355v59.148c0,13.619,7.111,25.601,17.809,32.452v301.006
	c-10.698,6.851-17.809,18.833-17.809,32.453v59.147c0,4.092,1.862,7.865,5.109,10.355c2.315,1.774,5.078,2.699,7.905,2.699
	c1.139,0,2.289-0.15,3.424-0.455l55.06-14.819c3.268-0.879,5.541-3.844,5.541-7.229v-49.699c0-13.62-7.111-25.602-17.809-32.453
	V106.341C442.975,99.489,450.085,87.507,450.085,73.889z M388.02,17.254l47.094,12.673v43.963c0,12.984-10.562,23.546-23.546,23.546
	S388.02,86.873,388.02,73.889V17.254z M435.113,483.761l-47.094,12.674v-56.635c0-12.984,10.563-23.547,23.547-23.547
	s23.546,10.563,23.546,23.547V483.761z M417.305,112.407V401.28h-11.476V112.407H417.305z"/>
<path d="M133.843,4.385c-3.247-2.488-7.374-3.308-11.327-2.243L67.456,16.96c-3.268,0.879-5.541,3.844-5.541,7.229v49.7
	c0,13.619,7.111,25.601,17.809,32.452v301.006c-10.698,6.851-17.809,18.833-17.809,32.453v49.699c0,3.386,2.272,6.349,5.541,7.229
	l55.061,14.819c1.135,0.306,2.284,0.455,3.423,0.455c2.827,0,5.591-0.925,7.905-2.699c3.247-2.489,5.109-6.262,5.109-10.355v-59.147
	c0-13.62-7.111-25.601-17.809-32.453V106.341c10.698-6.851,17.809-18.833,17.809-32.452V14.74
	C138.953,10.649,137.091,6.874,133.843,4.385z M123.981,496.434l-47.093-12.674v-43.962c0-12.984,10.562-23.547,23.546-23.547
	s23.547,10.563,23.547,23.547L123.981,496.434L123.981,496.434z M106.173,112.407V401.28H94.696V112.407H106.173z M123.981,73.889
	c0,12.984-10.563,23.546-23.547,23.546S76.887,86.873,76.887,73.889V29.926l47.094-12.673
	C123.981,17.254,123.981,73.889,123.981,73.889z"/>
<g>
</g>
<g>
</g>
<g>
</g>
<g>
</g>
<g>
</g>
<g>
</g>
<g>
</g>
<g>
</g>
<g>
</g>
<g>
</g>
<g>
</g>
<g>
</g>
<g>
</g>
<g>
</g>
<g>
</g>
</svg>
