<?xml version="1.0" encoding="iso-8859-1"?>
<!-- Generator: Adobe Illustrator 19.0.0, SVG Export Plug-In . SVG Version: 6.00 Build 0)  -->
<svg version="1.1" id="Capa_1" xmlns="http://www.w3.org/2000/svg" xmlns:xlink="http://www.w3.org/1999/xlink" x="0px" y="0px"
	 viewBox="0 0 511.999 511.999" style="enable-background:new 0 0 511.999 511.999;" xml:space="preserve">
<path style="fill:#FF6700;" d="M215.395,130.501c-14.829-13.706-22.666-29.566-22.666-45.867v-59.48l14.293,18.084
	c2.69,3.404,5.736,6.685,9.053,9.75l31.859,29.446c4.746,4.386,12.084,4.332,16.764-0.125l31.146-29.664
	c2.901-2.762,5.6-5.719,8.024-8.787l14.295-18.101v59.498c0,15.894-7.48,31.419-21.63,44.894l-40.145,38.238L215.395,130.501z"/>
<path style="fill:#FF9100;" d="M100.216,504.992c-4.84,0-8.763-3.923-8.763-8.763V178.593c0-6.293,5.101-11.394,11.394-11.394
	h10.788c13.474,0,24.398-10.923,24.398-24.398V16.993c0-5.515,4.47-9.985,9.985-9.985h41.294c2.44,0,4.418,1.978,4.418,4.418v73.207
	c0,16.015,7.726,31.621,22.345,45.131l40.302,37.248l39.467-37.591c13.947-13.283,21.319-28.555,21.319-44.168V11.427
	c0-2.44,1.978-4.418,4.418-4.418h42.294c5.515,0,9.986,4.47,9.986,9.986v114.913c0,19.432,15.787,35.247,35.21,35.292
	c6.311,0.014,11.475,5.083,11.475,11.394v317.636c0,4.84-3.923,8.763-8.763,8.763H100.216z"/>
<path style="fill:#E57D00;" d="M409.07,167.199c-19.422-0.044-35.21-15.859-35.21-35.292V16.994c0-5.515-4.47-9.986-9.986-9.986
	H321.58c-2.44,0-4.418,1.978-4.418,4.418v73.828c0,15.614-7.372,30.886-21.319,44.168l-39.467,37.591l-1.894-1.751v339.728h157.301
	c4.839,0,8.763-3.923,8.763-8.763V178.593C420.545,172.283,415.381,167.214,409.07,167.199z"/>
<rect x="91.449" y="286.746" style="fill:#2C59C6;" width="329.087" height="23.61"/>
<path style="fill:#1ABA9B;" d="M166.639,329.081c-6.104,0-11.07-6.308-11.07-14.06v-32.943c0-7.752,4.966-14.06,11.07-14.06h23.029
	c6.104,0,11.071,6.308,11.071,14.06v32.943c0,7.752-4.967,14.06-11.071,14.06H166.639z"/>
<path style="fill:#2C59C6;" d="M177.962,303.735v-10.37c0-3.656,2.965-6.621,6.621-6.621h53.921v23.61h-53.921
	C180.927,310.355,177.962,307.391,177.962,303.735z"/>
<path style="fill:#1ABA9B;" d="M322.224,329.081c-6.104,0-11.07-6.308-11.07-14.06v-32.943c0-7.752,4.966-14.06,11.07-14.06h23.029
	c6.104,0,11.071,6.308,11.071,14.06v32.943c0,7.752-4.967,14.06-11.071,14.06H322.224z"/>
<g>
	<path style="fill:#2C59C6;" d="M272.388,310.355v-23.61h54.921c3.656,0,6.621,2.965,6.621,6.621v10.37
		c0,3.656-2.965,6.621-6.621,6.621h-54.921V310.355z"/>
	<rect x="91.449" y="383.923" style="fill:#2C59C6;" width="329.087" height="23.61"/>
</g>
<path style="fill:#1ABA9B;" d="M166.639,426.26c-6.104,0-11.07-6.308-11.07-14.06v-32.943c0-7.752,4.966-14.06,11.07-14.06h23.029
	c6.104,0,11.071,6.308,11.071,14.06V412.2c0,7.752-4.967,14.06-11.071,14.06H166.639z"/>
<path style="fill:#2C59C6;" d="M177.962,400.913v-10.369c0-3.656,2.965-6.621,6.621-6.621h53.921v23.61h-53.921
	C180.927,407.534,177.962,404.57,177.962,400.913z"/>
<path style="fill:#1ABA9B;" d="M322.224,426.26c-6.104,0-11.07-6.308-11.07-14.06v-32.943c0-7.752,4.966-14.06,11.07-14.06h23.029
	c6.104,0,11.071,6.308,11.071,14.06V412.2c0,7.752-4.967,14.06-11.071,14.06H322.224z"/>
<path style="fill:#2C59C6;" d="M272.388,407.534v-23.61h54.921c3.656,0,6.621,2.965,6.621,6.621v10.369
	c0,3.656-2.965,6.621-6.621,6.621h-54.921V407.534z"/>
<path style="fill:#DD3A3A;" d="M323.501,223.151v-6.193c0-2.609-2.116-4.725-4.725-4.725h-6.193c-2.609,0-4.725-2.116-4.725-4.725
	v-13.072c0-2.609,2.116-4.725,4.725-4.725h6.193c2.609,0,4.725-2.116,4.725-4.725v-6.193c0-2.609,2.116-4.725,4.725-4.725h13.072
	c2.609,0,4.725,2.116,4.725,4.725v6.193c0,2.609,2.116,4.725,4.725,4.725h6.193c2.609,0,4.725,2.116,4.725,4.725v13.072
	c0,2.609-2.116,4.725-4.725,4.725h-6.193c-2.609,0-4.725,2.116-4.725,4.725v6.193c0,2.609-2.116,4.725-4.725,4.725h-13.072
	C325.616,227.877,323.501,225.761,323.501,223.151z"/>
<g>
	<path style="fill:#D67500;" d="M256.381,295.616c4.148,0,7.509-3.361,7.509-7.509V159.857l-7.514,7.157l-7.504-6.935v128.029
		C248.872,292.254,252.234,295.616,256.381,295.616z"/>
	<path style="fill:#D67500;" d="M256.381,392.648c-4.147,0-7.509-3.361-7.509-7.509v-75.145c0-4.148,3.362-7.509,7.509-7.509
		c4.148,0,7.509,3.361,7.509,7.509v75.145C263.89,389.286,260.529,392.648,256.381,392.648z"/>
	<path style="fill:#D67500;" d="M263.89,504.992V416.33c0-4.148-3.361-7.509-7.509-7.509c-4.147,0-7.509,3.361-7.509,7.509v88.662
		H263.89z"/>
</g>
<g>
	<path style="fill:#CEEDEF;" d="M246.298,317.651c-4.85,0-8.796-3.946-8.796-8.796v-20.609c0-4.85,3.946-8.796,8.796-8.796h18.295
		c4.85,0,8.796,3.946,8.796,8.796v20.609c0,4.85-3.946,8.796-8.796,8.796L246.298,317.651L246.298,317.651z"/>
	<path style="fill:#CEEDEF;" d="M246.298,414.829c-4.85,0-8.796-3.946-8.796-8.796v-20.609c0-4.85,3.946-8.796,8.796-8.796h18.295
		c4.85,0,8.796,3.946,8.796,8.796v20.609c0,4.85-3.946,8.796-8.796,8.796H246.298z"/>
</g>
<path d="M356.998,182.703h-3.968v-3.968c0-6.438-5.237-11.675-11.675-11.675h-13.188c-6.438,0-11.675,5.237-11.675,11.675v3.968
	h-3.968c-6.438,0-11.675,5.237-11.675,11.675v13.188c0,6.438,5.237,11.675,11.675,11.675h3.968v3.968
	c0,6.438,5.237,11.675,11.675,11.675h13.188c6.438,0,11.675-5.237,11.675-11.675v-3.968h3.968c6.438,0,11.675-5.237,11.675-11.675
	v-13.188C368.673,187.941,363.436,182.703,356.998,182.703z M353.655,204.224h-8.134c-4.148,0-7.509,3.361-7.509,7.509v8.134h-6.502
	v-8.134c0-4.148-3.361-7.509-7.509-7.509h-8.134v-6.502h8.134c4.148,0,7.509-3.361,7.509-7.509v-8.134h6.502v8.134
	c0,4.148,3.361,7.509,7.509,7.509h8.134V204.224z"/>
<path d="M412.535,481.929v14.3c0,0.415-0.337,0.753-0.753,0.753H263.89v-75.145h0.703c5.581,0,10.484-2.915,13.297-7.295h26.776
	v1.234c0,9.635,7.81,17.446,17.446,17.446h23.256c9.635,0,17.445-7.81,17.445-17.445v-1.236h49.723v18.525
	c0,4.147,3.362,7.509,7.509,7.509l0,0c4.147,0,7.509-3.362,7.509-7.509V178.652c0-10.086-8.093-18.541-18.178-18.462
	c-15.697,0.122-28.507-12.612-28.507-28.282V16.993C380.868,7.608,373.26,0,363.875,0h-46.214c-4.147,0-7.509,3.362-7.509,7.509
	v0.967c0,13.648-6.619,27.167-19.143,39.094l-34.707,33.056L220.83,47.842c-13.145-12.15-20.093-25.975-20.093-39.985V7.509
	c0-4.147-3.362-7.509-7.509-7.509h-45.21c-9.385,0-16.993,7.608-16.993,16.993v125.808c0,9.605-7.785,17.39-17.39,17.39h-10.787
	c-10.163,0-18.402,8.239-18.402,18.402v317.635c0,8.711,7.061,15.771,15.771,15.771h311.566c8.711,0,15.771-7.061,15.771-15.771
	v-14.3c0-4.147-3.362-7.509-7.509-7.509l0,0C415.897,474.42,412.535,477.782,412.535,481.929z M265.38,406.033
	c0,0.434-0.353,0.786-0.786,0.786h-18.295c-0.434,0-0.786-0.353-0.786-0.786v-20.609c0-0.434,0.352-0.786,0.786-0.786h18.295
	c0.434,0,0.786,0.353,0.786,0.786V406.033z M280.398,399.524v-7.591h45.523v7.591H280.398z M347.794,415.777
	c0,1.339-1.088,2.428-2.427,2.428h-23.256c-1.339,0-2.428-1.089-2.428-2.428v-1.234h13.746c4.148,0,7.509-3.361,7.509-7.509v-22.609
	c0-4.148-3.361-7.509-7.509-7.509h-13.745v-1.234c0-1.339,1.089-2.427,2.428-2.427h23.256c1.339,0,2.427,1.088,2.427,2.427
	L347.794,415.777L347.794,415.777z M412.43,399.524h-49.618v-7.591h49.618L412.43,399.524L412.43,399.524z M412.535,376.915h-49.723
	v-1.234c0-9.619-7.825-17.445-17.445-17.445h-23.256c-9.62,0-17.446,7.825-17.446,17.445v1.234h-26.776
	c-2.812-4.38-7.716-7.295-13.297-7.295h-0.703v-44.961h0.703c5.581,0,10.484-2.915,13.297-7.295h26.777v0.671
	c0,9.62,7.825,17.446,17.446,17.446h23.256c9.619,0,17.445-7.825,17.445-17.446v-0.671h49.723L412.535,376.915L412.535,376.915z
	 M246.298,309.641c-0.434,0-0.786-0.353-0.786-0.786v-20.609c0-0.434,0.352-0.786,0.786-0.786h18.295
	c0.434,0,0.786,0.353,0.786,0.786v20.609c0,0.434-0.353,0.786-0.786,0.786L246.298,309.641L246.298,309.641z M333.429,279.736
	h-13.745v-0.671c0-1.339,1.089-2.428,2.428-2.428h23.256c1.339,0,2.427,1.089,2.427,2.428v38.969c0,1.339-1.088,2.428-2.427,2.428
	h-23.256c-1.339,0-2.428-1.089-2.428-2.428v-0.671h13.746c4.148,0,7.509-3.361,7.509-7.509v-22.609
	C340.938,283.098,337.577,279.736,333.429,279.736z M325.92,294.754v7.591h-45.523v-7.591H325.92z M362.812,302.345v-7.591h49.618
	v7.591H362.812z M325.171,85.254V15.018h38.703c1.089,0,1.976,0.886,1.976,1.975v114.914c0,23.877,19.424,43.301,43.301,43.301
	c1.865,0,3.384,1.519,3.384,3.384v101.143h-49.723v-0.671c0-9.62-7.825-17.446-17.445-17.446h-23.256
	c-9.62,0-17.446,7.825-17.446,17.446v0.671h-26.776c-2.812-4.38-7.716-7.295-13.297-7.295h-0.703V170.918l37.477-35.696
	C316.94,120.392,325.171,103.112,325.171,85.254z M200.738,48.204c2.902,3.671,6.191,7.238,9.9,10.665l40.646,37.566
	c1.44,1.331,3.268,1.994,5.096,1.994c1.865,0,3.73-0.691,5.179-2.071l39.809-37.915c3.259-3.105,6.177-6.321,8.785-9.623v36.432
	c0,13.648-6.619,27.167-19.144,39.094l-34.705,33.056l-35.473-32.785c-13.145-12.15-20.093-25.975-20.093-39.985L200.738,48.204
	L200.738,48.204z M99.463,178.593c0-1.865,1.519-3.384,3.384-3.384h10.788c17.87,0,32.408-14.539,32.408-32.408V16.993
	c0-1.089,0.886-1.975,1.975-1.975h37.701v69.616c0,18.307,8.616,35.947,24.918,51.013l38.234,35.337V272.44h-2.574
	c-5.581,0-10.484,2.915-13.296,7.295h-25.776v-0.671c0-9.62-7.825-17.446-17.445-17.446h-23.255c-9.62,0-17.445,7.825-17.445,17.446
	v0.671H99.463V178.593z M178.463,317.363h13.745v0.671c0,1.339-1.088,2.428-2.427,2.428h-23.255c-1.339,0-2.427-1.089-2.427-2.428
	v-38.969c0-1.339,1.088-2.428,2.427-2.428h23.255c1.339,0,2.427,1.089,2.427,2.428v0.671h-13.745c-4.147,0-7.509,3.361-7.509,7.509
	v22.609C170.954,314.002,174.316,317.363,178.463,317.363z M185.972,302.345v-7.591h44.522v7.591H185.972z M99.463,294.754h49.618
	v7.591H99.463V294.754z M99.463,317.363h49.618v0.671c0,9.62,7.825,17.446,17.445,17.446h23.255c9.62,0,17.445-7.825,17.445-17.446
	v-0.671h25.776c2.812,4.38,7.715,7.295,13.296,7.295h2.574v44.961h-2.574c-5.581,0-10.484,2.915-13.296,7.295h-25.776v-1.234
	c0-9.619-7.825-17.445-17.445-17.445h-23.255c-9.62,0-17.445,7.825-17.445,17.445v1.234H99.463V317.363z M178.463,414.543h13.745
	v1.234c0,1.339-1.088,2.428-2.427,2.428h-23.255c-1.339,0-2.427-1.089-2.427-2.428V375.68c0-1.339,1.088-2.427,2.427-2.427h23.255
	c1.339,0,2.427,1.088,2.427,2.427v1.234h-13.745c-4.147,0-7.509,3.361-7.509,7.509v22.609
	C170.954,411.182,174.316,414.543,178.463,414.543z M185.972,399.524v-7.591h44.522v7.591H185.972z M99.463,391.933h49.618v7.591
	H99.463V391.933z M248.872,496.982H100.216c-0.416,0-0.753-0.337-0.753-0.753v-81.686h49.618v1.234
	c0,9.62,7.825,17.446,17.445,17.446h23.255c9.62,0,17.445-7.825,17.445-17.446v-1.234h25.776c2.812,4.38,7.715,7.295,13.296,7.295
	h2.574V496.982z"/>
<path d="M215.742,200.972c0-4.148-3.362-7.509-7.509-7.509h-61.036c-4.147,0-7.509,3.361-7.509,7.509
	c0,4.148,3.362,7.509,7.509,7.509h61.036C212.38,208.481,215.742,205.12,215.742,200.972z"/>
<g>
</g>
<g>
</g>
<g>
</g>
<g>
</g>
<g>
</g>
<g>
</g>
<g>
</g>
<g>
</g>
<g>
</g>
<g>
</g>
<g>
</g>
<g>
</g>
<g>
</g>
<g>
</g>
<g>
</g>
</svg>
