<?xml version="1.0" encoding="iso-8859-1"?>
<!-- Generator: Adobe Illustrator 19.0.0, SVG Export Plug-In . SVG Version: 6.00 Build 0)  -->
<svg version="1.1" id="Capa_1" xmlns="http://www.w3.org/2000/svg" xmlns:xlink="http://www.w3.org/1999/xlink" x="0px" y="0px"
	 viewBox="0 0 512.002 512.002" style="enable-background:new 0 0 512.002 512.002;" xml:space="preserve">
<path style="fill:#FAF7E6;" d="M444.74,15.117c4.709,4.709,7.628,11.217,7.628,18.406c0,14.377-11.657,26.034-26.034,26.034h-65.365
	v25.674h4.879c7.188,0,13.697,2.909,18.406,7.628c4.709,4.709,7.628,11.217,7.628,18.406c0,14.367-11.657,26.024-26.034,26.024
	h-61.766c-7.178,0-13.687-2.919-18.396-7.628c-4.719-4.709-7.628-11.207-7.628-18.396c0-14.377,11.657-26.034,26.024-26.034h21.825
	V59.556h-1.75c-7.188,0-13.697-2.909-18.406-7.628c-4.709-4.709-7.618-11.217-7.618-18.406c0-14.377,11.647-26.024,26.024-26.024
	h102.177C433.522,7.498,440.031,10.408,444.74,15.117z"/>
<g>
	<path style="fill:#EADDB9;" d="M303.045,125.58c0-14.377,11.657-26.034,26.024-26.034h10.101c6.475,0,11.725-5.25,11.725-11.725
		V75.622c0-0.966-0.784-1.75-1.75-1.75l0,0c-7.188,0-13.697-2.909-18.406-7.628c-1.947-1.947-3.578-4.203-4.832-6.685v25.672
		h-21.825c-14.367,0-26.024,11.657-26.024,26.034c0,7.188,2.909,13.687,7.628,18.396c4.709,4.709,11.217,7.628,18.396,7.628h1.749
		C304.052,133.769,303.045,129.795,303.045,125.58z"/>
	<path style="fill:#EADDB9;" d="M324.157,59.556h1.749c-1.779-3.523-2.785-7.502-2.785-11.718c0-14.377,11.647-26.024,26.024-26.024
		h100.437c-1.256-2.486-2.892-4.748-4.842-6.696c-4.709-4.709-11.217-7.618-18.406-7.618H324.157
		c-14.377,0-26.024,11.647-26.024,26.024c0,7.188,2.909,13.697,7.618,18.406C310.461,56.647,316.969,59.556,324.157,59.556z"/>
</g>
<path style="fill:#FAF7E6;" d="M381.114,182.498c9.158,0,16.586,7.418,16.586,16.576c0,4.579-1.86,8.728-4.859,11.727
	c-2.999,2.999-7.148,4.859-11.727,4.859H358.2c-9.158,0-16.586-7.428-16.586-16.586c0-4.579,1.86-8.718,4.859-11.717
	s7.148-4.859,11.727-4.859H381.114z"/>
<path style="fill:#EADDB9;" d="M378.743,208.16c-9.158,0-16.586-7.428-16.586-16.586c0-3.355,1.006-6.469,2.719-9.076H358.2
	c-4.579,0-8.728,1.86-11.727,4.859s-4.859,7.138-4.859,11.717c0,9.158,7.428,16.586,16.586,16.586h22.915
	c4.579,0,8.728-1.86,11.727-4.859c0.801-0.802,1.514-1.69,2.139-2.641H378.743z"/>
<path style="fill:#FAF7E6;" d="M302.158,365.185v-35.283h-5.16c-7.605,0-13.792-6.187-13.792-13.792s6.187-13.792,13.792-13.792
	h81.799v-25.876c-6.573-1.113-11.476-6.876-11.476-13.583c0-7.605,6.187-13.793,13.792-13.793h50.34
	c7.604,0,13.792,6.187,13.792,13.793c0,7.604-6.187,13.792-13.792,13.792h-24.669v26.376c5.572,1.857,9.432,7.184,9.432,13.083
	c0,7.604-6.187,13.792-13.792,13.792h-72.279v35.283H302.158z"/>
<g>
	<path style="fill:#EADDB9;" d="M296.999,316.418h81.799v-14.101h-81.799c-7.605,0-13.792,6.187-13.792,13.792
		c0,2.577,0.724,4.984,1.96,7.05C287.577,319.13,291.972,316.418,296.999,316.418z"/>
	<path style="fill:#EADDB9;" d="M381.114,263.167h50.34c5.027,0,9.422,2.712,11.832,6.742c1.236-2.066,1.96-4.472,1.96-7.049
		c0-7.605-6.187-13.793-13.792-13.793h-50.34c-7.605,0-13.792,6.187-13.792,13.793c0,2.555,0.716,4.972,1.961,7.048
		C371.694,265.878,376.088,263.167,381.114,263.167z"/>
</g>
<path style="fill:#9BB8BC;" d="M88.286,422.649c-3.471,0-6.735-1.353-9.19-3.807l-16.157-16.156c-2.455-2.456-3.806-5.72-3.806-9.19
	v-96.85c0-3.47,1.352-6.733,3.805-9.188L79.095,271.3c2.456-2.455,5.721-3.807,9.191-3.807h31.533v25.994h-26.15l-8.542,8.543
	v86.083l8.542,8.543h26.15v25.994H88.286V422.649z"/>
<g>
	<path style="fill:#7F9799;" d="M122.469,304.223c-5.872,0-10.648-4.776-10.648-10.648v-26.171c0-5.872,4.777-10.648,10.648-10.648
		h18.124v47.467h-18.124V304.223z"/>
	<path style="fill:#7F9799;" d="M122.469,433.386c-5.872,0-10.648-4.776-10.648-10.648v-26.171c0-5.872,4.777-10.648,10.648-10.648
		h18.124v47.467h-18.124V433.386z"/>
</g>
<g>
	<path style="fill:#9BB8BC;" d="M135.594,193.97v-35.077c0-23.539,19.151-42.689,42.689-42.689h37.462
		c23.539,0,42.689,19.151,42.689,42.689v35.077H135.594z"/>
	<polygon style="fill:#9BB8BC;" points="135.594,218.668 135.594,479.431 202.372,479.431 258.434,479.431 258.434,367.573 
		258.434,218.668 	"/>
</g>
<g>
	<path style="fill:#BFDFE2;" d="M215.745,116.202h-34.648c23.539,0,42.689,19.151,42.689,42.689v35.077h34.648v-35.077
		C258.434,135.354,239.284,116.202,215.745,116.202z"/>
	<polygon style="fill:#BFDFE2;" points="223.786,218.668 223.786,367.573 223.786,479.431 258.434,479.431 258.434,367.573 
		258.434,218.668 	"/>
</g>
<path style="fill:#3A3735;" d="M140.713,219.668c-7.361,0-13.35-5.989-13.35-13.35s5.989-13.349,13.35-13.349h112.602
	c7.36,0,13.349,5.988,13.349,13.349s-5.989,13.35-13.349,13.35H140.713z"/>
<path style="fill:#2D2521;" d="M181.097,206.318c0-7.36,5.989-13.349,13.35-13.349h-53.734c-7.361,0-13.35,5.988-13.35,13.349
	s5.989,13.35,13.35,13.35h53.734C187.086,219.668,181.097,213.679,181.097,206.318z"/>
<path style="fill:#3A3735;" d="M140.713,505.13c-7.361,0-13.35-5.989-13.35-13.35c0-7.361,5.989-13.349,13.35-13.349h112.602
	c7.36,0,13.349,5.988,13.349,13.349c0,7.361-5.989,13.35-13.349,13.35H140.713z"/>
<path style="fill:#EAB659;" d="M231.555,504.766c-16.642,0-30.182-13.54-30.182-30.181v-87.075h134.519v87.075
	c0,16.642-13.54,30.181-30.182,30.181H231.555z"/>
<path style="fill:#EFC889;" d="M295.331,387.509v87.075c0,16.642-13.54,30.181-30.182,30.181h40.561
	c16.642,0,30.182-13.54,30.182-30.181v-87.075H295.331z"/>
<path style="fill:#3A3735;" d="M199.236,388.509c-6.048,0-10.967-4.92-10.967-10.967s4.92-10.969,10.967-10.969h138.793
	c6.048,0,10.967,4.921,10.967,10.969s-4.92,10.967-10.967,10.967H199.236z"/>
<path style="fill:#2D2521;" d="M250.638,377.542c0-6.048,4.92-10.969,10.967-10.969h-62.37c-6.048,0-10.967,4.921-10.967,10.969
	s4.92,10.967,10.967,10.967h62.37C255.558,388.509,250.638,383.589,250.638,377.542z"/>
<path d="M365.849,144.787h-61.766c-8.947,0-17.362-3.489-23.698-9.824c-6.334-6.32-9.825-14.738-9.825-23.699
	c0-18.49,15.039-33.532,33.522-33.532h14.327V66.568c-6.776-1.164-13.013-4.381-17.965-9.343
	c-6.324-6.324-9.809-14.743-9.809-23.703C290.636,15.039,305.675,0,324.158,0h102.177c8.959,0,17.378,3.485,23.708,9.814
	c6.336,6.337,9.825,14.756,9.825,23.709c0,18.49-15.043,33.532-33.532,33.532h-57.867v10.778c7.977,0.612,15.388,4.013,21.094,9.73
	c6.331,6.331,9.82,14.75,9.82,23.703C399.381,129.748,384.339,144.787,365.849,144.787z M304.082,92.729
	c-10.215,0-18.526,8.315-18.526,18.536c0,4.949,1.928,9.597,5.426,13.089c3.509,3.508,8.159,5.437,13.1,5.437h61.766
	c10.221,0,18.536-8.311,18.536-18.526c0-4.947-1.93-9.601-5.433-13.103c-3.498-3.505-8.149-5.433-13.103-5.433h-4.879
	c-4.141,0-7.498-3.356-7.498-7.498V59.556c0-4.142,3.357-7.498,7.498-7.498h65.365c10.221,0,18.536-8.315,18.536-18.536
	c0-4.947-1.93-9.601-5.433-13.103c-3.495-3.497-8.149-5.423-13.102-5.423H324.158c-10.215,0-18.526,8.311-18.526,18.526
	c0,4.954,1.926,9.607,5.422,13.103c3.498,3.505,8.149,5.433,13.104,5.433h1.75c4.141,0,7.498,3.356,7.498,7.498v25.674
	c0,4.142-3.357,7.498-7.498,7.498H304.082z"/>
<path d="M381.115,223.159h-22.915c-13.28,0-24.084-10.805-24.084-24.084c0-6.426,2.505-12.47,7.055-17.019
	c4.55-4.549,10.598-7.055,17.029-7.055h22.915c13.28,0,24.084,10.801,24.084,24.075c0,6.433-2.505,12.479-7.055,17.029
	C393.595,220.654,387.547,223.159,381.115,223.159z M358.2,189.997c-2.426,0-4.708,0.946-6.426,2.663
	c-1.717,1.717-2.662,3.995-2.662,6.415c0,5.011,4.077,9.088,9.088,9.088h22.915c2.426,0,4.708-0.946,6.426-2.663
	c1.717-1.717,2.662-3.998,2.662-6.425c0-5.006-4.077-9.078-9.088-9.078H358.2z"/>
<path d="M431.453,241.94h-49.837c-10.495,0-19.699,7.58-21.103,17.98c-1.232,9.118,3.649,17.526,11.286,21.377v13.894h-74.291
	c-11.43,0-21.107,9.008-21.298,20.436c-0.184,11.002,8.228,20.119,18.949,21.062v22.757h-29.726v-60.24
	c0-4.141-3.357-7.498-7.498-7.498l0,0c-4.141,0-7.498,3.357-7.498,7.498v60.24h-22.365V226.538h22.365v23.878
	c0,4.141,3.357,7.498,7.498,7.498l0,0c4.141,0,7.498-3.357,7.498-7.498v-27.918c4.983-3.712,8.23-9.631,8.23-16.308
	s-3.247-12.595-8.23-16.308v-31.118c0-27.442-22.246-49.688-49.688-49.688h-37.462c-27.442,0-49.688,22.246-49.688,49.688v31.119
	c-4.983,3.712-8.23,9.631-8.23,16.308s3.247,12.595,8.23,16.308v27.133h-6.127c-7.278,0-13.54,4.431-16.234,10.736H88.286
	c-5.34,0-10.362,2.08-14.139,5.856L57.99,282.38c-3.776,3.777-5.856,8.798-5.856,14.139v96.851c0,5.303,2.107,10.389,5.857,14.139
	l16.157,16.156c3.75,3.749,8.835,5.856,14.138,5.856h17.948c2.694,6.306,8.956,10.736,16.234,10.736h6.127v35.09
	c-4.983,3.712-8.23,9.631-8.23,16.308c0,11.219,9.128,20.347,20.378,20.347l164.966-0.364l0,0c18.436,0,33.772-13.489,36.678-31.114
	l22.909-5.348c10.22-2.385,17.449-11.497,17.449-21.991v-29.733c0-12.471-10.111-22.582-22.582-22.582H342.89v-6.175
	c7.713-2.174,13.345-9.363,13.096-17.818c-0.288-9.791-8.644-17.428-18.439-17.428h-0.406v-22.676h64.79
	c11.325,0,20.947-8.851,21.272-20.171c0.214-7.463-3.453-14.19-9.423-18.05v-15.029h17.16c11.259,0,20.861-8.738,21.286-19.989
	C452.675,251.703,443.183,241.94,431.453,241.94z M104.822,414.523H88.285c-1.335,0-2.59-0.521-3.535-1.465l-16.157-16.156
	c-0.944-0.944-1.464-2.199-1.464-3.534v-96.85c0-1.335,0.521-2.59,1.464-3.534l16.156-16.156c0.945-0.944,2.2-1.465,3.535-1.465
	h16.536v9.998H93.462c-1.989,0-3.896,0.79-5.302,2.196l-8.836,8.836c-1.407,1.407-2.197,3.313-2.197,5.303v86.497
	c0,1.989,0.79,3.895,2.197,5.303l8.836,8.836c1.406,1.406,3.313,2.196,5.302,2.196h11.359V414.523z M128.595,425.259h-6.127
	c-1.461,0-2.649-1.189-2.649-2.649v-0.578c0-0.003,0-0.006,0-0.01v-24.994c0-0.003,0-0.006,0-0.01v-0.579
	c0-1.461,1.189-2.649,2.649-2.649h6.127V425.259z M128.595,378.792h-6.127c-7.279,0-13.541,4.431-16.234,10.737h-9.666l-4.443-4.443
	V304.8l4.443-4.443h9.666c2.694,6.305,8.956,10.736,16.234,10.736h6.127V378.792z M128.595,296.096h-6.127
	c-1.461,0-2.649-1.189-2.649-2.649v-0.578c0-0.003,0-0.006,0-0.01v-24.994c0-0.003,0-0.006,0-0.01v-0.578
	c0-1.461,1.189-2.649,2.649-2.649h6.127V296.096z M342.89,415.864h17.273c4.183,0,7.585,3.402,7.585,7.585v29.733
	c0,3.544-2.41,6.581-5.861,7.387l-18.998,4.435V415.864z M215.745,124.073c19.129,0,34.691,15.562,34.691,34.691v27.079h-22.365
	v-27.079c0-13.487-5.409-25.729-14.163-34.691H215.745z M143.592,158.764c0-19.129,15.562-34.691,34.691-34.691h0.101
	c19.129,0,34.691,15.562,34.691,34.691v27.079h-69.483V158.764z M140.713,200.839h112.602c2.95,0,5.351,2.4,5.351,5.352
	s-2.4,5.352-5.351,5.352H140.713c-2.95,0-5.352-2.4-5.352-5.352S137.762,200.839,140.713,200.839z M194.374,394.693v76.612h-50.782
	V226.538h69.483v132.909h-13.839c-9.907,0-17.966,8.06-17.966,17.966C181.27,385.633,186.826,392.565,194.374,394.693z
	 M140.713,497.003c-2.95,0-5.352-2.399-5.352-5.351c0-2.951,2.4-5.352,5.352-5.352h55.608c1.279,3.793,3.146,7.318,5.506,10.457
	L140.713,497.003z M291.049,474.455c0,12.232-9.952,22.184-22.184,22.184h-37.31c-12.232,0-22.184-9.952-22.184-22.184V395.38
	h81.678V474.455z M327.894,474.455c0,12.232-9.952,22.184-22.184,22.184h-7.026c4.622-6.197,7.362-13.877,7.362-22.184V395.38
	h21.848V474.455z M338.028,374.443c1.638,0,2.969,1.332,2.969,2.969s-1.333,2.97-2.969,2.97H199.236
	c-1.638,0-2.969-1.333-2.969-2.97s1.333-2.969,2.969-2.969H338.028z M431.453,268.525h-25.169c-4.141,0-7.498,3.356-7.498,7.498
	v27.24c0,3.303,2.161,6.218,5.323,7.175c2.419,0.734,4.109,3.014,4.109,5.544c0,3.194-2.599,5.794-5.794,5.794h-72.779
	c-4.141,0-7.498,3.356-7.498,7.498v27.785h-11.989v-27.785c0-4.142-3.357-7.498-7.498-7.498h-5.66c-3.195,0-5.794-2.599-5.794-5.794
	s2.599-5.794,5.794-5.794h82.299c4.141,0,7.498-3.356,7.498-7.498v-26.806c0-3.748-2.767-6.92-6.48-7.429
	c-2.847-0.39-4.995-2.851-4.995-5.726c0-3.194,2.599-5.794,5.794-5.794h50.34c3.194,0,5.794,2.599,5.794,5.794
	C437.247,265.925,434.648,268.525,431.453,268.525z"/>
<g>
</g>
<g>
</g>
<g>
</g>
<g>
</g>
<g>
</g>
<g>
</g>
<g>
</g>
<g>
</g>
<g>
</g>
<g>
</g>
<g>
</g>
<g>
</g>
<g>
</g>
<g>
</g>
<g>
</g>
</svg>
