<?xml version="1.0" encoding="iso-8859-1"?>
<!-- Generator: Adobe Illustrator 19.0.0, SVG Export Plug-In . SVG Version: 6.00 Build 0)  -->
<svg version="1.1" id="Capa_1" xmlns="http://www.w3.org/2000/svg" xmlns:xlink="http://www.w3.org/1999/xlink" x="0px" y="0px"
	 viewBox="0 0 512 512" style="enable-background:new 0 0 512 512;" xml:space="preserve">
<path style="fill:#37D1C9;" d="M500.519,426.978l-1.609-0.403c-4.572-1.148-8.635-3.66-11.75-7.264l-2.348-2.718
	c-1.962-2.272-5.482-2.272-7.445-0.001l-2.349,2.717c-4.367,5.052-10.676,7.95-17.309,7.95c-6.635,0-12.946-2.9-17.313-7.955
	l-2.349-2.718c-1.963-2.272-5.483-2.272-7.446,0l-2.349,2.718c-4.367,5.056-10.677,7.955-17.313,7.955
	c-9.229,0-17.513-5.512-21.105-14.042l-5.44-12.921l-256.796-0.076l-5.414,12.945c-3.581,8.562-11.872,14.094-21.125,14.094
	c-6.635,0-12.946-2.9-17.313-7.955l-2.349-2.718c-1.963-2.272-5.483-2.272-7.446,0l-2.349,2.718
	c-4.367,5.056-10.677,7.955-17.313,7.955c-6.633,0-12.942-2.899-17.309-7.95l-2.349-2.717c-1.963-2.271-5.483-2.27-7.445,0.001
	l-2.348,2.718c-3.114,3.605-7.177,6.117-11.749,7.264l-1.609,0.403c-2.624,0.658-4.462,3.015-4.462,5.719v59.109
	c0,3.257,2.64,5.896,5.896,5.896h486.167c3.257,0,5.896-2.64,5.896-5.896v-59.109C504.98,429.993,503.142,427.636,500.519,426.978z"
	/>
<path style="fill:#20C4A8;" d="M499.084,455.678H12.918c-3.257,0-5.896-2.64-5.896-5.896v42.024c0,3.257,2.64,5.896,5.896,5.896
	h486.167c3.257,0,5.896-2.64,5.896-5.896v-42.024C504.98,453.038,502.341,455.678,499.084,455.678z"/>
<rect x="244.258" y="51.492" style="fill:#9BB8BC;" width="23.477" height="60.875"/>
<path style="fill:#3A3735;" d="M256.001,63.781c-13.642,0-24.74-11.099-24.74-24.741S242.36,14.3,256.001,14.3
	c13.641,0,24.74,11.099,24.74,24.741S269.643,63.781,256.001,63.781z"/>
<path style="fill:#9BB8BC;" d="M116.02,128.165c1.17-5.99,5.745-10.797,11.653-12.245c42.688-10.463,85.817-15.767,128.189-15.767
	c42.294,0,84.612,5.286,125.779,15.709c5.846,1.48,10.374,6.275,11.534,12.217l21.985,112.532l-321.219,0.567L116.02,128.165z"/>
<g>
	<path style="fill:#7FE4F4;" d="M266.737,211.609v-78.044c0-4.557,3.792-8.2,8.346-8.017l0,0
		c29.959,1.207,60.085,5.244,89.541,11.999h0.001c3.09,0.709,5.473,3.17,6.081,6.281l17.894,91.592L266.737,211.609z"/>
	<path style="fill:#7FE4F4;" d="M138.473,143.998c0.611-3.128,3.016-5.597,6.126-6.291l0,0
		c29.856-6.667,59.964-10.723,89.491-12.059h0.001c4.568-0.207,8.385,3.441,8.385,8.015v78.493L120.503,235.99L138.473,143.998z"/>
</g>
<g>
	<path style="fill:#4DCDDB;" d="M343.721,158.451L343.721,158.451c3.091,0.709,5.473,3.17,6.081,6.281l12.818,65.612l25.978,5.077
		l-17.894-91.592c-0.608-3.111-2.991-5.572-6.081-6.281h-0.001c-29.456-6.755-59.582-10.793-89.541-11.999
		c-4.554-0.184-8.346,3.458-8.346,8.017v13.564C292.539,148.845,318.378,152.639,343.721,158.451z"/>
	<path style="fill:#4DCDDB;" d="M234.091,125.646h-0.001c-29.526,1.336-59.634,5.393-89.491,12.059
		c-3.11,0.694-5.515,3.164-6.126,6.291l-2.343,11.994c25.762-5.117,51.625-8.291,77.056-9.443h0.001
		c4.568-0.207,8.385,3.441,8.385,8.015v61.675l20.903-4.085v-78.493C242.476,129.087,238.66,125.439,234.091,125.646z"/>
</g>
<g>
	<path style="fill:#9BB8BC;" d="M148.026,428.261l-2.407-2.931c-41.243-50.212-66.32-106.612-76.663-172.42l0,0
		c-0.67-4.264,2.151-8.292,6.387-9.121l180.659-35.302l181.029,35.374c3.995,0.78,6.611,4.64,5.856,8.639l-0.113,0.604
		c-13.218,70.093-38.204,126.441-76.389,172.269l-2.405,2.887L148.026,428.261L148.026,428.261z"/>
	<path style="fill:#9BB8BC;" d="M148.026,428.261l-2.407-2.931c-41.243-50.212-66.32-106.612-76.663-172.42l0,0
		c-0.67-4.264,2.151-8.292,6.387-9.121l180.659-35.302l181.07,35.382c3.973,0.776,6.574,4.614,5.824,8.591l-0.121,0.644
		c-13.218,70.093-38.204,126.441-76.389,172.269l-2.405,2.887H148.026z"/>
</g>
<path style="fill:#6F9193;" d="M255.556,208.575v219.686h108.423l2.405-2.887c38.184-45.827,63.171-102.176,76.389-172.269
	l0.123-0.656c0.749-3.972-1.848-7.802-5.814-8.577l-181.082-35.384L255.556,208.575z"/>
<path style="fill:#118C60;" d="M304.173,318.882c-10.625,0-19.27-8.644-19.27-19.27s8.644-19.27,19.27-19.27
	c10.625,0,19.269,8.644,19.269,19.27S314.798,318.882,304.173,318.882z"/>
<g>
	<path style="fill:#16A877;" d="M207.83,318.882c-10.625,0-19.27-8.644-19.27-19.27s8.644-19.27,19.27-19.27
		s19.269,8.644,19.269,19.27S218.455,318.882,207.83,318.882z"/>
	<path style="fill:#16A877;" d="M256.001,381.888L130.963,406.32l-2.989-4.293c-5.147-7.391-10.009-14.965-14.454-22.511
		l-5.755-9.771l148.236-28.967l147.806,28.882l-5.542,9.708c-4.376,7.665-9.15,15.275-14.189,22.618l-2.982,4.346L256.001,381.888z"
		/>
	<path style="fill:#16A877;" d="M71.842,269.075c-1.088-5.461-2.06-10.899-2.887-16.163l0,0c-0.67-4.264,2.152-8.292,6.388-9.121
		l180.659-35.302l180.447,35.26c4.318,0.843,7.144,5.014,6.33,9.336l-0.004,0.02c-0.977,5.179-2.083,10.566-3.288,16.01l-1.692,7.64
		l-181.793-35.523L73.404,276.914L71.842,269.075z"/>
</g>
<g>
	<path style="fill:#0B895C;" d="M255.556,340.866v41.111l0.445-0.087l125.092,24.444l2.982-4.346
		c5.039-7.343,9.813-14.953,14.189-22.618l5.542-9.708l-147.806-28.882L255.556,340.866z"/>
	<path style="fill:#0B895C;" d="M256.001,208.488l-0.445,0.087v32.744l0.445-0.087l181.735,35.512
		c0.503-2.115,0.995-4.243,1.474-6.385l0.276-1.245c0.508-2.292,0.993-4.568,1.462-6.829c0.104-0.502,0.211-1.003,0.314-1.506
		c0.165-0.807,0.325-1.608,0.484-2.409c0.348-1.748,0.694-3.5,1.027-5.265l0.114-0.609c0.754-3.998-1.86-7.854-5.853-8.634
		L256.001,208.488z"/>
</g>
<path d="M404.044,311.194l-15.208-2.972c-4.076-0.799-8.028,1.862-8.825,5.939c-0.796,4.077,1.862,8.029,5.939,8.825l15.208,2.972
	c0.487,0.096,0.973,0.141,1.451,0.141c3.525,0,6.673-2.49,7.375-6.081C410.781,315.94,408.121,311.99,404.044,311.194z"/>
<path d="M369.395,303.753l-24.795-4.844c-4.075-0.803-8.029,1.861-8.825,5.939c-0.796,4.077,1.862,8.029,5.94,8.825l24.795,4.844
	c0.487,0.096,0.972,0.141,1.45,0.141c3.525,0,6.673-2.49,7.375-6.081C376.132,308.5,373.472,304.549,369.395,303.753z"/>
<path d="M304.173,273.322c-14.497,0-26.29,11.794-26.29,26.29c0,14.497,11.794,26.29,26.29,26.29
	c14.497,0,26.289-11.794,26.289-26.29C330.462,285.116,318.668,273.322,304.173,273.322z M304.173,310.859
	c-6.201,0-11.246-5.045-11.246-11.246c0-6.201,5.045-11.246,11.246-11.246c6.201,0,11.245,5.045,11.245,11.246
	C315.418,305.814,310.373,310.859,304.173,310.859z"/>
<path d="M123.166,308.222l-15.208,2.972c-4.077,0.796-6.737,4.747-5.939,8.825c0.702,3.59,3.848,6.081,7.375,6.081
	c0.478,0,0.964-0.045,1.451-0.141l15.208-2.972c4.077-0.796,6.737-4.747,5.939-8.825
	C131.194,310.083,127.247,307.417,123.166,308.222z"/>
<path d="M167.401,298.908l-24.795,4.844c-4.077,0.796-6.737,4.747-5.94,8.825c0.701,3.59,3.848,6.081,7.375,6.081
	c0.478,0,0.964-0.045,1.45-0.141l24.795-4.844c4.077-0.796,6.737-4.747,5.94-8.825C175.43,300.771,171.474,298.107,167.401,298.908z
	"/>
<path d="M207.83,273.322c-14.497,0-26.29,11.794-26.29,26.29c0,14.497,11.794,26.29,26.29,26.29s26.289-11.794,26.289-26.29
	C234.119,285.116,222.326,273.322,207.83,273.322z M207.83,310.859c-6.201,0-11.246-5.045-11.246-11.246
	c0-6.201,5.045-11.246,11.246-11.246s11.245,5.045,11.245,11.246C219.075,305.814,214.03,310.859,207.83,310.859z"/>
<path d="M504.479,420.238c-8.747,0-15.863-7.116-15.863-15.862c0-4.155-3.368-7.522-7.522-7.522c-4.154,0-7.522,3.367-7.522,7.522
	c0,8.747-7.116,15.862-15.863,15.862c-8.747,0-15.863-7.116-15.863-15.862c0-4.155-3.368-7.522-7.522-7.522
	c-4.154,0-7.522,3.367-7.522,7.522c0,8.747-7.116,15.862-15.863,15.862c-8.747,0-15.863-7.116-15.863-15.862v-6.233
	c27.214-42.192,45.627-92.043,55.947-151.19c0.704-4.034-1.949-7.89-5.968-8.674l-24.12-4.713l-20.871-106.834
	c-1.678-8.592-8.233-15.531-16.701-17.676c-35.78-9.061-72.044-14.241-108.605-15.571V64.649
	c7.876-5.786,13.001-15.107,13.001-25.608c0-17.513-14.248-31.761-31.76-31.761s-31.76,14.248-31.76,31.761
	c0,10.5,5.125,19.822,13.001,25.608v28.823c-36.908,1.314-74.05,6.514-111.24,15.629c-8.557,2.098-15.181,9.053-16.874,17.717
	L88.165,234.131l-21.221,4.147c-3.922,0.766-6.559,4.464-6.008,8.421c7.892,56.596,26.31,106.534,55.987,151.551v6.125
	c0,8.747-7.116,15.862-15.863,15.862s-15.863-7.116-15.863-15.862c0-4.155-3.368-7.522-7.522-7.522
	c-4.154,0-7.522,3.367-7.522,7.522c0,8.747-7.116,15.862-15.863,15.862s-15.863-7.116-15.863-15.862
	c0-4.155-3.368-7.522-7.522-7.522s-7.522,3.367-7.522,7.522c0,8.747-7.116,15.862-15.863,15.862c-4.154,0-7.522,3.367-7.522,7.522
	v69.44c0,4.155,3.368,7.522,7.522,7.522h496.956c4.154,0,7.522-3.367,7.522-7.522v-69.44
	C512.001,423.606,508.633,420.238,504.479,420.238z M398.767,361.522l-135.244-26.428v-85.24l164.649,32.174
	C420.77,311.056,411.006,337.467,398.767,361.522z M263.524,375.183v-24.76l127.773,24.967c-4.339,7.599-8.95,14.945-13.832,22.057
	L263.524,375.183z M367.711,410.869c-2.439,3.172-4.931,6.297-7.491,9.37h-96.698v-29.727L367.711,410.869z M434.889,251.619
	c-1.007,5.338-2.091,10.585-3.237,15.761l-168.129-32.852v-16.394l2.174,0.425c0.02,0.004,0.041,0.008,0.061,0.012L434.889,251.619z
	 M256.001,22.324c9.217,0,16.716,7.5,16.716,16.717c0,8.544-6.447,15.601-14.73,16.588h-3.973
	c-8.283-0.987-14.73-8.044-14.73-16.588C239.284,29.824,246.783,22.324,256.001,22.324z M259.716,70.672v22.484
	c-2.475-0.018-4.953-0.019-7.43-0.002V70.672h0.931c0.919,0.08,1.845,0.129,2.784,0.129c0.939,0,1.865-0.049,2.784-0.129H259.716z
	 M123.895,129.704c0.573-2.933,2.806-5.285,5.69-5.992c40.056-9.817,80.047-14.973,119.725-15.484h13.292
	c39.444,0.526,78.55,5.659,117.07,15.412c2.851,0.722,5.061,3.068,5.63,5.977l19.7,100.835l-10.624-2.076l-5.235-26.797
	c-0.896-4.584-5.802-6.986-10.091-5.134c-0.082,0.035-0.164,0.07-0.247,0.104c-3.195,1.322-5.064,4.657-4.401,8.05l4.037,20.662
	l-103.678-20.258v-71.436c29.492,1.188,59.055,5.149,88.071,11.804l2.668,13.654c0.641,3.279,3.419,5.677,6.751,5.911
	c0.084,0.006,0.168,0.012,0.253,0.018c4.84,0.365,8.714-3.947,7.783-8.71l-3.62-18.53c-0.562-2.876-2.742-5.179-5.591-5.863
	c-34.078-8.176-68.953-12.742-103.654-13.571c-2.476-0.052-4.805,1.084-6.288,3.126c-0.972,1.337-1.414,2.989-1.414,4.643v76.015
	l-2.173-0.424c-0.021-0.004-0.041-0.008-0.062-0.012l-0.036-0.007c-0.074-0.014-0.148-0.02-0.223-0.032
	c-0.16-0.026-0.321-0.054-0.484-0.07c-0.172-0.017-0.346-0.021-0.52-0.026c-0.072-0.002-0.143-0.011-0.217-0.011
	c-0.073,0-0.144,0.009-0.218,0.011c-0.174,0.005-0.346,0.009-0.519,0.026c-0.164,0.016-0.324,0.044-0.484,0.07
	c-0.074,0.012-0.148,0.018-0.222,0.032l-0.036,0.007c-0.021,0.004-0.041,0.008-0.062,0.012l-4.963,0.97v-76.603
	c0-1.081-0.18-2.168-0.621-3.156c-1.313-2.942-4.137-4.569-7.12-4.512c-34.14,0.99-68.994,5.577-103.59,13.636
	c-2.873,0.669-5.079,2.981-5.645,5.876l-17.796,91.092l-10.624,2.076L123.895,129.704z M234.452,133.661v71.885l-103.79,20.281
	l15.686-80.291C175.784,138.963,205.364,134.977,234.452,133.661z M76.881,251.665l171.599-33.531v16.394L79.711,267.506
	C78.67,262.286,77.72,257.009,76.881,251.665z M112.72,361.624c-13.093-24.845-22.978-51.227-29.779-79.421l165.539-32.347v85.24
	L112.72,361.624z M134.549,397.444c-5.015-7.197-9.716-14.53-14.115-22l128.046-25.021v24.76L134.549,397.444z M248.479,390.51
	v29.727h-96.661c-2.548-3.102-5.033-6.23-7.456-9.384L248.479,390.51z M496.957,489.678H15.045v-55.321
	c6.262-1.572,11.772-5.06,15.868-9.801c5.672,6.562,14.045,10.726,23.38,10.726c9.336,0,17.713-4.167,23.385-10.732
	c5.672,6.565,14.048,10.732,23.385,10.732c12.833,0,23.86-7.863,28.527-19.022c4.13,5.515,8.434,10.958,12.927,16.327
	c1.429,1.708,3.541,2.695,5.768,2.695h215.434c2.202,0,4.296-0.966,5.725-2.643c4.511-5.292,8.836-10.733,12.999-16.31
	c4.683,11.123,15.693,18.952,28.5,18.952c9.336,0,17.713-4.167,23.385-10.732c5.672,6.565,14.048,10.732,23.385,10.732
	c9.333,0,17.708-4.164,23.38-10.726c4.096,4.742,9.605,8.23,15.868,9.801v55.322H496.957z"/>
<g>
</g>
<g>
</g>
<g>
</g>
<g>
</g>
<g>
</g>
<g>
</g>
<g>
</g>
<g>
</g>
<g>
</g>
<g>
</g>
<g>
</g>
<g>
</g>
<g>
</g>
<g>
</g>
<g>
</g>
</svg>
