<?xml version="1.0" encoding="iso-8859-1"?>
<!-- Generator: Adobe Illustrator 19.0.0, SVG Export Plug-In . SVG Version: 6.00 Build 0)  -->
<svg version="1.1" id="Capa_1" xmlns="http://www.w3.org/2000/svg" xmlns:xlink="http://www.w3.org/1999/xlink" x="0px" y="0px"
	 viewBox="0 0 512 512" style="enable-background:new 0 0 512 512;" xml:space="preserve">
<path style="fill:#9BB8BC;" d="M426.106,398.6v-26.043h27.137l21.822-21.823c1.793-1.793,2.781-4.178,2.781-6.713V240.013
	c0-1.824-1.483-3.308-3.308-3.308h-48.432v-26.043h48.432c16.184,0,29.351,13.168,29.351,29.351v113.334
	c0,3.478-1.355,6.747-3.814,9.207l-32.23,32.231c-2.464,2.461-5.734,3.815-9.209,3.815L426.106,398.6L426.106,398.6z"/>
<path style="fill:#FFC022;" d="M320.144,425.975c-11.027,0-19.998-8.972-19.998-19.999v-169.24h138.981v169.241
	c0,11.027-8.972,19.999-19.999,19.999h-98.985V425.975z"/>
<path style="fill:#FF9100;" d="M369.637,405.977V236.736h-69.49v169.241c0,11.027,8.971,19.999,19.998,19.999h69.49
	C378.608,425.975,369.637,417.003,369.637,405.977z"/>
<path style="fill:#F0EBD2;" d="M349.437,296.738c-7.823,0-14.186-6.364-14.186-14.186v-44.814h-35.105v-31.312h138.981v31.312
	h-75.503v44.814C363.624,290.373,357.261,296.738,349.437,296.738z"/>
<g>
	<path style="fill:#D8CFA9;" d="M351.322,282.545v-33.346c0-6.333-5.134-11.468-11.468-11.468h-4.628v44.429
		c0,7.345,5.426,13.764,12.734,14.498c3.54,0.356,6.845-0.606,9.501-2.444C353.757,291.652,351.322,287.38,351.322,282.545z"/>
	<rect x="300.143" y="206.429" style="fill:#D8CFA9;" width="16.096" height="31.311"/>
</g>
<path style="fill:#F0EBD2;" d="M300.146,207.427v-25.435c0-10.664,8.675-19.339,19.339-19.339c3.34,0,6.611,0.868,9.519,2.521
	c-0.055-0.684-0.081-1.352-0.081-2.02c0-14.372,11.691-26.063,26.063-26.063c10.406,0,19.675,6.074,23.847,15.548
	c3.884-4.583,9.493-7.197,15.511-7.197c10.413,0,18.996,7.666,20.211,17.93c1.702-0.48,3.46-0.721,5.236-0.721
	c10.664,0,19.339,8.675,19.339,19.339v25.435H300.146V207.427z"/>
<path style="fill:#D8CFA9;" d="M361.844,162.655c3.34,0,6.611,0.868,9.519,2.521c-0.055-0.684-0.081-1.352-0.081-2.02
	c0-5.657,1.818-10.896,4.892-15.173c-4.815-6.756-12.612-10.89-21.189-10.89c-14.372,0-26.063,11.691-26.063,26.063
	c0,0.668,0.026,1.336,0.081,2.02c-2.908-1.652-6.178-2.521-9.519-2.521c-10.664,0-19.339,8.675-19.339,19.339v25.435h42.36v-25.435
	C342.506,171.33,351.181,162.655,361.844,162.655z"/>
<path style="fill:#9BB8BC;" d="M105.802,149.127H31.525c-6.778,0-12.272,5.495-12.272,12.272v17.696v12.746h98.822v-12.04V161.4
	C118.075,154.621,112.58,149.127,105.802,149.127z"/>
<path style="fill:#7EA2A5;" d="M77.61,161.4c0-6.778,5.495-12.272,12.272-12.272H31.525c-6.778,0-12.272,5.495-12.272,12.272v17.696
	v12.746h58.359v-12.746L77.61,161.4L77.61,161.4z"/>
<path style="fill:#9BB8BC;" d="M21.817,425.975c-8.45,0-15.323-6.873-15.323-15.323V206.926c0-18.995,15.454-34.45,34.45-34.45
	h54.402c18.995,0,34.45,15.454,34.45,34.45v203.727c0,8.45-6.874,15.323-15.324,15.323H21.817V425.975z"/>
<path style="fill:#7EA2A5;" d="M64.853,410.653V206.926c0-18.331,14.394-33.36,32.471-34.388c-0.655-0.037-1.314-0.061-1.978-0.061
	H40.943c-18.995,0-34.45,15.454-34.45,34.45v203.727c0,8.45,6.873,15.323,15.323,15.323h58.359
	C71.726,425.975,64.853,419.102,64.853,410.653z"/>
<rect x="6.494" y="206.929" style="fill:#FFC022;" width="123.303" height="180.577"/>
<rect x="6.494" y="206.929" style="fill:#FF9100;" width="58.356" height="180.577"/>
<path style="fill:#9BB8BC;" d="M229.699,85.022h-74.277c-6.778,0-12.272,5.495-12.272,12.272v17.696v12.746h98.822v-12.04V97.294
	C241.971,90.516,236.477,85.022,229.699,85.022z"/>
<path style="fill:#7EA2A5;" d="M201.508,97.294c0-6.778,5.495-12.272,12.272-12.272h-58.359c-6.778,0-12.272,5.495-12.272,12.272
	v17.696v12.746h58.359V114.99V97.294z"/>
<path style="fill:#9BB8BC;" d="M145.714,426.589c-8.45,0-15.323-6.873-15.323-15.323V145.437c0-18.995,15.454-34.45,34.45-34.45
	h54.402c18.995,0,34.45,15.454,34.45,34.45v265.829c0,8.45-6.874,15.323-15.324,15.323H145.714z"/>
<path style="fill:#7EA2A5;" d="M188.749,411.266V145.437c0-18.331,14.394-33.36,32.471-34.388c-0.655-0.037-1.314-0.061-1.978-0.061
	H164.84c-18.995,0-34.45,15.454-34.45,34.45v265.829c0,8.45,6.873,15.323,15.323,15.323h58.359
	C195.623,426.589,188.749,419.715,188.749,411.266z"/>
<rect x="130.394" y="145.438" style="fill:#FFC022;" width="123.303" height="242.679"/>
<rect x="130.394" y="145.438" style="fill:#FF9100;" width="58.356" height="242.679"/>
<path d="M245.679,268.606v111.299h-15.967V286.49c0-4.114-3.17-7.701-7.282-7.824c-4.254-0.127-7.743,3.283-7.743,7.509v93.729
	h-15.002c-4.114,0-7.701,3.17-7.824,7.282c-0.127,4.254,3.283,7.743,7.509,7.743h15.316v15.723c0,4.037-3.272,7.31-7.31,7.31
	h-61.662c-4.038,0-7.311-3.273-7.311-7.311v-15.722h32.564c4.114,0,7.701-3.17,7.824-7.282c0.127-4.254-3.283-7.743-7.509-7.743
	h-32.879V151.335h22.331c4.114,0,7.701-3.17,7.824-7.282c0.127-4.254-3.283-7.743-7.509-7.743h-21.552
	c3.245-10.928,13.375-18.924,25.343-18.924h23.41c11.968,0,22.097,7.996,25.343,18.924h-29.904c-4.114,0-7.701,3.17-7.824,7.282
	c-0.127,4.254,3.283,7.743,7.509,7.743h31.312v38.108c0,4.114,3.17,7.701,7.282,7.824c4.254,0.127,7.743-3.283,7.743-7.509v-38.422
	h15.967v68.389c0,4.149,3.364,7.512,7.512,7.512l0,0c4.149,0,7.512-3.364,7.512-7.512v-75.902c0-11.203-4.474-21.377-11.72-28.845
	V91.473c0-6.882-5.579-12.46-12.46-12.46h-87.922c-6.882,0-12.46,5.579-12.46,12.46v22.472
	c-7.856,7.549-12.759,18.148-12.759,29.878v3.667c-2.253-3.243-5.998-5.374-10.237-5.374H25.22c-6.882,0-12.46,5.579-12.46,12.46
	v22.472C4.904,184.598,0,195.197,0,206.926v203.726c0,12.335,10,22.336,22.336,22.336h92.654c5.948,0,11.356-2.342,15.362-6.145
	c4.007,3.804,9.414,6.145,15.363,6.145h92.654c12.335,0,22.335-9.999,22.335-22.335V268.606c0-4.149-3.364-7.512-7.512-7.512l0,0
	C249.042,261.093,245.679,264.457,245.679,268.606z M244.586,136.31h-15.569c-1.304-7.091-4.406-13.558-8.832-18.9
	C231.739,117.818,241.426,125.671,244.586,136.31z M151.163,94.037h82.795v11.032c-4.577-1.744-9.535-2.707-14.715-2.707h-54.402
	c-4.792,0-9.391,0.826-13.676,2.329L151.163,94.037L151.163,94.037z M121.206,199.414h-15.569c-1.304-7.091-4.406-13.558-8.832-18.9
	C108.359,180.922,118.046,188.775,121.206,199.414z M27.784,157.141h82.795v11.032c-4.577-1.744-9.535-2.707-14.715-2.707H41.461
	c-4.792,0-9.391,0.826-13.676,2.329v-10.654H27.784z M122.3,410.653c0,4.031-3.278,7.31-7.31,7.31h-9.892
	c0.796-2.292,1.235-4.75,1.235-7.31V394.93H122.3C122.3,394.93,122.3,410.653,122.3,410.653z M122.3,379.905h-15.967v-93.729
	c0-4.15-3.363-7.512-7.512-7.512c-4.15,0-7.512,3.363-7.512,7.512v93.729H75.991c-4.15,0-7.512,3.363-7.512,7.512
	s3.363,7.512,7.512,7.512h15.316v15.723c0,4.031-3.278,7.31-7.31,7.31H22.336c-4.031,0-7.311-3.278-7.311-7.31v-15.723h32.879
	c4.15,0,7.512-3.363,7.512-7.512s-3.363-7.512-7.512-7.512H15.025V214.439H37.67c4.15,0,7.512-3.363,7.512-7.512
	s-3.363-7.512-7.512-7.512H16.118c3.245-10.928,13.375-18.924,25.343-18.924h23.41c11.968,0,22.097,7.996,25.343,18.924h-30.22
	c-4.15,0-7.512,3.363-7.512,7.512s3.363,7.512,7.512,7.512h31.312v38.422c0,4.15,3.363,7.512,7.512,7.512s7.512-3.363,7.512-7.512
	v-38.422h15.967L122.3,379.905L122.3,379.905z M245.679,410.653c0,4.031-3.278,7.31-7.31,7.31h-9.892
	c0.796-2.292,1.235-4.75,1.235-7.31V394.93h15.967L245.679,410.653L245.679,410.653z"/>
<path d="M369.735,312.702c-4.15,0-7.512,3.363-7.512,7.512v78.731c0,4.15,3.363,7.512,7.512,7.512c4.15,0,7.512-3.363,7.512-7.512
	v-78.731C377.248,316.066,373.885,312.702,369.735,312.702z"/>
<path d="M334.889,312.702c-4.15,0-7.512,3.363-7.512,7.512v78.731c0,4.15,3.363,7.512,7.512,7.512c4.15,0,7.512-3.363,7.512-7.512
	v-78.731C342.401,316.066,339.038,312.702,334.889,312.702z"/>
<path d="M404.583,312.702c-4.15,0-7.512,3.363-7.512,7.512v78.731c0,4.15,3.362,7.512,7.512,7.512c4.15,0,7.512-3.363,7.512-7.512
	v-78.731C412.095,316.066,408.732,312.702,404.583,312.702z"/>
<path d="M475.637,203.65h-29.4v-21.658c0-14.53-11.82-26.35-26.35-26.35c-0.002,0-0.003,0-0.005,0
	c-4.025-10.2-13.897-17.21-25.441-17.21c-4.936,0-9.664,1.305-13.788,3.719c-6.163-7.536-15.443-12.071-25.571-12.071
	c-15.725,0-28.921,11.032-32.259,25.762c-1.071-0.133-2.153-0.2-3.24-0.2c-14.53,0-26.35,11.82-26.35,26.35v24.934v30.311v168.74
	c0,14.893,12.117,27.01,27.009,27.01h98.986c14.892,0,27.009-12.117,27.009-27.01v-0.365h13.498c5.35,0,10.379-2.083,14.166-5.867
	l32.233-32.234c3.782-3.784,5.866-8.814,5.866-14.164V240.013C512,219.963,495.688,203.65,475.637,203.65z M363.223,229.725
	c-4.15,0-7.512,3.363-7.512,7.512v45.314c0,3.404-2.771,6.173-6.174,6.173s-6.173-2.77-6.173-6.173v-45.314
	c0-4.15-3.363-7.512-7.512-7.512h-18.646h-8.947v-15.286h122.955v15.286h-19.592H363.223z M446.238,243.716h25.696v100.306
	c0,0.663-0.258,1.287-0.726,1.755l-19.77,19.769h-5.2L446.238,243.716L446.238,243.716z M319.584,170.668
	c0.88,0,1.753,0.109,2.602,0.313v12.879c0,4.15,3.363,7.512,7.512,7.512c4.15,0,7.512-3.363,7.512-7.512v-17.74
	c0-0.281-0.018-0.559-0.048-0.832c-0.001-0.01,0-0.02-0.001-0.03c-0.085-0.735-0.126-1.423-0.126-2.101
	c0-9.952,8.097-18.05,18.05-18.05c6.953,0,13.174,3.918,16.198,10.088v8.835c0,4.15,3.363,7.512,7.512,7.512
	c4.15,0,7.512-3.363,7.512-7.512v-7.469c2.239-1.982,5.096-3.101,8.136-3.101c6.364,0,11.594,4.725,12.263,11.021v19.38
	c0,4.15,3.363,7.512,7.512,7.512c4.15,0,7.512-3.363,7.512-7.512V170.83c5.37,0.884,9.484,5.546,9.484,11.162v17.422H308.258
	v-17.422C308.258,175.748,313.339,170.668,319.584,170.668z M431.213,405.977c0,6.609-5.376,11.986-11.985,11.986h-98.986
	c-6.609,0-11.985-5.377-11.985-11.986V244.75h8.947h11.133v37.802c0,11.688,9.51,21.198,21.199,21.198
	c11.688,0,21.198-9.51,21.198-21.198V244.75h40.886h19.592v128.31V398.1V405.977z M496.975,353.348c0,1.337-0.522,2.595-1.467,3.541
	l-32.23,32.231c-0.948,0.947-2.206,1.468-3.543,1.468h-13.498v-10.016h8.312c1.992,0,3.902-0.791,5.312-2.2l21.973-21.972
	c3.305-3.307,5.125-7.703,5.125-12.377v-104.01c0-6.242-5.078-11.322-11.322-11.322h-29.4v-10.016h29.4
	c11.765,0,21.338,9.573,21.338,21.338L496.975,353.348L496.975,353.348z"/>
<g>
</g>
<g>
</g>
<g>
</g>
<g>
</g>
<g>
</g>
<g>
</g>
<g>
</g>
<g>
</g>
<g>
</g>
<g>
</g>
<g>
</g>
<g>
</g>
<g>
</g>
<g>
</g>
<g>
</g>
</svg>
