<?xml version="1.0" encoding="iso-8859-1"?>
<!-- Generator: Adobe Illustrator 19.0.0, SVG Export Plug-In . SVG Version: 6.00 Build 0)  -->
<svg version="1.1" id="Capa_1" xmlns="http://www.w3.org/2000/svg" xmlns:xlink="http://www.w3.org/1999/xlink" x="0px" y="0px"
	 viewBox="0 0 512 512" style="enable-background:new 0 0 512 512;" xml:space="preserve">
<g>
	<path style="fill:#FFC022;" d="M451.384,502.897c-24.883,0-45.128-20.244-45.128-45.127c0-24.883,20.245-45.128,45.128-45.128
		s45.127,20.245,45.127,45.128C496.511,482.653,476.268,502.897,451.384,502.897z"/>
	<path style="fill:#FFC022;" d="M164.685,455.798c-24.883,0-45.128-20.244-45.128-45.127c0-24.883,20.245-45.128,45.128-45.128
		s45.127,20.245,45.127,45.128C209.812,435.554,189.569,455.798,164.685,455.798z"/>
	<path style="fill:#FFC022;" d="M58.521,97.263c-24.883,0-45.128-20.244-45.128-45.127S33.637,7.008,58.521,7.008
		s45.127,20.245,45.127,45.128S83.404,97.263,58.521,97.263z"/>
</g>
<path style="fill:#0C4156;" d="M408.382,196.907h-60.843v0.156l-236.44,0.845c-13.595,0-24.866-11.054-25.123-24.643
	c-0.015-0.768,0.01-1.53,0.067-2.288l-0.071-0.128v204.965c0,11.871,9.658,21.53,21.53,21.53h300.88
	c8.919,0,16.175-7.256,16.175-16.175v-50.665v-50.398v-67.023C424.559,204.163,417.303,196.907,408.382,196.907z"/>
<path style="fill:#FF9100;" d="M454.344,266.61c-0.19,3.16-1.466,6.11-3.679,8.427c-2.552,2.676-5.997,4.151-9.699,4.151
	l-17.412-0.083h-68.422c-7.572,0-13.731,6.16-13.731,13.731v24.937c0,7.572,6.16,13.731,13.731,13.731h85.833
	c7.392,0,13.406-6.014,13.406-13.406l-0.015-52.968C454.348,265.132,454.353,266.61,454.344,266.61z"/>
<path style="fill:#C66F06;" d="M424.559,279.111v-26.734h16.044c7.374,0,13.416,5.603,13.755,12.755
	c0.174,3.712-1.137,7.229-3.692,9.906c-2.552,2.676-5.997,4.151-9.699,4.151L424.559,279.111z"/>
<path style="fill:#C7EAEA;" d="M111.655,147.653c-6.891,0-13.631,2.842-18.494,7.797c-5.752,5.864-8.279,13.883-6.752,21.999
	c2.257,11.984,13.069,20.459,25.264,20.459l279.354-1.001v-35.027c0-7.738-6.269-14.012-14.008-14.019L111.655,147.653z"/>
<path style="fill:#599E46;" d="M267.077,197.909V95.201h71.581c4.897,0,8.88,3.983,8.88,8.881v92.98L267.077,197.909z"/>
<polygon style="fill:#4E8E39;" points="295.539,95.201 267.077,95.201 267.077,197.909 295.539,197.609 "/>
<path style="fill:#518440;" d="M267.077,197.909v-74.676h48.496c2.172,0,3.933,1.761,3.933,3.933v70.191L267.077,197.909z"/>
<path style="fill:#599E46;" d="M155.726,197.748V52.017c0-5.11,4.158-9.268,9.268-9.268h93.815c5.11,0,9.268,4.158,9.268,9.268
	V197.91L155.726,197.748z"/>
<path style="fill:#4E8E39;" d="M210.901,197.748V52.017c0-5.11,4.158-9.268,9.268-9.268h-55.174c-5.11,0-9.268,4.158-9.268,9.268
	v145.732l112.351,0.16v-0.079L210.901,197.748z"/>
<path style="fill:#518440;" d="M183.758,197.91V75.815c0-2.78,2.255-5.035,5.035-5.035h46.219c2.78,0,5.035,2.255,5.035,5.035
	v122.053L183.758,197.91z"/>
<circle cx="371.027" cy="304.523" r="9.84"/>
<path d="M461.358,265.724c-0.514-10.899-9.63-19.437-20.756-19.437h-9.037v-33.203c0-12.783-10.401-23.183-23.183-23.183h-10.398
	v-26.254c0-12.682-10.319-23.001-23.001-23.001h-20.438v-36.564c0-8.761-7.127-15.889-15.888-15.889h-63.572V52.017
	c0-8.975-7.301-16.276-16.276-16.276h-93.814c-8.975,0-16.276,7.301-16.276,16.276v88.63h-37.066
	c-8.761,0-17.324,3.608-23.495,9.897c-5.894,6.007-9.13,13.808-9.185,22.043c-0.002,0.065-0.01,0.129-0.01,0.195v203.034
	c0,15.736,12.802,28.538,28.538,28.538h4.75c-0.073,1.145-0.114,2.292-0.114,3.439c0,29.903,24.328,54.231,54.231,54.231
	s54.231-24.328,54.231-54.231c0-1.147-0.041-2.294-0.114-3.439h187.896c12.783,0,23.183-10.401,23.183-23.183v-42.656h9.403
	c11.256,0,20.414-9.157,20.414-20.414v-51.236C461.383,266.487,461.376,266.106,461.358,265.724z M431.565,261.304h9.037
	c3.04,0,5.621,2.3,5.755,5.126c0.07,1.5-0.457,2.918-1.485,3.995c-1.028,1.078-2.416,1.673-3.905,1.673h-9.403V261.304z
	 M354.545,155.663h20.438c4.402,0,7.984,3.581,7.984,7.984v26.254h-28.422V155.663z M275.086,103.21h63.572
	c0.48,0,0.871,0.391,0.871,0.872v85.819h-13.015v-66.167c0-4.148-3.361-7.508-7.508-7.508h-43.919V103.21z M275.086,131.242h36.411
	v58.659h-36.411V131.242z M163.736,52.017c0-0.696,0.564-1.259,1.259-1.259h93.815c0.696,0,1.259,0.564,1.259,1.259v137.884h-13.015
	v-29.966c0-4.505-3.988-7.967-8.449-7.333l-0.203,0.029c-3.652,0.519-6.365,3.645-6.365,7.333v29.937h-40.27V78.789h40.27v33.593
	c0,3.793,2.861,6.989,6.635,7.371c0.063,0.006,0.126,0.013,0.189,0.019c4.378,0.456,8.192-2.969,8.192-7.371V71.28
	c0-4.147-3.362-7.508-7.508-7.508h-55.287c-4.147,0-7.508,3.362-7.508,7.508V189.9h-13.015L163.736,52.017L163.736,52.017z
	 M98.877,161.06c3.365-3.43,8.022-5.397,12.776-5.397h37.066V189.9h-37.621c-9.261,0-16.94-7.529-17.115-16.786
	C93.898,168.645,95.636,164.364,98.877,161.06z M166.368,447.006c-21.623,0-39.214-17.591-39.214-39.214
	c0-1.147,0.056-2.295,0.157-3.439h20.934c-0.016,2.121,0.351,4.584,1.693,7.267c1.272,2.543,3.871,4.151,6.716,4.151h14.516v4.92
	c-1.715,0.02-3.564-0.089-5.449-0.19c-3.216-0.172-6.54-0.35-9.949-0.046c-4.13,0.37-7.178,4.02-6.807,8.15
	c0.37,4.131,4.014,7.182,8.15,6.807c0.917-0.082,1.896-0.099,2.903-0.094c0.485,3.679,3.625,6.52,7.436,6.52
	c3.732,0,6.819-2.724,7.401-6.291c1.951-0.167,3.924-0.482,5.887-1.042c3.224-0.922,5.445-3.867,5.445-7.22v-19.021
	c0-1.434-0.409-2.769-1.106-3.908h20.346c0.101,1.143,0.157,2.291,0.157,3.439C205.582,429.415,187.991,447.006,166.368,447.006z
	 M408.381,389.336h-300.88c-7.272,0-13.205-5.775-13.493-12.977h144.466c4.148,0,7.508-3.361,7.508-7.508
	c0-4.148-3.361-7.508-7.508-7.508H93.98v-125.13h247.005c4.148,0,7.508-3.361,7.508-7.508s-3.361-7.508-7.508-7.508H93.98v-21.288
	c4.975,3.165,10.85,5.009,17.118,5.009h297.283c4.503,0,8.166,3.663,8.166,8.166v8.003h-51.609c-4.148,0-7.508,3.361-7.508,7.508
	s3.361,7.508,7.508,7.508h51.609v35.994h-61.414c-11.436,0-20.739,9.303-20.739,20.739v24.937c0,11.436,9.303,20.739,20.739,20.739
	h61.414v22.83H264.262c-4.148,0-7.508,3.361-7.508,7.508c0,4.148,3.361,7.508,7.508,7.508h152.285v4.81
	C416.548,385.673,412.885,389.336,408.381,389.336 M446.363,318.1c0,2.976-2.421,5.397-5.397,5.397h-85.833
	c-3.155,0-5.722-2.567-5.722-5.722v-24.937c0-3.155,2.567-5.722,5.722-5.722h85.833c1.834,0,3.65-0.251,5.397-0.733V318.1z"/>
<path d="M110.656,52.136C110.656,23.387,87.268,0,58.521,0C29.773,0,6.385,23.387,6.385,52.136
	c0,28.747,23.387,52.135,52.136,52.135C87.268,104.27,110.656,80.883,110.656,52.136z M58.521,89.253
	c-20.467,0-37.119-16.651-37.119-37.118s16.652-37.119,37.119-37.119s37.118,16.652,37.118,37.119S78.988,89.253,58.521,89.253z"/>
<path d="M451.384,403.538c-29.903,0-54.231,24.328-54.231,54.231c0,29.903,24.328,54.231,54.231,54.231s54.231-24.328,54.231-54.231
	C505.615,427.866,481.286,403.538,451.384,403.538z M451.384,496.983c-21.623,0-39.214-17.591-39.214-39.214
	c0-21.623,17.591-39.214,39.214-39.214s39.214,17.591,39.214,39.214C490.598,479.392,473.007,496.983,451.384,496.983z"/>
<path d="M70.706,41.664c4.148,0,7.508-3.361,7.508-7.508s-3.361-7.508-7.508-7.508h-3.502v-1.168c0-4.148-3.361-7.508-7.508-7.508
	s-7.508,3.361-7.508,7.508v1.168h-3.503c-4.148,0-7.508,3.361-7.508,7.508v19.602c0,4.148,3.361,7.508,7.508,7.508h14.513v4.837
	H48.684c-4.148,0-7.508,3.361-7.508,7.508c0,4.148,3.361,7.508,7.508,7.508h3.594c0.539,3.618,3.649,6.396,7.417,6.396
	s6.879-2.778,7.417-6.396h3.593c4.148,0,7.508-3.361,7.508-7.508V53.757c0-4.148-3.361-7.508-7.508-7.508H56.192v-4.585
	C56.192,41.664,70.706,41.664,70.706,41.664z"/>
<path d="M463.479,445.962c4.148,0,7.508-3.361,7.508-7.508c0-4.148-3.361-7.508-7.508-7.508h-3.503v-1.168
	c0-4.148-3.361-7.508-7.508-7.508s-7.508,3.361-7.508,7.508v1.168h-3.502c-4.148,0-7.508,3.361-7.508,7.508v19.602
	c0,4.148,3.361,7.508,7.508,7.508h14.513v4.837h-14.513c-4.148,0-7.508,3.361-7.508,7.508s3.361,7.508,7.508,7.508h3.593
	c0.539,3.618,3.649,6.396,7.417,6.396s6.879-2.778,7.417-6.396h3.594c4.148,0,7.508-3.361,7.508-7.508v-19.854
	c0-4.148-3.361-7.508-7.508-7.508h-14.513v-4.585L463.479,445.962L463.479,445.962z"/>
<g>
</g>
<g>
</g>
<g>
</g>
<g>
</g>
<g>
</g>
<g>
</g>
<g>
</g>
<g>
</g>
<g>
</g>
<g>
</g>
<g>
</g>
<g>
</g>
<g>
</g>
<g>
</g>
<g>
</g>
</svg>
