<?xml version="1.0" encoding="iso-8859-1"?>
<!-- Generator: Adobe Illustrator 19.0.0, SVG Export Plug-In . SVG Version: 6.00 Build 0)  -->
<svg version="1.1" id="Capa_1" xmlns="http://www.w3.org/2000/svg" xmlns:xlink="http://www.w3.org/1999/xlink" x="0px" y="0px"
	 viewBox="0 0 511.999 511.999" style="enable-background:new 0 0 511.999 511.999;" xml:space="preserve">
<g>
	<path style="fill:#9BB8BC;" d="M174.594,88.381V54.269c0-13.561,11.033-24.594,24.594-24.594h35.932v26.002h-29.126
		c-2.977,0-5.398,2.422-5.398,5.398v27.305H174.594z"/>
	<rect x="173.171" y="101.356" style="fill:#9BB8BC;" width="27.848" height="69.754"/>
</g>
<g>
	<path style="fill:#6D6864;" d="M159.486,109.251V90.922c0-1.956,1.585-3.541,3.541-3.541h48.136c1.956,0,3.541,1.585,3.541,3.541
		v18.329c0,1.956-1.585,3.541-3.541,3.541h-48.136C161.071,112.792,159.486,111.207,159.486,109.251z"/>
	<path style="fill:#6D6864;" d="M155.678,186.594v-16.991c0-5.477,4.455-9.933,9.932-9.933h43.971c5.476,0,9.932,4.455,9.932,9.933
		v16.991H155.678z"/>
</g>
<path style="fill:#5B514A;" d="M193.292,159.67h-27.683c-5.476,0-9.932,4.455-9.932,9.933v16.991h27.683v-16.991
	C183.361,164.125,187.816,159.67,193.292,159.67z"/>
<path style="fill:#ACBFBE;" d="M56.714,293.551c-27.225,0-49.374-22.148-49.374-49.374c0-27.226,22.149-49.375,49.374-49.375
	s49.374,22.149,49.374,49.375C106.088,271.403,83.939,293.551,56.714,293.551z"/>
<path style="fill:#8EADAB;" d="M57.983,244.177c0-17.974,9.658-33.731,24.053-42.368c-7.409-4.445-16.07-7.008-25.322-7.008
	c-27.225,0-49.374,22.149-49.374,49.375s22.149,49.374,49.374,49.374c9.251,0,17.912-2.563,25.322-7.007
	C67.64,277.907,57.983,262.151,57.983,244.177z"/>
<path style="fill:#C7EAEA;" d="M56.714,276.753c-17.962,0-32.576-14.613-32.576-32.576c0-17.963,14.614-32.576,32.576-32.576
	s32.576,14.614,32.576,32.576C89.29,262.139,74.677,276.753,56.714,276.753z"/>
<path style="fill:#9BB8BC;" d="M89.311,428.41c-25.641-3.254-44.975-25.212-44.975-51.075V291.72l8.621,0.67
	c1.408,0.109,2.637,0.162,3.758,0.162c1.587,0,3.213-0.081,4.833-0.242l8.791-0.872v85.897c0,12.519,8.955,23.091,21.291,25.141
	l6.689,1.11v25.968L89.311,428.41z"/>
<path style="fill:#7EA5A8;" d="M56.714,369.294v-76.743c-1.121,0-2.35-0.053-3.758-0.162l-8.621-0.67v85.614
	c0,25.864,19.334,47.821,44.975,51.075l9.008,1.143v-9.739C74.376,415.146,56.714,394.01,56.714,369.294z"/>
<path style="fill:#6D6864;" d="M109.861,446.04c-6.812,0-12.355-5.542-12.355-12.355v-30.593c0-6.813,5.542-12.355,12.355-12.355
	h22.844v55.302H109.861z"/>
<path style="fill:#5B514A;" d="M97.506,406.034v27.651c0,6.812,5.542,12.355,12.355,12.355h22.844v-27.651h-22.844
	C103.048,418.388,97.506,412.846,97.506,406.034z"/>
<path style="fill:#9BB8BC;" d="M148.73,505c-9.388,0-17.025-7.637-17.025-17.025V216.369c0-16.97,13.806-30.775,30.776-30.775
	h49.227c16.97,0,30.776,13.806,30.776,30.775v271.605c0,9.389-7.637,17.025-17.025,17.025H148.73V505z"/>
<path style="fill:#7EA5A8;" d="M186.187,487.974V216.369c0-16.084,12.405-29.317,28.149-30.656c-0.867-0.074-1.741-0.12-2.627-0.12
	h-49.227c-16.97,0-30.776,13.806-30.776,30.775v271.605c0,9.389,7.637,17.025,17.025,17.025h54.481
	C193.824,505,186.187,497.362,186.187,487.974z"/>
<rect x="131.708" y="292.158" style="fill:#1ABA9B;" width="110.777" height="120.588"/>
<rect x="131.708" y="292.158" style="fill:#0E997E;" width="54.483" height="120.588"/>
<path style="fill:#9BB8BC;" d="M61.547,196.044c-1.619-0.161-3.245-0.242-4.833-0.242c-1.124,0-2.319,0.052-3.764,0.163
	l-8.615,0.663v-22.411c0-28.39,23.096-51.486,51.486-51.486h78.349v26.002H95.822c-14.053,0-25.485,11.433-25.485,25.485v22.699
	L61.547,196.044z"/>
<path style="fill:#7EA5A8;" d="M58.205,183.161c0-28.39,23.096-51.486,51.486-51.486h64.48v-8.945H95.822
	c-28.39,0-51.486,23.097-51.486,51.486v22.411l8.615-0.663c1.444-0.111,2.64-0.163,3.764-0.163c0.492,0,0.992,0.022,1.49,0.038
	V183.161z"/>
<path style="fill:#9BB8BC;" d="M336.406,88.381V54.269c0-13.561-11.033-24.594-24.594-24.594H275.88v26.002h29.126
	c2.977,0,5.398,2.422,5.398,5.398v27.305H336.406z"/>
<path style="fill:#ACBFBE;" d="M255.5,78.353c-19.671,0-35.676-16.004-35.676-35.676S235.828,7,255.5,7s35.676,16.004,35.676,35.676
	S275.172,78.353,255.5,78.353z"/>
<path style="fill:#8EADAB;" d="M251.645,40.526c0-13.09,7.091-24.55,17.629-30.756C265.034,7.987,260.38,7,255.5,7
	c-19.671,0-35.676,16.004-35.676,35.676s16.004,35.676,35.676,35.676c6.581,0,12.748-1.799,18.047-4.919
	C260.694,68.033,251.645,55.317,251.645,40.526z"/>
<path style="fill:#C7EAEA;" d="M255.5,63.057c-11.238,0-20.38-9.143-20.38-20.38s9.143-20.38,20.38-20.38s20.38,9.143,20.38,20.38
	S266.738,63.057,255.5,63.057z"/>
<rect x="309.979" y="101.356" style="fill:#9BB8BC;" width="27.848" height="69.754"/>
<g>
	<path style="fill:#6D6864;" d="M351.514,109.251V90.922c0-1.956-1.585-3.541-3.541-3.541h-48.136c-1.956,0-3.541,1.585-3.541,3.541
		v18.329c0,1.956,1.585,3.541,3.541,3.541h48.136C349.929,112.792,351.514,111.207,351.514,109.251z"/>
	<path style="fill:#6D6864;" d="M355.322,186.594v-16.991c0-5.477-4.455-9.933-9.932-9.933h-43.972
		c-5.476,0-9.932,4.455-9.932,9.933v16.991H355.322z"/>
</g>
<g>
	<path style="fill:#5B514A;" d="M187.168,109.251V90.922c0-1.956,1.585-3.541,3.541-3.541h-27.683c-1.956,0-3.541,1.585-3.541,3.541
		v18.329c0,1.956,1.585,3.541,3.541,3.541h27.683C188.754,112.792,187.168,111.207,187.168,109.251z"/>
	<path style="fill:#5B514A;" d="M323.978,109.251V90.922c0-1.956,1.585-3.541,3.541-3.541h-27.683c-1.956,0-3.541,1.585-3.541,3.541
		v18.329c0,1.956,1.585,3.541,3.541,3.541h27.683C325.563,112.792,323.978,111.207,323.978,109.251z"/>
	<path style="fill:#5B514A;" d="M329.102,159.67h-27.683c-5.476,0-9.932,4.455-9.932,9.933v16.991h27.683v-16.991
		C319.17,164.125,323.625,159.67,329.102,159.67z"/>
</g>
<path style="fill:#ACBFBE;" d="M454.285,293.551c27.225,0,49.374-22.148,49.374-49.374c0-27.226-22.149-49.375-49.374-49.375
	c-27.225,0-49.374,22.149-49.374,49.375S427.061,293.551,454.285,293.551z"/>
<path style="fill:#8EADAB;" d="M455.555,244.177c0-17.974,9.658-33.731,24.052-42.368c-7.409-4.445-16.07-7.008-25.322-7.008
	c-27.225,0-49.374,22.149-49.374,49.375s22.149,49.374,49.374,49.374c9.251,0,17.912-2.563,25.322-7.007
	C465.212,277.907,455.555,262.151,455.555,244.177z"/>
<path style="fill:#C7EAEA;" d="M454.285,276.753c17.962,0,32.576-14.613,32.576-32.576c0-17.963-14.614-32.576-32.576-32.576
	c-17.962,0-32.576,14.614-32.576,32.576C421.709,262.139,436.323,276.753,454.285,276.753z"/>
<path style="fill:#9BB8BC;" d="M421.689,428.41c25.641-3.254,44.975-25.212,44.975-51.075V291.72l-8.621,0.67
	c-1.408,0.109-2.637,0.162-3.758,0.162c-1.587,0-3.213-0.081-4.833-0.242l-8.791-0.872v85.897c0,12.519-8.955,23.091-21.291,25.141
	l-6.689,1.11v25.968L421.689,428.41z"/>
<path style="fill:#7EA5A8;" d="M458.044,292.389c-1.408,0.109-2.637,0.162-3.758,0.162v76.743c0,24.716-17.661,45.852-41.605,50.52
	v9.739l9.008-1.143c25.641-3.254,44.975-25.212,44.975-51.075V291.72L458.044,292.389z"/>
<path style="fill:#6D6864;" d="M401.139,446.04c6.812,0,12.355-5.542,12.355-12.355v-30.593c0-6.813-5.542-12.355-12.355-12.355
	h-22.844v55.302H401.139z"/>
<path style="fill:#5B514A;" d="M401.139,418.388h-22.844v27.651h22.844c6.812,0,12.355-5.542,12.355-12.355v-27.651
	C413.494,412.846,407.952,418.388,401.139,418.388z"/>
<path style="fill:#9BB8BC;" d="M362.27,505c9.388,0,17.025-7.637,17.025-17.025V216.369c0-16.97-13.806-30.775-30.776-30.775
	h-49.227c-16.97,0-30.776,13.806-30.776,30.775v271.605c0,9.389,7.637,17.025,17.025,17.025h76.729V505z"/>
<path style="fill:#7EA5A8;" d="M322.997,487.974V216.369c0-16.084,12.405-29.317,28.149-30.656c-0.867-0.074-1.741-0.12-2.627-0.12
	h-49.227c-16.97,0-30.776,13.806-30.776,30.775v271.605c0,9.389,7.637,17.025,17.025,17.025h54.48
	C330.634,505,322.997,497.362,322.997,487.974z"/>
<rect x="268.517" y="292.158" style="fill:#1ABA9B;" width="110.777" height="120.588"/>
<rect x="268.517" y="292.158" style="fill:#0E997E;" width="54.483" height="120.588"/>
<path style="fill:#9BB8BC;" d="M449.453,196.044c1.619-0.161,3.245-0.242,4.833-0.242c1.124,0,2.319,0.052,3.764,0.163l8.615,0.663
	v-22.411c0-28.39-23.096-51.486-51.486-51.486H336.83v26.002h78.349c14.053,0,25.485,11.433,25.485,25.485v22.699L449.453,196.044z"
	/>
<path style="fill:#7EA5A8;" d="M415.177,122.731h-78.349v10.348h65.014c28.39,0,51.486,23.097,51.486,51.486v11.262
	c0.318-0.007,0.641-0.024,0.956-0.024c1.124,0,2.319,0.052,3.764,0.163l8.615,0.663v-22.411
	C466.664,145.827,443.568,122.731,415.177,122.731z"/>
<path d="M68.423,244.177c0-5.878-4.336-10.732-9.983-11.569l-7.212-11.822c-2.157-3.535-6.772-4.653-10.31-2.496
	s-4.653,6.772-2.496,10.31l7.209,11.816c-0.401,1.182-0.628,2.443-0.628,3.76c0,6.467,5.242,11.71,11.71,11.71
	S68.423,250.644,68.423,244.177z"/>
<path d="M471.081,218.291c-3.534-2.156-8.152-1.041-10.31,2.496l-7.213,11.822c-5.645,0.837-9.982,5.689-9.982,11.568
	c0,6.467,5.242,11.71,11.71,11.71c6.467,0,11.71-5.242,11.71-11.71c0-1.317-0.227-2.579-0.628-3.76l7.209-11.816
	C475.735,225.065,474.617,220.449,471.081,218.291z"/>
<path d="M263.017,31.262c-3.534-2.156-8.15-1.041-10.31,2.496l-6.116,10.024c-2.157,3.535-1.04,8.152,2.496,10.31
	c1.22,0.744,2.568,1.099,3.899,1.099c2.528,0,4.997-1.278,6.41-3.595l6.116-10.024C267.672,38.035,266.555,33.419,263.017,31.262z"
	/>
<path d="M474.664,191.234v-17.017c0-32.301-26.186-58.487-58.487-58.487H355.8c2.294-2.381,3.714-5.61,3.714-9.171V93.613
	c0-7.308-5.924-13.233-13.233-13.233h-1.875V54.269c0-17.449-14.145-31.594-31.594-31.594h-19.628C286.002,9.199,271.808,0,255.5,0
	s-30.502,9.199-37.684,22.675h-18.628c-17.449,0-31.594,14.145-31.594,31.594V80.38h-1.875c-7.308,0-13.234,5.925-13.234,13.234
	v12.946c0,3.56,1.42,6.789,3.714,9.171H95.822c-32.301,0-58.487,26.186-58.487,58.487v17.017
	c-21.567,7.92-36.996,28.663-36.996,52.943c0,24.28,15.428,45.023,36.996,52.942v80.214c0,30.489,23.454,55.589,53.266,58.241
	c0.953,9.789,9.225,17.465,19.259,17.465h14.844v34.934c0,13.269,10.757,24.025,24.026,24.025h76.729
	c13.269,0,24.026-10.757,24.026-24.025V366.45c0-4.669-4.295-8.132-8.869-7.188c-0.065,0.013-0.129,0.026-0.193,0.039
	c-3.445,0.697-5.939,3.696-5.939,7.212v38.236h-94.778V300.163h94.778v20.41c0,3.523,2.504,6.529,5.959,7.215
	c0.063,0.013,0.127,0.025,0.191,0.038c4.569,0.925,8.851-2.53,8.851-7.193V216.369c0-15.578-9.48-28.981-22.972-34.751v-12.016
	c0-9.352-7.581-16.933-16.933-16.933h-1.561v-32.877h0.452c7.308,0,13.234-5.925,13.234-13.234V93.613
	c0-7.308-5.924-13.233-13.233-13.233h-0.875V62.678h10.22c7.182,13.477,21.376,22.675,37.684,22.675s30.502-9.199,37.684-22.675
	h11.22V80.38h-0.874c-7.308,0-13.233,5.924-13.233,13.233v12.946c0,7.308,5.924,13.233,13.233,13.233h0.451v32.877h-1.561
	c-9.352,0-16.933,7.581-16.933,16.933v12.016c-13.493,5.77-22.972,19.173-22.972,34.751v271.605
	c0,13.269,10.757,24.025,24.025,24.025h76.73c13.269,0,24.025-10.757,24.025-24.025v-34.935h14.844
	c10.035,0,18.306-7.676,19.259-17.465c29.812-2.651,53.266-27.753,53.266-58.241V297.12c21.567-7.919,36.996-28.663,36.996-52.942
	C511.66,219.897,496.232,199.153,474.664,191.234z M167.487,95.381h39.217v9.411h-39.217V95.381z M193.018,119.793v32.877h-11.847
	v-32.877H193.018z M52.336,174.217c0-23.979,19.507-43.486,43.486-43.486h70.348v10.001H95.822
	c-18.464,0-33.485,15.022-33.485,33.485v13.866c-1.85-0.184-3.725-0.281-5.623-0.281c-1.475,0-2.931,0.075-4.377,0.187V174.217z
	 M15.34,244.177c0-22.814,18.56-41.375,41.374-41.375s41.374,18.561,41.374,41.375c0,22.813-18.56,41.374-41.374,41.374
	S15.34,266.992,15.34,244.177z M90.318,420.472c-21.388-2.714-37.981-21.024-37.981-43.139v-76.969
	c1.446,0.112,2.903,0.187,4.377,0.187c1.898,0,3.773-0.097,5.623-0.281v77.064c0,16.589,12.126,30.399,27.981,33.032V420.472z
	 M124.705,438.039h-14.844c-2.4,0-4.354-1.953-4.354-4.354v-30.593c0-2.401,1.953-4.354,4.354-4.354h14.844
	C124.705,398.738,124.705,438.039,124.705,438.039z M234.484,419.749v68.225c0,4.977-4.048,9.025-9.025,9.025h-76.73
	c-4.976,0-9.025-4.048-9.025-9.025v-68.225H234.484z M124.705,216.369v167.367h-14.844c-7.953,0-14.797,4.826-17.77,11.702
	c-8.41-1.731-14.753-9.191-14.753-18.104v-80.706c20.909-8.252,35.751-28.644,35.751-52.45c0-23.807-14.841-44.2-35.751-52.451
	v-17.509c0-10.192,8.293-18.484,18.484-18.484h60.104c-4.375,3.064-7.248,8.135-7.248,13.87v11.614
	C134.657,186.742,124.705,200.411,124.705,216.369z M234.484,285.161h-94.778v-10.244h94.778V285.161z M234.484,216.369v43.547
	h-94.778v-43.547c0-12.559,10.218-22.774,22.775-22.774h49.227C224.267,193.594,234.484,203.811,234.484,216.369z M209.58,167.671
	c1.065,0,1.931,0.866,1.931,1.932v8.991h-47.834v-8.991c0-1.065,0.866-1.932,1.931-1.932H209.58z M213.126,47.677h-7.132
	c-7.388,0-13.399,6.011-13.399,13.399V80.38h-10.001V54.269c0-9.149,7.443-16.593,16.593-16.593h13.939
	c-0.193,1.641-0.303,3.308-0.303,5S212.933,46.035,213.126,47.677z M255.5,70.352c-15.26,0-27.676-12.415-27.676-27.676
	S240.24,15.001,255.5,15.001c15.261,0,27.676,12.415,27.676,27.676S270.761,70.352,255.5,70.352z M345.829,130.731h70.348
	c23.978,0,43.486,19.508,43.486,43.486v13.772c-1.446-0.112-2.903-0.187-4.377-0.187c-1.898,0-3.773,0.097-5.623,0.281v-13.866
	c0-18.464-15.022-33.485-33.485-33.485h-70.348V130.731z M344.514,95.381v9.411h-39.216v-9.411H344.514z M330.828,119.793v32.877
	h-11.847v-32.877H330.828z M297.874,47.677c0.193-1.641,0.303-3.308,0.303-5s-0.11-3.359-0.303-5h14.939
	c9.149,0,16.593,7.443,16.593,16.593V80.38h-10.001V61.076c0-7.388-6.01-13.399-13.398-13.399H297.874z M300.488,169.603
	c0-1.065,0.866-1.932,1.932-1.932h43.971c1.065,0,1.932,0.866,1.932,1.932v8.991h-47.834v-8.991H300.488z M372.294,487.974
	c0,4.977-4.048,9.025-9.024,9.025H286.54c-4.976,0-9.024-4.048-9.024-9.025v-68.225h94.778L372.294,487.974L372.294,487.974z
	 M372.294,404.748h-94.778V300.162h94.778V404.748z M372.294,285.161h-94.778v-10.244h94.778V285.161z M372.294,259.915h-94.778
	v-43.547c0-12.559,10.218-22.774,22.775-22.774h49.227c12.559,0,22.775,10.217,22.775,22.774L372.294,259.915L372.294,259.915z
	 M406.492,433.685c0,2.4-1.953,4.354-4.354,4.354h-14.844v-39.301h14.844c2.4,0,4.354,1.953,4.354,4.354V433.685z M419.909,395.439
	c-2.973-6.875-9.816-11.702-17.77-11.702h-14.844V216.369c0-15.958-9.953-29.627-23.973-35.152v-11.615
	c0-5.735-2.873-10.806-7.249-13.87h60.103c10.192,0,18.484,8.293,18.484,18.484v17.509c-20.909,8.252-35.75,28.644-35.75,52.451
	c0,23.807,14.841,44.199,35.75,52.45v80.707C434.661,386.248,428.319,393.708,419.909,395.439z M459.663,377.335
	c0,22.113-16.592,40.425-37.981,43.139v-10.106c15.855-2.633,27.981-16.443,27.981-33.032v-77.064
	c1.85,0.184,3.725,0.281,5.623,0.281c1.474,0,2.931-0.075,4.377-0.187V377.335z M455.285,285.551
	c-22.814,0-41.374-18.56-41.374-41.374c0-22.813,18.56-41.375,41.374-41.375c22.813,0,41.374,18.561,41.374,41.375
	C496.659,266.991,478.1,285.551,455.285,285.551z"/>
<g>
</g>
<g>
</g>
<g>
</g>
<g>
</g>
<g>
</g>
<g>
</g>
<g>
</g>
<g>
</g>
<g>
</g>
<g>
</g>
<g>
</g>
<g>
</g>
<g>
</g>
<g>
</g>
<g>
</g>
</svg>
