<?xml version="1.0" encoding="iso-8859-1"?>
<!-- Generator: Adobe Illustrator 19.0.0, SVG Export Plug-In . SVG Version: 6.00 Build 0)  -->
<svg version="1.1" id="Capa_1" xmlns="http://www.w3.org/2000/svg" xmlns:xlink="http://www.w3.org/1999/xlink" x="0px" y="0px"
	 viewBox="0 0 512 512" style="enable-background:new 0 0 512 512;" xml:space="preserve">
<path d="M170.798,512h170.404c25.962,0,47.083-21.122,47.083-47.084V175.624c0-22.679-16.517-42.148-38.391-46.272v-38.64
	c0-31.026-25.241-56.266-56.266-56.266c-7.402,0-14.665,1.446-21.418,4.225C264.804,16.24,243.658,0,218.777,0
	c-31.026,0-56.266,25.241-56.266,56.266v73.011c-22.363,3.934-38.796,23.231-38.796,46.348v289.29
	C123.715,490.878,144.836,512,170.798,512z M341.202,496.973H170.798c-17.676,0-32.057-14.38-32.057-32.058V210.066
	c8.413,7.836,19.682,12.642,32.057,12.642h170.404c12.376,0,23.645-4.807,32.057-12.642v254.849
	C373.259,482.592,358.878,496.973,341.202,496.973z M293.628,49.472c22.74,0,41.24,18.501,41.24,41.24v77.4h-8.621v-32.255
	c0-4.15-3.364-7.513-7.513-7.513h-43.69V56.266c0-0.779-0.027-1.552-0.059-2.324C280.735,51.022,287.101,49.472,293.628,49.472z
	 M275.043,143.369h36.177v24.742h-36.177V143.369z M177.536,56.266c0-22.739,18.501-41.24,41.241-41.24s41.24,18.501,41.24,41.24
	v79.59v32.255h-7.053V100.55c0-4.15-3.364-7.513-7.513-7.513h-53.347c-4.149,0-7.513,3.363-7.513,7.513v67.561h-7.053V56.266z
	 M199.616,168.111v-59.248c0.752,0.251,1.555,0.395,2.391,0.395c1.497,0,2.888-0.442,4.061-1.195h25.416
	c1.172,0.753,2.564,1.195,4.061,1.195c0.837,0,1.639-0.142,2.391-0.395v59.248H199.616z M162.509,144.647v23.464h-2.79
	c-4.149,0-7.513,3.363-7.513,7.513c0,4.15,3.364,7.513,7.513,7.513h10.303h20.025c0.654,0.185,1.341,0.292,2.055,0.292h53.347
	c0.713,0,1.4-0.106,2.055-0.292h17.971c0.654,0.185,1.341,0.292,2.055,0.292h51.204h23.648c0.713,0,1.4-0.106,2.055-0.292h9.182
	c4.149,0,7.513-3.363,7.513-7.513c0-4.15-3.364-7.513-7.513-7.513h-3.724v-23.343c13.493,3.832,23.364,16.386,23.364,30.857
	c0,17.677-14.38,32.058-32.057,32.058H170.798c-17.676,0-32.057-14.38-32.057-32.058
	C138.741,160.807,148.653,148.297,162.509,144.647z"/>
<circle cx="202.007" cy="69.252" r="7.529"/>
<circle cx="235.546" cy="69.252" r="7.529"/>
<path d="M308.829,116.783c4.158,0,7.529-3.371,7.529-7.529c0-0.82-0.135-1.607-0.378-2.346c0.242-0.739,0.378-1.527,0.378-2.346
	c0-4.158-3.371-7.529-7.529-7.529s-7.529,3.371-7.529,7.529c0,0.819,0.135,1.607,0.378,2.346c-0.242,0.739-0.378,1.526-0.378,2.346
	C301.3,113.412,304.671,116.783,308.829,116.783z"/>
<path d="M256,263.993c-51.733,0-93.821,42.088-93.821,93.821s42.087,93.82,93.821,93.82s93.821-42.087,93.821-93.82
	S307.733,263.993,256,263.993z M256,436.608c-43.448,0-78.794-35.346-78.794-78.793c0-43.448,35.346-78.794,78.794-78.794
	s78.794,35.346,78.794,78.794C334.794,401.261,299.447,436.608,256,436.608z"/>
<path d="M298.539,329.717h-14.442v-14.441c0-8.537-6.946-15.483-15.483-15.483h-25.229c-8.537,0-15.483,6.946-15.483,15.483v14.442
	H213.46c-8.537,0-15.483,6.946-15.483,15.483v25.229c0,8.537,6.945,15.483,15.483,15.483h14.443v14.441
	c0,8.537,6.946,15.483,15.483,15.483h25.229c8.537,0,15.483-6.946,15.483-15.483v-14.441h14.442c8.537,0,15.483-6.946,15.483-15.483
	V345.2C314.022,336.662,307.077,329.717,298.539,329.717z M298.996,370.428c0,0.252-0.205,0.457-0.457,0.457h-21.955
	c-4.149,0-7.513,3.363-7.513,7.513v21.954c0,0.252-0.205,0.457-0.457,0.457h-25.229c-0.251,0-0.457-0.204-0.457-0.457v-21.954
	c0-4.15-3.364-7.513-7.513-7.513H213.46c-0.251,0-0.457-0.204-0.457-0.457V345.2c0-0.252,0.205-0.457,0.457-0.457h21.956
	c4.149,0,7.513-3.363,7.513-7.513v-21.955c0-0.252,0.205-0.457,0.457-0.457h25.229c0.251,0,0.457,0.204,0.457,0.457v21.955
	c0,4.15,3.364,7.513,7.513,7.513h21.955c0.251,0,0.457,0.204,0.457,0.457L298.996,370.428L298.996,370.428z"/>
<path style="fill:#DD3A3A;" d="M130.727,176.626v15.024v273.265c0,22.096,17.976,40.072,40.071,40.072h170.404
	c22.095,0,40.071-17.976,40.071-40.072V191.651v-15.024H130.727V176.626z"/>
<path style="fill:#C91C1C;" d="M243.075,464.916V191.651v-15.024H130.727v15.024v273.265c0,22.096,17.976,40.072,40.071,40.072
	h112.348C261.05,504.988,243.075,487.011,243.075,464.916z"/>
<path style="fill:#FAF7E6;" d="M256,444.622c-47.867,0-86.808-38.942-86.808-86.807c0-47.867,38.942-86.808,86.808-86.808
	s86.808,38.942,86.808,86.808C342.808,405.68,303.866,444.622,256,444.622z"/>
<path style="fill:#E2DAB3;" d="M256,340.807c0-25.727,11.254-48.871,29.091-64.781c-9.099-3.246-18.891-5.02-29.091-5.02
	c-47.867,0-86.808,38.942-86.808,86.808c0,47.866,38.942,86.807,86.808,86.807c22.139,0,42.366-8.336,57.717-22.027
	C280.116,410.608,256,378.473,256,340.807z"/>
<path style="fill:#DD3A3A;" d="M243.386,408.824c-4.671,0-8.471-3.8-8.471-8.471V378.9h-21.454c-4.671,0-8.471-3.8-8.471-8.471
	V345.2c0-4.671,3.8-8.471,8.471-8.471h21.454v-21.454c0-4.671,3.8-8.471,8.471-8.471h25.229c4.671,0,8.471,3.8,8.471,8.471v21.454
	h21.454c4.671,0,8.471,3.8,8.471,8.471v25.229c0,4.671-3.8,8.471-8.471,8.471h-21.454v21.453c0,4.671-3.8,8.471-8.471,8.471H243.386
	z"/>
<path style="fill:#FAF7E6;" d="M340.505,215.696h-169.01c-22.516,0-40.768-18.252-40.768-40.768l0,0
	c0-22.516,18.252-40.768,40.768-40.768h169.01c22.516,0,40.768,18.252,40.768,40.768l0,0
	C381.273,197.444,363.021,215.696,340.505,215.696z"/>
<path style="fill:#EAE2B7;" d="M217.535,174.928L217.535,174.928c0-22.516,18.252-40.768,40.768-40.768h-86.808
	c-22.516,0-40.768,18.252-40.768,40.768l0,0c0,22.516,18.252,40.768,40.768,40.768h86.808
	C235.788,215.696,217.535,197.444,217.535,174.928z"/>
<path style="fill:#CCC6AC;" d="M353.618,184.139H159.719c-4.149,0-7.513-3.363-7.513-7.513c0-4.15,3.364-7.513,7.513-7.513h193.899
	c4.149,0,7.513,3.363,7.513,7.513C361.131,180.777,357.767,184.139,353.618,184.139z"/>
<path style="fill:#D88A55;" d="M267.029,176.125V56.266c0-0.669-0.025-1.331-0.052-1.993l-0.212-5.146l4.591-2.331
	c6.88-3.492,14.582-5.338,22.272-5.338c27.159,0,49.254,22.096,49.254,49.254v79.907c0,3.199-2.6,5.788-5.798,5.776L267.029,176.125
	z"/>
<path style="fill:#C4743D;" d="M290.11,176.125V56.266c0-5.035-0.766-9.892-2.176-14.471c-5.755,0.678-11.399,2.372-16.578,5.001
	l-4.591,2.331l0.212,5.146c0.027,0.661,0.052,1.323,0.052,1.993v119.859H290.11z"/>
<path style="fill:#E5AC85;" d="M267.029,176.125v-40.77h46.107c3.368,0,6.098,2.73,6.098,6.098v34.873L267.029,176.125z"/>
<rect x="267.032" y="135.359" style="fill:#D39871;" width="23.081" height="40.77"/>
<path style="fill:#CE7C45;" d="M169.522,170.35V57.094c0-26.971,21.337-49.561,48.302-50.073
	c27.593-0.524,50.206,21.769,50.206,49.245v119.859h-92.733C172.108,176.125,169.522,173.54,169.522,170.35z"/>
<path style="fill:#C16F38;" d="M202.007,170.35V57.094c0-21.635,13.735-40.439,33.087-47.302
	c-5.393-1.899-11.211-2.886-17.271-2.771c-26.966,0.512-48.302,23.102-48.302,50.073V170.35c0,3.19,2.586,5.776,5.776,5.776h32.485
	C204.594,176.125,202.007,173.54,202.007,170.35z"/>
<path style="fill:#E5AC85;" d="M191.602,176.125v-69.862c0-3.432,2.782-6.214,6.214-6.214h41.921c3.432,0,6.214,2.782,6.214,6.214
	v69.862H191.602z"/>
<path style="fill:#D19369;" d="M202.007,170.35v-70.301h-4.191c-3.432,0-6.214,2.782-6.214,6.214v69.863h16.182
	C204.594,176.125,202.007,173.54,202.007,170.35z"/>
<path d="M349.894,129.353v-38.64c0-31.026-25.241-56.266-56.266-56.266c-7.402,0-14.665,1.446-21.418,4.225
	C264.804,16.24,243.658,0,218.777,0c-31.026,0-56.266,25.241-56.266,56.266v73.011c-22.363,3.934-38.796,23.231-38.796,46.348
	v289.29c0,25.962,21.121,47.084,47.083,47.084h170.404c25.962,0,47.083-21.122,47.083-47.084V175.624
	C388.285,152.946,371.768,133.477,349.894,129.353z M293.628,49.472c22.74,0,41.24,18.501,41.24,41.24v77.691h-8.621v-32.547
	c0-4.15-3.364-7.513-7.513-7.513h-43.69V56.266c0-0.779-0.027-1.552-0.059-2.324C280.735,51.022,287.101,49.472,293.628,49.472z
	 M237.937,168.111h-38.321v-60.048h38.321L237.937,168.111L237.937,168.111z M275.043,143.369h36.177v25.033h-36.177V143.369z
	 M177.536,56.266c0-22.739,18.501-41.24,41.241-41.24s41.24,18.501,41.24,41.24v79.59v32.255h-7.053V100.55
	c0-4.15-3.364-7.513-7.513-7.513h-53.347c-4.149,0-7.513,3.363-7.513,7.513v67.561h-7.053V56.266z M373.259,464.916
	c0,17.677-14.38,32.058-32.057,32.058H170.798c-17.676,0-32.057-14.38-32.057-32.058V210.066
	c8.413,7.836,19.682,12.642,32.057,12.642h170.404c12.376,0,23.645-4.807,32.057-12.642V464.916z M341.202,207.682H170.798
	c-17.676,0-32.057-14.38-32.057-32.058c0-14.817,9.912-27.328,23.769-30.978v24.466h-2.79c-4.149,0-7.513,3.363-7.513,7.513
	c0,4.15,3.364,7.513,7.513,7.513h193.899c4.149,0,7.513-3.363,7.513-7.513c0-4.15-3.364-7.513-7.513-7.513h-3.724v-24.345
	c13.493,3.832,23.364,16.386,23.364,30.857C373.259,193.302,358.878,207.682,341.202,207.682z"/>
<circle cx="202.007" cy="41.975" r="7.529"/>
<circle cx="235.546" cy="41.975" r="7.529"/>
<circle cx="202.007" cy="74.452" r="7.529"/>
<circle cx="235.546" cy="74.452" r="7.529"/>
<circle cx="308.826" cy="80.362" r="7.529"/>
<circle cx="308.826" cy="109.253" r="7.529"/>
<path d="M323.585,317.383c7.839,13.044,12.021,28.522,11.078,45.022c-2.292,40.073-34.908,72.297-75.006,74.12
	c-45.605,2.074-83.28-34.858-82.438-80.202c0.764-41.121,33.533-75.053,74.605-77.194c13.98-0.729,27.214,2.228,38.848,7.961
	c2.875,1.417,6.332,0.824,8.598-1.442l0.002-0.002c3.651-3.651,2.618-9.804-2.016-12.083c-13.209-6.495-28.159-9.976-43.945-9.532
	c-49.785,1.399-90.156,42.148-91.115,91.944c-1.008,52.381,41.151,95.347,93.234,95.658c51.249,0.306,93.639-41.192,94.38-92.436
	c0.262-18.171-4.668-35.195-13.402-49.68c-2.511-4.165-8.296-4.824-11.735-1.384l0,0
	C322.214,310.592,321.793,314.401,323.585,317.383z"/>
<path d="M298.539,329.717h-14.442v-14.441c0-8.537-6.946-15.483-15.483-15.483h-25.229c-8.537,0-15.483,6.946-15.483,15.483v14.442
	H213.46c-8.537,0-15.483,6.946-15.483,15.483v25.229c0,8.537,6.945,15.483,15.483,15.483h14.443v14.441
	c0,8.537,6.946,15.483,15.483,15.483h25.229c8.537,0,15.483-6.946,15.483-15.483v-14.441h14.442c8.537,0,15.483-6.946,15.483-15.483
	V345.2C314.022,336.662,307.077,329.717,298.539,329.717z M298.996,370.428c0,0.252-0.205,0.457-0.457,0.457h-21.955
	c-4.149,0-7.513,3.363-7.513,7.513v21.954c0,0.252-0.205,0.457-0.457,0.457h-25.229c-0.251,0-0.457-0.204-0.457-0.457v-21.954
	c0-4.15-3.364-7.513-7.513-7.513H213.46c-0.251,0-0.457-0.204-0.457-0.457V345.2c0-0.252,0.205-0.457,0.457-0.457h21.956
	c4.149,0,7.513-3.363,7.513-7.513v-21.955c0-0.252,0.205-0.457,0.457-0.457h25.229c0.251,0,0.457,0.204,0.457,0.457v21.955
	c0,4.15,3.364,7.513,7.513,7.513h21.955c0.251,0,0.457,0.204,0.457,0.457L298.996,370.428L298.996,370.428z"/>
<g>
</g>
<g>
</g>
<g>
</g>
<g>
</g>
<g>
</g>
<g>
</g>
<g>
</g>
<g>
</g>
<g>
</g>
<g>
</g>
<g>
</g>
<g>
</g>
<g>
</g>
<g>
</g>
<g>
</g>
</svg>
