<?xml version="1.0" encoding="iso-8859-1"?>
<!-- Generator: Adobe Illustrator 19.0.0, SVG Export Plug-In . SVG Version: 6.00 Build 0)  -->
<svg version="1.1" id="Capa_1" xmlns="http://www.w3.org/2000/svg" xmlns:xlink="http://www.w3.org/1999/xlink" x="0px" y="0px"
	 viewBox="0 0 512.002 512.002" style="enable-background:new 0 0 512.002 512.002;" xml:space="preserve">
<path style="fill:#F24400;" d="M160.001,217.696c-24.797,0-46.716-18.579-57.745-29.87L78.91,201.862
	c-3.972,2.389-8.977-0.731-8.585-5.349l1.741-20.472l-1.86-25.062c-0.341-4.594,4.642-7.661,8.59-5.288l23.459,14.105
	c11.029-11.292,32.947-29.87,57.745-29.87c21.225,0,40.197,13.374,52.502,24.762c5.246,4.855,8.455,11.618,8.55,18.766
	c0.097,7.324-2.804,14.122-8.147,19.106C200.614,204.026,181.458,217.696,160.001,217.696z"/>
<path style="fill:#D33302;" d="M221.052,173.453c-0.095-7.147-3.304-13.911-8.55-18.766c-9.432-8.729-22.783-18.618-38.061-22.763
	l-2.361,6.167c-5.13,13.399-15.245,47.314,1.612,72.765l2.809,4.241c14.633-4.508,27.373-14.116,36.404-22.541
	C218.248,187.575,221.15,180.777,221.052,173.453z"/>
<path id="SVGCleanerId_0" style="fill:#7FE4F4;" d="M302.089,189.372c-8.58,0-15.561-6.981-15.561-15.561
	c0-8.58,6.981-15.561,15.561-15.561s15.561,6.981,15.561,15.561C317.65,182.391,310.669,189.372,302.089,189.372z"/>
<path style="fill:#7FE4F4;" d="M342.376,119.521c-12.183,0-22.093-9.91-22.093-22.093s9.91-22.094,22.093-22.094
	c12.183,0,22.094,9.911,22.094,22.094S354.559,119.521,342.376,119.521z"/>
<path style="fill:#4DCDDB;" d="M360.87,108.424c-12.183,0-22.093-9.91-22.093-22.093c0-3.995,1.071-7.744,2.934-10.982
	c-11.875,0.354-21.427,10.119-21.427,22.077c0,12.183,9.91,22.093,22.093,22.093c8.188,0,15.343-4.48,19.16-11.114
	C361.314,108.414,361.093,108.424,360.87,108.424z"/>
<path style="fill:#7FE4F4;" d="M287.028,59.146c-14.374,0-26.069-11.695-26.069-26.069s11.695-26.069,26.069-26.069
	c14.374,0,26.069,11.695,26.069,26.069S301.402,59.146,287.028,59.146z"/>
<g>
	<path id="SVGCleanerId_0_1_" style="fill:#7FE4F4;" d="M302.089,189.372c-8.58,0-15.561-6.981-15.561-15.561
		c0-8.58,6.981-15.561,15.561-15.561s15.561,6.981,15.561,15.561C317.65,182.391,310.669,189.372,302.089,189.372z"/>
</g>
<g>
	<path style="fill:#4DCDDB;" d="M302.089,169.667c0-4.185,1.67-7.983,4.368-10.782c-1.387-0.406-2.85-0.635-4.368-0.635
		c-8.58,0-15.561,6.981-15.561,15.561c0,8.58,6.981,15.561,15.561,15.561c4.395,0,8.362-1.839,11.194-4.778
		C306.824,182.7,302.089,176.731,302.089,169.667z"/>
	<path style="fill:#4DCDDB;" d="M287.028,24.203c0-6.262,2.22-12.013,5.912-16.512c-1.901-0.442-3.878-0.684-5.912-0.684
		c-14.374,0-26.069,11.695-26.069,26.069s11.695,26.069,26.069,26.069c8.114,0,15.372-3.727,20.157-9.557
		C295.65,46.902,287.028,36.544,287.028,24.203z"/>
</g>
<path style="fill:#9BB8BC;" d="M388.497,504.986c-30.835-0.471-55.921-26.334-55.921-57.652v-14.223c0-4.537,3.692-8.229,8.23-8.229
	h11.572c4.537,0,8.229,3.692,8.229,8.229v14.454c0,15.746,12.517,28.926,27.902,29.385c0.283,0.008,0.572,0.012,0.86,0.012
	c7.52,0,14.637-2.889,20.042-8.135c5.639-5.475,8.744-12.804,8.744-20.639V120.964c0-5.527,4.496-10.024,10.024-10.024h7.983
	c5.527,0,10.024,4.496,10.024,10.024v327.225c0,15.313-6.026,29.68-16.967,40.456c-10.703,10.542-24.849,16.348-39.832,16.348
	C389.09,504.993,388.793,504.991,388.497,504.986z"/>
<path style="fill:#6D6864;" d="M181.794,347.299v33.142l0.426,5.528l0.029,0.212c0.054,11.551,9.468,20.931,21.031,20.931h45.173
	c11.583,0,21.017-9.424,21.03-21.008l0.004-3.438v-35.368L181.794,347.299L181.794,347.299z"/>
<path style="fill:#FF9100;" d="M313.843,399.923c-24.249,0-46.298-12.368-58.979-33.086c-1.229-2.008-3.587-3.304-6.007-3.304
	h-48.931c-2.422,0-4.779,1.296-6.006,3.302c-12.682,20.719-34.73,33.088-58.981,33.088c-38.112,0-69.12-31.008-69.12-69.12v-24.276
	c0-19.059,15.506-34.565,34.565-34.565h248.014c19.06,0,34.566,15.506,34.566,34.566v24.275
	C382.964,368.916,351.956,399.923,313.843,399.923z"/>
<path style="fill:#FF7300;" d="M224.391,330.804v-24.276c0-19.059,15.506-34.565,34.565-34.565H100.385
	c-19.059,0-34.565,15.506-34.565,34.565v24.276c0,38.112,31.008,69.12,69.12,69.12c24.25,0,46.299-12.368,58.981-33.088
	c1.227-2.006,3.585-3.302,6.006-3.302h32.723C227.385,353.785,224.391,342.638,224.391,330.804z"/>
<path style="fill:#7FE4F4;" d="M134.339,374.893c-23.989-0.329-43.494-20.47-43.494-44.896v-18.825
	c0-7.821,6.363-14.185,14.185-14.185h238.723c7.821,0,14.185,6.363,14.185,14.185v18.825c0,24.426-19.503,44.567-43.477,44.896
	l-0.546,0.004c-16.17,0-31.032-8.822-38.785-23.024c-5.717-10.469-16.918-16.973-29.231-16.973h-43.018
	c-12.313,0-23.514,6.504-29.231,16.975c-7.753,14.201-22.589,23.022-38.719,23.022L134.339,374.893z"/>
<path style="fill:#4DCDDB;" d="M343.753,296.988H105.029c-7.821,0-14.185,6.363-14.185,14.185v0.189h227.883
	c7.821,0,14.185,6.363,14.185,14.185v18.825c0,11.388-4.242,21.842-11.198,29.793c20.531-3.812,36.223-22.26,36.223-44.167v-18.825
	C357.938,303.351,351.575,296.988,343.753,296.988z"/>
<rect x="418.151" y="187.487" style="fill:#699093;" width="28.029" height="32.054"/>
<path d="M343.753,289.981h-17.125c-4.146,0-7.508,3.362-7.508,7.508l0,0c0,4.146,3.362,7.508,7.508,7.508h17.125
	c3.412,0,6.176,2.765,6.176,6.176v18.825c0,20.071-15.961,36.618-35.578,36.889c-13.377,0.159-25.743-7.038-32.191-18.85
	c-7.121-13.042-21.016-21.144-36.26-21.144h-43.018c-15.244,0-29.138,8.103-36.26,21.145c-6.368,11.663-18.475,18.852-31.689,18.852
	c-0.166,0-0.334-0.001-0.5-0.003c-19.62-0.27-35.58-16.818-35.58-36.889v-18.825c0-3.412,2.765-6.176,6.176-6.176h172.746
	c4.146,0,7.508-3.362,7.508-7.508l0,0c0-4.146-3.362-7.508-7.508-7.508H105.029c-11.704,0-21.192,9.488-21.192,21.192v18.825
	c0,28.238,22.605,51.521,50.39,51.903c0.237,0.004,0.471,0.005,0.709,0.005c18.712-0.001,35.857-10.172,44.866-26.672
	c4.487-8.22,13.331-13.326,23.08-13.326H245.9c9.748,0,18.593,5.106,23.08,13.325c9.01,16.501,26.154,26.673,44.867,26.673
	c0.236,0,0.473-0.001,0.71-0.005c27.784-0.381,50.388-23.665,50.388-51.903v-18.825
	C364.945,299.469,355.457,289.981,343.753,289.981z"/>
<path d="M65.035,176.042L63.268,196.8c-0.391,4.603,1.802,8.979,5.722,11.421c3.92,2.442,8.817,2.482,12.774,0.101l19.437-11.687
	c14.324,13.66,35.061,28.067,58.798,28.067c23.738,0,44.472-14.693,57.686-27.019c6.594-6.151,10.376-14.853,10.376-23.873
	c0-9.02-3.782-17.722-10.376-23.873c-13.214-12.326-33.948-27.019-57.686-27.019c-23.737,0-44.475,14.408-58.798,28.067
	l-19.543-11.75c-3.936-2.364-8.809-2.341-12.717,0.066c-3.91,2.406-6.128,6.745-5.789,11.324L65.035,176.042z M180.5,142.517
	c10.603,4.588,19.955,11.882,26.942,18.401c3.613,3.371,5.604,7.948,5.604,12.893c0,4.944-1.99,9.522-5.604,12.893
	c-6.824,6.367-15.905,13.47-26.204,18.073C166.89,183.109,176.765,152.273,180.5,142.517z M98.47,166.863
	c2.989,1.799,6.823,1.299,9.255-1.204c10.055-10.355,30.218-27.725,52.276-27.725c1.984,0,3.95,0.146,5.895,0.406
	c-5.001,12.695-14.777,44.655,0.656,70.85c-2.158,0.319-4.344,0.497-6.55,0.497c-22.058,0-42.221-17.371-52.276-27.725
	c-1.455-1.498-3.412-2.277-5.39-2.277c-1.327,0-2.665,0.351-3.865,1.073l-19.778,11.891l1.355-15.929
	c0.034-0.396,0.036-0.795,0.007-1.19l-1.53-20.658L98.47,166.863z"/>
<path d="M302.089,151.242c-12.445,0-22.569,10.124-22.569,22.569c0,12.445,10.124,22.569,22.569,22.569
	c12.445,0,22.569-10.124,22.569-22.569C324.658,161.366,314.534,151.242,302.089,151.242z M302.089,181.364
	c-4.164,0-7.553-3.389-7.553-7.553c0-4.164,3.389-7.553,7.553-7.553s7.553,3.389,7.553,7.553
	C309.642,177.975,306.253,181.364,302.089,181.364z"/>
<path d="M342.376,126.528c16.047,0,29.102-13.055,29.102-29.101c0-16.047-13.055-29.102-29.102-29.102
	c-16.046,0-29.101,13.055-29.101,29.102C313.276,113.473,326.33,126.528,342.376,126.528z M342.376,83.341
	c7.767,0,14.086,6.32,14.086,14.086s-6.32,14.085-14.086,14.085c-7.766,0-14.085-6.319-14.085-14.085S334.609,83.341,342.376,83.341
	z"/>
<path d="M287.028,66.154c18.239,0,33.077-14.838,33.077-33.077S305.267,0,287.028,0s-33.077,14.838-33.077,33.077
	S268.789,66.154,287.028,66.154z M287.028,15.016c9.958,0,18.061,8.103,18.061,18.061s-8.103,18.061-18.061,18.061
	c-9.958,0-18.061-8.103-18.061-18.061S277.07,15.016,287.028,15.016z"/>
<path d="M436.161,103.933h-7.983c-9.391,0-17.031,7.64-17.031,17.031v327.225c0,5.924-2.35,11.468-6.618,15.611
	c-4.264,4.139-9.852,6.336-15.813,6.145c-11.636-0.345-21.103-10.385-21.103-22.379v-14.454c0-8.402-6.834-15.236-15.236-15.236
	h-11.572c-8.402,0-15.237,6.834-15.237,15.236v14.223c0,35.123,28.182,64.129,62.822,64.658c0.334,0.005,0.668,0.008,1.001,0.008
	c16.841,0,32.695-6.498,44.742-18.363c12.289-12.103,19.057-28.244,19.057-45.448V120.964
	C453.191,111.573,445.552,103.933,436.161,103.933z M343.011,462.691c-1.567-4.847-2.427-10.007-2.427-15.357v-14.223
	c0-0.121,0.099-0.22,0.221-0.22h11.572c0.121,0,0.22,0.099,0.22,0.22v14.454c0,2.894,0.344,5.717,0.975,8.437L343.011,462.691z
	 M354.853,482.3c-1.852-1.894-3.551-3.941-5.087-6.113l10.131-6.416c1.47,2.005,3.132,3.857,4.955,5.531L354.853,482.3z
	 M438.175,448.189c0,13.151-5.177,25.492-14.578,34.75c-9.215,9.076-21.336,14.046-34.213,14.046c-0.254,0-0.511-0.002-0.766-0.006
	c-7.537-0.115-14.671-2.005-21.026-5.267l11.701-8.19c2.869,0.845,5.876,1.34,8.975,1.432c10.026,0.289,19.514-3.389,26.717-10.381
	c7.206-6.995,11.175-16.366,11.175-26.385V225.383h12.013v222.806H438.175z M438.175,210.367h-12.013v-13.988h12.013V210.367z
	 M438.175,181.364h-12.013v-60.399c0-1.11,0.904-2.015,2.015-2.015h7.983c1.11,0,2.015,0.904,2.015,2.015v60.399H438.175z"/>
<path d="M389.971,330.804v-24.275c0-22.923-18.651-41.574-41.574-41.574H100.385c-22.923,0-41.573,18.65-41.573,41.573v24.276
	c0,41.977,34.15,76.127,76.127,76.127c15.136,0,29.49-4.378,41.637-12.312c3.62,11.298,14.221,19.5,26.705,19.5h45.173
	c11.922,0,22.122-7.482,26.17-17.994c11.611,6.982,25.074,10.804,39.219,10.804C355.82,406.931,389.971,372.781,389.971,330.804z
	 M248.454,399.104H203.28c-7.181,0-13.023-5.842-13.023-13.023c0-0.351-0.032-0.694-0.079-1.032l-0.128-1.671
	c3.679-3.869,6.997-8.157,9.875-12.839h48.931l0.03-0.046c3.566,5.826,7.808,11.048,12.587,15.6
	C261.467,393.269,255.629,399.104,248.454,399.104z M313.843,391.915c-21.44,0-40.935-10.939-52.149-29.259
	c-2.692-4.4-7.612-7.131-12.837-7.131h-48.931c-5.227,0-10.147,2.732-12.837,7.131c-11.214,18.32-30.709,29.259-52.15,29.259
	c-33.696,0-61.111-27.415-61.111-61.111v-24.276c0-14.643,11.914-26.557,26.557-26.557h248.014
	c14.644,0,26.558,11.914,26.558,26.558v24.275C374.956,364.5,347.541,391.915,313.843,391.915z"/>
<g>
</g>
<g>
</g>
<g>
</g>
<g>
</g>
<g>
</g>
<g>
</g>
<g>
</g>
<g>
</g>
<g>
</g>
<g>
</g>
<g>
</g>
<g>
</g>
<g>
</g>
<g>
</g>
<g>
</g>
</svg>
