<?xml version="1.0" encoding="iso-8859-1"?>
<!-- Generator: Adobe Illustrator 19.0.0, SVG Export Plug-In . SVG Version: 6.00 Build 0)  -->
<svg version="1.1" id="Capa_1" xmlns="http://www.w3.org/2000/svg" xmlns:xlink="http://www.w3.org/1999/xlink" x="0px" y="0px"
	 viewBox="0 0 512.001 512.001" style="enable-background:new 0 0 512.001 512.001;" xml:space="preserve">
<g>
	<path style="fill:#6D6864;" d="M379.646,372.059l34.592,11.685l-3.853,8.126c-2.064,4.355-3.111,9.016-3.111,13.85
		c0,4.835,1.047,9.494,3.111,13.85l3.853,8.126l-34.592,11.685V372.059z"/>
	<path style="fill:#6D6864;" d="M379.646,74.62l34.592,11.685l-3.853,8.126c-2.064,4.355-3.111,9.015-3.111,13.85
		c0,4.836,1.047,9.495,3.111,13.85l3.853,8.126l-34.592,11.685V74.62z"/>
</g>
<path style="fill:#FF9100;" d="M324.792,505.002c-7.442,0-13.496-5.902-13.496-13.158c0-7.256,6.054-13.158,13.496-13.158
	c15.915,0,28.861-12.181,28.861-27.152V60.467c0-14.973-12.946-27.152-28.861-27.152c-7.442,0-13.496-5.902-13.496-13.158
	s6.054-13.158,13.496-13.158c30.798,0,55.853,23.986,55.853,53.469v391.065C380.645,481.015,355.59,505.002,324.792,505.002z"/>
<g>
	<path style="fill:#87461A;" d="M439.738,439.182c-18.452,0-33.464-15.012-33.464-33.463c0-18.452,15.012-33.464,33.464-33.464
		c18.451,0,33.463,15.012,33.463,33.464C473.2,424.171,458.189,439.182,439.738,439.182z"/>
	<path style="fill:#87461A;" d="M439.738,141.742c-18.452,0-33.464-15.012-33.464-33.464c0-18.451,15.012-33.463,33.464-33.463
		c18.451,0,33.463,15.012,33.463,33.463C473.2,126.732,458.189,141.742,439.738,141.742z"/>
</g>
<g>
	<path style="fill:#753B14;" d="M435.752,395.893c0-9,3.578-17.176,9.378-23.197c-1.757-0.286-3.557-0.441-5.393-0.441
		c-18.452,0-33.464,15.012-33.464,33.464c0,18.451,15.012,33.463,33.464,33.463c9.451,0,17.993-3.945,24.084-10.267
		C447.926,426.328,435.752,412.508,435.752,395.893z"/>
	<path style="fill:#753B14;" d="M435.752,98.453c0-9,3.578-17.175,9.378-23.196c-1.757-0.286-3.557-0.441-5.393-0.441
		c-18.452,0-33.464,15.012-33.464,33.463c0,18.452,15.012,33.464,33.464,33.464c9.45,0,17.993-3.945,24.083-10.267
		C447.926,128.888,435.752,115.069,435.752,98.453z"/>
</g>
<path style="fill:#FF9100;" d="M141.89,505.002c-39.356,0-71.374-32.018-71.374-71.375V78.373c0-39.357,32.019-71.375,71.374-71.375
	s71.374,32.018,71.374,71.375v355.255C213.264,472.983,181.246,505.002,141.89,505.002z"/>
<path style="fill:#E2810C;" d="M138.156,389.083V33.83c0-9.473,1.871-18.514,5.238-26.794c-0.502-0.01-1-0.038-1.504-0.038
	c-39.356,0-71.374,32.018-71.374,71.375v355.255c0,39.356,32.018,71.375,71.374,71.375c29.882,0,55.518-18.467,66.137-44.582
	C169.364,459.615,138.156,427.935,138.156,389.083z"/>
<rect x="61.749" y="116.467" style="fill:#9BB8BC;" width="152.817" height="25.278"/>
<g>
	<path style="fill:#87461A;" d="M49.194,154.697c-5.73,0-10.393-4.662-10.393-10.393v-30.402c0-5.73,4.663-10.393,10.393-10.393
		h20.598c5.73,0,10.393,4.663,10.393,10.393v30.402c0,5.73-4.663,10.393-10.393,10.393H49.194z"/>
	<path style="fill:#87461A;" d="M213.988,154.697c-5.73,0-10.393-4.662-10.393-10.393v-30.402c0-5.73,4.663-10.393,10.393-10.393
		h20.598c5.73,0,10.393,4.663,10.393,10.393v30.402c0,5.73-4.663,10.393-10.393,10.393H213.988z"/>
</g>
<rect x="61.749" y="374.275" style="fill:#9BB8BC;" width="152.817" height="25.278"/>
<g>
	<path style="fill:#87461A;" d="M49.194,410.511c-5.73,0-10.393-4.662-10.393-10.393v-30.402c0-5.73,4.663-10.393,10.393-10.393
		h20.598c5.73,0,10.393,4.663,10.393,10.393v30.402c0,5.73-4.663,10.393-10.393,10.393H49.194z"/>
	<path style="fill:#87461A;" d="M213.988,410.511c-5.73,0-10.393-4.662-10.393-10.393v-30.402c0-5.73,4.663-10.393,10.393-10.393
		h20.598c5.73,0,10.393,4.663,10.393,10.393v30.402c0,5.73-4.663,10.393-10.393,10.393H213.988z"/>
</g>
<g>
	<path style="fill:#753B14;" d="M61.154,144.305v-30.402c0-5.434,4.195-9.901,9.515-10.349c-0.29-0.024-0.582-0.044-0.878-0.044
		H49.194c-5.73,0-10.393,4.663-10.393,10.393v30.402c0,5.73,4.663,10.393,10.393,10.393h20.598c0.296,0,0.588-0.02,0.878-0.044
		C65.349,154.205,61.154,149.739,61.154,144.305z"/>
	<path style="fill:#753B14;" d="M225.949,144.305v-30.402c0-5.434,4.195-9.901,9.515-10.349c-0.29-0.024-0.582-0.044-0.878-0.044
		h-20.598c-5.73,0-10.393,4.663-10.393,10.393v30.402c0,5.73,4.663,10.393,10.393,10.393h20.598c0.296,0,0.588-0.02,0.878-0.044
		C230.144,154.205,225.949,149.739,225.949,144.305z"/>
	<path style="fill:#753B14;" d="M61.154,400.118v-30.402c0-5.434,4.195-9.901,9.515-10.349c-0.29-0.024-0.582-0.044-0.878-0.044
		H49.194c-5.73,0-10.393,4.663-10.393,10.393v30.402c0,5.73,4.663,10.393,10.393,10.393h20.598c0.296,0,0.588-0.02,0.878-0.044
		C65.349,410.018,61.154,405.554,61.154,400.118z"/>
	<path style="fill:#753B14;" d="M225.949,400.118v-30.402c0-5.434,4.195-9.901,9.515-10.349c-0.29-0.024-0.582-0.044-0.878-0.044
		h-20.598c-5.73,0-10.393,4.663-10.393,10.393v30.402c0,5.73,4.663,10.393,10.393,10.393h20.598c0.296,0,0.588-0.02,0.878-0.044
		C230.144,410.018,225.949,405.554,225.949,400.118z"/>
</g>
<g>
	<path style="fill:#6D6864;" d="M113.785,415.242c-6.131,0-11.12-4.989-11.12-11.12v-34.411c0-6.131,4.989-11.12,11.12-11.12h56.211
		c6.131,0,11.12,4.989,11.12,11.12v34.411c0,6.131-4.989,11.12-11.12,11.12H113.785z"/>
	<path style="fill:#6D6864;" d="M113.785,155.408c-6.131,0-11.12-4.989-11.12-11.12v-34.411c0-6.131,4.989-11.12,11.12-11.12h56.211
		c6.131,0,11.12,4.989,11.12,11.12v34.411c0,6.131-4.989,11.12-11.12,11.12H113.785z"/>
</g>
<polygon style="fill:#DD3A3A;" points="70.516,258.732 70.516,220.009 141.391,248.83 213.264,220.013 213.264,258.733 
	141.389,287.552 "/>
<path d="M188.772,426.129c-4.141,0-7.498,3.356-7.498,7.498c0,21.717-17.667,39.384-39.384,39.384s-39.383-17.667-39.383-39.384
	c0-4.142-3.357-7.498-7.498-7.498c-4.141,0-7.498,3.356-7.498,7.498c0,29.985,24.394,54.38,54.379,54.38s54.38-24.394,54.38-54.38
	C196.27,429.485,192.913,426.129,188.772,426.129z"/>
<path d="M141.89,23.993c-29.985,0-54.379,24.394-54.379,54.38c0,4.142,3.357,7.498,7.498,7.498c4.141,0,7.498-3.356,7.498-7.498
	c0-21.717,17.667-39.384,39.383-39.384s39.384,17.667,39.384,39.384c0,4.142,3.357,7.498,7.498,7.498
	c4.141,0,7.498-3.356,7.498-7.498C196.27,48.387,171.875,23.993,141.89,23.993z"/>
<path d="M234.587,161.695c9.589,0,17.391-7.802,17.391-17.391v-30.402c0-9.59-7.802-17.391-17.391-17.391h-14.325V78.373
	C220.262,35.158,185.105,0,141.89,0S63.518,35.158,63.518,78.373v18.139H49.194c-9.589,0-17.391,7.802-17.391,17.391v30.402
	c0,9.589,7.802,17.391,17.391,17.391h14.325v190.609H49.194c-9.589,0-17.391,7.802-17.391,17.391v30.402
	c0,9.59,7.802,17.391,17.391,17.391h14.325v16.139c0,43.215,35.157,78.373,78.372,78.373s78.372-35.158,78.372-78.373v-16.139
	h14.325c9.589,0,17.391-7.802,17.391-17.391v-30.402c0-9.589-7.802-17.391-17.391-17.391h-14.325v-190.61H234.587z M72.187,400.096
	c0,1.321-1.075,2.395-2.395,2.395H49.194c-1.321,0-2.395-1.075-2.395-2.395v-30.402c0-1.321,1.075-2.395,2.395-2.395h20.598
	c1.321,0,2.395,1.074,2.395,2.395V400.096z M72.187,144.305c0,1.321-1.075,2.395-2.395,2.395H49.194
	c-1.321,0-2.395-1.074-2.395-2.395v-30.402c0-1.321,1.075-2.395,2.395-2.395h20.598c1.321,0,2.395,1.075,2.395,2.395V144.305z
	 M205.266,433.627c0,34.946-28.43,63.377-63.376,63.377s-63.376-28.43-63.376-63.377v-18.508c3.937-2.294,6.895-6.083,8.089-10.586
	h9.085c0.221,9.8,8.246,17.708,18.097,17.708h56.211c9.851,0,17.876-7.908,18.097-17.708h9.085
	c1.194,4.503,4.152,8.292,8.089,10.586v18.508H205.266z M87.183,389.537v-9.282h8.484v9.282H87.183z M110.663,404.122v-34.411
	c0-1.721,1.401-3.122,3.122-3.122h56.211c1.722,0,3.122,1.401,3.122,3.122v34.411c0,1.721-1.401,3.122-3.122,3.122h-56.211
	C112.063,407.244,110.663,405.844,110.663,404.122z M188.113,389.537v-9.282h8.484v9.282H188.113z M205.266,253.323l-15.658,6.278
	c-2.899,1.163-4.75,4.023-4.615,7.143c0.004,0.096,0.008,0.192,0.012,0.289c0.213,5.073,5.382,8.411,10.094,6.521l10.166-4.076
	v85.194c-3.936,2.294-6.895,6.083-8.089,10.585h-9.641c-1.992-7.841-9.09-13.665-17.541-13.665h-56.211
	c-8.451,0-15.549,5.824-17.541,13.665h-9.641c-1.194-4.502-4.153-8.291-8.089-10.585v-85.135l60.052,24.419
	c0.906,0.368,1.864,0.553,2.824,0.553c0.948,0,1.895-0.18,2.79-0.539l2.709-1.086c2.792-1.12,4.622-3.825,4.622-6.833v-0.293
	c0-5.211-5.265-8.772-10.101-6.833l0,0l-62.895-25.577v-21.454l60.052,24.42c0.906,0.368,1.864,0.553,2.824,0.553
	c0.948,0,1.895-0.18,2.79-0.539l61.086-24.493V253.323z M205.266,215.682l-63.856,25.604l-62.896-25.577v-56.382
	c3.936-2.294,6.895-6.083,8.089-10.585h9.641c1.992,7.841,9.09,13.665,17.541,13.665h56.211c8.451,0,15.549-5.824,17.541-13.665
	h9.641c1.194,4.502,4.153,8.291,8.089,10.585v56.355H205.266z M87.183,133.745v-9.282h8.484v9.282H87.183z M110.663,144.288v-34.411
	c0-1.722,1.401-3.122,3.122-3.122h56.211c1.722,0,3.122,1.401,3.122,3.122v34.411c0,1.722-1.401,3.122-3.122,3.122h-56.211
	C112.063,147.41,110.663,146.009,110.663,144.288z M188.113,133.745v-9.282h8.484v9.282H188.113z M205.266,98.88
	c-3.937,2.294-6.895,6.083-8.089,10.586h-9.085c-0.221-9.8-8.246-17.708-18.097-17.708h-56.211c-9.851,0-17.876,7.908-18.097,17.708
	h-9.085c-1.194-4.503-4.152-8.292-8.089-10.586V78.373c0.001-34.947,28.432-63.377,63.377-63.377s63.376,28.43,63.376,63.377V98.88z
	 M234.587,367.299c1.321,0,2.395,1.074,2.395,2.395v30.402c0,1.321-1.075,2.395-2.395,2.395h-20.598
	c-1.321,0-2.395-1.075-2.395-2.395v-30.402c0-1.321,1.075-2.395,2.395-2.395H234.587z M213.988,146.699
	c-1.321,0-2.395-1.074-2.395-2.395v-30.402c0-1.321,1.075-2.395,2.395-2.395h20.598c1.321,0,2.395,1.075,2.395,2.395v30.402
	c0,1.321-1.075,2.395-2.395,2.395H213.988z"/>
<circle cx="124.726" cy="127.085" r="6.337"/>
<circle cx="159.056" cy="127.085" r="6.337"/>
<circle cx="124.726" cy="386.912" r="6.337"/>
<circle cx="159.056" cy="386.912" r="6.337"/>
<path d="M439.738,365.258c-10.459,0-20.004,3.99-27.194,10.527l-24.9-8.411v-220.75l24.9-8.411
	c7.189,6.537,16.734,10.527,27.194,10.527c22.31,0,40.461-18.151,40.461-40.462s-18.15-40.461-40.461-40.461
	c-10.459,0-20.004,3.989-27.194,10.526l-24.899-8.41v-9.467C387.643,27.125,359.448,0,324.792,0
	c-11.301,0-20.494,9.042-20.494,20.156s9.193,20.156,20.494,20.156c12.056,0,21.863,9.041,21.863,20.154v391.065
	c0,11.113-9.808,20.154-21.863,20.154c-11.301,0-20.494,9.042-20.494,20.156s9.193,20.156,20.494,20.156
	c34.656,0,62.851-27.125,62.851-60.467v-7.468l24.899-8.41c7.19,6.537,16.735,10.526,27.194,10.526
	c22.31,0,40.461-18.15,40.461-40.461C480.197,383.409,462.047,365.258,439.738,365.258z M439.738,82.815
	c14.041,0,25.465,11.424,25.465,25.465c0,14.042-11.424,25.466-25.465,25.466c-14.042,0-25.466-11.424-25.466-25.466
	C414.272,94.239,425.696,82.815,439.738,82.815z M387.643,85.763l15.516,5.241c-2.486,5.243-3.883,11.098-3.883,17.276
	c0,6.177,1.397,12.034,3.883,17.276l-15.516,5.241V85.763z M372.647,60.467L372.647,60.467v391.065l0,0l0,0
	c0,25.073-21.468,45.471-47.856,45.471c-3.031,0-5.498-2.314-5.498-5.161s2.467-5.161,5.498-5.161
	c20.324,0,36.859-15.768,36.859-35.15V60.467c0-19.383-16.534-35.15-36.859-35.15c-3.031,0-5.498-2.314-5.498-5.161
	s2.467-5.161,5.498-5.161C351.18,14.996,372.647,35.394,372.647,60.467L372.647,60.467z M403.159,422.996l-15.516,5.241v-45.033
	l15.516,5.241c-2.486,5.243-3.883,11.099-3.883,17.276S400.673,417.752,403.159,422.996z M439.738,431.185
	c-14.042,0-25.466-11.424-25.466-25.465c0-14.042,11.424-25.466,25.466-25.466c14.041,0,25.465,11.424,25.465,25.466
	C465.203,419.761,453.779,431.185,439.738,431.185z"/>
<circle cx="439.738" cy="108.28" r="10.983"/>
<circle cx="439.738" cy="405.717" r="10.983"/>
<g>
</g>
<g>
</g>
<g>
</g>
<g>
</g>
<g>
</g>
<g>
</g>
<g>
</g>
<g>
</g>
<g>
</g>
<g>
</g>
<g>
</g>
<g>
</g>
<g>
</g>
<g>
</g>
<g>
</g>
</svg>
