<?xml version="1.0" encoding="iso-8859-1"?>
<!-- Generator: Adobe Illustrator 19.0.0, SVG Export Plug-In . SVG Version: 6.00 Build 0)  -->
<svg version="1.1" id="Capa_1" xmlns="http://www.w3.org/2000/svg" xmlns:xlink="http://www.w3.org/1999/xlink" x="0px" y="0px"
	 viewBox="0 0 512.001 512.001" style="enable-background:new 0 0 512.001 512.001;" xml:space="preserve">
<path style="fill:#F01B72;" d="M292.705,105.755V65.466h50.39c2.767,0,4.631,2.83,3.539,5.372l-6.347,14.772l6.346,14.772
	c1.092,2.542-0.773,5.372-3.539,5.372h-50.389V105.755z"/>
<path style="fill:#FFB000;" d="M292.705,188.216v-40.289h50.39c2.767,0,4.631,2.83,3.539,5.372l-6.347,14.772l6.346,14.772
	c1.092,2.542-0.773,5.372-3.539,5.372L292.705,188.216L292.705,188.216z"/>
<path style="fill:#F01B72;" d="M292.705,270.678v-40.289h50.39c2.767,0,4.631,2.83,3.539,5.372l-6.347,14.772l6.346,14.772
	c1.092,2.542-0.773,5.372-3.539,5.372h-50.389V270.678z"/>
<path style="fill:#FFB000;" d="M292.705,353.139V312.85h50.39c2.767,0,4.631,2.83,3.539,5.372l-6.347,14.772l6.346,14.772
	c1.092,2.542-0.773,5.372-3.539,5.372h-50.389V353.139z"/>
<path style="fill:#F01B72;" d="M292.705,435.315v-40.289h50.39c2.767,0,4.631,2.83,3.539,5.372l-6.347,14.772l6.346,14.772
	c1.092,2.542-0.773,5.372-3.539,5.372h-50.389V435.315z"/>
<path style="fill:#1ABA9B;" d="M74.204,39.703c0-13.915,11.322-25.237,25.237-25.237h179.158c13.857,0,25.131,11.274,25.131,25.131
	v415.522l-204.126,0.076c-4.612,0-9.124,1.332-13.051,3.853l-12.348,19.856L74.204,39.703L74.204,39.703z"/>
<path style="fill:#15AD90;" d="M157.823,39.703c0-13.915,11.322-25.237,25.237-25.237h-83.62c-13.915,0-25.237,11.322-25.237,25.237
	v439.201l12.348-19.856c3.927-2.521,8.439-3.853,13.051-3.853l58.22-0.021L157.823,39.703L157.823,39.703z"/>
<path style="fill:#F0EBD2;" d="M167.073,293.475c-6.305,0-11.433-5.129-11.433-11.433v-0.631c0-6.304,5.129-11.433,11.433-11.433
	h78.839v23.497L167.073,293.475L167.073,293.475z"/>
<path style="fill:#0D997E;" d="M202.378,239.759c-24.004,0-43.533-19.53-43.533-43.534s19.529-43.533,43.533-43.533
	s43.534,19.529,43.534,43.533S226.382,239.759,202.378,239.759z"/>
<g>
	<path style="fill:#F0EBD2;" d="M151.465,423.189c-8.089,0-14.669-6.58-14.669-14.669v-67.943c0-8.089,6.58-14.67,14.669-14.67
		h94.448v97.282L151.465,423.189L151.465,423.189z"/>
	<path style="fill:#F0EBD2;" d="M151.465,116.539c-8.089,0-14.669-6.58-14.669-14.67V59.7c0-8.089,6.58-14.67,14.669-14.67h94.448
		v71.508H151.465z"/>
</g>
<path style="fill:#FFC022;" d="M244.91,455.137V13.813c0-3.754,3.044-6.798,6.798-6.798h9.457c3.754,0,6.798,3.044,6.798,6.798
	v441.324H244.91z"/>
<path style="fill:#CE7C45;" d="M421.178,444.288c-9.456,0.158-17.193-7.895-17.193-17.351V112.643l12.503-29.4
	c1.652-3.882,7.155-3.882,8.806,0l12.503,29.4v314.741C437.797,436.61,430.368,444.135,421.178,444.288z"/>
<path style="fill:#A35A29;" d="M420.89,444.29c-9.322,0-16.906-7.584-16.906-16.906v-32.075h33.812v32.075
	C437.797,436.706,430.213,444.29,420.89,444.29z"/>
<path style="fill:#F0EBD2;" d="M100.16,504.985c-6.964,0-13.776-2.872-18.69-7.88c-4.81-4.902-7.389-11.296-7.262-18.005
	c0.261-13.733,11.652-24.906,25.395-24.906l204.126-0.075v25.736c0,13.857-11.274,25.131-25.131,25.131L100.16,504.985
	L100.16,504.985z"/>
<path d="M181.379,471.387h-72.884c-4.151,0-7.516,3.364-7.516,7.516c0,4.152,3.365,7.516,7.516,7.516h72.884
	c4.151,0,7.516-3.364,7.516-7.516C188.895,474.752,185.53,471.387,181.379,471.387z"/>
<path d="M213.401,471.387c-4.151,0-7.516,3.364-7.516,7.516c0,4.152,3.365,7.516,7.516,7.516h52.894
	c4.151,0,7.516-3.364,7.516-7.516c0-4.152-3.365-7.516-7.516-7.516H213.401z"/>
<path d="M351.066,64.068c-2.317-3.517-6.216-5.616-10.427-5.616h-29.893V39.598c0-17.726-14.421-32.146-32.146-32.146h-5.001
	C271.425,3.046,266.899,0,261.663,0H251.21c-5.235,0-9.761,3.046-11.935,7.451H99.441c-17.784,0-32.252,14.469-32.252,32.252
	v436.957c0,0.323,0.027,0.638,0.066,0.95c-0.027,0.45-0.051,0.901-0.06,1.355c-0.163,8.609,3.129,16.796,9.268,23.053
	c6.225,6.344,14.862,9.982,23.698,9.982h178.438c17.726,0,32.146-14.422,32.146-32.146v-37.238h29.893
	c4.212,0,8.11-2.101,10.427-5.617c2.317-3.517,2.708-7.928,1.045-11.798l-4.187-9.744l4.186-9.745
	c1.664-3.869,1.273-8.281-1.044-11.798s-6.216-5.617-10.427-5.617h-29.893v-28.141h29.893c4.212,0,8.111-2.101,10.428-5.617
	c2.317-3.518,2.707-7.927,1.044-11.797l-4.187-9.746l4.187-9.745c1.663-3.869,1.272-8.281-1.045-11.798s-6.216-5.616-10.427-5.616
	h-29.893v-28.141h29.893c4.212,0,8.11-2.101,10.427-5.616c2.317-3.518,2.708-7.928,1.045-11.799l-4.187-9.744l4.186-9.745
	c1.663-3.869,1.273-8.28-1.044-11.797c-2.317-3.518-6.216-5.617-10.428-5.617h-29.893v-28.141h29.893
	c4.212,0,8.11-2.101,10.427-5.617c2.317-3.517,2.708-7.928,1.045-11.798l-4.187-9.744l4.186-9.745
	c1.664-3.869,1.273-8.281-1.044-11.798c-2.317-3.517-6.216-5.617-10.427-5.617h-29.893v-28.141h29.893
	c4.212,0,8.111-2.101,10.428-5.617c2.317-3.518,2.707-7.927,1.044-11.797l-4.187-9.746l4.187-9.745
	C353.774,71.996,353.383,67.586,351.066,64.068z M252.927,15.033h7.016v432.085h-1.335h-5.682L252.927,15.033L252.927,15.033z
	 M82.221,39.703c0-8.653,6.423-15.816,14.747-17.021v181.712c0,4.152,3.365,7.516,7.516,7.516c4.151,0,7.516-3.364,7.516-7.516
	V22.484h125.893v15.532h-86.431c-11.957,0-21.684,9.728-21.684,21.685v42.168c0,11.957,9.728,21.685,21.684,21.685h86.431v36.743
	c-9.136-9.033-21.684-14.622-35.517-14.622c-27.873,0-50.548,22.677-50.548,50.548c0,27.874,22.676,50.549,50.548,50.549
	c13.832,0,26.381-5.589,35.517-14.622v30.809h-70.822c-10.172,0-18.448,8.276-18.448,18.448v0.631
	c0,10.172,8.276,18.448,18.448,18.448h70.822v18.4h-86.431c-11.957,0-21.684,9.728-21.684,21.685v67.943
	c0,11.957,9.728,21.684,21.684,21.684h86.431v16.922l-125.893,0.046V237.449c0-4.152-3.365-7.516-7.516-7.516
	c-4.151,0-7.516,3.364-7.516,7.516v209.846c-5.379,0.443-10.408,2.222-14.747,5.007V39.703z M237.894,53.049v55.473h-86.431
	c-3.668,0-6.652-2.985-6.652-6.653V59.7c0-3.668,2.985-6.653,6.652-6.653L237.894,53.049L237.894,53.049z M237.894,196.225
	c0,19.584-15.933,35.517-35.517,35.517s-35.516-15.933-35.516-35.517s15.932-35.516,35.516-35.516S237.894,176.641,237.894,196.225z
	 M237.894,277.996v7.462h-70.822c-1.883,0-3.415-1.532-3.415-3.415v-0.631c0-1.883,1.532-3.415,3.415-3.415L237.894,277.996
	L237.894,277.996z M237.894,333.924v81.247h-86.431c-3.668,0-6.652-2.985-6.652-6.652v-67.944c0-3.668,2.985-6.653,6.652-6.653
	h86.431V333.924z M295.712,479.854c0,9.437-7.677,17.113-17.113,17.113H100.16c-4.825,0-9.551-1.996-12.966-5.478
	c-3.29-3.353-5.055-7.7-4.969-12.239c0.177-9.397,7.972-17.04,17.378-17.04l159.008-0.059h8.85c0.022,0,0.043-0.003,0.065-0.003
	l28.186-0.01V479.854z M295.712,447.105l-20.734,0.008V22.484h3.621c9.437,0,17.113,7.677,17.113,17.113V447.105 M336.773,403.327
	l-3.936,9.162c-0.814,1.894-0.814,4.039,0,5.934l3.936,9.16h-26.028v-24.255h26.028V403.327z M336.773,320.866l-3.936,9.16
	c-0.814,1.895-0.814,4.04,0,5.934l3.936,9.161h-26.028v-24.254h26.028V320.866z M336.773,238.406l-3.936,9.161
	c-0.814,1.894-0.814,4.039,0,5.934l3.936,9.16h-26.028v-24.254h26.028V238.406z M336.773,155.945l-3.936,9.162
	c-0.814,1.894-0.814,4.039,0,5.934l3.936,9.16h-26.028v-24.255h26.028V155.945z M332.837,88.578l3.936,9.161h-26.028V73.484h26.028
	l-3.936,9.16C332.023,84.539,332.023,86.683,332.837,88.578z"/>
<path d="M429.78,282.139v84.893h-17.777V126.54h17.777v106.691c0,4.151,3.365,7.516,7.516,7.516l0,0
	c4.151,0,7.516-3.365,7.516-7.516V112.747c0-1.011-0.203-2.011-0.599-2.941L430.832,78.34c-1.699-3.994-5.601-6.575-9.942-6.575
	s-8.243,2.581-9.942,6.575l-13.38,31.465c-0.396,0.93-0.599,1.93-0.599,2.941V426.84c0,13.383,10.951,24.688,24.332,24.461
	c13.001-0.22,23.51-10.865,23.51-23.918V282.139c0-4.151-3.365-7.516-7.516-7.516l0,0
	C433.144,274.622,429.78,277.988,429.78,282.139z M420.89,93.377l7.71,18.13h-15.42L420.89,93.377z M429.78,427.384
	c0,4.902-3.988,8.888-8.888,8.888s-8.888-3.988-8.888-8.888v-24.058h17.777L429.78,427.384L429.78,427.384z M429.78,388.294h-17.777
	v-6.23h17.777V388.294z"/>
<g>
</g>
<g>
</g>
<g>
</g>
<g>
</g>
<g>
</g>
<g>
</g>
<g>
</g>
<g>
</g>
<g>
</g>
<g>
</g>
<g>
</g>
<g>
</g>
<g>
</g>
<g>
</g>
<g>
</g>
</svg>
