<?xml version="1.0" encoding="iso-8859-1"?>
<!-- Generator: Adobe Illustrator 19.0.0, SVG Export Plug-In . SVG Version: 6.00 Build 0)  -->
<svg version="1.1" id="Capa_1" xmlns="http://www.w3.org/2000/svg" xmlns:xlink="http://www.w3.org/1999/xlink" x="0px" y="0px"
	 viewBox="0 0 512 512" style="enable-background:new 0 0 512 512;" xml:space="preserve">
<path style="fill:#87461A;" d="M347.983,424.573v37.933c0,23.152-18.761,41.913-41.913,41.913h-52.754
	c-23.152,0-41.923-18.761-41.923-41.913v-37.933H347.983z"/>
<path style="fill:#773B12;" d="M256.704,492.174v-8.713c0-16.138,13.082-29.22,29.22-29.22h62.059v-29.667h-136.59v37.933
	c0,23.148,18.765,41.913,41.913,41.913h5.22C257.344,500.545,256.704,496.435,256.704,492.174z"/>
<path style="fill:#EFE8CE;" d="M149.357,296.714c2.57,2.57,4.16,6.13,4.16,10.061c0,7.851-6.36,14.221-14.221,14.221H28.538
	c-3.93,0-7.491-1.59-10.061-4.17c-2.58-2.57-4.17-6.12-4.17-10.051c0-7.861,6.37-14.231,14.231-14.231h7.271
	c-2.81-4.31-4.45-9.451-4.45-14.981c0-15.171,12.301-27.472,27.482-27.472c13.051,0,23.972,9.101,26.772,21.312
	c3.47-3.23,8.101-5.22,13.211-5.22c10.731,0,19.431,8.701,19.431,19.431c0,2.44-0.47,4.77-1.29,6.931h22.332
	C143.227,292.543,146.787,294.133,149.357,296.714z"/>
<path style="fill:#E2DAB5;" d="M63.582,306.774c0-7.861,6.37-14.231,14.231-14.231h7.271c-2.81-4.31-4.45-9.451-4.45-14.981
	c0-4.36,1.021-8.482,2.829-12.144c-4.484-9.079-13.815-15.328-24.622-15.328c-15.181,0-27.482,12.301-27.482,27.472
	c0,5.53,1.64,10.671,4.45,14.981h-7.271c-7.861,0-14.231,6.37-14.231,14.231c0,3.93,1.59,7.481,4.17,10.051
	c2.57,2.58,6.13,4.17,10.061,4.17h49.275c-3.93,0-7.491-1.59-10.061-4.17C65.172,314.255,63.582,310.705,63.582,306.774z"/>
<path style="fill:#EFE8CE;" d="M494.934,277.262c1.67,1.68,2.71,3.99,2.71,6.55c0,5.11-4.15,9.261-9.261,9.261h-72.105
	c-2.55,0-4.87-1.04-6.55-2.71c-1.67-1.68-2.71-4-2.71-6.55c0-5.12,4.15-9.261,9.261-9.261h4.73c-1.82-2.81-2.89-6.16-2.89-9.761
	c0-9.871,8.011-17.881,17.881-17.881c8.501,0,15.611,5.93,17.431,13.871c2.26-2.1,5.28-3.39,8.611-3.39
	c6.981,0,12.641,5.66,12.641,12.641c0,1.59-0.3,3.11-0.84,4.52h14.541C490.933,274.552,493.254,275.582,494.934,277.262z"/>
<path style="fill:#E2DAB5;" d="M441.43,283.813c0-5.12,4.15-9.261,9.261-9.261h4.73c-1.82-2.81-2.89-6.16-2.89-9.761
	c0-1.673,0.247-3.285,0.677-4.821c-2.106-7.527-9.002-13.06-17.208-13.06c-9.871,0-17.881,8.011-17.881,17.881
	c0,3.6,1.07,6.951,2.89,9.761h-4.73c-5.11,0-9.261,4.14-9.261,9.261c0,2.55,1.04,4.87,2.71,6.55c1.68,1.67,4,2.71,6.55,2.71h34.413
	c-2.55,0-4.87-1.04-6.55-2.71C442.47,288.683,441.43,286.363,441.43,283.813z"/>
<path style="fill:#FAF7E6;" d="M426.969,154.473c0,48.144-23.172,90.867-58.954,117.659c-2.96,2.21-4.74,5.66-4.74,9.351v41.553
	H196.881v-41.563c0-3.68-1.77-7.111-4.71-9.321c-36.213-27.092-59.505-70.485-58.974-119.309
	c0.86-79.746,66.075-144.691,145.821-145.261C360.623,7.012,426.969,72.997,426.969,154.473z"/>
<path style="fill:#E2DAB5;" d="M319.11,272.152c-36.213-27.092-59.505-70.485-58.974-119.309
	c0.62-57.489,34.688-107.281,83.531-130.813c-19.54-9.401-41.478-14.61-64.649-14.448c-79.746,0.57-144.961,65.515-145.821,145.261
	c-0.53,48.824,22.762,92.217,58.974,119.309c2.94,2.21,4.71,5.64,4.71,9.321v41.563h126.939v-41.563
	C323.821,277.792,322.051,274.362,319.11,272.152z"/>
<path style="fill:#DD3A3A;" d="M352.073,154.473c0,48.144-11.361,90.867-28.902,117.659c-1.45,2.21-2.32,5.66-2.32,9.351v34.553
	h-81.556v-34.563c0-3.68-0.86-7.111-2.31-9.321c-17.741-27.092-29.162-70.485-28.902-119.309
	c0.43-79.746,32.392-144.691,71.475-145.261C319.56,7.012,352.073,72.997,352.073,154.473z"/>
<path style="fill:#C92B2B;" d="M319.11,272.152c-36.213-27.092-59.505-70.485-58.974-119.309
	c0.523-48.501,24.853-91.524,61.777-117.921c-11.682-17.047-25.966-27.141-41.403-27.329c-0.346-0.001-0.69-0.009-1.036-0.008
	c-39.045,0.662-70.961,65.569-71.391,145.258c-0.26,48.824,11.161,92.217,28.902,119.309c1.45,2.21,2.31,5.64,2.31,9.321v34.563
	h81.556v-34.553c0-2.338,0.351-4.577,0.976-6.468C321.094,273.93,320.182,272.958,319.11,272.152z"/>
<path style="fill:#DD3A3A;" d="M363.544,309.035c7.351,0,13.311,5.95,13.311,13.301c0,3.67-1.49,7.001-3.9,9.411
	c-2.41,2.4-5.73,3.89-9.411,3.89H195.831c-7.351,0-13.301-5.95-13.301-13.301c0-3.67,1.49-7.001,3.89-9.411
	c2.41-2.4,5.73-3.89,9.411-3.89H363.544z"/>
<path style="fill:#72350C;" d="M341.612,414.663c5.78,0,10.461,4.68,10.461,10.451c0,2.89-1.17,5.5-3.06,7.401
	c-1.89,1.89-4.51,3.06-7.401,3.06H217.763c-5.77,0-10.451-4.68-10.451-10.461c0-2.88,1.17-5.5,3.06-7.391
	c1.89-1.89,4.5-3.06,7.391-3.06H341.612z"/>
<path d="M139.297,285.043H125.75c-0.304-14.588-12.266-26.362-26.926-26.362c-3.271,0-6.474,0.594-9.475,1.728
	c-6.043-10.831-17.528-17.818-30.508-17.818c-19.289,0-34.983,15.688-34.983,34.973c0,2.648,0.298,5.267,0.881,7.814
	C14.562,287.18,6.807,296.09,6.807,306.775c0,5.813,2.265,11.27,6.356,15.344c4.096,4.112,9.557,6.377,15.375,6.377h110.758
	c11.978,0,21.722-9.744,21.722-21.722c0-5.809-2.258-11.266-6.347-15.354C150.574,287.308,145.115,285.043,139.297,285.043z
	 M139.297,313.495H28.538c-1.8,0-3.486-0.697-4.768-1.984c-1.265-1.26-1.962-2.941-1.962-4.735c0-3.711,3.019-6.73,6.731-6.73h7.271
	c2.752,0,5.283-1.508,6.595-3.927c1.311-2.42,1.191-5.363-0.312-7.67c-2.115-3.244-3.233-7.01-3.233-10.886
	c0-11.013,8.964-19.972,19.982-19.972c9.368,0,17.37,6.368,19.461,15.487c0.599,2.612,2.546,4.706,5.108,5.493
	c2.561,0.784,5.349,0.147,7.312-1.68c2.225-2.07,5.101-3.21,8.102-3.21c6.578,0,11.931,5.352,11.931,11.931
	c0,1.431-0.27,2.867-0.802,4.27c-0.875,2.305-0.561,4.892,0.839,6.922s3.708,3.24,6.173,3.24h22.332c1.8,0,3.485,0.697,4.757,1.974
	c1.266,1.266,1.963,2.955,1.963,4.756C146.017,310.48,143.003,313.495,139.297,313.495z"/>
<path d="M505.144,283.813c0-4.461-1.737-8.666-4.907-11.855c-3.164-3.164-7.375-4.906-11.854-4.906h-6.421
	c-1.444-9.698-9.828-17.161-19.922-17.161c-1.708,0-3.39,0.215-5.013,0.632c-4.599-6.816-12.354-11.113-21.029-11.113
	c-13.996,0-25.382,11.387-25.382,25.383c0,1.065,0.066,2.125,0.198,3.174c-6.568,2.27-11.299,8.517-11.299,15.847
	c0,4.462,1.737,8.667,4.922,11.869c3.172,3.154,7.377,4.892,11.838,4.892h72.105C497.625,300.574,505.144,293.054,505.144,283.813z
	 M415.046,285.074c-0.197-0.198-0.528-0.625-0.528-1.261c0-0.971,0.79-1.76,1.76-1.76h4.73c2.748,0,5.276-1.503,6.589-3.917
	c1.313-2.414,1.2-5.353-0.293-7.66c-1.103-1.703-1.686-3.669-1.686-5.684c0-5.724,4.657-10.382,10.381-10.382
	c4.795,0,9.052,3.384,10.12,8.047c0.599,2.611,2.544,4.705,5.105,5.492c2.559,0.789,5.346,0.149,7.311-1.673
	c0.68-0.632,1.84-1.385,3.506-1.385c2.834,0,5.14,2.306,5.14,5.14c0,0.624-0.116,1.242-0.344,1.838
	c-0.883,2.306-0.575,4.898,0.825,6.934c1.399,2.035,3.71,3.25,6.179,3.25h14.541c0.606,0,1.012,0.279,1.231,0.498
	c0.241,0.242,0.529,0.658,0.529,1.262c0,0.971-0.79,1.76-1.76,1.76h-72.105C415.643,285.573,415.215,285.242,415.046,285.074z"/>
<path d="M34.123,139.335h67.996c4.142,0,7.501-3.357,7.501-7.501c0-4.143-3.358-7.501-7.501-7.501H34.123
	c-4.142,0-7.501,3.357-7.501,7.501C26.622,135.977,29.98,139.335,34.123,139.335z"/>
<path d="M102.119,201.577H59.6c-4.142,0-7.501,3.357-7.501,7.501c0,4.143,3.358,7.501,7.501,7.501h42.519
	c4.142,0,7.501-3.357,7.501-7.501C109.619,204.935,106.261,201.577,102.119,201.577z"/>
<path d="M50.02,428.071H7.501c-4.142,0-7.501,3.357-7.501,7.501c0,4.143,3.358,7.501,7.501,7.501H50.02
	c4.142,0,7.501-3.357,7.501-7.501C57.52,431.428,54.162,428.071,50.02,428.071z"/>
<path d="M504.499,349.5h-65.556c-4.142,0-7.501,3.357-7.501,7.501c0,4.143,3.358,7.501,7.501,7.501h65.556
	c4.142,0,7.501-3.357,7.501-7.501C512,352.857,508.643,349.5,504.499,349.5z"/>
<path d="M388.863,44.919C359.65,15.911,320.953,0.06,279.797,0.086c-0.117,0.001-0.233-0.006-0.35-0.004
	c-0.015,0-0.031,0.001-0.046,0.002c-0.146,0-0.292-0.004-0.438-0.003c-40.548,0.29-78.809,16.315-107.732,45.125
	c-28.926,28.813-45.098,67.01-45.535,107.555c-0.269,24.726,5.442,49.37,16.515,71.269c10.7,21.163,26.422,39.879,45.452,54.116
	c1.091,0.82,1.716,2.032,1.716,3.325v21.094c-3.076,1-5.905,2.706-8.275,5.066c-3.918,3.935-6.076,9.157-6.076,14.703
	c0,10.358,7.619,18.947,17.541,20.52l33.228,64.306h-8.036c-4.796,0-9.305,1.867-12.694,5.257c-3.39,3.391-5.257,7.899-5.257,12.694
	c0,4.318,1.532,8.285,4.08,11.387v26.006c0,27.247,22.172,49.414,49.424,49.414h52.754c27.247,0,49.414-22.167,49.414-49.414
	v-25.979c2.647-3.213,4.09-7.206,4.09-11.414c0-9.898-8.058-17.951-17.961-17.951h-7.263l33.29-64.426
	c3.989-0.792,7.663-2.742,10.619-5.686c3.932-3.931,6.097-9.157,6.097-14.714c0-8.927-5.664-16.535-13.581-19.482V281.48
	c0-1.284,0.646-2.532,1.735-3.346c18.809-14.084,34.397-32.552,45.076-53.408c11.203-21.879,16.883-45.515,16.883-70.255
	C434.469,113.031,418.273,74.125,388.863,44.919z M140.697,152.924c0.666-61.771,42.379-114.399,98.891-131.767
	c-23.229,26.379-38.7,75.035-39.005,131.645c-0.26,48.825,10.722,93.823,30.131,123.463c0.374,0.569,1.081,2.391,1.081,5.206v20.062
	h-27.412v-20.062c0-5.964-2.88-11.69-7.718-15.327C161.137,239.567,140.216,197.241,140.697,152.924z M209.603,343.14H244.5
	l11.102,60.662h-14.654L209.603,343.14z M340.482,462.506c0,18.975-15.438,34.413-34.413,34.413h-52.754
	c-18.98,0-34.423-15.438-34.423-34.413v-19.431h121.589V462.506z M341.612,422.163c1.632,0,2.96,1.323,2.96,2.95
	c0,1.016-0.478,1.709-0.862,2.097c-0.322,0.322-1.024,0.863-2.098,0.863H217.763c-1.627,0-2.95-1.328-2.95-2.96
	c0-1.064,0.541-1.764,0.864-2.087c0.322-0.322,1.021-0.863,2.086-0.863H341.612z M259.75,343.14h40.648l-11.102,60.662h-18.444
	L259.75,343.14z M319.2,403.802h-14.653l11.102-60.662h34.897L319.2,403.802z M367.662,326.431c-1.104,1.1-2.566,1.705-4.118,1.705
	H195.831c-3.198,0-5.8-2.602-5.8-5.8c0-1.552,0.605-3.015,1.683-4.097c1.104-1.099,2.565-1.704,4.117-1.704h167.713
	c3.204,0,5.81,2.603,5.81,5.801C369.354,323.886,368.75,325.344,367.662,326.431z M363.528,266.121
	c-4.855,3.624-7.755,9.367-7.755,15.36v20.052h-27.422v-20.052c0-2.826,0.713-4.66,1.095-5.241
	c16.01-24.453,26.304-59.495,29.248-98.465c0.328-4.347-3.14-8.05-7.5-8.05l0,0c-3.931,0-7.182,3.035-7.486,6.955
	c-2.809,36.213-12.389,69.311-26.809,91.337c-2.289,3.488-3.549,8.271-3.549,13.464v20.052h-66.555v-20.062
	c0-5.185-1.257-9.957-3.535-13.43c-17.571-26.832-27.918-69.882-27.677-115.16c0.4-74.195,29.747-137.3,64.082-137.801
	c9.056-0.133,17.956,4.04,26.429,12.394c19.652,19.374,33.451,57.7,37.348,101.569c0.345,3.887,3.579,6.88,7.483,6.88l0,0
	c4.425,0,7.868-3.804,7.483-8.214c-3.92-44.818-17.586-83.808-37.792-106.674c21.524,6.509,41.262,18.227,57.678,34.529
	c26.553,26.368,41.176,61.494,41.176,98.909C419.468,198.808,399.075,239.505,363.528,266.121z"/>
<g>
</g>
<g>
</g>
<g>
</g>
<g>
</g>
<g>
</g>
<g>
</g>
<g>
</g>
<g>
</g>
<g>
</g>
<g>
</g>
<g>
</g>
<g>
</g>
<g>
</g>
<g>
</g>
<g>
</g>
</svg>
