<?xml version="1.0" encoding="iso-8859-1"?>
<!-- Generator: Adobe Illustrator 19.0.0, SVG Export Plug-In . SVG Version: 6.00 Build 0)  -->
<svg version="1.1" id="Capa_1" xmlns="http://www.w3.org/2000/svg" xmlns:xlink="http://www.w3.org/1999/xlink" x="0px" y="0px"
	 viewBox="0 0 512 512" style="enable-background:new 0 0 512 512;" xml:space="preserve">
<g>
	<path style="fill:#FAF7E6;" d="M362.116,222.79c-6.29,0-11.408-5.117-11.408-11.408c0-6.29,5.117-11.408,11.408-11.408h4.677
		c-1.973-3.323-3.012-7.102-3.012-10.987c0-11.893,9.675-21.567,21.567-21.567c9.836,0,18.279,6.506,20.814,15.923
		c2.771-2.316,6.236-3.583,9.849-3.583c8.49,0,15.396,6.907,15.396,15.396c0,1.63-0.264,3.248-0.785,4.816h16.416
		c6.29,0,11.408,5.117,11.408,11.408c0,6.29-5.117,11.408-11.408,11.408H362.116z"/>
	<path style="fill:#FAF7E6;" d="M28.755,155.47c-8.119,0-14.724-6.604-14.724-14.723s6.604-14.723,14.724-14.723h6.365
		c-2.647-4.365-4.043-9.351-4.043-14.479c0-15.423,12.549-27.971,27.972-27.971c12.84,0,23.847,8.544,27.057,20.883
		c3.614-3.095,8.173-4.79,12.929-4.79c10.987,0,19.926,8.938,19.926,19.925c0,2.178-0.364,4.339-1.084,6.433h21.619
		c8.119,0,14.724,6.604,14.724,14.723s-6.604,14.723-14.724,14.723H28.755z"/>
</g>
<g>
	<path style="fill:#EFE8CE;" d="M401.935,207.963c-6.29,0-11.408-5.117-11.408-11.408s5.117-11.408,11.408-11.408h4.677
		c-1.298-2.186-2.183-4.572-2.642-7.053c-3.772-6.496-10.746-10.674-18.621-10.674c-11.893,0-21.567,9.675-21.567,21.567
		c0,3.886,1.039,7.665,3.012,10.987h-4.677c-6.29,0-11.408,5.117-11.408,11.408c0,6.29,5.117,11.408,11.408,11.408h84.923
		c6.29,0,11.408-5.117,11.408-11.408c0-1.191-0.185-2.339-0.525-3.419H401.935z"/>
	<path style="fill:#EFE8CE;" d="M68.574,140.643c-8.119,0-14.724-6.604-14.724-14.723s6.604-14.723,14.724-14.723h6.365
		c-2.647-4.365-4.043-9.351-4.043-14.479c0-3.396,0.609-6.65,1.723-9.664c-4.037-2.227-8.667-3.481-13.57-3.481
		c-15.423,0-27.972,12.548-27.972,27.971c0,5.128,1.396,10.116,4.043,14.479h-6.365c-8.119,0-14.724,6.604-14.724,14.723
		s6.604,14.723,14.724,14.723h110.74c8.119,0,14.724-6.604,14.724-14.723c0-0.035-0.005-0.068-0.005-0.103H68.574z"/>
</g>
<path style="fill:#D66E18;" d="M380.858,428.427l-42.879-78.289l27.554-41.719c2.064-3.125,5.42-4.932,9.207-4.958l0.175,0.001
	c3.787,0.056,7.236,2.013,9.23,5.232l74.065,119.733h-77.352V428.427z"/>
<polygon style="fill:#C65C0E;" points="337.98,350.138 380.858,428.427 415.204,428.427 356.755,321.71 "/>
<path style="fill:#EFE8CE;" d="M369.424,362.606l-21.745,5.244l-9.699-17.711l27.553-41.719c2.064-3.125,5.42-4.932,9.207-4.958
	l0.175,0.001c3.786,0.056,7.236,2.013,9.23,5.232l29.369,47.478l-30.488,13.948L369.424,362.606z"/>
<path style="fill:#518440;" d="M264.637,428.427l-42.459-95.531l45.656-78.079c2.002-3.425,5.575-5.47,9.558-5.47l0.134,0.001
	c4.031,0.056,7.595,2.201,9.533,5.736l94.94,173.342L264.637,428.427L264.637,428.427z"/>
<path style="fill:#D66E18;" d="M264.637,428.427l-42.459-95.531l45.656-78.079c2.002-3.425,5.575-5.47,9.558-5.47l0.134,0.001
	c4.031,0.056,7.595,2.201,9.533,5.736l94.94,173.342L264.637,428.427L264.637,428.427z"/>
<polygon style="fill:#C65C0E;" points="222.177,332.897 264.637,428.427 302.088,428.427 243.454,296.511 "/>
<path style="fill:#EFE8CE;" d="M275.868,322.992l-21.11,5.092l-23.218-11.204l36.292-62.062c2.002-3.425,5.574-5.47,9.557-5.47
	l0.134,0.001c4.032,0.056,7.596,2.201,9.534,5.736l33.515,61.193l-31.102,14.228L275.868,322.992z"/>
<path style="fill:#D66E18;" d="M50.202,428.427l100.981-212.795c1.846-3.893,5.68-6.311,10.007-6.311h0.114
	c4.368,0.056,8.183,2.569,9.956,6.56l94.471,212.546L50.202,428.427L50.202,428.427z"/>
<path style="fill:#C65C0E;" d="M171.26,215.881c-1.773-3.992-5.588-6.504-9.956-6.56h-0.114c-4.327,0-8.161,2.419-10.007,6.311
	L50.202,428.427h36.356l92.518-194.961L171.26,215.881z"/>
<path style="fill:#EFE8CE;" d="M159.108,294.597l-21.111,5.092l-21.727-10.485l34.913-73.573c1.846-3.893,5.68-6.311,10.007-6.311
	h0.114c4.368,0.056,8.183,2.57,9.956,6.56l32.096,72.211l-30.645,14.02L159.108,294.597z"/>
<g>
	<path style="fill:#0B7B6D;" d="M483.147,395.84c-8.712,0-15.799-7.087-15.799-15.799v-14.055c0-8.711,7.087-15.799,15.799-15.799
		c8.712,0,15.799,7.088,15.799,15.799v14.055C498.946,388.753,491.859,395.84,483.147,395.84z"/>
	<path style="fill:#0B7B6D;" d="M31.512,395.84c-8.712,0-15.799-7.087-15.799-15.799v-14.055c0-8.711,7.087-15.799,15.799-15.799
		s15.799,7.087,15.799,15.799v14.055C47.31,388.753,40.224,395.84,31.512,395.84z"/>
</g>
<path d="M28.755,162.469h110.74c11.978,0,21.724-9.745,21.724-21.723c0-11.978-9.745-21.723-21.724-21.723h-13.542
	c-0.303-14.585-12.263-26.358-26.919-26.358c-3.274,0-6.478,0.593-9.479,1.727c-6.043-10.833-17.526-17.82-30.506-17.82
	c-19.283,0-34.971,15.687-34.971,34.97c0,2.649,0.298,5.266,0.881,7.812c-10.175,1.801-17.928,10.707-17.928,21.391
	C7.031,152.724,16.776,162.469,28.755,162.469z M28.755,134.022h7.27c2.752,0,5.282-1.507,6.593-3.927
	c1.312-2.42,1.192-5.362-0.311-7.668c-2.114-3.243-3.231-7.006-3.231-10.885c0-11.013,8.96-19.972,19.973-19.972
	c9.367,0,17.369,6.368,19.459,15.486c0.599,2.612,2.547,4.706,5.107,5.493c2.564,0.787,5.349,0.146,7.311-1.679
	c2.223-2.069,5.102-3.208,8.107-3.208c6.576,0,11.927,5.35,11.927,11.926c0,1.433-0.27,2.864-0.802,4.253
	c-0.882,2.306-0.573,4.897,0.826,6.931c1.399,2.034,3.71,3.249,6.178,3.249h22.332c3.708,0,6.725,3.017,6.725,6.724
	s-3.018,6.724-6.725,6.724H28.755c-3.708,0-6.725-3.017-6.725-6.724S25.047,134.022,28.755,134.022z"/>
<path d="M362.116,229.789h84.923c10.149,0,18.407-8.257,18.407-18.407c0-10.149-8.258-18.407-18.407-18.407h-8.737
	c-1.101-11.329-10.678-20.213-22.291-20.213c-2.221,0-4.404,0.328-6.486,0.96c-5.099-8.129-14.085-13.302-24.176-13.302
	c-15.751,0-28.566,12.815-28.566,28.566c0,1.573,0.128,3.132,0.382,4.664c-7.752,2.168-13.455,9.296-13.455,17.73
	C343.709,221.532,351.967,229.789,362.116,229.789z M362.116,207.973h5.575c2.752,0,5.282-1.507,6.594-3.927
	c1.311-2.419,1.191-5.362-0.312-7.667c-1.436-2.202-2.194-4.757-2.194-7.392c0-7.481,6.086-13.568,13.568-13.568
	c6.362,0,11.799,4.326,13.219,10.519c0.6,2.612,2.547,4.706,5.107,5.492c2.567,0.789,5.349,0.146,7.311-1.679
	c1.38-1.284,3.165-1.992,5.025-1.992c4.079,0,7.397,3.319,7.397,7.397c0,0.885-0.168,1.772-0.499,2.636
	c-0.882,2.306-0.573,4.897,0.826,6.931c1.399,2.034,3.71,3.249,6.178,3.249h17.125c1.88,0,3.409,1.529,3.409,3.409
	c0,1.879-1.529,3.409-3.409,3.409h-84.923c-1.88,0-3.409-1.529-3.409-3.409C358.707,209.502,360.236,207.973,362.116,207.973z"/>
<path d="M504.501,420.428h-13.854v-18.862c8.896-3.109,15.298-11.581,15.298-21.525v-14.055c0-12.571-10.228-22.799-22.799-22.799
	c-12.571,0-22.799,10.228-22.799,22.799v14.055c0,9.944,6.402,18.416,15.299,21.525v18.862h-14.155l-71.394-115.415
	c-3.255-5.262-8.893-8.458-15.079-8.55c-6.184-0.083-11.916,2.936-15.325,8.099l-20.53,31.085l-45.965-83.922
	c-3.166-5.778-8.988-9.283-15.576-9.375c-0.089-0.001-0.177-0.002-0.265-0.002c-6.48,0-12.286,3.328-15.565,8.937l-38.143,65.228
	l-45.993-103.476c-2.898-6.52-9.131-10.626-16.267-10.715c-0.078-0.001-0.156-0.001-0.235-0.001c-7.038,0-13.268,3.934-16.293,10.31
	L46.251,420.429h-7.24v-18.862c8.897-3.109,15.299-11.581,15.299-21.525v-14.055c0-12.571-10.228-22.799-22.799-22.799
	S8.713,353.415,8.713,365.985v14.055c0,9.944,6.402,18.416,15.299,21.525v18.862H7.499c-4.143,0-7.499,3.358-7.499,7.499
	c0,4.142,3.357,7.499,7.499,7.499h43.452c0.012,0,0.024,0.002,0.036,0.002c0.009,0,0.019-0.002,0.028-0.002h453.485
	c4.143,0,7.499-3.358,7.499-7.499C512,423.785,508.642,420.428,504.501,420.428z M31.512,387.841c-4.302,0-7.8-3.5-7.8-7.8v-14.055
	c0-4.301,3.499-7.8,7.8-7.8c4.302,0,7.8,3.5,7.8,7.8v14.055C39.311,384.342,35.812,387.841,31.512,387.841z M372.208,312.828
	c0.801-1.212,1.959-1.364,2.588-1.368c0.624,0.009,1.783,0.209,2.548,1.445l24.599,39.766l-18.577,8.499l-10.243-5.659
	c-1.642-0.907-3.563-1.165-5.385-0.726l-15.981,3.855l-4.445-8.114L372.208,312.828z M274.74,258.856
	c0.78-1.335,1.976-1.513,2.674-1.509c0.663,0.009,1.888,0.228,2.631,1.583l29.385,53.65l-19.618,8.975l-10.243-5.659
	c-1.642-0.907-3.563-1.165-5.385-0.726l-18.52,4.468l-12.842-6.196L274.74,258.856z M158.41,219.061
	c0.729-1.537,2.077-1.744,2.793-1.742c0.73,0.009,2.058,0.256,2.748,1.81l28.882,64.981l-19.784,9.051l-10.243-5.659
	c-1.642-0.907-3.563-1.165-5.385-0.726l-18.521,4.468l-11.997-5.789L158.41,219.061z M269.835,420.428l-12.207-27.463
	c-1.204-2.708-3.89-4.454-6.853-4.454l0,0c-5.427,0-9.057,5.586-6.853,10.545l9.499,21.371H62.851l57.621-121.424l14.32,6.911
	c1.56,0.753,3.334,0.943,5.017,0.536l18.293-4.413l11.001,6.077c1.126,0.622,2.375,0.935,3.627,0.935c1.063,0,2.128-0.226,3.12-0.68
	l23.074-10.556l23.311,52.444c1.204,2.708,3.89,4.454,6.853,4.454l0,0c5.427,0,9.057-5.586,6.853-10.545l-4.788-10.774l4.073-6.965
	l16.331,7.881c1.561,0.753,3.334,0.942,5.018,0.536l18.292-4.413l11.001,6.077c1.126,0.622,2.375,0.935,3.627,0.935
	c1.063,0,2.128-0.226,3.12-0.68l24.039-10.998l51.845,94.659h-98.663V420.428z M385.598,420.428l-26.378-48.161l9.201-2.219
	l11.001,6.077c1.126,0.622,2.375,0.935,3.627,0.935c1.063,0,2.128-0.226,3.12-0.68l23.726-10.855l33.962,54.902L385.598,420.428
	L385.598,420.428z M483.147,387.841c-4.302,0-7.8-3.5-7.8-7.8v-14.055c0-4.301,3.499-7.8,7.8-7.8c4.302,0,7.8,3.5,7.8,7.8v14.055
	C490.947,384.342,487.449,387.841,483.147,387.841z"/>
<g>
</g>
<g>
</g>
<g>
</g>
<g>
</g>
<g>
</g>
<g>
</g>
<g>
</g>
<g>
</g>
<g>
</g>
<g>
</g>
<g>
</g>
<g>
</g>
<g>
</g>
<g>
</g>
<g>
</g>
</svg>
