<?xml version="1.0" encoding="iso-8859-1"?>
<!-- Generator: Adobe Illustrator 19.0.0, SVG Export Plug-In . SVG Version: 6.00 Build 0)  -->
<svg version="1.1" id="Capa_1" xmlns="http://www.w3.org/2000/svg" xmlns:xlink="http://www.w3.org/1999/xlink" x="0px" y="0px"
	 viewBox="0 0 512 512" style="enable-background:new 0 0 512 512;" xml:space="preserve">
<path style="fill:#DD3A3A;" d="M45.502,451.656l-8.235,7.176c-2.113,1.841-5.317,1.62-7.158-0.492l-10.868-12.474
	c-1.841-2.113-1.62-5.316,0.492-7.158l8.233-7.175c2.113-1.841,2.333-5.045,0.491-7.158l-7.176-8.235
	c-1.841-2.113-1.62-5.317,0.491-7.158l12.474-10.869c2.113-1.841,5.317-1.62,7.158,0.491l7.175,8.234
	c1.841,2.113,5.045,2.333,7.158,0.491l8.234-7.175c2.113-1.841,5.317-1.62,7.158,0.491L82,413.12
	c1.841,2.113,1.62,5.317-0.492,7.158l-8.234,7.175c-2.113,1.841-2.333,5.045-0.492,7.158l7.175,8.234
	c1.841,2.113,1.62,5.317-0.491,7.158l-12.473,10.87c-2.113,1.841-5.317,1.62-7.158-0.491l-7.175-8.234
	C50.818,450.034,47.614,449.814,45.502,451.656z"/>
<path style="fill:#3A3735;" d="M160.926,504.994c-11.812,0-21.421-9.61-21.421-21.421V28.427c0-11.812,9.609-21.421,21.421-21.421
	h192.686c11.812,0,21.421,9.609,21.421,21.421v455.147c0,11.812-9.61,21.421-21.421,21.421H160.926z"/>
<path style="fill:#2D2926;" d="M247.217,483.572V28.427c0-11.812,9.609-21.421,21.421-21.421H160.926
	c-11.812,0-21.421,9.609-21.421,21.421v455.147c0,11.812,9.61,21.421,21.421,21.421h107.712
	C256.826,504.994,247.217,495.384,247.217,483.572z"/>
<path style="fill:#C7EAEA;" d="M162.524,474.23V37.771c0-4.278,3.468-7.745,7.745-7.745h23.655c3.752,0,6.965,2.69,7.624,6.384
	l1.221,6.838c1.346,7.542,7.906,13.035,15.568,13.035h84.349c3.914,0,7.254-2.795,7.942-6.649l2.363-13.226
	c0.66-3.694,3.872-6.383,7.624-6.383h23.655c4.278,0,7.745,3.468,7.745,7.745v436.459c0,4.278-3.468,7.745-7.745,7.745H170.269
	C165.991,481.975,162.524,478.507,162.524,474.23z"/>
<path style="fill:#A6D1D0;" d="M302.089,429.492c-43.294,0-78.391-35.097-78.391-78.391V56.282h-5.36
	c-7.661,0-14.221-5.493-15.568-13.035l-1.221-6.839c-0.66-3.694-3.872-6.384-7.624-6.384h-23.655c-4.278,0-7.745,3.468-7.745,7.745
	v436.459c0,4.278,3.468,7.745,7.745,7.745h173.999c4.278,0,7.745-3.468,7.745-7.745v-44.737h-49.925V429.492z"/>
<path style="fill:#FFC022;" d="M265.663,163.234c-7.529-6.51-20.162-18.931-20.162-28.952c0-14.006,11.394-25.399,25.399-25.399
	s25.399,11.395,25.399,25.399c0,10.046-12.636,22.455-20.168,28.957l-2.05,1.769c-1.831,1.58-4.543,1.578-6.371-0.003
	L265.663,163.234z"/>
<polygon style="fill:#DD3A3A;" points="162.524,481.975 162.524,459.566 230.316,391.774 162.524,391.774 162.524,364.858 
	247.591,364.858 320.075,292.374 339.107,311.407 285.656,364.858 352.014,364.858 352.014,391.774 268.382,391.774 181.14,479.014 
	178.761,481.914 174.923,481.975 "/>
<polygon style="fill:#2FE0A0;" points="162.524,136.239 162.524,95.548 268.227,201.251 352.014,117.464 352.014,158.153 
	288.573,221.597 348.835,281.859 352.062,284.26 352.014,288.234 352.014,325.729 "/>
<path style="fill:#16A877;" d="M445.001,141.455c-8.845-7.236-37.705-32.367-37.705-51.927c0-23.588,19.19-42.778,42.778-42.778
	c23.588,0,42.778,19.19,42.778,42.778c0,19.519-28.861,44.678-37.707,51.923h-0.001
	C452.195,143.868,447.951,143.869,445.001,141.455L445.001,141.455z"/>
<path style="fill:#068E50;" d="M450.073,89.528c0-15.799,8.615-29.615,21.389-37.023c-6.297-3.652-13.6-5.755-21.389-5.755
	c-23.588,0-42.778,19.19-42.778,42.778c0,19.559,28.86,44.69,37.705,51.927c2.95,2.414,7.194,2.413,10.142-0.003l0,0
	c3.403-2.787,9.766-8.229,16.31-14.975C460.99,115.69,450.073,101.558,450.073,89.528z"/>
<path style="fill:#FFFFFF;" d="M450.073,104.123c-7.898,0-14.322-6.424-14.322-14.322s6.424-14.322,14.322-14.322
	c7.898,0,14.323,6.424,14.323,14.322C464.396,97.698,457.971,104.123,450.073,104.123z"/>
<path d="M353.612,0H160.926c-15.675,0-28.427,12.753-28.427,28.427v455.147c0,15.675,12.752,28.427,28.427,28.427h192.686
	c15.675,0,28.427-12.753,28.427-28.427V28.427C382.039,12.753,369.288,0,353.612,0z M367.027,483.572
	c0,7.397-6.018,13.414-13.414,13.414H160.926c-7.397,0-13.414-6.018-13.414-13.414V289.72h8.007v191.755
	c0,4.145,3.36,7.506,7.506,7.506h188.489c4.146,0,7.506-3.361,7.506-7.506V36.438c0-7.399-6.02-13.419-13.419-13.419h-31.052
	c-3.637,0-6.75,2.606-7.389,6.187l-3.429,19.196c-0.09,0.506-0.529,0.875-1.045,0.875h-90.834c-0.515,0-0.955-0.367-1.046-0.876
	l-3.428-19.195c-0.64-3.58-3.752-6.187-7.389-6.187h-31.052c-7.4,0-13.419,6.02-13.419,13.419v238.269h-8.007V28.427
	c0-7.396,6.018-13.414,13.414-13.414h192.686c7.397,0,13.414,6.018,13.414,13.414L367.027,483.572L367.027,483.572z
	 M236.832,396.581c2.147-2.147,2.788-5.375,1.626-8.18c-1.161-2.805-3.899-4.634-6.935-4.634h-60.993v-10.903h77.267
	c1.991,0,3.899-0.791,5.308-2.199l66.968-66.969l7.709,7.709l-48.644,48.644c-2.147,2.147-2.788,5.375-1.626,8.18
	c1.161,2.805,3.899,4.634,6.935,4.634h59.56v10.903h-75.833c-1.991,0-3.899,0.791-5.308,2.199l-87.454,87.453
	c-0.176,0.176-0.335,0.361-0.49,0.549h-4.392v-11.085L236.832,396.581z M170.531,441.651v-42.871h42.872L170.531,441.651z
	 M175.343,274.707h-4.812V154.154l34.541,34.541c2.292,2.292,5.809,2.751,8.651,1.194c0.083-0.046,0.167-0.091,0.251-0.136
	c4.334-2.315,5.298-8.089,1.824-11.563l-45.267-45.267v-18.044l92.388,92.388c1.408,1.408,3.317,2.199,5.308,2.199
	c1.992,0,3.899-0.791,5.308-2.199l70.473-70.473v18.044l-61.45,61.451c-2.931,2.931-2.931,7.684,0,10.615l60.616,60.617
	c0.263,0.263,0.544,0.498,0.835,0.714V306.4l-95.951-95.951c-3.471-3.471-9.232-2.517-11.567,1.8
	c-0.039,0.072-0.078,0.144-0.118,0.215c-1.579,2.855-1.134,6.398,1.174,8.705l53.538,53.538h-19.032
	c-4.11,0-7.694,3.167-7.818,7.275c-0.128,4.251,3.28,7.737,7.503,7.737h32.027c0.71,0,1.393-0.105,2.044-0.289l3.651,3.651
	l-64.769,64.77h-74.16v-68.133h5.126c4.223,0,7.63-3.486,7.503-7.737C183.036,277.874,179.453,274.707,175.343,274.707z
	 M170.531,93.646V38.032h23.174l2.322,13.007c1.37,7.677,8.026,13.25,15.825,13.25h90.834c7.799,0,14.454-5.573,15.824-13.249
	l2.322-13.008h23.174v77.53l-75.781,75.781L170.531,93.646z M344.008,176.069v91.055l-45.527-45.527L344.008,176.069z
	 M344.008,327.63v30.221H302.57l35.83-35.83L344.008,327.63z M344.008,398.78v75.188H196.095l75.189-75.188H344.008z"/>
<path d="M245.717,23.019h-25.125c-4.146,0-7.506,3.361-7.506,7.506s3.36,7.506,7.506,7.506h25.125c4.146,0,7.506-3.361,7.506-7.506
	S249.862,23.019,245.717,23.019z"/>
<circle cx="270.905" cy="30.525" r="6.477"/>
<circle cx="290.001" cy="30.525" r="6.477"/>
<path d="M450.073,39.744c-27.451,0-49.784,22.333-49.784,49.784c0,26.326,40.627,57.776,45.26,61.275
	c1.338,1.011,2.931,1.517,4.525,1.517c1.593,0,3.187-0.505,4.525-1.517c4.633-3.5,45.26-34.949,45.26-61.275
	C499.857,62.077,477.524,39.744,450.073,39.744z M450.07,135.258c-15.015-12.283-34.768-32.795-34.768-45.73
	c0-19.173,15.598-34.771,34.771-34.771s34.771,15.598,34.771,34.771C484.844,102.433,465.084,122.96,450.07,135.258z"/>
<path d="M450.073,68.474c-11.76,0-21.328,9.568-21.328,21.328s9.568,21.328,21.328,21.328c11.761,0,21.329-9.568,21.329-21.328
	C471.402,78.041,461.834,68.474,450.073,68.474z M450.073,96.116c-3.482,0-6.315-2.833-6.315-6.315c0-3.482,2.832-6.315,6.315-6.315
	c3.483,0,6.316,2.833,6.316,6.315C456.389,93.284,453.556,96.116,450.073,96.116z"/>
<path d="M275.426,172.831c4.656-3.517,27.88-21.904,27.88-38.549c0-17.869-14.536-32.405-32.405-32.405
	s-32.405,14.537-32.405,32.405c0,16.645,23.224,35.032,27.88,38.549c1.338,1.011,2.931,1.517,4.525,1.517
	C272.494,174.348,274.087,173.842,275.426,172.831z M253.509,134.282c0-9.591,7.803-17.393,17.393-17.393
	s17.392,7.803,17.392,17.393c0,5.707-9.21,15.831-17.393,22.896C262.556,149.962,253.509,139.791,253.509,134.282z"/>
<circle cx="270.905" cy="134.442" r="8.14"/>
<path d="M104.601,274.707c-6.073,0-11.848-2.929-15.447-7.838c-2.452-3.343-7.149-4.064-10.492-1.613
	c-3.343,2.452-4.065,7.149-1.613,10.492c6.415,8.748,16.716,13.971,27.552,13.971h7.003c4.146,0,7.506-3.361,7.506-7.506
	c0-4.145-3.36-7.506-7.506-7.506h-7.003V274.707z"/>
<path d="M51.212,385.113c4.146,0,7.506-3.361,7.506-7.506v-10.368c0-5.633,1.874-10.914,5.419-15.275
	c2.615-3.217,2.128-7.945-1.089-10.56c-3.219-2.617-7.946-2.127-10.56,1.089c-5.664,6.966-8.782,15.754-8.782,24.746v10.368
	C43.705,381.752,47.065,385.113,51.212,385.113z"/>
<path d="M118.788,327.995H86.761c-4.146,0-7.506,3.361-7.506,7.506s3.36,7.506,7.506,7.506h32.027c4.146,0,7.506-3.361,7.506-7.506
	S122.933,327.995,118.788,327.995z"/>
<path d="M77.69,247.519c1.165,0.657,2.431,0.969,3.679,0.969c2.621,0,5.166-1.376,6.545-3.821c3.394-6.02,9.787-9.759,16.687-9.759
	h3.816c4.146,0,7.506-3.361,7.506-7.506c0-4.145-3.36-7.506-7.506-7.506h-3.816c-12.309,0-23.714,6.668-29.764,17.4
	C72.801,240.906,74.079,245.484,77.69,247.519z"/>
<path d="M207.684,289.72h32.027c4.146,0,7.506-3.361,7.506-7.506c0-4.145-3.36-7.506-7.506-7.506h-32.027
	c-4.146,0-7.506,3.361-7.506,7.506C200.178,286.359,203.538,289.72,207.684,289.72z"/>
<path d="M409.609,289.72c5.395,0,10.567,2.295,14.191,6.297c1.481,1.636,3.521,2.468,5.567,2.468c1.797,0,3.6-0.642,5.036-1.942
	c3.073-2.782,3.309-7.529,0.525-10.603c-6.464-7.139-15.693-11.233-25.319-11.233h-9.765c-4.146,0-7.506,3.361-7.506,7.506
	c0,4.145,3.36,7.506,7.506,7.506H409.609z"/>
<path d="M436.795,314.128c-3.701-1.865-8.215-0.377-10.08,3.326c-3.277,6.502-9.83,10.541-17.105,10.541h-2.581
	c-4.146,0-7.506,3.361-7.506,7.506s3.36,7.506,7.506,7.506h2.581c12.978,0,24.668-7.203,30.51-18.798
	C441.985,320.506,440.497,315.993,436.795,314.128z"/>
<path d="M414.54,234.907c0.002,0,0.003,0,0.004,0c5.777,0,11.389-1.128,16.677-3.354c3.821-1.607,5.616-6.008,4.008-9.83
	c-1.608-3.821-6.012-5.614-9.829-4.007c-3.437,1.445-7.088,2.179-10.856,2.179c-0.001,0-0.002,0-0.003,0h-17.883
	c-4.146,0-7.506,3.361-7.506,7.506c0,4.145,3.36,7.506,7.506,7.506H414.54z"/>
<path d="M450.073,162.006c-4.146,0-7.506,3.361-7.506,7.506v22.357c0,2.563-0.344,5.099-1.022,7.537
	c-1.111,3.994,1.226,8.132,5.219,9.244c0.674,0.187,1.351,0.276,2.017,0.276c3.287,0,6.304-2.175,7.228-5.497
	c1.043-3.748,1.571-7.637,1.571-11.561v-22.357C457.579,165.367,454.22,162.006,450.073,162.006z"/>
<path d="M78.261,398.165c-2.614-3-6.239-4.801-10.209-5.073c-3.978-0.274-7.808,1.017-10.806,3.63l-4.654,4.056l-4.057-4.655
	c-5.395-6.191-14.822-6.84-21.014-1.443l-8.23,7.172c-6.191,5.396-6.839,14.822-1.443,21.014l4.056,4.655l-4.653,4.055
	c-3.001,2.614-4.802,6.239-5.075,10.209c-0.272,3.968,1.018,7.807,3.631,10.806l7.172,8.23c5.396,6.19,14.822,6.839,21.014,1.443
	l4.655-4.056l4.055,4.654c2.613,3,6.238,4.802,10.209,5.075c0.349,0.024,0.696,0.036,1.043,0.036c3.594,0,7.027-1.282,9.763-3.666
	l8.229-7.171c3-2.613,4.802-6.239,5.075-10.209c0.272-3.969-1.018-7.807-3.631-10.806l-4.056-4.655l4.655-4.056
	c2.999-2.614,4.801-6.239,5.073-10.209c0.272-3.968-1.018-7.807-3.631-10.806L78.261,398.165z M63.812,425.079
	c-1.5,1.308-2.42,3.159-2.557,5.144c-0.137,1.986,0.521,3.945,1.83,5.446l8.909,10.225l-8.051,7.016l-8.909-10.225
	c-1.484-1.703-3.567-2.575-5.662-2.575c-1.749,0-3.507,0.607-4.929,1.848l-10.226,8.91l-7.015-8.051l10.225-8.909
	c3.125-2.723,3.451-7.465,0.728-10.591l-8.909-10.225l8.052-7.016l8.909,10.225c2.725,3.127,7.466,3.45,10.591,0.728l10.225-8.909
	l7.016,8.051L63.812,425.079z"/>
<g>
</g>
<g>
</g>
<g>
</g>
<g>
</g>
<g>
</g>
<g>
</g>
<g>
</g>
<g>
</g>
<g>
</g>
<g>
</g>
<g>
</g>
<g>
</g>
<g>
</g>
<g>
</g>
<g>
</g>
</svg>
