<?xml version="1.0" encoding="iso-8859-1"?>
<!-- Generator: Adobe Illustrator 19.0.0, SVG Export Plug-In . SVG Version: 6.00 Build 0)  -->
<svg version="1.1" id="Capa_1" xmlns="http://www.w3.org/2000/svg" xmlns:xlink="http://www.w3.org/1999/xlink" x="0px" y="0px"
	 viewBox="0 0 511.999 511.999" style="enable-background:new 0 0 511.999 511.999;" xml:space="preserve">
<path style="fill:#3A3735;" d="M295.278,216.332V20.609c0-7.502,6.104-13.605,13.605-13.605c7.502,0,13.606,6.104,13.606,13.605
	v195.723H295.278z"/>
<path style="fill:#2D2926;" d="M315.686,8.845c-2.004-1.164-4.324-1.841-6.803-1.841c-7.501,0-13.605,6.104-13.605,13.605v195.723
	h13.605V20.609C308.884,15.586,311.626,11.202,315.686,8.845z"/>
<path style="fill:#2D2825;" d="M289.206,241.584v-34.82c0-3.005,2.435-5.44,5.44-5.44h28.474c3.005,0,5.44,2.435,5.44,5.44v34.82
	H289.206z"/>
<g>
	<path style="fill:#3A3735;" d="M185.525,426.001c-5.904,0-10.707-4.803-10.707-10.707v-47.873c0-5.904,4.803-10.707,10.707-10.707
		h12.731v69.287L185.525,426.001L185.525,426.001z"/>
	<circle style="fill:#3A3735;" cx="196.624" cy="297.814" r="31.732"/>
</g>
<path style="fill:#FF9100;" d="M214.581,504.996c-5.132,0-9.442-3.723-10.024-8.661l-7.301-61.87V241.61
	c0-5.922,4.977-10.741,11.094-10.741h123.883c6.118,0,11.094,4.818,11.094,10.741v192.855l-7.301,61.87
	c-0.583,4.938-4.893,8.66-10.025,8.66H214.581V504.996z"/>
<path style="fill:#DD7800;" d="M269.822,496.335l-7.301-61.87V241.61c0-5.922,4.977-10.741,11.094-10.741h-65.266
	c-6.118,0-11.094,4.818-11.094,10.741v192.855l7.301,61.87c0.583,4.938,4.892,8.661,10.024,8.661h65.266
	C274.714,504.996,270.405,501.272,269.822,496.335z"/>
<g>
	<path style="fill:#F0EBD2;" d="M224.097,436.264v-21.526c0-2.783,2.255-5.038,5.038-5.038h82.032c2.783,0,5.038,2.255,5.038,5.038
		v21.526c0,2.783-2.255,5.038-5.038,5.038h-82.032C226.353,441.302,224.097,439.046,224.097,436.264z"/>
	<path style="fill:#F0EBD2;" d="M232.652,386.28c-6.484,0-11.758-5.275-11.758-11.759v-107.28c0-6.484,5.274-11.759,11.758-11.759
		h74.997c6.484,0,11.759,5.275,11.759,11.759v107.28c0,6.484-5.274,11.759-11.759,11.759L232.652,386.28L232.652,386.28z"/>
</g>
<rect x="295.282" y="142.703" style="fill:#2D2825;" width="27.206" height="15.009"/>
<path d="M329.493,197.236V20.609C329.493,9.245,320.248,0,308.883,0c-11.365,0-20.609,9.245-20.609,20.609v176.627
	c-3.674,2.713-6.072,7.06-6.072,11.967v22.166c0,4.144,3.359,7.504,7.504,7.504h38.353c4.145,0,7.504-3.36,7.504-7.504v-22.166
	C335.564,204.296,333.167,199.949,329.493,197.236z M303.283,20.609c0-3.088,2.512-5.6,5.6-5.6c3.089,0,5.601,2.512,5.601,5.6
	v173.71h-11.201V20.609H303.283z M320.556,223.865h-23.345v-14.536h23.345V223.865z"/>
<rect x="298.064" y="142.703" width="21.49" height="15.009"/>
<path d="M311.403,335.621v38.9c0,2.073-1.681,3.754-3.754,3.754h-74.997c-2.073,0-3.753-1.681-3.753-3.753V267.241
	c0-2.073,1.681-3.753,3.753-3.753h74.997c2.073,0,3.754,1.681,3.754,3.754v19.549c0,4.144,3.36,7.504,7.504,7.504l0,0
	c4.144,0,7.504-3.36,7.504-7.504v-19.549c0-10.362-8.401-18.763-18.763-18.763h-74.997c-10.362,0-18.762,8.4-18.762,18.762v107.28
	c0,10.362,8.401,18.763,18.763,18.763h74.996c10.362,0,18.763-8.401,18.763-18.763v-38.9c0-4.144-3.36-7.504-7.504-7.504l0,0
	C314.763,328.117,311.403,331.477,311.403,335.621z"/>
<path d="M310.241,448.306h-80.178c-7.151,0-12.969-5.817-12.969-12.969v-19.672c0-7.15,5.817-12.969,12.969-12.969h80.178
	c7.15,0,12.969,5.817,12.969,12.969v19.672C323.209,442.487,317.391,448.306,310.241,448.306z M232.102,433.297H308.2v-15.592
	h-76.098V433.297z"/>
<circle cx="241.16" cy="470.835" r="7.627"/>
<circle cx="300.425" cy="470.835" r="7.627"/>
<path d="M268.316,289.94h-25.431c-4.144,0-7.504-3.36-7.504-7.504s3.36-7.504,7.504-7.504h25.431c4.145,0,7.504,3.36,7.504,7.504
	S272.462,289.94,268.316,289.94z"/>
<path d="M300.909,289.94h-12.131c-4.145,0-7.504-3.36-7.504-7.504s3.359-7.504,7.504-7.504h12.131c4.145,0,7.504,3.36,7.504,7.504
	S305.055,289.94,300.909,289.94z"/>
<path d="M300.909,369.851h-25.431c-4.145,0-7.504-3.36-7.504-7.504c0-4.144,3.359-7.504,7.504-7.504h25.431
	c4.145,0,7.504,3.36,7.504,7.504C308.414,366.491,305.055,369.851,300.909,369.851z"/>
<path d="M255.016,369.851h-12.131c-4.144,0-7.504-3.36-7.504-7.504c0-4.144,3.36-7.504,7.504-7.504h12.131
	c4.145,0,7.504,3.36,7.504,7.504C262.521,366.491,259.162,369.851,255.016,369.851z"/>
<path d="M300.909,316.578h-58.024c-4.144,0-7.504-3.36-7.504-7.504s3.36-7.504,7.504-7.504h58.024c4.145,0,7.504,3.36,7.504,7.504
	S305.055,316.578,300.909,316.578z"/>
<path d="M300.909,343.214h-58.024c-4.144,0-7.504-3.36-7.504-7.504c0-4.144,3.36-7.504,7.504-7.504h58.024
	c4.145,0,7.504,3.36,7.504,7.504C308.414,339.854,305.055,343.214,300.909,343.214z"/>
<path d="M332.233,223.865H208.35c-9.98,0-18.099,7.961-18.099,17.745v18.872c-17.415,3.495-30.575,18.904-30.575,37.333
	c0,18.429,13.16,33.838,30.575,37.333v14.561h-4.727c-9.766,0-17.711,7.946-17.711,17.711v47.873
	c0,9.766,7.946,17.711,17.711,17.711h4.727v1.43c0,0.294,0.017,0.587,0.052,0.88l7.297,61.841
	c0.999,8.463,8.298,14.844,16.98,14.844h111.421c8.682,0,15.982-6.382,16.98-14.844l7.298-61.841
	c0.034-0.292,0.052-0.585,0.052-0.88V241.61C350.331,231.825,342.212,223.865,332.233,223.865z M174.684,297.815
	c0-10.094,6.519-18.689,15.566-21.811v43.621C181.204,316.504,174.684,307.909,174.684,297.815z M185.525,417.996
	c-1.49,0-2.703-1.213-2.703-2.703v-47.873c0-1.49,1.213-2.703,2.703-2.703h4.727v53.278L185.525,417.996L185.525,417.996z
	 M335.322,433.994l-7.246,61.403c-0.105,0.894-1.017,1.594-2.074,1.594H214.581c-1.058,0-1.969-0.7-2.074-1.594l-7.246-61.403
	V241.61c0-1.509,1.386-2.737,3.09-2.737h123.883c1.704,0,3.09,1.228,3.09,2.737L335.322,433.994L335.322,433.994z"/>
<path d="M110.86,321.952c-35.824,0-64.968-29.144-64.968-64.968s29.144-64.968,64.968-64.968c4.144,0,7.504,3.36,7.504,7.504
	c0,4.144-3.36,7.504-7.504,7.504c-27.548,0-49.959,22.411-49.959,49.959s22.411,49.959,49.959,49.959
	c4.144,0,7.504,3.36,7.504,7.504C118.365,318.592,115.005,321.952,110.86,321.952z"/>
<path d="M110.86,292.698c-19.692,0-35.714-16.021-35.714-35.714s16.021-35.714,35.714-35.714c4.144,0,7.504,3.36,7.504,7.504
	c0,4.144-3.36,7.504-7.504,7.504c-11.417,0-20.705,9.288-20.705,20.705s9.288,20.705,20.705,20.705c4.144,0,7.504,3.36,7.504,7.504
	S115.005,292.698,110.86,292.698z"/>
<path d="M142.945,264.487h-12.664c-4.144,0-7.504-3.36-7.504-7.504c0-4.144,3.36-7.504,7.504-7.504h12.664
	c4.144,0,7.504,3.36,7.504,7.504C150.449,261.128,147.089,264.487,142.945,264.487z"/>
<path d="M401.139,321.952c-4.145,0-7.504-3.36-7.504-7.504c0-4.144,3.359-7.504,7.504-7.504c27.547,0,49.959-22.411,49.959-49.959
	s-22.411-49.959-49.959-49.959c-4.145,0-7.504-3.36-7.504-7.504c0-4.144,3.359-7.504,7.504-7.504
	c35.824,0,64.968,29.144,64.968,64.968S436.963,321.952,401.139,321.952z"/>
<path d="M401.139,292.698c-4.145,0-7.504-3.36-7.504-7.504s3.359-7.504,7.504-7.504c11.417,0,20.705-9.288,20.705-20.705
	c0-11.417-9.288-20.705-20.705-20.705c-4.145,0-7.504-3.36-7.504-7.504c0-4.144,3.359-7.504,7.504-7.504
	c19.694,0,35.714,16.021,35.714,35.714S420.832,292.698,401.139,292.698z"/>
<path d="M381.719,264.487h-12.664c-4.145,0-7.504-3.36-7.504-7.504c0-4.144,3.359-7.504,7.504-7.504h12.664
	c4.145,0,7.504,3.36,7.504,7.504C389.224,261.128,385.865,264.487,381.719,264.487z"/>
<g>
</g>
<g>
</g>
<g>
</g>
<g>
</g>
<g>
</g>
<g>
</g>
<g>
</g>
<g>
</g>
<g>
</g>
<g>
</g>
<g>
</g>
<g>
</g>
<g>
</g>
<g>
</g>
<g>
</g>
</svg>
