<?xml version="1.0" encoding="iso-8859-1"?>
<!-- Generator: Adobe Illustrator 19.0.0, SVG Export Plug-In . SVG Version: 6.00 Build 0)  -->
<svg version="1.1" id="Capa_1" xmlns="http://www.w3.org/2000/svg" xmlns:xlink="http://www.w3.org/1999/xlink" x="0px" y="0px"
	 viewBox="0 0 511.999 511.999" style="enable-background:new 0 0 511.999 511.999;" xml:space="preserve">
<path style="fill:#9BB8BC;" d="M223.447,281.347V54.717c0-26.308,18.816-47.711,41.944-47.711h5.968c3.448,0,6.245,2.792,6.25,6.24
	l0.217,142.513c0.004,2.545,1.039,4.979,2.867,6.749l4.468,4.321c2.167,2.096,3.39,4.98,3.39,7.995v106.525h-65.105V281.347z"/>
<path style="fill:#AACED1;" d="M250.212,233.7V66.407c0-3.269,1.298-6.403,3.61-8.715l23.819-23.819l-0.031-20.625
	c-0.006-3.449-2.802-6.241-6.25-6.241h-5.968c-23.128,0-41.944,21.403-41.944,47.711V240.13h20.336
	C247.334,240.13,250.212,237.251,250.212,233.7z"/>
<polygon style="fill:#9D0707;" points="230.331,425.153 230.331,314.262 225.054,291.852 286.946,291.852 281.669,314.262 
	281.669,425.153 "/>
<path style="fill:#9BB8BC;" d="M256.5,400.132c-28.91,0-52.431,23.52-52.431,52.431c0,28.911,23.521,52.431,52.431,52.431
	s52.431-23.521,52.431-52.431C308.931,423.653,285.41,400.132,256.5,400.132z M256.5,476.608c-13.259,0-24.045-10.787-24.045-24.045
	c0-13.258,10.787-24.045,24.045-24.045c13.258,0,24.045,10.786,24.045,24.045C280.545,465.822,269.759,476.608,256.5,476.608z"/>
<path style="fill:#FF9100;" d="M209.266,292.853c-5.13,0-9.305-4.174-9.305-9.305v-6.907c0-5.13,4.175-9.305,9.305-9.305h93.467
	c5.13,0,9.305,4.174,9.305,9.305v6.907c0,5.13-4.174,9.305-9.305,9.305H209.266z"/>
<path style="fill:#DD7800;" d="M252.893,283.548v-6.907c0-5.13,4.175-9.305,9.305-9.305h-52.931c-5.13,0-9.305,4.174-9.305,9.305
	v6.907c0,5.13,4.175,9.305,9.305,9.305h52.931C257.068,292.853,252.893,288.679,252.893,283.548z"/>
<path d="M256.5,423.956c-15.774,0-28.607,12.833-28.607,28.607c0,15.774,12.833,28.607,28.607,28.607s28.607-12.833,28.607-28.607
	C285.107,436.789,272.274,423.956,256.5,423.956z M256.5,466.159c-7.496,0-13.594-6.099-13.594-13.594
	c0-7.495,6.099-13.594,13.594-13.594c7.495,0,13.594,6.099,13.594,13.594C270.094,460.059,263.996,466.159,256.5,466.159z"/>
<path d="M302.733,260.33h-7.175v-13.929c0-4.079-3.297-7.398-7.376-7.411c-0.064,0-0.127,0-0.191-0.001
	c-4.107-0.016-7.446,3.304-7.446,7.411v13.93h-49.09v-13.195h18.258c4.145,0,7.506-3.361,7.506-7.506V64.203l12.443-12.443
	l0.165,108.205c0.003,2.031,0.829,3.973,2.288,5.385l8.431,8.153v24.428c0,4.197,3.484,7.55,7.678,7.398
	c0.064-0.002,0.127-0.005,0.191-0.007c3.985-0.143,7.143-3.411,7.143-7.399v-27.603c0-2.035-0.826-3.981-2.288-5.396l-8.436-8.158
	l-0.222-145.673C284.602,4.976,279.617,0,273.502,0h-8.111c-26.992,0-48.95,24.546-48.95,54.717V260.33h-7.175
	c-9.009,0-16.311,7.303-16.311,16.311v6.907c0,9.009,7.303,16.311,16.311,16.311h10.476l3.583,15.216v88.195
	c-16.608,11.213-27.273,30.591-26.186,52.328c1.516,30.33,26.13,54.885,56.463,56.333c34.085,1.627,62.334-25.634,62.334-59.368
	c0-20.923-10.876-39.341-27.263-49.936v-87.553l3.583-15.216h10.476c9.009,0,16.311-7.303,16.311-16.311v-6.907
	C319.045,267.633,311.741,260.33,302.733,260.33z M231.454,54.717c0-21.893,15.224-39.704,33.938-39.704h4.214l0.024,15.548
	l-25.225,25.226c-1.408,1.408-2.199,3.317-2.199,5.307v171.029h-10.751V54.717z M300.924,452.563
	c0,24.496-19.929,44.424-44.424,44.424s-44.424-19.929-44.424-44.424c0-24.496,19.929-44.424,44.424-44.424
	S300.924,428.068,300.924,452.563z M250.841,364.479h-12.505v-7.478h12.505c4.145,0,7.506-3.361,7.506-7.506
	s-3.361-7.506-7.506-7.506h-12.505v-7.477h12.505c4.145,0,7.506-3.361,7.506-7.506s-3.361-7.506-7.506-7.506h-12.505v-5.295
	c0-0.579-0.067-1.157-0.2-1.72l-2.972-12.624h41.67l-2.973,12.624c-0.133,0.563-0.2,1.142-0.2,1.72v78.923h-35.325v-13.634h12.505
	c4.145,0,7.506-3.361,7.506-7.506S254.987,364.479,250.841,364.479z M304.032,283.548c0,0.716-0.582,1.298-1.298,1.298h-93.467
	c-0.716,0-1.298-0.582-1.298-1.298v-6.907c0-0.716,0.582-1.298,1.298-1.298h93.467c0.716,0,1.298,0.582,1.298,1.298V283.548z"/>
<path d="M269.164,207.892c-4.145,0-7.506,3.361-7.506,7.506v26.089c0,4.145,3.361,7.506,7.506,7.506
	c4.146,0,7.506-3.361,7.506-7.506v-26.089C276.67,211.252,273.309,207.892,269.164,207.892z"/>
<path d="M269.164,176.188c-4.145,0-7.506,3.361-7.506,7.506v9.247c0,4.145,3.361,7.506,7.506,7.506c4.146,0,7.506-3.361,7.506-7.506
	v-9.247C276.67,179.549,273.309,176.188,269.164,176.188z"/>
<g>
</g>
<g>
</g>
<g>
</g>
<g>
</g>
<g>
</g>
<g>
</g>
<g>
</g>
<g>
</g>
<g>
</g>
<g>
</g>
<g>
</g>
<g>
</g>
<g>
</g>
<g>
</g>
<g>
</g>
</svg>
