<?xml version="1.0" encoding="iso-8859-1"?>
<!-- Generator: Adobe Illustrator 19.0.0, SVG Export Plug-In . SVG Version: 6.00 Build 0)  -->
<svg version="1.1" id="Capa_1" xmlns="http://www.w3.org/2000/svg" xmlns:xlink="http://www.w3.org/1999/xlink" x="0px" y="0px"
	 viewBox="0 0 512.001 512.001" style="enable-background:new 0 0 512.001 512.001;" xml:space="preserve">
<path style="fill:#F0EBD2;" d="M321.947,7.005h-84.786c-5.683,0-10.306,4.623-10.306,10.306v14.281v36.233l38.279,1.047h67.119
	V17.312C332.252,11.628,327.629,7.005,321.947,7.005z"/>
<path style="fill:#EFE3BD;" d="M282.132,32.739c0-8.521-6.027-15.453-13.435-15.453h-41.841c0,0.009-0.001,0.017-0.001,0.026v14.281
	v36.233l38.279,1.047h16.997L282.132,32.739L282.132,32.739z"/>
<path style="fill:#FAF7E6;" d="M160.737,68.873V40.899c0-5.683,4.623-10.306,10.306-10.306h84.786
	c5.683,0,10.307,4.623,10.307,10.306v27.974H160.737z"/>
<path style="fill:#EFE8CE;" d="M185.64,59.038c0-5.683,4.623-10.306,10.306-10.306h70.189v-7.834
	c0-5.683-4.623-10.306-10.307-10.306h-84.786c-5.683,0-10.306,4.623-10.306,10.306v27.974h24.902L185.64,59.038L185.64,59.038z"/>
<path style="fill:#E2D8A8;" d="M134.213,336.339v90.384c0,9.889,8.046,17.935,17.936,17.935h175.394
	c27.706,0,50.246-22.54,50.246-50.246v-58.073L134.213,336.339L134.213,336.339z"/>
<path style="fill:#F0EBD2;" d="M265.135,482.582v-53.862h62.744c2.417,0,4.375,1.958,4.375,4.375v35.362
	c0,7.801-6.324,14.124-14.124,14.124L265.135,482.582L265.135,482.582z"/>
<path style="fill:#FAF7E6;" d="M174.862,504.995c-7.801,0-14.124-6.324-14.124-14.124v-57.775c0-2.417,1.958-4.375,4.375-4.375
	h101.022v62.15c0,7.801-6.324,14.125-14.125,14.125L174.862,504.995L174.862,504.995z"/>
<path style="fill:#EFE8CE;" d="M207.421,488.945c-7.801,0-14.124-6.324-14.124-14.124v-46.1h-28.183
	c-2.417,0-4.375,1.959-4.375,4.375v57.775c0,7.801,6.324,14.124,14.124,14.124h77.148c7.801,0,14.125-6.324,14.125-14.125v-1.924
	L207.421,488.945L207.421,488.945z"/>
<rect x="265.133" y="428.721" style="fill:#EFE3BD;" width="20.746" height="53.862"/>
<path style="fill:#1ABA9B;" d="M152.148,404.761c-9.89,0-17.936-8.046-17.936-17.935V85.808c0-9.89,8.046-17.936,17.936-17.936
	h175.394c27.706,0,50.246,22.54,50.246,50.246v236.398c0,27.706-22.54,50.245-50.246,50.245L152.148,404.761L152.148,404.761z"/>
<path style="fill:#15AD90;" d="M311.04,349.647c-64.454,0-116.705-52.25-116.705-116.705V67.872h-42.188
	c-9.906,0-17.936,8.03-17.936,17.936v301.018c0,9.905,8.03,17.935,17.935,17.935h175.394c27.75,0,50.247-22.496,50.247-50.246
	v-4.869L311.04,349.647L311.04,349.647z"/>
<g>
	<path style="fill:#098C73;" d="M207.654,361.003v-55.496c0-2.648,2.147-4.793,4.793-4.793h110.978c2.648,0,4.794,2.147,4.794,4.793
		v55.496c0,2.648-2.147,4.793-4.794,4.793H212.447C209.799,365.798,207.654,363.651,207.654,361.003z"/>
	<path style="fill:#098C73;" d="M203.44,100.886l128.964-0.029c5.023-0.001,9.098,4.065,9.108,9.088l0.031,15.011
		c0.01,5.036-4.068,9.124-9.104,9.125l-128.97,0.029c-5.024,0.001-9.1-4.067-9.108-9.091l-0.025-15.011
		C194.327,104.973,198.405,100.888,203.44,100.886z"/>
</g>
<path d="M333.532,93.881H202.34c-8.261,0-14.982,6.721-14.982,14.982v17.241c0,8.261,6.721,14.982,14.982,14.982h131.192
	c8.261,0,14.982-6.721,14.982-14.982v-17.241C348.514,100.602,341.793,93.881,333.532,93.881z M202.368,126.104l-0.029-17.212
	l131.163-0.029l0.035,17.212L202.368,126.104z"/>
<path d="M322.36,208.545c0-30.01-24.414-54.424-54.424-54.424c-30.01,0-54.424,24.414-54.424,54.424s24.414,54.424,54.424,54.424
	C297.946,262.968,322.36,238.554,322.36,208.545z M228.523,208.545c0-21.733,17.68-39.413,39.413-39.413
	c21.733,0,39.413,17.68,39.413,39.413s-17.68,39.413-39.413,39.413C246.203,247.957,228.523,230.277,228.523,208.545z"/>
<path d="M327.718,293.708H208.154c-4.145,0-7.505,3.36-7.505,7.505v64.084c0,4.145,3.36,7.505,7.505,7.505h119.564
	c4.145,0,7.505-3.36,7.505-7.505v-64.084C335.224,297.069,331.863,293.708,327.718,293.708z M320.213,357.792H215.66v-49.073
	h104.553V357.792z"/>
<path d="M369.783,207.748v146.768c0,23.329-18.912,42.24-42.24,42.24h-151.96v-120.65c0-4.11-3.166-7.694-7.274-7.817
	c-4.25-0.128-7.737,3.28-7.737,7.502v120.964h-8.423c-5.484,0-9.93-4.446-9.93-9.93V85.808c0-5.484,4.446-9.93,9.93-9.93h8.423
	v169.498c0,4.11,3.166,7.694,7.274,7.817c4.25,0.128,7.737-3.28,7.737-7.502V75.878h151.96c23.329,0,42.241,18.912,42.241,42.241
	v40.793c0,4.145,3.36,7.505,7.505,7.505l0,0c4.145,0,7.505-3.36,7.505-7.505v-40.793c0-27.554-19.567-50.62-45.535-56.042V17.312
	C339.257,7.751,331.508,0,321.947,0h-84.786C227.6,0,219.85,7.751,219.85,17.312v6.276h-48.806c-9.561,0-17.312,7.751-17.312,17.312
	v19.969h-1.584c-13.775,0-24.941,11.166-24.941,24.941v340.544c0,13.774,11.166,24.941,24.941,24.941h1.584v39.577
	c0,11.669,9.46,21.13,21.13,21.13h77.148c11.669,0,21.13-9.46,21.13-21.13v-1.283h44.988c11.669,0,21.13-9.46,21.13-21.13v-18.381
	c26.215-5.468,45.535-28.887,45.535-56.034V207.748c0-4.145-3.36-7.505-7.505-7.505l0,0
	C373.143,200.242,369.783,203.603,369.783,207.748z M234.861,17.312c0-1.269,1.032-2.301,2.301-2.301h84.786
	c1.269,0,2.301,1.032,2.301,2.301v43.556H273.14V40.899c0-9.546-7.766-17.312-17.312-17.312h-20.968V17.312z M168.743,40.899
	c0-1.269,1.032-2.301,2.301-2.301h84.786c1.269,0,2.301,1.032,2.301,2.301v19.969h-89.387V40.899z M258.13,490.871
	c0,3.374-2.745,6.119-6.118,6.119h-77.149c-3.374,0-6.118-2.745-6.118-6.119v-54.144h89.386V490.871z M324.247,468.457
	c0,3.374-2.745,6.118-6.119,6.118h-44.988v-37.85h51.107V468.457z M369.783,394.042c0,18.959-12.764,35.459-30.524,40.589v-5.411
	c0-4.145-3.36-7.505-7.505-7.505H161.237c-4.145,0-7.505,3.36-7.505,7.505v7.062h-1.584c-5.476,0-9.93-4.454-9.93-9.93V409.7
	c3.045,1.327,6.402,2.068,9.93,2.068h175.394c16.708,0,31.765-7.197,42.241-18.651V394.042z"/>
<g>
</g>
<g>
</g>
<g>
</g>
<g>
</g>
<g>
</g>
<g>
</g>
<g>
</g>
<g>
</g>
<g>
</g>
<g>
</g>
<g>
</g>
<g>
</g>
<g>
</g>
<g>
</g>
<g>
</g>
</svg>
