<?xml version="1.0" encoding="iso-8859-1"?>
<!-- Generator: Adobe Illustrator 19.0.0, SVG Export Plug-In . SVG Version: 6.00 Build 0)  -->
<svg version="1.1" id="Capa_1" xmlns="http://www.w3.org/2000/svg" xmlns:xlink="http://www.w3.org/1999/xlink" x="0px" y="0px"
	 viewBox="0 0 512 512" style="enable-background:new 0 0 512 512;" xml:space="preserve">
<path style="fill:#682C0B;" d="M50.87,397.365l16.608-21.257c1.064-1.362,2.889-1.876,4.507-1.269l11.555,4.333
	c0.862,0.323,1.584,0.936,2.042,1.734l9.44,16.438l-18.84,9.285L50.87,397.365z"/>
<path style="fill:#FAF7E6;" d="M415.519,339.821l0.867-8.785c0.525-5.332,0.792-10.756,0.792-16.121
	c0-11.168-1.163-22.356-3.457-33.253l-9.325-18.792l17.689,8.67c6.628,3.248,11.859,8.946,14.071,15.988
	c0.132,0.421,0.254,0.845,0.366,1.273c4.857-4.159,11.414-5.789,17.865-4.181c7.275,1.813,12.941,7.762,14.535,15.088
	c0.78,3.588,0.559,7.215-0.626,10.663h21.195c7.92,0,14.744,6.074,15.134,13.984c0.417,8.455-6.341,15.467-14.707,15.467h-74.399
	V339.821z"/>
<path style="fill:#EFE8CE;" d="M436.677,288.676c-0.051,0.043-0.104,0.081-0.154,0.125c-0.112-0.428-0.234-0.852-0.366-1.273
	c-2.212-7.042-7.443-12.74-14.071-15.988l-17.689-8.67l9.325,18.792c2.294,10.896,3.457,22.084,3.457,33.253
	c0,5.365-0.267,10.789-0.792,16.121l-0.867,8.785h21.153c1.177-8.362,1.8-16.902,1.8-25.589
	C438.472,305.557,437.851,297.028,436.677,288.676z"/>
<path style="fill:#999592;" d="M241.175,118.993v-14.071c0-5.844,4.755-10.598,10.599-10.598h8.453
	c5.844,0,10.599,4.754,10.599,10.598v14.071H241.175z"/>
<path style="fill:#B5B2B0;" d="M228.263,165.876l4.327-39.872c0.495-4.557,4.343-8.01,8.927-8.01h28.967
	c4.584,0,8.432,3.453,8.927,8.01l4.327,39.872H228.263z"/>
<path style="fill:#99908A;" d="M267.434,117.993h-25.918c-4.584,0-8.432,3.453-8.927,8.01l-4.327,39.872h25.918l4.327-39.872
	C259.002,121.447,262.85,117.993,267.434,117.993z"/>
<circle style="fill:#DD3A3A;" cx="256.5" cy="314.229" r="161.46"/>
<path style="fill:#C92020;" d="M251.17,314.232c0-60.854,33.671-113.835,83.394-141.354c-23.138-12.805-49.747-20.104-78.064-20.104
	c-89.171,0-161.458,72.287-161.458,161.458S167.329,475.689,256.5,475.689c28.317,0,54.926-7.299,78.064-20.104
	C284.841,428.067,251.17,375.085,251.17,314.232z"/>
<path style="fill:#AA0F0F;" d="M186.682,265.884c8.12,0,14.726-6.605,14.726-14.725s-6.605-14.726-14.726-14.726h-21.621
	c0.72-2.095,1.084-4.256,1.084-6.434c0-10.988-8.939-19.927-19.928-19.927c-4.756,0-9.315,1.696-12.93,4.791
	c-0.318-1.223-0.734-2.397-1.2-3.542c-13.173,15.907-23.352,34.382-29.678,54.563L186.682,265.884L186.682,265.884z"/>
<path style="fill:#773910;" d="M92.893,415.573l-15.468-9.553l-28.18-10.314c-1.584-0.58-3.347-0.387-4.768,0.52l-23.988,15.316
	c-1.556,0.993-2.498,2.712-2.497,4.558l0.005,34.337l-4.34,26.656h24.69l27.095,0.332l31.292-26.367L92.893,415.573z"/>
<path style="fill:#87461A;" d="M37.294,477.093l20.004-59.688c0.663-1.979,2.09-3.612,3.962-4.535l30.744-15.153
	c1.457-0.718,3.101-0.965,4.704-0.707l35.414,5.693c3.141,0.505,5.664,2.86,6.384,5.958l10.839,46.647l19.968,21.785L37.294,477.093
	L37.294,477.093z"/>
<circle style="fill:#C7EAEA;" cx="256.5" cy="314.229" r="132.5"/>
<g>
	<path style="fill:#A6D1D0;" d="M133.101,265.884h53.582c8.12,0,14.726-6.605,14.726-14.725s-6.605-14.726-14.726-14.726h-21.621
		c0.72-2.095,1.084-4.256,1.084-6.434c0-3.663-1.011-7.087-2.742-10.039C150.33,232.871,139.926,248.478,133.101,265.884z"/>
	<path style="fill:#A6D1D0;" d="M256.5,181.732c-35.277,0-67.331,13.79-91.074,36.268c18.296-9.537,39.094-14.935,61.154-14.935
		c73.178,0,132.5,59.322,132.5,132.5c0,37.901-15.917,72.081-41.426,96.232C360.05,409.698,389,365.349,389,314.232
		C389,241.054,329.678,181.732,256.5,181.732z"/>
</g>
<path style="fill:#682C0B;" d="M452.803,477.093l9.472-27.585v-14.533l25.271,6.989c2.116,0.585,3.581,2.511,3.581,4.706v30.423
	L452.803,477.093L452.803,477.093z"/>
<path style="fill:#773910;" d="M442.961,391.018c-3.658-3.532-9.082-4.516-13.747-2.494l-40.18,17.416l-36.296,16.407l25.104,53.343
	v1.816l28.8-0.412h47.216l8.734-25.433c0.452-1.315,0.682-2.697,0.682-4.087v-31.597c0-3.414-1.387-6.681-3.842-9.052
	L442.961,391.018z"/>
<path style="fill:#87461A;" d="M288.272,477.093l24.455-40.848l13.505-46.133c0.85-2.902,3.373-5,6.382-5.305l25.899-2.627
	c2.958-0.3,5.81,1.192,7.251,3.793l21.682,39.147l21.406,12.098c2.972,1.68,4.417,5.169,3.504,8.459l-4.713,16.963v14.455H288.272
	V477.093z"/>
<path style="fill:#FAF7E6;" d="M69.547,250.243c-8.12,0-14.726-6.606-14.726-14.726s6.605-14.725,14.726-14.725h6.367
	c-2.648-4.364-4.044-9.352-4.044-14.481c0-15.425,12.55-27.975,27.975-27.975c12.841,0,23.85,8.545,27.06,20.885
	c3.614-3.095,8.174-4.791,12.93-4.791c10.988,0,19.928,8.939,19.928,19.927c0,2.178-0.364,4.339-1.084,6.434H180.3
	c8.12,0,14.726,6.606,14.726,14.726s-6.605,14.725-14.726,14.725H69.547V250.243z"/>
<path style="fill:#EFE8CE;" d="M110.05,236.132c-8.12,0-14.726-6.606-14.726-14.726s6.605-14.725,14.726-14.725h6.367
	c-2.648-4.364-4.044-9.352-4.044-14.481c0-3.492,0.649-6.834,1.823-9.919c-4.217-2.51-9.126-3.944-14.351-3.944
	c-15.425,0-27.975,12.549-27.975,27.975c0,5.129,1.396,10.117,4.044,14.481h-6.367c-8.12,0-14.726,6.605-14.726,14.725
	c0,8.12,6.605,14.726,14.726,14.726h110.752c7.913,0,14.369-6.277,14.694-14.111H110.05V236.132z"/>
<path style="fill:#2C59C6;" d="M273.383,309.225c-1.579-2.409-3.651-4.457-6.08-6.007l-10.692-6.826l54.301-33.827
	c2.206-1.374,4.731,1.223,3.295,3.389l-13.996,21.114l-19.882,32.753L273.383,309.225z"/>
<path style="fill:#DD3A3A;" d="M197.075,379.281l35.596-58.64l6.945,10.595c1.58,2.41,3.652,4.457,6.081,6.008l10.692,6.826
	l-32.53,20.266l-23.911,17.575C198.196,383.198,195.947,381.139,197.075,379.281z"/>
<path style="fill:#B5B2B0;" d="M256.5,346.714c-14.603,0-26.482-11.88-26.482-26.482s11.88-26.482,26.482-26.482
	c14.603,0,26.482,11.88,26.482,26.482S271.103,346.714,256.5,346.714z"/>
<path style="fill:#682C0B;" d="M504.5,484.093H7.5c-4.143,0-7.5-3.358-7.5-7.5s3.357-7.5,7.5-7.5h497c4.143,0,7.5,3.358,7.5,7.5
	S508.643,484.093,504.5,484.093z"/>
<path d="M283.586,327.946l38.93-64.135c1.802-2.968,1.331-6.785-1.139-9.226c-2.471-2.442-6.292-2.868-9.238-1.032l-63.724,39.697
	c-9.164,2.751-16.373,10.051-19.002,19.266l-38.93,64.136c-1.802,2.968-1.331,6.785,1.139,9.226
	c1.444,1.428,3.351,2.166,5.274,2.166c1.366,0,2.74-0.372,3.964-1.134l63.722-39.697
	C273.748,344.462,280.958,337.162,283.586,327.946z M293.372,282.918l-13.303,21.915c-2.196-3.349-5.084-6.202-8.461-8.357
	L293.372,282.918z M219.628,357.546l13.303-21.915c2.195,3.349,5.084,6.201,8.461,8.357L219.628,357.546z M243.331,320.232
	c0-7.261,5.907-13.169,13.169-13.169c7.262,0,13.169,5.908,13.169,13.169s-5.907,13.169-13.169,13.169
	S243.331,327.493,243.331,320.232z"/>
<path d="M504.5,469.093h-6.373v-25.758c0-3.372-2.251-6.33-5.501-7.229l-22.352-6.182v-19.078c0-2.035-0.826-3.981-2.29-5.395
	l-25.962-25.072c-2.18-2.105-5.413-2.693-8.192-1.486l-26.322,11.41c6.874-13.768,11.798-28.365,14.673-43.482h67.737
	c11.979,0,21.726-9.746,21.726-21.725s-9.746-21.725-21.726-21.725h-13.543c-0.303-14.587-12.264-26.361-26.922-26.361
	c-3.289,0-6.507,0.599-9.52,1.742c-4.908-8.675-13.417-15.036-23.356-17.104c-18.867-56.731-67.006-100.217-126.427-112.445
	l-4.621-31.788c-0.536-3.687-3.696-6.421-7.422-6.421h-0.283v-6.071c0-0.672-0.046-1.332-0.12-1.984
	c11.685-7.365,18.949-20.248,18.949-34.381c0-22.417-18.237-40.655-40.654-40.655s-40.654,18.238-40.654,40.655
	c0,13.956,7.316,26.963,18.953,34.351c-0.076,0.662-0.124,1.333-0.124,2.015v6.071h-0.283c-3.726,0-6.886,2.734-7.422,6.421
	l-4.623,31.799c-28.57,5.878-55.296,19.089-77.496,38.604c-1.47-0.25-2.978-0.387-4.518-0.387c-3.274,0-6.479,0.593-9.48,1.727
	c-6.043-10.833-17.528-17.821-30.509-17.821c-19.285,0-34.975,15.689-34.975,34.975c0,2.648,0.298,5.267,0.88,7.813
	c-10.175,1.801-17.929,10.709-17.929,21.394c0,11.979,9.746,21.725,21.726,21.725h27.372c-6.696,18.428-10.096,37.776-10.096,57.672
	c0,26.69,6.265,52.779,18.192,76.339l-5.969-0.959l-8.012-13.952c-0.868-1.513-2.237-2.675-3.87-3.288l-15.095-5.661
	c-3.068-1.15-6.527-0.176-8.544,2.405l-14.396,18.426c-2.134-0.7-4.472-0.419-6.372,0.795l-28.302,18.07
	c-2.158,1.377-3.464,3.761-3.464,6.321v36.5l-3.123,19.182H7.5c-4.143,0-7.5,3.358-7.5,7.5s3.357,7.5,7.5,7.5l0,0
	c0.008,0,30.481,0.002,30.489,0.002c0.008,0-30.498-0.002-30.489-0.002h497c0.005,0-0.005,0,0,0s-0.005,0,0,0l0,0
	c0.008,0-0.008,0,0,0s-0.008,0,0,0l0,0c4.143,0,7.5-3.358,7.5-7.5S508.643,469.093,504.5,469.093z M428.925,291.404
	c0.6,2.612,2.547,4.707,5.108,5.493c2.565,0.787,5.351,0.146,7.312-1.679c2.223-2.069,5.103-3.208,8.108-3.208
	c6.577,0,11.928,5.351,11.928,11.927c0,1.433-0.27,2.864-0.802,4.253c-0.882,2.306-0.573,4.898,0.826,6.932s3.71,3.249,6.179,3.249
	h22.334c3.708,0,6.726,3.017,6.726,6.725s-3.018,6.725-6.726,6.725h-65.572c0.551-5.585,0.831-11.225,0.831-16.906
	c0-11.962-1.257-23.635-3.629-34.901C425.184,282.791,427.866,286.784,428.925,291.404z M230.346,68.557
	c0-14.146,11.509-25.655,25.654-25.655c14.145,0,25.654,11.509,25.654,25.655c0,8.874-4.544,16.96-11.852,21.62
	c-2.759-1.798-6.044-2.853-9.575-2.853h-8.453c-3.529,0-6.811,1.054-9.569,2.849C234.919,85.499,230.346,77.324,230.346,68.557z
	 M271.62,125.993l2.87,19.744h-36.98l2.87-19.744H271.62z M249.175,110.993v-6.071c0-1.433,1.166-2.598,2.599-2.598h8.453
	c1.433,0,2.599,1.166,2.599,2.598v6.071H249.175z M256,160.737c85.014,0,154.178,69.164,154.178,154.178
	c0,30.705-8.935,60.108-25.848,85.434l-2.097,0.909l-7.883-14.232c13.243-21.688,20.228-46.518,20.228-72.112
	c0-26.457-7.459-51.202-20.377-72.253c-2.319-3.78-7.593-4.456-10.746-1.338c-0.173,0.171-0.349,0.338-0.528,0.502
	c-2.513,2.293-3.162,5.979-1.389,8.883c10.209,16.717,16.562,36.033,17.806,56.707h-15.917c-4.107,0-7.688,3.164-7.811,7.269
	c-0.128,4.247,3.277,7.731,7.497,7.731h16.236c-1.109,18.455-6.297,36.301-15.227,52.389c-0.578-0.079-1.168-0.11-1.765-0.051
	l-35.088,3.56c-3.037,0.308-5.584,2.426-6.441,5.355l-12.677,43.305c-14.113,6.586-29.091,10.371-44.648,11.292v-15.924
	c0-4.107-3.165-7.688-7.27-7.811c-4.247-0.127-7.73,3.278-7.73,7.497v16.232c-62.179-3.741-112.102-53.664-115.843-115.843h15.917
	c4.107,0,7.688-3.164,7.811-7.269c0.128-4.247-3.277-7.731-7.497-7.731h-16.237c1.068-17.541,5.867-34.701,14.04-50.172h33.133
	c11.603,0,21.521-8.905,22.166-20.489c0.619-11.115-7.171-20.563-17.579-22.566c18.791-13.364,40.981-21.197,64.089-22.599v15.901
	c0,4.107,3.165,7.688,7.27,7.811c4.247,0.127,7.73-3.278,7.73-7.497v-16.232c25.534,1.536,48.997,10.865,68.047,25.628
	c2.641,2.047,6.32,1.855,8.861-0.316c0.186-0.159,0.375-0.314,0.568-0.466c3.534-2.781,3.509-8.163-0.041-10.924
	c-23.475-18.265-52.956-29.156-84.935-29.156c-32.929,0-64.698,11.697-89.721,32.971c-1.037-5.44-3.711-10.306-7.495-14.059
	C186.208,172.951,220.478,160.737,256,160.737z M69.547,242.243c-3.708,0-6.726-3.017-6.726-6.726c0-3.708,3.018-6.725,6.726-6.725
	h7.271c2.752,0,5.283-1.507,6.595-3.927c1.311-2.42,1.191-5.363-0.312-7.669c-2.114-3.242-3.231-7.006-3.231-10.885
	c0-11.014,8.961-19.975,19.975-19.975c9.368,0,17.371,6.369,19.461,15.488c0.599,2.612,2.547,4.707,5.108,5.494
	c2.564,0.789,5.35,0.146,7.312-1.679c2.223-2.069,5.103-3.208,8.108-3.208c6.577,0,11.928,5.351,11.928,11.927
	c0,1.433-0.27,2.864-0.802,4.253c-0.882,2.306-0.573,4.898,0.826,6.932c1.399,2.034,3.71,3.249,6.179,3.249h22.334
	c3.708,0,6.726,3.017,6.726,6.726c0,3.708-3.018,6.725-6.726,6.725h-72.161c-0.025,0-0.05,0-0.075,0H69.547L69.547,242.243z
	 M71.955,383.373l7.414,2.78l4.47,7.785l-8.123,4.004l-11.776-4.31L71.955,383.373z M32.592,469.093h-9.526l2.828-17.371
	c0.065-0.398,0.098-0.801,0.098-1.205V417.52L47.7,403.66l1.319,0.483c0.013,0.005,0.027,0.01,0.04,0.015l8.06,2.95l-1.692,0.834
	c-1.794,0.884-3.16,2.448-3.796,4.344L32.592,469.093z M48.412,469.093l16.449-49.079l30.632-15.098l35.247,5.666l10.843,46.664
	c0.293,1.258,0.904,2.418,1.776,3.37l7.769,8.477L48.412,469.093L48.412,469.093z M171.476,469.093l-15.728-17.16l-0.203-0.875
	c9.616,7.121,19.895,13.149,30.674,18.035H171.476z M286.743,466.02c-10.056,2.034-20.392,3.073-30.743,3.073
	c-39.748,0-77.335-15.021-106.1-42.328l-5.689-24.486c-0.69-2.968-3.106-5.224-6.115-5.708l-14.282-2.296
	c-14.385-23.911-21.991-51.269-21.991-79.361c0-19.989,3.756-39.365,11.154-57.672h17.009
	c-8.233,18.003-12.562,37.728-12.562,57.672c0,76.412,62.165,138.577,138.577,138.577c14.509,0,28.616-2.189,42.144-6.515
	L286.743,466.02z M399.916,460.564c-0.182,0.654-0.273,1.329-0.273,2.007v6.522h-97.257l17.237-28.792
	c0.328-0.547,0.584-1.133,0.764-1.745l13.416-45.83l25.145-2.551l0.083,0.15c0.001,0.002,0.002,0.004,0.003,0.006l13.382,24.161
	c0.008,0.015,0.017,0.03,0.025,0.045l8.076,14.58c0.671,1.212,1.664,2.214,2.87,2.896l21.142,11.949L399.916,460.564z
	 M455.274,448.339l-7.127,20.755h-33.505v-5.5l5.908-21.268c0.922-3.32-0.536-6.841-3.536-8.537l-24.403-13.792l-2.082-3.759
	c1.007-0.522,3.37-3.32,3.744-3.851l40.929-17.741l20.071,19.384v34.309H455.274z M483.127,469.093h-19.119l5.861-17.067
	c0.269-0.784,0.406-1.607,0.406-2.436v-4.103l12.853,3.555v20.051H483.127z"/>
<g>
</g>
<g>
</g>
<g>
</g>
<g>
</g>
<g>
</g>
<g>
</g>
<g>
</g>
<g>
</g>
<g>
</g>
<g>
</g>
<g>
</g>
<g>
</g>
<g>
</g>
<g>
</g>
<g>
</g>
</svg>
