<?xml version="1.0" encoding="iso-8859-1"?>
<!-- Generator: Adobe Illustrator 19.0.0, SVG Export Plug-In . SVG Version: 6.00 Build 0)  -->
<svg version="1.1" id="Capa_1" xmlns="http://www.w3.org/2000/svg" xmlns:xlink="http://www.w3.org/1999/xlink" x="0px" y="0px"
	 viewBox="0 0 512.002 512.002" style="enable-background:new 0 0 512.002 512.002;" xml:space="preserve">
<path style="fill:#AA9572;" d="M9.597,64.957l122.206-24.12v332.902L12.576,397.271c-3.395,0.67-6.557-1.928-6.557-5.389V69.311
	C6.019,67.19,7.518,65.367,9.597,64.957z"/>
<polygon style="fill:#37D1C9;" points="6.019,98.885 131.803,73.992 131.803,340.538 6.019,359.993 "/>
<path style="fill:#16A877;" d="M67.843,297.738l18.218-17.44l18.851-11.246l26.477-31.939l0.415,103.424l-63.179,9.772
	l-4.622-42.015C63.572,304.37,64.992,300.468,67.843,297.738z"/>
<polygon style="fill:#F24400;" points="6.071,182.126 131.803,150.966 131.803,181.153 6.071,212.202 "/>
<polygon style="fill:#E2D3B7;" points="131.803,373.739 131.803,40.838 256.518,65.664 256.518,398.565 "/>
<polygon style="fill:#7FE4F4;" points="131.803,340.538 131.803,73.992 256.518,98.885 256.518,359.993 "/>
<path style="fill:#2AF49D;" d="M131.803,340.538l-0.415-103.424l48.335,15.65c4.359,1.37,7.23,5.528,6.965,10.091l-2.221,38.224
	c-0.155,2.671,0.813,5.285,2.672,7.209l14.176,14.682c2.484,2.572,3.4,6.28,2.4,9.712l-5.334,18.32L131.803,340.538z"/>
<polygon style="fill:#F4663B;" points="131.803,181.153 131.803,150.966 256.518,182.408 256.518,212.483 "/>
<polygon style="fill:#AA9572;" points="256.518,65.664 381.767,40.838 381.767,373.739 256.518,398.565 "/>
<path style="fill:#E2D3B7;" d="M381.767,373.739V40.838l118.335,23.555c3.709,0.738,6.38,3.993,6.38,7.774v315.766
	c0,5.502-5.031,9.629-10.427,8.556L381.767,373.739z"/>
<polygon style="fill:#37D1C9;" points="256.518,98.885 381.767,73.992 382.302,340.538 256.518,359.993 "/>
<polygon style="fill:#7FE4F4;" points="381.231,340.538 381.767,73.992 506.481,98.779 506.481,359.91 "/>
<rect x="366.127" y="233.822" style="fill:#9BB8BC;" width="29.146" height="43.304"/>
<g>
	<path style="fill:#0C4156;" d="M358.858,236.51v-16.294c0-2.389,1.937-4.326,4.326-4.326h35.026c2.389,0,4.326,1.937,4.326,4.326
		v16.294c0,2.389-1.937,4.326-4.326,4.326h-35.026C360.794,240.836,358.858,238.899,358.858,236.51z"/>
	<path style="fill:#0C4156;" d="M380.697,471.046c-55.396,0-100.464-45.068-100.464-100.464S325.301,270.12,380.697,270.12
		s100.464,45.067,100.464,100.463S436.092,471.046,380.697,471.046z"/>
</g>
<path style="fill:#044C56;" d="M369.485,362.999c0-36.288,19.341-68.142,48.254-85.801c-11.467-4.565-23.967-7.078-37.042-7.078
	c-55.396,0-100.464,45.067-100.464,100.463s45.067,100.464,100.464,100.464c19.108,0,36.985-5.364,52.209-14.662
	C395.789,441.61,369.485,405.319,369.485,362.999z"/>
<path style="fill:#C7EAEA;" d="M380.697,444.218c-40.603,0-73.636-33.033-73.636-73.636s33.033-73.635,73.636-73.635
	s73.636,33.033,73.636,73.635S421.3,444.218,380.697,444.218z"/>
<path style="fill:#A6D1D0;" d="M380.697,296.948c-23.498,0-44.445,11.077-57.937,28.269c11.196-6.88,24.359-10.856,38.436-10.856
	c40.603,0,73.636,33.033,73.636,73.635c0,17.105-5.878,32.852-15.699,45.366c21.097-12.964,35.2-36.253,35.2-62.778
	C454.331,329.98,421.3,296.948,380.697,296.948z"/>
<g>
	<path style="fill:#DD3A3A;" d="M363.082,354.418l41.409-11.259c2.208-0.6,4.234,1.421,3.64,3.63l-10.728,39.884
		c-0.281,1.046-1.11,1.854-2.161,2.11l-38.692,9.425c-2.119,0.516-4.051-1.356-3.602-3.491l8.01-38.049
		C361.188,355.579,362.007,354.71,363.082,354.418z"/>
	<path style="fill:#DD3A3A;" d="M318.34,191.343c-11.097,0-20.124-9.027-20.124-20.124c0-11.097,9.027-20.124,20.124-20.124
		c11.095,0,20.123,9.027,20.123,20.124C338.463,182.316,329.436,191.343,318.34,191.343z"/>
</g>
<path d="M505.949,59.446L381.7,34.924c-0.07-0.014-0.14-0.018-0.21-0.029c-0.14-0.024-0.281-0.043-0.422-0.059
	c-0.134-0.015-0.268-0.026-0.402-0.033c-0.14-0.008-0.28-0.012-0.42-0.012c-0.136,0-0.272,0.004-0.408,0.011
	c-0.138,0.008-0.276,0.019-0.414,0.034c-0.138,0.015-0.274,0.035-0.411,0.057c-0.072,0.012-0.144,0.016-0.216,0.03L256.001,59.16
	L133.205,34.924c-0.069-0.014-0.139-0.018-0.208-0.029c-0.141-0.024-0.283-0.044-0.425-0.059c-0.134-0.015-0.267-0.025-0.4-0.033
	c-0.14-0.008-0.28-0.012-0.421-0.012c-0.137,0-0.273,0.004-0.409,0.011c-0.138,0.008-0.275,0.019-0.412,0.034
	c-0.139,0.015-0.276,0.035-0.413,0.058c-0.071,0.012-0.143,0.016-0.215,0.03L6.051,59.446C2.534,60.139,0,63.224,0,66.808v33.019
	c0,0.017,0,0.035,0,0.052V397.38c0,2.245,1.006,4.372,2.739,5.797c1.355,1.113,3.042,1.707,4.766,1.707
	c0.483,0,0.971-0.047,1.453-0.142l122.795-24.235l122.795,24.235c0.038,0.007,0.076,0.01,0.114,0.017
	c0.056,0.01,0.111,0.016,0.167,0.025c0.39,0.062,0.781,0.101,1.172,0.101s0.781-0.039,1.173-0.101
	c0.055-0.009,0.111-0.014,0.166-0.024c0.038-0.007,0.077-0.009,0.115-0.017l20.2-3.986c13.199,44.166,54.195,76.454,102.595,76.454
	s89.395-32.288,102.595-76.454l20.2,3.986c0.482,0.095,0.97,0.142,1.453,0.142c1.723,0,3.411-0.594,4.766-1.707
	c1.733-1.425,2.739-3.552,2.739-5.797V66.808C512,63.224,509.466,60.139,505.949,59.446z M124.248,366.69l-109.24,21.56v-22.84
	l109.24-16.897V366.69z M124.248,333.328l-47.836,7.399l-3.933-35.769l19.134-18.317l18.076-10.784
	c0.733-0.438,1.388-0.998,1.933-1.655l12.625-15.23L124.248,333.328L124.248,333.328z M124.248,235.452l-23.356,28.175
	l-17.698,10.558c-0.484,0.29-0.937,0.633-1.345,1.024l-22.423,21.466c-1.686,1.614-2.524,3.92-2.27,6.241l4.409,40.106
	l-46.557,7.202V217.57l109.24-26.975V235.452z M124.248,175.136L15.06,202.099v-13.407l109.189-26.962V175.136z M124.248,146.271
	l-109.24,26.974v-67.174l109.24-21.62V146.271z M124.248,69.152l-109.24,21.62V72.977l109.24-21.56V69.152z M139.257,248.384
	l39.769,12.498l-2.554,43.963c-0.121,2.092,0.637,4.14,2.093,5.648l17.953,18.595l-3.648,12.533l-53.613-8.293L139.257,248.384
	L139.257,248.384z M248.496,388.251l-109.24-21.559v-18.176l109.24,16.897L248.496,388.251L248.496,388.251z M248.496,350.224
	l-40.668-6.291l4.317-14.83c0.752-2.584,0.063-5.374-1.807-7.31l-18.694-19.361l2.703-46.521c0.199-3.434-1.961-6.564-5.242-7.594
	l-49.849-15.665v-42.037l109.24,27.207L248.496,350.224L248.496,350.224z M139.787,175.279v-13.398l107.935,26.883v13.399
	L139.787,175.279z M248.496,173.49l-109.24-27.208V84.451l109.24,21.62L248.496,173.49L248.496,173.49z M248.496,90.772
	l-109.24-21.62V51.416l109.24,21.56L248.496,90.772L248.496,90.772z M263.505,72.977l109.24-21.56v22.839l-109.24,16.898V72.977z
	 M263.505,388.251v-22.84l9.873-1.527c-0.12,2.074-0.188,4.163-0.188,6.268c0,5.421,0.408,10.747,1.19,15.954L263.505,388.251z
	 M380.248,462.201c-50.758,0-92.051-41.294-92.051-92.051s41.294-92.051,92.051-92.051s92.051,41.294,92.051,92.051
	C472.299,420.908,431.005,462.201,380.248,462.201z M366.527,232.852v-8.778h27.441v8.778H366.527z M386.729,247.86v15.232h-12.962
	V247.86H386.729z M496.992,388.251l-10.874-2.146c0.781-5.206,1.19-10.533,1.19-15.954c0-2.104-0.068-4.192-0.188-6.267l9.873,1.527
	V388.251z M496.992,350.224l-11.912-1.842c-8.646-41.692-41.612-74.585-83.343-83.122v-19.075c4.308-2.346,7.239-6.917,7.239-12.158
	v-11.126c0-7.641-6.195-13.835-13.835-13.835h-7.39v-40.168c0-4.144-3.36-7.504-7.504-7.504l0,0c-4.144,0-7.504,3.36-7.504,7.504
	v40.168h-7.39c-7.641,0-13.835,6.194-13.835,13.835v11.126c0,5.242,2.931,9.812,7.239,12.158v19.075
	c-41.732,8.537-74.696,41.43-83.343,83.122l-11.912,1.842V106.34l109.24-16.897v30.625c0,4.144,3.36,7.504,7.504,7.504l0,0
	c4.144,0,7.504-3.36,7.504-7.504V89.443l109.24,16.897v243.885H496.992z M496.992,91.153l-109.24-16.898V51.416l109.24,21.56V91.153
	z"/>
<path d="M380.248,289.981c-44.206,0-80.169,35.963-80.169,80.169s35.963,80.17,80.169,80.17s80.17-35.964,80.17-80.17
	S424.454,289.981,380.248,289.981z M380.248,435.312c-35.929,0-65.161-29.232-65.161-65.162s29.232-65.161,65.161-65.161
	c35.93,0,65.162,29.23,65.162,65.161S416.178,435.312,380.248,435.312z"/>
<path d="M406.192,334.997l-46.751,12.712c-2.719,0.739-4.794,2.939-5.374,5.695l-9.075,43.114c-0.531,2.522,0.27,5.141,2.121,6.935
	c1.416,1.373,3.295,2.115,5.222,2.115c0.592,0,1.189-0.07,1.776-0.213l43.671-10.639c2.661-0.648,4.759-2.697,5.47-5.342
	l12.155-45.189c0.698-2.595-0.044-5.365-1.947-7.263C411.556,335.026,408.782,334.292,406.192,334.997z M389.913,381.187
	l-27.783,6.768l5.677-26.967l29.712-8.08L389.913,381.187z"/>
<path d="M318.124,144.512c-14.899,0-27.02,12.121-27.02,27.02c0,12.295,8.258,22.691,19.516,25.952v22.35
	c0,4.144,3.359,7.504,7.504,7.504c4.145,0,7.504-3.36,7.504-7.504v-22.35c11.258-3.261,19.516-13.657,19.516-25.952
	C345.144,156.633,333.023,144.512,318.124,144.512z M318.124,183.544c-6.623,0-12.012-5.388-12.012-12.012
	s5.389-12.012,12.012-12.012c6.623,0,12.012,5.388,12.012,12.012S324.747,183.544,318.124,183.544z"/>
<path d="M478.463,241.911l-4.491-3.685l4.533-3.636c3.232-2.593,3.751-7.316,1.158-10.549c-2.593-3.233-7.316-3.752-10.55-1.158
	l-6.996,5.612l-6.933-5.69c-3.201-2.628-7.93-2.164-10.562,1.04c-2.629,3.204-2.163,7.932,1.041,10.562l4.492,3.686l-4.533,3.636
	c-3.232,2.593-3.751,7.316-1.158,10.549c1.482,1.848,3.66,2.81,5.858,2.81c1.647,0,3.306-0.54,4.691-1.651l6.996-5.612l6.933,5.69
	c1.396,1.146,3.081,1.704,4.757,1.704c2.169,0,4.32-0.936,5.805-2.744C482.133,249.269,481.668,244.541,478.463,241.911z"/>
<g>
</g>
<g>
</g>
<g>
</g>
<g>
</g>
<g>
</g>
<g>
</g>
<g>
</g>
<g>
</g>
<g>
</g>
<g>
</g>
<g>
</g>
<g>
</g>
<g>
</g>
<g>
</g>
<g>
</g>
</svg>
