<?xml version="1.0" encoding="iso-8859-1"?>
<!-- Generator: Adobe Illustrator 19.0.0, SVG Export Plug-In . SVG Version: 6.00 Build 0)  -->
<svg version="1.1" id="Capa_1" xmlns="http://www.w3.org/2000/svg" xmlns:xlink="http://www.w3.org/1999/xlink" x="0px" y="0px"
	 viewBox="0 0 511.996 511.996" style="enable-background:new 0 0 511.996 511.996;" xml:space="preserve">
<path style="fill:#FFC022;" d="M69.619,365.431c-3.699,0-6.699-2.999-6.699-6.699v-32.566c0-4.735,1.352-9.443,3.837-13.465
	c2.704-4.375,9.008-8.265,14.15-8.244c5.112,0.021,9.786,2.387,12.831,6.497c3.238,4.371,5.02,9.773,5.02,15.212v32.566
	c0,3.699-2.999,6.699-6.699,6.699H69.619z"/>
<path style="fill:#EFAA0F;" d="M80.213,358.732v-32.566c0-4.735,1.352-9.443,3.838-13.465c1.279-2.07,3.368-4.026,5.756-5.516
	c-2.587-1.749-5.652-2.715-8.897-2.728c-5.143-0.021-11.446,3.869-14.15,8.244c-2.487,4.023-3.837,8.73-3.837,13.465v32.566
	c0,3.699,2.999,6.699,6.699,6.699h17.292C83.212,365.431,80.213,362.432,80.213,358.732z"/>
<path id="SVGCleanerId_0" style="fill:#FF9100;" d="M80.84,304.457c-5.139,0-9.84,2.368-12.899,6.497
	c-3.238,4.371-5.021,9.773-5.021,15.212v4.999h35.84v-4.999c0-5.439-1.783-10.841-5.02-15.212
	C90.681,306.825,85.979,304.457,80.84,304.457z"/>
<path style="fill:#FFC022;" d="M140.044,365.431c-3.699,0-6.699-2.999-6.699-6.699v-32.566c0-4.735,1.352-9.443,3.837-13.465
	c2.704-4.375,9.008-8.265,14.15-8.244c5.112,0.021,9.786,2.387,12.831,6.497c3.238,4.371,5.02,9.773,5.02,15.212v32.566
	c0,3.699-2.999,6.699-6.699,6.699H140.044z"/>
<path style="fill:#EFAA0F;" d="M150.637,358.732v-32.566c0-4.735,1.352-9.443,3.838-13.465c1.279-2.07,3.368-4.026,5.756-5.516
	c-2.587-1.749-5.652-2.715-8.897-2.728c-5.143-0.021-11.446,3.869-14.15,8.244c-2.487,4.023-3.837,8.73-3.837,13.465v32.566
	c0,3.699,2.999,6.699,6.699,6.699h17.292C153.636,365.431,150.637,362.432,150.637,358.732z"/>
<path style="fill:#FF9100;" d="M151.264,304.457c-5.139,0-9.84,2.368-12.899,6.497c-3.238,4.371-5.021,9.773-5.021,15.212v4.999
	h35.84v-4.999c0-5.439-1.783-10.841-5.02-15.212C161.104,306.825,156.402,304.457,151.264,304.457z"/>
<path style="fill:#FFC022;" d="M210.467,365.431c-3.699,0-6.699-2.999-6.699-6.699v-32.566c0-4.735,1.352-9.443,3.837-13.465
	c2.704-4.375,9.008-8.265,14.15-8.244c5.112,0.021,9.786,2.387,12.831,6.497c3.238,4.371,5.02,9.773,5.02,15.212v32.566
	c0,3.699-2.999,6.699-6.699,6.699H210.467z"/>
<path style="fill:#EFAA0F;" d="M221.061,358.732v-32.566c0-4.735,1.352-9.443,3.838-13.465c1.279-2.07,3.368-4.026,5.756-5.516
	c-2.587-1.749-5.652-2.715-8.897-2.728c-5.143-0.021-11.446,3.869-14.15,8.244c-2.487,4.023-3.837,8.73-3.837,13.465v32.566
	c0,3.699,2.999,6.699,6.699,6.699h17.292C224.06,365.431,221.061,362.432,221.061,358.732z"/>
<path style="fill:#FF9100;" d="M221.687,304.457c-5.139,0-9.84,2.368-12.899,6.497c-3.238,4.371-5.021,9.773-5.021,15.212v4.999
	h35.84v-4.999c0-5.439-1.783-10.841-5.02-15.212C231.529,306.825,226.827,304.457,221.687,304.457z"/>
<path style="fill:#FFC022;" d="M280.89,365.431c-3.699,0-6.699-2.999-6.699-6.699v-32.566c0-4.735,1.352-9.443,3.837-13.465
	c2.704-4.375,9.008-8.265,14.151-8.244c5.112,0.021,9.786,2.387,12.831,6.497c3.238,4.371,5.02,9.773,5.02,15.212v32.566
	c0,3.699-2.999,6.699-6.699,6.699H280.89z"/>
<path style="fill:#EFAA0F;" d="M291.484,358.732v-32.566c0-4.735,1.352-9.443,3.838-13.465c1.279-2.07,3.368-4.026,5.756-5.516
	c-2.587-1.749-5.652-2.715-8.897-2.728c-5.143-0.021-11.446,3.869-14.151,8.244c-2.487,4.023-3.837,8.73-3.837,13.465v32.566
	c0,3.699,2.999,6.699,6.699,6.699h17.292C294.483,365.431,291.484,362.432,291.484,358.732z"/>
<path style="fill:#FF9100;" d="M292.111,304.457c-5.139,0-9.84,2.368-12.899,6.497c-3.238,4.371-5.021,9.773-5.021,15.212v4.999
	h35.84v-4.999c0-5.439-1.783-10.841-5.02-15.212C301.952,306.825,297.25,304.457,292.111,304.457z"/>
<path style="fill:#FFC022;" d="M351.314,365.431c-3.699,0-6.699-2.999-6.699-6.699v-32.566c0-4.735,1.352-9.443,3.837-13.465
	c2.704-4.375,9.008-8.265,14.15-8.244c5.112,0.021,9.786,2.387,12.831,6.497c3.238,4.371,5.02,9.773,5.02,15.212v32.566
	c0,3.699-2.999,6.699-6.699,6.699H351.314z"/>
<path style="fill:#EFAA0F;" d="M361.907,358.732v-32.566c0-4.735,1.352-9.443,3.838-13.465c1.279-2.07,3.368-4.026,5.756-5.516
	c-2.587-1.749-5.652-2.715-8.897-2.728c-5.143-0.021-11.446,3.869-14.151,8.244c-2.487,4.023-3.837,8.73-3.837,13.465v32.566
	c0,3.699,2.999,6.699,6.699,6.699h17.292C364.906,365.431,361.907,362.432,361.907,358.732z"/>
<path style="fill:#FF9100;" d="M362.535,304.457c-5.139,0-9.84,2.368-12.899,6.497c-3.238,4.371-5.021,9.773-5.021,15.212v4.999
	h35.84v-4.999c0-5.439-1.783-10.841-5.02-15.212C372.375,306.825,367.673,304.457,362.535,304.457z"/>
<path style="fill:#FFC022;" d="M421.738,365.431c-3.699,0-6.699-2.999-6.699-6.699v-32.566c0-4.735,1.352-9.443,3.837-13.465
	c2.704-4.375,9.008-8.265,14.15-8.244c5.112,0.021,9.786,2.387,12.831,6.497c3.238,4.371,5.02,9.773,5.02,15.212v32.566
	c0,3.699-2.999,6.699-6.699,6.699H421.738z"/>
<path style="fill:#EFAA0F;" d="M432.331,358.732v-32.566c0-4.735,1.352-9.443,3.838-13.465c1.279-2.07,3.368-4.026,5.756-5.516
	c-2.587-1.749-5.652-2.715-8.897-2.728c-5.143-0.021-11.446,3.869-14.15,8.244c-2.487,4.023-3.837,8.73-3.837,13.465v32.566
	c0,3.699,2.999,6.699,6.699,6.699h17.292C435.33,365.431,432.331,362.432,432.331,358.732z"/>
<path style="fill:#FF9100;" d="M432.958,304.457c-5.139,0-9.84,2.368-12.899,6.497c-3.238,4.371-5.021,9.773-5.021,15.212v4.999
	h35.84v-4.999c0-5.439-1.783-10.841-5.02-15.212C442.799,306.825,438.097,304.457,432.958,304.457z"/>
<g>
	<path id="SVGCleanerId_0_1_" style="fill:#FF9100;" d="M80.84,304.457c-5.139,0-9.84,2.368-12.899,6.497
		c-3.238,4.371-5.021,9.773-5.021,15.212v4.999h35.84v-4.999c0-5.439-1.783-10.841-5.02-15.212
		C90.681,306.825,85.979,304.457,80.84,304.457z"/>
</g>
<g>
	<path style="fill:#DD7800;" d="M85.234,310.955c1.191-1.608,2.635-2.938,4.253-3.976c-2.537-1.629-5.508-2.522-8.647-2.522
		c-5.139,0-9.84,2.368-12.899,6.497c-3.238,4.371-5.021,9.773-5.021,15.212v4.999h17.292v-4.999
		C80.213,320.728,81.996,315.325,85.234,310.955z"/>
	<path style="fill:#DD7800;" d="M155.657,310.955c1.191-1.608,2.635-2.938,4.253-3.976c-2.537-1.629-5.508-2.522-8.647-2.522
		c-5.139,0-9.84,2.368-12.899,6.497c-3.238,4.371-5.021,9.773-5.021,15.212v4.999h17.292v-4.999
		C150.637,320.728,152.42,315.325,155.657,310.955z"/>
	<path style="fill:#DD7800;" d="M226.081,310.955c1.191-1.608,2.635-2.938,4.253-3.976c-2.537-1.629-5.508-2.522-8.647-2.522
		c-5.139,0-9.84,2.368-12.899,6.497c-3.238,4.371-5.021,9.773-5.021,15.212v4.999h17.292v-4.999
		C221.061,320.728,222.843,315.325,226.081,310.955z"/>
	<path style="fill:#DD7800;" d="M296.505,310.955c1.191-1.608,2.635-2.938,4.253-3.976c-2.537-1.629-5.508-2.522-8.647-2.522
		c-5.139,0-9.84,2.368-12.899,6.497c-3.238,4.371-5.021,9.773-5.021,15.212v4.999h17.292v-4.999
		C291.484,320.728,293.267,315.325,296.505,310.955z"/>
	<path style="fill:#DD7800;" d="M366.928,310.955c1.191-1.608,2.635-2.938,4.253-3.976c-2.537-1.629-5.508-2.522-8.647-2.522
		c-5.139,0-9.84,2.368-12.899,6.497c-3.238,4.371-5.021,9.773-5.021,15.212v4.999h17.292v-4.999
		C361.907,320.728,363.691,315.325,366.928,310.955z"/>
	<path style="fill:#DD7800;" d="M437.352,310.955c1.191-1.608,2.635-2.938,4.253-3.976c-2.537-1.629-5.508-2.522-8.647-2.522
		c-5.139,0-9.84,2.368-12.899,6.497c-3.238,4.371-5.021,9.773-5.021,15.212v4.999h17.292v-4.999
		C432.331,320.728,434.114,315.325,437.352,310.955z"/>
</g>
<path style="fill:#2B2725;" d="M441.335,172.279l6.999-21.329c0.859-2.617,3.301-4.387,6.056-4.387h23.629
	c3.521,0,6.375,2.854,6.375,6.375v19.341L441.335,172.279L441.335,172.279z"/>
<g>
	<path style="fill:#6D6864;" d="M263.684,234.087c-5.388,0-9.773-4.385-9.773-9.773V205.89h76.359v28.197H263.684z"/>
	<path style="fill:#6D6864;" d="M390.469,237.831v-21.088h27.481c4.465,0,8.097,3.633,8.097,8.097v4.894
		c0,4.464-3.633,8.096-8.097,8.096H390.469z"/>
</g>
<path style="fill:#2B2725;" d="M338.306,245.822c-4.981,0-9.034-4.053-9.034-9.033v-47.856h62.194v47.856
	c0,4.981-4.053,9.033-9.033,9.033H338.306z"/>
<path style="fill:#9BB8BC;" d="M195.354,206.887v-35.605H500.18c2.672,0,4.839,2.166,4.839,4.839v16.831
	c0,2.672-2.166,4.839-4.839,4.839H359.234c-1.971,0-3.8,1.022-4.833,2.7l-2.04,3.315c-1.179,1.916-3.268,3.083-5.517,3.083H195.354
	V206.887z"/>
<path style="fill:#81A0A3;" d="M500.181,183.117H359.234c-1.971,0-3.8,1.022-4.833,2.701l-2.04,3.314
	c-1.179,1.916-3.268,3.083-5.517,3.083H195.354v14.672h151.491c2.249,0,4.338-1.167,5.517-3.083l2.04-3.315
	c1.032-1.678,2.862-2.7,4.833-2.7H500.18c2.672,0,4.839-2.166,4.839-4.839v-14.672C505.018,180.95,502.853,183.117,500.181,183.117z
	"/>
<path style="fill:#C15C10;" d="M18.493,252.424c-2.617,0-5.191-0.919-7.246-2.587c-2.714-2.21-4.265-5.473-4.265-8.959V182.61
	c0-6.374,5.167-11.54,11.54-11.54h103.805c1.186,0,2.338,0.394,3.275,1.12l2.307,1.788c6.152,4.766,13.826,7.392,21.609,7.392
	c7.754,0,15.405-2.608,21.545-7.343l3.56-2.745h21.727v35.605h-48.038c-2.502,0-4.844,1.231-6.263,3.292l-13.478,19.577
	L20.874,252.175C20.098,252.339,19.291,252.424,18.493,252.424z"/>
<path style="fill:#B74F08;" d="M61.702,233.012c-0.776,0.164-1.583,0.248-2.382,0.248c-2.617,0-5.191-0.919-7.246-2.587
	c-2.714-2.21-4.265-5.472-4.265-8.958v-50.644H18.522c-6.374,0-11.54,5.167-11.54,11.54v58.268c0,3.486,1.551,6.749,4.265,8.958
	c2.056,1.669,4.629,2.587,7.246,2.587c0.799,0,1.605-0.085,2.382-0.248l107.699-22.419l8.57-12.449L61.702,233.012z"/>
<path style="fill:#6F8A8C;" d="M220.451,171.781v32.731c0,0.832,0.142,1.629,0.392,2.376h14.177c0.25-0.747,0.392-1.545,0.392-2.376
	v-32.731c0-0.169-0.014-0.333-0.025-0.499h-14.912C220.465,171.448,220.451,171.612,220.451,171.781z"/>
<path d="M497.919,164.3h-6.543v-17.238c0-4.131-3.349-7.481-7.481-7.481h-33.761c-3.233,0-6.099,2.077-7.108,5.148l-6.421,19.571
	H174.795c-1.654,0-3.26,0.548-4.569,1.557l-3.425,2.64c-4.924,3.798-11.061,5.89-17.281,5.89c-6.243,0-12.398-2.106-17.333-5.929
	l-3.618-2.804c-1.311-1.016-2.922-1.567-4.581-1.567H18.522C8.293,164.088,0,172.38,0,182.61v57.848c0,5.096,1.9,10.079,5.546,13.64
	c3.543,3.46,8.178,5.307,12.95,5.307c1.264,0,2.537-0.13,3.802-0.393l27.967-5.822c3.47-0.722,5.957-3.78,5.957-7.324l0,0
	c0-4.745-4.361-8.291-9.006-7.324l-27.967,5.822c-1.445,0.304-2.482-0.324-2.972-0.723c-0.491-0.399-1.314-1.289-1.314-2.763V182.61
	c0-1.967,1.594-3.561,3.561-3.561h102.904l1.595,1.236c7.544,5.845,16.954,9.064,26.497,9.064c9.507,0,18.89-3.198,26.418-9.004
	l1.405-1.083h11.03v19.646h-44.318c-2.462,0-4.766,1.211-6.161,3.239l-14.079,20.45l-27.924,5.813
	c-3.47,0.722-5.957,3.78-5.957,7.324l0,0c0,4.745,4.361,8.291,9.006,7.324l30.86-6.424c1.885-0.392,3.546-1.496,4.637-3.082
	l13.549-19.682h9.071v13.406c0,9.686,7.852,17.538,17.538,17.538h36.124c9.686,0,17.538-7.852,17.538-17.538v-13.406h18.672v10.446
	c0,9.253,7.501,16.754,16.754,16.754h59.204c1.879,6.757,8.07,11.736,15.417,11.736h44.127c5.906,0,11.061-3.222,13.837-7.991
	h21.678c8.329,0,15.079-6.752,15.079-15.079v-4.893c0-8.328-6.751-15.079-15.079-15.079h-19.502v-3.373
	c0-0.557-0.065-1.096-0.181-1.618h99.652c7.777,0,14.081-6.304,14.081-14.081v-12.308C512,170.604,505.696,164.3,497.919,164.3z
	 M213.297,227.276c0,1.42-1.156,2.576-2.576,2.576h-36.124c-1.42,0-2.576-1.156-2.576-2.576v-13.406h41.276L213.297,227.276
	L213.297,227.276z M220.451,198.908h-17.118v-19.646h17.118V198.908z M398.448,224.723h19.502c0.065,0,0.118,0.053,0.118,0.118
	v4.894c0,0.064-0.053,0.117-0.118,0.117h-19.502V224.723z M455.554,154.542h20.861v9.757h-24.063L455.554,154.542z M322.29,226.108
	h-58.607c-0.988,0-1.793-0.805-1.793-1.793v-10.445h60.4V226.108z M383.487,236.789c0,0.581-0.473,1.053-1.053,1.053h-44.127
	c-0.582,0-1.054-0.473-1.054-1.053v-22.92h46.235V236.789z M497.039,189.809H355.785c-2.597,0-5.009,1.348-6.372,3.56l-3.408,5.539
	H235.413v-19.646h261.626L497.039,189.809L497.039,189.809z"/>
<path d="M80.84,297.475c-7.374,0-14.121,3.398-18.509,9.324c-4.122,5.565-6.393,12.443-6.393,19.367v38.766
	c0,4.131,3.349,7.481,7.481,7.481h34.842c4.131,0,7.481-3.349,7.481-7.481v-38.766c0-6.925-2.27-13.803-6.393-19.367
	C94.961,300.873,88.214,297.475,80.84,297.475z M74.353,315.703c1.538-2.077,3.903-3.268,6.486-3.268
	c2.584,0,4.949,1.191,6.488,3.268c1.732,2.338,2.849,5.106,3.264,7.98H71.09C71.505,320.81,72.622,318.041,74.353,315.703z
	 M90.781,357.452h-19.88v-18.805h19.881L90.781,357.452L90.781,357.452z"/>
<path d="M151.264,297.475c-7.374,0-14.121,3.398-18.51,9.324c-4.121,5.565-6.392,12.443-6.392,19.367v38.766
	c0,4.131,3.349,7.481,7.481,7.481h34.841c4.131,0,7.481-3.349,7.481-7.481v-38.766c0-6.924-2.269-13.802-6.392-19.367
	C165.385,300.874,158.638,297.475,151.264,297.475z M144.776,315.704c1.538-2.077,3.904-3.268,6.487-3.268
	c2.584,0,4.949,1.191,6.487,3.268c1.732,2.338,2.849,5.107,3.264,7.98h-19.503C141.928,320.81,143.045,318.041,144.776,315.704z
	 M161.204,357.452h-19.88v-18.805h19.88V357.452z"/>
<path d="M221.688,297.475L221.688,297.475c-7.374,0-14.121,3.398-18.51,9.324c-4.122,5.565-6.393,12.443-6.393,19.367v38.766
	c0,4.131,3.349,7.481,7.481,7.481h34.842c4.131,0,7.481-3.349,7.481-7.481v-38.766c0-6.925-2.27-13.803-6.392-19.367
	C235.809,300.874,229.062,297.475,221.688,297.475z M215.2,315.704c1.538-2.077,3.904-3.268,6.488-3.268s4.948,1.191,6.487,3.268
	c1.732,2.338,2.849,5.106,3.264,7.98h-19.503C212.352,320.81,213.468,318.041,215.2,315.704z M231.628,357.452h-19.881v-18.805
	h19.881L231.628,357.452L231.628,357.452z"/>
<path d="M292.112,297.475C292.111,297.475,292.111,297.475,292.112,297.475c-7.375,0-14.122,3.398-18.512,9.325
	c-4.121,5.566-6.391,12.443-6.391,19.367v38.766c0,4.131,3.348,7.481,7.481,7.481h34.842c4.132,0,7.481-3.349,7.481-7.481v-38.766
	c0-6.924-2.27-13.802-6.392-19.367C306.232,300.874,299.486,297.475,292.112,297.475z M285.623,315.704
	c1.539-2.077,3.904-3.268,6.488-3.268c2.584,0,4.949,1.191,6.487,3.268c1.732,2.338,2.849,5.106,3.265,7.98H282.36
	C282.775,320.81,283.893,318.042,285.623,315.704z M302.052,357.452h-19.881v-18.805h19.881V357.452z"/>
<path d="M362.535,297.475c-7.374,0-14.12,3.398-18.509,9.324c-4.122,5.564-6.392,12.442-6.392,19.367v38.766
	c0,4.131,3.348,7.481,7.481,7.481h34.842c4.132,0,7.481-3.349,7.481-7.481v-38.766c0-6.924-2.27-13.802-6.393-19.367
	C376.655,300.874,369.909,297.475,362.535,297.475z M356.047,315.704c1.539-2.077,3.903-3.268,6.487-3.268
	c2.585,0,4.949,1.191,6.488,3.268c1.732,2.338,2.849,5.106,3.265,7.98h-19.503C353.199,320.81,354.316,318.042,356.047,315.704z
	 M372.476,357.452h-19.881v-18.805h19.881V357.452z"/>
<path d="M432.958,297.475c-7.374,0-14.12,3.398-18.509,9.324c-4.122,5.564-6.392,12.442-6.392,19.367v38.766
	c0,4.131,3.348,7.481,7.481,7.481h34.841c4.132,0,7.481-3.349,7.481-7.481v-38.766c0-6.925-2.269-13.803-6.392-19.367
	C447.078,300.874,440.333,297.475,432.958,297.475z M426.471,315.704c1.539-2.077,3.903-3.268,6.487-3.268
	c2.585,0,4.949,1.191,6.488,3.268c1.732,2.338,2.848,5.106,3.264,7.98h-19.502C423.623,320.81,424.74,318.042,426.471,315.704z
	 M442.898,357.452h-19.88v-18.805h19.88V357.452z"/>
<g>
</g>
<g>
</g>
<g>
</g>
<g>
</g>
<g>
</g>
<g>
</g>
<g>
</g>
<g>
</g>
<g>
</g>
<g>
</g>
<g>
</g>
<g>
</g>
<g>
</g>
<g>
</g>
<g>
</g>
</svg>
