<?xml version="1.0" encoding="iso-8859-1"?>
<!-- Generator: Adobe Illustrator 19.0.0, SVG Export Plug-In . SVG Version: 6.00 Build 0)  -->
<svg version="1.1" id="Capa_1" xmlns="http://www.w3.org/2000/svg" xmlns:xlink="http://www.w3.org/1999/xlink" x="0px" y="0px"
	 viewBox="0 0 511.999 511.999" style="enable-background:new 0 0 511.999 511.999;" xml:space="preserve">
<path style="fill:#723A14;" d="M497.168,408.66h-54.849c-4.148,0-7.51-3.363-7.51-7.51c0-4.148,3.363-7.51,7.51-7.51h54.849
	c4.148,0,7.51,3.363,7.51,7.51C504.678,405.298,501.316,408.66,497.168,408.66z"/>
<g>
	<circle style="fill:#3A3735;" cx="91.296" cy="370.5" r="30.958"/>
	<circle style="fill:#3A3735;" cx="344.695" cy="370.5" r="30.958"/>
</g>
<path style="fill:#2C59C6;" d="M471.924,299.995c-8.991,0-16.306-7.315-16.306-16.306c0-8.991,7.315-16.306,16.306-16.306
	c8.991,0,16.306,7.315,16.306,16.306C488.23,292.68,480.915,299.995,471.924,299.995z"/>
<path style="fill:#D66E18;" d="M393.855,346.088v-25.383h104.648c3.583,0,6.488,2.905,6.488,6.488v12.408
	c0,3.583-2.905,6.488-6.488,6.488H393.855V346.088z"/>
<g>
	<path style="fill:#2B2725;" d="M273.894,140.847l4.436-21.454c1.083-5.241,6.166-9.046,12.084-9.046h46.931
		c5.918,0,11,3.804,12.084,9.046l4.436,21.454H273.894z"/>
	<path style="fill:#2B2725;" d="M77.607,140.847l4.436-21.455c1.083-5.241,6.165-9.045,12.084-9.045h46.93
		c5.918,0,11,3.804,12.084,9.046l4.436,21.454H77.607z"/>
</g>
<path style="fill:#2FE0A0;" d="M367.137,139.846H57.353c-14.732,0-26.718,11.986-26.718,26.718V200.3v82.5v32.853h363.22v-52.033
	v-67.735v-29.32C393.855,151.831,381.87,139.846,367.137,139.846z"/>
<path style="fill:#18C482;" d="M155.806,200.3v-33.737c0-14.732,11.986-26.718,26.718-26.718H57.353
	c-14.732,0-26.718,11.986-26.718,26.718V200.3v82.5v32.853h125.171v-32.854V200.3z"/>
<path style="fill:#1ABA9B;" d="M200.292,315.652V213.421c0-6.165,5.015-11.179,11.179-11.179h41.425
	c6.164,0,11.179,5.015,11.179,11.179v102.231H200.292z"/>
<path style="fill:#0EAA8C;" d="M252.896,202.242h-41.424c-6.165,0-11.179,5.015-11.179,11.179v6.928h34.536
	c6.165,0,11.179,5.015,11.179,11.179v84.124h18.069V213.421C264.075,207.257,259.06,202.242,252.896,202.242z"/>
<path style="fill:#723A14;" d="M26.036,349.854c-6.008,0-10.895-4.888-10.895-10.896v-12.912c0-6.008,4.888-10.895,10.895-10.895
	h383.92c6.008,0,10.896,4.888,10.896,10.895v12.912c0,6.008-4.888,10.896-10.896,10.896H26.036z"/>
<path style="fill:#633110;" d="M50.087,331.523c-6.008,0-10.895-4.888-10.895-10.896v-5.476H26.036
	c-6.008,0-10.895,4.888-10.895,10.895v12.912c0,6.008,4.888,10.896,10.895,10.896h383.92c6.008,0,10.896-4.888,10.896-10.896v-7.436
	L50.087,331.523L50.087,331.523z"/>
<g>
	<path style="fill:#7FE4F4;" d="M144.341,253.255c-8.143,0-14.768-6.625-14.768-14.768V217.01c0-8.143,6.625-14.768,14.768-14.768
		h15.085c8.143,0,14.768,6.625,14.768,14.768v21.477c0,8.143-6.625,14.768-14.768,14.768H144.341z"/>
	<path style="fill:#7FE4F4;" d="M301.376,253.255c-8.143,0-14.768-6.625-14.768-14.768V217.01c0-8.143,6.625-14.768,14.768-14.768
		h15.085c8.143,0,14.768,6.625,14.768,14.768v21.477c0,8.143-6.625,14.768-14.768,14.768H301.376z"/>
	<path style="fill:#7FE4F4;" d="M375.722,264.621c-7.082,0-12.844-5.762-12.844-12.844v-44.05c0-7.083,5.762-12.845,12.844-12.845
		h28.998c7.082,0,12.844,5.762,12.844,12.845v44.05c0,7.082-5.762,12.844-12.844,12.844H375.722z"/>
	<path style="fill:#7FE4F4;" d="M21.778,283.8c-8.143,0-14.768-6.624-14.768-14.768v-54.966c0-8.143,6.625-14.768,14.768-14.768
		h44.294c8.143,0,14.768,6.625,14.768,14.768v54.966c0,8.143-6.625,14.768-14.768,14.768L21.778,283.8L21.778,283.8z"/>
</g>
<g>
	<path style="fill:#4DCDDB;" d="M159.426,202.242h-15.085c-7.565,0-13.811,5.72-14.661,13.061c0.561-0.065,1.129-0.107,1.707-0.107
		h15.085c8.143,0,14.768,6.625,14.768,14.768v21.477c0,0.578-0.042,1.147-0.107,1.707c7.341-0.85,13.061-7.096,13.061-14.661V217.01
		C174.194,208.867,167.569,202.242,159.426,202.242z"/>
	<path style="fill:#4DCDDB;" d="M316.46,202.242h-15.085c-7.565,0-13.811,5.72-14.661,13.061c0.561-0.065,1.129-0.107,1.707-0.107
		h15.085c8.143,0,14.768,6.625,14.768,14.768v21.477c0,0.578-0.042,1.147-0.107,1.707c7.341-0.85,13.061-7.096,13.061-14.661V217.01
		C331.229,208.867,324.605,202.242,316.46,202.242z"/>
	<path style="fill:#4DCDDB;" d="M21.778,283.8h42.61c-25.338-29.841-39.018-64.946-45.157-84.267
		c-6.931,1.213-12.221,7.26-12.221,14.534v54.966C7.01,277.176,13.635,283.8,21.778,283.8z"/>
	<path style="fill:#4DCDDB;" d="M375.722,264.621h28.998c4.772,0,8.935-2.622,11.15-6.494
		c-20.055-19.163-38.703-46.859-47.573-60.861c-3.274,2.33-5.419,6.146-5.419,10.462v44.05
		C362.877,258.859,368.639,264.621,375.722,264.621z"/>
</g>
<path d="M144.341,260.265h15.085c12.009,0,21.778-9.769,21.778-21.778V217.01c0-12.009-9.769-21.778-21.778-21.778h-15.085
	c-12.009,0-21.778,9.769-21.778,21.778v21.477C122.563,250.495,132.332,260.265,144.341,260.265z M137.584,217.01
	c0-3.726,3.031-6.757,6.757-6.757h15.085c3.726,0,6.757,3.031,6.757,6.757v21.477c0,3.726-3.031,6.757-6.757,6.757h-15.085
	c-3.726,0-6.757-3.031-6.757-6.757V217.01z"/>
<path d="M301.376,260.265h15.085c12.009,0,21.778-9.769,21.778-21.778V217.01c0-12.009-9.77-21.778-21.778-21.778h-15.085
	c-12.009,0-21.778,9.769-21.778,21.778v21.477C279.598,250.495,289.367,260.265,301.376,260.265z M294.618,217.01
	c0-3.726,3.031-6.757,6.757-6.757h15.085c3.726,0,6.757,3.031,6.757,6.757v21.477c0,3.726-3.031,6.757-6.757,6.757h-15.085
	c-3.726,0-6.757-3.031-6.757-6.757V217.01z"/>
<path d="M504.49,313.695h-25.056v-7.939c9.182-3.133,15.806-11.839,15.806-22.068c0-12.857-10.459-23.316-23.316-23.316
	s-23.316,10.459-23.316,23.316c0,10.229,6.624,18.934,15.806,22.068v7.939h-41.527c-3.263-3.414-7.847-5.553-12.931-5.553h-9.092
	v-36.511h3.855c10.947,0,19.853-8.906,19.853-19.853v-44.05c0-10.948-8.906-19.854-19.853-19.854h-3.855v-21.309
	c0-18.598-15.13-33.728-33.728-33.728h-7.773l-3.073-14.863c-1.753-8.481-9.722-14.636-18.948-14.636h-46.931
	c-9.225,0-17.194,6.154-18.948,14.636l-3.073,14.863H163.079l-3.073-14.863c-1.754-8.481-9.723-14.636-18.948-14.636H94.127
	c-9.226,0-17.195,6.155-18.948,14.636l-3.073,14.863H57.353c-18.598,0-33.728,15.13-33.728,33.728v25.725h-1.848
	C9.769,192.289,0,202.059,0,214.067v54.966c0,12.009,9.769,21.778,21.778,21.778h1.848v17.513
	c-8.735,1.183-15.495,8.67-15.495,17.723v12.912c0,9.873,8.032,17.906,17.905,17.906h28.234c-1.384,4.049-2.115,8.324-2.115,12.655
	c0,21.583,17.558,39.141,39.141,39.141s39.141-17.558,39.141-39.141c0-4.366-0.714-8.624-2.091-12.655H307.67
	c-1.384,4.049-2.115,8.324-2.115,12.655c0,21.583,17.559,39.141,39.141,39.141s39.141-17.558,39.141-39.141
	c0-4.362-0.716-8.621-2.094-12.655h28.212c4.124,0,7.916-1.415,10.946-3.767h43.511v40.543h-22.094c-4.148,0-7.51,3.363-7.51,7.51
	c0,4.148,3.363,7.51,7.51,7.51h54.849c4.148,0,7.51-3.363,7.51-7.51c0-4.148-3.363-7.51-7.51-7.51h-17.733v-40.543h25.056
	c4.148,0,7.51-3.363,7.51-7.51v-24.382C512,317.057,508.638,313.695,504.49,313.695z M404.72,202.894
	c2.665,0,4.833,2.168,4.833,4.834v44.05c0,2.665-2.168,4.833-4.833,4.833h-28.998c-2.665,0-4.833-2.168-4.833-4.833v-44.05
	c0-2.666,2.168-4.834,4.833-4.834L404.72,202.894L404.72,202.894z M286.175,121.016c0.27-1.306,1.93-2.658,4.238-2.658h46.931
	c2.309,0,3.969,1.351,4.238,2.657l2.444,11.821H283.73L286.175,121.016z M89.889,121.015c0.27-1.306,1.929-2.657,4.238-2.657h46.93
	c2.309,0,3.968,1.352,4.239,2.657l2.444,11.821H87.445L89.889,121.015z M21.778,275.789c-3.726,0-6.757-3.031-6.757-6.757v-54.966
	c0-3.726,3.031-6.757,6.757-6.757h44.294c3.726,0,6.757,3.031,6.757,6.757v54.966c0,3.726-3.031,6.757-6.757,6.757H21.778z
	 M91.295,393.64c-13.3,0-24.12-10.82-24.12-24.12c0-4.487,1.278-8.871,3.611-12.655h41.047c2.348,3.794,3.583,8.13,3.583,12.655
	C115.415,382.82,104.595,393.64,91.295,393.64z M344.697,393.64c-13.3,0-24.12-10.82-24.12-24.12c0-4.488,1.278-8.871,3.611-12.655
	h41.042c2.349,3.796,3.588,8.135,3.588,12.655C368.818,382.82,357.997,393.64,344.697,393.64z M412.84,338.958
	c0,1.593-1.292,2.885-2.885,2.885H26.036c-1.593,0-2.884-1.292-2.884-2.884v-12.913c0-1.593,1.292-2.884,2.884-2.884h99.373
	c4.241,0,7.672-3.451,7.647-7.692c0-0.076-0.001-0.152-0.001-0.228c-0.024-4.206-3.441-7.601-7.647-7.601H38.646V290.81h27.426
	c12.028,0,21.778-9.75,21.778-21.778v-54.966c0-12.028-9.75-21.778-21.778-21.778H38.646v-16.331h229.613
	c4.113,0,7.699-3.168,7.822-7.279c0.128-4.253-3.283-7.742-7.507-7.742H39.514c2.394-7.573,9.484-13.081,17.839-13.081h309.784
	c8.355,0,15.445,5.508,17.839,13.081h-82.439c-4.113,0-7.699,3.168-7.822,7.279c-0.128,4.253,3.283,7.742,7.507,7.742h83.622v11.914
	h-10.122c-10.965,0-19.853,8.888-19.853,19.853v44.05c0,10.965,8.888,19.853,19.853,19.853h10.122v36.011h-114.76v-94.22
	c0-10.046-8.143-18.189-18.189-18.189h-41.424c-10.046,0-18.189,8.143-18.189,18.189v94.22h-18.797c-4.208,0-7.626,3.4-7.647,7.607
	c0,0.076-0.001,0.152-0.001,0.228c-0.021,4.238,3.408,7.686,7.647,7.686h235.473c1.593,0,2.885,1.292,2.885,2.885v12.913H412.84z
	 M256.064,213.421v94.22h-47.762v-94.22c0-1.747,1.421-3.168,3.168-3.168h41.425C254.643,210.253,256.064,211.675,256.064,213.421z
	 M463.628,283.688c0-4.574,3.721-8.295,8.295-8.295c4.574,0,8.295,3.721,8.295,8.295c0,4.574-3.721,8.295-8.295,8.295
	C467.349,291.984,463.628,288.262,463.628,283.688z M496.979,338.077h-69.118v-9.361h69.118V338.077z"/>
<g>
</g>
<g>
</g>
<g>
</g>
<g>
</g>
<g>
</g>
<g>
</g>
<g>
</g>
<g>
</g>
<g>
</g>
<g>
</g>
<g>
</g>
<g>
</g>
<g>
</g>
<g>
</g>
<g>
</g>
</svg>
