<?xml version="1.0" encoding="iso-8859-1"?>
<!-- Generator: Adobe Illustrator 19.0.0, SVG Export Plug-In . SVG Version: 6.00 Build 0)  -->
<svg version="1.1" id="Capa_1" xmlns="http://www.w3.org/2000/svg" xmlns:xlink="http://www.w3.org/1999/xlink" x="0px" y="0px"
	 viewBox="0 0 512.001 512.001" style="enable-background:new 0 0 512.001 512.001;" xml:space="preserve">
<path style="fill:#AACED1;" d="M426,329.496v-28h70.354c4.768,0,8.646,3.879,8.646,8.646v10.708c0,4.768-3.878,8.646-8.646,8.646
	H426z"/>
<path style="fill:#3A3735;" d="M273,233.496v-51.392h47.622c2.746,0,5.308,1.228,7.03,3.367l17.646,21.964
	c1.283,1.598,1.988,3.604,1.988,5.649v20.411L273,233.496L273,233.496z"/>
<g>
	<path style="fill:#AACED1;" d="M15.583,329.496c-4.733,0-8.583-3.878-8.583-8.646v-10.708c0-4.768,3.851-8.646,8.583-8.646H72v28
		H15.583z"/>
	<polygon style="fill:#AACED1;" points="151.999,301.496 152.074,329.496 183.493,329.496 249.468,329.496 352,329.496 352,301.496 
			"/>
</g>
<g>
	<path style="fill:#8EB9BA;" d="M496.354,315.496H426v14h70.354c4.768,0,8.646-3.878,8.646-8.646v-10.708
		c0-0.563-0.058-1.113-0.162-1.646C504.067,312.479,500.559,315.496,496.354,315.496z"/>
	<path style="fill:#8EB9BA;" d="M7.16,308.497C7.058,309.03,7,309.58,7,310.143v10.708c0,4.768,3.851,8.646,8.583,8.646H72v-14
		H15.583C11.41,315.496,7.926,312.479,7.16,308.497z"/>
	<polygon style="fill:#8EB9BA;" points="183.493,315.496 152.074,315.496 152.036,301.496 151.999,301.496 152.074,329.496 
		183.493,329.496 249.468,329.496 352,329.496 352,315.496 249.468,315.496 	"/>
</g>
<path style="fill:#9BB8BC;" d="M197.096,346.293c-4.658,0-8.448-3.79-8.448-8.447v-8.901c0-4.658,3.79-8.448,8.448-8.448h43.742
	c4.658,0,8.448,3.79,8.448,8.448v8.901c0,4.658-3.79,8.447-8.448,8.447H197.096z"/>
<path style="fill:#2C59C6;" d="M274,232.496v-59.453c0-11.348-9.199-20.547-20.547-20.547h-88.754
	c-10.573,0-20.059,6.498-23.88,16.356l-24.662,63.644h-69.3c-14.28,0-25.857,11.577-25.857,25.858v34.277
	c0,5.449,4.417,9.866,9.866,9.866h40.937h87.396h185.604h87.396h53.937c5.449,0,9.866-4.417,9.866-9.866v-50.269
	c0-5.449-4.417-9.866-9.866-9.866L274,232.496L274,232.496z"/>
<path style="fill:#FF9100;" d="M21,283.707v-24.799h20.887c3.801,0,6.882,3.081,6.882,6.882v11.035c0,3.801-3.081,6.882-6.882,6.882
	L21,283.707L21,283.707z"/>
<path style="fill:#DD3A3A;" d="M469.246,276.255v-15.594c0-2.639,2.139-4.779,4.779-4.779H496v25.152h-21.976
	C471.385,281.033,469.246,278.894,469.246,276.255z"/>
<path style="fill:#3A3735;" d="M388.5,359.506c-24.538,0-44.5-19.743-44.5-44.009v-20.376c0-9.167,7.458-16.625,16.625-16.625h55.75
	c9.167,0,16.625,7.458,16.625,16.625v20.375C433,339.763,413.038,359.506,388.5,359.506z"/>
<path style="fill:#2D2521;" d="M386.059,315.496v-20.375c0-9.167,7.458-16.625,16.625-16.625h-42.059
	c-9.167,0-16.625,7.458-16.625,16.625v20.375c0,24.267,19.962,44.009,44.5,44.009c7.602,0,14.763-1.898,21.03-5.236
	C395.57,346.834,386.059,332.245,386.059,315.496z"/>
<path style="fill:#99928D;" d="M388.991,334.644c-10.558,0-19.147-8.589-19.147-19.147s8.589-19.147,19.147-19.147
	s19.147,8.589,19.147,19.147S399.549,334.644,388.991,334.644z"/>
<path style="fill:#3A3735;" d="M115.5,359.506c-24.538,0-44.5-19.743-44.5-44.009v-20.376c0-9.167,7.458-16.625,16.625-16.625h55.75
	c9.167,0,16.625,7.458,16.625,16.625v7.089l0.032,12.973L160,315.586C159.951,339.812,140.007,359.506,115.5,359.506z"/>
<path style="fill:#2D2521;" d="M113.059,315.496v-20.375c0-9.167,7.458-16.625,16.625-16.625H87.625
	c-9.167,0-16.625,7.458-16.625,16.625v20.375c0,24.267,19.962,44.009,44.5,44.009c7.602,0,14.764-1.898,21.03-5.236
	C122.571,346.835,113.059,332.245,113.059,315.496z"/>
<path style="fill:#99928D;" d="M115.991,334.644c-10.558,0-19.147-8.589-19.147-19.147s8.589-19.147,19.147-19.147
	s19.147,8.589,19.147,19.147S126.549,334.644,115.991,334.644z"/>
<g>
	<path style="fill:#605854;" d="M388.991,296.349c-7.72,0-14.37,4.601-17.397,11.198c2.425-1.113,5.112-1.75,7.95-1.75
		c10.558,0,19.147,8.589,19.147,19.147c0,2.838-0.637,5.525-1.75,7.95c6.596-3.027,11.198-9.677,11.198-17.397
		C408.138,304.938,399.549,296.349,388.991,296.349z"/>
	<path style="fill:#605854;" d="M115.991,296.349c-7.72,0-14.37,4.601-17.397,11.198c2.425-1.113,5.112-1.75,7.95-1.75
		c10.558,0,19.147,8.589,19.147,19.147c0,2.838-0.637,5.525-1.75,7.95c6.596-3.027,11.198-9.677,11.198-17.397
		C135.138,304.938,126.549,296.349,115.991,296.349z"/>
</g>
<g>
	<path style="fill:#7FE4F4;" d="M156.188,235.496c-3.493,0-6.759-1.719-8.737-4.598c-1.975-2.868-2.412-6.534-1.161-9.796
		l16.607-43.323c0.758-1.978,2.657-3.284,4.775-3.284h31.213c2.824,0,5.114,2.29,5.114,5.114v50.772c0,2.824-2.29,5.114-5.114,5.114
		h-42.697V235.496z"/>
	<path style="fill:#7FE4F4;" d="M245.204,224.496c-6.454,0-11.704-5.25-11.704-11.704V186.2c0-6.454,5.25-11.704,11.704-11.704H274
		v50L245.204,224.496L245.204,224.496z"/>
</g>
<g>
	<path style="fill:#4DCDDB;" d="M198.886,174.496h-31.213c-2.118,0-4.017,1.306-4.775,3.283l-3.194,8.332h28.733
		c2.824,0,5.114,2.29,5.114,5.114v44.271h5.335c2.824,0,5.114-2.29,5.114-5.114V179.61C204,176.786,201.71,174.496,198.886,174.496z
		"/>
	<path style="fill:#4DCDDB;" d="M245.204,174.496c-6.447,0-11.693,5.24-11.703,11.685c0.412-0.044,0.83-0.07,1.254-0.07h5.066
		c13.106,0,23.73,10.624,23.73,23.73v14.655H274v-50L245.204,174.496L245.204,174.496z"/>
</g>
<path d="M156.188,242.496H203.5c4.142,0,7.5-3.358,7.5-7.5v-60c0-4.142-3.358-7.5-7.5-7.5h-39c-3.106,0-5.891,1.915-7.003,4.815
	l-17.743,46.285c-2.075,5.413-1.353,11.496,1.932,16.272C144.97,239.645,150.392,242.496,156.188,242.496z M153.76,223.966
	l15.897-41.47H196v45h-39.812c-1.19,0-1.853-0.706-2.142-1.127C153.756,225.949,153.334,225.077,153.76,223.966z"/>
<path d="M115.991,289.349c-14.418,0-26.147,11.729-26.147,26.147s11.729,26.147,26.147,26.147s26.147-11.729,26.147-26.147
	S130.409,289.349,115.991,289.349z M115.991,326.644c-6.146,0-11.147-5.001-11.147-11.147s5.001-11.147,11.147-11.147
	s11.147,5.001,11.147,11.147S122.137,326.644,115.991,326.644z"/>
<path d="M388.991,289.349c-14.418,0-26.147,11.729-26.147,26.147s11.729,26.147,26.147,26.147s26.147-11.729,26.147-26.147
	S403.409,289.349,388.991,289.349z M388.991,326.644c-6.146,0-11.147-5.001-11.147-11.147s5.001-11.147,11.147-11.147
	s11.147,5.001,11.147,11.147S395.137,326.644,388.991,326.644z"/>
<path d="M496.354,336.496c8.641,0,15.646-7.005,15.646-15.646v-10.708c0-6.249-3.691-11.639-9-14.144v-56.872
	c0-7.528-6.103-13.631-13.631-13.631H439.46c-4.142,0-7.5,3.358-7.5,7.5l0,0c0,4.142,3.358,7.5,7.5,7.5H488v8.385h-13.603
	c-6.711,0-12.151,5.44-12.151,12.151v14.849c0,6.711,5.44,12.151,12.151,12.151H488v6.463h-48.008
	c-0.077-2.956-0.706-5.776-1.777-8.368h7.255c4.107,0,7.688-3.164,7.811-7.269c0.128-4.247-3.278-7.731-7.497-7.731H332.512
	c-4.107,0-7.688,3.164-7.811,7.269c-0.128,4.247,3.278,7.731,7.497,7.731h6.589c-1.071,2.592-1.7,5.412-1.777,8.368H281v-54h109.659
	c4.142,0,7.5-3.358,7.5-7.5l0,0c0-4.142-3.358-7.5-7.5-7.5h-36.373v-12.411c0-3.649-1.246-7.189-3.531-10.034l-17.643-21.96
	c-3.041-3.785-7.634-5.986-12.489-5.986H281v-2.061c0-15.214-12.333-27.547-27.547-27.547h-88.753
	c-13.36,0-25.58,8.37-30.407,20.827l-22.93,59.173H46.857C28.711,225.496,14,240.207,14,258.354v36.223
	c-7.852,0.799-14,7.475-14,15.566v10.708c0,8.627,6.991,15.646,15.583,15.646h53.002c2.574,5.619,6.15,10.695,10.495,15.009H7.814
	c-4.107,0-7.688,3.164-7.811,7.269c-0.128,4.247,3.278,7.731,7.497,7.731h291.915c4.107,0,7.688-3.164,7.811-7.269
	c0.128-4.247-3.278-7.731-7.497-7.731h-51.7c4.903-2.592,8.256-7.739,8.256-13.66v-1.349h85.3
	c2.574,5.619,6.15,10.695,10.495,15.009h-19.568c-4.107,0-7.688,3.164-7.811,7.269c-0.128,4.247,3.278,7.731,7.497,7.731h171.988
	c4.107,0,7.688-3.164,7.811-7.269c0.128-4.247-3.278-7.731-7.497-7.731h-79.58c4.345-4.314,7.92-9.39,10.495-15.009h60.939V336.496z
	 M477.246,273.033v-9.152H488v9.152H477.246z M440,309.496h56.354c0.356,0,0.646,0.29,0.646,0.646v10.708
	c0,0.356-0.29,0.646-0.646,0.646H440V309.496z M281,190.105h39.622c0.311,0,0.601,0.139,0.796,0.381l17.643,21.96
	c0.145,0.181,0.225,0.407,0.225,0.639v12.411H281V190.105z M29,266.908h11.769v8.799H29V266.908z M64,321.496H15.583
	c-0.322,0-0.583-0.29-0.583-0.646v-10.708c0-0.356,0.262-0.646,0.583-0.646H64V321.496z M65.428,286.128h0.358
	c-1.071,2.592-1.7,5.412-1.777,8.368H29v-3.789h15.354c6.294,0,11.414-5.12,11.414-11.414v-15.97c0-6.294-5.12-11.415-11.414-11.415
	H30.223c2.593-6.667,9.063-11.412,16.635-11.412H116.5c3.096,0,5.875-1.903,6.993-4.79l24.786-63.963
	c2.607-6.728,9.206-11.247,16.42-11.247h88.753c4.925,0,9.185,2.86,11.237,7h-19.486c-10.313,0-18.704,8.391-18.704,18.704v37.592
	c0,10.313,8.391,18.704,18.704,18.704H266v52h-41v-17.5c0-4.142-3.358-7.5-7.5-7.5s-7.5,3.358-7.5,7.5v17.5h-43.008
	c-0.077-2.956-0.706-5.776-1.777-8.368h6.449c4.142,0,7.5-3.358,7.5-7.5s-3.358-7.5-7.5-7.5H65.428c-4.142,0-7.5,3.358-7.5,7.5
	S61.286,286.128,65.428,286.128z M266,182.496v45h-20.796c-2.042,0-3.704-1.662-3.704-3.704V186.2c0-2.042,1.662-3.704,3.704-3.704
	L266,182.496L266,182.496z M115.5,351.506c-20.126,0-36.5-16.154-36.5-36.009v-20.376c0-4.756,3.869-8.625,8.625-8.625h55.75
	c4.756,0,8.625,3.869,8.625,8.625v6.875c0,0.003,0,0.006,0,0.009s0,0.006,0,0.01l0.032,12.851c-0.017,0.208-0.032,0.418-0.032,0.631
	C152,335.352,135.626,351.506,115.5,351.506z M151.92,351.506c4.345-4.314,7.92-9.39,10.495-15.009h19.234v1.349
	c0,5.921,3.353,11.068,8.256,13.66H151.92z M241.286,337.845c0,0.247-0.201,0.447-0.448,0.447h-43.742
	c-0.247,0-0.448-0.201-0.448-0.447v-8.901c0-0.247,0.201-0.448,0.448-0.448h43.742c0.247,0,0.448,0.201,0.448,0.448V337.845z
	 M337,321.496h-82.637c-2.634-4.764-7.707-8-13.526-8h-43.742c-5.818,0-10.892,3.236-13.526,8h-16.522l-0.03-12H337V321.496z
	 M425,315.496c0,19.855-16.374,36.009-36.5,36.009S352,335.352,352,315.496v-20.375c0-4.756,3.869-8.625,8.625-8.625h55.75
	c4.756,0,8.625,3.869,8.625,8.625V315.496z"/>
<g>
</g>
<g>
</g>
<g>
</g>
<g>
</g>
<g>
</g>
<g>
</g>
<g>
</g>
<g>
</g>
<g>
</g>
<g>
</g>
<g>
</g>
<g>
</g>
<g>
</g>
<g>
</g>
<g>
</g>
</svg>
