<?xml version="1.0" encoding="iso-8859-1"?>
<!-- Generator: Adobe Illustrator 19.0.0, SVG Export Plug-In . SVG Version: 6.00 Build 0)  -->
<svg version="1.1" id="Capa_1" xmlns="http://www.w3.org/2000/svg" xmlns:xlink="http://www.w3.org/1999/xlink" x="0px" y="0px"
	 viewBox="0 0 512 512" style="enable-background:new 0 0 512 512;" xml:space="preserve">
<path style="fill:#FF7F00;" d="M94.625,250.653C84.913,250.717,76.534,242.397,76,232.7l0,0c-0.02-0.371,0.007-0.742,0.082-1.106
	l0.095-0.463c0.504-2.464,2.618-9.88,11.342-25.472l3.778-6.752c1.401-2.504,5.005-2.504,6.407,0l3.778,6.752
	c8.725,15.594,10.838,23.008,11.342,25.472l0.095,0.463c0.075,0.364,0.102,0.736,0.082,1.106l-0.026,0.472
	C112.438,242.933,104.39,250.588,94.625,250.653z"/>
<path style="fill:#FF5B00;" d="M92.623,231.109c-0.021-0.371,0.007-0.742,0.082-1.106l0.095-0.463
	c0.468-2.288,2.333-8.855,9.577-22.259c-0.296-0.538-0.582-1.063-0.894-1.622l-3.778-6.752c-1.401-2.504-5.005-2.504-6.407,0
	l-3.778,6.752c-8.724,15.591-10.838,23.007-11.342,25.472l-0.095,0.463c-0.075,0.364-0.102,0.735-0.082,1.106
	c0.533,9.697,8.913,18.017,18.625,17.953c3.628-0.024,7.016-1.099,9.873-2.937C97.928,244.992,93.026,238.449,92.623,231.109z"/>
<path style="fill:#FF4800;" d="M381.5,207.789c-17.645,0-32-14.355-32-32c0-13.058,17.744-40.711,25.373-51.994l3.976-5.88
	c1.269-1.877,4.033-1.877,5.302,0l3.976,5.88c7.629,11.283,25.373,38.936,25.373,51.994
	C413.5,193.434,399.145,207.789,381.5,207.789z"/>
<path style="fill:#ED1100;" d="M375,167.868c0-9.227,8.858-25.735,16.748-38.612c-1.347-2.07-2.58-3.923-3.621-5.462l-3.976-5.88
	c-1.269-1.877-4.033-1.877-5.303,0l-3.976,5.88c-7.629,11.283-25.373,38.936-25.373,51.994c0,17.645,14.355,32,32,32
	c8.202,0,15.69-3.105,21.359-8.197C387.165,197.553,375,184.11,375,167.868z"/>
<g>
	<path style="fill:#FF7F00;" d="M381.5,185.11c-1.059,0-2.108-0.152-3.121-0.452c-2.755-0.816-5.091-2.77-6.406-5.359
		c-1.351-2.658-1.549-5.792-0.547-8.599c0.672-1.884,1.651-4.125,2.911-6.657l3.482-7.003c1.512-3.042,5.852-3.042,7.364,0
		l3.481,7.003c1.248,2.511,2.219,4.729,2.888,6.594c1.182,3.289,0.694,6.981-1.307,9.87c-1.942,2.804-5.107,4.518-8.483,4.6
		L381.5,185.11z"/>
	<path style="fill:#FF7F00;" d="M230.5,222.25c-26.496,0-48.053-21.556-48.053-48.053c0-20.731,29.001-64.96,41.47-83.014
		l1.651-2.391c2.383-3.45,7.481-3.45,9.864,0l1.651,2.391c12.469,18.054,41.47,62.283,41.47,83.014
		C278.553,200.694,256.996,222.25,230.5,222.25z"/>
</g>
<path style="fill:#FF5B00;" d="M218.7,162.626c0-14.217,13.638-39.483,26.231-59.781c-2.959-4.51-5.661-8.495-7.848-11.661
	l-1.651-2.391c-2.383-3.45-7.481-3.45-9.864,0l-1.651,2.391c-12.469,18.054-41.47,62.283-41.47,83.014
	c0,26.497,21.557,48.053,48.053,48.053c12.042,0,23.055-4.463,31.497-11.808C237.725,208.045,218.7,187.517,218.7,162.626z"/>
<path style="fill:#FFBC00;" d="M230.5,195.25c-0.47,0-0.936-0.016-1.397-0.046c-6.374-0.422-12.061-3.769-15.597-9.184
	c-3.594-5.502-4.405-12.47-2.171-18.637c2.348-6.476,6.569-15.15,12.207-25.086l2.617-4.611c1.913-3.371,6.77-3.371,8.683,0
	l2.616,4.61c7.131,12.566,10.579,20.584,12.215,25.098c2.233,6.156,1.425,13.114-2.163,18.613c-3.536,5.42-9.225,8.772-15.605,9.198
	C231.438,195.234,230.97,195.25,230.5,195.25z"/>
<path style="fill:#723A14;" d="M54.5,279.75c-17.921,0-32.5,14.58-32.5,32.5v74.609h65V312.25C87,294.33,72.421,279.75,54.5,279.75z
	"/>
<path style="fill:#66300C;" d="M71,284.267c-4.84-2.865-10.48-4.517-16.5-4.517c-17.921,0-32.5,14.58-32.5,32.5v74.609h33.001
	V312.25C55.001,300.35,61.434,289.929,71,284.267z"/>
<path style="fill:#AF612C;" d="M54.5,429.75c-17.921,0-32.5-14.58-32.5-32.5v-26c0-17.92,14.579-32.5,32.5-32.5S87,353.33,87,371.25
	v26C87,415.17,72.421,429.75,54.5,429.75z"/>
<path style="fill:#9B501E;" d="M85.339,406.339c-17.921,0-32.5-14.58-32.5-32.5v-26c0-3.152,0.459-6.196,1.3-9.08
	C36.385,338.954,22,353.451,22,371.25v26c0,17.92,14.579,32.5,32.5,32.5c14.769,0,27.26-9.906,31.2-23.42
	C85.579,406.332,85.46,406.339,85.339,406.339z"/>
<path style="fill:#C67D4B;" d="M54.5,411.75c-7.995,0-14.5-6.505-14.5-14.5v-26c0-7.995,6.505-14.5,14.5-14.5s14.5,6.505,14.5,14.5
	v26C69,405.245,62.495,411.75,54.5,411.75z"/>
<path style="fill:#723A14;" d="M360,256.25h-90.411c-11.197,0-20.6,8.751-21.407,19.923v10.065v30.512h58.493h53.736L360,256.25z"/>
<path style="fill:#663310;" d="M323.963,316.75v-16c0-17.92-14.579-32.5-32.5-32.5h-41.117c-1.198,2.418-1.96,5.092-2.164,7.923
	v10.065v30.512h58.493H323.963z"/>
<path style="fill:#723A14;" d="M437.204,256.25h-90.411c-11.197,0-20.6,8.751-21.407,19.923v10.065v30.512h58.493h53.736
	L437.204,256.25z"/>
<path style="fill:#663310;" d="M350.73,277.728v17.045c0,11.843,9.635,21.478,21.478,21.478s21.478-9.635,21.478-21.478v-17.045
	c0-11.843-9.635-21.478-21.478-21.478S350.73,265.885,350.73,277.728z"/>
<g>
	<path style="fill:#AF612C;" d="M360.411,316.25c-11.843,0-21.478-9.635-21.478-21.478v-17.045c0-11.843,9.635-21.478,21.478-21.478
		s21.478,9.635,21.478,21.478v17.045C381.889,306.615,372.254,316.25,360.411,316.25z"/>
	<path style="fill:#AF612C;" d="M437.411,316.25c-11.843,0-21.478-9.635-21.478-21.478v-17.045c0-11.843,9.635-21.478,21.478-21.478
		s21.478,9.635,21.478,21.478v17.045C458.888,306.615,449.253,316.25,437.411,316.25z"/>
</g>
<g>
	<path style="fill:#9B501E;" d="M360.085,278.75v-17.045c0-1.88,0.268-3.696,0.724-5.435c-0.134-0.002-0.263-0.02-0.397-0.02
		c-11.843,0-21.478,9.635-21.478,21.478v17.045c0,11.843,9.635,21.478,21.478,21.478c9.962,0,18.337-6.828,20.754-16.043
		C369.507,299.992,360.085,290.458,360.085,278.75z"/>
	<path style="fill:#9B501E;" d="M437.084,278.75v-17.045c0-1.88,0.268-3.696,0.724-5.435c-0.134-0.002-0.263-0.02-0.397-0.02
		c-11.843,0-21.478,9.635-21.478,21.478v17.045c0,11.843,9.635,21.478,21.478,21.478c9.962,0,18.337-6.828,20.754-16.043
		C446.506,299.992,437.084,290.458,437.084,278.75z"/>
</g>
<path style="fill:#87461A;" d="M276.357,282.25H117.839v91h158.518c17.921,0,32.5-14.58,32.5-32.5v-26
	C308.857,296.83,294.278,282.25,276.357,282.25z"/>
<path style="fill:#723912;" d="M166.372,312.836c-6.519,8.707-10.042,19.292-10.042,30.169v30.245h120.027
	c17.921,0,32.5-14.58,32.5-32.5v-26c0-4.428-0.893-8.651-2.504-12.501H190.326C181.286,302.249,172.555,306.108,166.372,312.836z"/>
<path style="fill:#AF612C;" d="M120.001,373.25c-17.921,0-32.5-14.58-32.5-32.5v-26c0-17.92,14.579-32.5,32.5-32.5
	s32.5,14.58,32.5,32.5v26C152.501,358.67,137.922,373.25,120.001,373.25z"/>
<path style="fill:#9B501E;" d="M145.506,330.216c-17.921,0-32.5-14.58-32.5-32.5v-14.7c-14.569,3.209-25.505,16.215-25.505,31.734
	v26c0,17.92,14.579,32.5,32.5,32.5s32.5-14.58,32.5-32.5v-11.3C150.247,329.947,147.908,330.216,145.506,330.216z"/>
<path style="fill:#C67D4B;" d="M118.5,359.25c-7.995,0-14.5-6.505-14.5-14.5v-26c0-7.995,6.505-14.5,14.5-14.5s14.5,6.505,14.5,14.5
	v26C133,352.745,126.495,359.25,118.5,359.25z"/>
<path style="fill:#BA560C;" d="M204.5,315.75c-9.04,0-17.771,3.859-23.954,10.587l0,0c-6.519,8.707-10.042,19.292-10.042,30.169
	v50.244h235.154h53.449v-91H204.5z"/>
<path style="fill:#AA4B0B;" d="M392.17,326.967l-211.838-0.332c-6.379,8.651-9.828,19.116-9.828,29.871v50.244h235.154h6.143
	c5.133-5.747,8.261-13.321,8.261-21.615v-26C420.062,342.779,407.915,329.212,392.17,326.967z"/>
<path style="fill:#CE6B29;" d="M460.5,406.75c-17.921,0-32.5-14.58-32.5-32.5v-26c0-17.92,14.579-32.5,32.5-32.5
	s32.5,14.58,32.5,32.5v26C493,392.17,478.421,406.75,460.5,406.75z"/>
<path style="fill:#99440B;" d="M456.597,358.817v-26c0-6.247,1.775-12.084,4.842-17.043c-0.313-0.009-0.624-0.024-0.939-0.024
	c-17.921,0-32.5,14.58-32.5,32.5v26c0,17.92,14.579,32.5,32.5,32.5c11.674,0,21.926-6.19,27.658-15.457
	C470.67,390.793,456.597,376.422,456.597,358.817z"/>
<path style="fill:#D87D3F;" d="M460.5,388.75c-7.995,0-14.5-6.505-14.5-14.5v-26c0-7.995,6.505-14.5,14.5-14.5s14.5,6.505,14.5,14.5
	v26C475,382.245,468.495,388.75,460.5,388.75z"/>
<path style="fill:#D66E18;" d="M118.5,338.75c-17.921,0-32.5,14.58-32.5,32.5v26c0,17.92,14.579,32.5,32.5,32.5h260.607l-4.607-91
	H118.5z"/>
<path style="fill:#C65C0E;" d="M155.326,384.25c-17.921,0-32.5-14.58-32.5-32.5v-13H118.5c-17.921,0-32.5,14.58-32.5,32.5v26
	c0,17.92,14.579,32.5,32.5,32.5h260.607v-45.5H155.326z"/>
<g>
	<path style="fill:#FF4800;" d="M263.339,429.75l-0.693-0.123c-6.237-1.107-11.366-5.962-12.722-12.508
		c-0.816-3.936,0.002-8.033,2.027-11.505c1.854-3.178,4.221-6.787,7.04-10.733l3.936-5.509c1.262-1.766,3.888-1.766,5.149,0.001
		l3.934,5.509c2.818,3.946,5.184,7.553,7.037,10.729c2.025,3.472,2.844,7.568,2.03,11.504c-1.354,6.547-6.483,11.404-12.72,12.512
		l-0.694,0.123H263.339z"/>
	<path style="fill:#FF4800;" d="M173.892,429.65c-12.401,0.204-22.954-10.309-23.447-22.702l-0.014-0.352l0.179-0.916
		c0.645-3.31,3.488-13.365,15.943-35.177l3.773-6.607c1.403-2.457,4.945-2.457,6.348,0l3.773,6.607
		c12.824,22.456,15.447,32.594,15.945,35.167l0.176,0.907l-0.035,0.923C196.059,419.792,186.148,429.448,173.892,429.65z"/>
</g>
<g>
	<path style="fill:#ED1100;" d="M272.992,417.071c-0.816-3.936,0.002-8.033,2.027-11.505c0.606-1.038,1.286-2.139,1.999-3.266
		c-1.462-2.308-3.124-4.779-5.009-7.418l-3.935-5.509c-1.262-1.767-3.887-1.767-5.149,0l-3.936,5.509
		c-2.819,3.946-5.186,7.555-7.04,10.733c-2.025,3.472-2.843,7.569-2.027,11.505c1.357,6.546,6.485,11.401,12.722,12.508l0.693,0.123
		h4.322l0.694-0.123c3.365-0.597,6.401-2.293,8.702-4.75C275.07,422.773,273.622,420.107,272.992,417.071z"/>
	<path style="fill:#ED1100;" d="M173.514,406.899l-0.014-0.352l0.179-0.916c0.556-2.855,2.754-10.737,11.342-26.849
		c-1.359-2.553-2.874-5.305-4.573-8.279l-3.773-6.607c-1.403-2.457-4.945-2.457-6.348,0l-3.773,6.607
		c-12.455,21.812-15.299,31.867-15.943,35.177l-0.179,0.916l0.014,0.352c0.493,12.393,11.046,22.906,23.447,22.702
		c4.156-0.069,8.029-1.245,11.369-3.221C178.541,422.426,173.839,415.072,173.514,406.899z"/>
</g>
<path style="fill:#E28027;" d="M374.5,429.75c-17.921,0-32.5-14.58-32.5-32.5v-26c0-17.92,14.579-32.5,32.5-32.5
	s32.5,14.58,32.5,32.5v26C407,415.17,392.421,429.75,374.5,429.75z"/>
<path style="fill:#B25814;" d="M400.434,406.339c-17.921,0-32.5-14.58-32.5-32.5v-26c0-2.989,0.414-5.882,1.173-8.634
	C353.745,341.783,342,355.167,342,371.25v26c0,17.92,14.579,32.5,32.5,32.5c14.931,0,27.535-10.125,31.327-23.866
	C404.071,406.178,402.271,406.339,400.434,406.339z"/>
<path style="fill:#F4A667;" d="M374.5,411.75c-7.995,0-14.5-6.505-14.5-14.5v-26c0-7.995,6.505-14.5,14.5-14.5s14.5,6.505,14.5,14.5
	v26C389,405.245,382.495,411.75,374.5,411.75z"/>
<g>
	<path style="fill:#CC7C46;" d="M360.388,302.249c-0.007,0-0.013,0-0.021,0c-4.142-0.011-7.49-3.378-7.479-7.52l0.046-17.021
		c0.011-4.107,3.321-7.434,7.415-7.479c0.035-0.001,0.064,0,0.105,0c4.142,0.011,7.49,3.378,7.479,7.52l-0.046,17.021
		C367.877,298.904,364.521,302.249,360.388,302.249z"/>
	<path style="fill:#CC7C46;" d="M437.388,302.249c-0.007,0-0.013,0-0.021,0c-4.142-0.011-7.49-3.378-7.479-7.52l0.046-17.021
		c0.011-4.107,3.321-7.434,7.415-7.479c0.035-0.001,0.064,0,0.105,0c4.142,0.011,7.49,3.378,7.479,7.52l-0.046,17.021
		C444.877,298.904,441.521,302.249,437.388,302.249z"/>
</g>
<path style="fill:#FF4800;" d="M486.5,292.649c-0.499,0-1.001-0.031-1.493-0.093c-4.198-0.523-7.797-3.311-9.394-7.466
	c-1.074-2.795-0.95-5.898,0.097-8.704c0.855-2.294,2.09-5.016,3.674-8.101l5.539-10.786c0.66-1.284,2.495-1.284,3.155,0
	l5.539,10.786c1.588,3.092,2.824,5.819,3.679,8.115c1.045,2.807,1.164,5.911,0.086,8.705c-1.6,4.147-5.193,6.929-9.398,7.453
	C487.501,292.618,486.999,292.649,486.5,292.649z"/>
<path style="fill:#ED1100;" d="M485.091,285.089c-1.074-2.795-0.95-5.898,0.097-8.704c0.855-2.294,2.09-5.016,3.674-8.101
	l2.377-4.629l-3.161-6.156c-0.659-1.284-2.495-1.284-3.155,0l-5.539,10.786c-1.585,3.085-2.819,5.807-3.674,8.101
	c-1.046,2.806-1.171,5.909-0.097,8.704c1.597,4.155,5.196,6.943,9.394,7.466c0.492,0.062,0.994,0.093,1.493,0.093
	s1.001-0.031,1.483-0.092c1.141-0.142,2.231-0.464,3.254-0.921C488.489,290.408,486.254,288.118,485.091,285.089z"/>
<path style="fill:#87461A;" d="M7.5,436.75c-4.143,0-7.5-3.358-7.5-7.5s3.357-7.5,7.5-7.5h497c4.143,0,7.5,3.358,7.5,7.5
	s-3.357,7.5-7.5,7.5"/>
<path d="M324.642,361.25c0-4.142-3.357-7.5-7.5-7.5h-63.31c-4.143,0-7.5,3.358-7.5,7.5s3.357,7.5,7.5,7.5h63.31
	C321.284,368.75,324.642,365.392,324.642,361.25z"/>
<path d="M232.84,360.839c0-4.142-3.357-7.5-7.5-7.5h-26.495c-4.143,0-7.5,3.358-7.5,7.5s3.357,7.5,7.5,7.5h26.495
	C229.482,368.339,232.84,364.981,232.84,360.839z"/>
<path d="M143.236,353.339h-20.583c-4.143,0-7.5,3.358-7.5,7.5s3.357,7.5,7.5,7.5h20.583c4.143,0,7.5-3.358,7.5-7.5
	S147.379,353.339,143.236,353.339z"/>
<path d="M127.093,379.505h-17.758c-4.143,0-7.5,3.358-7.5,7.5s3.357,7.5,7.5,7.5h17.758c4.143,0,7.5-3.358,7.5-7.5
	S131.235,379.505,127.093,379.505z"/>
<path d="M234.086,379.505h-22.481c-4.143,0-7.5,3.358-7.5,7.5s3.357,7.5,7.5,7.5h22.481c4.143,0,7.5-3.358,7.5-7.5
	S238.229,379.505,234.086,379.505z"/>
<path d="M320.409,379.505h-26.232c-4.143,0-7.5,3.358-7.5,7.5s3.357,7.5,7.5,7.5h26.232c4.143,0,7.5-3.358,7.5-7.5
	S324.552,379.505,320.409,379.505z"/>
<path d="M384.5,389.75c-4.143,0-7.5,3.358-7.5,7.5c0,1.378-1.121,2.5-2.5,2.5s-2.5-1.122-2.5-2.5v-26c0-1.378,1.121-2.5,2.5-2.5
	c4.143,0,7.5-3.358,7.5-7.5s-3.357-7.5-7.5-7.5c-9.649,0-17.5,7.851-17.5,17.5v26c0,9.649,7.851,17.5,17.5,17.5
	s17.5-7.851,17.5-17.5C392,393.108,388.643,389.75,384.5,389.75z"/>
<path d="M64.5,389.75c-4.143,0-7.5,3.358-7.5,7.5c0,1.378-1.121,2.5-2.5,2.5s-2.5-1.122-2.5-2.5v-26c0-1.378,1.121-2.5,2.5-2.5
	c4.143,0,7.5-3.358,7.5-7.5s-3.357-7.5-7.5-7.5c-9.649,0-17.5,7.851-17.5,17.5v26c0,9.649,7.851,17.5,17.5,17.5
	s17.5-7.851,17.5-17.5C72,393.108,68.643,389.75,64.5,389.75z"/>
<path d="M360.367,302.249c0.008,0,0.014,0,0.021,0c4.133,0,7.489-3.345,7.5-7.48l0.046-17.021c0.011-4.142-3.338-7.509-7.479-7.52
	c-0.041,0-0.07,0-0.105,0c-4.094,0.045-7.404,3.373-7.415,7.479l-0.046,17.021C352.877,298.871,356.226,302.238,360.367,302.249z"/>
<path d="M437.367,302.249c0.008,0,0.014,0,0.021,0c4.133,0,7.489-3.345,7.5-7.48l0.046-17.021c0.011-4.142-3.338-7.509-7.479-7.52
	c-0.041,0-0.07,0-0.105,0c-4.094,0.045-7.404,3.373-7.415,7.479l-0.046,17.021C429.877,298.871,433.226,302.238,437.367,302.249z"/>
<path d="M443,374.25c0,9.649,7.851,17.5,17.5,17.5s17.5-7.851,17.5-17.5c0-4.142-3.357-7.5-7.5-7.5s-7.5,3.358-7.5,7.5
	c0,1.378-1.121,2.5-2.5,2.5s-2.5-1.122-2.5-2.5v-26c0-1.378,1.121-2.5,2.5-2.5c4.143,0,7.5-3.358,7.5-7.5s-3.357-7.5-7.5-7.5
	c-9.649,0-17.5,7.851-17.5,17.5V374.25z"/>
<path d="M230.5,229.25c30.356,0,55.053-24.697,55.053-55.053c0-27.902-43.979-88.993-48.994-95.867
	c-1.411-1.936-3.663-3.08-6.059-3.08s-4.647,1.145-6.059,3.08c-5.016,6.874-48.994,67.965-48.994,95.867
	C175.447,204.553,200.144,229.25,230.5,229.25z M230.5,95.729c15.013,21.737,40.053,61.535,40.053,78.468
	c0,22.085-17.968,40.053-40.053,40.053s-40.053-17.968-40.053-40.053C190.447,157.265,215.487,117.466,230.5,95.729z"/>
<path d="M230.5,202.25c15.374,0,27.958-12.506,28.053-27.878c0.001-0.244-0.009-0.488-0.031-0.731
	c-0.27-2.933-2.608-14.896-21.401-45.697l-0.206-0.338c-1.359-2.243-3.791-3.613-6.414-3.613s-5.055,1.37-6.414,3.613l-0.194,0.319
	c-18.805,30.819-21.144,42.783-21.413,45.716c-0.022,0.243-0.032,0.487-0.031,0.731C202.542,189.744,215.126,202.25,230.5,202.25z
	 M218.857,170.108c1.584-4.372,4.87-11.927,11.643-23.864c6.789,11.963,10.074,19.523,11.653,23.876
	c2.847,7.851-2.447,16.545-10.78,17.101c-0.289,0.019-0.58,0.029-0.873,0.029c-0.291,0-0.58-0.01-0.866-0.029
	C221.294,186.669,216.009,177.965,218.857,170.108z"/>
<path d="M381.5,214.789c21.505,0,39-17.495,39-39c0-18.885-27.44-57.457-32.94-64.997c-1.412-1.936-3.664-3.08-6.06-3.08
	s-4.647,1.145-6.06,3.08c-5.5,7.54-32.94,46.112-32.94,64.997C342.5,197.293,359.995,214.789,381.5,214.789z M381.5,128.276
	c11.43,16.904,24,38.802,24,47.513c0,13.233-10.767,24-24,24s-24-10.767-24-24C357.5,167.078,370.07,145.18,381.5,128.276z"/>
<path d="M381.5,192.11c9.865,0,17.939-8.024,18-17.888c0.001-0.242-0.009-0.483-0.03-0.724c-0.246-2.7-2.061-9.53-11.462-24.938
	l-0.105-0.173c-1.362-2.232-3.788-3.594-6.402-3.594s-5.04,1.362-6.402,3.594l-0.105,0.173
	c-9.401,15.408-11.216,22.238-11.462,24.938c-0.021,0.241-0.031,0.482-0.03,0.724C363.561,184.085,371.635,192.11,381.5,192.11z
	 M378.96,173.39c0.429-1.202,1.194-3.078,2.54-5.786c1.326,2.668,2.088,4.528,2.521,5.732c0.633,1.761-0.606,3.747-2.477,3.774
	c-0.015,0-0.029,0-0.044,0c-0.294,0-0.579-0.043-0.848-0.123C379.168,176.548,378.44,174.847,378.96,173.39z"/>
<path d="M94.5,257.653c13.976,0,25.415-11.369,25.501-25.342c0.001-0.244-0.009-0.488-0.031-0.731
	c-0.24-2.619-2.313-13.276-18.897-40.457l-0.152-0.25c-1.358-2.249-3.793-3.623-6.42-3.623s-5.062,1.374-6.42,3.623l-0.163,0.268
	c-16.573,27.164-18.646,37.82-18.887,40.439c-0.022,0.243-0.032,0.487-0.031,0.731C69.085,246.285,80.524,257.653,94.5,257.653z
	 M94.5,209.565c8.488,15.171,10.184,21.692,10.485,23.168c-0.303,5.516-4.902,9.92-10.485,9.92s-10.183-4.404-10.485-9.92
	C84.316,231.257,86.012,224.735,94.5,209.565z"/>
<path d="M504.5,436.75c4.143,0,7.5-3.358,7.5-7.5s-3.357-7.5-7.5-7.5h-99.078c1.946-2.453,3.626-5.126,4.953-8H460.5
	c21.78,0,39.5-17.72,39.5-39.5v-26c0-21.216-16.815-38.572-37.817-39.457c2.354-4.142,3.706-8.925,3.706-14.02v-17.045
	c0-15.703-12.775-28.478-28.478-28.478H269.589c-15.374,0-27.935,12.249-28.453,27.5H118.5c-12.306,0-23.313,5.659-30.563,14.509
	C80.938,280.151,68.571,272.75,54.5,272.75c-21.78,0-39.5,17.72-39.5,39.5v85c0,9.25,3.205,17.761,8.551,24.5H7.5
	c-4.143,0-7.5,3.358-7.5,7.5s3.357,7.5,7.5,7.5H504.5 M79,397.25c0,13.509-10.99,24.5-24.5,24.5S30,410.759,30,397.25v-26
	c0-13.509,10.99-24.5,24.5-24.5S79,357.741,79,371.25V397.25z M79,340.301c-6.739-5.346-15.25-8.551-24.5-8.551
	s-17.761,3.205-24.5,8.551V312.25c0-13.509,10.99-24.5,24.5-24.5S79,298.741,79,312.25V340.301z M85.435,421.75
	c0.362-0.456,0.723-0.912,1.065-1.384c0.342,0.472,0.703,0.928,1.065,1.384H85.435z M460.5,323.75c13.51,0,24.5,10.991,24.5,24.5v26
	c0,13.509-10.99,24.5-24.5,24.5s-24.5-10.991-24.5-24.5v-26C436,334.741,446.99,323.75,460.5,323.75z M423.934,277.728
	c0-7.432,6.046-13.478,13.478-13.478s13.478,6.046,13.478,13.478v17.045c0,7.432-6.046,13.478-13.478,13.478
	s-13.478-6.046-13.478-13.478V277.728z M385.49,264.25h26.842c-2.166,4.015-3.398,8.605-3.398,13.478v17.045
	c0,5.078,1.342,9.845,3.681,13.978h-27.407c2.339-4.132,3.681-8.9,3.681-13.978v-17.045
	C388.889,272.855,387.656,268.265,385.49,264.25z M346.934,277.728c0-7.432,6.046-13.478,13.478-13.478s13.478,6.046,13.478,13.478
	v17.045c0,7.432-6.046,13.478-13.478,13.478s-13.478-6.046-13.478-13.478V277.728z M269.589,264.25h65.743
	c-2.166,4.015-3.398,8.605-3.398,13.478v17.045c0,5.078,1.342,9.845,3.681,13.978h-22.338c-3.515-18.205-19.561-32-38.777-32
	h-18.339C256.665,269.775,262.487,264.25,269.589,264.25z M274.5,291.75c10.894,0,20.146,7.149,23.321,17H204.5
	c-15.488,0-29.516,9.22-35.884,23H158v-15.5c0-9.25-3.205-17.761-8.551-24.5H274.5z M94,316.25c0-13.509,10.99-24.5,24.5-24.5
	s24.5,10.991,24.5,24.5v15.5h-24.5c-9.25,0-17.761,3.205-24.5,8.551V316.25z M173.5,421.653c-8.077,0-14.719-6.434-15.038-14.444
	c0.324-1.666,2.543-10.857,15.038-32.738c12.568,22.007,14.739,31.173,15.039,32.721C188.229,415.21,181.583,421.653,173.5,421.653z
	 M266.957,421.75h-2.913c-5.219-0.926-8.15-6.965-5.367-11.786c1.502-2.602,3.678-6.03,6.824-10.432
	c3.145,4.403,5.321,7.83,6.823,10.432C275.106,414.784,272.176,420.824,266.957,421.75z M399,397.25c0,13.509-10.99,24.5-24.5,24.5
	s-24.5-10.991-24.5-24.5v-26c0-13.509,10.99-24.5,24.5-24.5s24.5,10.991,24.5,24.5V397.25z M374.5,331.75H271.481
	c-4.734,0-8.187,4.419-7.113,9.03c0.019,0.081,0.037,0.161,0.056,0.242c0.764,3.349,3.729,5.728,7.164,5.728h71.963
	C338.205,353.489,335,362,335,371.25v26c0,9.25,3.205,17.761,8.551,24.5H289.43c0.677-1.901,1.054-3.911,1.071-5.992
	c0.002-0.311-0.015-0.621-0.051-0.93c-0.406-3.47-3.395-12.266-18.857-32.206l-0.05-0.064c-0.883-1.14-2.034-2.076-3.388-2.574
	c-3.209-1.182-6.627-0.098-8.585,2.431l-0.172,0.222c-15.452,19.927-18.44,28.723-18.847,32.192
	c-0.036,0.309-0.053,0.619-0.051,0.93c0.016,2.081,0.393,4.091,1.071,5.992h-42.147c2.587-4.402,4.092-9.51,4.126-14.958
	c0.001-0.245-0.009-0.49-0.031-0.734c-0.293-3.18-2.845-16.17-23.386-49.836l-0.13-0.213c-0.952-1.559-2.385-2.812-4.122-3.377
	c-3.446-1.121-7.019,0.313-8.787,3.219l-0.223,0.364c-20.545,33.672-23.097,46.663-23.39,49.843
	c-0.022,0.244-0.032,0.489-0.031,0.734c0.034,5.448,1.539,10.556,4.126,14.958H118.5c-13.531,0-24.5-10.969-24.5-24.5v-26
	c0-13.531,10.969-24.5,24.5-24.5h107.235c3.513,0,6.509-2.492,7.209-5.935c0.013-0.063,0.026-0.127,0.039-0.191
	c0.948-4.574-2.512-8.874-7.184-8.874h-39.363c4.552-4.953,11.062-8,18.064-8h225.051C424.205,330.489,421,339,421,348.25v26
	c0,9.25,3.205,17.761,8.551,24.5h-15.589c0.019-0.499,0.038-0.997,0.038-1.5v-26C414,349.435,396.315,331.75,374.5,331.75z"/>
<path d="M486.5,299.649c10.412,0,18.936-8.47,19-18.881c0.001-0.245-0.009-0.49-0.031-0.734c-0.215-2.334-1.858-9.637-12.422-26.949
	l-0.129-0.211c-1.355-2.241-3.806-3.572-6.425-3.578c-0.006,0-0.012,0-0.018,0c-2.612,0-5.062,1.4-6.425,3.629l-0.068,0.113
	c-10.593,17.36-12.236,24.663-12.451,26.997c-0.022,0.244-0.032,0.489-0.031,0.734C467.564,291.179,476.088,299.649,486.5,299.649z
	 M486.5,271.939c2.803,5.458,3.697,8.27,3.96,9.275c-0.275,1.938-1.951,3.435-3.96,3.435s-3.685-1.498-3.96-3.435
	C482.803,280.208,483.697,277.397,486.5,271.939z"/>
<g>
</g>
<g>
</g>
<g>
</g>
<g>
</g>
<g>
</g>
<g>
</g>
<g>
</g>
<g>
</g>
<g>
</g>
<g>
</g>
<g>
</g>
<g>
</g>
<g>
</g>
<g>
</g>
<g>
</g>
</svg>
