<?xml version="1.0" encoding="iso-8859-1"?>
<!-- Generator: Adobe Illustrator 19.0.0, SVG Export Plug-In . SVG Version: 6.00 Build 0)  -->
<svg version="1.1" id="Capa_1" xmlns="http://www.w3.org/2000/svg" xmlns:xlink="http://www.w3.org/1999/xlink" x="0px" y="0px"
	 viewBox="0 0 511.999 511.999" style="enable-background:new 0 0 511.999 511.999;" xml:space="preserve">
<path style="fill:#F0B329;" d="M354.891,73.162c-1.231-1.473-2.591-2.833-4.064-4.064l-3.962-3.306c-1.653-1.38-1.653-3.92,0-5.299
	l3.962-3.306c1.473-1.23,2.834-2.59,4.064-4.064l3.308-3.963c1.38-1.653,3.919-1.653,5.299,0l3.306,3.96
	c1.232,1.475,2.595,2.837,4.07,4.07l3.959,3.304c1.653,1.38,1.653,3.92,0,5.299l-3.962,3.306c-1.473,1.23-2.834,2.59-4.064,4.064
	l-3.308,3.963c-1.38,1.653-3.919,1.653-5.299,0L354.891,73.162z"/>
<path style="fill:#FFC022;" d="M294.532,97.477H192.909L157.85,11.44c-1.642-4.027,1.321-8.433,5.668-8.433h160.403
	c4.348,0,7.31,4.406,5.669,8.432L294.532,97.477z"/>
<polygon style="fill:#EFAA0F;" points="265.929,97.477 221.511,97.477 205.204,3.007 282.237,3.007 "/>
<path style="fill:#B5B2B0;" d="M164.546,295.143V280.39c0-3.122,2.531-5.652,5.652-5.652h23.754v26.057h-23.754
	C167.076,300.795,164.546,298.265,164.546,295.143z"/>
<path style="fill:#21C156;" d="M183.588,304.214V271.32c0-6.066,4.401-11.237,10.389-12.207l18.675-3.025v63.356l-18.675-3.025
	C187.988,315.451,183.588,310.28,183.588,304.214z"/>
<path style="fill:#2FE0A0;" d="M228.358,504.985c-11.788,0-21.377-9.59-21.377-21.377v-295.06h73.478v295.06
	c0,11.787-9.589,21.377-21.377,21.377H228.358z"/>
<path style="fill:#31DD6F;" d="M251.189,483.608v-295.06h-44.207v295.06c0,11.787,9.589,21.377,21.377,21.377h30.724
	c2.357,0,4.619-0.399,6.742-1.106C257.333,501.047,251.189,493.038,251.189,483.608z"/>
<path style="fill:#FAF7E6;" d="M261.277,389.992c-5.26,0-9.539-4.279-9.539-9.539V248.197c0-5.26,4.279-9.539,9.539-9.539h19.183
	v151.333H261.277z"/>
<path style="fill:#1ABA9B;" d="M199.728,206.588c-12.215,0-22.153-9.938-22.153-22.153v-75.028c0-7.754,6.309-14.063,14.063-14.063
	h103.163c7.754,0,14.063,6.309,14.063,14.063v75.028c0,12.215-9.938,22.153-22.153,22.153H199.728z"/>
<path style="fill:#19B274;" d="M221.783,184.435v-75.028c0-7.754,6.309-14.063,14.063-14.063h-44.207
	c-7.754,0-14.063,6.309-14.063,14.063v75.028c0,12.215,9.938,22.153,22.153,22.153h44.207
	C231.721,206.588,221.783,196.65,221.783,184.435z"/>
<rect x="177.578" y="116.978" style="fill:#2FE0A0;" width="131.289" height="15.033"/>
<path style="fill:#1ABA9B;" d="M206.981,459.76c0.166,0.011,0.332,0.025,0.501,0.025h72.476c0.169,0,0.335-0.014,0.501-0.025
	v-14.983c-0.166-0.011-0.332-0.025-0.501-0.025h-72.476c-0.169,0-0.335,0.014-0.501,0.025L206.981,459.76L206.981,459.76z"/>
<path d="M384.661,55.625c-7.462,0-16.296-8.832-16.296-16.296c0-4.151-3.364-7.517-7.517-7.517c-4.152,0-7.517,3.365-7.517,7.517
	c0,7.462-8.832,16.296-16.296,16.296c-4.152,0-7.517,3.365-7.517,7.517s3.364,7.517,7.517,7.517c7.462,0,16.296,8.832,16.296,16.296
	c0,4.151,3.364,7.517,7.517,7.517c4.152,0,7.517-3.365,7.517-7.517c0-7.462,8.832-16.296,16.296-16.296
	c4.152,0,7.517-3.365,7.517-7.517S388.813,55.625,384.661,55.625z M360.848,67.787c-1.403-1.681-2.965-3.242-4.646-4.645
	c1.682-1.403,3.242-2.965,4.646-4.645c1.403,1.681,2.965,3.242,4.646,4.645C363.813,64.546,362.252,66.106,360.848,67.787z"/>
<path d="M205.171,31.572c0.62,0.162,1.677,1.218,1.839,1.838c0.05,4.108,3.395,7.423,7.516,7.423s7.465-3.315,7.516-7.423
	c0.162-0.62,1.219-1.676,1.839-1.838c4.108-0.05,7.422-3.396,7.422-7.517s-3.315-7.466-7.422-7.517
	c-0.62-0.162-1.677-1.218-1.839-1.838c-0.05-4.108-3.395-7.423-7.516-7.423s-7.465,3.315-7.516,7.423
	c-0.162,0.62-1.219,1.676-1.839,1.838c-4.108,0.05-7.422,3.396-7.422,7.517S201.064,31.522,205.171,31.572z"/>
<path d="M261.295,70.658c0.62,0.162,1.677,1.218,1.839,1.838c0.05,4.108,3.395,7.423,7.516,7.423c4.12,0,7.465-3.315,7.516-7.423
	c0.162-0.62,1.219-1.676,1.839-1.838c4.108-0.05,7.422-3.396,7.422-7.517s-3.315-7.466-7.422-7.517
	c-0.62-0.162-1.677-1.218-1.839-1.838c-0.05-4.108-3.395-7.423-7.516-7.423c-4.12,0-7.465,3.315-7.516,7.423
	c-0.162,0.62-1.219,1.676-1.839,1.838c-4.108,0.05-7.422,3.396-7.422,7.517S257.188,70.608,261.295,70.658z"/>
<circle cx="130.344" cy="51.113" r="10.523"/>
<circle cx="270.654" cy="17.038" r="7.517"/>
<circle cx="221.545" cy="66.146" r="7.517"/>
<path d="M272.441,307.627v74.347h-11.166c-0.84,0-1.521-0.681-1.521-1.521V248.197c0-0.84,0.68-1.521,1.521-1.521h11.166v13.339
	c0,4.261,3.581,7.661,7.835,7.409c0.063-0.004,0.126-0.007,0.189-0.011c3.933-0.222,7.008-3.471,7.008-7.409v-46.421
	c15.731-0.408,28.405-13.322,28.405-29.149v-75.028c0-8.981-5.655-16.647-13.584-19.677l34.61-79.199
	c1.663-3.804-0.073-8.235-3.878-9.898s-8.235,0.074-9.897,3.878l-36.629,83.818h-85.824L164.05,4.509
	c-1.663-3.804-6.094-5.539-9.897-3.878c-3.804,1.663-5.54,6.093-3.878,9.898l34.507,78.965
	c-8.263,2.854-14.223,10.691-14.223,19.912v75.028c0,16.109,13.06,29.168,29.168,29.168h0.238v36.839l-17.32,3.388
	c-3.528,0.691-6.073,3.782-6.073,7.376v6.514h-11.525c-4.151,0-7.517,3.365-7.517,7.517v25.055c0,4.151,3.365,7.517,7.517,7.517
	h11.525v6.514c0,3.595,2.546,6.687,6.073,7.376l17.32,3.388v158.517c0,15.681,12.712,28.393,28.393,28.393h30.724
	c15.681,0,28.393-12.712,28.393-28.393V307.659c0-3.618-2.607-6.703-6.173-7.315c-0.063-0.011-0.126-0.022-0.19-0.033
	C276.583,299.526,272.441,303.03,272.441,307.627z M176.572,292.778h-4.009v-10.022h4.009V292.778z M199.623,309.706l-8.018-1.568
	v-40.74l8.018-1.568V309.706z M185.592,109.406c0-3.333,2.712-6.045,6.045-6.045h103.163c3.333,0,6.045,2.712,6.045,6.045v7.57
	H185.592V109.406z M199.728,198.57c-7.794,0-14.135-6.341-14.135-14.135v-52.425h115.254v52.425c0,7.794-6.341,14.135-14.135,14.135
	H199.728z M272.441,483.608c0,7.366-5.992,13.359-13.359,13.359h-30.724c-7.367,0-13.359-5.993-13.359-13.359v-23.823h57.443
	V483.608z M272.441,444.752h-57.443v-8.22h42.251c4.152,0,7.517-3.365,7.517-7.517c0-4.151-3.364-7.517-7.517-7.517h-42.251V213.603
	h57.443v18.04h-11.166c-9.127,0-16.554,7.426-16.554,16.554v132.256c0,9.128,7.426,16.554,16.554,16.554h11.166L272.441,444.752
	L272.441,444.752z"/>
<path d="M285.312,137.435c-4.152,0-7.517,3.365-7.517,7.517v28.563h-7.517c-4.152,0-7.517,3.365-7.517,7.517
	s3.364,7.517,7.517,7.517h15.033c4.152,0,7.517-3.365,7.517-7.517v-36.079C292.828,140.801,289.464,137.435,285.312,137.435z"/>
<g>
</g>
<g>
</g>
<g>
</g>
<g>
</g>
<g>
</g>
<g>
</g>
<g>
</g>
<g>
</g>
<g>
</g>
<g>
</g>
<g>
</g>
<g>
</g>
<g>
</g>
<g>
</g>
<g>
</g>
</svg>
