<?xml version="1.0" encoding="iso-8859-1"?>
<!-- Generator: Adobe Illustrator 19.0.0, SVG Export Plug-In . SVG Version: 6.00 Build 0)  -->
<svg version="1.1" id="Capa_1" xmlns="http://www.w3.org/2000/svg" xmlns:xlink="http://www.w3.org/1999/xlink" x="0px" y="0px"
	 viewBox="0 0 512 512" style="enable-background:new 0 0 512 512;" xml:space="preserve">
<path style="fill:#F24400;" d="M327.804,10.843L327.804,10.843c-2.91-2.416-7.129-2.415-10.037,0.004l0,0
	c-6.477,5.386-27.607,24.118-27.607,39.023c0,7.872,2.724,15.559,7.669,21.647l3.381,4.162c3.223,3.968,8.064,6.271,13.175,6.27
	l16.815-0.004c5.09-0.001,9.91-2.287,13.131-6.226l3.399-4.156c4.95-6.053,7.677-13.756,7.677-21.693
	C355.406,34.927,334.279,16.221,327.804,10.843z"/>
<path style="fill:#ED1100;" d="M339.596,71.952c-5.112,0.001-9.952-2.302-13.175-6.27l-3.381-4.162
	c-4.945-6.088-7.669-13.775-7.669-21.647c0-8.842,7.436-19.03,14.837-26.981c-0.927-0.807-1.746-1.501-2.406-2.049l0,0
	c-2.91-2.416-7.129-2.414-10.037,0.004c-6.477,5.386-27.607,24.118-27.607,39.023c0,7.871,2.724,15.559,7.669,21.647l3.381,4.162
	c3.223,3.968,8.064,6.271,13.175,6.27l16.815-0.004c5.09-0.001,9.91-2.286,13.131-6.226l3.083-3.77L339.596,71.952z"/>
<path style="fill:#72350C;" d="M352.071,108.018H159.929c-9.683,0-17.56,7.878-17.56,17.56v173.609v48.361H369.63v-48.361V125.578
	C369.63,115.896,361.752,108.018,352.071,108.018z"/>
<path style="fill:#562605;" d="M299.49,257.552c-26.709,0-48.361-21.652-48.361-48.361l0,0V108.018h-91.201
	c-9.699,0-17.56,7.862-17.56,17.56v173.609v48.361h227.261v-48.361v-41.635H299.49z"/>
<path style="fill:#CE7C45;" d="M344.631,347.548V143.482c0-5.78-4.686-10.466-10.466-10.466H177.833
	c-5.78,0-10.466,4.686-10.466,10.466v204.066H344.631z"/>
<path style="fill:#87461A;" d="M159.929,505c-9.683,0-17.56-7.878-17.56-17.56V309.728c0-9.683,7.878-17.56,17.56-17.56h192.141
	c9.683,0,17.56,7.878,17.56,17.56V487.44c0,9.683-7.878,17.56-17.56,17.56H159.929z"/>
<path style="fill:#893615;" d="M369.63,446.769c-70.612,0-127.853-57.242-127.853-127.853v-26.748h-81.847
	c-9.699,0-17.56,7.862-17.56,17.56V487.44c0,9.699,7.862,17.56,17.56,17.56h192.141c9.698,0,17.56-7.862,17.56-17.56L369.63,446.769
	L369.63,446.769z"/>
<path style="fill:#CE7C45;" d="M165.368,472.25V324.918c0-5.386,4.366-9.752,9.752-9.752H336.88c5.386,0,9.752,4.366,9.752,9.752
	V472.25c0,5.386-4.366,9.752-9.752,9.752H175.119C169.734,482.001,165.368,477.635,165.368,472.25z"/>
<path style="fill:#C66F34;" d="M245.528,472.25V324.918c0-5.386,4.366-9.752,9.752-9.752h-80.16c-5.386,0-9.752,4.366-9.752,9.752
	V472.25c0,5.386,4.366,9.752,9.752,9.752h80.16C249.894,482.001,245.528,477.635,245.528,472.25z"/>
<path style="fill:#F24400;" d="M257.166,466.622c-6.396,0-12.625-1.284-18.516-3.818c-3.649-1.569-7.12-3.233-10.314-4.946
	c-16.361-8.772-26.431-25.628-26.278-43.988c0.058-6.903,1.158-13.208,3.269-18.741c2.75-7.204,8.118-13.108,15.113-16.625
	c16.674-8.385,26.508-19.692,29.228-33.608l2.033-10.401c0.858-4.39,6.842-5.096,8.699-1.027l4.398,9.642
	c2.219,4.864,3.718,9.839,4.456,14.785c1.229,8.227,0.87,20.128-7.81,30.105c-5.278,6.068-10.616,14.82-6.072,22.063
	c2.062,3.285,5.841,5.326,9.864,5.326c1.578,0,3.106-0.312,4.543-0.925c5.511-2.355,8.005-8.805,7.212-18.653
	c-0.286-3.524,1.484-6.728,4.619-8.354c1.263-0.651,2.581-0.976,3.939-0.976c1.377,0,3.435,0.347,5.411,2.001
	c2.309,1.924,4.396,4.249,6.192,6.901c3.78,5.583,5.947,12.304,6.271,19.44c1.053,23.349-8.953,40.078-28.934,48.381
	C269.029,465.472,263.202,466.622,257.166,466.622z"/>
<path style="fill:#ED1100;" d="M276.034,455.953c-3.649-1.569-7.12-3.233-10.314-4.946c-16.361-8.772-26.431-25.628-26.278-43.988
	c0.058-6.903,1.158-13.208,3.269-18.741c2.75-7.204,8.118-13.108,15.113-16.625c4.481-2.253,8.452-4.725,11.938-7.395
	c-0.025-2.275-0.22-4.424-0.51-6.364c-0.738-4.947-2.237-9.921-4.456-14.785l-4.398-9.642c-1.856-4.069-7.84-3.363-8.699,1.027
	l-2.033,10.401c-2.72,13.916-12.553,25.224-29.228,33.608c-6.996,3.518-12.363,9.422-15.113,16.625
	c-2.111,5.533-3.211,11.837-3.269,18.741c-0.153,18.36,9.917,35.216,26.278,43.988c3.195,1.713,6.665,3.377,10.314,4.946
	c5.891,2.534,12.121,3.818,18.516,3.818c6.035,0,11.862-1.15,17.321-3.417c3.278-1.362,6.283-2.956,9.019-4.764
	C280.967,457.823,278.47,457.001,276.034,455.953z"/>
<g>
	<path style="fill:#DD3A3A;" d="M194.661,186.753c-6.484-7.824-6.955-11.186-7.132-12.452l-0.084-0.602l0.003-0.236
		c0.081-6.745,5.002-12.637,11.695-13.468c8.014-0.995,14.947,5.266,15.045,13.096l0.007,0.607l-0.084,0.602
		c-0.177,1.266-0.648,4.628-7.132,12.452l-3.332,4.021c-1.469,1.773-4.187,1.773-5.656,0L194.661,186.753z"/>
	<path style="fill:#DD3A3A;" d="M237.471,186.753c-6.484-7.824-6.955-11.186-7.132-12.452l-0.084-0.602l0.002-0.189
		c0.082-6.772,5.019-12.708,11.741-13.52c7.994-0.966,14.901,5.286,15,13.102l0.007,0.607l-0.084,0.602
		c-0.177,1.266-0.648,4.628-7.132,12.452l-3.29,3.97c-1.491,1.799-4.25,1.799-5.74,0L237.471,186.753z"/>
	<path style="fill:#DD3A3A;" d="M280.281,186.753c-6.484-7.824-6.955-11.186-7.132-12.452l-0.084-0.602l0.002-0.189
		c0.082-6.772,5.019-12.708,11.741-13.52c7.994-0.966,14.901,5.286,15,13.102l0.007,0.607l-0.084,0.602
		c-0.177,1.266-0.648,4.628-7.132,12.452l-3.289,3.97c-1.491,1.799-4.25,1.799-5.74,0L280.281,186.753z"/>
	<path style="fill:#DD3A3A;" d="M316.623,85.645c-6.483-7.824-6.954-11.187-7.132-12.452l-0.084-0.603l0.003-0.245
		c0.087-6.741,5.006-12.628,11.696-13.458c8.012-0.995,14.946,5.266,15.044,13.095l0.008,0.608l-0.084,0.603
		c-0.178,1.266-0.648,4.629-7.134,12.453l-3.833,4.625c-1.208,1.458-3.444,1.458-4.653,0L316.623,85.645z"/>
</g>
<path d="M198.415,314.667c0-4.142-3.358-7.5-7.5-7.5h-26.048c-4.142,0-7.5,3.358-7.5,7.5v25.382c0,4.142,3.358,7.5,7.5,7.5
	c4.142,0,7.5-3.358,7.5-7.5v-17.882h18.548C195.058,322.166,198.415,318.808,198.415,314.667z"/>
<path d="M347.131,453.14c-4.143,0-7.5,3.358-7.5,7.5V475h-16.655c-4.143,0-7.5,3.358-7.5,7.5s3.357,7.5,7.5,7.5h24.155
	c4.143,0,7.5-3.358,7.5-7.5v-21.86C354.63,456.498,351.274,453.14,347.131,453.14z"/>
<path d="M361.63,380.684V487.44c0,5.28-4.28,9.561-9.561,9.561H159.928c-5.28,0-9.561-4.281-9.561-9.561V309.728
	c0-5.28,4.281-9.561,9.561-9.561H352.07c5.28,0,9.561,4.28,9.561,9.561v22.157c0,4.142,3.358,7.5,7.5,7.5l0,0
	c4.142,0,7.5-3.358,7.5-7.5V125.578c0-13.564-10.995-24.56-24.56-24.56h-21.787v-6.339c2.533-2.611,5.72-6.218,8.29-10.164
	c0.811-0.115,1.616-0.358,2.385-0.755c13.23-6.838,21.449-20.332,21.449-35.216c0-20.526-29.339-42.849-35.219-47.116
	c-2.627-1.905-6.182-1.905-8.809,0c-5.881,4.267-35.219,26.589-35.219,47.116c0,15.111,8.798,29.124,22.413,35.698
	c0.525,0.254,1.066,0.441,1.611,0.564c2.536,3.833,5.628,7.325,8.1,9.872v6.34H159.929c-13.564,0-24.56,10.996-24.56,24.56V487.44
	c0,13.564,10.995,24.56,24.56,24.56h192.141c13.563,0,24.56-10.996,24.56-24.56V380.684c0-4.142-3.358-7.5-7.5-7.5l0,0
	C364.988,373.184,361.63,376.542,361.63,380.684z M200.82,181.65c-2.934-3.54-5.156-6.938-5.369-8.458
	c0.037-2.93,2.431-5.302,5.369-5.302c2.938,0,5.333,2.372,5.369,5.302C205.976,174.712,203.753,178.11,200.82,181.65z
	 M243.63,181.65c-2.934-3.54-5.156-6.938-5.369-8.458c0.037-2.93,2.431-5.302,5.369-5.302c2.938,0,5.333,2.372,5.369,5.302
	C248.786,174.712,246.563,178.11,243.63,181.65z M286.437,181.655c-2.931-3.534-5.151-6.932-5.366-8.463
	c0.037-2.93,2.432-5.302,5.37-5.302c2.938,0,5.332,2.372,5.369,5.302C291.595,174.713,289.37,178.114,286.437,181.655z
	 M352.071,116.018c5.271,0,9.561,4.289,9.561,9.561v161.528c-2.94-1.247-6.171-1.938-9.561-1.938h-0.439V133.517
	c0-4.142-3.357-7.5-7.5-7.5h-13.848v-10C330.284,116.018,352.071,116.018,352.071,116.018z M303.961,64.388
	c-3.666-4.375-5.801-9.976-5.801-15.844c0-8.447,13.233-22.412,24.628-31.598c0.398,0.32,0.799,0.648,1.2,0.979
	c-0.005,0.118-0.018,0.234-0.018,0.353v19.574c0,4.142,3.357,7.5,7.5,7.5s7.5-3.358,7.5-7.5v-5.321
	c4.942,5.856,8.438,11.656,8.438,16.011c0,5.935-2.112,11.507-5.791,15.868c-3.053-7.403-10.341-12.63-18.833-12.63
	C314.301,51.782,307.02,56.998,303.961,64.388z M328.154,72.084c-0.213,1.521-2.437,4.918-5.37,8.458
	c-2.934-3.54-5.156-6.938-5.369-8.458c0.037-2.93,2.432-5.302,5.369-5.302C325.722,66.782,328.116,69.154,328.154,72.084z
	 M322.783,199.059c4.143,0,7.5-3.358,7.5-7.5v-50.543h6.349v144.152H293.94v-89.38c5.105-5.261,12.868-14.568,12.868-22.528
	c0-11.231-9.138-20.369-20.368-20.369c-11.231,0-20.369,9.138-20.369,20.369c0,7.961,7.764,17.268,12.869,22.529v89.38H251.13
	v-89.38c5.106-5.26,12.869-14.568,12.869-22.529c0-11.231-9.138-20.369-20.369-20.369s-20.369,9.138-20.369,20.369
	c0,7.961,7.764,17.268,12.869,22.529v89.38H208.32v-89.38c5.106-5.26,12.869-14.568,12.869-22.529
	c0-11.231-9.138-20.369-20.369-20.369s-20.369,9.138-20.369,20.369c0,7.961,7.764,17.268,12.869,22.529v89.38h-17.953V141.016
	h139.917v50.543C315.283,195.701,318.641,199.059,322.783,199.059z M150.369,125.578c0-5.272,4.289-9.561,9.561-9.561h155.355v10
	H167.868c-4.142,0-7.5,3.358-7.5,7.5v151.651h-0.439c-3.39,0-6.621,0.69-9.561,1.938V125.578z"/>
<path d="M302.947,391.458c-2.165-3.196-4.694-6.01-7.519-8.364c-4.804-4.001-11.488-4.729-17.036-1.855
	c-5.596,2.9-8.885,8.839-8.379,15.131c0.242,3.018,0.438,10.193-2.985,11.655c-2.068,0.883-4.581,0.142-5.728-1.685
	c-2.472-3.94,2.97-10.928,5.424-13.748c8.256-9.49,11.523-21.846,9.452-35.732c-2.4-16.087-11.989-32.268-23.32-39.348
	c-2.757-1.724-6.31-1.474-8.799,0.618c-2.489,2.091-3.348,5.548-2.126,8.561c0.026,0.065,2.614,6.791,1.185,15.601
	c-1.99,12.263-10.678,22.342-25.822,29.958c-8.561,4.305-15.133,11.543-18.507,20.383c-2.41,6.315-3.665,13.439-3.729,21.178
	c-0.175,20.969,11.308,40.211,29.97,50.216c3.371,1.807,7.023,3.56,10.857,5.208c6.788,2.918,14.054,4.38,21.283,4.38
	c6.853,0,13.67-1.314,20.006-3.947c22.616-9.398,34.421-28.988,33.24-55.16C310.032,406.081,307.451,398.111,302.947,391.458z
	 M271.417,455.817c-9.298,3.863-20.09,3.731-29.608-0.362c-3.44-1.479-6.701-3.042-9.694-4.647
	c-13.734-7.364-22.187-21.492-22.059-36.872c0.05-5.947,0.973-11.314,2.744-15.955c2.036-5.333,6.025-9.713,11.232-12.331
	c22.667-11.398,30.998-26.491,33.486-39.221c1.788,3.92,3.163,8.229,3.822,12.645c0.979,6.563,0.745,15.997-5.933,23.674
	c-13.454,15.466-10.044,26.415-6.813,31.565c5.051,8.048,15.507,11.275,24.327,7.505c5.122-2.188,13.496-8.562,12.041-26.65
	c-0.014-0.168-0.034-0.423,0.329-0.612c0.283-0.146,0.389-0.06,0.532,0.06c1.744,1.454,3.327,3.222,4.703,5.253
	c2.95,4.358,4.646,9.654,4.901,15.315C296.329,435.151,288.251,448.823,271.417,455.817z"/>
<g>
</g>
<g>
</g>
<g>
</g>
<g>
</g>
<g>
</g>
<g>
</g>
<g>
</g>
<g>
</g>
<g>
</g>
<g>
</g>
<g>
</g>
<g>
</g>
<g>
</g>
<g>
</g>
<g>
</g>
</svg>
