<?xml version="1.0" encoding="iso-8859-1"?>
<!-- Generator: Adobe Illustrator 19.0.0, SVG Export Plug-In . SVG Version: 6.00 Build 0)  -->
<svg version="1.1" id="Capa_1" xmlns="http://www.w3.org/2000/svg" xmlns:xlink="http://www.w3.org/1999/xlink" x="0px" y="0px"
	 viewBox="0 0 512 512" style="enable-background:new 0 0 512 512;" xml:space="preserve">
<path style="fill:#FAF7E6;" d="M321.054,504.993c-6.638,0-12.021-5.382-12.021-12.021V231.726c0-0.041,0-0.081,0-0.122
	c-0.031-5.915-3.195-11.376-8.134-14.631l-13.305-8.77h152.103c12.992,0,23.523,10.531,23.523,23.523v261.246
	c0,6.638-5.382,12.021-12.021,12.021H321.054z"/>
<path style="fill:#E2D8A8;" d="M241.324,284.263l14.673-8.106c5.113-3.387,8.394-9.049,8.428-15.182c0-0.042,0-0.083,0-0.125
	v-27.924c0-12.823,10.168-23.615,22.666-24.059c0.286-0.01,0.575-0.015,0.862-0.015c6.578,0,12.783,2.704,17.289,7.575
	c4.113,4.448,6.23,10.387,6.23,16.445l-2.438,52.031L241.324,284.263z"/>
<path style="fill:#EAB659;" d="M321.054,504.993c-6.628,0-12.021-5.392-12.021-12.021V358.834l0.192-0.862
	c1.803-8.08,9.118-13.945,17.392-13.945c9.83,0,17.826,7.997,17.826,17.826v53.691c0,9.277,7.548,16.825,16.825,16.825
	c9.277,0,16.825-7.548,16.825-16.825v-32.448c0-9.83,7.997-17.826,17.826-17.826c9.83,0,17.826,7.997,17.826,17.826v121.895H321.054
	z"/>
<path style="fill:#E2D8A8;" d="M133.362,176.172l35.805-11.497c8.677-2.787,16.674-7.456,23.136-13.884
	c0.081-0.08,0.161-0.161,0.241-0.241c6.444-6.463,11.12-14.475,13.91-23.165l11.49-35.795v84.582H133.362z"/>
<path style="fill:#FAF7E6;" d="M240.48,284.278c-6.135,0-11.94-2.342-16.346-6.595c-4.636-4.473-7.189-10.485-7.189-16.928V91.589
	c0-28.197-14.129-54.322-37.793-69.884l-45.79-14.698h145.142c46.639,0,84.583,37.944,84.583,84.583v117.615l-76.655,0.002
	c-0.239,0.002-0.485,0.003-0.729,0.013c-11.98,0.425-21.714,10.77-21.714,23.06v27.924c0,12.823-10.168,23.615-22.666,24.06
	C241.037,284.273,240.758,284.278,240.48,284.278z"/>
<g>
	<path style="fill:#EFE8CE;" d="M439.697,208.203h-43.628c12.992,0,23.523,10.531,23.523,23.523v261.246
		c0,6.638-5.382,12.021-12.021,12.021h43.628c6.638,0,12.021-5.381,12.021-12.021V231.726
		C463.22,218.735,452.688,208.203,439.697,208.203z"/>
	<path style="fill:#EFE8CE;" d="M278.504,7.007h-43.628c46.639,0,84.583,37.944,84.583,84.583v117.615h43.628V91.589
		C363.086,44.951,325.143,7.007,278.504,7.007z"/>
</g>
<path style="fill:#F0EBD2;" d="M133.362,176.172c-46.639,0-84.583-37.944-84.583-84.583S86.723,7.007,133.362,7.007
	s84.583,37.944,84.583,84.583S180.001,176.172,133.362,176.172z"/>
<path style="fill:#DDD4AF;" d="M118.429,111.59c0-41.94,30.69-76.832,70.788-83.439c-14.912-13.144-34.462-21.144-55.856-21.144
	c-46.639,0-84.583,37.944-84.583,84.583s37.944,84.583,84.583,84.583c4.699,0,9.303-0.402,13.794-1.143
	C129.561,159.518,118.429,136.836,118.429,111.59z"/>
<path style="fill:#6D6864;" d="M133.362,135.132c-24.009,0-43.543-19.533-43.543-43.543s19.533-43.543,43.543-43.543
	s43.543,19.533,43.543,43.543S157.371,135.132,133.362,135.132z"/>
<path style="fill:#605854;" d="M133.362,48.047c-14.267,0-26.953,6.898-34.9,17.533c3.63-0.983,7.441-1.517,11.377-1.517
	c24.009,0,43.543,19.533,43.543,43.543c0,9.743-3.217,18.747-8.642,26.009c18.508-5.016,32.165-21.951,32.165-42.025
	C176.904,67.58,157.371,48.047,133.362,48.047z"/>
<path d="M133.362,41.04c-27.873,0-50.549,22.676-50.549,50.549s22.676,50.549,50.549,50.549s50.549-22.676,50.549-50.549
	S161.235,41.04,133.362,41.04z M133.362,127.124c-19.594,0-35.535-15.941-35.535-35.535s15.941-35.535,35.535-35.535
	s35.535,15.941,35.535,35.535S152.956,127.124,133.362,127.124z"/>
<path d="M439.697,201.196h-69.603v-33.095c0-4.146-3.361-7.507-7.507-7.507l0,0c-4.146,0-7.507,3.361-7.507,7.507v33.095h-68.458
	c-0.394,0.004-0.809,0.005-1.215,0.02c-16.224,0.577-29.424,14.511-29.424,31.061v27.924c0,8.561-6.703,15.764-14.943,16.057
	c-4.554,0.158-8.847-1.611-11.966-4.973c-2.73-2.942-4.122-6.883-4.122-10.896V91.589c0-31.985-16.485-60.189-41.401-76.575h94.954
	c42.291,0,76.575,34.283,76.575,76.575v27.662c0,4.146,3.361,7.507,7.507,7.507l0,0c4.146,0,7.507-3.361,7.507-7.507V91.589
	C370.094,41.006,329.088,0,278.505,0H134.53C84.106,0,42.266,40.263,41.777,90.686c-0.494,50.915,40.782,92.493,91.584,92.493
	h76.575v76.889c0,8.506,3.239,16.797,9.37,22.694c5.718,5.499,13.165,8.502,21.052,8.517c0.036,0,0.071,0.005,0.108,0.005h61.56
	v201.688c0,10.508,8.519,19.028,19.028,19.028h130.145c10.508,0,19.028-8.519,19.028-19.028V231.726
	C470.227,214.865,456.558,201.196,439.697,201.196z M209.937,168.164h-26.401c10.494-6.902,19.499-15.892,26.401-26.387V168.164z
	 M133.362,168.164c-42.223,0-76.575-34.352-76.575-76.575s34.352-76.575,76.575-76.575s76.575,34.352,76.575,76.575
	S175.586,168.164,133.362,168.164z M302.027,276.27h-35.52c2.84-4.717,4.489-10.227,4.489-16.067v-27.924
	c0-8.56,6.703-15.764,14.943-16.057c4.262-0.153,8.289,1.39,11.345,4.339c3.059,2.952,4.743,6.917,4.743,11.166L302.027,276.27
	L302.027,276.27z M405.741,496.985h-84.687c-2.212,0-4.013-1.8-4.013-4.013V359.717c0.979-4.388,4.898-7.681,9.577-7.681
	c5.414,0,9.819,4.404,9.819,9.819v53.691c0,13.693,11.14,24.833,24.833,24.833c13.693,0,24.833-11.14,24.833-24.833v-32.448
	c0-5.414,4.404-9.819,9.819-9.819c5.414,0,9.819,4.404,9.819,9.819L405.741,496.985L405.741,496.985z M455.212,492.972
	c0,2.212-1.8,4.013-4.013,4.013h-30.444V383.099c0-13.693-11.14-24.833-24.833-24.833c-13.693,0-24.833,11.14-24.833,24.833v32.448
	c0,5.414-4.404,9.819-9.819,9.819c-5.414,0-9.819-4.404-9.819-9.819v-53.691c0-13.693-11.14-24.833-24.833-24.833
	c-3.393,0-6.628,0.687-9.577,1.925V231.726c0-5.559-1.465-10.872-4.216-15.515h126.871c8.555,0,15.515,6.96,15.515,15.515
	L455.212,492.972L455.212,492.972z"/>
<g>
</g>
<g>
</g>
<g>
</g>
<g>
</g>
<g>
</g>
<g>
</g>
<g>
</g>
<g>
</g>
<g>
</g>
<g>
</g>
<g>
</g>
<g>
</g>
<g>
</g>
<g>
</g>
<g>
</g>
</svg>
