<?xml version="1.0" encoding="iso-8859-1"?>
<!-- Generator: Adobe Illustrator 19.0.0, SVG Export Plug-In . SVG Version: 6.00 Build 0)  -->
<svg version="1.1" id="Capa_1" xmlns="http://www.w3.org/2000/svg" xmlns:xlink="http://www.w3.org/1999/xlink" x="0px" y="0px"
	 viewBox="0 0 511.997 511.997" style="enable-background:new 0 0 511.997 511.997;" xml:space="preserve">
<path style="fill:#C15C10;" d="M309.015,6.025l-32.959,16.714c-1.695,0.86-2.764,2.599-2.764,4.5v38.226v118.978v172.47
	c0,1.867-0.561,3.691-1.61,5.235l-11.261,16.574c-0.737,1.085-1.237,2.314-1.467,3.605l-18.306,102.999
	c-1.01,5.687,0.956,11.507,5.362,15.443c3.152,2.816,7.324,4.219,11.552,4.219h42.047c9.243,0,16.735-7.493,16.735-16.735V175.429
	V65.466V10.525C316.343,6.762,312.372,4.323,309.015,6.025z"/>
<path style="fill:#93430C;" d="M282.671,406.047c0.229-1.292,0.73-2.52,1.467-3.605l11.261-16.574
	c1.049-1.544,1.61-3.368,1.61-5.235v-172.47V89.183V50.958c0-1.901,1.068-3.64,2.764-4.5l16.57-8.403V10.525
	c0-3.763-3.972-6.203-7.329-4.5l-32.959,16.714c-1.695,0.86-2.764,2.599-2.764,4.5v38.226v118.978v172.47
	c0,1.867-0.561,3.691-1.61,5.235l-11.261,16.574c-0.737,1.085-1.237,2.314-1.467,3.605l-18.306,102.999
	c-1.01,5.687,0.956,11.507,5.362,15.443c3.152,2.816,7.324,4.219,11.552,4.219h7.525L282.671,406.047z"/>
<path style="fill:#9D0707;" d="M147.556,205.623c-26.219-53.677-26.322-105.859-0.313-159.525l0.322-0.665
	c1.565-3.229,5.276-4.803,8.684-3.682l67.548,22.2c0.711,0.233,1.454,0.354,2.202,0.358l82.068,0.404h68.22
	c6.466,0,9.623,7.888,4.944,12.351l-27.887,26.589c-2.517,2.4-3.962,5.773-3.962,9.251v50.811c0,3.391-2.377,6.318-5.697,7.012
	L155.75,210.081c-3.21,0.672-6.467-0.921-7.906-3.868L147.556,205.623z"/>
<path style="fill:#7F0505;" d="M217.098,158.798c-3.588,0.752-7.23-1.029-8.839-4.324l0,0
	c-16.72-34.23-22.801-67.852-18.281-101.638L156.249,41.75c-3.408-1.12-7.119,0.454-8.684,3.682l-0.322,0.665
	c-26.009,53.667-25.906,105.848,0.313,159.525l0.288,0.591c1.44,2.947,4.697,4.54,7.906,3.868l187.936-39.355
	c3.319-0.695,5.697-3.621,5.697-7.012v-32.616L217.098,158.798z"/>
<path style="fill:#B6C9D8;" d="M176.721,205.623c-25.898-53.018-26.297-104.579-1.24-157.551l-19.232-6.321
	c-3.408-1.12-7.121,0.454-8.684,3.682l-0.322,0.665c-26.009,53.667-25.906,105.848,0.313,159.525l0.288,0.591
	c1.44,2.947,4.697,4.54,7.906,3.868l21.001-4.398L176.721,205.623z"/>
<path d="M389.912,66.423c-2.121-5.296-7.177-8.718-12.882-8.718h-53.678V15.041c0-5.351-2.661-10.181-7.118-12.919
	c-4.252-2.61-9.443-2.824-13.889-0.572l0,0l-31.948,16.201c-2.523,1.28-4.113,3.868-4.113,6.697v33.05l-40.275-0.198L152.99,33.302
	c-3.498-1.15-7.311,0.405-9.008,3.671c-30.536,58.766-30.536,118.361,0,177.128c1.311,2.522,3.903,4.047,6.661,4.047
	c0.511,0,1.026-0.052,1.541-0.16l114.099-23.894v163.527l-12.719,18.719c-0.594,0.875-0.997,1.864-1.182,2.905l-18.636,104.852
	c-1.232,6.934,0.655,14.007,5.178,19.404c4.523,5.398,11.156,8.494,18.199,8.494h42.484c13.093,0,23.743-10.652,23.743-23.743
	V182.145l21.326-4.465c0.047-0.01,0.095-0.021,0.142-0.031c6.813-1.565,11.572-7.54,11.572-14.53v-50.215
	c0-1.572,0.653-3.096,1.79-4.18l28.424-27.1C390.734,77.686,392.033,71.719,389.912,66.423z M281.301,29.059l27.032-13.708v42.105
	h-27.032V29.059z M308.334,488.255c0,4.812-3.915,8.725-8.725,8.725h-9.568v-69.763c0-0.772,0.313-1.528,0.86-2.074l6.088-6.089
	c1.408-1.409,2.199-3.318,2.199-5.309V385.24c0-0.493,0.4-0.893,0.893-0.893h8.254V488.255z M308.334,369.329h-8.254
	c-8.773,0-15.911,7.138-15.911,15.911v25.395l-3.889,3.889c-3.391,3.391-5.258,7.898-5.258,12.694v69.763h-17.897
	c-2.588,0-5.026-1.137-6.688-3.122c-1.662-1.984-2.356-4.583-1.903-7.132l18.355-103.273l13.116-19.302
	c0.846-1.244,1.298-2.714,1.298-4.22v-23.644h4.378c9.732,0,17.648-7.917,17.648-17.648v-47.384c0-9.732-7.917-17.648-17.648-17.648
	h-4.378v-62.658l27.032-5.661V369.329z M281.301,321.272v-52.645h4.378c1.451,0,2.63,1.179,2.63,2.63v47.384
	c0,1.451-1.18,2.63-2.63,2.63L281.301,321.272L281.301,321.272z M347.817,97.855c-4.095,3.906-6.444,9.39-6.444,15.048v50.125
	l-159.359,33.371c-3.017-6.71-5.598-13.434-7.749-20.166c-1.063-3.327-4.271-5.45-7.749-5.131c-0.064,0.006-0.128,0.012-0.192,0.017
	c-4.704,0.409-7.873,5.031-6.438,9.528c2.014,6.309,4.376,12.609,7.093,18.9l-12.227,2.56
	c-25.04-51.262-25.141-101.265-0.302-152.516l11.91,3.915c-11.156,26.367-16.176,52.902-15.078,79.423
	c0.193,4.659,4.594,8.003,9.116,6.862c0.127-0.032,0.253-0.063,0.379-0.094c3.415-0.834,5.714-3.985,5.571-7.498
	c-1.004-24.708,3.762-49.431,14.323-73.989l41.773,13.728c0.745,0.244,1.523,0.371,2.307,0.375l149.427,0.41l0,0L347.817,97.855z"/>
<g>
</g>
<g>
</g>
<g>
</g>
<g>
</g>
<g>
</g>
<g>
</g>
<g>
</g>
<g>
</g>
<g>
</g>
<g>
</g>
<g>
</g>
<g>
</g>
<g>
</g>
<g>
</g>
<g>
</g>
</svg>
