<?xml version="1.0" encoding="iso-8859-1"?>
<!-- Generator: Adobe Illustrator 19.0.0, SVG Export Plug-In . SVG Version: 6.00 Build 0)  -->
<svg version="1.1" id="Capa_1" xmlns="http://www.w3.org/2000/svg" xmlns:xlink="http://www.w3.org/1999/xlink" x="0px" y="0px"
	 viewBox="0 0 511.999 511.999" style="enable-background:new 0 0 511.999 511.999;" xml:space="preserve">
<path style="fill:#AACED1;" d="M306.636,253.883l4.562-26.227l7.714,2.97c0.882,0.166,1.7,0.246,2.499,0.246
	c0.799,0,1.617-0.081,2.499-0.246l7.578-3.756l5.25,30.186L306.636,253.883z"/>
<path style="fill:#80BAB7;" d="M320.866,253.883l4.14-23.799l-1.094,0.542c-0.882,0.166-1.7,0.246-2.499,0.246
	c-0.799,0-1.617-0.081-2.499-0.246l-7.714-2.97l-4.562,26.227l30.105,3.173l-0.266-1.528L320.866,253.883z"/>
<path style="fill:#6D6864;" d="M321.411,231.873c-7.999,0-14.507-6.508-14.507-14.507c0-7.999,6.508-14.507,14.507-14.507
	c7.999,0,14.507,6.508,14.507,14.507C335.918,225.365,329.41,231.873,321.411,231.873z"/>
<path style="fill:#605853;" d="M321.411,217.366c0-5.355,2.924-10.031,7.253-12.544c-2.137-1.241-4.61-1.963-7.253-1.963
	c-7.999,0-14.507,6.508-14.507,14.507c0,7.999,6.508,14.507,14.507,14.507c2.643,0,5.116-0.722,7.253-1.963
	C324.336,227.398,321.411,222.722,321.411,217.366z"/>
<path style="fill:#6D6864;" d="M240.875,212.864v-22.788c0-2.333,1.891-4.224,4.224-4.224h15.563c2.333,0,4.224,1.891,4.224,4.224
	v22.788H240.875z"/>
<path style="fill:#605853;" d="M258.882,185.852H245.1c-2.333,0-4.224,1.891-4.224,4.224v22.788h13.783v-22.788
	C254.658,187.744,256.549,185.852,258.882,185.852z"/>
<path style="fill:#2FE0A0;" d="M147.096,287.898c-10.643,0-19.272-8.628-19.272-19.272V156.102c0-10.643,8.628-19.271,19.271-19.271
	h41.684c4.46,0,8.077,3.616,8.077,8.077v142.99H147.096z"/>
<path style="fill:#15CE64;" d="M188.78,136.83h-25.647c4.46,0,8.077,3.616,8.077,8.077v142.991h25.647V144.907
	C196.855,140.447,193.24,136.83,188.78,136.83z"/>
<path style="fill:#AACED1;" d="M227.869,266.889v-45.856c0-5.056,4.113-9.169,9.169-9.169h40.688c5.056,0,9.169,4.113,9.169,9.169
	v45.856H227.869z"/>
<path style="fill:#80BAB7;" d="M259.868,211.864h-22.829c-5.056,0-9.169,4.113-9.169,9.169v45.856h22.829v-45.856
	C250.699,215.978,254.812,211.864,259.868,211.864z"/>
<path style="fill:#6D6864;" d="M195.855,301.904v-40.378c0-4.766,3.878-8.644,8.644-8.644h126.778c4.766,0,8.644,3.878,8.644,8.644
	v40.378L195.855,301.904L195.855,301.904z"/>
<path style="fill:#605853;" d="M251.154,266.106v-13.224h-46.655c-4.774,0-8.644,3.87-8.644,8.644v40.378H339.92v-28.013h-80.98
	C254.639,273.892,251.154,270.406,251.154,266.106z"/>
<path style="fill:#2FE0A0;" d="M210.369,504.996c-8.569,0-15.515-6.946-15.515-15.515V285.897H341.9
	c2.222,0,4.023,1.801,4.023,4.023v199.562c0,8.568-6.946,15.514-15.514,15.514H210.369z"/>
<path style="fill:#15CE64;" d="M325.149,486.487c-33.558,0-60.763-27.204-60.763-60.763V285.897h-69.531v203.583
	c0,8.569,6.946,15.515,15.515,15.515h120.039c8.568,0,15.514-6.946,15.514-15.514v-2.994H325.149z"/>
<path style="fill:#1ABA9B;" d="M228.631,478.984c-4.833,0-8.765-3.932-8.765-8.765V315.673c0-4.833,3.932-8.765,8.765-8.765h82.516
	c4.833,0,8.765,3.932,8.765,8.765V470.22c0,4.833-3.932,8.765-8.765,8.765h-82.516V478.984z"/>
<path style="fill:#F24400;" d="M68.394,232.42c-1.256-1.504-2.643-2.891-4.147-4.147l-3.296-2.751c-1.967-1.642-1.967-4.665,0-6.307
	l3.296-2.751c1.504-1.256,2.891-2.643,4.147-4.147l2.753-3.297c1.642-1.967,4.664-1.967,6.306,0l2.753,3.297
	c1.256,1.504,2.643,2.891,4.147,4.147l3.296,2.751c1.967,1.642,1.967,4.665,0,6.307l-3.296,2.751
	c-1.504,1.256-2.891,2.643-4.147,4.147l-2.753,3.297c-1.642,1.967-4.664,1.967-6.306,0L68.394,232.42z"/>
<g>
	<path style="fill:#FFBC00;" d="M133.434,68.359c-1.263-1.512-2.658-2.907-4.17-4.17l-3.117-2.601c-2.054-1.715-2.054-4.87,0-6.585
		l3.117-2.601c1.512-1.263,2.907-2.657,4.17-4.17l2.604-3.118c1.715-2.054,4.87-2.054,6.584,0l2.604,3.118
		c1.263,1.512,2.658,2.907,4.17,4.17l3.117,2.601c2.054,1.715,2.054,4.87,0,6.585l-3.12,2.604c-1.51,1.261-2.903,2.653-4.164,4.164
		l-2.606,3.121c-1.715,2.054-4.87,2.054-6.584,0L133.434,68.359z"/>
	<path style="fill:#FFBC00;" d="M378.468,165.312c-1.212-1.452-2.551-2.791-4.003-4.003l-4.375-3.652
		c-1.447-1.208-1.447-3.43,0-4.637l4.372-3.649c1.454-1.214,2.795-2.555,4.009-4.009l3.651-4.373c1.208-1.446,3.43-1.446,4.636,0
		l3.651,4.373c1.214,1.454,2.555,2.795,4.009,4.009l4.372,3.649c1.447,1.208,1.447,3.43,0,4.637l-4.375,3.652
		c-1.452,1.212-2.791,2.551-4.003,4.003l-3.654,4.376c-1.208,1.446-3.43,1.446-4.636,0L378.468,165.312z"/>
</g>
<path style="fill:#F24400;" d="M271.057,150.322c-6.399,0-12.632-1.285-18.527-3.819c-3.652-1.571-7.124-3.235-10.319-4.949
	c-16.369-8.776-26.444-25.64-26.291-44.01c0.058-6.907,1.159-13.216,3.272-18.751c2.749-7.205,8.119-13.112,15.118-16.632
	c16.683-8.39,26.523-19.703,29.243-33.625l1.887-9.651c0.904-4.627,7.211-5.371,9.168-1.082l4.082,8.947
	c2.22,4.865,3.72,9.842,4.458,14.793c1.23,8.231,0.87,20.137-7.813,30.12c-5.281,6.071-10.622,14.828-6.076,22.074
	c2.063,3.285,5.845,5.327,9.869,5.327c1.579,0,3.107-0.311,4.545-0.925c6.964-2.975,7.767-11.791,7.214-18.662
	c-0.286-3.53,1.487-6.736,4.629-8.362c1.256-0.647,2.575-0.972,3.934-0.972c1.383,0,3.446,0.349,5.426,2.013
	c2.297,1.915,4.385,4.241,6.183,6.894c3.782,5.586,5.95,12.311,6.274,19.45c1.053,23.36-8.957,40.098-28.948,48.405
	C282.925,149.172,277.094,150.322,271.057,150.322z"/>
<path style="fill:#ED1100;" d="M292.501,136.877c-3.652-1.571-7.124-3.235-10.319-4.949c-16.369-8.776-26.444-25.64-26.291-44.01
	c0.058-6.907,1.159-13.216,3.272-18.751c2.749-7.205,8.119-13.112,15.118-16.632c3.412-1.716,6.52-3.56,9.357-5.516
	c-0.061-1.946-0.239-3.791-0.49-5.476c-0.738-4.95-2.238-9.927-4.458-14.793l-4.082-8.947c-1.957-4.289-8.264-3.545-9.168,1.082
	l-1.886,9.651c-2.721,13.923-12.561,25.236-29.243,33.625c-6.999,3.521-12.369,9.427-15.118,16.632
	c-2.113,5.535-3.214,11.844-3.272,18.751c-0.152,18.37,9.921,35.234,26.291,44.01c3.194,1.714,6.667,3.379,10.319,4.949
	c5.896,2.534,12.128,3.819,18.527,3.819c6.038,0,11.868-1.151,17.329-3.42c4.744-1.972,8.919-4.424,12.525-7.32
	C298.047,138.948,295.237,138.054,292.501,136.877z"/>
<path d="M311.907,383.509v86.711c0,0.42-0.341,0.761-0.761,0.761h-82.515c-0.42,0-0.761-0.341-0.761-0.761V315.673
	c0-0.42,0.341-0.761,0.761-0.761h82.515c0.42,0,0.761,0.341,0.761,0.761v19.014c0,4.144,3.359,7.503,7.503,7.503l0,0
	c4.144,0,7.503-3.36,7.503-7.503v-19.013c0-8.709-7.06-15.768-15.768-15.768h-82.515c-8.708,0-15.768,7.059-15.768,15.768v154.547
	c0,8.709,7.06,15.768,15.768,15.768h82.515c8.708,0,15.768-7.059,15.768-15.768V383.51c0-4.144-3.36-7.503-7.503-7.503l0,0
	C315.267,376.006,311.907,379.364,311.907,383.509z"/>
<path d="M346.923,279.045v-17.519c0-4.073-1.577-7.774-4.136-10.562l-3.714-21.354c2.419-3.479,3.848-7.695,3.848-12.245
	c0-11.86-9.649-21.51-21.51-21.51c-11.86,0-21.51,9.649-21.51,21.51c0,4.549,1.429,8.766,3.848,12.245l-2.829,16.268h-7.021v-24.846
	c0-8.918-7.255-16.172-16.172-16.172h-5.838v-13.415c0-6.945-5.651-12.597-12.597-12.597h-12.824
	c-6.945,0-12.597,5.651-12.597,12.597v13.731c-7.405,1.477-13.006,8.023-13.006,15.857v24.846h-16.367
	c-0.216,0-0.426,0.024-0.64,0.032V137.331c0-4.144-3.358-7.503-7.503-7.503h-49.259c-14.488,0-26.275,11.786-26.275,26.274v112.527
	c0,14.487,11.786,26.274,26.275,26.274h40.755v194.58c0,12.417,10.102,22.517,22.518,22.517h120.038
	c12.417,0,22.518-10.102,22.518-22.517V286.397C352.925,282.768,350.348,279.74,346.923,279.045z M188.852,261.526v18.368h-7.003
	v-23.511c0-4.144-3.358-7.503-7.503-7.503c-4.145,0-7.503,3.36-7.503,7.503v23.511h-19.746c-6.213,0-11.268-5.054-11.268-11.267
	V156.102c0-6.213,5.055-11.267,11.268-11.267h19.589v89.54c0,4.144,3.359,7.503,7.503,7.503s7.503-3.36,7.503-7.503v-89.54h7.16
	V261.526z M321.411,210.864c3.586,0,6.503,2.917,6.503,6.503c0,3.586-2.917,6.503-6.503,6.503c-3.586,0-6.503-2.917-6.503-6.503
	C314.908,213.781,317.826,210.864,321.411,210.864z M326.671,245.879h-10.52l1.285-7.386c1.291,0.242,2.616,0.383,3.975,0.383
	s2.685-0.141,3.975-0.383L326.671,245.879z M248.879,193.856h8.004v11.005h-8.004L248.879,193.856L248.879,193.856z
	 M235.873,221.033c0-0.643,0.522-1.166,1.166-1.166l0,0h40.688l0,0c0.643,0,1.166,0.522,1.166,1.166v24.846h-43.019L235.873,221.033
	L235.873,221.033z M203.858,261.526c0-0.353,0.287-0.64,0.64-0.64l0,0h126.778l0,0c0.353,0,0.64,0.287,0.64,0.64v17.368H203.859
	v-17.368H203.858z M337.919,489.482c0,4.142-3.37,7.51-7.511,7.51H210.369c-4.142,0-7.511-3.37-7.511-7.51V293.901h135.061V489.482z
	"/>
<path d="M238.901,147.727c3.374,1.809,7.028,3.563,10.862,5.21c6.79,2.919,14.061,4.382,21.293,4.382
	c6.857,0,13.677-1.315,20.016-3.949c22.627-9.402,34.438-29.002,33.256-55.187c-0.381-8.432-2.963-16.405-7.47-23.061
	c-2.166-3.197-4.696-6.013-7.522-8.368c-4.805-4.004-11.494-4.732-17.046-1.855c-5.598,2.9-8.888,8.843-8.382,15.138
	c0.242,3.019,0.438,10.199-2.986,11.662c-2.067,0.882-4.582,0.143-5.731-1.686c-2.473-3.942,2.971-10.933,5.426-13.755
	c8.26-9.494,11.529-21.857,9.456-35.749c-2.401-16.095-11.995-32.285-23.331-39.369c-2.757-1.725-6.312-1.476-8.803,0.618
	c-2.49,2.092-3.35,5.55-2.127,8.565c0.026,0.065,2.615,6.794,1.186,15.609c-1.99,12.27-10.683,22.353-25.834,29.972
	c-8.567,4.308-15.143,11.55-18.516,20.392c-2.411,6.317-3.667,13.446-3.732,21.19C208.743,118.466,220.232,137.717,238.901,147.727z
	 M226.669,81.648c2.036-5.335,6.027-9.715,11.237-12.337c22.679-11.404,31.013-26.504,33.502-39.241
	c1.789,3.921,3.164,8.233,3.824,12.652c0.979,6.566,0.745,16.005-5.936,23.686c-13.461,15.473-10.05,26.427-6.816,31.58
	c5.053,8.051,15.515,11.28,24.339,7.508c5.124-2.189,13.503-8.566,12.047-26.664c-0.014-0.168-0.034-0.423,0.329-0.611
	c0.283-0.146,0.389-0.061,0.532,0.06c1.745,1.455,3.328,3.223,4.705,5.255c2.951,4.36,4.648,9.658,4.903,15.322
	c0.9,19.976-7.181,33.654-24.024,40.652c-9.301,3.866-20.099,3.733-29.622-0.361c-3.44-1.48-6.703-3.043-9.698-4.649
	c-13.741-7.367-22.198-21.503-22.07-36.891C223.974,91.661,224.896,86.291,226.669,81.648z"/>
<path d="M415.714,155.339c0-4.144-3.359-7.503-7.503-7.503c-7.449,0-16.267-8.817-16.267-16.267c0-4.144-3.359-7.503-7.503-7.503
	s-7.503,3.36-7.503,7.503c0,7.449-8.817,16.267-16.267,16.267c-4.145,0-7.503,3.36-7.503,7.503s3.358,7.503,7.503,7.503
	c7.449,0,16.267,8.817,16.267,16.267c0,4.144,3.358,7.503,7.503,7.503s7.503-3.36,7.503-7.503c0-7.449,8.817-16.267,16.267-16.267
	C412.354,162.842,415.714,159.483,415.714,155.339z M384.44,159.977c-1.401-1.678-2.959-3.236-4.638-4.637
	c1.679-1.401,3.236-2.959,4.638-4.637c1.401,1.678,2.959,3.236,4.638,4.637C387.399,156.74,385.84,158.298,384.44,159.977z"/>
<path d="M98.071,214.865c-7.449,0-16.267-8.817-16.267-16.267c0-4.144-3.359-7.503-7.503-7.503s-7.503,3.36-7.503,7.503
	c0,7.449-8.817,16.267-16.267,16.267c-4.145,0-7.503,3.36-7.503,7.503s3.359,7.503,7.503,7.503c7.449,0,16.267,8.817,16.267,16.267
	c0,4.144,3.359,7.503,7.503,7.503s7.503-3.36,7.503-7.503c0-7.449,8.817-16.267,16.267-16.267c4.145,0,7.503-3.36,7.503-7.503
	S102.215,214.865,98.071,214.865z M74.3,227.007c-1.401-1.678-2.959-3.236-4.638-4.637c1.679-1.401,3.236-2.959,4.638-4.637
	c1.401,1.678,2.959,3.236,4.638,4.637C77.26,223.77,75.701,225.328,74.3,227.007z"/>
<path d="M131.826,82.066c0,4.144,3.359,7.503,7.503,7.503s7.503-3.36,7.503-7.503c0-7.449,8.817-16.267,16.267-16.267
	c4.145,0,7.503-3.36,7.503-7.503s-3.359-7.503-7.503-7.503c-7.449,0-16.267-8.817-16.267-16.267c0-4.144-3.359-7.503-7.503-7.503
	s-7.503,3.36-7.503,7.503c0,7.449-8.817,16.267-16.267,16.267c-4.145,0-7.503,3.36-7.503,7.503s3.359,7.503,7.503,7.503
	C123.009,65.798,131.826,74.616,131.826,82.066z M139.329,53.658c1.401,1.678,2.959,3.236,4.638,4.637
	c-1.679,1.401-3.236,2.959-4.638,4.637c-1.401-1.678-2.959-3.236-4.638-4.637C136.37,56.894,137.929,55.336,139.329,53.658z"/>
<circle cx="380.433" cy="53.293" r="10.505"/>
<circle cx="458.468" cy="142.333" r="10.505"/>
<circle cx="174.34" cy="99.313" r="7.503"/>
<circle cx="408.445" cy="234.374" r="7.503"/>
<circle cx="69.303" cy="119.322" r="12.506"/>
<g>
</g>
<g>
</g>
<g>
</g>
<g>
</g>
<g>
</g>
<g>
</g>
<g>
</g>
<g>
</g>
<g>
</g>
<g>
</g>
<g>
</g>
<g>
</g>
<g>
</g>
<g>
</g>
<g>
</g>
</svg>
