<?xml version="1.0" encoding="UTF-8" standalone="no"?>
<!-- Generator: Adobe Illustrator 19.0.0, SVG Export Plug-In . SVG Version: 6.00 Build 0)  -->

<svg
   xmlns:dc="http://purl.org/dc/elements/1.1/"
   xmlns:cc="http://creativecommons.org/ns#"
   xmlns:rdf="http://www.w3.org/1999/02/22-rdf-syntax-ns#"
   xmlns:svg="http://www.w3.org/2000/svg"
   xmlns="http://www.w3.org/2000/svg"
   xmlns:sodipodi="http://sodipodi.sourceforge.net/DTD/sodipodi-0.dtd"
   xmlns:inkscape="http://www.inkscape.org/namespaces/inkscape"
   version="1.1"
   id="Capa_1"
   x="0px"
   y="0px"
   viewBox="0 0 1024 1024"
   xml:space="preserve"
   sodipodi:docname="042-gps.svg"
   width="1024"
   height="1024"
   inkscape:version="0.92.2 5c3e80d, 2017-08-06"><metadata
     id="metadata374"><rdf:RDF><cc:Work
         rdf:about=""><dc:format>image/svg+xml</dc:format><dc:type
           rdf:resource="http://purl.org/dc/dcmitype/StillImage" /><dc:title></dc:title></cc:Work></rdf:RDF></metadata><defs
     id="defs372" /><sodipodi:namedview
     pagecolor="#ffffff"
     bordercolor="#666666"
     borderopacity="1"
     objecttolerance="10"
     gridtolerance="10"
     guidetolerance="10"
     inkscape:pageopacity="0"
     inkscape:pageshadow="2"
     inkscape:window-width="1440"
     inkscape:window-height="855"
     id="namedview370"
     showgrid="false"
     inkscape:zoom="0.61523438"
     inkscape:cx="452.3514"
     inkscape:cy="477.04047"
     inkscape:window-x="0"
     inkscape:window-y="206"
     inkscape:window-maximized="1"
     inkscape:current-layer="layer1" /><path
     style="fill:#aa9572;stroke-width:1.93649161"
     d="M 788.82688,199 H 45.125005 V 825 H 798.34626 C 816.21313,825 830.75,809.494 830.75,790.434 V 761 325 243.72 C 830.75,219.062 811.94374,199 788.82688,199 Z"
     id="path291"
     inkscape:connector-curvature="0" /><g
     id="g297"
     transform="matrix(1.875,0,0,2,32,0)"><path
       style="fill:#9e835a"
       d="m 426,395.217 v -14.717 -218 -16 h -29.85 c -34.821,0 -63.15,28.329 -63.15,63.15 v 161.116 c 0,14.19 11.544,25.734 25.734,25.734 h 67.201 c 0.031,-0.425 0.065,-0.85 0.065,-1.283 z"
       id="path293"
       inkscape:connector-curvature="0" /><path
       style="fill:#9e835a"
       d="m 170.49,99.5 v 0 H 7 v 313 h 401.718 c 9.545,0 17.282,-7.738 17.282,-17.282 V 380.5 338 H 408.99 C 277.27,338 170.49,231.22 170.49,99.5 Z"
       id="path295"
       inkscape:connector-curvature="0" /></g><rect
     id="SVGCleanerId_0"
     x="45.125008"
     y="269"
     style="fill:#e2d3b7;stroke-width:1.93649161"
     width="720"
     height="486" /><g
     id="g301"
     transform="matrix(1.875,0,0,2,32,0)"><rect
       id="SVGCleanerId_0_1_"
       x="7"
       y="134.5"
       style="fill:#e2d3b7"
       width="384"
       height="243" /></g><path
     style="fill:#d1b68b;stroke-width:1.93649161"
     d="M 765.125,293.456 C 704.33937,298.72 656.375,353.13 656.375,419.3 v 322.232 c 0,4.66 0.59437,9.172 1.6875,13.468 H 765.125 Z"
     id="path303"
     inkscape:connector-curvature="0" /><path
     style="fill:#9bb8bc;stroke-width:1.93649161"
     d="M 704.62626,763 C 693.52813,763 684.5,753.37 684.5,741.532 V 419.3 c 0,-53.1 40.50187,-96.3 90.28124,-96.3 h 113.81063 c 49.78128,0 90.28128,43.2 90.28128,96.3 v 322.232 c 0,11.836 -9.02813,21.468 -20.1263,21.468 z"
     id="path305"
     inkscape:connector-curvature="0" /><path
     style="fill:#aad3d6;stroke-width:1.93649161"
     d="M 722,723 V 419.3 c 0,-31.044 23.6775,-56.3 52.78124,-56.3 h 113.81063 c 29.10375,0 52.78128,25.256 52.78128,56.3 V 723 Z"
     id="path307"
     inkscape:connector-curvature="0" /><path
     style="fill:#cc2929;stroke-width:1.93649161"
     d="M 831.6875,697 C 776.375,697 731.375,649 731.375,590 c 0,-59 45,-107 100.3125,-107 C 887,483 932,531 932,590 c 0,59 -45,107 -100.3125,107 z"
     id="path309"
     inkscape:connector-curvature="0" /><path
     style="fill:#dd3a3a;stroke-width:1.93649161"
     d="m 831.6875,668.796 c -40.7325,0 -73.87125,-35.348 -73.87125,-78.796 0,-43.448 33.13875,-78.796 73.87125,-78.796 40.7325,0 73.87122,35.348 73.87122,78.796 0,43.448 -33.13872,78.796 -73.87122,78.796 z"
     id="path311"
     inkscape:connector-curvature="0" /><path
     style="fill:#1aba9b;stroke-width:1.93649161"
     d="M 541.0625,441 C 516.76625,441 497,419.916 497,394 c 0,-25.916 19.76625,-47 44.0625,-47 24.29626,0 44.0625,21.084 44.0625,47 0,25.916 -19.76624,47 -44.0625,47 z"
     id="path313"
     inkscape:connector-curvature="0" /><path
     style="fill:#ff9100;stroke-width:1.93649161"
     d="m 402.3125,613 c -24.29625,0 -44.0625,-21.084 -44.0625,-47 0,-25.916 19.76625,-47 44.0625,-47 24.29625,0 44.0625,21.084 44.0625,47 0,25.916 -19.76625,47 -44.0625,47 z"
     id="path315"
     inkscape:connector-curvature="0" /><path
     style="fill:#f75b4f;stroke-width:1.93649161"
     d="m 231.6875,447 c -24.29626,0 -44.0625,-21.084 -44.0625,-47 0,-25.916 19.76624,-47 44.0625,-47 24.29624,0 44.0625,21.084 44.0625,47 0,25.916 -19.76626,47 -44.0625,47 z"
     id="path317"
     inkscape:connector-curvature="0" /><path
     style="fill:#05997d;stroke-width:1.93649161"
     d="m 548.47063,384 c 0,-12.446 4.5675,-23.768 11.99624,-32.184 C 554.6075,348.738 548.02437,347 541.0625,347 516.76626,347 497,368.084 497,394 c 0,25.916 19.76626,47 44.0625,47 12.62813,0 24.02626,-5.706 32.06626,-14.816 C 558.5375,418.516 548.47063,402.492 548.47063,384 Z"
     id="path319"
     inkscape:connector-curvature="0" /><path
     style="fill:#e58005;stroke-width:1.93649161"
     d="m 409.72063,556 c 0,-12.446 4.5675,-23.768 11.99625,-32.184 C 415.8575,520.738 409.27437,519 402.3125,519 c -24.29625,0 -44.0625,21.084 -44.0625,47 0,25.916 19.76625,47 44.0625,47 12.62813,0 24.02624,-5.706 32.06625,-14.816 C 419.7875,590.516 409.72063,574.492 409.72063,556 Z"
     id="path321"
     inkscape:connector-curvature="0" /><path
     style="fill:#ea3f28;stroke-width:1.93649161"
     d="m 239.09563,390 c 0,-12.446 4.5675,-23.768 11.99624,-32.184 C 245.2325,354.738 238.64937,353 231.6875,353 c -24.29626,0 -44.0625,21.084 -44.0625,47 0,25.916 19.76624,47 44.0625,47 12.62813,0 24.02624,-5.706 32.06624,-14.816 C 249.1625,424.516 239.09563,408.492 239.09563,390 Z"
     id="path323"
     inkscape:connector-curvature="0" /><path
     d="M 888.5937,309 H 843.875 V 243.72 C 843.875,211.342 819.17937,185 788.82688,185 H 46.062502 C 38.294374,185 32,191.716 32,200 v 624 c 0,8.284 6.294374,15 14.062502,15 H 798.34626 C 823.4525,839 843.875,817.214 843.875,790.434 V 777 H 958.74877 C 977.08246,777 992,761.088 992,741.532 V 419.3 C 992,358.48 945.61251,309 888.5937,309 Z M 60.124995,535.67 c 25.985635,2.308 83.122505,12.436 121.927505,56.588 58.965,67.088 166.86563,83.912 171.43125,84.596 0.66375,0.1 1.32,0.148 1.97062,0.148 6.89626,0 12.915,-5.416 13.90313,-12.908 1.08374,-8.2 -4.26937,-15.786 -11.95687,-16.948 -1.02,-0.154 -102.71438,-16.112 -154.82813,-75.406 -15.47625,-17.608 -33.17063,-30.568 -50.96813,-40.12 15.39563,-5.404 32.79188,-10.918 44.22188,-12.716 7.27312,-1.146 12.84188,-7.932 12.40499,-15.762 -0.49687,-8.872 -7.9725,-15.226 -16.02937,-13.992 -24.53813,3.74 -70.08937,21.444 -81.18562,25.85 -20.64562,-6.166 -38.941876,-8.554 -50.887511,-9.462 V 283 H 540.875 c 7.50937,0 13.65188,-6.376 13.86,-14.384 0.004,-0.14 0.007,-0.28 0.0108,-0.42 C 554.9633,259.872 548.6933,253 540.8858,253 H 60.124995 V 215 H 788.82688 c 14.86875,0 26.92312,12.858 26.92312,28.718 V 309 h -40.96876 c -0.0937,0 -0.1875,0.008 -0.28124,0.008 V 268 c 0,-8.284 -6.29626,-15 -14.0625,-15 h -128.625 c -7.63313,0 -13.8225,6.58 -13.86563,14.724 0,0.128 -0.002,0.256 -0.002,0.384 -0.045,8.208 6.16875,14.892 13.86562,14.892 h 114.56438 v 30.266 c -43.24501,13.202 -75,55.722 -75,106.034 v 76.766 c -48.07126,-17.112 -90.33377,-18.978 -92.29314,-19.054 -7.77749,-0.33 -14.28374,6.156 -14.5725,14.434 -0.28687,8.278 5.77126,15.238 13.53377,15.544 0.46499,0.018 45.50812,2.006 93.33187,20.874 v 213.67 c 0,1.864 0.17625,3.68 0.43686,5.468 H 642.9101 c -0.82876,-0.022 -41.81437,-1.548 -92.44126,-50.15 -61.6275,-59.162 -107.55,-43.762 -109.48124,-43.082 -7.36876,2.62 -11.34937,11.114 -8.89312,18.974 2.45625,7.86 10.41562,12.106 17.78812,9.488 0.31125,-0.116 32.97,-9.928 81.76874,36.918 11.86314,11.388 23.31563,20.504 34.08563,27.85 H 60.124995 Z M 815.75,790.434 c 0,10.238 -7.8075,18.566 -17.40374,18.566 H 60.124995 V 777 H 815.75 Z m 148.12498,-48.902 c 0,3.014 -2.30064,5.468 -5.12621,5.468 H 704.62626 C 701.79874,747 699.5,744.546 699.5,741.532 V 419.3 c 0,-44.278 33.7725,-80.3 75.28124,-80.3 h 113.81063 c 41.51059,0 75.28128,36.022 75.28128,80.3 v 322.232 z"
     id="path325"
     inkscape:connector-curvature="0"
     style="stroke-width:1.93649161" /><path
     d="m 927.31059,438 c 0,-8.284 -6.29433,-15 -14.06246,-15 -7.76813,0 -14.06247,6.716 -14.06247,15 v 54.82 C 883.38688,480.302 864.44563,472.064 843.875,469.708 V 395.26 l 7.33313,8.742 c 5.18062,6.174 14.06624,6.7 19.85624,1.176 5.78813,-5.524 6.28313,-15.006 1.10251,-21.18 l -31.87501,-38 c -2.71687,-3.238 -6.61874,-5.066 -10.68937,-4.996 -4.07437,0.066 -7.92187,2.012 -10.54687,5.336 l -30,38 c -5.0025,6.336 -4.24126,15.8 1.69874,21.136 2.63813,2.37 5.85188,3.526 9.05063,3.526 4.005,0 7.98375,-1.814 10.76437,-5.338 L 815.75,397.1 v 73.118 c -20.76187,3.128 -39.73125,12.268 -55.31063,25.72 V 438 c 0,-8.284 -6.29437,-15 -14.06249,-15 -7.76812,0 -14.06251,6.716 -14.06251,15 v 91.464 c 0,0.678 0.0563,1.342 0.13876,1.996 -9.0375,17.36 -14.20313,37.316 -14.20313,58.54 0,66.72 50.88937,121 113.4375,121 62.54812,0 113.43752,-54.28 113.43752,-121 0,-23.9 -6.55689,-46.186 -17.81443,-64.97 z M 831.6875,681 c -47.04187,0 -85.3125,-40.822 -85.3125,-91 0,-50.178 38.27063,-91 85.3125,-91 47.04187,0 85.3125,40.822 85.3125,91 0,50.178 -38.27063,91 -85.3125,91 z"
     id="path327"
     inkscape:connector-curvature="0"
     style="stroke-width:1.93649161" /><path
     d="m 862.56687,601.724 c 1.23,-3.672 1.93313,-7.606 1.93313,-11.724 0,-19.298 -14.72063,-35 -32.8125,-35 -3.85876,0 -7.54874,0.752 -10.99125,2.062 l -18.84,-20.096 c -5.49188,-5.858 -14.39625,-5.86 -19.88625,0 -5.49375,5.858 -5.49375,15.354 -0.003,21.212 l 18.84,20.096 c -1.22813,3.674 -1.93312,7.61 -1.93312,11.726 0,19.298 14.72062,35 32.81249,35 3.85876,0 7.54875,-0.752 10.99126,-2.062 l 18.83998,20.096 c 2.74689,2.93 6.34502,4.394 9.94502,4.394 3.59811,0 7.19811,-1.464 9.94312,-4.394 5.49371,-5.858 5.49371,-15.354 0.002,-21.212 z M 827,590 c 0,-2.756 2.10187,-5 4.6875,-5 2.58562,0 4.6875,2.244 4.6875,5 0,2.756 -2.10188,5 -4.6875,5 C 829.10187,595 827,592.756 827,590 Z"
     id="path329"
     inkscape:connector-curvature="0"
     style="stroke-width:1.93649161" /><path
     d="m 541.0625,333 c -31.53187,0 -57.1875,27.364 -57.1875,61 0,28.46 18.36937,52.426 43.125,59.128 V 490 c 0,8.284 6.29437,15 14.0625,15 7.76813,0 14.0625,-6.716 14.0625,-15 V 453.128 C 579.88063,446.426 598.25,422.46 598.25,394 c 0,-33.636 -25.65563,-61 -57.1875,-61 z m 0,92 C 525.03687,425 512,411.094 512,394 c 0,-17.094 13.03687,-31 29.0625,-31 16.02563,0 29.0625,13.906 29.0625,31 0,17.094 -13.03687,31 -29.0625,31 z"
     id="path331"
     inkscape:connector-curvature="0"
     style="stroke-width:1.93649161" /><path
     d="m 402.3125,505 c -31.53187,0 -57.1875,27.364 -57.1875,61 0,28.46 18.36937,52.426 43.125,59.128 V 662 c 0,8.284 6.29437,15 14.0625,15 7.76813,0 14.0625,-6.716 14.0625,-15 V 625.128 C 441.13063,618.426 459.5,594.46 459.5,566 c 0,-33.636 -25.65563,-61 -57.1875,-61 z m 0,92 c -16.02563,0 -29.0625,-13.906 -29.0625,-31 0,-17.094 13.03687,-31 29.0625,-31 16.02563,0 29.0625,13.906 29.0625,31 0,17.094 -13.03687,31 -29.0625,31 z"
     id="path333"
     inkscape:connector-curvature="0"
     style="stroke-width:1.93649161" /><path
     d="m 288.875,400 c 0,-33.636 -25.65563,-61 -57.1875,-61 -31.53187,0 -57.1875,27.364 -57.1875,61 0,28.46 18.36937,52.426 43.125,59.128 V 496 c 0,8.284 6.29437,15 14.0625,15 7.76813,0 14.0625,-6.716 14.0625,-15 V 459.128 C 270.50563,452.426 288.875,428.46 288.875,400 Z m -86.25,0 c 0,-17.094 13.03687,-31 29.0625,-31 16.02563,0 29.0625,13.906 29.0625,31 0,17.094 -13.03687,31 -29.0625,31 -16.02563,0 -29.0625,-13.906 -29.0625,-31 z"
     id="path335"
     inkscape:connector-curvature="0"
     style="stroke-width:1.93649161" /><path
     d="m 500.33563,461.22 c -98.94563,-18.264 -219.45,6.988 -224.53126,8.072 -7.61624,1.626 -12.555,9.528 -11.0325,17.65 1.33687,7.13 7.20937,12.062 13.77563,12.062 0.91313,0 1.84125,-0.096 2.77313,-0.294 1.1925,-0.254 120.38812,-25.252 214.21874,-7.928 7.66876,1.408 14.93063,-4.058 16.25437,-12.222 1.32563,-8.164 -3.80624,-15.928 -11.45811,-17.34 z"
     id="path337"
     inkscape:connector-curvature="0"
     style="stroke-width:1.93649161" /><g
     id="g339"
     transform="matrix(1.875,0,0,2,32,0)" /><g
     id="g341"
     transform="matrix(1.875,0,0,2,32,0)" /><g
     id="g343"
     transform="matrix(1.875,0,0,2,32,0)" /><g
     id="g345"
     transform="matrix(1.875,0,0,2,32,0)" /><g
     id="g347"
     transform="matrix(1.875,0,0,2,32,0)" /><g
     id="g349"
     transform="matrix(1.875,0,0,2,32,0)" /><g
     id="g351"
     transform="matrix(1.875,0,0,2,32,0)" /><g
     id="g353"
     transform="matrix(1.875,0,0,2,32,0)" /><g
     id="g355"
     transform="matrix(1.875,0,0,2,32,0)" /><g
     id="g357"
     transform="matrix(1.875,0,0,2,32,0)" /><g
     id="g359"
     transform="matrix(1.875,0,0,2,32,0)" /><g
     id="g361"
     transform="matrix(1.875,0,0,2,32,0)" /><g
     id="g363"
     transform="matrix(1.875,0,0,2,32,0)" /><g
     id="g365"
     transform="matrix(1.875,0,0,2,32,0)" /><g
     inkscape:groupmode="layer"
     id="layer1"
     inkscape:label="Background" /><g
     id="g367"
     transform="matrix(1.875,0,0,2,32,0)" /></svg>