<?xml version="1.0" encoding="iso-8859-1"?>
<!-- Generator: Adobe Illustrator 19.0.0, SVG Export Plug-In . SVG Version: 6.00 Build 0)  -->
<svg version="1.1" id="Capa_1" xmlns="http://www.w3.org/2000/svg" xmlns:xlink="http://www.w3.org/1999/xlink" x="0px" y="0px"
	 viewBox="0 0 512 512" style="enable-background:new 0 0 512 512;" xml:space="preserve">
<g>
	<path style="fill:#B52323;" d="M244.5,131.924V92.042c0-1.68,1.362-3.042,3.042-3.042h16.916c1.68,0,3.042,1.362,3.042,3.042
		v39.882H244.5z"/>
	<rect x="204.5" y="182" style="fill:#B52323;" width="103" height="31"/>
</g>
<path style="fill:#7FE4F4;" d="M219.849,391c-22.8,0-41.349-18.549-41.349-41.349v-70.302c0-22.8,18.549-41.349,41.349-41.349
	h70.302c22.8,0,41.349,18.549,41.349,41.349v70.302c0,22.8-18.549,41.349-41.349,41.349H219.849z"/>
<path style="fill:#4DCDDB;" d="M306.872,379.804c-38.547,0-69.795-31.248-69.795-69.795v-41.855
	c0-11.883,5.046-22.603,13.098-30.153h-30.327c-22.836,0-41.349,18.513-41.349,41.349v70.302c0,22.836,18.513,41.349,41.349,41.349
	h70.302c10.917,0,20.852-4.26,28.251-11.196L306.872,379.804L306.872,379.804z"/>
<path style="fill:#9D0707;" d="M174.5,478v-54.128c0-0.983,0.242-1.951,0.705-2.818l14.877-27.885
	c1.041-1.951,3.072-3.169,5.283-3.169h119.27c2.211,0,4.242,1.218,5.283,3.169l14.878,27.885c0.463,0.867,0.705,1.835,0.705,2.818
	V478H174.5z"/>
<path style="fill:#B52323;" d="M176.5,505c-7.72,0-14-6.28-14-14s6.28-14,14-14h157c7.72,0,14,6.28,14,14s-6.28,14-14,14H176.5z"/>
<path style="fill:#F24400;" d="M254.743,349.969c-3.622,0-7.151-0.729-10.492-2.166c-2.055-0.884-4.01-1.822-5.812-2.787
	c-9.267-4.969-14.97-14.516-14.884-24.916c0.033-3.906,0.656-7.475,1.851-10.608c1.566-4.101,4.621-7.461,8.602-9.461
	c5.996-3.016,10.471-6.777,13.298-11.18l6.9-10.744c2.507-3.904,8.564-1.986,8.367,2.65l-0.542,12.757
	c-0.198,4.658-1.83,8.874-4.718,12.194c-4.243,4.878-5.384,8.962-3.392,12.137c1.117,1.781,3.177,2.887,5.375,2.887
	c0.853,0,1.677-0.167,2.449-0.498c1.642-0.702,2.747-1.971,3.382-3.879l4.184-12.594c1.477-4.447,7.902-4.021,8.78,0.581
	l2.487,13.035c0.203,1.064,0.331,2.159,0.38,3.254c0.755,16.699-8.499,24.116-16.395,27.397
	C261.464,349.316,258.16,349.969,254.743,349.969z"/>
<path style="fill:#ED1100;" d="M259.385,348.128c-9.267-4.969-14.97-14.516-14.884-24.916c0.033-3.906,0.656-7.475,1.851-10.608
	c1.566-4.101,4.621-7.461,8.602-9.461c2.174-1.094,4.142-2.288,5.91-3.573c0.672-1.9,1.076-3.928,1.166-6.056l0.542-12.757
	c0.197-4.635-5.86-6.553-8.367-2.65l-6.9,10.744c-2.827,4.402-7.302,8.164-13.298,11.18c-3.981,2-7.035,5.36-8.602,9.461
	c-1.195,3.133-1.818,6.702-1.851,10.608c-0.086,10.4,5.617,19.947,14.884,24.916c1.801,0.965,3.757,1.903,5.812,2.787
	c3.341,1.437,6.871,2.166,10.492,2.166c2.25,0,4.449-0.289,6.575-0.85C260.658,348.792,260.009,348.462,259.385,348.128z"/>
<g>
	<path style="fill:#9D0707;" d="M206,239c-7.444,0-13.5-6.056-13.5-13.5S198.556,212,206,212h98c7.444,0,13.5,6.056,13.5,13.5
		S311.444,239,304,239H206z"/>
	<path style="fill:#9D0707;" d="M189.5,176.655v-14.842c0-23.645,19.168-42.813,42.813-42.813h47.373
		c23.645,0,42.813,19.168,42.813,42.813v14.842c0,3.504-2.841,6.345-6.345,6.345h-120.31C192.341,183,189.5,180.159,189.5,176.655z"
		/>
</g>
<rect x="204.5" y="182" style="fill:#A01212;" width="46.11" height="31"/>
<path style="fill:#7A0505;" d="M221.318,421.054l14.877-27.885c1.041-1.951,3.072-3.169,5.282-3.169h-46.113
	c-2.211,0-4.242,1.218-5.282,3.169l-14.877,27.885c-0.463,0.867-0.705,1.835-0.705,2.818V478h46.113v-54.128
	C220.613,422.889,220.855,421.921,221.318,421.054z"/>
<path style="fill:#A01212;" d="M208.613,491c0-7.72,6.28-14,14-14H176.5c-7.72,0-14,6.28-14,14s6.28,14,14,14h46.113
	C214.894,505,208.613,498.72,208.613,491z"/>
<g>
	<path style="fill:#7A0505;" d="M238.613,225.5c0-7.444,6.056-13.5,13.5-13.5H206c-7.444,0-13.5,6.056-13.5,13.5
		S198.556,239,206,239h46.113C244.669,239,238.613,232.944,238.613,225.5z"/>
	<path style="fill:#7A0505;" d="M235.613,176.655v-14.842c0-23.645,19.168-42.813,42.813-42.813h-46.113
		c-23.645,0-42.813,19.168-42.813,42.813v14.842c0,3.504,2.841,6.345,6.345,6.345h46.113
		C238.454,183,235.613,180.159,235.613,176.655z"/>
</g>
<path style="fill:#9D0707;" d="M230.032,34c-4.705,0-8.532-3.827-8.532-8.532v-9.937c0-4.705,3.827-8.532,8.532-8.532h51.936
	c4.705,0,8.532,3.827,8.532,8.532v9.937c0,4.705-3.827,8.532-8.532,8.532H230.032z"/>
<path d="M283.191,305.665c-1.39-2.052-3.02-3.863-4.843-5.381c-2.769-2.307-6.346-3.21-9.771-2.598
	c0.578-3.207,0.62-6.607,0.099-10.104c-1.48-9.923-7.49-19.963-14.613-24.416c-2.789-1.744-6.432-1.564-8.922,0.588
	c-2.479,2.144-3.319,5.549-2.02,8.553c0.837,2.3,3.83,13.38-12.26,21.471c-5.545,2.788-9.805,7.482-11.995,13.218
	c-1.495,3.915-2.272,8.305-2.312,13.046c-0.108,13.009,7.009,24.942,18.577,31.145c1.981,1.062,4.12,2.087,6.354,3.048
	c4.226,1.817,8.753,2.727,13.258,2.727c4.281,0,8.542-0.822,12.503-2.468c14.081-5.852,21.433-17.991,20.701-34.18
	C287.709,314.972,286.064,309.907,283.191,305.665z M261.492,340.642c-4.41,1.832-9.542,1.765-14.081-0.188
	c-1.842-0.792-3.59-1.629-5.193-2.489c-6.639-3.56-10.726-10.38-10.664-17.799c0.025-2.95,0.471-5.582,1.326-7.822
	c0.851-2.229,2.526-4.063,4.719-5.166c7.96-4.003,13.168-8.915,16.437-14.005c-0.122,2.871-1.045,5.311-2.76,7.283
	c-8.953,10.292-6.432,17.977-4.132,21.641c3.688,5.879,11.316,8.241,17.745,5.493c2.502-1.069,6.087-3.469,7.829-8.713
	c0.131,0.686,0.214,1.392,0.246,2.112C273.409,330.82,269.656,337.249,261.492,340.642z"/>
<path d="M265,430h32c4.143,0,7.5-3.358,7.5-7.5s-3.357-7.5-7.5-7.5h-32c-4.143,0-7.5,3.358-7.5,7.5S260.857,430,265,430z"/>
<path d="M342.5,472.055V422.5c0-1.231-0.304-2.444-0.883-3.53l-17.073-32c-0.393-0.736-0.908-1.376-1.498-1.929
	c9.498-8.834,15.454-21.427,15.454-35.39v-38.549c0-4.115-3.336-7.451-7.451-7.451h-0.097c-4.115,0-7.451,3.336-7.451,7.451v38.549
	c0,18.418-14.931,33.349-33.349,33.349H219.85c-18.418,0-33.349-14.931-33.349-33.349v-70.302c0-18.418,14.931-33.349,33.349-33.349
	h70.302c13.472,0,25.097,8.032,30.353,19.556c1.21,2.653,3.929,4.292,6.845,4.292l0,0c5.361,0,9.055-5.529,6.84-10.411
	c-3.513-7.742-9.007-14.401-15.837-19.324c3.789-3.722,6.148-8.895,6.148-14.613c0-7.463-4.022-13.989-10-17.574V190h2.663
	c5.645,0,10.406-3.816,11.866-9h10.274c9.498,0,17.197-7.699,17.197-17.197V75.816c0-33.425-26.245-60.828-59.208-62.705
	C296.122,5.695,289.707,0,281.967,0h-51.936c-7.739,0-14.155,5.695-15.324,13.111c-32.964,1.877-59.208,29.28-59.208,62.705v87.986
	c0,9.498,7.7,17.198,17.198,17.198h10.273c1.46,5.184,6.221,9,11.865,9h2.664v16.868c-7.068,3.238-12,10.362-12,18.632
	c0,5.718,2.359,10.892,6.148,14.614c-12.19,8.787-20.148,23.095-20.148,39.236v70.302c0,13.963,5.957,26.556,15.454,35.39
	c-0.59,0.553-1.106,1.193-1.498,1.929l-17.039,31.936c-0.009,0.016-0.017,0.031-0.025,0.047l-0.009,0.017
	c-0.006,0.012-0.01,0.024-0.016,0.036c-0.125,0.236-0.235,0.481-0.334,0.731c-0.026,0.066-0.049,0.132-0.073,0.199
	c-0.074,0.202-0.139,0.408-0.195,0.618c-0.021,0.078-0.042,0.156-0.06,0.234c-0.049,0.208-0.087,0.419-0.118,0.634
	c-0.011,0.074-0.025,0.146-0.034,0.22c-0.032,0.282-0.053,0.568-0.053,0.859v49.555c-7.361,3.512-12.384,11.163-11.977,19.937
	C156.046,503.281,165.705,512,177.006,512h155.988c11.301,0,20.96-8.719,21.483-20.008
	C354.884,483.218,349.861,475.567,342.5,472.055z M304,231h-98c-3.033,0-5.5-2.467-5.5-5.5s2.467-5.5,5.5-5.5h98
	c3.032,0,5.5,2.467,5.5,5.5S307.032,231,304,231z M212.5,205v-15h87v15H212.5z M314.5,175h-117v-13.187
	c0-19.196,15.617-34.813,34.813-34.813h47.373c19.196,0,34.813,15.617,34.813,34.813V175H314.5z M252.5,112V97h7v15H252.5z
	 M229.5,15.532c0-0.293,0.239-0.532,0.532-0.532h51.936c0.294,0,0.532,0.239,0.532,0.532v9.937c0,0.293-0.238,0.532-0.532,0.532
	h-51.936c-0.293,0-0.532-0.239-0.532-0.532L229.5,15.532L229.5,15.532z M182.5,161.813V166h-9.802c-1.212,0-2.198-0.986-2.198-2.198
	V75.816c0-25.164,19.544-45.836,44.248-47.669C216.023,35.437,222.382,41,230.032,41h51.936c7.649,0,14.01-5.563,15.285-12.853
	C321.957,29.98,341.5,50.652,341.5,75.816v87.986c0,1.212-0.985,2.198-2.197,2.198H329.5v-4.187
	c0-27.467-22.347-49.813-49.813-49.813H274.5V96.541c0-8.018-6.523-14.541-14.541-14.541h-7.918
	c-8.018,0-14.541,6.523-14.541,14.541V112h-5.187C204.846,112,182.5,134.346,182.5,161.813z M182.5,430H243
	c4.142,0,7.5-3.358,7.5-7.5s-3.358-7.5-7.5-7.5h-55.498l9.07-17h116.855l14.072,26.375V470h-145v-40H182.5z M333.5,497h-157
	c-3.309,0-6-2.691-6-6s2.691-6,6-6h157c3.309,0,6,2.691,6,6S336.809,497,333.5,497z"/>
<g>
</g>
<g>
</g>
<g>
</g>
<g>
</g>
<g>
</g>
<g>
</g>
<g>
</g>
<g>
</g>
<g>
</g>
<g>
</g>
<g>
</g>
<g>
</g>
<g>
</g>
<g>
</g>
<g>
</g>
</svg>
