<?xml version="1.0" encoding="iso-8859-1"?>
<!-- Generator: Adobe Illustrator 19.0.0, SVG Export Plug-In . SVG Version: 6.00 Build 0)  -->
<svg version="1.1" id="Capa_1" xmlns="http://www.w3.org/2000/svg" xmlns:xlink="http://www.w3.org/1999/xlink" x="0px" y="0px"
	 viewBox="0 0 512 512" style="enable-background:new 0 0 512 512;" xml:space="preserve">
<path style="fill:#898785;" d="M71.318,134.738v-25.933c0-2.929,2.375-5.304,5.304-5.304h33.755c2.929,0,5.304,2.375,5.304,5.304
	v25.933H71.318z"/>
<path style="fill:#756F6B;" d="M96.05,103.501H76.623c-2.929,0-5.304,2.375-5.304,5.304v25.933h19.428v-25.933
	C90.746,105.876,93.121,103.501,96.05,103.501z"/>
<path style="fill:#B5B2B0;" d="M66.5,166.325v-32.538c0-4.576,3.71-8.286,8.286-8.286h37.427c4.576,0,8.286,3.71,8.286,8.286v32.538
	H66.5z"/>
<path style="fill:#898785;" d="M94.214,125.501H74.786c-4.576,0-8.286,3.71-8.286,8.286v32.538h19.428v-32.538
	C85.928,129.211,89.638,125.501,94.214,125.501z"/>
<rect x="169" y="115.871" style="fill:#C7EAEA;" width="75" height="42.26"/>
<rect x="169" y="115.871" style="fill:#A6D1D0;" width="34.02" height="42.26"/>
<path style="fill:#3A3735;" d="M162,122.987v-15.972c0-1.941,1.573-3.514,3.514-3.514h81.972c1.941,0,3.514,1.573,3.514,3.514
	v15.972c0,1.941-1.573,3.514-3.514,3.514h-81.972C163.573,126.501,162,124.928,162,122.987z"/>
<path style="fill:#2D2521;" d="M207.721,115.872c-6.832,0-12.371-5.539-12.371-12.371l0,0h-29.836c-1.941,0-3.514,1.573-3.514,3.514
	v15.972c0,1.941,1.573,3.514,3.514,3.514h81.972c1.941,0,3.514-1.573,3.514-3.514v-7.115H207.721z"/>
<path style="fill:#B5B2B0;" d="M34,194.501v19v177.552c0,9.621,7.827,17.448,17.448,17.448h410.104
	c9.621,0,17.448-7.827,17.448-17.448V213.501v-19H34z"/>
<polygon style="fill:#DD3A3A;" points="338.293,213.501 174.707,213.501 34,213.501 34,364.099 129.779,364.099 320.553,364.5 
	479,364.5 479,213.501 "/>
<path style="fill:#938379;" d="M263.271,402.284c-58.173,0-105.5-47.327-105.5-105.5s47.327-105.5,105.5-105.5
	s105.5,47.327,105.5,105.5S321.444,402.284,263.271,402.284z"/>
<path style="fill:#BA2222;" d="M327.957,213.501H198.586c-24.82,19.319-40.815,49.466-40.815,83.283
	c0,25.618,9.182,49.13,24.423,67.426l138.359,0.291h23.549c15.388-18.337,24.669-41.962,24.669-67.717
	C368.771,262.966,352.777,232.82,327.957,213.501z"/>
<polygon style="fill:#B21D1D;" points="338.293,213.501 174.707,213.501 34,213.501 34,237.424 174.707,237.424 338.293,237.424 
	479,237.424 479,213.501 "/>
<path style="fill:#898785;" d="M461.552,125.501H311.664c-4.022,0-7.941,1.267-11.203,3.62l-26.854,19.38H51.448
	c-9.636,0-17.448,7.812-17.448,17.448v47.552h445v-70.552C479,133.313,471.188,125.501,461.552,125.501z"/>
<path style="fill:#3A3735;" d="M72,186.464v-12.927c0-2.229,1.807-4.037,4.037-4.037h46.927c2.229,0,4.037,1.807,4.037,4.037v12.927
	c0,2.229-1.807,4.037-4.037,4.037H76.037C73.807,190.501,72,188.693,72,186.464z"/>
<path style="fill:#2D2521;" d="M92.218,185.001c-2.229,0-4.037-1.807-4.037-4.037v-11.463H76.037c-2.229,0-4.037,1.807-4.037,4.037
	v12.927c0,2.229,1.807,4.037,4.037,4.037h46.927c2.229,0,4.037-1.807,4.037-4.037v-1.464H92.218z"/>
<path style="fill:#3A3735;" d="M326,169.911v-18.823c0-1.886,1.529-3.415,3.415-3.415h21.171c1.886,0,3.415,1.529,3.415,3.415
	v18.823c0,1.886-1.529,3.415-3.415,3.415h-21.171C327.529,173.327,326,171.798,326,169.911z"/>
<path style="fill:#2D2521;" d="M350.585,147.674h-21.171c-1.886,0-3.415,1.529-3.415,3.415v2.41h1.584
	c10.285,0,18.623,8.338,18.623,18.623v1.205h4.379c1.886,0,3.415-1.529,3.415-3.415V151.09
	C354,149.204,352.471,147.674,350.585,147.674z"/>
<path style="fill:#7FE4F4;" d="M393.167,190.501c-4.503,0-8.167-3.664-8.167-8.167v-24.667c0-4.503,3.664-8.167,8.167-8.167h52.667
	c4.503,0,8.167,3.664,8.167,8.167v24.667c0,4.503-3.664,8.167-8.167,8.167H393.167z"/>
<path style="fill:#4DCDDB;" d="M445.833,149.501h-52.667c-4.51,0-8.167,3.656-8.167,8.167v0.462h27.474
	c16.413,0,29.718,13.305,29.718,29.718v2.653h3.641c4.51,0,8.167-3.656,8.167-8.167v-24.667
	C454,153.157,450.344,149.501,445.833,149.501z"/>
<path style="fill:#3A3735;" d="M256.5,385.5C198.327,385.5,151,338.174,151,280s47.327-105.5,105.5-105.5S362,221.827,362,280
	S314.673,385.5,256.5,385.5z"/>
<path style="fill:#2D2521;" d="M245.33,271.825c0-37.92,20.114-71.227,50.229-89.826c-12.087-4.834-25.267-7.499-39.059-7.499
	C198.327,174.501,151,221.827,151,280s47.327,105.5,105.5,105.5c20.252,0,39.187-5.741,55.271-15.674
	C272.878,354.27,245.33,316.206,245.33,271.825z"/>
<path style="fill:#6D6864;" d="M256.5,357.5c-42.734,0-77.5-34.766-77.5-77.5s34.766-77.5,77.5-77.5S334,237.267,334,280
	S299.234,357.5,256.5,357.5z"/>
<path style="fill:#605854;" d="M256.5,202.501c-19.621,0-37.549,7.343-51.217,19.407c11.401-6.605,24.62-10.407,38.717-10.407
	c42.734,0,77.5,34.766,77.5,77.5c0,23.113-10.183,43.881-26.283,58.093C318.376,333.677,334,308.636,334,280
	C334,237.267,299.234,202.501,256.5,202.501z"/>
<path style="fill:#7FE4F4;" d="M256.5,319.305c-21.672,0-39.304-17.632-39.304-39.304s17.632-39.304,39.304-39.304
	s39.304,17.632,39.304,39.304S278.172,319.305,256.5,319.305z"/>
<path style="fill:#4DCDDB;" d="M273.283,309.302c-21.672,0-39.304-17.632-39.304-39.304c0-10.799,4.38-20.594,11.454-27.705
	c-16.299,4.792-28.237,19.878-28.237,37.707c0,21.672,17.632,39.304,39.304,39.304c10.873,0,20.727-4.44,27.85-11.599
	C280.837,308.739,277.125,309.302,273.283,309.302z"/>
<path style="fill:#3DBCC9;" d="M256.5,296.784c-9.254,0-16.783-7.529-16.783-16.783c0-9.254,7.529-16.783,16.783-16.783
	s16.783,7.529,16.783,16.783C273.283,289.255,265.754,296.784,256.5,296.784z"/>
<path style="fill:#24A2A8;" d="M269.642,287.554c-9.254,0-16.783-7.529-16.783-16.783c0-2.674,0.645-5.194,1.762-7.44
	c-8.372,0.938-14.904,8.053-14.904,16.671c0,9.254,7.529,16.783,16.783,16.783c6.58,0,12.272-3.816,15.021-9.342
	C270.903,287.51,270.278,287.554,269.642,287.554z"/>
<path style="fill:#FFFFFF;" d="M277.5,264.805c-10.093,0-18.305-8.211-18.305-18.305c0-10.093,8.211-18.305,18.305-18.305
	s18.305,8.211,18.305,18.305C295.805,256.594,287.593,264.805,277.5,264.805z"/>
<path style="fill:#898785;" d="M151.5,374.255c-13.925,0-25.254-11.329-25.254-25.254s11.329-25.254,25.254-25.254
	s25.254,11.329,25.254,25.254S165.425,374.255,151.5,374.255z"/>
<path style="fill:#7C7976;" d="M145.501,344.56c0-8.384,4.11-15.822,10.417-20.418c-1.436-0.255-2.91-0.395-4.418-0.395
	c-13.925,0-25.254,11.329-25.254,25.254s11.329,25.254,25.254,25.254c5.541,0,10.668-1.799,14.837-4.836
	C154.512,367.323,145.501,356.977,145.501,344.56z"/>
<circle style="fill:#6D6864;" cx="151.5" cy="349" r="9.5"/>
<path d="M490.518,213.501h-4.543c0.011-0.166,0.025-0.331,0.025-0.5v-70.052c0-13.481-10.967-24.448-24.448-24.448H305.639
	c-1.576,0-3.111,0.496-4.389,1.418l-29.905,21.582H251v-9.944c4.18-2.453,7-6.983,7-12.169v-8.773
	c0-7.782-6.331-14.113-14.113-14.113h-74.773c-7.782,0-14.113,6.331-14.113,14.113v8.773c0,5.187,2.82,9.716,7,12.169v9.944h-34.5
	v-15.5c0-3.196-2.003-5.917-4.818-6.998v-7.675c0-8.176-6.652-14.828-14.828-14.828H79.146c-8.176,0-14.828,6.652-14.828,14.828
	v7.675c-2.816,1.08-4.818,3.802-4.818,6.998v15.5h-8.052C37.967,141.501,27,152.467,27,165.949v47.052
	c0,0.169,0.014,0.334,0.025,0.5h-5.543C9.637,213.501,0,223.137,0,234.982v17.035C0,263.864,9.637,273.5,21.482,273.5H27v117.552
	c0,13.481,10.967,24.448,24.448,24.448h410.104c13.481,0,24.448-10.967,24.448-24.448V273.5h4.518
	c11.845,0,21.482-9.637,21.482-21.482v-17.035C512,223.137,502.363,213.501,490.518,213.501z M27,258.5h-5.518
	c-3.574,0-6.482-2.908-6.482-6.482v-17.035c0-3.574,2.908-6.482,6.482-6.482H27V258.5z M170,111.501h73v7h-73V111.501z M236,133.501
	v7h-59v-7H236z M79.318,111.501h28.363v7H79.318V111.501z M74.5,133.501h38v7h-38V133.501z M42,221.501h118.441
	c-1.669,2.731-3.212,5.546-4.648,8.423H42V221.501z M159,280c0-53.762,43.738-97.5,97.5-97.5S354,226.239,354,280
	s-43.738,97.5-97.5,97.5S159,333.763,159,280z M168.923,350.529c-0.778,8.935-8.289,15.972-17.423,15.972
	c-9.649,0-17.5-7.851-17.5-17.5s7.851-17.5,17.5-17.5c1.609,0,3.199,0.217,4.728,0.644c0.231,0.064,0.463,0.115,0.694,0.156
	C160.336,338.773,164.361,344.875,168.923,350.529z M42,244.924h107.608C145.974,255.967,144,267.757,144,280
	c0,12.784,2.148,25.075,6.094,36.536C132.824,317.276,119,331.552,119,349c0,2.439,0.279,4.812,0.79,7.099H42V244.924z M471,391.052
	c0,5.21-4.238,9.448-9.448,9.448H51.448c-5.21,0-9.448-4.238-9.448-9.448v-19.953h85.699c5.939,6.392,14.409,10.401,23.801,10.401
	c12.863,0,24.004-7.513,29.268-18.38c20.003,18.241,46.591,29.38,75.732,29.38c24.363,0,46.94-7.788,65.378-21H471V391.052z
	 M471,229.924h-40.974c-4.865,0-8.409,4.616-7.152,9.316c0.017,0.064,0.034,0.128,0.051,0.192c0.859,3.242,3.798,5.493,7.152,5.493
	H471V356.5H338.905C357.567,336.411,369,309.518,369,280c0-12.244-1.974-24.034-5.608-35.077h20.267
	c3.603,0,6.708-2.589,7.296-6.144c0.01-0.064,0.021-0.127,0.032-0.191c0.767-4.528-2.702-8.665-7.294-8.665h-26.484
	c-1.437-2.877-2.979-5.692-4.648-8.423H471V229.924z M471,205.501H341.134c-0.135,0-0.267,0.013-0.401,0.02
	c-20.627-23.301-50.74-38.02-84.233-38.02c-33.482,0-63.583,14.712-84.209,38H42v-39.552c0-5.21,4.238-9.448,9.448-9.448h222.321
	c1.576,0,3.111-0.496,4.389-1.418l29.905-21.582h153.489c5.21,0,9.448,4.238,9.448,9.448V205.501z M497,252.019
	c0,3.574-2.908,6.482-6.482,6.482H486v-30h4.518c3.574,0,6.482,2.908,6.482,6.482V252.019z"/>
<circle cx="151.5" cy="349" r="9.5"/>
<path d="M256.5,365.5c47.145,0,85.5-38.355,85.5-85.5s-38.355-85.5-85.5-85.5S171,232.855,171,280S209.355,365.5,256.5,365.5z
	 M256.5,209.501c38.874,0,70.5,31.626,70.5,70.5c0,38.874-31.626,70.5-70.5,70.5S186,318.875,186,280
	C186,241.127,217.626,209.501,256.5,209.501z"/>
<path d="M256.5,327.5c26.191,0,47.5-21.309,47.5-47.5c0-7.577-1.84-15.061-5.293-21.755c2.09-3.605,3.293-7.786,3.293-12.245
	c0-13.509-10.991-24.5-24.5-24.5c-8.529,0-16.051,4.384-20.44,11.014c-0.187-0.002-0.374-0.014-0.56-0.014
	c-26.191,0-47.5,21.309-47.5,47.5S230.309,327.5,256.5,327.5z M277.5,236.501c5.238,0,9.5,4.262,9.5,9.5s-4.262,9.5-9.5,9.5
	s-9.5-4.262-9.5-9.5S272.262,236.501,277.5,236.501z M253.064,247.684c0.869,12.726,11.493,22.817,24.436,22.817
	c3.341,0,6.526-0.674,9.431-1.89c1.353,3.624,2.069,7.487,2.069,11.39c0,17.92-14.58,32.5-32.5,32.5S224,297.921,224,280
	C224,263.24,236.753,249.406,253.064,247.684z"/>
<path d="M393.167,197.501h52.667c8.363,0,15.167-6.804,15.167-15.167v-24.667c0-8.363-6.804-15.167-15.167-15.167h-52.667
	c-8.363,0-15.167,6.804-15.167,15.167v24.667C378,190.697,384.804,197.501,393.167,197.501z M393,157.668
	c0-0.092,0.075-0.167,0.167-0.167h52.667c0.092,0,0.167,0.075,0.167,0.167v24.667c0,0.092-0.075,0.167-0.167,0.167h-52.667
	c-0.092,0-0.167-0.075-0.167-0.167V157.668z"/>
<path d="M120.201,162.501H78.799c-7.609,0-13.799,6.19-13.799,13.799v7.401c0,7.609,6.19,13.799,13.799,13.799H120.2
	c7.609,0,13.799-6.19,13.799-13.799v-7.401C134,168.691,127.81,162.501,120.201,162.501z M119,182.501H80v-5h39V182.501z"/>
<path d="M332.144,180.327h15.712c7.248,0,13.144-5.896,13.144-13.144v-13.364c0-7.248-5.896-13.144-13.144-13.144h-15.712
	c-7.248,0-13.144,5.896-13.144,13.144v13.364C319,174.43,324.896,180.327,332.144,180.327z M334,155.674h12v9.652h-12V155.674z"/>
<g>
</g>
<g>
</g>
<g>
</g>
<g>
</g>
<g>
</g>
<g>
</g>
<g>
</g>
<g>
</g>
<g>
</g>
<g>
</g>
<g>
</g>
<g>
</g>
<g>
</g>
<g>
</g>
<g>
</g>
</svg>
