<?xml version="1.0" encoding="iso-8859-1"?>
<!-- Generator: Adobe Illustrator 19.0.0, SVG Export Plug-In . SVG Version: 6.00 Build 0)  -->
<svg version="1.1" id="Capa_1" xmlns="http://www.w3.org/2000/svg" xmlns:xlink="http://www.w3.org/1999/xlink" x="0px" y="0px"
	 viewBox="0 0 512 512" style="enable-background:new 0 0 512 512;" xml:space="preserve">
<path style="fill:#AACED1;" d="M109.754,424.172v-23.953h243.123c3.134,0,5.674,2.54,5.674,5.674v12.605
	c0,3.134-2.54,5.674-5.674,5.674H109.754z"/>
<rect x="182.893" y="400.218" style="fill:#81B5B2;" width="148.71" height="23.953"/>
<path style="fill:#2B2725;" d="M85.052,433.176c-3.75,0-7.306-1.682-9.716-4.672c-1.84-2.284-2.728-5.191-2.728-8.124v-15.373
	c0-2.933,0.888-5.841,2.729-8.124c2.41-2.99,5.964-4.672,9.706-4.672c0.349,0,0.708,0.015,1.077,0.046l31.581,2.727
	c1.873,0.162,3.313,1.73,3.313,3.611v28.201c0,1.88-1.438,3.449-3.313,3.611l-31.567,2.725
	C85.75,433.162,85.396,433.176,85.052,433.176z"/>
<rect x="197.365" y="341.064" style="fill:#3A3735;" width="119.766" height="138.779"/>
<rect x="224.811" y="341.064" style="fill:#6D6864;" width="64.873" height="138.779"/>
<g>
	<path style="fill:#2B2725;" d="M130.797,505.014c-5.944,0-10.781-4.837-10.781-10.781V471.88c0-5.944,4.837-10.781,10.781-10.781
		h252.902c5.944,0,10.781,4.837,10.781,10.781v22.352c0,5.944-4.837,10.781-10.781,10.781H130.797z"/>
	<path style="fill:#2B2725;" d="M183.865,361.294c-4.938,0-8.957-4.018-8.957-8.957v-50.927h166.674v50.927
		c0,4.938-4.018,8.957-8.957,8.957H183.865z"/>
	<path style="fill:#2B2725;" d="M377.384,22.955H249.891c-8.051,0-14.6,6.55-14.6,14.6v29.314v13.973h156.694v-30.94V37.556
		C391.984,29.505,385.435,22.955,377.384,22.955z"/>
</g>
<rect x="170.916" y="18.464" style="fill:#AACED1;" width="20.959" height="46.389"/>
<rect x="170.916" y="18.464" style="fill:#86B6B7;" width="10.48" height="46.389"/>
<path style="fill:#3A3735;" d="M159.938,25.219v-13.51c0-2.608,2.114-4.723,4.723-4.723h33.472c2.608,0,4.723,2.114,4.723,4.723
	V25.22c0,2.608-2.114,4.723-4.723,4.723H164.66C162.052,29.942,159.938,27.828,159.938,25.219z"/>
<path style="fill:#2D221E;" d="M180.879,22.955c-2.608,0-4.723-2.114-4.723-4.723V6.986H164.66c-2.608,0-4.723,2.114-4.723,4.723
	V25.22c0,2.608,2.114,4.723,4.723,4.723h33.472c2.608,0,4.723-2.114,4.723-4.723v-2.265H180.879z"/>
<path style="fill:#3A3735;" d="M131.926,43.602L131.926,43.602c0-2.583-2.094-4.678-4.678-4.678l0,0h-13.456
	c-2.577,0-4.668,2.084-4.677,4.661l-0.081,31.269h22.957v-27.88L131.926,43.602z"/>
<path style="fill:#2D221E;" d="M120.594,49.573c0.009-2.577,2.101-4.661,4.677-4.661h6.681l-0.026-1.31
	c0-2.583-2.094-4.678-4.678-4.678h-13.456c-2.577,0-4.668,2.084-4.677,4.661l-0.08,31.269h11.494L120.594,49.573z"/>
<path style="fill:#7FE4F4;" d="M263.735,65.871H209.84v-8.72c0-4.555-3.693-8.247-8.247-8.247h-40.395
	c-4.555,0-8.247,3.693-8.247,8.247v8.72h-45.056c-9.843,0-17.821,7.979-17.821,17.821v131.886h-8.743
	c-4.557,0-8.251,3.696-8.247,8.254l0.023,28.44c0.004,4.56,3.707,8.252,8.267,8.241l8.7-0.021v36.073
	c0,9.843,7.979,17.821,17.821,17.821h300.7c9.843,0,17.821-7.979,17.821-17.821V195.618V65.871H263.735z"/>
<rect x="170.916" y="48.904" style="fill:#92A8A7;" width="20.959" height="57.762"/>
<rect x="170.916" y="48.904" style="fill:#6D8987;" width="10.48" height="57.762"/>
<path style="fill:#6B8989;" d="M263.735,91.821h-140.16c-4.17,0-7.551,3.38-7.551,7.551v181.514c0,4.17,3.38,7.551,7.551,7.551
	h269.343c4.17,0,7.551-3.38,7.551-7.551v-85.268V99.372c0-4.17-3.38-7.551-7.551-7.551H263.735z"/>
<g>
	<path style="fill:#43605F;" d="M342.894,252.507c-5.126,0-9.296-4.17-9.296-9.296v-6.36c0-5.126,4.17-9.296,9.296-9.296h26.321
		c5.126,0,9.296,4.17,9.296,9.296v6.36c0,5.126-4.17,9.296-9.296,9.296H342.894z"/>
	<path style="fill:#43605F;" d="M240.095,252.507c-5.126,0-9.296-4.17-9.296-9.296v-6.36c0-5.126,4.17-9.296,9.296-9.296h46.282
		c5.126,0,9.296,4.17,9.296,9.296v6.36c0,5.126-4.17,9.296-9.296,9.296H240.095z"/>
</g>
<path style="fill:#DD3A3A;" d="M174.409,265.481c-14.034,0-25.45-11.417-25.45-25.45s11.417-25.45,25.45-25.45
	s25.45,11.417,25.45,25.45S188.443,265.481,174.409,265.481z"/>
<path style="fill:#2FE0A0;" d="M155.349,193.622c-6.825,0-12.378-5.552-12.378-12.378V129.15c0-6.825,5.552-12.378,12.378-12.378
	h64.071c6.825,0,12.378,5.552,12.378,12.378v52.094c0,6.825-5.552,12.378-12.378,12.378H155.349z"/>
<path style="fill:#1BCC88;" d="M219.419,116.772h-64.071c-6.825,0-12.378,5.552-12.378,12.378v0.098h54.492
	c6.825,0,12.378,5.552,12.378,12.378v51.996h9.579c6.825,0,12.378-5.552,12.378-12.378V129.15
	C231.797,122.324,226.245,116.772,219.419,116.772z"/>
<path style="fill:#3A3735;" d="M279.255,196.616c-9.107,0-16.518-7.41-16.518-16.518V65.422c0-9.107,7.41-16.518,16.518-16.518
	h143.619c9.107,0,16.518,7.41,16.518,16.518v114.676c0,9.107-7.41,16.518-16.518,16.518L279.255,196.616L279.255,196.616z"/>
<path style="fill:#2D2521;" d="M402.359,157.753c-37.976,0-68.761-30.785-68.761-68.761V48.904h-54.344
	c-9.122,0-16.518,7.396-16.518,16.518v114.676c0,9.122,7.396,16.518,16.518,16.518h143.619c9.122,0,16.518-7.396,16.518-16.518
	v-22.345H402.359z"/>
<path style="fill:#6D6864;" d="M284.694,168.083V77.438c0-3.632,2.944-6.576,6.576-6.576h119.588c3.632,0,6.576,2.944,6.576,6.576
	v90.645c0,3.632-2.944,6.576-6.576,6.576H291.27C287.638,174.659,284.694,171.715,284.694,168.083z"/>
<path style="fill:#605854;" d="M410.859,70.862H291.27c-3.632,0-6.576,2.944-6.576,6.576v2.169h87.726
	c17.695,0,32.04,14.345,32.04,32.04v63.012h6.398c3.632,0,6.576-2.944,6.576-6.576V77.438
	C417.435,73.806,414.49,70.862,410.859,70.862z"/>
<path style="fill:#3A3735;" d="M351.064,156.694c-18.986,0-34.433-15.447-34.433-34.433s15.447-34.433,34.433-34.433
	s34.433,15.447,34.433,34.433S370.05,156.694,351.064,156.694z"/>
<path style="fill:#35312F;" d="M351.064,87.828c-9.229,0-17.616,3.657-23.805,9.589c4.046-1.674,8.474-2.603,13.117-2.603
	c18.986,0,34.433,15.447,34.433,34.433c0,9.757-4.086,18.573-10.628,24.843c12.497-5.17,21.315-17.487,21.315-31.83
	C385.497,103.275,370.05,87.828,351.064,87.828z"/>
<circle style="fill:#2B2725;" cx="351.064" cy="122.261" r="12.975"/>
<path style="fill:#211D1A;" d="M360.312,129.866c-7.166,0-12.975-5.809-12.975-12.975c0-2.815,0.906-5.413,2.429-7.539
	c-6.556,0.652-11.677,6.182-11.677,12.909c0,7.166,5.809,12.975,12.975,12.975c4.351,0,8.192-2.149,10.545-5.435
	C361.183,129.843,360.75,129.866,360.312,129.866z"/>
<path d="M416.936,63.875H285.193c-4.134,0-7.485,3.351-7.485,7.485V174.16c0,4.134,3.351,7.485,7.485,7.485h131.743
	c4.134,0,7.485-3.351,7.485-7.485V71.361C424.421,67.227,421.07,63.875,416.936,63.875z M409.45,166.674H292.678V78.846H409.45
	V166.674z"/>
<path d="M351.064,163.68c22.838,0,41.419-18.581,41.419-41.419s-18.581-41.419-41.419-41.419s-41.419,18.581-41.419,41.419
	S328.226,163.68,351.064,163.68z M351.064,95.813c14.584,0,26.448,11.865,26.448,26.448s-11.865,26.448-26.448,26.448
	s-26.448-11.865-26.448-26.448S336.481,95.813,351.064,95.813z"/>
<circle cx="351.064" cy="122.261" r="12.975"/>
<path d="M155.349,200.608h64.071c10.677,0,19.364-8.687,19.364-19.364V129.15c0-10.677-8.687-19.364-19.364-19.364h-64.071
	c-10.677,0-19.364,8.687-19.364,19.364v52.094C135.984,191.921,144.671,200.608,155.349,200.608z M150.955,129.15
	c0-2.422,1.971-4.393,4.393-4.393h64.071c2.422,0,4.393,1.971,4.393,4.393v52.094c0,2.422-1.971,4.393-4.393,4.393h-64.071
	c-2.422,0-4.393-1.971-4.393-4.393V129.15z"/>
<path d="M174.409,207.595c-17.885,0-32.437,14.552-32.437,32.437c0,17.885,14.552,32.437,32.437,32.437s32.437-14.552,32.437-32.437
	S192.294,207.595,174.409,207.595z M174.409,257.497c-9.63,0-17.466-7.836-17.466-17.466s7.836-17.466,17.466-17.466
	s17.466,7.836,17.466,17.466S184.04,257.497,174.409,257.497z"/>
<path d="M223.813,236.851v6.36c0,8.978,7.304,16.282,16.282,16.282h46.282c8.978,0,16.282-7.304,16.282-16.282v-6.36
	c0-8.978-7.304-16.282-16.282-16.282h-46.282C231.117,220.569,223.813,227.873,223.813,236.851z M238.784,236.851
	c0-0.724,0.588-1.311,1.311-1.311h46.282c0.724,0,1.311,0.588,1.311,1.311v6.36c0,0.724-0.588,1.311-1.311,1.311h-46.282
	c-0.724,0-1.311-0.588-1.311-1.311V236.851z"/>
<path d="M342.894,259.493h26.321c8.978,0,16.282-7.304,16.282-16.282v-6.36c0-8.978-7.304-16.282-16.282-16.282h-26.321
	c-8.978,0-16.282,7.304-16.282,16.282v6.36C326.612,252.189,333.916,259.493,342.894,259.493z M341.583,236.851
	c0-0.724,0.588-1.311,1.311-1.311h26.321c0.724,0,1.311,0.588,1.311,1.311v6.36c0,0.724-0.588,1.311-1.311,1.311h-26.321
	c-0.724,0-1.311-0.588-1.311-1.311V236.851z"/>
<path d="M422.874,41.918h-23.903v-4.362c0-11.903-9.684-21.587-21.587-21.587H249.891c-11.903,0-21.587,9.684-21.587,21.587v21.329
	h-11.478v-3.538c0-7.405-6.024-13.429-13.429-13.429h-4.536v-5.5c6.31-1.678,10.979-7.424,10.979-14.254v-7.4
	C209.84,6.623,203.217,0,195.076,0h-27.361c-8.141,0-14.764,6.623-14.764,14.764v7.4c0,6.831,4.669,12.575,10.979,14.254v5.5h-4.536
	c-7.405,0-13.429,6.024-13.429,13.429v3.538h-6.986V46.974c0-8.292-6.746-15.037-15.037-15.037h-6.854
	c-8.292,0-15.037,6.746-15.037,15.037v12.612c-10.867,2.636-18.963,12.44-18.963,24.106v124.9H81.07
	c-8.242,0-14.948,6.706-14.948,14.948v28.989c0,8.242,6.706,14.948,14.948,14.948h2.019v29.087
	c-0.001,13.679,11.127,24.808,24.807,24.808h60.027v30.966c0,8.791,7.152,15.943,15.943,15.943h6.513v24.951h-62.813
	c-0.955-2.697-3.407-4.704-6.406-4.962l-34.424-2.972c-5.409-0.467-10.812,1.371-14.814,5.043
	c-4.003,3.673-6.299,8.894-6.299,14.326v16.055c0,5.432,2.296,10.653,6.299,14.326c3.593,3.297,8.311,5.115,13.153,5.115
	c0.552,0,1.107-0.024,1.661-0.072l34.424-2.972c3.359-0.29,6.039-2.771,6.688-5.96h62.532v22.955h-59.582
	c-9.797,0-17.767,7.97-17.767,17.767v22.352c0,9.797,7.97,17.767,17.767,17.767h252.902c9.797,0,17.767-7.97,17.767-17.767V471.88
	c0-9.797-7.97-17.767-17.767-17.767h-59.582v-22.955h33.934c4.134,0,7.485-3.351,7.485-7.485v-22.955
	c0-4.134-3.351-7.485-7.485-7.485h-33.934v-24.951h8.509c8.791,0,15.943-7.152,15.943-15.943v-30.966h60.027
	c13.679,0,24.808-11.128,24.808-24.808v-95.462c7.686-3.868,12.975-11.828,12.975-21.004V65.422
	C446.378,52.462,435.835,41.918,422.874,41.918z M113.029,422.794l-27.582,2.381c-1.706,0.143-2.865-0.664-3.406-1.16
	c-0.541-0.496-1.448-1.584-1.448-3.294v-16.055c0-1.71,0.907-2.798,1.448-3.294c0.497-0.456,1.518-1.178,3.002-1.178
	c0.131,0,0.265,0.006,0.404,0.018l27.582,2.381V422.794z M324.616,408.203h25.949v7.984h-25.949V408.203z M243.275,37.556
	c0-3.648,2.968-6.616,6.616-6.616h127.492c3.648,0,6.616,2.968,6.616,6.616v4.362H279.255c-10.691,0-19.732,7.179-22.572,16.967
	h-13.408V37.556z M198.862,56.889h2.994v9.481c0,4.134,3.351,7.485,7.485,7.485h46.409v10.979h-56.889V56.889z M167.922,14.971
	h26.947v6.986h-26.947V14.971z M178.901,41.918v-4.99h4.99v4.99H178.901z M183.891,56.889v27.945h-4.99V56.889H183.891z
	 M117.087,46.908h6.854l0.066,0.066v10.913h-6.959L117.087,46.908z M128,416.187v-7.984h62.378v7.984H128z M383.699,469.084
	c1.542,0,2.797,1.255,2.797,2.797v22.352c0,1.542-1.255,2.797-2.797,2.797H130.797c-1.542,0-2.797-1.255-2.797-2.797V471.88
	c0-1.542,1.255-2.797,2.797-2.797H383.699z M205.349,452.616v-84.335h12.476v84.335H205.349z M232.795,452.616v-84.335H281.7v84.335
	H232.795z M296.671,452.616v-84.335h12.476v84.335H296.671z M333.598,352.338c0,0.536-0.436,0.972-0.972,0.972H183.865
	c-0.536,0-0.972-0.436-0.972-0.972v-30.966h150.706V352.338z M418.433,296.565c0,5.433-4.404,9.837-9.837,9.837H107.895
	c-5.433,0-9.837-4.404-9.837-9.837v-36.573c0-4.134-3.351-7.485-7.485-7.485l-9.481,0.023l-0.023-28.966h9.504
	c4.134,0,7.485-3.351,7.485-7.485V83.693c0-5.433,4.404-9.837,9.837-9.837h45.555c4.134,0,7.485-3.351,7.485-7.485v-9.481h2.994
	v27.945h-47.407c-4.134,0-7.485,3.351-7.485,7.485v195.618c0,4.134,3.351,7.485,7.485,7.485h185.194c4.361,0,7.785-3.76,7.355-8.099
	c-0.006-0.064-0.012-0.127-0.019-0.19c-0.361-3.791-3.547-6.681-7.355-6.681h-177.69V99.805h131.743v80.293
	c0,12.981,10.523,23.504,23.504,23.504h113.229v76.85h-44.299c-3.917,0-7.134,3.057-7.377,6.967
	c-0.004,0.064-0.008,0.127-0.012,0.191c-0.279,4.239,3.131,7.813,7.378,7.813h51.796c4.134,0,7.485-3.351,7.485-7.485v-84.335
	h10.979L418.433,296.565L418.433,296.565z M431.407,180.098c0,4.705-3.828,8.533-8.533,8.533h-143.62
	c-4.705,0-8.533-3.828-8.533-8.533V65.422c0-4.705,3.828-8.533,8.533-8.533h143.619c4.705,0,8.533,3.828,8.533,8.533
	L431.407,180.098L431.407,180.098z"/>
<g>
</g>
<g>
</g>
<g>
</g>
<g>
</g>
<g>
</g>
<g>
</g>
<g>
</g>
<g>
</g>
<g>
</g>
<g>
</g>
<g>
</g>
<g>
</g>
<g>
</g>
<g>
</g>
<g>
</g>
</svg>
