<?xml version="1.0" encoding="iso-8859-1"?>
<!-- Generator: Adobe Illustrator 19.0.0, SVG Export Plug-In . SVG Version: 6.00 Build 0)  -->
<svg version="1.1" id="Capa_1" xmlns="http://www.w3.org/2000/svg" xmlns:xlink="http://www.w3.org/1999/xlink" x="0px" y="0px"
	 viewBox="0 0 512.001 512.001" style="enable-background:new 0 0 512.001 512.001;" xml:space="preserve">
<path style="fill:#9BB8BC;" d="M362.437,177.66l22.542-12.969c1.644-0.938,3.191-1.13,4.206-1.13c0.742,0,1.482,0.098,2.202,0.292
	c2.163,0.578,3.984,1.977,5.11,3.935l10.065,17.434c2.32,4.04,0.93,9.197-3.088,11.514l-19.323,11.115L362.437,177.66z"/>
<path style="fill:#2FE0A0;" d="M201.23,505c-11.43,0-20.729-9.299-20.729-20.729V407h151v77.271c0,11.43-9.299,20.729-20.729,20.729
	H201.23z"/>
<path style="fill:#14C682;" d="M247.82,484.271V407h-67.319v77.271c0,11.43,9.299,20.729,20.729,20.729h67.319
	C257.119,505,247.82,495.701,247.82,484.271z"/>
<path id="SVGCleanerId_0" style="fill:#1ABA9B;" d="M148.501,315.96v37.08v48.898c0,11.613,9.448,21.062,21.062,21.062H342.44
	c11.613,0,21.062-9.448,21.062-21.062V353.04v-37.08L148.501,315.96L148.501,315.96z"/>
<g>
	<path id="SVGCleanerId_0_1_" style="fill:#1ABA9B;" d="M148.501,315.96v37.08v48.898c0,11.613,9.448,21.062,21.062,21.062H342.44
		c11.613,0,21.062-9.448,21.062-21.062V353.04v-37.08L148.501,315.96L148.501,315.96z"/>
</g>
<path style="fill:#05997D;" d="M230.663,401.938V353.04v-37.08h-82.162v37.08v48.898c0,11.613,9.448,21.062,21.062,21.062h82.162
	C240.111,423,230.663,413.552,230.663,401.938z"/>
<path style="fill:#2FE0A0;" d="M180.501,109V27.729C180.501,16.299,189.8,7,201.23,7h109.543c11.43,0,20.729,9.299,20.729,20.729
	V109H180.501z"/>
<path style="fill:#14C682;" d="M268.549,7H201.23c-11.43,0-20.729,9.299-20.729,20.729V109h67.319V27.729
	C247.82,16.299,257.119,7,268.549,7z"/>
<path style="fill:#1ABA9B;" d="M342.439,89H169.563c-11.613,0-21.062,9.448-21.062,21.062v49.911v42.7h215v-42.7v-49.911
	C363.501,98.448,354.053,89,342.439,89z"/>
<path style="fill:#05997D;" d="M215.82,110.062c0-11.613,9.448-21.062,21.062-21.062h-67.319c-11.613,0-21.062,9.448-21.062,21.062
	v49.911v42.7h67.319v-42.7V110.062z"/>
<path id="SVGCleanerId_1" style="fill:#3A3735;" d="M256.001,401c-79.678,0-144.5-64.822-144.5-144.5S176.323,112,256.001,112
	s144.5,64.822,144.5,144.5S335.679,401,256.001,401z"/>
<path style="fill:#9BB8BC;" d="M390.806,347.685c-1.313,0-2.58-0.3-3.764-0.892l-18.715-9.63l15.825-33.638l19.465,10.187
	c2.04,1.042,3.519,2.763,4.221,4.875c0.696,2.095,0.55,4.345-0.414,6.334l-9.08,18.111c-0.986,1.994-2.727,3.507-4.881,4.221
	C392.616,347.538,391.716,347.685,390.806,347.685z"/>
<g>
	<path style="fill:#7CA2A5;" d="M384.152,303.525l-15.825,33.638l15.346,7.896c7.023-10.094,12.882-21.055,17.378-32.69
		L384.152,303.525z"/>
	<path style="fill:#7CA2A5;" d="M362.437,177.66l21.715,30.192l16.096-9.258c-4.657-11.56-10.661-22.437-17.824-32.432
		L362.437,177.66z"/>
</g>
<g>
	<path style="fill:#9BB8BC;" d="M121.196,347.685c-0.904,0-1.801-0.146-2.663-0.432c-2.098-0.695-3.815-2.164-4.832-4.134
		l-9.073-18.097c-1.011-2.044-1.168-4.314-0.464-6.434c0.702-2.111,2.18-3.833,4.162-4.846l22.175-11.325l17.36,33.115
		l-22.893,11.257C123.776,347.384,122.511,347.685,121.196,347.685z"/>
	<path style="fill:#9BB8BC;" d="M108.522,196.735c-4.019-2.317-5.406-7.478-3.09-11.502l10.078-17.457
		c1.141-1.961,2.955-3.348,5.122-3.927c0.686-0.187,1.433-0.287,2.183-0.287c1.474,0,2.93,0.392,4.212,1.133l18.978,11.067
		L126.23,207L108.522,196.735z"/>
</g>
<g>
	<path id="SVGCleanerId_1_1_" style="fill:#3A3735;" d="M256.001,401c-79.678,0-144.5-64.822-144.5-144.5S176.323,112,256.001,112
		s144.5,64.822,144.5,144.5S335.679,401,256.001,401z"/>
</g>
<g>
	<path style="fill:#7CA2A5;" d="M126.23,207l19.775-31.239l-16.438-9.586c-7.161,9.995-13.163,20.871-17.819,32.43L126.23,207z"/>
	<path style="fill:#7CA2A5;" d="M110.96,312.397c4.504,11.647,10.372,22.617,17.408,32.72l19.492-9.585l-17.36-33.115
		L110.96,312.397z"/>
</g>
<path style="fill:#2D221E;" d="M221.501,233.5c0-49.177,24.7-92.687,62.338-118.799c-9.011-1.766-18.317-2.701-27.838-2.701
	c-79.678,0-144.5,64.822-144.5,144.5S176.323,401,256.001,401c30.5,0,58.818-9.507,82.162-25.701
	C271.761,362.286,221.501,303.657,221.501,233.5z"/>
<path style="fill:#C7EAEA;" d="M256.001,375.431c-65.579,0-118.931-53.352-118.931-118.931s53.352-118.931,118.931-118.931
	S374.932,190.921,374.932,256.5S321.58,375.431,256.001,375.431z"/>
<path style="fill:#A6D1D0;" d="M256.001,137.569c-37.274,0-70.593,17.241-92.415,44.162c20.296-16.115,45.954-25.754,73.824-25.754
	c65.579,0,118.931,53.352,118.931,118.931c0,28.305-9.945,54.326-26.516,74.769c27.463-21.805,45.107-55.467,45.107-93.177
	C374.932,190.921,321.58,137.569,256.001,137.569z"/>
<path style="fill:#F93500;" d="M294.254,222.142c-7.467-7.699-11.253-13.929-11.253-18.517c0-9.374,7.626-17,17-17s17,7.626,17,17
	c0,4.572-3.788,10.801-11.259,18.513l-2.849,2.942c-1.583,1.634-4.203,1.635-5.787,0.002L294.254,222.142z"/>
<path style="fill:#ED1100;" d="M297.501,203.16c0-6.588,3.774-12.3,9.268-15.121c-2.076-0.905-4.362-1.414-6.768-1.414
	c-9.374,0-17,7.626-17,17c0,4.588,3.786,10.818,11.253,18.517l2.852,2.94c1.584,1.633,4.204,1.632,5.787-0.002l2.85-2.942
	c0.599-0.618,1.166-1.224,1.717-1.823C300.851,213.242,297.501,207.474,297.501,203.16z"/>
<path d="M345.016,191.097c14.326,19.446,22.442,43.735,21.394,69.915c-2.303,57.559-49.162,104.052-106.736,105.928
	c-63.822,2.08-116.185-50.278-114.114-114.098c1.887-58.122,49.205-105.196,107.335-106.799
	c21.249-0.586,41.208,4.865,58.291,14.754c2.856,1.654,6.455,1.238,8.789-1.095c0.139-0.139,0.278-0.278,0.416-0.416
	c3.352-3.352,2.608-8.964-1.49-11.348c-19.771-11.501-42.95-17.761-67.625-16.85c-65.541,2.42-118.577,55.7-120.708,121.251
	c-2.357,72.503,57.143,131.983,129.653,129.592c66.002-2.176,119.42-55.91,121.231-121.923c0.8-29.165-8.413-56.189-24.439-77.892
	c-2.608-3.532-7.771-3.879-10.876-0.775l-0.406,0.406C343.219,184.261,342.908,188.235,345.016,191.097z"/>
<path d="M300.001,179.625c-13.233,0-24,10.766-24,24c0,11.657,14.635,25.103,19.12,28.945c1.404,1.203,3.142,1.805,4.88,1.805
	s3.476-0.602,4.88-1.805c4.485-3.843,19.12-17.288,19.12-28.945C324.001,190.391,313.234,179.625,300.001,179.625z M299.996,216.572
	c-5.049-5.206-8.995-10.721-8.995-12.947c0-4.962,4.037-9,9-9s9,4.038,9,9C309.001,205.838,305.049,211.356,299.996,216.572z"/>
<path d="M309.277,246.681c-1.005-4.019-5.081-6.459-9.096-5.457c-4.019,1.004-6.461,5.077-5.457,9.095l3.776,15.104v24.497
	l-10.669,3.201l-20.065-17.657l-11.943-51.752c-2.306-9.994-12.341-16.337-22.351-14.147l-11.526,2.521
	c-9.053,1.98-15.393,10.444-14.746,19.687l2.271,32.574l-0.925,8.326c-0.457,4.117,2.509,7.825,6.626,8.282
	c4.122,0.455,7.825-2.51,8.282-6.626l1-9c0.05-0.448,0.06-0.9,0.027-1.35l-2.319-33.251c-0.131-1.873,1.153-3.587,2.988-3.988
	l11.526-2.521c2.034-0.441,4.063,0.842,4.53,2.867l12.485,54.103c0.353,1.528,1.176,2.908,2.353,3.944l25,22
	c1.389,1.221,3.155,1.87,4.956,1.87c0.72,0,1.445-0.104,2.154-0.316l20-6c3.172-0.952,5.345-3.872,5.345-7.184v-31
	c0-0.613-0.075-1.224-0.224-1.819L309.277,246.681z"/>
<path d="M414.482,316.384c-1.299-3.91-4.043-7.081-7.727-8.929L399.864,304c4.948-14.948,7.636-30.915,7.636-47.501
	c0-17.236-2.9-33.805-8.226-49.255l7.705-4.448c7.366-4.253,9.899-13.706,5.646-21.073l-10.073-17.447
	c-2.06-3.569-5.387-6.122-9.367-7.188c-3.98-1.066-8.137-0.519-11.706,1.542l-6.738,3.89c-1.374-1.732-2.794-3.424-4.241-5.093
	v-47.365C370.501,94.588,357.913,82,342.439,82h-3.938V27.729C338.501,12.439,326.063,0,310.772,0H201.23
	c-15.291,0-27.729,12.439-27.729,27.729V82h-3.938c-15.474,0-28.062,12.588-28.062,28.062v47.365
	c-1.446,1.669-2.867,3.361-4.241,5.093l-6.738-3.89c-3.567-2.06-7.724-2.607-11.706-1.542c-3.98,1.067-7.308,3.62-9.367,7.188
	l-10.073,17.448c-4.253,7.367-1.72,16.82,5.646,21.073l7.705,4.448c-5.326,15.45-8.226,32.019-8.226,49.255
	c0,16.586,2.688,32.553,7.636,47.501l-6.892,3.455c-3.683,1.847-6.427,5.018-7.726,8.928c-1.298,3.911-0.996,8.093,0.852,11.776
	l9.028,18.01c1.847,3.684,5.018,6.428,8.929,7.727c1.599,0.53,3.241,0.794,4.877,0.794c2.368,0,4.722-0.552,6.899-1.644l8.02-4.021
	c1.729,2.235,3.528,4.412,5.376,6.545v46.368c0,15.473,12.588,28.062,28.062,28.062h3.938v54.271
	c0,15.29,12.438,27.729,27.729,27.729h109.543c15.29,0,27.729-12.439,27.729-27.729V430h3.938c15.474,0,28.062-12.588,28.062-28.062
	v-46.375c1.848-2.131,3.649-4.305,5.376-6.538l8.02,4.021c2.179,1.092,4.531,1.644,6.899,1.644c1.636,0,3.279-0.264,4.877-0.794
	c3.911-1.299,7.082-4.043,8.928-7.727l9.029-18.009C415.479,324.478,415.78,320.295,414.482,316.384z M388.98,171.62
	c0.042-0.024,0.152-0.089,0.324-0.042c0.17,0.045,0.234,0.156,0.259,0.199l10.073,17.447c0.117,0.204,0.048,0.466-0.156,0.583
	l-4.827,2.787l-10.5-18.187L388.98,171.62z M188.501,27.729c0-7.019,5.71-12.729,12.729-12.729h109.543
	c7.019,0,12.729,5.71,12.729,12.729V82h-135V27.729H188.501z M156.501,110.062c0-7.202,5.859-13.062,13.062-13.062H342.44
	c7.202,0,13.062,5.859,13.062,13.062v32.307C328.864,119.114,294.054,105,256.001,105s-72.863,14.114-99.5,37.369V110.062z
	 M112.522,189.807c-0.204-0.118-0.273-0.379-0.156-0.583l10.073-17.448c0.024-0.042,0.089-0.153,0.259-0.198
	c0.043-0.012,0.082-0.016,0.117-0.016c0.105,0,0.176,0.041,0.207,0.059l4.827,2.787l-10.5,18.187L112.522,189.807z M121.382,339.637
	c-0.044,0.022-0.157,0.08-0.326,0.023c-0.168-0.056-0.225-0.17-0.247-0.213l-9.029-18.011c-0.021-0.043-0.079-0.158-0.023-0.325
	s0.171-0.225,0.213-0.247l4.983-2.498l9.412,18.772L121.382,339.637z M323.501,484.271c0,7.019-5.71,12.729-12.729,12.729H201.23
	c-7.019,0-12.729-5.71-12.729-12.729V430h135V484.271z M355.501,401.938c0,7.202-5.859,13.062-13.062,13.062H169.563
	c-7.202,0-13.062-5.859-13.062-13.062v-31.295C183.136,393.896,217.95,408,256.001,408s72.865-14.104,99.5-37.356V401.938z
	 M256.001,393c-75.267,0-136.5-61.234-136.5-136.5S180.734,120,256.001,120s136.5,61.234,136.5,136.5S331.268,393,256.001,393z
	 M400.223,321.438l-9.03,18.01c-0.021,0.043-0.078,0.158-0.246,0.213c-0.168,0.056-0.282-0.001-0.326-0.023l-4.982-2.498
	l9.412-18.772l4.982,2.498c0.043,0.022,0.158,0.08,0.214,0.247S400.244,321.393,400.223,321.438z"/>
<path style="fill:#ED1100;" d="M234.461,313.403l-7.173-5.478l6.476-6.286c2.972-2.885,3.042-7.633,0.156-10.605
	c-2.885-2.972-7.634-3.042-10.604-0.157l-8.081,7.845l-8.951-6.836c-3.293-2.513-7.998-1.882-10.513,1.409
	c-2.514,3.292-1.883,7.999,1.409,10.513l7.173,5.478l-6.476,6.287c-2.973,2.885-3.043,7.633-0.157,10.605
	c1.471,1.515,3.425,2.276,5.382,2.276c1.882,0,3.767-0.704,5.223-2.119l8.082-7.845l8.952,6.836c1.359,1.038,2.959,1.54,4.546,1.54
	c2.258,0,4.49-1.016,5.967-2.949C238.384,320.624,237.753,315.917,234.461,313.403z"/>
<g>
</g>
<g>
</g>
<g>
</g>
<g>
</g>
<g>
</g>
<g>
</g>
<g>
</g>
<g>
</g>
<g>
</g>
<g>
</g>
<g>
</g>
<g>
</g>
<g>
</g>
<g>
</g>
<g>
</g>
</svg>
