<?xml version="1.0" encoding="iso-8859-1"?>
<!-- Generator: Adobe Illustrator 19.0.0, SVG Export Plug-In . SVG Version: 6.00 Build 0)  -->
<svg version="1.1" id="Capa_1" xmlns="http://www.w3.org/2000/svg" xmlns:xlink="http://www.w3.org/1999/xlink" x="0px" y="0px"
	 viewBox="0 0 512.005 512.005" style="enable-background:new 0 0 512.005 512.005;" xml:space="preserve">
<path style="fill:#2FE0A0;" d="M449.784,146.675c-7.693-8.406-25.588-29.379-25.588-42.536c0-17.363,14.126-31.489,31.489-31.489
	s31.489,14.126,31.489,31.489c0,13.132-17.895,34.12-25.59,42.533l0,0C458.415,150.139,452.955,150.14,449.784,146.675
	L449.784,146.675z"/>
<path style="fill:#AA9572;" d="M127.227,7.28c-11.332,0.018-21.99,4.458-30.009,12.502s-12.427,18.717-12.409,30.05
	c0.036,23.39,19.096,42.421,42.486,42.421h0.057l230.866-0.1V7.021L127.227,7.28z"/>
<path style="fill:#E2D3B7;" d="M130.964,158.121V91.25l210.541-0.098c1.286-0.001,1.62-1.756,0.434-2.25
	c-16.508-6.874-27.784-23.875-26.025-43.203c1.864-20.484,18.53-36.864,39.041-38.404c24.895-1.87,45.751,17.857,45.751,42.363
	l0.237,107.464L130.964,158.121z"/>
<polygon style="fill:#AA9572;" points="97.567,240.094 130.954,157.122 400.941,157.122 367.555,240.094 "/>
<polygon style="fill:#C4B49D;" points="130.794,323.066 97.567,240.094 367.555,240.094 400.704,323.066 "/>
<path style="fill:#E2D3B7;" d="M130.794,503.637V323.066h269.91v175.618c0,3.491-2.83,6.321-6.321,6.321h-262.22
	C131.407,505.005,130.794,504.393,130.794,503.637z"/>
<polygon style="fill:#CCB796;" points="130.964,91.25 130.954,157.122 163.443,157.122 163.453,91.25 "/>
<polygon style="fill:#917957;" points="130.954,157.122 97.567,240.094 130.057,240.094 163.443,157.122 "/>
<polygon style="fill:#AF9B80;" points="97.567,240.094 130.794,323.066 163.283,323.066 130.057,240.094 "/>
<path style="fill:#CCB796;" d="M130.794,323.066v180.585c0,0.748,0.607,1.355,1.355,1.355h31.135V323.066H130.794z"/>
<circle style="fill:#13A86F;" cx="455.69" cy="104.138" r="12.362"/>
<path d="M455.686,159.621c1.914,0,3.829-0.729,5.291-2.186c5.543-5.521,33.196-34.042,33.196-53.295
	c0-21.222-17.265-38.487-38.487-38.487s-38.487,17.265-38.487,38.487c0,19.254,27.653,47.774,33.196,53.295
	C451.857,158.892,453.771,159.621,455.686,159.621z M455.686,80.647c12.954,0,23.492,10.538,23.492,23.492
	c0,8.275-12.418,25.024-23.494,37.137c-11.076-12.103-23.49-28.843-23.49-37.137C432.194,91.186,442.732,80.647,455.686,80.647z"/>
<circle cx="455.69" cy="104.138" r="12.362"/>
<path d="M402.886,290.755c0.024,4.126,3.376,7.453,7.496,7.453c0.015,0,0.03,0,0.045,0l1.989-0.012
	c13.753-0.08,26.653-5.511,36.322-15.293c9.67-9.783,14.95-22.744,14.87-36.498l-0.11-18.984c-0.024-4.126-3.376-7.455-7.496-7.455
	c-0.015,0-0.03,0-0.045,0c-4.141,0.024-7.478,3.4-7.453,7.54l0.11,18.984c0.057,9.749-3.687,18.937-10.539,25.869
	c-6.853,6.934-15.997,10.783-25.745,10.839l-1.989,0.012C406.199,283.237,402.862,286.614,402.886,290.755z"/>
<path d="M66.316,352.056c4.142,0,7.497-3.357,7.497-7.497s-3.356-7.497-7.497-7.497H51.321c-10.198,0-18.494-8.296-18.494-18.494
	c0-10.198,8.296-18.494,18.494-18.494h14.995c4.142,0,7.497-3.357,7.497-7.497c0-4.141-3.356-7.497-7.497-7.497H51.321
	c-18.466,0-33.489,15.023-33.489,33.489s15.023,33.489,33.489,33.489H66.316z"/>
<path d="M94.307,389.044H79.312c-18.466,0-33.489,15.023-33.489,33.489c0,4.141,3.356,7.497,7.497,7.497s7.497-3.357,7.497-7.497
	c0-10.198,8.296-18.494,18.494-18.494h14.995c4.142,0,7.497-3.357,7.497-7.497S98.447,389.044,94.307,389.044z"/>
<path d="M454.186,337.061h-14.995c-4.142,0-7.497,3.357-7.497,7.497s3.356,7.497,7.497,7.497h14.995
	c10.198,0,18.494,8.296,18.494,18.494c0,10.198-8.296,18.494-18.494,18.494h-14.995c-4.142,0-7.497,3.357-7.497,7.497
	s3.356,7.497,7.497,7.497h14.995c18.466,0,33.489-15.023,33.489-33.489S472.651,337.061,454.186,337.061z"/>
<path d="M448.688,178.614v19.993c0,4.141,3.356,7.497,7.497,7.497c4.142,0,7.497-3.357,7.497-7.497v-19.993
	c0-4.141-3.356-7.497-7.497-7.497C452.044,171.117,448.688,174.474,448.688,178.614z"/>
<path d="M104.303,337.061H91.308c-4.142,0-7.497,3.357-7.497,7.497s3.356,7.497,7.497,7.497h12.996c4.142,0,7.497-3.357,7.497-7.497
	S108.444,337.061,104.303,337.061z"/>
<path d="M414.2,389.044h-6.498v-36.988h6.498c4.142,0,7.497-3.357,7.497-7.497s-3.356-7.497-7.497-7.497h-6.498v-13.495
	c0-0.017-0.002-0.033-0.002-0.049c0-0.073-0.009-0.146-0.011-0.22c-0.008-0.214-0.021-0.425-0.046-0.634
	c-0.011-0.087-0.026-0.174-0.04-0.261c-0.032-0.202-0.07-0.402-0.118-0.599c-0.02-0.081-0.04-0.161-0.062-0.242
	c-0.061-0.219-0.131-0.433-0.21-0.643c-0.016-0.041-0.025-0.083-0.041-0.124l-31.887-80.202l31.887-80.202
	c0.016-0.041,0.025-0.083,0.041-0.124c0.079-0.21,0.15-0.424,0.21-0.643c0.022-0.081,0.043-0.161,0.062-0.242
	c0.047-0.197,0.086-0.396,0.118-0.599c0.014-0.087,0.029-0.173,0.04-0.261c0.025-0.209,0.038-0.42,0.046-0.634
	c0.003-0.073,0.011-0.146,0.011-0.22c0-0.017,0.002-0.033,0.002-0.049V49.655c0-26.731-21.305-48.579-47.826-49.456
	c-0.556-0.13-1.108-0.194-1.73-0.199L127.22,0.282C99.935,0.324,77.771,22.556,77.812,49.841
	c0.041,26.144,20.451,47.586,46.155,49.297v56.619l-32.629,82.067c-0.013,0.034-0.021,0.069-0.033,0.102
	c-0.055,0.143-0.097,0.289-0.143,0.435c-0.046,0.146-0.095,0.291-0.131,0.439c-0.036,0.145-0.059,0.293-0.086,0.44
	c-0.028,0.151-0.059,0.302-0.078,0.454c-0.018,0.148-0.023,0.298-0.032,0.447c-0.009,0.152-0.022,0.303-0.022,0.455
	c0,0.152,0.013,0.303,0.022,0.455c0.009,0.149,0.014,0.298,0.032,0.447c0.019,0.152,0.05,0.302,0.078,0.454
	c0.027,0.147,0.051,0.294,0.086,0.44c0.036,0.148,0.085,0.293,0.131,0.439c0.046,0.146,0.088,0.292,0.143,0.435
	c0.013,0.034,0.02,0.069,0.033,0.102l15.791,39.716H91.308c-4.142,0-7.497,3.357-7.497,7.497c0,4.141,3.356,7.497,7.497,7.497
	h21.783l10.706,26.928v179.503c0,4.141,3.356,7.498,7.497,7.498h268.91c4.142,0,7.497-3.357,7.497-7.498V404.041h6.498
	c4.142,0,7.497-3.357,7.497-7.497S418.34,389.044,414.2,389.044z M357.622,15.174c19.294-0.329,35.085,15.874,35.085,35.17v99.78
	H338.77c-4.141,0-7.497,3.357-7.497,7.497l0,0c0,4.141,3.357,7.497,7.497,7.497h50.385l-27.027,67.977H142.593l27.027-67.977
	h120.364c4.141,0,7.497-3.357,7.497-7.497l0,0c0-4.141-3.357-7.497-7.497-7.497H172.201V99.228l185.707-0.086
	c4.105-0.002,7.682-3.165,7.805-7.268c0.127-4.246-3.277-7.727-7.495-7.727c-19.017,0-34.488-15.472-34.488-34.488
	C323.73,30.84,338.879,15.494,357.622,15.174z M157.206,150.124h-18.244V99.243l18.244-0.008V150.124z M92.807,49.818
	c-0.029-19.017,15.419-34.512,34.433-34.541l195.652-0.236c-8.753,8.931-14.156,21.155-14.156,34.617
	c0,13.407,5.359,25.584,14.047,34.505l-195.487,0.091c-0.016,0,0.066,0,0.053,0l0,0h-0.053
	C108.304,84.254,92.836,68.816,92.807,49.818z M136.381,165.119h17.102l-27.027,67.977h-17.102L136.381,165.119z M125.097,287.689
	c-0.006-0.014-0.011-0.028-0.017-0.042l-15.727-39.556h17.102l27.027,67.977H136.38L125.097,287.689z M157.036,497.008h-18.244
	V331.063h18.244V497.008z M142.593,248.091h219.535l13.911,34.988h-12.823c-4.142,0-7.497,3.357-7.497,7.497
	c0,4.141,3.356,7.497,7.497,7.497h13.995c1.583,0,3.05-0.494,4.26-1.332l7.683,19.326H169.62L142.593,248.091z M392.707,497.008
	H172.031v-96.325c1.343,2.022,3.639,3.356,6.248,3.356h13.995c4.142,0,7.497-3.357,7.497-7.497s-3.356-7.497-7.497-7.497h-13.995
	c-2.609,0-4.905,1.335-6.248,3.356v-61.336h220.676V497.008z"/>
<path d="M192.274,283.079h-13.995c-4.142,0-7.497,3.357-7.497,7.497c0,4.141,3.356,7.497,7.497,7.497h13.995
	c4.142,0,7.497-3.357,7.497-7.497C199.771,286.436,196.414,283.079,192.274,283.079z"/>
<path d="M229.261,283.079h-13.995c-4.142,0-7.497,3.357-7.497,7.497c0,4.141,3.356,7.497,7.497,7.497h13.995
	c4.142,0,7.497-3.357,7.497-7.497C236.759,286.436,233.402,283.079,229.261,283.079z"/>
<path d="M266.249,283.079h-13.995c-4.142,0-7.497,3.357-7.497,7.497c0,4.141,3.356,7.497,7.497,7.497h13.995
	c4.142,0,7.497-3.357,7.497-7.497C273.747,286.436,270.39,283.079,266.249,283.079z"/>
<path d="M303.237,283.079h-13.995c-4.142,0-7.497,3.357-7.497,7.497c0,4.141,3.356,7.497,7.497,7.497h13.995
	c4.142,0,7.497-3.357,7.497-7.497C310.734,286.436,307.377,283.079,303.237,283.079z"/>
<path d="M340.224,283.079h-13.995c-4.142,0-7.497,3.357-7.497,7.497c0,4.141,3.356,7.497,7.497,7.497h13.995
	c4.142,0,7.497-3.357,7.497-7.497C347.722,286.436,344.365,283.079,340.224,283.079z"/>
<path d="M377.212,389.044h-13.995c-4.142,0-7.497,3.357-7.497,7.497s3.356,7.497,7.497,7.497h13.995
	c4.142,0,7.497-3.357,7.497-7.497S381.353,389.044,377.212,389.044z"/>
<path d="M340.224,389.044h-13.995c-4.142,0-7.497,3.357-7.497,7.497s3.356,7.497,7.497,7.497h13.995
	c4.142,0,7.497-3.357,7.497-7.497S344.365,389.044,340.224,389.044z"/>
<path d="M303.237,389.044h-13.995c-4.142,0-7.497,3.357-7.497,7.497s3.356,7.497,7.497,7.497h13.995
	c4.142,0,7.497-3.357,7.497-7.497S307.377,389.044,303.237,389.044z"/>
<path d="M266.249,389.044h-13.995c-4.142,0-7.497,3.357-7.497,7.497s3.356,7.497,7.497,7.497h13.995
	c4.142,0,7.497-3.357,7.497-7.497S270.39,389.044,266.249,389.044z"/>
<path d="M229.261,389.044h-13.995c-4.142,0-7.497,3.357-7.497,7.497s3.356,7.497,7.497,7.497h13.995
	c4.142,0,7.497-3.357,7.497-7.497S233.402,389.044,229.261,389.044z"/>
<path style="fill:#ED1100;" d="M77.31,441.678c-3.036-2.815-7.78-2.635-10.595,0.401l-12.697,13.696L41.811,441.64
	c-2.706-3.134-7.44-3.481-10.575-0.774c-3.134,2.707-3.48,7.44-0.774,10.574l13.3,15.4l-13.832,14.921
	c-2.815,3.037-2.636,7.78,0.401,10.595c1.443,1.338,3.271,1.999,5.095,1.999c2.014,0,4.023-0.807,5.5-2.4l12.697-13.696
	l12.207,14.135c1.483,1.717,3.574,2.597,5.678,2.597c1.735,0,3.48-0.6,4.897-1.823c3.134-2.707,3.48-7.44,0.774-10.574l-13.3-15.4
	l13.832-14.921C80.527,449.237,80.347,444.494,77.31,441.678z"/>
<g>
</g>
<g>
</g>
<g>
</g>
<g>
</g>
<g>
</g>
<g>
</g>
<g>
</g>
<g>
</g>
<g>
</g>
<g>
</g>
<g>
</g>
<g>
</g>
<g>
</g>
<g>
</g>
<g>
</g>
</svg>
