<?xml version="1.0" encoding="iso-8859-1"?>
<!-- Generator: Adobe Illustrator 19.0.0, SVG Export Plug-In . SVG Version: 6.00 Build 0)  -->
<svg version="1.1" id="Capa_1" xmlns="http://www.w3.org/2000/svg" xmlns:xlink="http://www.w3.org/1999/xlink" x="0px" y="0px"
	 viewBox="0 0 512 512" style="enable-background:new 0 0 512 512;" xml:space="preserve">
<path style="fill:#4C4845;" d="M148.289,44.301v-31.13c0-3.401,2.756-6.157,6.157-6.157h15.74c3.402,0,6.158,2.756,6.158,6.157V44.3
	h-28.055V44.301z"/>
<path style="fill:#35312F;" d="M235.459,44.301V16.326c0-4.59,3.72-8.31,8.31-8.31h90.589c4.59,0,8.31,3.72,8.31,8.31v27.975
	C342.668,44.301,235.459,44.301,235.459,44.301z"/>
<path style="fill:#4C4845;" d="M201.392,44.301V16.326c0-4.59,3.72-8.31,8.31-8.31h90.589c4.59,0,8.31,3.72,8.31,8.31v27.975
	C308.602,44.301,201.392,44.301,201.392,44.301z"/>
<path style="fill:#F0EBD2;" d="M120.234,192.376V57.315c0-13.924,11.328-25.252,25.252-25.252h221.026
	c13.924,0,25.252,11.328,25.252,25.252v135.061H120.234z"/>
<g>
	<path style="fill:#D8CEA3;" d="M264.411,173.602c-30.663,0-55.609-24.946-55.609-55.609s24.946-55.609,55.609-55.609
		s55.609,24.946,55.609,55.609S295.073,173.602,264.411,173.602z"/>
	<path style="fill:#D8CEA3;" d="M169.086,126.715V32.063h-23.601c-13.945,0-25.251,11.306-25.251,25.252v135.061h271.53v-31.165
		H203.582C184.53,161.211,169.086,145.767,169.086,126.715z"/>
</g>
<polygon style="fill:#EA3F28;" points="211.412,138.771 211.412,146.829 211.412,192.376 300.586,192.376 300.586,146.828 
	300.586,138.771 "/>
<polygon style="fill:#1F87E5;" points="271.028,192.376 300.586,192.376 300.586,146.828 300.586,138.771 271.028,138.771 "/>
<rect x="239.968" y="138.771" style="fill:#78B528;" width="32.063" height="53.605"/>
<path style="fill:#4C4845;" d="M168.829,152.297c-7.459,0-13.526-6.068-13.526-13.526c0-7.459,6.068-13.526,13.526-13.526
	c7.459,0,13.526,6.068,13.526,13.526C182.355,146.23,176.287,152.297,168.829,152.297z"/>
<path style="fill:#3A3735;" d="M167.413,136.514c0-4.354,2.076-8.223,5.281-10.699c-1.226-0.367-2.522-0.57-3.866-0.57
	c-7.459,0-13.526,6.068-13.526,13.526c0,7.459,6.068,13.526,13.526,13.526c3.105,0,5.96-1.062,8.245-2.828
	C171.494,147.802,167.413,142.628,167.413,136.514z"/>
<path style="fill:#878164;" d="M143.279,70.101V59.152c0-2.786,2.259-5.046,5.046-5.046h22.973c2.786,0,5.046,2.259,5.046,5.046
	v10.949c0,2.786-2.259,5.046-5.046,5.046h-22.973C145.538,75.147,143.279,72.887,143.279,70.101z"/>
<path style="fill:#68634F;" d="M171.298,54.106h-22.973c-2.786,0-5.046,2.259-5.046,5.046v0.065h20.504
	c2.786,0,5.046,2.259,5.046,5.046v10.884h2.469c2.786,0,5.046-2.259,5.046-5.046V59.152
	C176.343,56.365,174.084,54.106,171.298,54.106z"/>
<path style="fill:#3A3735;" d="M346.127,91.178c-6.326,0-11.474-5.147-11.474-11.474V65.58c0-6.327,5.148-11.474,11.474-11.474
	h14.124c6.326,0,11.474,5.147,11.474,11.474v14.124c0,6.327-5.148,11.474-11.474,11.474H346.127z"/>
<path style="fill:#35312F;" d="M360.251,54.106h-14.124c-5.531,0-10.161,3.935-11.238,9.152h13.337
	c6.326,0,11.474,5.147,11.474,11.474v14.124c0,0.796-0.082,1.573-0.237,2.324h0.786c6.328-0.001,11.476-5.148,11.476-11.475V65.58
	C371.725,59.253,366.577,54.106,360.251,54.106z"/>
<path style="fill:#3A3735;" d="M255.999,167.327c-30.663,0-55.609-24.946-55.609-55.609s24.946-55.609,55.609-55.609
	s55.609,24.946,55.609,55.609S286.662,167.327,255.999,167.327z"/>
<path style="fill:#35312F;" d="M247.587,69.636c30.663,0,55.609,24.946,55.609,55.609c0,7.899-1.666,15.414-4.649,22.226
	c8.143-9.675,13.062-22.147,13.062-35.753c0-30.663-24.946-55.609-55.609-55.609c-22.763,0-42.365,13.754-50.96,33.382
	C215.248,77.362,230.529,69.636,247.587,69.636z"/>
<path style="fill:#6D6864;" d="M255.999,146.278c-19.056,0-34.559-15.503-34.559-34.559s15.503-34.56,34.559-34.56
	s34.559,15.503,34.559,34.56S275.055,146.278,255.999,146.278z"/>
<path style="fill:#565350;" d="M262.362,140.533c-19.056,0-34.56-15.503-34.56-34.56c0-8.627,3.184-16.519,8.43-22.58
	c-8.934,6.254-14.794,16.614-14.794,28.324c0,19.056,15.503,34.559,34.559,34.559c10.429,0,19.788-4.65,26.129-11.978
	C276.522,138.222,269.709,140.533,262.362,140.533z"/>
<path style="fill:#3A3735;" d="M255.999,128.191c-9.084,0-16.473-7.389-16.473-16.473s7.389-16.473,16.473-16.473
	c9.084,0,16.473,7.389,16.473,16.473S265.083,128.191,255.999,128.191z"/>
<path style="fill:#282523;" d="M255.999,120.131c-4.638,0-8.412-3.773-8.412-8.412c0-4.639,3.773-8.412,8.412-8.412
	c4.638,0,8.412,3.773,8.412,8.412C264.411,116.357,260.637,120.131,255.999,120.131z"/>
<path style="fill:#211D1A;" d="M255.999,103.306c-3.129,0-5.859,1.721-7.308,4.263c0.4-0.058,0.806-0.099,1.221-0.099
	c4.638,0,8.412,3.773,8.412,8.412c0,1.509-0.405,2.923-1.103,4.149c4.06-0.594,7.191-4.091,7.191-8.313
	C264.411,107.08,260.637,103.306,255.999,103.306z"/>
<polygon style="fill:#FAF7E6;" points="89.173,270.528 119.845,191.374 392.153,191.374 422.825,270.528 "/>
<path style="fill:#E2DAB5;" d="M167.513,217.926h234.928l-10.288-26.552H119.845l-30.672,79.155h40.097l13.93-35.95
	C147.09,224.542,156.748,217.926,167.513,217.926z"/>
<polygon style="fill:#F75B4F;" points="192.082,270.528 211.412,191.374 300.479,191.374 319.917,270.528 "/>
<polygon style="fill:#E54941;" points="306.999,217.926 300.479,191.374 211.412,191.374 204.927,217.926 "/>
<polygon style="fill:#2DA6EA;" points="276.076,270.528 272.03,191.374 300.586,191.374 319.917,270.528 "/>
<polygon style="fill:#1398D3;" points="306.999,217.926 300.479,191.374 272.03,191.374 273.387,217.926 "/>
<polygon style="fill:#AAE849;" points="234.916,270.528 239.968,191.374 272.03,191.374 277.081,270.528 "/>
<polygon style="fill:#9CD638;" points="273.725,217.926 272.03,191.374 239.968,191.374 238.273,217.926 "/>
<path style="fill:#3A3735;" d="M89.173,270.528v65.964c0,7.273,5.918,13.191,13.191,13.191h40.915h223.436h42.919
	c7.273,0,13.191-5.918,13.191-13.191v-65.964H89.173z"/>
<path style="fill:#FAF7E6;" d="M150.834,505.988c-4.717,0-8.557-3.839-8.557-8.557V310.607h225.44v186.825
	c0,4.717-3.839,8.557-8.556,8.557L150.834,505.988L150.834,505.988z"/>
<g>
	<path style="fill:#DBD5B6;" d="M254.751,485.949c-33.397,0-60.471-27.074-60.471-60.471V310.607h-52.003v186.825
		c0,4.725,3.83,8.557,8.557,8.557h208.328c4.725,0,8.556-3.83,8.556-8.556v-11.483H254.751z"/>
	<rect x="142.277" y="310.607" style="fill:#DBD5B6;" width="225.44" height="41.361"/>
</g>
<path style="fill:#CEB997;" d="M175.341,467.245V310.607h159.311v156.638c0,3.136-2.543,5.679-5.679,5.679H181.021
	C177.884,472.924,175.341,470.381,175.341,467.245z"/>
<rect x="175.341" y="310.607" style="fill:#C6B291;" width="159.311" height="41.361"/>
<path d="M255.999,94.184c-9.668,0-17.534,7.866-17.534,17.534s7.866,17.534,17.534,17.534c9.668,0,17.534-7.866,17.534-17.534
	S265.667,94.184,255.999,94.184z M255.999,114.223c-1.381,0-2.505-1.124-2.505-2.505c0-1.381,1.124-2.505,2.505-2.505
	c1.382,0,2.505,1.124,2.505,2.505C258.504,113.099,257.381,114.223,255.999,114.223z"/>
<path d="M255.999,134.262c-12.431,0-22.544-10.113-22.544-22.544c0-4.15-3.365-7.515-7.515-7.515s-7.515,3.365-7.515,7.515
	c0,20.718,16.855,37.573,37.573,37.573c4.151,0,7.515-3.365,7.515-7.515C263.514,137.627,260.15,134.262,255.999,134.262z"/>
<path d="M293.572,111.718c0-20.718-16.855-37.573-37.573-37.573c-4.15,0-7.515,3.365-7.515,7.515c0,4.15,3.365,7.515,7.515,7.515
	c12.43,0,22.544,10.113,22.544,22.544c0,4.15,3.364,7.515,7.515,7.515C290.209,119.233,293.572,115.868,293.572,111.718z"/>
<path d="M346.127,98.192h14.124c10.195,0,18.488-8.294,18.488-18.488V65.58c0-10.194-8.293-18.488-18.488-18.488h-14.124
	c-10.195,0-18.488,8.294-18.488,18.488v14.124C327.639,89.898,335.932,98.192,346.127,98.192z M342.668,65.58
	c0-1.907,1.552-3.459,3.459-3.459h14.124c1.907,0,3.459,1.552,3.459,3.459v14.124c0,1.907-1.552,3.459-3.459,3.459h-14.124
	c-1.907,0-3.459-1.552-3.459-3.459V65.58z"/>
<path d="M169.776,82.16c7.489,0,13.582-6.093,13.582-13.582v-7.906c0-7.488-6.093-13.581-13.582-13.581h-19.93
	c-7.488,0-13.581,6.093-13.581,13.582v7.906c0,7.488,6.093,13.581,13.582,13.581H169.776z M151.295,62.121h17.033v5.01h-17.033
	V62.121z"/>
<path d="M168.829,118.231c-11.326,0-20.54,9.214-20.54,20.54c0,11.326,9.214,20.54,20.54,20.54c11.326,0,20.54-9.214,20.54-20.54
	C189.369,127.445,180.155,118.231,168.829,118.231z M168.829,144.282c-3.039,0-5.511-2.472-5.511-5.511s2.472-5.511,5.511-5.511
	c3.039,0,5.511,2.472,5.511,5.511S171.868,144.282,168.829,144.282z"/>
<circle cx="331.146" cy="159.812" r="8.517"/>
<circle cx="359.201" cy="159.812" r="8.517"/>
<path d="M429.838,270.001c0-0.06-0.007-0.119-0.009-0.179c-0.006-0.227-0.019-0.452-0.045-0.674
	c-0.01-0.083-0.025-0.165-0.038-0.248c-0.031-0.205-0.069-0.409-0.116-0.608c-0.019-0.079-0.039-0.158-0.061-0.237
	c-0.059-0.216-0.127-0.428-0.204-0.636c-0.015-0.04-0.024-0.082-0.039-0.122l-30.514-78.153c-0.009-0.023-0.023-0.044-0.032-0.067
	V57.315c-0.001-17.792-14.475-32.266-32.267-32.266h-14.826v-9.415c0-8.068-6.564-14.632-14.632-14.632H209.01
	c-8.068,0-14.632,6.564-14.632,14.632v9.415h-11.022V13.704C183.357,6.148,177.209,0,169.653,0h-14.675
	c-7.556,0-13.704,6.148-13.704,13.704v11.629c-15.808,2.071-28.055,15.619-28.055,31.981v131.76
	c-0.009,0.023-0.023,0.044-0.032,0.067l-30.514,78.153c-0.016,0.041-0.025,0.083-0.04,0.125c-0.077,0.207-0.145,0.418-0.203,0.633
	c-0.022,0.08-0.042,0.159-0.061,0.24c-0.047,0.199-0.085,0.402-0.115,0.606c-0.013,0.083-0.028,0.166-0.038,0.249
	c-0.026,0.221-0.039,0.447-0.045,0.674c-0.002,0.06-0.009,0.119-0.009,0.179c0,0.009-0.001,0.018-0.001,0.026v65.463
	c-0.002,11.141,9.062,20.204,20.202,20.204h32.899V496.43c0,8.585,6.985,15.57,15.57,15.57h208.328
	c8.585,0,15.569-6.985,15.569-15.57V355.695h34.903c11.141,0,20.204-9.064,20.204-20.204v-65.463
	C429.839,270.018,429.838,270.01,429.838,270.001z M411.323,262.513H325.17l-15.502-63.123h77.009L411.323,262.513z
	 M248.629,199.389h14.742l5.031,63.123h-24.804L248.629,199.389z M247.983,184.36v-10.54c2.625,0.338,5.299,0.52,8.016,0.52
	s5.391-0.181,8.016-0.52v10.54H247.983z M255.999,159.311c-26.242,0-47.593-21.351-47.593-47.593s21.351-47.593,47.593-47.593
	s47.593,21.351,47.593,47.593S282.241,159.311,255.999,159.311z M233.551,199.389l-5.032,63.123h-26.215l15.501-63.123H233.551z
	 M219.428,184.36v-21.856c4.156,3.001,8.697,5.498,13.526,7.421v14.435H219.428z M292.57,162.504v21.856h-13.526v-14.435
	C283.873,168.002,288.414,165.506,292.57,162.504z M294.193,199.389l15.502,63.123h-26.216l-5.032-63.123H294.193z M315.615,16.031
	h21.041v9.018h-21.041V16.031z M209.408,16.031h91.178v9.018h-91.178V16.031z M156.304,15.029h12.023v10.02h-12.023V15.029z
	 M128.249,57.315c0-9.505,7.732-17.237,17.237-17.237h221.026c9.504,0,17.237,7.732,17.237,17.237V184.36H307.6v-37.215
	c6.945-10.083,11.022-22.286,11.022-35.427c0-34.529-28.092-62.622-62.622-62.622c-34.529,0-62.622,28.093-62.622,62.622
	c0,13.142,4.077,25.344,11.022,35.427v37.215h-76.149V57.315z M125.321,199.389h77.008l-15.501,63.123h-86.153L125.321,199.389z
	 M359.702,496.43c0,0.298-0.242,0.541-0.54,0.541H150.834c-0.298,0-0.541-0.242-0.541-0.541V317.62h18.035v153.8
	c0,4.15,3.365,7.515,7.515,7.515h158.309c4.151,0,7.515-3.365,7.515-7.515v-153.8h18.035V496.43z M414.809,335.49
	c0,2.859-2.317,5.175-5.175,5.175h-34.903v-23.546h21.728c4.115,0,7.703-3.17,7.826-7.283c0.128-4.255-3.283-7.746-7.512-7.746
	h-99.462c-4.288,0-7.765,3.477-7.765,7.765l0,0c0,4.288,3.477,7.765,7.765,7.765h29.325v146.286h-143.28V317.62h64.557
	c4.288,0,7.765-3.477,7.765-7.765l0,0c0-4.288-3.477-7.765-7.765-7.765H121.55c-4.115,0-7.703,3.17-7.826,7.283
	c-0.128,4.255,3.284,7.746,7.512,7.746h14.027v23.546h-32.899c-2.859,0-5.175-2.317-5.175-5.175v-57.948h317.62V335.49z"/>
<g>
</g>
<g>
</g>
<g>
</g>
<g>
</g>
<g>
</g>
<g>
</g>
<g>
</g>
<g>
</g>
<g>
</g>
<g>
</g>
<g>
</g>
<g>
</g>
<g>
</g>
<g>
</g>
<g>
</g>
</svg>
