<?xml version="1.0" encoding="iso-8859-1"?>
<!-- Generator: Adobe Illustrator 19.0.0, SVG Export Plug-In . SVG Version: 6.00 Build 0)  -->
<svg version="1.1" id="Capa_1" xmlns="http://www.w3.org/2000/svg" xmlns:xlink="http://www.w3.org/1999/xlink" x="0px" y="0px"
	 viewBox="0 0 512 512" style="enable-background:new 0 0 512 512;" xml:space="preserve">
<path style="fill:#FF9100;" d="M403.437,142H389.5h-18v62h18h13.937c4.997,0,9.063-4.065,9.063-9.063v-43.875
	C412.5,146.065,408.435,142,403.437,142z"/>
<path style="fill:#FF6700;" d="M380.5,372v-57h55v37.839c0,10.565-8.596,19.161-19.161,19.161H380.5z"/>
<path style="fill:#E26007;" d="M380.5,316v-27h50.285c7.575,0,13.715,6.141,13.715,13.715v9.227c0,2.241-1.817,4.058-4.058,4.058
	H380.5z"/>
<path style="fill:#FF6700;" d="M97.661,372c-10.565,0-19.161-8.596-19.161-19.161V315h55v57H97.661z"/>
<path style="fill:#E26007;" d="M69.5,312.117v-9.402C69.5,295.14,75.641,289,83.215,289H133.5v27H73.383
	C71.238,316,69.5,314.262,69.5,312.117z"/>
<g>
	<path style="fill:#605D5B;" d="M160.5,492.192V370h32v122.192c0,1.608-0.816,3.107-2.168,3.979l-11.265,7.268
		c-1.563,1.008-3.571,1.008-5.134,0l-11.265-7.268C161.316,495.299,160.5,493.8,160.5,492.192z"/>
	<path style="fill:#605D5B;" d="M319.5,492.192V370h32v122.192c0,1.608-0.816,3.107-2.168,3.979l-11.265,7.268
		c-1.563,1.008-3.571,1.008-5.134,0l-11.265-7.268C320.316,495.299,319.5,493.8,319.5,492.192z"/>
</g>
<g>
	<path style="fill:#514A46;" d="M351.5,410.022V370h-16h-16v40.022v82.17c0,1.608,0.816,3.107,2.168,3.979l11.265,7.268
		c1.563,1.008,3.571,1.008,5.134,0l6.983-4.505l-7.382-4.763c-1.351-0.872-2.168-2.37-2.168-3.979v-73.766
		c0-3.537,2.867-6.404,6.404-6.404L351.5,410.022L351.5,410.022z"/>
	<path style="fill:#514A46;" d="M160.5,370v40.022v82.17c0,1.608,0.816,3.107,2.168,3.979l11.265,7.268
		c1.563,1.008,3.571,1.008,5.134,0l6.983-4.505l-7.382-4.763c-1.351-0.872-2.168-2.37-2.168-3.979v-73.766
		c0-3.537,2.867-6.404,6.404-6.404h9.596V370h-16H160.5z"/>
</g>
<rect x="380.5" y="289" style="fill:#CE5909;" width="16" height="27"/>
<path style="fill:#E05E05;" d="M380.5,315v57h15.681c0.203-1.584,0.319-3.195,0.319-4.834V315H380.5z"/>
<rect x="117.5" y="289" style="fill:#CE5909;" width="16" height="27"/>
<path style="fill:#E05E05;" d="M117.5,367.166c0,1.639,0.116,3.25,0.319,4.834H133.5v-57h-16V367.166z"/>
<path style="fill:#FF9100;" d="M381.5,192.989h-249v30.967v143.21c0,12.591,10.243,22.834,22.834,22.834h203.332
	c12.591,0,22.834-10.243,22.834-22.834v-143.21V192.989z"/>
<g>
	<path style="fill:#E58005;" d="M381.5,245.441v-21.485v-30.967H135.521v16.951c0,22.337,18.172,40.509,40.509,40.509h8.491v75.376
		c0,1.372,0.656,2.661,1.765,3.469l10.209,7.434c1.506,1.096,3.547,1.096,5.052,0l10.209-7.434c1.109-0.808,1.765-2.097,1.765-3.469
		v-75.376h25v26.047c0,4.937,4.016,8.953,8.953,8.953h1.047v11.386c0,5.31,4.305,9.614,9.614,9.614h19.785
		c5.31,0,9.614-4.305,9.614-9.614v-11.386h1.033c4.937,0,8.953-4.016,8.953-8.953v-26.047h27.5v75.376
		c0,1.372,0.656,2.661,1.765,3.469l10.209,7.434c1.506,1.096,3.547,1.096,5.052,0l10.209-7.434c1.109-0.808,1.765-2.097,1.765-3.469
		v-75.376h7.991C369.072,250.449,375.714,248.63,381.5,245.441z"/>
	<path style="fill:#E58005;" d="M202.334,365.806c-12.591,0-22.834-10.243-22.834-22.834v-143.21v-6.773h-47v30.967v143.21
		c0,12.591,10.243,22.834,22.834,22.834h203.332c12.591,0,22.834-10.243,22.834-22.834v-1.36L202.334,365.806L202.334,365.806z"/>
</g>
<path style="fill:#99938F;" d="M265.9,293h-19.785c-5.31,0-9.614-4.305-9.614-9.614V271h39.014v12.386
	C275.514,288.695,271.21,293,265.9,293z"/>
<path style="fill:#605D5B;" d="M235.453,272c-4.937,0-8.953-4.016-8.953-8.953V236h59v27.047c0,4.937-4.016,8.953-8.953,8.953
	H235.453z"/>
<path style="fill:#2C59C6;" d="M191.5,390v-23.643c0-11.225,9.132-20.357,20.357-20.357h90.285c11.225,0,20.357,9.132,20.357,20.357
	V390H191.5z"/>
<path style="fill:#FF9100;" d="M124.5,142h-13.938c-4.997,0-9.062,4.065-9.062,9.063v43.875c0,4.997,4.065,9.063,9.062,9.063H124.5
	h17.028v-62H124.5V142z"/>
<path style="fill:#FF6700;" d="M164.009,237c-22.337,0-40.509-18.172-40.509-40.509v-58.604c0-9.312,7.576-16.887,16.887-16.887
	h233.226c9.312,0,16.887,7.576,16.887,16.887v58.604c0,22.337-18.172,40.509-40.509,40.509H164.009z"/>
<path style="fill:#E25D03;" d="M381.339,204H195.357c-22.337,0-40.509-18.172-40.509-40.509V121h-14.461
	c-9.312,0-16.887,7.576-16.887,16.887v58.604c0,22.337,18.172,40.509,40.509,40.509H349.99c20.097,0,36.815-14.713,39.967-33.932
	C387.178,203.673,384.297,204,381.339,204z"/>
<path id="SVGCleanerId_0" style="fill:#2C59C6;" d="M233.5,183.296v-13.592c0-3.15,2.554-5.704,5.704-5.704h33.592
	c3.15,0,5.704,2.554,5.704,5.704v13.592c0,3.15-2.554,5.704-5.704,5.704h-33.592C236.054,189,233.5,186.446,233.5,183.296z"/>
<g>
	<path id="SVGCleanerId_0_1_" style="fill:#2C59C6;" d="M233.5,183.296v-13.592c0-3.15,2.554-5.704,5.704-5.704h33.592
		c3.15,0,5.704,2.554,5.704,5.704v13.592c0,3.15-2.554,5.704-5.704,5.704h-33.592C236.054,189,233.5,186.446,233.5,183.296z"/>
</g>
<path style="fill:#1547AA;" d="M272.796,164h-33.592c-3.15,0-5.704,2.554-5.704,5.704v0.444h30.074c3.15,0,5.704,2.554,5.704,5.704
	V189h3.518c3.15,0,5.704-2.554,5.704-5.704v-13.592C278.5,166.554,275.946,164,272.796,164z"/>
<g>
	<path style="fill:#605D5B;" d="M172.5,312.376V210.5h29v101.876c0,1.372-0.656,2.661-1.765,3.469l-10.209,7.434
		c-1.506,1.096-3.547,1.096-5.052,0l-10.209-7.434C173.156,315.037,172.5,313.748,172.5,312.376z"/>
	<path style="fill:#605D5B;" d="M172.5,198.19v-36.462c0-2.611,2.117-4.727,4.727-4.727h19.545c2.611,0,4.727,2.117,4.727,4.727
		v36.462H172.5z"/>
</g>
<g>
	<path style="fill:#514A46;" d="M196.68,316.267L196.68,316.267c-7.524-5.479-11.974-14.225-11.974-23.532V210.5H172.5v101.876
		c0,1.372,0.656,2.661,1.765,3.469l10.209,7.434c1.506,1.096,3.547,1.096,5.052,0l8.681-6.321
		C197.669,316.829,197.148,316.607,196.68,316.267z"/>
	<path style="fill:#514A46;" d="M184.707,191.177V157h-7.479c-2.611,0-4.727,2.117-4.727,4.727v36.462h29v-7.012L184.707,191.177
		L184.707,191.177z"/>
</g>
<path style="fill:#99938F;" d="M163.5,206.921V192.08c0-2.253,1.826-4.079,4.079-4.079h38.841c2.253,0,4.079,1.826,4.079,4.079
	v14.841c0,2.253-1.826,4.079-4.079,4.079h-38.841C165.326,211,163.5,209.174,163.5,206.921z"/>
<g>
	<path style="fill:#605D5B;" d="M313,312.376V210.5h29v101.876c0,1.372-0.656,2.661-1.765,3.469l-10.209,7.434
		c-1.506,1.096-3.547,1.096-5.052,0l-10.209-7.434C313.656,315.037,313,313.748,313,312.376z"/>
	<path style="fill:#605D5B;" d="M313,198.19v-36.462c0-2.611,2.117-4.727,4.727-4.727h19.545c2.611,0,4.727,2.117,4.727,4.727
		v36.462H313z"/>
</g>
<g>
	<path style="fill:#514A46;" d="M337.18,316.267l-10.209-7.434c-1.109-0.808-1.765-2.097-1.765-3.469V210.5H313v101.876
		c0,1.372,0.656,2.661,1.765,3.469l10.209,7.434c1.506,1.096,3.547,1.096,5.052,0l8.681-6.321
		C338.169,316.829,337.648,316.607,337.18,316.267z"/>
	<path style="fill:#514A46;" d="M325.207,191.177V157h-7.479c-2.611,0-4.727,2.117-4.727,4.727v36.462h29v-7.012L325.207,191.177
		L325.207,191.177z"/>
</g>
<path style="fill:#99938F;" d="M304,206.921V192.08c0-2.253,1.826-4.079,4.079-4.079h38.841c2.253,0,4.079,1.826,4.079,4.079v14.841
	c0,2.253-1.826,4.079-4.079,4.079h-38.841C305.826,211,304,209.174,304,206.921z"/>
<g>
	<path style="fill:#8E7C70;" d="M181.079,198.19c-2.253,0-4.079-1.826-4.079-4.079V188h-9.421c-2.253,0-4.079,1.826-4.079,4.079
		v14.841c0,2.253,1.826,4.079,4.079,4.079h38.841c2.253,0,4.079-1.826,4.079-4.079v-8.731h-29.42V198.19z"/>
	<path style="fill:#8E7C70;" d="M321.579,198.19c-2.253,0-4.079-1.826-4.079-4.079V188h-9.421c-2.253,0-4.079,1.826-4.079,4.079
		v14.841c0,2.253,1.826,4.079,4.079,4.079h38.841c2.253,0,4.079-1.826,4.079-4.079v-8.731h-29.42V198.19z"/>
</g>
<g>
	<path style="fill:#1E4DAD;" d="M464.941,28h-13.803h-21.582v73h21.582h13.803c6.924,0,12.558-5.633,12.558-12.558V40.558
		C477.5,33.633,471.867,28,464.941,28z"/>
	<path style="fill:#1E4DAD;" d="M60.861,28H47.058C40.133,28,34.5,33.633,34.5,40.558v47.885C34.5,95.367,40.133,101,47.058,101
		h13.803h20.962V28H60.861z"/>
</g>
<path style="fill:#2C59C6;" d="M90.024,122C73.193,122,59.5,108.307,59.5,91.476V37.524C59.5,20.693,73.193,7,90.024,7h331.951
	C438.807,7,452.5,20.693,452.5,37.524v53.951c0,16.831-13.693,30.524-30.524,30.524L90.024,122L90.024,122z"/>
<path style="fill:#1E4DAD;" d="M124.593,85.5c-16.831,0-30.524-13.693-30.524-30.524V7h-4.044C73.193,7,59.5,20.693,59.5,37.524
	v53.951C59.5,108.307,73.193,122,90.024,122h331.951c16.831,0,30.524-13.693,30.524-30.524V85.5H124.593z"/>
<g>
	<rect x="149.5" y="7" style="fill:#FF9100;" width="29" height="115"/>
	<rect x="335.5" y="7" style="fill:#FF9100;" width="29" height="115"/>
</g>
<path d="M398.127,26.015l-12.072,3.241c-4,1.074-6.373,5.188-5.299,9.188c0.899,3.349,3.929,5.557,7.239,5.557
	c0.644,0,1.298-0.083,1.95-0.258l12.072-3.241c4-1.074,6.373-5.188,5.299-9.188C406.242,27.313,402.126,24.942,398.127,26.015z"/>
<path d="M401.505,54.017l-12.159-2.899c-4.025-0.96-8.074,1.527-9.035,5.556s1.527,8.074,5.556,9.035l12.159,2.899
	c0.584,0.14,1.169,0.206,1.746,0.206c3.393,0,6.468-2.318,7.289-5.762C408.022,59.022,405.535,54.978,401.505,54.017z"/>
<path d="M297.983,40.502l12.072,3.241c0.651,0.175,1.306,0.258,1.95,0.258c3.31,0,6.339-2.208,7.239-5.557
	c1.074-4-1.298-8.114-5.299-9.188l-12.072-3.241c-3.998-1.073-8.114,1.298-9.188,5.299
	C291.609,35.314,293.982,39.428,297.983,40.502z"/>
<path d="M310.654,51.118l-12.159,2.899c-4.029,0.96-6.517,5.005-5.556,9.035c0.821,3.445,3.896,5.762,7.289,5.762
	c0.576,0,1.161-0.066,1.746-0.206l12.159-2.899c4.029-0.96,6.517-5.005,5.556-9.035C318.728,52.645,314.682,50.156,310.654,51.118z"
	/>
<path d="M109.983,40.502l12.072,3.241c0.651,0.175,1.306,0.258,1.95,0.258c3.31,0,6.339-2.208,7.239-5.557
	c1.074-4-1.298-8.114-5.299-9.188l-12.072-3.241c-3.997-1.073-8.114,1.298-9.188,5.299C103.61,35.314,105.982,39.428,109.983,40.502
	z"/>
<path d="M122.654,51.118l-12.159,2.899c-4.029,0.96-6.517,5.005-5.556,9.035c0.821,3.445,3.896,5.762,7.289,5.762
	c0.576,0,1.161-0.066,1.746-0.206l12.159-2.899c4.029-0.96,6.517-5.005,5.556-9.035C130.728,52.645,126.683,50.156,122.654,51.118z"
	/>
<path d="M210.127,26.015l-12.072,3.241c-4,1.074-6.373,5.188-5.299,9.188c0.899,3.349,3.929,5.557,7.239,5.557
	c0.644,0,1.298-0.083,1.95-0.258l12.072-3.241c4-1.074,6.373-5.188,5.299-9.188C218.242,27.313,214.125,24.942,210.127,26.015z"/>
<path d="M213.505,54.017l-12.159-2.899c-4.026-0.96-8.074,1.527-9.035,5.556s1.527,8.074,5.556,9.035l12.159,2.899
	c0.584,0.14,1.169,0.206,1.746,0.206c3.393,0,6.468-2.318,7.289-5.762C220.022,59.022,217.535,54.978,213.505,54.017z"/>
<path d="M270.594,157h-29.188c-8.219,0-14.906,6.687-14.906,14.906v9.188c0,8.219,6.687,14.906,14.906,14.906h29.188
	c8.219,0,14.906-6.687,14.906-14.906v-9.188C285.5,163.687,278.813,157,270.594,157z M270.5,181h-29v-9h29V181z"/>
<path d="M464.941,21h-9.287c-6.122-12.427-18.916-21-33.68-21H90.024c-14.763,0-27.558,8.573-33.68,21h-9.287
	C36.273,21,27.5,29.773,27.5,40.558v47.885C27.5,99.227,36.273,108,47.058,108h9.287c6.122,12.427,18.916,21,33.68,21h28.197
	c-0.762,1.893-1.284,3.906-1.539,6h-6.119c-8.857,0-16.062,7.206-16.062,16.063v43.875c0,8.857,7.206,16.063,16.062,16.063h8.214
	c1.545,4.796,3.829,9.264,6.723,13.265V282H83.215c-11.422,0-20.715,9.293-20.715,20.715V315.5c0,4.142,3.358,7.5,7.5,7.5h1.5
	v29.839C71.5,367.264,83.236,379,97.661,379h30.292c4.359,10.046,14.089,17.231,25.547,17.931V494.5
	c0,2.548,1.293,4.921,3.434,6.302l15.5,10c1.238,0.798,2.652,1.198,4.066,1.198s2.828-0.399,4.066-1.198l15.5-10
	c2.141-1.381,3.434-3.754,3.434-6.302V397h113v97.5c0,2.548,1.293,4.921,3.434,6.302l15.5,10c1.238,0.798,2.652,1.198,4.066,1.198
	s2.828-0.399,4.066-1.198l15.5-10c2.141-1.381,3.434-3.754,3.434-6.302V397h0.166c12.248,0,22.791-7.421,27.381-18h30.292
	c14.425,0,26.161-11.736,26.161-26.161V323h1.5c4.142,0,7.5-3.358,7.5-7.5v-12.785c0-11.422-9.293-20.715-20.715-20.715H388.5
	v-57.735c2.894-4.001,5.178-8.469,6.723-13.265h8.214c8.857,0,16.063-7.206,16.063-16.063v-43.875
	c0-8.857-7.206-16.063-16.063-16.063h-6.119c-0.256-2.094-0.778-4.107-1.539-6h26.197c14.763,0,27.558-8.573,33.68-21h9.287
	c10.784,0,19.558-8.773,19.558-19.558V40.558C484.5,29.773,475.727,21,464.941,21z M52.539,93h-5.481
	c-2.513,0-4.558-2.044-4.558-4.558V40.558c0-2.513,2.044-4.558,4.558-4.558h5.481c-0.02,0.506-0.039,1.013-0.039,1.524v53.951
	C52.5,91.987,52.518,92.494,52.539,93z M116.5,196h-5.938c-0.586,0-1.062-0.477-1.062-1.063v-43.875
	c0-0.586,0.477-1.063,1.062-1.063h5.938V196z M125.5,364H97.661c-6.154,0-11.161-5.007-11.161-11.161V323h39V364z M125.5,308h-48
	v-5.285c0-3.151,2.564-5.715,5.715-5.715H125.5V308z M397.5,150h5.937c0.586,0,1.063,0.477,1.063,1.063v43.875
	c0,0.586-0.477,1.063-1.063,1.063H397.5V150z M343.5,15h13v99h-13V15z M157.5,15h13v31.98c0,4.606,4.162,8.084,8.699,7.288
	c0.064-0.011,0.127-0.022,0.191-0.033c3.539-0.608,6.11-3.698,6.11-7.289V15h143v99h-143V93.148c0-3.6-2.585-6.7-6.136-7.294
	c-0.063-0.011-0.127-0.021-0.191-0.032c-4.53-0.775-8.673,2.697-8.673,7.292V114h-13V15z M90.024,114
	C77.604,114,67.5,103.896,67.5,91.476V37.524C67.5,25.104,77.604,15,90.024,15H142.5v99H90.024z M184.5,490.413l-8,5.162l-8-5.162
	V397h16V490.413z M314.5,382h-115v-15.643c0-6.814,5.543-12.357,12.357-12.357h90.285c6.814,0,12.357,5.543,12.357,12.357V382H314.5
	z M343.5,490.413l-8,5.162l-8-5.162V397h16V490.413z M373.5,367.166c0,8.193-6.641,14.834-14.834,14.834H329.5v-15.643
	c0-15.109-12.248-27.357-27.357-27.357h-90.285c-15.109,0-27.357,12.248-27.357,27.357V382h-29.166
	c-8.193,0-14.834-6.641-14.834-14.834V237.75c6.938,3.969,14.96,6.25,23.509,6.25h1.491v70.305c0,2.398,1.147,4.651,3.085,6.063
	l14,10.195C183.901,331.521,185.45,332,187,332s3.099-0.479,4.415-1.437l14-10.195c1.939-1.412,3.085-3.665,3.085-6.063V244h11
	v19.047c0,6.691,4.146,12.424,10,14.789V285c0,8.285,6.716,15,15,15h23c8.285,0,15-6.716,15-15v-7.163
	c5.854-2.365,10-8.098,10-14.789V244h14v70.305c0,2.398,1.147,4.652,3.085,6.063l14,10.195C324.901,331.521,326.45,332,328,332
	s3.099-0.479,4.415-1.437l14-10.195c1.938-1.412,3.085-3.665,3.085-6.063v-14.32c0-3.666-2.678-6.793-6.305-7.321
	c-0.064-0.009-0.127-0.019-0.191-0.028c-4.477-0.668-8.504,2.794-8.504,7.32v10.532l-6.5,4.733l-6.5-4.733V218.5h13v35.193
	c0,4.539,4.049,8.008,8.535,7.316c0.063-0.01,0.127-0.019,0.19-0.029c3.613-0.544,6.275-3.662,6.275-7.316V244h0.491
	c8.549,0,16.571-2.281,23.509-6.25V367.166z M202.5,196v7h-31v-7H202.5z M180.5,181v-16h13v16H180.5z M193.5,218.5v91.989
	l-6.5,4.733l-6.5-4.733V218.5H193.5z M235.453,264c-0.525,0-0.953-0.428-0.953-0.953V244h43v19.047c0,0.525-0.428,0.953-0.953,0.953
	H235.453z M267.509,285c0,0-0.003,0-0.01,0h-23v-6h23.005L267.509,285z M343.5,196v7h-31v-7H343.5z M321.5,181v-16h13v16H321.5z
	 M382.5,196.491c0,17.926-14.583,32.509-32.509,32.509H349.5v-11h1.5c4.142,0,7.5-3.358,7.5-7.5v-22c0-4.142-3.358-7.5-7.5-7.5h-1.5
	v-16.025c3.908-0.258,7-3.502,7-7.475c0-4.142-3.358-7.5-7.5-7.5h-43c-4.142,0-7.5,3.358-7.5,7.5s3.358,7.5,7.5,7.5h0.5v16H305
	c-4.142,0-7.5,3.358-7.5,7.5v22c0,4.142,3.358,7.5,7.5,7.5h1.5v11h-98v-11h1.5c4.142,0,7.5-3.358,7.5-7.5v-22
	c0-4.142-3.358-7.5-7.5-7.5h-1.5v-16h0.5c4.142,0,7.5-3.358,7.5-7.5s-3.358-7.5-7.5-7.5h-43c-4.142,0-7.5,3.358-7.5,7.5
	c0,3.973,3.092,7.216,7,7.475V181H164c-4.142,0-7.5,3.358-7.5,7.5v22c0,4.142,3.358,7.5,7.5,7.5h1.5v11h-1.491
	c-17.926,0-32.509-14.583-32.509-32.509v-58.604c0-4.9,3.987-8.887,8.887-8.887h233.226c4.9,0,8.887,3.987,8.887,8.887
	L382.5,196.491L382.5,196.491z M427.5,352.839c0,6.154-5.007,11.161-11.161,11.161H388.5v-41h39V352.839z M430.785,297
	c3.151,0,5.715,2.564,5.715,5.715V308h-48v-11H430.785z M444.5,91.476c0,12.42-10.104,22.524-22.524,22.524H371.5V15h50.476
	c12.42,0,22.524,10.104,22.524,22.524V91.476z M469.5,88.442c0,2.513-2.044,4.558-4.558,4.558h-5.481
	c0.02-0.506,0.039-1.013,0.039-1.524V37.524c0-0.511-0.018-1.018-0.039-1.524h5.481c2.513,0,4.558,2.044,4.558,4.558V88.442z"/>
<g>
</g>
<g>
</g>
<g>
</g>
<g>
</g>
<g>
</g>
<g>
</g>
<g>
</g>
<g>
</g>
<g>
</g>
<g>
</g>
<g>
</g>
<g>
</g>
<g>
</g>
<g>
</g>
<g>
</g>
</svg>
