<?xml version="1.0" encoding="iso-8859-1"?>
<!-- Generator: Adobe Illustrator 19.0.0, SVG Export Plug-In . SVG Version: 6.00 Build 0)  -->
<svg version="1.1" id="Capa_1" xmlns="http://www.w3.org/2000/svg" xmlns:xlink="http://www.w3.org/1999/xlink" x="0px" y="0px"
	 viewBox="0 0 512 512" style="enable-background:new 0 0 512 512;" xml:space="preserve">
<path style="fill:#9BB8BC;" d="M408.149,265.049l-44.913-21.463l-122.391-64.654c-1.997-1.055-4.47-0.201-5.391,1.861l-1.784,3.993
	c-7.445,16.669-8.568,35.493-3.164,53.004c5.953,19.282,19.057,35.093,36.9,44.519L297.897,300h98.976h13.725L408.149,265.049z"/>
<path style="fill:#AACED1;" d="M330.555,286.281c-10.503-2.173-20.587-6.025-29.864-11.407l-16.484-9.564
	c-17.843-9.426-30.948-25.237-36.9-44.519c-3.957-12.82-4.399-26.34-1.44-39.206l-5.022-2.653c-1.997-1.055-4.47-0.201-5.392,1.861
	l-1.784,3.993c-7.445,16.669-8.568,35.493-3.164,53.004c5.953,19.282,19.057,35.093,36.9,44.519L297.897,300h98.976L330.555,286.281
	z"/>
<path style="fill:#9BB8BC;" d="M440.892,219.5L427,193.131L370.562,90.823c-2.236-4.052-7.433-5.368-11.327-2.867
	c-33.322,21.4-44.431,65.343-25.29,100.042L395.731,300v10.866h50.172v-86.085L440.892,219.5z"/>
<g>
	<polygon style="fill:#6D9293;" points="379.713,300 396.874,300 410.599,300 408.149,265.049 363.236,243.586 342.57,232.669 	"/>
	<polygon style="fill:#6D9293;" points="386.904,284 395.731,300 395.731,310.866 445.902,310.866 445.902,284 	"/>
</g>
<path style="fill:#AACED1;" d="M424.962,298.93v-10.866l-61.787-112.002c-15.252-27.649-11.28-61.156,7.816-84.461l-0.429-0.777
	c-2.236-4.052-7.433-5.368-11.327-2.867c-33.322,21.4-44.431,65.343-25.29,100.042L395.731,300v10.866h50.172V298.93H424.962z"/>
<path id="SVGCleanerId_0" style="fill:#9BB8BC;" d="M496.466,72.169C456.953,74.812,426,107.923,426,147.551V300v69h79v-40.355
	V77.365c0-3.121-2.64-5.59-5.754-5.382L496.466,72.169z"/>
<g>
	<path id="SVGCleanerId_0_1_" style="fill:#9BB8BC;" d="M496.466,72.169C456.953,74.812,426,107.923,426,147.551V300v69h79v-40.355
		V77.365c0-3.121-2.64-5.59-5.754-5.382L496.466,72.169z"/>
</g>
<g>
	<polygon style="fill:#6D9293;" points="445.902,224.781 440.892,219.5 427,193.131 410.599,163.4 410.599,300 410.599,310.866 
		445.902,310.866 	"/>
	<path style="fill:#6D9293;" d="M505,328.645v-23.012C493.621,292.403,476.779,284,458,284h-32v16v69h79V328.645z"/>
</g>
<path style="fill:#AACED1;" d="M454,147.551c0-32.776,21.184-61.075,50.864-71.383c-0.573-2.528-2.916-4.365-5.618-4.184
	l-2.78,0.186C456.953,74.812,426,107.923,426,147.551V300v69h28v-69V147.551z"/>
<polygon style="fill:#7AA0A0;" points="426,284 426,300 426,369 454,369 454,300 454,284 "/>
<path style="fill:#BC2A2A;" d="M130,346v47c0,25.916,21.084,47,47,47h281c25.916,0,47-21.084,47-47v-47H130z"/>
<path style="fill:#DD3A3A;" d="M177,393c-25.916,0-47-21.084-47-47s21.084-47,47-47h281c25.916,0,47,21.084,47,47s-21.084,47-47,47
	H177z"/>
<path style="fill:#C92D2D;" d="M496.5,354.5h-281c-25.916,0-47-21.084-47-47c0-2.67,0.236-5.285,0.665-7.835
	C146.967,303.408,130,322.754,130,346c0,25.916,21.084,47,47,47h281c23.246,0,42.592-16.967,46.335-39.165
	C501.785,354.264,499.17,354.5,496.5,354.5z"/>
<g>
	<path style="fill:#F0B329;" d="M458.5,359c-6.893,0-12.5-5.607-12.5-12.5s5.607-12.5,12.5-12.5s12.5,5.607,12.5,12.5
		S465.393,359,458.5,359z"/>
	<path style="fill:#F0B329;" d="M198.5,392.5v-20.422c0-2.252,1.826-4.078,4.078-4.078h220.844c2.252,0,4.078,1.826,4.078,4.078
		V392.5H198.5z"/>
	<path style="fill:#F0B329;" d="M198.5,317.951V299h229v18.951c0,3.893-3.156,7.049-7.049,7.049H205.549
		C201.656,325,198.5,321.844,198.5,317.951z"/>
</g>
<path d="M458.5,366c10.752,0,19.5-8.748,19.5-19.5s-8.748-19.5-19.5-19.5s-19.5,8.748-19.5,19.5S447.748,366,458.5,366z M458.5,342
	c2.481,0,4.5,2.019,4.5,4.5s-2.019,4.5-4.5,4.5s-4.5-2.019-4.5-4.5S456.019,342,458.5,342z"/>
<circle cx="169.5" cy="346.5" r="8.5"/>
<path d="M512,75.449C512,69.688,507.313,65,501.551,65C456.032,65,419,102.032,419,147.551v16.587l-44.581-80.815
	c-2.783-5.044-9.153-6.883-14.196-4.101c-39.856,21.987-54.395,72.3-32.408,112.156l19.915,36.101l-103.907-54.89
	c-2.468-1.304-5.296-1.569-7.963-0.745c-2.667,0.824-4.854,2.636-6.156,5.104c-10.3,19.497-12.39,41.838-5.887,62.907
	s20.823,38.345,40.319,48.644l6.628,3.501H177c-29.776,0-54,24.224-54,54c0,0.112,0.008,0.221,0.008,0.333
	c-0.001,0.056-0.008,0.111-0.008,0.167v19.419h-23V355.5c0-11.855-9.645-21.5-21.5-21.5S57,343.645,57,355.5v36
	c0,3.584-2.916,6.5-6.5,6.5s-6.5-2.916-6.5-6.5v-18c0-4.142-3.358-7.5-7.5-7.5h-29c-4.142,0-7.5,3.358-7.5,7.5s3.358,7.5,7.5,7.5H29
	v10.5c0,11.855,9.645,21.5,21.5,21.5S72,403.355,72,391.5v-36c0-3.584,2.916-6.5,6.5-6.5s6.5,2.916,6.5,6.5v17.919
	c0,4.142,3.358,7.5,7.5,7.5H123V392.5c0,0.084,0.01,0.166,0.013,0.25C123.01,392.834,123,392.916,123,393c0,29.776,24.224,54,54,54
	h281c29.776,0,54-24.224,54-54c0-0.084-0.01-0.166-0.013-0.25c0.003-0.084,0.013-0.166,0.013-0.25v-46
	c0-0.056-0.007-0.111-0.008-0.167c0.001-0.111,0.008-0.221,0.008-0.333s-0.008-0.221-0.008-0.333
	c0.001-0.056,0.008-0.111,0.008-0.167V75.449z M434,193.234c0-0.017,0-0.034,0-0.051v-45.632c0-27.877,16.977-51.863,41.133-62.168
	C457.517,100.74,447,123.141,447,147.551v58.417c0,4.258,3.585,7.67,7.834,7.392c0.064-0.004,0.127-0.008,0.191-0.012
	c3.915-0.242,6.975-3.468,6.975-7.39v-58.406c0-25.015,13.499-47.447,35-59.213V308.71c-8.973-9.38-21.281-15.532-35-16.544v-39.578
	c0-3.942-3.089-7.178-7.025-7.393c-0.064-0.003-0.127-0.007-0.191-0.011c-4.231-0.247-7.784,3.156-7.784,7.394V292h-13L434,193.234
	L434,193.234z M371.249,108.631L419,195.191v69.858l-49.051-88.916C358.238,154.903,359.026,129.008,371.249,108.631z
	 M340.949,184.133c-16.856-30.555-7.464-68.612,20.606-88.091c-17.893,25.538-19.998,59.677-4.74,87.336L416.737,292h-16.283
	L340.949,184.133z M252.22,193.989l107.344,56.705c0.41,0.217,0.832,0.385,1.26,0.52l22.5,40.786h-27.065l-38.199-18.96
	l-29.917-15.804C264.638,244.819,250.84,220.049,252.22,193.989z M238.15,235.431c-3.697-11.979-3.992-24.459-1.005-36.313
	c0.554,29.638,17.053,57.15,43.992,71.381l30,15.848c0.056,0.03,0.112,0.059,0.169,0.086L322.522,292h-20.029
	c-0.408-0.346-0.856-0.656-1.348-0.916l-30.001-15.848C255.189,266.808,243.472,252.671,238.15,235.431z M206.5,308.5h213v8.5h-213
	V308.5z M177.732,307H191.5v11.467c0,7.474,6.059,13.533,13.533,13.533h215.934c7.474,0,13.533-6.059,13.533-13.533V307h22.768
	c21.297,0,39.217,16.769,39.72,38.061C497.507,366.993,479.817,385,458,385h-23.5v-10.467c0-7.474-6.059-13.533-13.533-13.533
	h-38.295c-3.389,0-6.334,2.301-7.177,5.584c-0.016,0.063-0.033,0.127-0.049,0.191c-1.218,4.671,2.351,9.225,7.178,9.225H419.5v8.5
	h-213V376h130.682c4.894,0,8.456-4.669,7.136-9.382c-0.018-0.063-0.035-0.127-0.053-0.19c-0.887-3.21-3.805-5.429-7.135-5.429
	H205.033c-7.474,0-13.533,6.059-13.533,13.533V385H177c-21.817,0-39.507-18.007-38.989-39.939
	C138.514,323.769,156.434,307,177.732,307z M497,393c0,21.505-17.495,39-39,39H177c-21.505,0-39-17.495-39-39
	c0-0.084-0.01-0.166-0.013-0.25c0.003-0.084,0.013-0.166,0.013-0.25v-9.209C147.838,393.575,161.678,400,177,400h281
	c15.322,0,29.162-6.425,39-16.709v9.209c0,0.084,0.01,0.166,0.013,0.25C497.01,392.834,497,392.916,497,393z"/>
<path d="M436.5,409h-238c-4.142,0-7.5,3.358-7.5,7.5s3.358,7.5,7.5,7.5h238c4.142,0,7.5-3.358,7.5-7.5S440.642,409,436.5,409z"/>
<g>
</g>
<g>
</g>
<g>
</g>
<g>
</g>
<g>
</g>
<g>
</g>
<g>
</g>
<g>
</g>
<g>
</g>
<g>
</g>
<g>
</g>
<g>
</g>
<g>
</g>
<g>
</g>
<g>
</g>
</svg>
