<?xml version="1.0" encoding="UTF-8" standalone="no"?>
<!-- Generator: Adobe Illustrator 19.0.0, SVG Export Plug-In . SVG Version: 6.00 Build 0)  -->

<svg
   xmlns:dc="http://purl.org/dc/elements/1.1/"
   xmlns:cc="http://creativecommons.org/ns#"
   xmlns:rdf="http://www.w3.org/1999/02/22-rdf-syntax-ns#"
   xmlns:svg="http://www.w3.org/2000/svg"
   xmlns="http://www.w3.org/2000/svg"
   xmlns:sodipodi="http://sodipodi.sourceforge.net/DTD/sodipodi-0.dtd"
   xmlns:inkscape="http://www.inkscape.org/namespaces/inkscape"
   version="1.1"
   id="Capa_1"
   x="0px"
   y="0px"
   viewBox="0 0 1242 2436"
   xml:space="preserve"
   sodipodi:docname="splash.svg"
   width="1242"
   height="2436"
   inkscape:version="0.92.2 5c3e80d, 2017-08-06"><metadata
     id="metadata374"><rdf:RDF><cc:Work
         rdf:about=""><dc:format>image/svg+xml</dc:format><dc:type
           rdf:resource="http://purl.org/dc/dcmitype/StillImage" /><dc:title></dc:title></cc:Work></rdf:RDF></metadata><defs
     id="defs372" /><sodipodi:namedview
     pagecolor="#ffffff"
     bordercolor="#666666"
     borderopacity="1"
     objecttolerance="10"
     gridtolerance="10"
     guidetolerance="10"
     inkscape:pageopacity="0"
     inkscape:pageshadow="2"
     inkscape:window-width="1440"
     inkscape:window-height="855"
     id="namedview370"
     showgrid="false"
     inkscape:zoom="0.27832512"
     inkscape:cx="621"
     inkscape:cy="1218"
     inkscape:window-x="0"
     inkscape:window-y="206"
     inkscape:window-maximized="1"
     inkscape:current-layer="layer1" /><g
     id="g339"
     transform="matrix(1.875,0,0,2,32,1412)" /><g
     id="g341"
     transform="matrix(1.875,0,0,2,32,1412)" /><g
     id="g343"
     transform="matrix(1.875,0,0,2,32,1412)" /><g
     id="g345"
     transform="matrix(1.875,0,0,2,32,1412)" /><g
     id="g347"
     transform="matrix(1.875,0,0,2,32,1412)" /><g
     id="g349"
     transform="matrix(1.875,0,0,2,32,1412)" /><g
     id="g351"
     transform="matrix(1.875,0,0,2,32,1412)" /><g
     id="g353"
     transform="matrix(1.875,0,0,2,32,1412)" /><g
     id="g355"
     transform="matrix(1.875,0,0,2,32,1412)" /><g
     id="g357"
     transform="matrix(1.875,0,0,2,32,1412)" /><g
     id="g359"
     transform="matrix(1.875,0,0,2,32,1412)" /><g
     id="g361"
     transform="matrix(1.875,0,0,2,32,1412)" /><g
     id="g363"
     transform="matrix(1.875,0,0,2,32,1412)" /><g
     id="g365"
     transform="matrix(1.875,0,0,2,32,1412)" /><g
     inkscape:groupmode="layer"
     id="layer1"
     inkscape:label="Background"
     transform="translate(0,1412)"><rect
       style="fill:#f1e3cd;fill-opacity:1;stroke-width:4.46854115"
       id="rect407"
       width="1242"
       height="2436"
       x="0"
       y="-1412" /></g><g
     inkscape:groupmode="layer"
     id="layer2"
     inkscape:label="Foreground"
     transform="translate(0,1412)"><path
       style="fill:#aa9572;stroke-width:2.09141064"
       d="M 919.97303,-532.04 H 116.775 v 676.08 h 813.47897 c 19.2962,0 34.99603,-16.74648 34.99603,-37.33128 V 74.92 -395.96 -483.7424 c 0,-26.63064 -20.31074,-48.2976 -45.27697,-48.2976 z"
       id="path291"
       inkscape:connector-curvature="0" /><g
       id="g297"
       transform="matrix(2.025,0,0,2.16,102.6,-746.96)"><path
         style="fill:#9e835a"
         d="m 426,395.217 v -14.717 -218 -16 h -29.85 c -34.821,0 -63.15,28.329 -63.15,63.15 v 161.116 c 0,14.19 11.544,25.734 25.734,25.734 h 67.201 c 0.031,-0.425 0.065,-0.85 0.065,-1.283 z"
         id="path293"
         inkscape:connector-curvature="0" /><path
         style="fill:#9e835a"
         d="m 170.49,99.5 v 0 H 7 v 313 h 401.718 c 9.545,0 17.282,-7.738 17.282,-17.282 V 380.5 338 H 408.99 C 277.27,338 170.49,231.22 170.49,99.5 Z"
         id="path295"
         inkscape:connector-curvature="0" /></g><rect
       id="SVGCleanerId_0"
       x="116.77501"
       y="-456.44"
       style="fill:#e2d3b7;stroke-width:2.09141064"
       width="777.59998"
       height="524.88" /><g
       id="g301"
       transform="matrix(2.025,0,0,2.16,102.6,-746.96)"><rect
         id="SVGCleanerId_0_1_"
         x="7"
         y="134.5"
         style="fill:#e2d3b7"
         width="384"
         height="243" /></g><path
       style="fill:#d1b68b;stroke-width:2.09141064"
       d="m 894.375,-430.02752 c -65.64848,5.68512 -117.45,64.44792 -117.45,135.91152 V 53.89456 c 0,5.0328 0.64192,9.90576 1.8225,14.54544 H 894.375 Z"
       id="path303"
       inkscape:connector-curvature="0" /><path
       style="fill:#9bb8bc;stroke-width:2.09141064"
       d="M 829.03636,77.08 C 817.05037,77.08 807.3,66.6796 807.3,53.89456 V -294.116 c 0,-57.348 43.74202,-104.004 97.50374,-104.004 h 122.91546 c 53.7637,0 97.5037,46.656 97.5037,104.004 V 53.89456 c 0,12.78288 -9.7503,23.18544 -21.7362,23.18544 z"
       id="path305"
       inkscape:connector-curvature="0" /><path
       style="fill:#aad3d6;stroke-width:2.09141064"
       d="m 847.8,33.88 v -327.996 c 0,-33.52752 25.5717,-60.804 57.00374,-60.804 h 122.91546 c 31.432,0 57.0037,27.27648 57.0037,60.804 V 33.88 Z"
       id="path307"
       inkscape:connector-curvature="0" /><path
       style="fill:#cc2929;stroke-width:2.09141064"
       d="M 966.2625,5.8 C 906.525,5.8 857.925,-46.04 857.925,-109.76 c 0,-63.72 48.6,-115.56 108.3375,-115.56 59.7375,0 108.3375,51.84 108.3375,115.56 0,63.72 -48.6,115.56 -108.3375,115.56 z"
       id="path309"
       inkscape:connector-curvature="0" /><path
       style="fill:#dd3a3a;stroke-width:2.09141064"
       d="m 966.2625,-24.66032 c -43.9911,0 -79.78095,-38.17584 -79.78095,-85.09968 0,-46.92384 35.78985,-85.09968 79.78095,-85.09968 43.9911,0 79.7809,38.17584 79.7809,85.09968 0,46.92384 -35.7898,85.09968 -79.7809,85.09968 z"
       id="path311"
       inkscape:connector-curvature="0" /><path
       style="fill:#1aba9b;stroke-width:2.09141064"
       d="m 652.3875,-270.68 c -26.23995,0 -47.5875,-22.77072 -47.5875,-50.76 0,-27.98928 21.34755,-50.76 47.5875,-50.76 26.23996,0 47.5875,22.77072 47.5875,50.76 0,27.98928 -21.34754,50.76 -47.5875,50.76 z"
       id="path313"
       inkscape:connector-curvature="0" /><path
       style="fill:#ff9100;stroke-width:2.09141064"
       d="m 502.5375,-84.92 c -26.23995,0 -47.5875,-22.77072 -47.5875,-50.76 0,-27.98928 21.34755,-50.76 47.5875,-50.76 26.23995,0 47.5875,22.77072 47.5875,50.76 0,27.98928 -21.34755,50.76 -47.5875,50.76 z"
       id="path315"
       inkscape:connector-curvature="0" /><path
       style="fill:#f75b4f;stroke-width:2.09141064"
       d="m 318.2625,-264.2 c -26.23996,0 -47.5875,-22.77072 -47.5875,-50.76 0,-27.98928 21.34754,-50.76 47.5875,-50.76 26.23994,0 47.5875,22.77072 47.5875,50.76 0,27.98928 -21.34756,50.76 -47.5875,50.76 z"
       id="path317"
       inkscape:connector-curvature="0" /><path
       style="fill:#05997d;stroke-width:2.09141064"
       d="m 660.38828,-332.24 c 0,-13.44168 4.9329,-25.66944 12.95594,-34.75872 -6.32812,-3.32424 -13.4379,-5.20128 -20.95672,-5.20128 -26.23994,0 -47.5875,22.77072 -47.5875,50.76 0,27.98928 21.34756,50.76 47.5875,50.76 13.63838,0 25.94836,-6.16248 34.63156,-16.00128 -15.75856,-8.28144 -26.63078,-25.58736 -26.63078,-45.55872 z"
       id="path319"
       inkscape:connector-curvature="0" /><path
       style="fill:#e58005;stroke-width:2.09141064"
       d="m 510.53828,-146.48 c 0,-13.44168 4.93289,-25.66944 12.95595,-34.75872 -6.32813,-3.32424 -13.43791,-5.20128 -20.95673,-5.20128 -26.23995,0 -47.5875,22.77072 -47.5875,50.76 0,27.98928 21.34755,50.76 47.5875,50.76 13.63838,0 25.94834,-6.16248 34.63155,-16.00128 -15.75855,-8.28144 -26.63077,-25.58736 -26.63077,-45.55872 z"
       id="path321"
       inkscape:connector-curvature="0" /><path
       style="fill:#ea3f28;stroke-width:2.09141064"
       d="m 326.26328,-325.76 c 0,-13.44168 4.9329,-25.66944 12.95594,-34.75872 -6.32812,-3.32424 -13.4379,-5.20128 -20.95672,-5.20128 -26.23996,0 -47.5875,22.77072 -47.5875,50.76 0,27.98928 21.34754,50.76 47.5875,50.76 13.63838,0 25.94833,-6.16248 34.63154,-16.00128 -15.75854,-8.28144 -26.63076,-25.58736 -26.63076,-45.55872 z"
       id="path323"
       inkscape:connector-curvature="0" /><path
       d="M 1027.7212,-413.24 H 979.425 v -70.5024 c 0,-34.96824 -26.67129,-63.4176 -59.45197,-63.4176 H 117.7875 c -8.38958,0 -15.1875,7.25328 -15.1875,16.2 v 673.92 c 0,8.94672 6.79792,16.2 15.1875,16.2 h 812.46647 c 27.11471,0 49.17103,-23.52888 49.17103,-52.45128 V 92.2 h 124.0637 c 19.8004,0 35.9113,-17.18496 35.9113,-38.30544 V -294.116 c 0,-65.6856 -50.0985,-119.124 -111.6788,-119.124 z m -894.74621,244.8036 c 28.06449,2.49264 89.77231,13.43088 131.68171,61.11504 63.6822,72.45504 180.21487,90.62496 185.14575,91.36368 0.71685,0.108 1.4256,0.15984 2.12827,0.15984 7.44796,0 13.9482,-5.84928 15.01538,-13.94064 1.17044,-8.856 -4.61093,-17.04888 -12.91342,-18.30384 -1.1016,-0.16632 -110.93153,-17.40096 -167.21438,-81.43848 -16.71435,-19.01664 -35.82428,-33.01344 -55.04558,-43.3296 16.62728,-5.83632 35.41523,-11.79144 47.75963,-13.73328 7.85497,-1.23768 13.86922,-8.56656 13.39739,-17.02296 -0.53662,-9.58176 -8.61031,-16.44408 -17.31172,-15.11136 -26.50119,4.0392 -75.69652,23.15952 -87.68047,27.918 -22.29727,-6.65928 -42.05723,-9.23832 -54.95851,-10.21896 V -441.32 H 652.185 c 8.11012,0 14.74403,-6.88608 14.9688,-15.53472 0.005,-0.1512 0.008,-0.3024 0.0117,-0.4536 0.2349,-8.98992 -6.5367,-16.41168 -14.9688,-16.41168 H 132.97499 v -41.04 h 786.99804 c 16.05825,0 29.07697,13.88664 29.07697,31.01544 V -413.24 h -44.24626 c -0.1012,0 -0.2025,0.009 -0.30374,0.009 v -44.289 c 0,-8.94672 -6.79996,-16.2 -15.1875,-16.2 h -138.915 c -8.24378,0 -14.9283,7.1064 -14.97488,15.90192 0,0.13824 -0.002,0.27648 -0.002,0.41472 -0.0486,8.86464 6.66224,16.08336 14.97486,16.08336 h 123.72953 v 32.68728 c -46.7046,14.25816 -81,60.17976 -81,114.51672 v 82.90728 c -51.91689,-18.48096 -97.5604,-20.49624 -99.67653,-20.57832 -8.39968,-0.3564 -15.42643,6.64848 -15.73829,15.58872 -0.30982,8.94024 6.23296,16.45704 14.61647,16.78752 0.50219,0.0194 49.14877,2.16648 100.79843,22.54392 v 230.7636 c 0,2.01312 0.19034,3.9744 0.47179,5.90544 H 762.3827 C 761.48764,59.7784 717.22317,58.13032 662.54614,5.64016 595.98844,-58.2548 546.39214,-41.6228 544.3064,-40.8884 c -7.95826,2.8296 -12.25732,12.00312 -9.60457,20.49192 2.65274,8.4888 11.24887,13.07448 19.21117,10.24704 0.33615,-0.12528 35.6076,-10.72224 88.31023,39.87144 12.8122,12.29904 25.18088,22.14432 36.81248,30.078 H 132.97499 Z M 949.05,106.70872 c 0,11.05704 -8.43212,20.05128 -18.79603,20.05128 H 132.97499 V 92.2 H 949.05 Z m 159.975,-52.81416 c 0,3.25512 -2.4847,5.90544 -5.5363,5.90544 H 829.03636 C 825.98263,59.8 823.5,57.14968 823.5,53.89456 V -294.116 c 0,-47.82024 36.4743,-86.724 81.30374,-86.724 h 122.91546 c 44.8315,0 81.3037,38.90376 81.3037,86.724 V 53.89456 Z"
       id="path325"
       inkscape:connector-curvature="0"
       style="stroke-width:2.09141064" /><path
       d="m 1069.5354,-273.92 c 0,-8.94672 -6.7979,-16.2 -15.1874,-16.2 -8.3896,0 -15.1875,7.25328 -15.1875,16.2 v 59.2056 c -17.0626,-13.51944 -37.5193,-22.41648 -59.7355,-24.96096 v -80.40384 l 7.91982,9.44136 c 5.59503,6.66792 15.19158,7.236 21.44478,1.27008 6.2511,-5.96592 6.7857,-16.20648 1.1907,-22.8744 l -34.42512,-41.04 c -2.93409,-3.49704 -7.14825,-5.47128 -11.54448,-5.39568 -4.40029,0.0713 -8.55561,2.17296 -11.39065,5.76288 l -32.39997,41.04 c -5.40271,6.84288 -4.58056,17.064 1.83464,22.82688 2.84918,2.5596 6.32003,3.80808 9.77468,3.80808 4.3254,0 8.62241,-1.95912 11.62551,-5.76504 L 949.05,-318.092 v 78.96744 c -22.42283,3.37824 -42.90975,13.24944 -59.73548,27.7776 V -273.92 c 0,-8.94672 -6.79792,-16.2 -15.18749,-16.2 -8.38957,0 -15.18751,7.25328 -15.18751,16.2 v 98.78112 c 0,0.73224 0.0608,1.44936 0.14985,2.15568 -9.76049,18.7488 -15.33937,40.30128 -15.33937,63.2232 0,72.0576 54.96052,130.68 122.5125,130.68 67.5519,0 122.5125,-58.6224 122.5125,-130.68 0,-25.812 -7.0814,-49.88088 -19.2396,-70.1676 z M 966.2625,-11.48 c -50.80522,0 -92.1375,-44.08776 -92.1375,-98.28 0,-54.19224 41.33228,-98.28 92.1375,-98.28 50.8052,0 92.1375,44.08776 92.1375,98.28 0,54.19224 -41.3323,98.28 -92.1375,98.28 z"
       id="path327"
       inkscape:connector-curvature="0"
       style="stroke-width:2.09141064" /><path
       d="m 999.61227,-97.09808 c 1.32843,-3.96576 2.08773,-8.21448 2.08773,-12.66192 0,-20.84184 -15.89832,-37.8 -35.4375,-37.8 -4.16749,0 -8.15269,0.81216 -11.87056,2.22696 l -20.34719,-21.70368 c -5.93123,-6.32664 -15.54795,-6.3288 -21.47715,0 -5.93325,6.32664 -5.93325,16.58232 -0.004,22.90896 l 20.3472,21.70368 c -1.32638,3.96792 -2.08777,8.2188 -2.08777,12.66408 0,20.84184 15.89829,37.8 35.43754,37.8 4.16745,0 8.15265,-0.81216 11.87046,-2.22696 l 20.3472,21.70368 c 2.96667,3.1644 6.85267,4.74552 10.74067,4.74552 3.886,0 7.7739,-1.58112 10.7385,-4.74552 5.9332,-6.32664 5.9332,-16.58232 0,-22.90896 z M 961.2,-109.76 c 0,-2.97648 2.26998,-5.4 5.0625,-5.4 2.79243,0 5.0625,2.42352 5.0625,5.4 0,2.97648 -2.27007,5.4 -5.0625,5.4 -2.79252,0 -5.0625,-2.42352 -5.0625,-5.4 z"
       id="path329"
       inkscape:connector-curvature="0"
       style="stroke-width:2.09141064" /><path
       d="m 652.3875,-387.32 c -34.05442,0 -61.7625,29.55312 -61.7625,65.88 0,30.7368 19.83892,56.62008 46.575,63.85824 V -217.76 c 0,8.94672 6.79792,16.2 15.1875,16.2 8.38958,0 15.1875,-7.25328 15.1875,-16.2 v -39.82176 c 26.73608,-7.23816 46.575,-33.12144 46.575,-63.85824 0,-36.32688 -27.70808,-65.88 -61.7625,-65.88 z m 0,99.36 c -17.30768,0 -31.3875,-15.01848 -31.3875,-33.48 0,-18.46152 14.07982,-33.48 31.3875,-33.48 17.30767,0 31.3875,15.01848 31.3875,33.48 0,18.46152 -14.07983,33.48 -31.3875,33.48 z"
       id="path331"
       inkscape:connector-curvature="0"
       style="stroke-width:2.09141064" /><path
       d="m 502.5375,-201.56 c -34.05442,0 -61.7625,29.55312 -61.7625,65.88 0,30.7368 19.83892,56.62008 46.575,63.85824 V -32 c 0,8.94672 6.79792,16.2 15.1875,16.2 8.38958,0 15.1875,-7.25328 15.1875,-16.2 v -39.82176 c 26.73608,-7.23816 46.575,-33.12144 46.575,-63.85824 0,-36.32688 -27.70808,-65.88 -61.7625,-65.88 z m 0,99.36 c -17.30768,0 -31.3875,-15.01848 -31.3875,-33.48 0,-18.46152 14.07982,-33.48 31.3875,-33.48 17.30767,0 31.3875,15.01848 31.3875,33.48 0,18.46152 -14.07983,33.48 -31.3875,33.48 z"
       id="path333"
       inkscape:connector-curvature="0"
       style="stroke-width:2.09141064" /><path
       d="m 380.025,-314.96 c 0,-36.32688 -27.70808,-65.88 -61.7625,-65.88 -34.05442,0 -61.7625,29.55312 -61.7625,65.88 0,30.7368 19.83892,56.62008 46.575,63.85824 V -211.28 c 0,8.94672 6.79792,16.2 15.1875,16.2 8.38958,0 15.1875,-7.25328 15.1875,-16.2 v -39.82176 c 26.73608,-7.23816 46.575,-33.12144 46.575,-63.85824 z m -93.15,0 c 0,-18.46152 14.07982,-33.48 31.3875,-33.48 17.30767,0 31.3875,15.01848 31.3875,33.48 0,18.46152 -14.07983,33.48 -31.3875,33.48 -17.30768,0 -31.3875,-15.01848 -31.3875,-33.48 z"
       id="path335"
       inkscape:connector-curvature="0"
       style="stroke-width:2.09141064" /><path
       d="m 608.40248,-248.8424 c -106.86128,-19.72512 -237.006,7.54704 -242.49376,8.71776 -8.22555,1.75608 -13.5594,10.29024 -11.9151,19.062 1.44381,7.7004 7.78612,13.02696 14.87768,13.02696 0.98618,0 1.98855,-0.10368 2.99498,-0.31752 1.28789,-0.27432 130.01917,-27.27216 231.35624,-8.56224 8.28225,1.52064 16.12508,-4.38264 17.55471,-13.19976 1.43169,-8.81712 -4.11073,-17.20224 -12.37475,-18.7272 z"
       id="path337"
       inkscape:connector-curvature="0"
       style="stroke-width:2.09141064" /></g><g
     id="g367"
     transform="matrix(1.875,0,0,2,32,1412)" /></svg>