<?xml version="1.0" encoding="iso-8859-1"?>
<!-- Generator: Adobe Illustrator 19.0.0, SVG Export Plug-In . SVG Version: 6.00 Build 0)  -->
<svg version="1.1" id="Capa_1" xmlns="http://www.w3.org/2000/svg" xmlns:xlink="http://www.w3.org/1999/xlink" x="0px" y="0px"
	 viewBox="0 0 512.001 512.001" style="enable-background:new 0 0 512.001 512.001;" xml:space="preserve">
<path style="fill:#D7FA91;" d="M276.919,31.105c-30.852,30.852-18.738,66.802-18.738,66.802s35.95,12.114,66.802-18.738
	s18.77-66.453,18.74-66.804C343.723,12.365,307.771,0.253,276.919,31.105z"/>
<path style="fill:#A5DC69;" d="M127.374,106.474c43.026,43.026,93.164,26.132,93.164,26.132s16.895-50.137-26.132-93.164
	s-92.677-26.176-93.166-26.134C101.24,13.308,84.348,63.446,127.374,106.474z"/>
<circle style="fill:#AFFFF5;" cx="256.003" cy="322.047" r="179.959"/>
<g>
	<path style="fill:#7DD787;" d="M359.59,174.878h-14.013c-24.387,0-44.157,19.77-44.157,44.158l0,0
		c0,9.058-7.343,16.401-16.401,16.401l0,0c-16.026,0-29.017,12.992-29.017,29.017l0,0c0,19.51,15.815,35.326,35.326,35.326H434.59
		C428.228,248.219,400.058,203.417,359.59,174.878z"/>
	<path style="fill:#7DD787;" d="M84.985,265.901h57.378c9.795,0,17.735-7.94,17.735-17.736v-0.728
		c0-9.795,7.94-17.736,17.735-17.736l0,0c9.795,0,17.735-7.94,17.735-17.736v-3.879c0-9.795-7.94-17.736-17.735-17.736h-44.464
		C111.401,210.818,94.562,236.711,84.985,265.901z"/>
	<path style="fill:#7DD787;" d="M289.537,299.782h-84.882c-18.408,0-33.329,14.923-33.329,33.329v14.676
		c0,18.408,14.923,33.329,33.329,33.329l0,0c14.121,0,25.567,11.447,25.567,25.567v92.367l31.251-34.577
		c4.345-4.807,10.522-7.55,17.001-7.55l0,0c12.656,0,22.916-10.26,22.916-22.916v-33.142c0-8.81,7.141-15.951,15.951-15.951h7.362
		c8.81,0,15.951-7.141,15.951-15.951V350.9c0-8.81-7.141-15.951-15.951-15.951l0,0c-8.81,0-15.951-7.141-15.951-15.951l0,0
		C308.753,308.385,300.15,299.782,289.537,299.782z"/>
</g>
<path d="M401.528,428.368c-4.274-3.494-10.573-2.863-14.068,1.412l-0.159,0.193c-3.534,4.242-2.961,10.546,1.281,14.081
	c1.869,1.558,4.138,2.317,6.395,2.317c2.863,0,5.709-1.225,7.686-3.597l0.276-0.336
	C406.435,438.162,405.803,431.864,401.528,428.368z"/>
<path d="M315.75,141.676c-5.243-1.733-10.898,1.107-12.634,6.349c-1.737,5.242,1.107,10.898,6.349,12.633
	c6.291,2.083,12.391,4.511,18.291,7.25c-21.129,7.387-36.333,27.51-36.333,51.128c0,3.531-2.872,6.404-6.404,6.404
	c-21.514,0-39.015,17.502-39.015,39.016c0,9.374,2.86,18.092,7.754,25.328h-49.103c-23.891,0-43.327,19.437-43.327,43.327v14.676
	c0,23.891,19.436,43.327,43.327,43.327c8.585,0,15.569,6.984,15.569,15.57v81.52C143.63,471.729,86.039,403.49,86.039,322.044
	c0-15.85,2.188-31.35,6.345-46.144h49.979c15.293,0,27.733-12.441,27.733-27.734v-0.728c0-4.267,3.471-7.738,7.737-7.738
	c15.293,0,27.734-12.441,27.734-27.733v-3.879c0-15.293-12.441-27.734-27.734-27.734h-15.741c4.703-3.115,9.584-6.026,14.644-8.698
	c4.882-2.579,6.749-8.628,4.17-13.51c-2.577-4.882-8.627-6.749-13.51-4.17C104.879,187,66.043,251.4,66.043,322.044
	c0,104.743,85.214,189.957,189.957,189.957c43.049,0,83.643-14.042,117.395-40.609c4.339-3.415,5.088-9.701,1.673-14.04
	c-3.414-4.338-9.699-5.087-14.039-1.673c-30.192,23.765-66.511,36.326-105.029,36.326c-1.954,0-3.895-0.045-5.833-0.111
	l18.724-20.716c2.444-2.705,5.938-4.256,9.584-4.256c18.148,0,32.914-14.765,32.914-32.914v-33.141c0-3.283,2.671-5.954,5.954-5.954
	h7.361c14.309,0,25.949-11.641,25.949-25.949V350.9c0-14.309-11.641-25.949-25.949-25.949c-3.282,0-5.954-2.67-5.954-5.954
	c0-3.22-0.532-6.318-1.499-9.218h75.718c5.521,0,9.998-4.476,9.998-9.998s-4.477-9.998-9.998-9.998H291.327
	c-13.966,0-25.328-11.362-25.328-25.328c0-10.488,8.532-19.02,19.02-19.02c14.557,0,26.399-11.842,26.399-26.399
	c0-18.836,15.324-34.16,34.159-34.16h10.933c42.887,31.389,69.453,81.835,69.453,137.167c0,24.481-5.09,48.101-15.129,70.205
	c-2.283,5.027-0.06,10.955,4.969,13.237c1.341,0.609,2.745,0.897,4.128,0.897c3.801,0,7.435-2.179,9.108-5.866
	c11.226-24.718,16.919-51.12,16.919-78.473C445.958,239.945,393.631,167.462,315.75,141.676z M137.41,200.255
	c0.428,0.056,0.861,0.095,1.304,0.095h39.12c4.267,0,7.738,3.471,7.738,7.738v3.879c0,4.267-3.472,7.737-7.738,7.737
	c-15.293,0-27.733,12.441-27.733,27.734v0.728c0,4.267-3.471,7.738-7.737,7.738H99.395
	C108.185,235.057,121.089,216.128,137.41,200.255z M324.704,344.947c3.282,0,5.954,2.67,5.954,5.954v18.063
	c0,3.283-2.671,5.954-5.954,5.954h-7.361c-14.309,0-25.949,11.641-25.949,25.949v33.141c0,7.123-5.795,12.918-12.918,12.918
	c-9.289,0-18.189,3.953-24.418,10.845l-13.837,15.31v-66.395c0-19.611-15.954-35.566-35.565-35.566
	c-12.865,0-23.332-10.467-23.332-23.332v-14.676c0-12.865,10.467-23.332,23.332-23.332h84.882c5.083,0,9.218,4.135,9.218,9.218
	C298.755,333.305,310.395,344.947,324.704,344.947z"/>
<path d="M196.094,145.933c9.09-0.001,16.535-1.166,21.413-2.218l28.297,28.297c0.064,0.064,0.134,0.118,0.199,0.18v32.788
	c0,5.522,4.477,9.998,9.998,9.998c5.521,0,9.998-4.476,9.998-9.998v-95.303c2.821,0.35,6.09,0.598,9.708,0.598
	c15.279,0,36.716-4.402,56.347-24.035c31.989-31.99,23.493-68.958,21.336-76.426c-0.848-3.211-3.256-5.838-6.476-6.921
	c-1.707-0.576-42.227-13.692-77.066,21.144l0,0c-22.087,22.087-24.894,46.455-23.847,61.771v58.125l-14.356-14.356
	c3.427-15.871,8.04-58.993-30.171-97.203C158.208-10.896,108.302,0.836,98.739,3.627L98.72,3.632
	c-3.228,0.84-5.867,3.253-6.955,6.484c-0.771,2.287-18.334,56.554,28.54,103.428C146.777,140.014,175.601,145.934,196.094,145.933z
	 M283.988,38.174c19.737-19.737,41.599-19.081,51.365-17.497c1.684,10.332,2.088,31.896-17.439,51.422
	c-13.045,13.045-27.016,17.179-37.812,18.026l22.452-22.451c3.904-3.904,3.904-10.235,0-14.139c-3.903-3.904-10.232-3.904-14.14,0
	L265.99,75.96C266.846,65.157,270.979,51.183,283.988,38.174z M109.437,21.59c13.809-2.764,47.598-5.381,77.899,24.921
	c23.377,23.377,27.155,48.785,26.487,65.24l-24.235-24.236c-3.905-3.904-10.234-3.904-14.14,0c-3.904,3.904-3.904,10.235,0,14.14
	l24.164,24.164c-16.496,0.614-41.948-3.194-65.168-26.415C103.683,68.644,106.848,34.35,109.437,21.59z"/>
<path d="M156.183,78.246c2.629,0,5.209-1.07,7.067-2.929c1.86-1.86,2.93-4.439,2.93-7.068s-1.07-5.209-2.93-7.068
	c-1.859-1.86-4.438-2.929-7.067-2.929c-2.63,0-5.209,1.07-7.068,2.929c-1.86,1.86-2.929,4.439-2.929,7.068s1.069,5.209,2.929,7.068
	C150.975,77.176,153.553,78.246,156.183,78.246z"/>
<g>
</g>
<g>
</g>
<g>
</g>
<g>
</g>
<g>
</g>
<g>
</g>
<g>
</g>
<g>
</g>
<g>
</g>
<g>
</g>
<g>
</g>
<g>
</g>
<g>
</g>
<g>
</g>
<g>
</g>
</svg>
