<?xml version="1.0" encoding="iso-8859-1"?>
<!-- Generator: Adobe Illustrator 19.0.0, SVG Export Plug-In . SVG Version: 6.00 Build 0)  -->
<svg version="1.1" id="Capa_1" xmlns="http://www.w3.org/2000/svg" xmlns:xlink="http://www.w3.org/1999/xlink" x="0px" y="0px"
	 viewBox="0 0 512 512" style="enable-background:new 0 0 512 512;" xml:space="preserve">
<path style="fill:#D7FA91;" d="M387.348,45.074c-51.17,51.17-31.118,110.756-31.118,110.756s59.586,20.053,110.756-31.118
	s31.17-110.177,31.12-110.758C498.106,13.954,438.517-6.096,387.348,45.074z"/>
<g>
	<path style="fill:#A5DC69;" d="M381.996,161.051c-71.266,12.566-89.017,72.877-89.017,72.877s37.308,50.603,108.575,38.036
		c71.266-12.566,88.728-72.373,89.021-72.878C490.575,199.087,453.263,148.484,381.996,161.051z"/>
	<path style="fill:#A5DC69;" d="M312.948,21.46c-0.505,0.293-60.312,17.755-72.878,89.021s38.036,108.575,38.036,108.575
		s60.312-17.751,72.877-89.017C363.549,58.772,312.948,21.46,312.948,21.46z"/>
	<path style="fill:#A5DC69;" d="M281.348,264.929c-78.685,13.874-98.285,80.465-98.285,80.465s41.193,55.871,119.878,41.997
		s97.966-79.908,98.289-80.465C401.229,306.925,360.033,251.055,281.348,264.929z"/>
	<path style="fill:#A5DC69;" d="M205.11,110.805c-0.558,0.323-66.591,19.604-80.465,98.289s41.997,119.878,41.997,119.878
		s66.59-19.6,80.465-98.285S205.11,110.805,205.11,110.805z"/>
</g>
<g>
	<path style="fill:#46C373;" d="M168.974,377.302c-78.685,13.874-98.285,80.465-98.285,80.465s41.193,55.871,119.878,41.997
		c78.685-13.874,97.966-79.908,98.289-80.465C288.856,419.298,247.66,363.428,168.974,377.302z"/>
	<path style="fill:#46C373;" d="M92.737,223.178c-0.558,0.323-66.591,19.604-80.465,98.289s41.996,119.878,41.996,119.878
		s66.59-19.6,80.465-98.285S92.737,223.178,92.737,223.178z"/>
</g>
<path d="M437.004,85.051c2.63,0,5.209-1.07,7.068-2.93c1.86-1.86,2.931-4.439,2.931-7.069c0-2.63-1.07-5.209-2.931-7.069
	c-1.859-1.86-4.438-2.93-7.068-2.93c-2.63,0-5.209,1.07-7.069,2.93s-2.93,4.439-2.93,7.069c0,2.63,1.069,5.209,2.93,7.069
	C431.796,83.981,434.375,85.051,437.004,85.051z"/>
<path d="M443.146,155.106c10.302-5.599,20.751-13.164,30.91-23.323c50.7-50.7,37.008-109.08,33.749-120.267l-0.016-0.054
	c-0.834-3.241-3.254-5.893-6.494-6.984c-2.673-0.899-66.095-21.395-121.017,33.527C370.115,48.167,362.54,58.62,356.94,68.926
	c-11.74-35.645-36.523-54.381-38.058-55.513c-2.754-2.029-6.313-2.49-9.446-1.314l-0.053,0.018
	c-11.035,3.748-66.709,26.017-79.16,96.629c-0.694,3.939-1.203,7.774-1.56,11.52c-9.267-11.278-17.162-17.171-17.619-17.507
	c-2.757-2.033-6.322-2.492-9.459-1.31l-0.078,0.026c-12.086,4.104-73.065,28.5-86.709,105.883
	c-1.285,7.288-1.991,14.265-2.237,20.938c-7.569-8.447-13.498-12.875-13.891-13.165c-2.757-2.033-6.321-2.492-9.459-1.31
	l-0.078,0.026c-12.086,4.104-73.064,28.499-86.709,105.883c-7.708,43.712,5.043,76.536,17.097,96.374
	c13.106,21.571,28.179,32.82,28.812,33.288c0.037,0.027,0.077,0.051,0.115,0.077l-45.46,45.461c-3.905,3.905-3.905,10.236,0,14.14
	c1.953,1.953,4.511,2.929,7.07,2.929s5.117-0.976,7.07-2.929l45.453-45.453c0.011,0.016,0.025,0.031,0.037,0.047
	c0.008,0.011,0.015,0.024,0.023,0.035c0.468,0.635,11.717,15.706,33.288,28.812c15.643,9.505,39.357,19.443,70.12,19.443
	c8.25,0,17.01-0.715,26.254-2.345c77.384-13.645,101.779-74.625,105.883-86.71l0.026-0.077c1.182-3.136,0.723-6.703-1.31-9.459
	c-0.29-0.393-4.716-6.321-13.161-13.887c6.671-0.246,13.65-0.955,20.934-2.24c7.591-1.339,14.996-3.202,22.009-5.537
	c5.239-1.745,8.072-7.407,6.327-12.645c-1.744-5.238-7.405-8.074-12.644-6.327c-6.087,2.027-12.534,3.648-19.164,4.816
	c-29.861,5.267-57.387,0.534-81.805-14.064c-6.395-3.824-11.733-7.863-15.997-11.52l90.48-15.954
	c5.438-0.959,9.069-6.145,8.11-11.583s-6.145-9.068-11.583-8.111l-90.485,15.955c10.694-18.922,34.857-48.975,83.157-57.491
	c19.443-3.429,37.89-2.616,55.136,2.394c1.94,0.681,3.933,1.324,5.977,1.923c7.119,2.513,14.023,5.759,20.695,9.748
	c12.204,7.296,20.599,15.393,24.912,20.076c-2.006,4.845-4.625,9.972-7.602,14.846c-2.879,4.712-1.392,10.867,3.322,13.744
	c4.711,2.879,10.866,1.391,13.744-3.322c4.802-7.863,8.707-16.043,11.293-23.658l0.026-0.077c1.182-3.136,0.723-6.703-1.31-9.458
	c-0.336-0.456-6.229-8.351-17.507-17.618c3.746-0.357,7.583-0.867,11.52-1.561c70.617-12.451,92.883-68.127,96.629-79.161
	l0.019-0.053c1.175-3.133,0.714-6.692-1.315-9.444C497.49,191.619,478.766,166.85,443.146,155.106z M144.578,344.796
	c1.286-7.289,1.991-14.268,2.237-20.942c7.569,8.448,13.499,12.875,13.892,13.165c0.037,0.027,0.077,0.05,0.114,0.077
	l-18.564,18.564C143.135,352.16,143.918,348.547,144.578,344.796z M174.956,351.244c0.012,0.016,0.025,0.031,0.037,0.047
	c0.008,0.011,0.015,0.024,0.023,0.035c0.29,0.393,4.716,6.322,13.163,13.891c-6.674,0.246-13.652,0.952-20.941,2.237
	c-3.727,0.657-7.318,1.435-10.798,2.305L174.956,351.244z M259.035,214.668c5.735,6.428,10.508,10.389,12.368,11.848l-16.771,16.771
	c0.876-3.5,1.659-7.113,2.321-10.863C258.035,226.286,258.7,220.371,259.035,214.668z M394.418,52.144L394.418,52.144
	c19.235-19.235,41.885-29.929,67.32-31.785c12.337-0.898,22.429,0.597,28.126,1.799c3.407,15.956,7.587,57.948-29.948,95.483
	c-19.235,19.235-41.885,29.928-67.319,31.783c-5.837,0.426-11.165,0.312-15.77-0.051l38.253-38.253
	c3.905-3.905,3.905-10.236,0-14.141c-3.906-3.905-10.235-3.905-14.141,0l-38.262,38.262
	C361.155,115.541,364.298,82.264,394.418,52.144z M249.916,112.217c9.222-52.292,46.035-72.949,61.053-79.304
	c10.821,10.099,39.494,42.509,30.17,95.389c-3.799,21.54-12.582,39.815-26.154,54.527c-2.057,1.917-3.995,3.854-5.813,5.795
	c-1.601,1.479-3.237,2.931-4.948,4.325c-4.538,3.698-8.967,6.659-12.947,9.004l14.099-79.96c0.959-5.438-2.672-10.624-8.11-11.583
	c-5.438-0.956-10.624,2.672-11.583,8.111l-14.1,79.966C259.033,183.224,242.517,154.172,249.916,112.217z M134.491,210.83
	c10.393-58.937,52.29-81.806,68.635-88.593c4.692,4.322,12.78,12.713,20.07,24.906c3.999,6.688,7.251,13.61,9.766,20.747
	c0.586,1.995,1.215,3.94,1.879,5.834c5.032,17.272,5.853,35.751,2.42,55.225c-4.435,25.154-14.992,46.303-31.392,63.082
	c-0.844,0.822-1.66,1.642-2.457,2.46c-2.342,2.255-4.783,4.434-7.347,6.52c-5.78,4.702-11.402,8.337-16.297,11.093l15.954-90.48
	c0.959-5.438-2.672-10.624-8.11-11.583c-5.437-0.958-10.625,2.672-11.583,8.111l-15.954,90.479
	c-3.658-4.264-7.696-9.602-11.52-15.996C133.958,268.218,129.226,240.694,134.491,210.83z M36.182,405.008
	c-14.598-24.417-19.33-51.941-14.064-81.804c10.394-58.938,52.291-81.807,68.635-88.593c4.692,4.322,12.78,12.713,20.07,24.906
	c14.598,24.419,19.33,51.943,14.064,81.807c-4.436,25.157-14.994,46.308-31.396,63.087c-0.841,0.82-1.656,1.638-2.45,2.453
	c-2.343,2.255-4.784,4.434-7.348,6.521c-5.78,4.702-11.402,8.337-16.296,11.093l15.955-90.48c0.959-5.437-2.672-10.624-8.11-11.583
	c-5.429-0.958-10.623,2.672-11.583,8.111l-15.955,90.48C44.044,416.74,40.005,411.403,36.182,405.008z M188.831,489.916
	c-29.861,5.266-57.387,0.534-81.805-14.064c-6.395-3.824-11.733-7.863-15.997-11.52l90.48-15.954
	c5.438-0.959,9.069-6.145,8.11-11.583c-0.959-5.437-6.143-9.07-11.583-8.111L87.551,444.64
	c10.694-18.922,34.858-48.975,83.158-57.491c29.863-5.266,57.389-0.535,81.807,14.063c12.199,7.292,20.591,15.385,24.906,20.07
	C270.638,437.626,247.768,479.525,188.831,489.916z M279.611,255.082c-3.727,0.657-7.318,1.435-10.798,2.305l16.727-16.727
	c1.479,1.885,5.431,6.638,11.822,12.34C291.66,253.333,285.747,253.999,279.611,255.082z M399.818,262.118
	c-26.789,4.723-51.477,0.492-73.375-12.577c-5.026-3-9.324-6.148-12.889-9.087l79.959-14.099c5.438-0.959,9.069-6.145,8.11-11.583
	s-6.145-9.07-11.583-8.111l-79.966,14.1c3.219-5.446,7.627-11.751,13.511-18.06c1.751-1.646,3.498-3.389,5.228-5.228
	c12.412-11.52,30.121-22.203,54.918-26.576c26.787-4.724,51.475-0.493,73.377,12.577c10.619,6.337,18.031,13.353,22.007,17.606
	C472.756,216.105,452.099,252.9,399.818,262.118z"/>
<path d="M357.039,352.708l-0.376,0.305c-4.294,3.471-4.963,9.766-1.493,14.061c1.977,2.446,4.866,3.716,7.783,3.716
	c2.207,0,4.428-0.728,6.277-2.222l0.432-0.35c4.282-3.486,4.929-9.784,1.443-14.066S361.322,349.221,357.039,352.708z"/>
<g>
</g>
<g>
</g>
<g>
</g>
<g>
</g>
<g>
</g>
<g>
</g>
<g>
</g>
<g>
</g>
<g>
</g>
<g>
</g>
<g>
</g>
<g>
</g>
<g>
</g>
<g>
</g>
<g>
</g>
</svg>
