<?xml version="1.0" encoding="iso-8859-1"?>
<!-- Generator: Adobe Illustrator 19.0.0, SVG Export Plug-In . SVG Version: 6.00 Build 0)  -->
<svg version="1.1" id="Capa_1" xmlns="http://www.w3.org/2000/svg" xmlns:xlink="http://www.w3.org/1999/xlink" x="0px" y="0px"
	 viewBox="0 0 512 512" style="enable-background:new 0 0 512 512;" xml:space="preserve">
<g>
	<path style="fill:#46C373;" d="M210.323,481.996c0-19.566-15.862-35.428-35.428-35.428c-0.566,0-1.126,0.021-1.686,0.047
		c-7.136-28.175-32.655-49.024-63.049-49.024c-28.823,0-53.25,18.754-61.786,44.72C27.063,443.02,10,460.51,10,481.996H210.323z"/>
	<path style="fill:#46C373;" d="M494.76,481.996c4.769-6.769,7.487-15.086,7.223-24.056c-0.637-21.632-18.847-38.951-40.485-38.55
		c-21.608,0.4-39.002,18.041-39.002,39.745c0,1.378,0.07,2.739,0.207,4.081c-4.394-6.862-12.296-11.259-21.181-10.645
		c-10.882,0.752-19.887,9.208-21.333,20.019c-0.441,3.295-0.164,6.466,0.664,9.407H494.76z"/>
</g>
<circle style="fill:#F5B955;" cx="253.418" cy="169.182" r="74.006"/>
<polygon style="fill:#32C8AF;" points="10,397.494 149.993,73.929 289.986,397.494 "/>
<path style="fill:#A5DC69;" d="M501.976,257.564c0,77.316-62.677,139.993-139.993,139.993S221.989,334.88,221.989,257.564
	c0-33.516,11.784-64.276,31.426-88.377h-0.01l108.08-139.168L470.04,168.456h-0.081C489.959,192.665,501.976,223.71,501.976,257.564
	z"/>
<path d="M438.789,264.609c2.641,0,5.221-1.06,7.07-2.92c1.87-1.86,2.939-4.44,2.939-7.07c0-2.64-1.069-5.21-2.939-7.08
	c-1.86-1.86-4.43-2.92-7.07-2.92c-2.63,0-5.21,1.06-7.069,2.92c-1.86,1.86-2.931,4.44-2.931,7.08c0,2.63,1.07,5.21,2.931,7.07
	C433.579,263.549,436.159,264.609,438.789,264.609z"/>
<path d="M68.327,272.679c2.63,0,5.21-1.06,7.069-2.93c1.86-1.85,2.931-4.43,2.931-7.07c0-2.63-1.07-5.2-2.931-7.07
	c-1.859-1.86-4.439-2.92-7.069-2.92s-5.21,1.06-7.07,2.92c-1.86,1.87-2.93,4.44-2.93,7.07c0,2.64,1.069,5.22,2.93,7.07
	C63.117,271.619,65.697,272.679,68.327,272.679z"/>
<path d="M511.978,457.646c-0.797-27.11-23.541-48.732-50.665-48.255c-21.871,0.405-40.429,15.213-46.619,35.196
	c-4.353-1.614-9.063-2.326-13.861-1.994c-13.215,0.913-24.443,9.678-28.852,21.755v-57.135
	c78.06-5.164,139.993-70.306,139.993-149.652c0-34.384-11.9-67.906-33.536-94.535c-0.164-0.253-0.341-0.501-0.529-0.741
	L369.354,23.849c-1.896-2.418-4.798-3.83-7.869-3.83c-0.008,0-0.016,0-0.023,0c-3.08,0.007-5.985,1.434-7.875,3.866L296.68,97.163
	c-13.012-7.861-27.786-11.98-43.262-11.98c-22.21,0-43.152,8.586-58.967,24.175c-4.51,4.446-8.49,9.385-11.876,14.692
	l-23.403-54.091c-1.583-3.66-5.19-6.029-9.178-6.029c-3.988,0-7.595,2.369-9.178,6.029L74.234,223.845
	c-2.193,5.069,0.138,10.955,5.207,13.147c1.294,0.56,2.641,0.825,3.966,0.825c3.867,0,7.55-2.257,9.183-6.032l57.403-132.675
	l39.365,90.984c2.193,5.069,8.082,7.399,13.147,5.207c5.069-2.193,7.4-8.08,5.207-13.147l-14.737-34.062
	c3.212-9.189,8.531-17.609,15.512-24.491c12.05-11.877,28.006-18.418,44.929-18.418c10.977,0,21.486,2.723,30.881,7.926
	l-38.788,49.946c-0.034,0.045-0.068,0.09-0.103,0.135c-21.552,26.592-33.415,60.089-33.415,94.374
	c0,79.345,61.933,144.487,139.993,149.652v64.782H219.204c-4.154-18.415-19.518-32.632-38.521-35.061
	c-4.16-11.46-10.962-21.476-19.593-29.442h94.897c5.522,0,10-4.477,10-10s-4.478-10-10-10h-95.995v-18.643l38.906-38.907
	c3.905-3.905,3.905-10.236,0-14.141c-3.906-3.905-10.236-3.905-14.142,0l-24.764,24.766v-64.81l23.757-23.757
	c3.905-3.905,3.905-10.236,0-14.142c-3.906-3.905-10.235-3.905-14.142,0l-9.615,9.615v-33.827c0-5.523-4.478-10-10-10
	c-5.522,0-10,4.477-10,10v33.827l-9.615-9.615c-3.906-3.905-10.235-3.905-14.142,0c-3.905,3.905-3.905,10.237,0,14.142
	l23.757,23.756v63.297l-23.251-23.251c-3.905-3.905-10.235-3.905-14.142,0c-3.905,3.905-3.905,10.236,0,14.141l37.393,37.392v20.156
	H25.222l37.96-87.739c2.193-5.069-0.138-10.955-5.207-13.147c-5.07-2.194-10.955,0.138-13.147,5.207L0.822,393.523
	c-1.337,3.09-1.029,6.646,0.82,9.461c1.849,2.814,4.99,4.509,8.357,4.509h49.229c-7.6,7.024-13.794,15.655-18.018,25.513
	C17.617,437.016,0,457.361,0,481.996c0,5.523,4.478,10,10,10h139.993h60.33H494.76c3.253,0,6.302-1.582,8.176-4.241
	C509.17,478.902,512.297,468.49,511.978,457.646z M231.989,257.564c0-29.832,10.362-58.974,29.179-82.059
	c0.134-0.164,0.261-0.33,0.383-0.5l45.141-58.125c0.002-0.003,0.005-0.006,0.007-0.009c0.002-0.003,0.004-0.006,0.007-0.01
	l54.819-70.588l99.919,127.424c0.241,0.391,0.51,0.769,0.809,1.129c19.166,23.203,29.724,52.586,29.724,82.738
	c0,68.315-52.969,124.49-119.994,129.613v-51.607l49.242-49.242c3.905-3.905,3.905-10.237,0-14.142
	c-3.906-3.905-10.235-3.905-14.142,0l-35.099,35.099v-88.495l42.179-42.179c3.905-3.905,3.905-10.237,0-14.142
	c-3.906-3.905-10.236-3.905-14.142,0l-28.037,28.039v-89.998c0-5.523-4.478-10-10-10s-10,4.477-10,10v89.998l-28.037-28.037
	c-3.906-3.905-10.236-3.905-14.142,0c-3.905,3.905-3.905,10.236,0,14.142l42.179,42.178v88.495l-59.74-59.74
	c-3.906-3.905-10.236-3.905-14.142,0c-3.905,3.905-3.905,10.237,0,14.141l73.882,73.881v51.608
	C284.958,382.053,231.989,325.877,231.989,257.564z M149.993,471.996H21.701c3.961-11.203,14.417-19.272,27.007-19.691
	c4.194-0.14,7.855-2.884,9.167-6.872c7.441-22.635,28.454-37.843,52.286-37.843c25.229,0,47.171,17.057,53.354,41.479
	c1.167,4.608,5.427,7.769,10.164,7.534c0.403-0.019,0.808-0.036,1.215-0.036c10.473,0,19.488,6.365,23.38,15.429L149.993,471.996
	L149.993,471.996z M390.513,471.996c1.533-5.146,6.264-9.076,11.698-9.451c4.829-0.337,9.462,1.989,12.069,6.063
	c0.934,1.457,2.194,2.603,3.636,3.388H390.513z M489.08,471.996h-61.591c3.489-1.9,5.574-5.738,5.161-9.794
	c-0.103-1.013-0.155-2.045-0.155-3.067c0-16.104,13.093-29.45,29.187-29.748c0.186-0.003,0.369-0.005,0.554-0.005
	c15.987,0,29.28,12.83,29.751,28.853C492.129,463.06,491.133,467.739,489.08,471.996z"/>
<path d="M255.991,68.596c5.522,0,10-4.477,10-10V30.005c0-5.523-4.478-10-10-10c-5.522,0-10,4.477-10,10v28.592
	C245.991,64.119,250.468,68.596,255.991,68.596z"/>
<path d="M216.811,75.222c1.952,1.95,4.51,2.925,7.067,2.925c2.561,0,5.122-0.978,7.074-2.933c3.903-3.907,3.9-10.239-0.007-14.141
	L220.929,51.07c-3.907-3.903-10.24-3.901-14.141,0.007c-3.903,3.907-3.9,10.239,0.007,14.141L216.811,75.222z"/>
<path d="M288.193,78.101c2.561,0,5.122-0.978,7.075-2.933l9.937-9.947c3.902-3.908,3.899-10.239-0.008-14.141
	c-3.907-3.904-10.239-3.9-14.142,0.007l-9.937,9.947c-3.902,3.908-3.899,10.239,0.008,14.141
	C283.078,77.127,285.635,78.101,288.193,78.101z"/>
<g>
</g>
<g>
</g>
<g>
</g>
<g>
</g>
<g>
</g>
<g>
</g>
<g>
</g>
<g>
</g>
<g>
</g>
<g>
</g>
<g>
</g>
<g>
</g>
<g>
</g>
<g>
</g>
<g>
</g>
</svg>
