<?xml version="1.0" encoding="iso-8859-1"?>
<!-- Generator: Adobe Illustrator 19.0.0, SVG Export Plug-In . SVG Version: 6.00 Build 0)  -->
<svg version="1.1" id="Capa_1" xmlns="http://www.w3.org/2000/svg" xmlns:xlink="http://www.w3.org/1999/xlink" x="0px" y="0px"
	 viewBox="0 0 512.002 512.002" style="enable-background:new 0 0 512.002 512.002;" xml:space="preserve">
<path style="fill:#FF9155;" d="M306.225,157.001v-49.113c0-54.062,43.826-97.887,97.887-97.887l0,0
	c54.062,0,97.887,43.826,97.887,97.887v62.424l-14.873-3.102c-20.418-4.258-40.829,7.277-47.712,26.966l0,0
	c-1.541,4.408-2.329,9.045-2.329,13.715V324.57c0,25.46-10.616,49.766-29.292,67.069l0,0
	c-16.903,15.661-39.096,24.362-62.139,24.362H327.5"/>
<path style="fill:#46C373;" d="M149.736,320.57H29.962C18.937,320.57,10,329.507,10,340.532l0,0
	c0,11.025,8.937,19.962,19.962,19.962h119.774c11.025,0,19.962-8.937,19.962-19.962l0,0
	C169.699,329.507,160.761,320.57,149.736,320.57z"/>
<path style="fill:#C88C64;" d="M154.727,360.495v33.738c0,30.532-17.583,58.334-45.169,71.419l-19.709,9.349l-19.709-9.349
	c-27.586-13.085-45.169-40.887-45.169-71.419v-33.738H154.727z"/>
<g>
	<path style="fill:#FFB773;" d="M403.814,328.065L403.814,328.065c0-62.839-41.59-118.092-101.977-135.476l-28.86-8.309
		l-18.673-27.178c-5.493-7.995-12.691-14.458-20.921-19.045l0,0L211.048,86.95l-23.283,45.215l0.024,0.003
		c-11.682,2.998-22.357,9.356-30.594,18.47l-26.997,29.869c-5.445,6.025-8.745,13.768-8.912,21.887
		c-0.383,18.563,14.55,33.731,33.026,33.731h47.961l24.36,45.219l9.864,44.091c8.053,35.999,40.004,61.592,76.893,61.592l0,0"/>
	<path style="fill:#FFB773;" d="M278.927,341.414c-2.59-7.506-3.827-15.642-3.419-24.117c1.579-32.828,28.244-59.435,61.075-60.95
		c36.834-1.699,67.231,27.661,67.231,64.121v27.293c0,37.688-30.552,68.24-68.24,68.24H208.636l0,0
		c0-15.976,12.951-28.926,28.926-28.926h75.825"/>
	<path style="fill:#FFB773;" d="M238.14,243.6L238.14,243.6c-11.31,14.934-30.367,21.789-48.599,17.479l-8.225-1.944
		c-7.624-1.802-15.279,2.863-17.172,10.464l0,0c-1.766,7.088,2.092,14.367,8.948,16.886l28.567,10.496
		c9.421,3.461,19.698,3.837,29.347,1.073l24.491-7.016"/>
</g>
<path d="M164.727,394.232v-27.773c8.941-5.19,14.972-14.865,14.972-25.927c0-16.521-13.44-29.962-29.962-29.962h-45.458
	c2.414-2.208,5.616-3.567,9.137-3.567c5.522,0,10-4.478,10-10s-4.478-10-10-10c-15.027,0-27.78,9.927-32.046,23.567H29.962
	C13.44,310.57,0,324.011,0,340.532c0,11.062,6.03,20.736,14.972,25.927v27.773c0,34.212,19.973,65.792,50.883,80.455l19.708,9.349
	c1.356,0.644,2.821,0.965,4.286,0.965s2.93-0.321,4.285-0.965l19.71-9.349C144.754,460.024,164.727,428.444,164.727,394.232z
	 M29.962,330.57h119.774c5.493,0,9.962,4.469,9.962,9.962s-4.469,9.963-9.962,9.963H29.962c-5.493,0-9.962-4.47-9.962-9.963
	S24.469,330.57,29.962,330.57z M105.271,456.617l-15.423,7.315l-15.422-7.315c-23.968-11.369-39.455-35.857-39.455-62.385v-23.737
	h109.755v23.737C144.727,420.76,129.239,445.248,105.271,456.617z"/>
<path d="M154.311,246.125H196.3l3.342,6.205c-2.596-0.053-5.209-0.369-7.8-0.981l-8.227-1.944
	c-12.885-3.054-25.977,4.93-29.176,17.778c-3.007,12.068,3.529,24.402,15.202,28.69l28.566,10.496
	c6.406,2.354,13.062,3.535,19.737,3.535c1.594,0,3.188-0.076,4.78-0.21l4.011,17.924c2.422,10.833,6.78,20.979,12.953,30.156
	c4.956,7.369,10.909,13.84,17.605,19.3h-19.732c-21.464,0-38.926,17.463-38.926,38.927c0,5.522,4.478,10,10,10h211.914
	c5.522,0,10-4.478,10-10s-4.478-10-10-10H406.1c2.935-2.182,5.778-4.512,8.49-7.025c20.651-19.134,32.496-46.253,32.496-74.405
	v-116.68c0-3.555,0.595-7.059,1.768-10.414c5.207-14.896,20.783-23.695,36.231-20.478l14.873,3.103
	c2.945,0.615,6.015-0.131,8.35-2.029c2.336-1.899,3.692-4.749,3.692-7.76v-62.424c0-59.49-48.398-107.888-107.888-107.888
	S296.225,48.399,296.225,107.889v49.112c0,5.522,4.478,10,10,10s10-4.478,10-10v-49.112c0-48.462,39.426-87.888,87.888-87.888
	S492,59.427,492,107.889v50.122l-2.832-0.59c-25.237-5.267-50.686,9.118-59.193,33.455c-1.917,5.482-2.889,11.207-2.889,17.015
	v116.68c0,19.023-6.759,37.444-18.778,51.963c3.539-8.913,5.505-18.615,5.505-28.773v-27.293c0-5.954-0.71-11.782-2.054-17.411
	c-3.945-23.773-13.531-46.169-28.3-65.789c-19.857-26.381-47.126-45.153-78.856-54.288l-25.415-7.317l-16.643-24.223
	c-5.59-8.136-12.904-15.115-21.293-20.346L220.21,82.946c-1.545-3.536-4.988-5.867-8.846-5.99c-3.878-0.119-7.441,1.986-9.208,5.417
	l-21.324,41.41c-11.939,3.892-22.604,10.798-31.058,20.151l-26.998,29.869c-7.196,7.961-11.277,18.042-11.491,28.386
	c-0.24,11.671,4.122,22.687,12.282,31.017C131.73,241.536,142.648,246.125,154.311,246.125z M137.615,187.213l26.998-29.869
	c6.854-7.584,15.728-12.94,25.661-15.489c3.034-0.779,5.423-2.894,6.633-5.601l13.401-26.024l13.911,31.833
	c0.876,2.004,2.384,3.665,4.295,4.729c6.969,3.885,13.036,9.408,17.547,15.974l18.673,27.178c1.313,1.91,3.248,3.306,5.476,3.946
	l28.86,8.309c29.227,8.414,53.831,26.632,70.637,50.416c-10.401-4.621-21.823-6.8-33.585-6.257
	c-18.37,0.848-35.723,8.534-48.859,21.644c-13.137,13.11-20.858,30.447-21.742,48.814c-0.46,9.55,0.87,18.923,3.954,27.86
	c1.802,5.221,7.493,7.993,12.715,6.191c5.221-1.802,7.993-7.494,6.191-12.715c-2.25-6.522-3.221-13.377-2.884-20.375
	c1.326-27.573,23.969-50.169,51.547-51.441c14.983-0.688,29.189,4.612,39.997,14.933c7.341,7.011,12.436,15.679,14.957,25.198
	c1.195,7.061,1.816,14.28,1.816,21.599v19.695c0,32.114-26.127,58.24-58.24,58.24H327.5h-106c3.346-5.356,9.295-8.927,16.063-8.927
	h75.825c5.522,0,10-4.478,10-10c0-0.008-0.001-0.016-0.001-0.023s0.001-0.016,0.001-0.023c0-5.522-4.478-10-10-10
	c-22.946,0-44.293-11.37-57.103-30.415c-4.779-7.104-8.153-14.964-10.031-23.36l-4.029-18.009l16.024-4.591
	c5.31-1.521,8.381-7.059,6.859-12.367c-1.522-5.31-7.058-8.385-12.367-6.859l-24.491,7.017c-7.659,2.194-15.663,1.902-23.144-0.847
	L176.539,277.1c-2.068-0.76-3.226-2.944-2.693-5.082c0.566-2.277,2.891-3.687,5.169-3.15l8.227,1.944
	c10.374,2.454,20.979,1.915,30.729-1.223c0.072-0.021,0.142-0.05,0.213-0.073c10.901-3.555,20.72-10.361,27.928-19.877
	c3.334-4.403,2.469-10.675-1.934-14.01c-4.404-3.336-10.675-2.467-14.01,1.934c-2.955,3.901-6.593,7.085-10.646,9.5l-8.446-15.679
	c-1.744-3.238-5.125-5.258-8.804-5.258h-47.961c-2.573,0-5.075-0.424-7.437-1.226c4.794-2.445,6.815-8.268,4.502-13.167
	c-2.359-4.995-8.321-7.129-13.313-4.773l-5.822,2.749c-0.678-2.272-1.009-4.661-0.959-7.106
	C131.396,197.069,133.646,191.604,137.615,187.213z"/>
<path d="M183.76,186.491c2.63,0,5.21-1.07,7.07-2.931c1.859-1.859,2.93-4.439,2.93-7.069c0-2.631-1.07-5.21-2.93-7.07
	c-1.86-1.86-4.44-2.93-7.07-2.93c-2.64,0-5.21,1.069-7.07,2.93c-1.859,1.86-2.93,4.439-2.93,7.07c0,2.63,1.07,5.21,2.93,7.069
	C178.55,185.421,181.13,186.491,183.76,186.491z"/>
<path d="M175.17,452.001c-5.522,0-10,4.478-10,10s4.478,10,10,10h74.497c5.522,0,10-4.478,10-10s-4.478-10-10-10H175.17z"/>
<path d="M312.515,462.001c0,5.522,4.478,10,10,10h179.487c5.522,0,10-4.478,10-10s-4.478-10-10-10H322.515
	C316.992,452.001,312.515,456.479,312.515,462.001z"/>
<path d="M502.002,492.001H135.667c-5.522,0-10,4.478-10,10s4.478,10,10,10h366.335c5.522,0,10-4.478,10-10
	S507.524,492.001,502.002,492.001z"/>
<path d="M468.74,423.07c1.859-1.859,2.93-4.43,2.93-7.069c0-2.63-1.07-5.21-2.93-7.07c-1.86-1.86-4.44-2.93-7.07-2.93
	c-2.641,0-5.21,1.069-7.07,2.93c-1.859,1.86-2.93,4.44-2.93,7.07s1.07,5.21,2.93,7.069c1.86,1.86,4.44,2.931,7.07,2.931
	S466.88,424.931,468.74,423.07z"/>
<path d="M118.7,388.396c-5.522,0-10,4.478-10,10c0,8.45-4.933,16.25-12.566,19.871c-4.99,2.367-7.117,8.331-4.75,13.32
	c1.711,3.606,5.3,5.717,9.042,5.717c1.436,0,2.896-0.311,4.278-0.967c14.577-6.914,23.996-21.807,23.996-37.941
	C128.7,392.873,124.223,388.396,118.7,388.396z"/>
<path d="M403.493,60.779l0.619-0.003c5.522,0,10-4.478,10-10s-4.478-10-10-10c-0.286,0-0.571,0.001-0.857,0.005
	c-5.522,0.065-9.946,4.596-9.88,10.118c0.065,5.481,4.529,9.881,9.996,9.881C403.412,60.78,403.452,60.78,403.493,60.779z"/>
<path d="M357,107.889c0-15.358,7.522-29.796,20.123-38.622c4.523-3.168,5.622-9.403,2.453-13.928
	c-3.168-4.523-9.404-5.621-13.928-2.453C347.71,65.45,337,86.013,337,107.889c0,5.522,4.478,10,10,10S357,113.411,357,107.889z"/>
<g>
</g>
<g>
</g>
<g>
</g>
<g>
</g>
<g>
</g>
<g>
</g>
<g>
</g>
<g>
</g>
<g>
</g>
<g>
</g>
<g>
</g>
<g>
</g>
<g>
</g>
<g>
</g>
<g>
</g>
</svg>
