<?xml version="1.0" encoding="iso-8859-1"?>
<!-- Generator: Adobe Illustrator 19.0.0, SVG Export Plug-In . SVG Version: 6.00 Build 0)  -->
<svg version="1.1" id="Capa_1" xmlns="http://www.w3.org/2000/svg" xmlns:xlink="http://www.w3.org/1999/xlink" x="0px" y="0px"
	 viewBox="0 0 511.999 511.999" style="enable-background:new 0 0 511.999 511.999;" xml:space="preserve">
<path style="fill:#F5B955;" d="M460.882,112.989l-25.23,34.785l23.872,57.568l42.441,6.724l0.036,87.682l-42.421,6.754
	l-23.835,57.604l25.247,34.754l-61.979,62.021l-34.785-25.23l-57.568,23.872l-6.724,42.441L212.254,502l-6.754-42.422
	l-57.604-23.835l-34.754,25.247L51.12,399.011l25.23-34.785l-23.871-57.568l-42.442-6.724l-0.037-87.682l42.422-6.754l23.835-57.604
	L51.01,113.141l61.979-62.021l34.785,25.23l57.568-23.872l6.724-42.442L299.749,10l6.754,42.422l57.604,23.835l34.754-25.247
	L460.882,112.989z"/>
<circle style="fill:#FFFFFF;" cx="255.998" cy="255.997" r="163.998"/>
<path style="fill:#A5DC69;" d="M161.54,285.538c0,52.169,42.292,94.461,94.461,94.461s94.461-42.292,94.461-94.461
	c0-22.615-7.951-43.37-21.206-59.633h0.006l-72.926-93.903l-73.248,93.411h0.055C169.648,241.747,161.54,262.695,161.54,285.538z"/>
<path style="fill:#78D2FA;" d="M329.263,225.904l-72.926-93.903l-0.335,0.428v247.569c52.169,0,94.461-42.292,94.461-94.461
	c0-22.615-7.951-43.37-21.206-59.632L329.263,225.904L329.263,225.904z"/>
<path d="M511.965,212.062c-0.002-4.917-3.579-9.103-8.435-9.873l-36.914-5.849l-19.583-47.227l21.943-30.253
	c2.887-3.98,2.452-9.469-1.026-12.945l-62.021-61.979c-3.479-3.476-8.967-3.908-12.946-1.017l-30.225,21.957l-47.261-19.554
	l-5.874-36.894C308.851,3.573,304.664,0,299.749,0c-0.001,0-0.003,0-0.004,0l-87.682,0.036c-4.917,0.002-9.104,3.579-9.873,8.435
	l-5.848,36.914l-47.227,19.583L118.86,43.025c-3.979-2.886-9.468-2.451-12.945,1.026l-61.978,62.021
	c-3.476,3.479-3.907,8.968-1.017,12.946l21.957,30.225l-19.555,47.26l-36.894,5.874c-4.856,0.773-8.43,4.962-8.428,9.879
	l0.036,87.682c0.002,4.917,3.579,9.104,8.435,9.873l36.914,5.848l19.583,47.227l-21.943,30.254
	c-2.887,3.98-2.452,9.469,1.026,12.945l62.021,61.978c3.479,3.476,8.967,3.908,12.946,1.017l30.225-21.957l47.26,19.555
	l5.874,36.894c0.773,4.855,4.959,8.428,9.875,8.428c0.001,0,0.003,0,0.004,0l87.682-0.036c4.917-0.002,9.104-3.579,9.873-8.435
	l5.848-36.914l47.227-19.583l30.254,21.943c3.98,2.887,9.469,2.453,12.945-1.026l61.978-62.021
	c3.476-3.479,3.907-8.968,1.017-12.946l-21.957-30.225l19.555-47.259l36.894-5.875c4.856-0.773,8.43-4.962,8.428-9.879
	L511.965,212.062z M458.008,296.627c-3.435,0.547-6.338,2.839-7.668,6.052l-23.835,57.603c-1.33,3.213-0.895,6.887,1.15,9.701
	l20.229,27.847l-49.909,49.944L370.1,427.556c-2.814-2.042-6.489-2.474-9.702-1.143l-57.568,23.872
	c-3.212,1.332-5.502,4.238-6.046,7.672l-5.388,34.01l-70.608,0.029l-5.412-33.991c-0.546-3.435-2.839-6.338-6.052-7.668
	l-57.604-23.835c-1.231-0.51-2.53-0.76-3.822-0.76c-2.08,0-4.143,0.649-5.878,1.91l-27.847,20.229l-49.944-49.909l20.217-27.875
	c2.042-2.815,2.475-6.489,1.143-9.702l-23.872-57.568c-1.332-3.212-4.238-5.502-7.672-6.046l-34.01-5.388l-0.029-70.608
	l33.991-5.412c3.435-0.546,6.338-2.839,7.668-6.052l23.835-57.604c1.33-3.213,0.894-6.887-1.15-9.701L64.12,114.169l49.909-49.944
	l27.875,20.217c2.815,2.043,6.49,2.475,9.702,1.143l57.568-23.872c3.212-1.332,5.502-4.238,6.046-7.672l5.388-34.01l70.608-0.029
	l5.412,33.991c0.546,3.435,2.839,6.338,6.052,7.668l57.604,23.835c3.213,1.33,6.886,0.894,9.701-1.15l27.847-20.229l49.944,49.91
	L427.559,141.9c-2.042,2.815-2.475,6.489-1.143,9.702l23.872,57.568c1.332,3.212,4.237,5.502,7.672,6.046l34.01,5.389l0.029,70.607
	L458.008,296.627z"/>
<path d="M281.002,83.798c-36.119-5.219-73.713,1.206-105.863,18.086c-4.89,2.568-6.772,8.613-4.205,13.503
	c2.567,4.89,8.613,6.771,13.502,4.205c59.982-31.495,132.503-20.438,180.456,27.517c29.088,29.087,45.106,67.758,45.106,108.892
	s-16.019,79.805-45.106,108.893c-29.087,29.087-67.758,45.105-108.892,45.105s-79.805-16.02-108.893-45.106
	c-48.552-48.551-59.058-124.25-25.548-184.084c2.698-4.818,0.98-10.913-3.839-13.611c-4.818-2.698-10.912-0.979-13.611,3.839
	c-18.156,32.42-25.48,70.672-20.622,107.711c5.018,38.258,22.128,72.937,49.478,100.288c32.865,32.865,76.559,50.963,123.035,50.963
	s90.17-18.1,123.034-50.963c32.865-32.865,50.964-76.559,50.964-123.035s-18.1-90.17-50.963-123.034
	C352.267,106.197,318.367,89.195,281.002,83.798z"/>
<path d="M140.038,150.037c2.563,0,5.127-0.98,7.081-2.938l0.506-0.504c3.921-3.889,3.947-10.221,0.057-14.142
	c-3.889-3.921-10.221-3.947-14.142-0.057l-0.583,0.581c-3.9,3.911-3.892,10.242,0.019,14.142
	C134.928,149.064,137.482,150.037,140.038,150.037z"/>
<path d="M329.263,235.904c3.818,0,7.277-2.208,8.956-5.638c1.679-3.43,1.231-7.55-1.112-10.565
	c-3.387-4.361-9.644-5.116-14.005-1.728c-3.254,2.529-4.505,6.688-3.522,10.448C320.696,232.726,324.609,235.904,329.263,235.904z"
	/>
<path d="M256.001,389.998c57.6,0,104.461-46.86,104.461-104.461c0-8.826-1.104-17.598-3.283-26.07
	c-1.375-5.35-6.829-8.573-12.175-7.195c-5.349,1.375-8.57,6.827-7.195,12.175c1.761,6.847,2.653,13.942,2.653,21.089
	c0,43.186-32.589,78.884-74.461,83.849V160.748l29.331,37.767c3.389,4.363,9.671,5.152,14.032,1.764
	c4.362-3.388,5.152-9.67,1.764-14.032l-46.892-60.38c-1.889-2.433-4.794-3.859-7.875-3.866c-0.008,0-0.016,0-0.023,0
	c-3.071,0-5.973,1.412-7.869,3.83l-73.248,93.412c-0.148,0.188-0.288,0.38-0.42,0.577c-15.007,18.527-23.259,41.824-23.259,65.718
	C151.54,343.138,198.401,389.998,256.001,389.998z M190.853,231.782c0.252-0.306,0.484-0.623,0.694-0.95l54.454-69.444V240.9
	l-12.25-12.25c-3.905-3.905-10.237-3.905-14.143,0c-3.905,3.905-3.905,10.237,0,14.143L246,269.185v49.343l-33.324-33.324
	c-3.905-3.905-10.237-3.905-14.143,0c-3.905,3.905-3.905,10.237,0,14.143L246,346.814v22.574
	c-41.873-4.965-74.461-40.663-74.461-83.849C171.54,265.947,178.398,246.856,190.853,231.782z"/>
<path d="M305.8,292.395c-1.728,11.657-8.208,22.361-17.78,29.367c-4.457,3.262-5.426,9.519-2.164,13.976
	c1.959,2.677,4.998,4.095,8.078,4.095c2.049,0,4.117-0.628,5.897-1.931c13.86-10.144,23.247-25.662,25.753-42.575
	c0.81-5.463-2.963-10.548-8.426-11.358C311.696,283.159,306.609,286.931,305.8,292.395z"/>
<g>
</g>
<g>
</g>
<g>
</g>
<g>
</g>
<g>
</g>
<g>
</g>
<g>
</g>
<g>
</g>
<g>
</g>
<g>
</g>
<g>
</g>
<g>
</g>
<g>
</g>
<g>
</g>
<g>
</g>
</svg>
