<?xml version="1.0" encoding="iso-8859-1"?>
<!-- Generator: Adobe Illustrator 19.0.0, SVG Export Plug-In . SVG Version: 6.00 Build 0)  -->
<svg version="1.1" id="Capa_1" xmlns="http://www.w3.org/2000/svg" xmlns:xlink="http://www.w3.org/1999/xlink" x="0px" y="0px"
	 viewBox="0 0 512.002 512.002" style="enable-background:new 0 0 512.002 512.002;" xml:space="preserve">
<path style="fill:#A5DC69;" d="M10.005,178.866C9.044,86.293,115.362,10.664,116.209,10.029v-0.028v0.022V9.987v0.025
	c0.44,0.331,100.797,74.967,101.783,167.723c0.959,92.725-101.311,168.524-101.783,168.824v0.047
	C116.209,346.606,10.962,271.819,10.005,178.866z"/>
<path style="fill:#FF9155;" d="M405.999,237.594L405.999,237.594c46.392,0,84,37.608,84,84v76.408h-168v-76.408
	C322,275.202,359.608,237.594,405.999,237.594z"/>
<g>
	<path style="fill:#BEBEBE;" d="M376.6,237.594v-21.646c0-6.602,5.352-11.954,11.954-11.954h34.892
		c6.602,0,11.954,5.352,11.954,11.954v21.646H376.6z"/>
	<path style="fill:#BEBEBE;" d="M355.996,502.002L355.996,502.002c11.046,0,20-8.954,20-20v-44h-40v44
		C335.996,493.048,344.952,502.002,355.996,502.002z"/>
	<path style="fill:#BEBEBE;" d="M455.734,502.002L455.734,502.002c11.046,0,20-8.954,20-20v-44h-40v44
		C435.734,493.048,444.69,502.002,455.734,502.002z"/>
</g>
<path style="fill:#F5C86E;" d="M482,438.002H330c-11.046,0-20-8.954-20-20l0,0c0-11.046,8.954-20,20-20h152c11.046,0,20,8.954,20,20
	l0,0C502,429.048,493.044,438.002,482,438.002z"/>
<polygon style="fill:#F5B955;" points="117.69,97.508 69.726,199.918 106.446,199.918 106.446,259.413 163.982,162.002 
	117.69,162.002 "/>
<path d="M46.051,80.249c1.828,1.428,3.996,2.119,6.148,2.119c2.974,0,5.916-1.32,7.888-3.845l0.287-0.367
	c3.419-4.337,2.675-10.624-1.663-14.044c-4.337-3.418-10.624-2.673-14.044,1.663l-0.342,0.438
	C40.926,70.565,41.699,76.85,46.051,80.249z"/>
<path d="M377.302,330.516h57.128c5.522,0,10-4.478,10-10s-4.478-10-10-10h-57.128c-5.522,0-10,4.478-10,10
	S371.78,330.516,377.302,330.516z"/>
<path d="M441.84,351.214h-71.946c-5.522,0-10,4.478-10,10s4.478,10,10,10h71.946c5.522,0,10-4.478,10-10
	S447.363,351.214,441.84,351.214z"/>
<path d="M388.379,289.816h34.974c5.522,0,10-4.478,10-10s-4.478-10-10-10h-34.974c-5.522,0-10,4.478-10,10
	S382.857,289.816,388.379,289.816z"/>
<path d="M266,228.24c-5.522,0-10,4.478-10,10v187.745c0,36.393-29.607,66-66,66s-66-29.607-66-66v-72.812
	c7.153-5.51,29.046-23.263,51.317-49.962c34.878-41.812,53.093-85.236,52.675-125.583C226.992,83.611,130.87,8.586,122.646,2.341
	C120.906,0.88,118.66,0,116.209,0c-2.429,0-4.655,0.867-6.388,2.31c-4.059,2.967-20.475,15.318-39.292,34.278
	c-3.891,3.919-3.866,10.251,0.053,14.142c3.92,3.89,10.25,3.865,14.143-0.053c12.907-13.005,24.519-22.645,31.354-28.005
	c8.786,7.234,26.169,22.524,43.499,43.381c21.824,26.264,47.939,66.978,48.416,111.786c0.459,44.438-25.381,85.153-47.139,111.483
	c-13.529,16.37-27.168,29.381-36.855,37.892v-24.879c0-5.522-4.478-10-10-10s-10,4.478-10,10v21.546
	c-29.109-25.423-83.338-81.291-83.994-145.118c-0.232-22.449,6.459-46.025,19.888-70.074c2.692-4.821,0.966-10.913-3.856-13.606
	c-4.821-2.691-10.914-0.967-13.606,3.856C7.284,126.067-0.26,152.994,0.009,178.969c0.415,40.42,19.753,83.712,55.922,125.196
	c19.325,22.166,38.43,38.186,48.07,45.744v76.077c0,47.421,38.579,86,86,86s86-38.579,86-86V238.24
	C276,232.718,271.522,228.24,266,228.24z"/>
<path d="M266,193.24c-5.522,0-10,4.478-10,10v0.833c0,5.522,4.478,10,10,10s10-4.478,10-10v-0.833
	C276,197.718,271.522,193.24,266,193.24z"/>
<path d="M511.999,418.002c0-9.793-4.718-18.505-12-23.984v-72.425c0-37.77-22.395-70.402-54.6-85.332v-20.313
	c0-12.105-9.849-21.954-21.954-21.954h-7.446v-59.992c0-44.112-35.888-80-80-80s-80,35.888-80,80v34.738c0,5.522,4.478,10,10,10
	s10-4.478,10-10v-34.738c0-33.084,26.916-60,60-60s60,26.916,60,60v59.992h-7.446c-12.105,0-21.954,9.849-21.954,21.954v20.313
	c-32.205,14.93-54.6,47.562-54.6,85.332v72.425c-7.282,5.479-12,14.19-12,23.984c0,15.185,11.342,27.762,25.998,29.725v34.275
	c0,16.542,13.458,30,30,30s30-13.458,30-30v-34h39.737v34c0,16.542,13.458,30,30,30s30-13.458,30-30v-34.241
	C500.518,445.915,511.999,433.278,511.999,418.002z M386.599,215.948c0-1.077,0.877-1.954,1.954-1.954h34.893
	c1.077,0,1.954,0.877,1.954,1.954v13.663c-6.263-1.319-12.751-2.018-19.4-2.018s-13.138,0.699-19.4,2.018v-13.663H386.599z
	 M332,321.594c0-40.804,33.196-74,74-74s74,33.196,74,74v66.408H332V321.594z M365.997,482.002c0,5.514-4.486,10-10,10
	s-10-4.486-10-10v-34h20V482.002z M465.734,482.002c0,5.514-4.486,10-10,10s-10-4.486-10-10v-34h20V482.002z M482,428.002H330
	c-5.514,0-10-4.486-10-10s4.486-10,10-10h152c5.514,0,10,4.486,10,10S487.513,428.002,482,428.002z"/>
<path d="M119.863,87.747c-4.58-1.023-9.242,1.276-11.229,5.52L60.67,195.677c-1.451,3.098-1.218,6.721,0.617,9.607
	s5.019,4.634,8.438,4.634h26.72v49.495c0,4.508,3.016,8.458,7.364,9.646c0.875,0.239,1.761,0.354,2.636,0.354
	c3.473,0,6.779-1.815,8.61-4.915l57.536-97.411c1.826-3.092,1.854-6.925,0.074-10.043c-1.779-3.118-5.094-5.043-8.685-5.043h-36.292
	V97.508C127.69,92.822,124.437,88.765,119.863,87.747z M146.461,172.002l-30.016,50.817v-22.901c0-5.522-4.478-10-10-10H85.452
	l22.238-47.481v19.565c0,5.522,4.478,10,10,10H146.461z"/>
<g>
</g>
<g>
</g>
<g>
</g>
<g>
</g>
<g>
</g>
<g>
</g>
<g>
</g>
<g>
</g>
<g>
</g>
<g>
</g>
<g>
</g>
<g>
</g>
<g>
</g>
<g>
</g>
<g>
</g>
</svg>
