<?xml version="1.0" encoding="iso-8859-1"?>
<!-- Generator: Adobe Illustrator 19.0.0, SVG Export Plug-In . SVG Version: 6.00 Build 0)  -->
<svg version="1.1" id="Capa_1" xmlns="http://www.w3.org/2000/svg" xmlns:xlink="http://www.w3.org/1999/xlink" x="0px" y="0px"
	 viewBox="0 0 512 512" style="enable-background:new 0 0 512 512;" xml:space="preserve">
<g>
	<path style="fill:#AAE6FF;" d="M343.326,502c-19.578,0-35.449-15.871-35.449-35.449s15.871-35.449,35.449-35.449
		c3.043,0,5.996,0.384,8.814,1.106c7.253-20.022,26.434-34.331,48.96-34.331c28.753,0,52.062,23.309,52.062,52.062
		c0,0.493-0.024,0.981-0.037,1.471c5.191-4.779,12.119-7.699,19.731-7.699c16.096,0,29.145,13.049,29.145,29.145
		c0,16.096-13.049,29.145-29.145,29.145L343.326,502L343.326,502z"/>
	<path style="fill:#AAE6FF;" d="M151.897,42.836c-7.469-19.635-26.28-32.898-47.609-32.898c-21.328,0-40.142,13.263-47.61,32.898
		c-1.472-0.148-2.951-0.231-4.434-0.231c-23.75,0-43.07,19.438-43.07,43.333h142.722V42.836H151.897z"/>
</g>
<path style="fill:#D7D7E6;" d="M331.001,213.675L230.342,10c0,0-35.271,27.695-7.322,64.453
	c-16.522-23.314-16.522-23.314-16.522-23.314s-29.852,34.11,8.509,72.62c-22.204-23.522-22.204-23.522-22.204-23.522
	s-19.697,53.526,40.181,92.723l46.664,26.64C296.221,229.061,317.018,226.661,331.001,213.675L331.001,213.675z"/>
<path style="fill:#F0F0FA;" d="M236.001,336.163l-119.322,29.82l65.247,126.678l83.996-109.428h31.338
	c72.207,0,130.742-58.535,130.742-130.742l0,0v-76.509c0-22.091-17.909-40-40-40l0,0c-22.091,0-40,17.909-40,40v13.645
	c0,13.849-7.009,26.757-18.625,34.299l0,0c-13.045,8.47-29.765,8.806-43.14,0.869L108.001,119.016c0,0-17.401,52.704,36.583,71.465
	c-32.998-12.724-32.998-12.724-32.998-12.724s-7.421,55.608,58.497,69.045c-38.998-9.048-38.998-9.048-38.998-9.048
	s16.342,68.672,104.916,68.084V336.163z"/>
<path d="M438.001,252.49v-40.726h14c4.045,0,7.691-2.437,9.239-6.173c1.547-3.737,0.691-8.038-2.168-10.898l-21.133-21.132
	c-1.267-26.45-23.18-47.58-49.938-47.58c-27.57,0-50,22.43-50,50v13.645c0,3.945-0.742,7.774-2.136,11.322L239.307,5.57
	c-1.334-2.7-3.815-4.655-6.753-5.321c-2.938-0.67-6.019,0.027-8.388,1.887c-1.096,0.86-10.888,8.794-17.043,22.111
	c-2.289,4.953-4.215,10.969-4.757,17.785c-1.282,0.582-2.443,1.435-3.395,2.521c-0.943,1.078-9.31,10.983-12.411,26.494
	c-1.207,6.031-1.683,13.371-0.197,21.538c-1.31,1.102-2.336,2.539-2.946,4.198c-0.236,0.642-5.758,15.973-2.882,36.503
	c0.853,6.086,2.522,13.05,5.545,20.439l-72.977-43.309c-2.606-1.547-5.773-1.827-8.609-0.766c-2.837,1.062-5.04,3.353-5.99,6.23
	c-0.208,0.631-5.073,15.663-2.339,33.358c1.053,6.815,3.303,14.548,7.759,22.09c-1.205,1.437-1.997,3.201-2.251,5.104
	c-0.09,0.676-2.124,16.752,5.188,34.599c2.925,7.138,7.606,15.179,15.097,22.636c-0.887,1.98-1.119,4.227-0.602,6.401
	c0.19,0.8,4.857,19.825,21.489,38.581c15.082,17.01,43.259,37.192,92.041,37.191c0.391,0,0.788-0.002,1.181-0.004
	c5.522-0.037,9.97-4.544,9.934-10.066c-0.037-5.5-4.507-9.934-9.999-9.934c-0.022,0-0.045,0-0.067,0
	c-0.357,0.003-0.702,0.004-1.057,0.004c-52.365,0-76.514-26.005-86.929-43.909l13.662,3.169c2.084,0.543,4.242,1.044,6.475,1.499
	c5.356,1.086,10.604-2.325,11.768-7.67c1.165-5.345-2.182-10.634-7.511-11.87l-6.01-1.395c-20.332-5.35-33.994-15.923-40.657-31.483
	c-1.745-4.076-2.808-8.057-3.443-11.604l13.25,5.109c1.855,0.787,3.792,1.533,5.819,2.238c5.156,1.791,10.794-0.882,12.672-6.006
	s-0.7-10.808-5.792-12.771l-5.063-1.952c-15.486-6.649-24.591-17.524-27.087-32.385c-0.703-4.188-0.807-8.222-0.621-11.771
	l165.721,98.35c16.766,9.95,37.338,9.535,53.69-1.081c14.514-9.424,23.179-25.381,23.179-42.686v-13.645c0-16.542,13.458-30,30-30
	s30,13.458,30,30v76.51c0,66.577-54.165,120.741-120.742,120.741h-31.338c-3.108,0-6.04,1.445-7.933,3.911l-74.394,96.919
	l-6.556-12.729c-2.53-4.91-8.561-6.838-13.47-4.312c-4.909,2.529-6.84,8.56-4.311,13.47l13.775,26.748
	c1.568,3.044,4.586,5.074,7.996,5.381c0.3,0.027,0.599,0.04,0.896,0.04c3.091,0,6.029-1.433,7.932-3.911l80.994-105.518h26.407
	C374.864,393.232,438.001,330.095,438.001,252.49z M291.34,216.193l-51.701-30.683c-0.368-0.328-0.754-0.64-1.178-0.918
	c-31.972-20.929-38.616-45.921-38.824-62.548l4.533,4.802c1.181,1.32,2.431,2.645,3.752,3.971
	c3.861,3.875,10.119,3.931,14.047,0.121c3.927-3.808,4.065-10.065,0.31-14.043l-3.395-3.596
	c-10.825-12.174-15.148-24.796-12.854-37.574c0.374-2.083,0.901-4.032,1.51-5.822l4.532,6.396c0.92,1.393,1.914,2.795,2.989,4.208
	c3.301,4.344,9.479,5.239,13.878,2.008c4.399-3.229,5.396-9.39,2.241-13.843l-2.44-3.443c-10.383-15.9-6.271-29.163-0.844-37.608
	l93.576,189.343C311.994,221.966,300.693,221.744,291.34,216.193z"/>
<path d="M162.77,436.06c0-2.64-1.069-5.22-2.93-7.08c-1.86-1.859-4.44-2.92-7.07-2.92c-2.64,0-5.21,1.061-7.069,2.92
	c-1.86,1.87-2.931,4.44-2.931,7.08c0,2.63,1.07,5.2,2.931,7.07c1.859,1.86,4.439,2.93,7.069,2.93s5.2-1.069,7.07-2.93
	C161.701,441.26,162.77,438.69,162.77,436.06z"/>
<path d="M143.66,396.53l-12.313-23.905l107.078-26.761c5.357-1.339,8.616-6.768,7.276-12.126s-6.772-8.621-12.126-7.276
	l-119.322,29.82c-2.963,0.74-5.425,2.794-6.685,5.577c-1.26,2.782-1.18,5.987,0.22,8.703l18.092,35.126
	c1.774,3.445,5.272,5.423,8.897,5.423c1.542,0,3.106-0.357,4.571-1.112C144.258,407.47,146.189,401.44,143.66,396.53z"/>
<path d="M398.4,191.41c1.86-1.86,2.931-4.44,2.931-7.07s-1.07-5.21-2.931-7.07c-1.87-1.859-4.439-2.93-7.069-2.93
	c-2.641,0-5.21,1.07-7.07,2.93c-1.87,1.86-2.93,4.44-2.93,7.07s1.06,5.21,2.93,7.07c1.86,1.859,4.43,2.93,7.07,2.93
	C393.961,194.34,396.53,193.27,398.4,191.41z"/>
<path d="M472.855,433.71c-3.908,0-7.748,0.579-11.412,1.694c-6.56-27.232-31.126-47.528-60.343-47.528
	c-23.237,0-44.415,13.097-55.006,33.31c-0.921-0.056-1.844-0.084-2.769-0.084c-25.061,0-45.449,20.389-45.449,45.449
	S318.265,512,343.325,512h129.529c21.585,0,39.145-17.561,39.145-39.146C512.001,451.271,494.44,433.71,472.855,433.71z
	 M472.855,492H343.326c-14.033,0-25.449-11.416-25.449-25.449s11.416-25.449,25.449-25.449c2.148,0,4.279,0.267,6.334,0.793
	c4.988,1.275,10.13-1.441,11.883-6.281c6.01-16.591,21.906-27.737,39.558-27.737c23.192,0,42.062,18.869,42.062,42.063
	c0,0.234-0.01,0.468-0.018,0.7l-0.016,0.492c-0.112,4.018,2.193,7.713,5.852,9.379c3.66,1.666,7.958,0.979,10.917-1.743
	c3.543-3.261,8.145-5.057,12.958-5.057c10.557,0,19.146,8.588,19.146,19.145S483.412,492,472.855,492z"/>
<path d="M162.722,86c0-5.522-4.478-10-10-10H21.52c4.224-13.51,16.77-23.333,31.55-23.333c1.093,0,2.247,0.061,3.431,0.18
	c4.508,0.459,8.744-2.168,10.351-6.395C72.87,30.631,88.247,20,105.115,20c16.867,0,32.243,10.631,38.262,26.453
	c1.964,5.162,7.741,7.755,12.902,5.791c5.162-1.964,7.755-7.74,5.791-12.902C153.119,15.811,130.23,0,105.115,0
	C82.441,0,61.584,12.884,51.156,32.701C22.776,33.718,0.001,57.237,0.001,86c0,5.522,4.478,10,10,10h142.722
	C158.245,96,162.722,91.523,162.722,86z"/>
<path d="M381.327,252.49c0,5.659,4.376,10.108,9.963,10.13c0.014,0,0.026,0,0.04,0c5.567,0,9.956-4.408,9.999-10.053
	c0.044-5.659-4.299-10.142-9.885-10.205c-0.04-0.001-0.08-0.001-0.121-0.001c-5.528,0-9.909,4.359-9.995,9.977
	C381.327,252.389,381.327,252.44,381.327,252.49z"/>
<path d="M374.39,285.99c-13.362,30.72-43.639,50.569-77.132,50.569c-5.522,0-10,4.478-10,10s4.478,10,10,10
	c41.458,0,78.933-24.569,95.472-62.593c2.203-5.064-0.117-10.955-5.182-13.158C382.485,278.604,376.593,280.924,374.39,285.99z"/>
<g>
</g>
<g>
</g>
<g>
</g>
<g>
</g>
<g>
</g>
<g>
</g>
<g>
</g>
<g>
</g>
<g>
</g>
<g>
</g>
<g>
</g>
<g>
</g>
<g>
</g>
<g>
</g>
<g>
</g>
</svg>
