<?xml version="1.0" encoding="iso-8859-1"?>
<!-- Generator: Adobe Illustrator 19.0.0, SVG Export Plug-In . SVG Version: 6.00 Build 0)  -->
<svg version="1.1" id="Capa_1" xmlns="http://www.w3.org/2000/svg" xmlns:xlink="http://www.w3.org/1999/xlink" x="0px" y="0px"
	 viewBox="0 0 512 512" style="enable-background:new 0 0 512 512;" xml:space="preserve">
<g>
	<path style="fill:#FFB487;" d="M422.824,224.602c-3.951,3.991-9.333,6.237-14.949,6.237c-5.578,0-10.928-2.216-14.873-6.161
		l-9.929-9.929c-3.945-3.945-9.295-6.161-14.873-6.161h-6.081c-6.866,0-13.301,3.352-17.236,8.978l-20.601,29.454
		c-3.935,5.626-10.369,8.978-17.236,8.978h-51.043H48.564H10.013l467.974,0.121L464.001,183L422.824,224.602z"/>
	<polygon style="fill:#FFB487;" points="477.987,256.12 477.988,256.126 10,256.126 10,501.993 502,501.993 502,256.126 	"/>
</g>
<path style="fill:#FF9155;" d="M502,501.993V365.996h-94.784c-9.081,0-17.77-3.701-24.061-10.25l-9.848-10.25h-31.194
	l-10.727,10.727c-6.258,6.258-14.745,9.773-23.593,9.773h-51.787l-144.605-0.5H90.795c-5.304,0-10.391-2.107-14.142-5.858l0,0
	c-7.81-7.81-20.473-7.81-28.283,0l-0.5,0.5c-3.751,3.751-8.838,5.858-14.142,5.858H10.013v135.997H502z"/>
<path style="fill:#46C373;" d="M66.581,132.27c9.953,0,18.021,8.068,18.021,18.019v121.71H113.4v-52.998
	c0-19.9,16.137-36.039,36.04-36.039c19.902,0,36.038,16.138,36.038,36.039v126.18h34.173v-89.055
	c0-10.038,8.138-18.178,18.178-18.178c10.038,0,18.177,8.14,18.177,18.178v98.144c0,15.037-12.232,27.265-27.266,27.265h-43.262
	v66.459h-72.078V308.037H75.592c-14.905,0-27.028-12.123-27.028-27.028v-130.72C48.564,140.338,56.631,132.27,66.581,132.27z"/>
<path style="fill:#FF6E37;" d="M10.013,447.994h294.2c13.957,0,23.639,13.911,18.792,26.999l0,0
	c-4.848,13.089,4.835,26.999,18.792,26.999H211.521H10.013V447.994z"/>
<circle style="fill:#FFE15F;" cx="265.243" cy="99.187" r="35.999"/>
<path d="M502,491.993H341.796c-3.333,0-6.336-1.568-8.24-4.305c-1.903-2.735-2.332-6.097-1.174-9.223
	c3.412-9.214,2.099-19.529-3.515-27.593c-5.614-8.065-14.83-12.879-24.654-12.879H195.478v-46.46h33.262
	c12.445,0,23.476-6.138,30.248-15.539h48.805c11.584,0,22.474-4.511,30.665-12.702l7.798-7.798h22.792l6.896,7.179
	c8.134,8.466,19.532,13.321,31.271,13.321h16.453c5.522,0,10-4.478,10-10c0-5.522-4.478-10-10-10h-16.453
	c-6.326,0-12.468-2.616-16.851-7.178l-9.848-10.25c-1.886-1.963-4.489-3.072-7.211-3.072h-31.194c-2.652,0-5.195,1.054-7.071,2.929
	l-10.727,10.727c-4.413,4.414-10.281,6.845-16.523,6.845h-41.831c0.026-0.573,0.044-1.148,0.044-1.728v-88.27h41.043
	c10.122,0,19.627-4.952,25.429-13.247l20.601-29.453c2.063-2.949,5.443-4.71,9.042-4.71h6.081c2.947,0,5.718,1.147,7.802,3.232
	l9.93,9.93c5.862,5.86,13.655,9.088,21.942,9.088c8.229,0,16.269-3.354,22.056-9.201l27.815-28.103l10.419,54.472
	c0.901,4.713,5.023,8.121,9.822,8.121H502c5.522,0,10-4.478,10-10c0-5.522-4.478-10-10-10h-15.744l-12.434-65.004
	c-0.698-3.646-3.357-6.605-6.909-7.688c-3.55-1.083-7.41-0.107-10.021,2.531l-41.177,41.603c-2.058,2.078-4.915,3.271-7.842,3.271
	c-2.947,0-5.718-1.147-7.802-3.231l-9.928-9.928c-5.861-5.862-13.654-9.091-21.944-9.091h-6.081
	c-10.122,0-19.629,4.952-25.43,13.247l-20.601,29.453c-2.063,2.949-5.442,4.71-9.041,4.71h-42.933
	c-4.077-10.548-14.32-18.052-26.287-18.052c-15.537,0-28.177,12.641-28.177,28.178v79.055h-14.174V219.001
	c0-25.386-20.652-46.039-46.038-46.039c-25.386,0-46.04,20.652-46.04,46.039v42.998h-8.8V150.288
	c0-15.449-12.57-28.018-28.02-28.018c-15.449,0-28.017,12.569-28.017,28.018v95.712H10.013c-5.522,0-10,4.478-10,10s4.478,10,10,10
	h28.552v15.01c0,20.418,16.61,37.028,37.027,37.028h27.809v37.46H90.795c-2.671,0-5.182-1.04-7.07-2.929
	c-11.697-11.697-30.729-11.697-42.427,0l-0.5,0.5c-1.889,1.889-4.399,2.929-7.07,2.929H10.013c-5.522,0-10,4.478-10,10
	c0,5.522,4.478,10,10,10h23.715c8.014,0,15.547-3.12,21.212-8.786l0.5-0.5c3.898-3.9,10.244-3.9,14.143,0
	c5.666,5.666,13.199,8.786,21.212,8.786h12.606v62.498H10.013c-5.522,0-10,4.478-10,10c0,5.522,4.478,10,10,10h294.201
	c3.333,0,6.336,1.568,8.24,4.305c1.903,2.735,2.332,6.097,1.174,9.223c-3.412,9.214-2.099,19.529,3.515,27.593
	s14.83,12.879,24.654,12.879H502c5.522,0,10-4.478,10-10C512,496.472,507.522,491.993,502,491.993z M123.4,437.994V308.037
	c0-5.522-4.478-10-10-10H75.591c-9.39,0-17.028-7.64-17.028-17.029V150.288c0-4.422,3.597-8.019,8.018-8.019
	c4.423,0,8.021,3.597,8.021,8.019v121.711c0,5.522,4.478,10,10,10h28.799c5.522,0,10-4.478,10-10v-5.873h3.609
	c5.522,0,10-4.478,10-10c0-5.522-4.478-10-10-10h-3.609v-27.125c0-14.358,11.682-26.039,26.04-26.039
	c14.358,0,26.038,11.682,26.038,26.039v6.666h-4.138c-5.522,0-10,4.478-10,10c0,5.522,4.478,10,10,10h4.138v45.082h-2.444
	c-5.522,0-10,4.478-10,10s4.478,10,10,10h2.444v34.433c0,5.522,4.478,10,10,10h34.173c5.522,0,10-4.478,10-10v-89.055
	c0-4.51,3.669-8.179,8.178-8.179c4.509,0,8.178,3.669,8.178,8.179v98.144c0,9.521-7.746,17.267-17.267,17.267h-39.899h-3.362H169.51
	c-5.522,0-10,4.478-10,10c0,5.522,4.478,10,10,10h5.971v46.46L123.4,437.994L123.4,437.994z"/>
<path d="M502,325.986c-5.522,0-10,4.478-10,10v36.261c0,5.652-4.598,10.25-10.25,10.25h-7.75v-34.499c0-5.522-4.478-10-10-10
	s-10,4.478-10,10v84.981h-6.759c-2.614,0-4.741-2.127-4.741-4.742v-16.491c0-5.522-4.478-10-10-10c-5.522,0-10,4.478-10,10v16.491
	c0,13.643,11.099,24.741,24.74,24.741h6.759v11c0,5.522,4.478,10,10,10s10-4.478,10-10v-61.481h7.75
	c16.68,0,30.249-13.57,30.249-30.249v-36.261C512,330.463,507.522,325.986,502,325.986z"/>
<path d="M502,286.011H350.504c-5.522,0-10,4.478-10,10s4.478,10,10,10H502c5.522,0,10-4.478,10-10S507.522,286.011,502,286.011z"/>
<path d="M147.009,358.996h0.333c5.522,0,10-4.478,10-10s-4.478-10-10-10h-0.333c-5.522,0-10,4.478-10,10
	S141.486,358.996,147.009,358.996z"/>
<path d="M147.676,412.995h-2.667c-5.522,0-10,4.478-10,10c0,5.522,4.478,10,10,10h2.667c5.522,0,10-4.478,10-10
	C157.676,417.473,153.198,412.995,147.676,412.995z"/>
<path d="M211.52,491.993H10c-5.522,0-10,4.478-10,10c0,5.522,4.478,10,10,10h201.52c5.522,0,10-4.478,10-10
	C221.519,496.471,217.042,491.993,211.52,491.993z"/>
<path d="M256.007,491.993c-2.63,0-5.21,1.069-7.07,2.93c-1.86,1.861-2.93,4.44-2.93,7.07c0,2.63,1.069,5.21,2.93,7.069
	c1.86,1.86,4.44,2.931,7.07,2.931s5.21-1.07,7.069-2.931c1.86-1.859,2.931-4.439,2.931-7.069c0-2.63-1.07-5.21-2.931-7.07
	C261.216,493.063,258.636,491.993,256.007,491.993z"/>
<path d="M265.243,145.185c25.363,0,45.999-20.635,45.999-45.999s-20.635-45.999-45.999-45.999s-45.999,20.635-45.999,45.999
	S239.88,145.185,265.243,145.185z M265.243,73.187c14.337,0,25.999,11.663,25.999,25.999s-11.663,25.999-25.999,25.999
	s-25.999-11.663-25.999-25.999S250.907,73.187,265.243,73.187z"/>
<path d="M328.314,99.186c0,5.522,4.478,10,10,10h16.11c5.522,0,10-4.478,10-10c0-5.522-4.478-10-10-10h-16.11
	C332.792,89.186,328.314,93.664,328.314,99.186z"/>
<path d="M176.063,109.186h16.11c5.522,0,10-4.478,10-10c0-5.522-4.478-10-10-10h-16.11c-5.522,0-10,4.478-10,10
	C166.063,104.708,170.541,109.186,176.063,109.186z"/>
<path d="M255.244,172.256v16.11c0,5.522,4.478,10,10,10c5.522,0,10-4.478,10-10v-16.11c0-5.522-4.478-10-10-10
	C259.721,162.256,255.244,166.734,255.244,172.256z"/>
<path d="M265.243,36.116c5.522,0,10-4.478,10-10v-16.11c0-5.522-4.478-10-10-10c-5.522,0-10,4.478-10,10v16.11
	C255.244,31.638,259.721,36.116,265.243,36.116z"/>
<path d="M309.841,143.784c-3.905,3.905-3.905,10.237,0,14.143l11.392,11.392c1.953,1.952,4.512,2.929,7.071,2.929
	s5.118-0.977,7.071-2.929c3.905-3.905,3.905-10.237,0-14.143l-11.392-11.392C320.077,139.879,313.747,139.879,309.841,143.784z"/>
<path d="M206.504,54.588c1.953,1.952,4.512,2.929,7.071,2.929c2.559,0,5.118-0.977,7.071-2.929c3.905-3.905,3.905-10.237,0-14.143
	l-11.391-11.391c-3.906-3.904-10.236-3.904-14.143,0c-3.905,3.905-3.905,10.237,0,14.143L206.504,54.588z"/>
<path d="M206.504,143.784l-11.392,11.392c-3.905,3.905-3.905,10.237,0,14.143c1.953,1.952,4.512,2.929,7.071,2.929
	c2.559,0,5.118-0.977,7.071-2.929l11.392-11.392c3.905-3.905,3.905-10.237,0-14.143C216.739,139.879,210.41,139.879,206.504,143.784
	z"/>
<path d="M316.912,57.517c2.56,0,5.118-0.977,7.071-2.929l11.392-11.392c3.905-3.905,3.905-10.237,0-14.143
	c-3.906-3.904-10.236-3.904-14.143,0L309.84,40.445c-3.905,3.905-3.905,10.237,0,14.143
	C311.794,56.54,314.352,57.517,316.912,57.517z"/>
<g>
</g>
<g>
</g>
<g>
</g>
<g>
</g>
<g>
</g>
<g>
</g>
<g>
</g>
<g>
</g>
<g>
</g>
<g>
</g>
<g>
</g>
<g>
</g>
<g>
</g>
<g>
</g>
<g>
</g>
</svg>
