<?xml version="1.0" encoding="iso-8859-1"?>
<!-- Generator: Adobe Illustrator 19.0.0, SVG Export Plug-In . SVG Version: 6.00 Build 0)  -->
<svg version="1.1" id="Capa_1" xmlns="http://www.w3.org/2000/svg" xmlns:xlink="http://www.w3.org/1999/xlink" x="0px" y="0px"
	 viewBox="0 0 511.998 511.998" style="enable-background:new 0 0 511.998 511.998;" xml:space="preserve">
<circle style="fill:#AAE6FF;" cx="256" cy="256" r="246"/>
<g>
	<path style="fill:#46C373;" d="M106.158,247.914c-21.284-49.99,16.268-113.588,16.56-114.112l-0.006-0.015l0.005,0.012
		l-0.008-0.019l0.006,0.013c0.3,0.086,68.543,19.231,89.881,69.315c21.317,50.073-14.121,112.903-14.296,113.166l0.011,0.025
		C198.31,316.298,127.525,298.111,106.158,247.914z"/>
	<path style="fill:#46C373;" d="M313.688,316.298l0.01-0.025c-0.175-0.263-35.613-63.092-14.296-113.166
		c21.338-50.084,89.582-69.229,89.881-69.315l0.006-0.013l-0.008,0.019l0.005-0.012l-0.006,0.015
		c0.292,0.524,37.844,64.122,16.56,114.112C384.473,298.111,313.688,316.298,313.688,316.298z"/>
</g>
<g>
	<path style="fill:#A5DC69;" d="M196.872,266.998c-0.546-50.602,59.902-106.965,60.383-107.312v-0.015v0.012v-0.02v0.013
		c0.25,0.181,57.309,56.001,57.87,106.703c0.545,50.685-57.602,77.096-57.87,77.26v0.026
		C257.256,343.665,197.416,317.808,196.872,266.998z"/>
	<path style="fill:#A5DC69;" d="M89.396,351.638c-33.044-32.405-24.415-94.503-24.357-95.009l-0.01-0.01l0.008,0.008l-0.013-0.013
		l0.009,0.009c0.263-0.029,60.028-7.027,93.145,25.434c33.097,32.459,25.874,93.271,25.823,93.534l0.017,0.017
		C184.016,375.607,122.572,384.178,89.396,351.638z"/>
	<path style="fill:#A5DC69;" d="M327.982,375.607l0.017-0.017c-0.051-0.263-7.274-61.075,25.823-93.534
		c33.117-32.461,92.881-25.463,93.145-25.434l0.009-0.009l-0.013,0.013l0.008-0.008l-0.01,0.01
		c0.057,0.506,8.686,62.604-24.357,95.009C389.426,384.178,327.982,375.607,327.982,375.607z"/>
</g>
<path d="M89.122,89.121c81.59-81.594,209.042-92.496,303.05-25.923c4.507,3.189,10.748,2.124,13.94-2.382
	c3.191-4.507,2.125-10.748-2.382-13.94C355.025,12.386,295.26-3.975,235.446,0.819c-60.5,4.845-117.489,31.182-160.466,74.159
	C31.833,118.126,5.478,175.347,0.769,236.101c-4.656,60.087,12.002,120.016,46.906,168.747c1.953,2.726,5.022,4.178,8.139,4.178
	c2.016,0,4.051-0.608,5.814-1.871c4.489-3.216,5.522-9.463,2.307-13.953C-3.509,299.043,7.084,171.158,89.122,89.121z"/>
<path d="M423.222,89.467c1.955,1.971,4.526,2.957,7.099,2.957c2.546,0,5.094-0.967,7.043-2.901
	c3.921-3.89,3.945-10.222,0.056-14.142l-0.4-0.402c-3.906-3.904-10.236-3.904-14.143,0c-3.905,3.905-3.905,10.237,0,14.143
	L423.222,89.467z"/>
<path d="M464.48,107.365c-3.212-4.493-9.458-5.534-13.95-2.321c-4.493,3.211-5.532,9.457-2.321,13.95
	c67.272,94.13,56.619,221.931-25.332,303.881c-33.111,33.113-73.775,54.582-116.69,63.956c1.467-35.597,11.763-70.12,29.535-100.488
	c2.972,0.177,6.553,0.311,10.603,0.311c22.448,0,59.056-4.115,83.281-27.876c34.368-33.704,28.457-93.83,27.341-102.891
	c-0.169-2.311-1.137-4.573-2.904-6.34c-1.737-1.737-3.955-2.701-6.226-2.892c-5.262-0.56-65.87-6.169-100.996,28.261
	c-33.689,33.04-29.896,90.241-28.836,100.855c0.006,0.379,0.042,0.758,0.092,1.137c-19.885,34.239-31.104,73.27-32.02,113.413
	c-6.658,0.859-13.35,1.431-20.057,1.718V350.393c15.069-8.156,59.64-36.341,59.126-84.124c-0.193-17.403-6.136-36.576-17.7-57.206
	c0.459-0.62,0.862-1.295,1.178-2.037c4.383-10.289,11.104-19.183,18.861-26.796l16.844,35.388l-5.299,12.806
	c-2.111,5.103,0.313,10.952,5.417,13.063c1.25,0.518,2.545,0.763,3.819,0.763c3.925,0,7.65-2.327,9.244-6.18l6.027-14.565
	l38.671-13.729c0.263,4.564,0.244,9.164-0.145,13.735c-0.469,5.503,3.612,10.344,9.115,10.813c0.289,0.024,0.575,0.037,0.86,0.037
	c5.138-0.001,9.508-3.938,9.952-9.152c3.717-43.639-19.88-87.125-23.75-93.921c-1.01-2.005-2.697-3.683-4.912-4.655
	c-2.235-0.981-4.633-1.079-6.808-0.445c-3.4,0.97-64.989,19.105-91.453,65.278c-0.27-0.386-0.535-0.771-0.808-1.157
	c-12.281-17.366-24.772-30.652-29.389-35.147c-1.834-2.138-4.556-3.491-7.595-3.491c-0.179,0-0.352,0.021-0.529,0.03
	c-0.241-0.018-0.482-0.037-0.728-0.037c-4.273,0-7.911,2.686-9.342,6.458c-6.292,6.26-17.907,18.55-29.244,34.171
	c-25.544-45.611-85.402-64.193-91.531-65.992c-2.272-0.762-4.824-0.71-7.192,0.331c-2.192,0.963-3.866,2.618-4.878,4.599
	c-3.693,6.469-27.517,50.148-23.783,93.98c0.444,5.214,4.813,9.152,9.952,9.152c0.285,0,0.571-0.013,0.86-0.037
	c5.503-0.469,9.584-5.31,9.115-10.813c-0.389-4.571-0.408-9.171-0.145-13.735l38.671,13.729l6.027,14.565
	c1.595,3.854,5.318,6.18,9.244,6.18c1.273,0,2.569-0.245,3.819-0.763c5.104-2.111,7.528-7.961,5.417-13.063l-5.299-12.806
	l16.844-35.388c7.756,7.614,14.478,16.508,18.861,26.796c0.385,0.902,0.89,1.714,1.484,2.435c-2.584,4.457-5.013,9.06-7.203,13.763
	c-0.736,1.047-1.246,2.201-1.533,3.4c-5.705,13.096-9.417,26.886-9.271,40.479c0.491,45.843,41.911,72.872,59.126,82.134v142.802
	c-6.696-0.284-13.388-0.856-20.057-1.715c-0.915-40.149-12.136-79.186-32.026-113.429c0.043-0.334,0.076-0.669,0.086-1.003
	c1.043-10.29,4.997-67.809-28.825-100.979C130.3,240.731,70.3,246.019,64.32,246.642c-2.318,0.164-4.592,1.133-6.364,2.906
	c-1.743,1.742-2.707,3.97-2.894,6.249c-1.074,8.627-7.188,69.131,27.33,102.981c24.228,23.763,60.834,27.877,83.282,27.876
	c4.049,0,7.629-0.135,10.602-0.311c17.772,30.37,28.069,64.896,29.535,100.495c-30.144-6.589-59.408-19.218-85.996-38.048
	c-4.508-3.19-10.749-2.126-13.94,2.382c-3.191,4.507-2.125,10.748,2.382,13.94c43.092,30.519,94.842,46.84,147.626,46.88
	c0.039,0,0.076,0.006,0.115,0.006c0.026,0,0.052-0.004,0.078-0.004c0.001,0,0.002,0,0.003,0c6.811,0,13.639-0.271,20.466-0.817
	c60.504-4.844,117.493-31.181,160.473-74.159c43.113-43.113,69.465-100.289,74.2-160.994
	C515.903,215.989,499.303,156.092,464.48,107.365z M348.774,366.585c6.214-8.367,13.055-16.307,20.483-23.749h47.949
	c-0.526,0.561-1.054,1.121-1.605,1.662C397.215,362.532,368.022,366.292,348.774,366.585z M429.72,322.952
	c-0.472-0.068-0.95-0.115-1.441-0.115h-37.587l47.255-43.449C437.646,292.004,435.821,308.292,429.72,322.952z M375.792,309.368
	v-28.424c0-0.843-0.116-1.658-0.313-2.44c15.288-8.322,33.182-11.275,47.106-12.161L375.792,309.368z M355.792,294.834v33.189
	c-6.412,6.371-12.433,13.075-18.031,20.086C339.051,331.617,343.375,310.564,355.792,294.834z M343.37,167.114
	c9.469-6.631,19.186-11.761,27.433-15.527l-16.195,39.137L343.37,167.114z M399.302,187.579l-25.492,9.05l16.009-38.688
	C393.213,166.138,396.827,176.398,399.302,187.579z M112.696,187.579c2.475-11.182,6.089-21.441,9.483-29.639l16.009,38.689
	L112.696,187.579z M157.39,190.725l-16.195-39.139c8.245,3.765,17.964,8.896,27.434,15.528L157.39,190.725z M174.237,348.109
	c-6.432-8.057-13.417-15.716-20.921-22.92v-33.775C167.979,307.403,172.852,330.392,174.237,348.109z M133.316,278.055v28.655
	l-43.913-40.376c12.981,0.824,29.422,3.454,43.986,10.558C133.344,277.274,133.316,277.661,133.316,278.055z M74.05,279.388
	l44.112,40.558H81.089C75.932,306.097,74.331,291.147,74.05,279.388z M96.398,344.499c-1.475-1.446-2.85-2.97-4.143-4.553h47.56
	c8.569,8.262,16.385,17.182,23.409,26.64C143.975,366.293,114.782,362.531,96.398,344.499z M245.999,186.273v68.689l-27.997-27.996
	C225.962,211.424,236.83,197.04,245.999,186.273z M295.412,229.642L266,259.054v-74.898
	C275.955,196.311,287.463,212.565,295.412,229.642z M265.999,327.131V287.34l36.938-36.938c1.347,5.445,2.132,10.842,2.19,16.085
	C305.447,296.24,281.673,316.814,265.999,327.131z M206.871,266.891c-0.07-6.503,1.036-13.164,2.964-19.807l36.164,36.164v42.697
	C230.027,315.464,207.177,295.496,206.871,266.891z"/>
<path d="M89.046,422.799c-3.896-3.918-10.228-3.933-14.142-0.036c-3.915,3.895-3.932,10.227-0.036,14.142l0.189,0.19
	c1.954,1.965,4.521,2.947,7.089,2.947c2.551,0,5.102-0.97,7.053-2.911c3.915-3.895,3.932-10.227,0.036-14.142L89.046,422.799z"/>
<path d="M245.944,55.037v31.148c0,5.522,4.478,10,10,10c5.522,0,10-4.478,10-10V55.037c0-5.522-4.478-10-10-10
	C250.421,45.037,245.944,49.515,245.944,55.037z"/>
<path d="M185.795,79.127c-3.903,3.907-3.9,10.238,0.007,14.142l13.43,13.417c1.952,1.951,4.51,2.926,7.067,2.926
	c2.561,0,5.121-0.978,7.074-2.933c3.903-3.907,3.9-10.238-0.007-14.142l-13.43-13.417C196.031,75.215,189.699,75.218,185.795,79.127
	z"/>
<path d="M312.055,79.047L298.73,92.386c-3.903,3.907-3.9,10.239,0.007,14.142c1.952,1.951,4.51,2.926,7.067,2.926
	c2.561,0,5.122-0.978,7.074-2.933l13.325-13.339c3.903-3.907,3.9-10.239-0.007-14.142C322.29,75.135,315.957,75.138,312.055,79.047z
	"/>
<g>
</g>
<g>
</g>
<g>
</g>
<g>
</g>
<g>
</g>
<g>
</g>
<g>
</g>
<g>
</g>
<g>
</g>
<g>
</g>
<g>
</g>
<g>
</g>
<g>
</g>
<g>
</g>
<g>
</g>
</svg>
