<?xml version="1.0" encoding="iso-8859-1"?>
<!-- Generator: Adobe Illustrator 19.0.0, SVG Export Plug-In . SVG Version: 6.00 Build 0)  -->
<svg version="1.1" id="Capa_1" xmlns="http://www.w3.org/2000/svg" xmlns:xlink="http://www.w3.org/1999/xlink" x="0px" y="0px"
	 viewBox="0 0 512.001 512.001" style="enable-background:new 0 0 512.001 512.001;" xml:space="preserve">
<path style="fill:#A5DC69;" d="M277.331,109.857l0.01-0.01c-0.029-0.158-4.022-36.735,16.14-56.879
	c20.173-20.146,56.185-16.928,56.344-16.915l0.005-0.005l-0.008,0.008l0.005-0.005l-0.006,0.006
	c0.031,0.304,4.864,37.634-15.264,57.745C314.346,113.996,277.331,109.857,277.331,109.857z"/>
<path style="fill:#46C373;" d="M277.282,110.471l0.008,0.008c0.127-0.023,29.465-3.226,45.623,12.946
	c16.159,16.181,13.578,45.066,13.567,45.193l0.004,0.004l-0.006-0.006l0.004,0.004l-0.005-0.005
	c-0.244,0.025-30.186,3.902-46.317-12.244C273.962,140.162,277.282,110.471,277.282,110.471z"/>
<path style="fill:#A5DC69;" d="M235.601,43.116v0.009c0.087,0.06,18.907,15.176,18.9,33.874
	c-0.013,18.705-18.212,33.918-18.292,33.986v0.005v-0.007v0.004v-0.006c-0.156-0.127-19.715-15.202-19.707-33.87
	C216.508,58.368,235.601,43.116,235.601,43.116z"/>
<path style="fill:#F5C86E;" d="M283.073,338.642L283.073,338.642c0,17.198,6.367,33.788,17.874,46.57l0.729,0.81
	c7.454,8.28,18.072,13.009,29.214,13.009l0,0c7.274,0,14.406-2.019,20.601-5.831l0.509-0.313
	c12.191-7.502,26.224-11.474,40.538-11.474l0,0l0,0c14.314,0,28.347,3.972,40.538,11.474l0.509,0.313
	c6.195,3.813,13.327,5.831,20.601,5.831l0,0c11.141,0,21.759-4.728,29.214-13.009l0.729-0.81
	c11.505-12.783,17.872-29.372,17.872-46.57l0,0c0-45.572-36.943-82.515-82.515-82.515h-53.899
	C320.016,256.127,283.073,293.07,283.073,338.642z"/>
<path style="fill:#F0F0FA;" d="M417.018,391.25v12.103c0,11.596,2.353,23.072,6.916,33.733l0,0
	c4.563,10.661,6.916,22.136,6.916,33.733l0,0c0,17.221-13.96,31.181-31.181,31.181h-8.152h2.04h-8.152
	c-17.221,0-31.181-13.96-31.181-31.181l0,0c0-11.596,2.353-23.072,6.916-33.733l0,0c4.563-10.661,6.916-22.136,6.916-33.733V391.25
	H417.018z"/>
<path style="fill:#F5B955;" d="M211.562,420.913L211.562,420.913c0,8.537,3.16,16.771,8.872,23.116l0.362,0.402
	c3.7,4.11,8.971,6.457,14.501,6.457l0,0c3.611,0,7.151-1.002,10.226-2.894l0.252-0.155c6.051-3.724,13.017-5.695,20.122-5.695l0,0
	l0,0c7.105,0,14.071,1.972,20.122,5.695l0.252,0.155c3.075,1.892,6.615,2.894,10.226,2.894l0,0c5.53,0,10.801-2.347,14.501-6.457
	l0.362-0.402c5.712-6.345,8.872-14.579,8.872-23.116l0,0c0-22.621-18.338-40.958-40.958-40.958H252.52
	C229.899,379.955,211.562,398.292,211.562,420.913z"/>
<path style="fill:#F0F0FA;" d="M278.049,447.026v6.008c0,5.756,1.168,11.452,3.433,16.744l0,0
	c2.265,5.292,3.433,10.988,3.433,16.744l0,0c0,8.548-6.93,15.478-15.478,15.478h-4.046h1.013h-4.046
	c-8.548,0-15.478-6.93-15.478-15.478l0,0c0-5.756,1.168-11.452,3.433-16.744l0,0c2.265-5.292,3.433-10.988,3.433-16.744v-6.008
	H278.049z"/>
<g>
	<rect x="10.001" y="10" style="fill:#C88C64;" width="168" height="492"/>
	<polygon style="fill:#C88C64;" points="147.191,256 203.501,224.334 235.501,110.207 277.001,110.207 238.001,256.127 155.001,320 
			"/>
</g>
<path d="M10.001,0c-5.523,0-10,4.478-10,10v492c0,5.522,4.477,10,10,10s10-4.478,10-10V10C20.001,4.478,15.524,0,10.001,0z"/>
<path d="M244.1,264.052c1.743-1.341,2.995-3.219,3.563-5.343l28.055-104.969c1.987,3.448,4.408,6.738,7.369,9.701
	c13.38,13.391,33.536,15.591,45.341,15.591c4.266,0,7.443-0.287,8.813-0.438c2.154-0.162,4.272-1.021,5.989-2.592
	c1.976-1.806,3.061-4.226,3.229-6.703c0.345-4.234,2.073-34.372-16.472-52.941c-1.522-1.523-3.127-2.897-4.788-4.153
	c5.881-2.761,11.528-6.436,16.425-11.329c22.034-22.014,18.846-59.575,18.175-65.576c-0.179-2.376-1.204-4.696-3.058-6.471
	c-1.747-1.673-3.946-2.587-6.188-2.749c-3.054-0.247-41.446-2.85-64.142,19.814c-19.754,19.738-19.807,51.593-19.198,62.204
	L229.215,250.27l-80.313,61.806c-4.377,3.368-5.195,9.646-1.826,14.023c1.97,2.56,4.934,3.902,7.932,3.902
	c2.128,0,4.274-0.678,6.091-2.076l6.901-5.311V502c0,5.522,4.477,10,10,10s10-4.478,10-10V307.223L244.1,264.052z M297.234,149.304
	c-7.429-7.435-9.732-19.95-10.17-29.035c8.974,0.457,21.34,2.783,28.773,10.223c7.844,7.854,10.072,20.24,10.629,28.558
	C316.903,158.804,304.496,156.571,297.234,149.304z M300.547,60.044c11.204-11.189,29.197-13.678,39.808-14.104
	c0.056,10.927-1.671,29.603-12.867,40.788c-11.214,11.205-29.708,13.287-40.503,13.46C287.244,88.47,289.978,70.604,300.547,60.044z
	"/>
<path d="M152.092,264.716l56.311-31.666c2.311-1.299,4.011-3.463,4.727-6.016l30.679-109.416
	c4.817-4.353,20.678-20.238,20.692-40.615c0.009-20.617-16.944-36.756-21.863-40.993c-0.776-0.769-1.685-1.417-2.702-1.906
	c-3.462-1.665-7.574-1.2-10.577,1.198c-2.338,1.869-22.849,18.914-22.857,41.805c-0.007,16.198,10.491,29.385,17.66,36.501
	l-29.171,104.039l-6.989,3.93V10c0-5.522-4.477-10-10-10s-10,4.478-10,10v221.984c0,0.276,0.019,0.547,0.041,0.817l-25.753,14.482
	c-4.813,2.707-6.521,8.804-3.814,13.617c1.835,3.265,5.229,5.101,8.726,5.101C148.86,266.002,150.543,265.588,152.092,264.716z
	 M235.585,57.198c4.362,5.183,8.918,12.495,8.916,19.795c-0.005,7.309-4.372,14.647-8.583,19.884
	c-4.395-4.922-9.419-12.204-9.416-19.761C226.504,69.806,231.149,62.43,235.585,57.198z"/>
<path d="M419.486,246.127h-53.899c-51.013,0-92.515,41.502-92.515,92.515c0,10.877,2.223,21.509,6.423,31.319
	c-0.074,0-0.147-0.006-0.221-0.006H252.52c-28.099,0-50.958,22.859-50.958,50.958c0,11.026,4.063,21.611,11.444,29.812l0.357,0.396
	c5.587,6.207,13.582,9.767,21.933,9.767c2.624,0,5.219-0.358,7.725-1.038c-0.438,2.043-1.069,4.046-1.902,5.994
	c-2.813,6.572-4.24,13.53-4.24,20.679c0,14.049,11.429,25.478,25.478,25.478h7.08c14.048,0,25.478-11.429,25.478-25.478
	c0-7.148-1.426-14.106-4.24-20.679c-0.833-1.948-1.465-3.951-1.902-5.994c2.506,0.68,5.101,1.038,7.725,1.038
	c8.352,0,16.346-3.56,21.928-9.762l0.366-0.406c7.377-8.194,11.44-18.78,11.44-29.807c0-4.112-0.502-8.107-1.426-11.939
	c0.693,0.03,1.387,0.055,2.083,0.055c9.13,0,18.066-2.529,25.851-7.319l0.5-0.309c0.27-0.166,0.544-0.321,0.816-0.483v2.435
	c0,10.301-2.056,20.326-6.109,29.797c-5.125,11.972-7.724,24.646-7.724,37.668c0,22.708,18.474,41.182,41.181,41.182h14.264
	c22.708,0,41.181-18.474,41.181-41.182c0-13.023-2.598-25.697-7.723-37.668c-4.054-9.471-6.11-19.496-6.11-29.797v-2.435
	c0.27,0.161,0.543,0.315,0.812,0.48l0.514,0.316c7.776,4.785,16.712,7.314,25.842,7.314c13.955,0,27.312-5.948,36.645-16.317
	l0.73-0.811C504.741,377.259,512,358.345,512,338.642C512,287.629,470.499,246.127,419.486,246.127z M269.437,492h-7.08
	c-3.021,0-5.478-2.457-5.478-5.478c0-4.428,0.884-8.737,2.626-12.81c2.813-6.572,4.24-13.53,4.24-20.679v-0.804
	c0.715-0.054,1.432-0.087,2.152-0.087s1.437,0.033,2.151,0.087v0.804c0,7.148,1.426,14.106,4.24,20.679
	c1.743,4.072,2.626,8.382,2.626,12.81C274.915,489.543,272.458,492,269.437,492z M310.232,420.913c0,6.076-2.239,11.91-6.3,16.421
	l-0.367,0.406c-1.8,2-4.376,3.147-7.068,3.147c-1.761,0-3.484-0.488-4.986-1.412l-0.251-0.154
	c-7.632-4.696-16.402-7.179-25.363-7.179s-17.731,2.482-25.361,7.178l-0.254,0.156c-1.5,0.923-3.224,1.411-4.985,1.411
	c-2.691,0-5.268-1.147-7.073-3.152l-0.357-0.396c-4.065-4.517-6.304-10.35-6.304-16.426c0-17.07,13.888-30.958,30.958-30.958h26.754
	c6.669,0,12.846,2.126,17.906,5.727c1.266,1.186,2.588,2.3,3.963,3.339C306.755,404.628,310.232,412.372,310.232,420.913z
	 M414.741,441.021c4.054,9.469,6.109,19.494,6.109,29.797c0,11.68-9.502,21.182-21.181,21.182h-14.264
	c-11.679,0-21.181-9.502-21.181-21.182c0-10.302,2.056-20.327,6.11-29.798c5.125-11.973,7.723-24.646,7.723-37.667v-10.361
	c4.733-1.042,9.586-1.582,14.481-1.582s9.747,0.54,14.48,1.582v10.361C407.018,416.375,409.616,429.049,414.741,441.021z
	 M476.696,378.52l-0.73,0.811c-5.548,6.164-13.487,9.699-21.781,9.699c-5.427,0-10.738-1.503-15.355-4.345l-0.513-0.316
	c-13.774-8.477-29.604-12.957-45.779-12.957s-32.005,4.48-45.787,12.962l-0.5,0.309c-4.622,2.845-9.933,4.348-15.36,4.348
	c-6.1,0-12.005-1.918-16.91-5.382c-1.241-1.157-2.538-2.254-3.89-3.283c-0.334-0.336-0.662-0.679-0.98-1.032l-0.73-0.811
	c-9.87-10.964-15.306-25.126-15.306-39.879c0-39.984,32.53-72.515,72.515-72.515h53.899c39.985,0,72.515,32.53,72.515,72.515
	C492.001,353.395,486.565,367.557,476.696,378.52z"/>
<path d="M58.001,317.578c-5.523,0-10,4.478-10,10v119.047c0,5.522,4.477,10,10,10s10-4.478,10-10V327.578
	C68.001,322.056,63.524,317.578,58.001,317.578z"/>
<path d="M94.001,416.507c-5.523,0-10,4.478-10,10v68.06c0,5.522,4.477,10,10,10s10-4.478,10-10v-68.06
	C104.001,420.984,99.524,416.507,94.001,416.507z"/>
<path d="M130.001,60.68c2.63,0,5.21-1.06,7.07-2.93c1.86-1.86,2.93-4.431,2.93-7.07c0-2.63-1.07-5.21-2.93-7.07
	c-1.86-1.859-4.44-2.93-7.07-2.93c-2.63,0-5.21,1.07-7.07,2.93s-2.93,4.44-2.93,7.07s1.07,5.21,2.93,7.07
	C124.791,59.62,127.371,60.68,130.001,60.68z"/>
<path d="M140.001,88c0-5.522-4.477-10-10-10s-10,4.478-10,10v81.73c0,5.522,4.477,10,10,10c5.523,0,10-4.478,10-10V88z"/>
<path d="M420.004,279.129l-0.518-0.002c-5.523,0-10,4.478-10,10s4.477,10,10,10l0.388,0.002c0.022,0,0.044,0,0.066,0
	c5.492,0,9.963-4.435,9.999-9.936C429.975,283.671,425.527,279.165,420.004,279.129z"/>
<path d="M459.25,294.359c-4.108-3.692-10.431-3.353-14.122,0.755s-3.353,10.431,0.755,14.122
	c8.336,7.49,13.118,18.208,13.118,29.405c0,5.522,4.477,10,10,10s10-4.478,10-10C479.001,321.777,471.802,305.637,459.25,294.359z"
	/>
<g>
</g>
<g>
</g>
<g>
</g>
<g>
</g>
<g>
</g>
<g>
</g>
<g>
</g>
<g>
</g>
<g>
</g>
<g>
</g>
<g>
</g>
<g>
</g>
<g>
</g>
<g>
</g>
<g>
</g>
</svg>
