<?xml version="1.0" encoding="iso-8859-1"?>
<!-- Generator: Adobe Illustrator 19.0.0, SVG Export Plug-In . SVG Version: 6.00 Build 0)  -->
<svg version="1.1" id="Capa_1" xmlns="http://www.w3.org/2000/svg" xmlns:xlink="http://www.w3.org/1999/xlink" x="0px" y="0px"
	 viewBox="0 0 512 512" style="enable-background:new 0 0 512 512;" xml:space="preserve">
<g>
	<path style="fill:#32C8AF;" d="M165.414,283.085c0-12.547-10.172-22.719-22.719-22.719c-0.363,0-0.722,0.013-1.081,0.03
		c-4.576-18.067-20.94-31.437-40.431-31.437c-18.483,0-34.147,12.027-39.621,28.677c-4.562,13.723,0,25.286,0,25.286
		L165.414,283.085z"/>
	<path style="fill:#32C8AF;" d="M448.968,283.085c0-14.725-11.938-26.663-26.663-26.663c-0.426,0-0.848,0.016-1.269,0.035
		c-5.37-21.204-24.575-36.894-47.449-36.894c-21.691,0-40.075,14.114-46.499,33.656c-16.039,0.534-28.88,13.697-28.88,29.866
		H448.968z"/>
</g>
<path style="fill:#46C373;" d="M175.173,231.115c36.069,36.069,78.098,21.906,78.098,21.906s14.163-42.029-21.906-78.098
	s-77.689-21.943-78.1-21.908C153.266,153.015,139.105,195.046,175.173,231.115z"/>
<path style="fill:#A5DC69;" d="M345.67,129.89c-0.358-0.031-36.684-12.359-68.163,19.12s-19.119,68.162-19.119,68.162
	s36.682,12.361,68.162-19.119S345.67,129.89,345.67,129.89z"/>
<path style="fill:#D7FA91;" d="M189.495,116.185c-23.434-22.997-18.243-66.12-18.21-66.472l-0.007-0.007l0.005,0.005l-0.009-0.009
	l0.006,0.006c0.183-0.017,41.703-4.102,65.188,18.935c23.472,23.036,19.243,65.282,19.211,65.464l0.012,0.012
	C255.692,134.12,213.023,139.279,189.495,116.185z"/>
<path style="fill:#78D2FA;" d="M475.099,282.923c0,121.008-98.096,219.104-219.104,219.104S36.891,403.931,36.891,282.923H475.099z"
	/>
<path style="fill:#C8F5FF;" d="M141.608,283.085v104.456c0,63.174,51.213,114.387,114.387,114.387l0,0
	c63.174,0,114.387-51.213,114.387-114.387V283.085H141.608z"/>
<circle style="fill:#F5B955;" cx="431" cy="81.031" r="28.4"/>
<path d="M53.77,357.397c-2.63,0-5.21,1.069-7.07,2.93c-1.86,1.86-2.93,4.44-2.93,7.07c0,2.64,1.07,5.21,2.93,7.069
	c1.87,1.87,4.44,2.931,7.07,2.931s5.21-1.061,7.07-2.931c1.87-1.859,2.93-4.439,2.93-7.069s-1.06-5.21-2.93-7.07
	C58.98,358.466,56.41,357.397,53.77,357.397z"/>
<path d="M474.951,272.972h-17.406c-3.848-13.39-15.133-23.664-29.08-26.032c-8.747-22.331-30.363-37.376-54.876-37.376
	c-23.329,0-44.136,13.608-53.628,34.46c-14.957,3.058-26.703,14.356-30.47,28.948H266v-44.04c2.958,0.382,6.418,0.658,10.269,0.658
	c15.548,0,37.368-4.482,57.352-24.466c35.458-35.458,22.112-76.689,21.526-78.427c-1.084-3.218-3.708-5.627-6.918-6.476
	c-7.312-2.129-45.1-10.974-77.793,21.717c-1.574,1.574-3.048,3.16-4.435,4.753v-12.573c0-0.665-0.068-1.313-0.192-1.941
	c0.613-11.635,0.484-48.277-22.337-70.673c-25.435-24.95-67.846-22.197-72.748-21.786c-2.159,0.119-4.295,0.937-6.045,2.474
	c-2.055,1.805-3.193,4.268-3.374,6.8c-0.667,6.381-4.116,49.499,21.186,74.33v-0.001c18.785,18.438,47.082,21.298,62.833,21.297
	c0.231,0,0.452-0.002,0.677-0.003v31.661c-2.273-2.828-4.781-5.642-7.563-8.425c-36.902-36.901-79.521-26.899-87.71-24.51
	c-3.219,0.845-5.851,3.256-6.938,6.48c-0.659,1.956-15.682,48.369,24.313,88.363c22.563,22.563,47.167,27.615,64.68,27.615
	c5.076,0,9.556-0.424,13.218-0.97v8.141h-72.188c-3.635-11.155-13.11-19.698-24.8-21.993c-7.861-19.168-26.606-32.02-47.829-32.02
	c-22.39,0-42.129,14.288-49.11,35.522c-2.28,6.857-2.755,13.24-2.483,18.49H37.04c-3.155,0-5.964,1.464-7.797,3.747
	c-1.429,1.729-2.288,3.947-2.289,6.366c-0.001,15.467,1.58,30.971,4.701,46.08c1.118,5.409,6.406,8.897,11.816,7.771
	c5.409-1.117,8.888-6.407,7.771-11.815c-2.174-10.526-3.53-21.263-4.048-32.034h84.414v94.456c0,0.189,0.006,0.376,0.007,0.565
	c-16.081,2.559-31.431,8.254-45.37,16.849c-1.221-1.706-2.429-3.427-3.606-5.178c-3.081-4.584-9.293-5.805-13.877-2.723
	c-4.584,3.08-5.803,9.293-2.723,13.877c29.837,44.403,74.723,77.092,126.389,92.045c20.78,6.015,42.167,8.998,63.516,8.998
	c32.333,0,64.575-6.845,94.464-20.37c40.862-18.49,75.089-48.211,98.98-85.948c23.28-36.771,35.61-79.151,35.659-122.561
	c0.003-2.358-0.832-4.629-2.333-6.424C480.879,274.416,478.084,272.972,474.951,272.972z M245.995,491.447
	c-46.552-4.446-84.279-39.59-92.648-84.902h92.648V491.447z M265.995,491.447v-84.902h92.648
	C350.275,451.856,312.547,487.001,265.995,491.447z M360.382,386.544h-94.387v-93.459h94.387V386.544z M327.421,263.213
	c4.195-0.14,7.856-2.884,9.167-6.871c5.267-16.017,20.135-26.778,37-26.778c17.853,0,33.379,12.069,37.755,29.35
	c1.168,4.613,5.416,7.771,10.181,7.533c0.259-0.013,0.52-0.024,0.782-0.024c5.383,0,10.164,2.577,13.212,6.55H310.964
	C314.297,267.306,320.346,263.449,327.421,263.213z M348.213,120.218c-0.38-0.1-0.77-0.178-1.165-0.232
	C347.591,120.061,348.011,120.163,348.213,120.218z M284.577,156.082c20.071-20.071,42.249-19.572,52.776-17.829
	c1.619,9.93,2.375,32.48-17.875,52.729c-13.573,13.573-28.121,17.719-39.247,18.49l23.289-23.29c3.905-3.905,3.905-10.237,0-14.143
	c-3.905-3.904-10.237-3.904-14.142,0l-23.286,23.287C266.861,184.194,271.009,169.649,284.577,156.082z M196.5,109.047
	c-13.967-13.707-15.833-37.034-15.718-49.603c12.203,0.213,34.7,2.62,48.683,16.336c9.195,9.024,13.368,21.91,15.198,33.173
	l-18.864-18.862c-3.905-3.904-10.237-3.904-14.142,0c-3.905,3.905-3.905,10.237,0,14.143l19.475,19.475
	C219.084,122.065,205.594,117.975,196.5,109.047L196.5,109.047z M182.244,224.043c-24.429-24.429-22.76-51.58-20.724-62.703
	c11.884-2.161,38.654-3.466,62.774,20.654c16.52,16.52,21.099,34.278,21.706,47.488v2.125l-29.268-29.267
	c-3.905-3.904-10.237-3.904-14.142,0c-3.905,3.905-3.905,10.237,0,14.143l29.285,29.285
	C218.462,245.546,199.612,241.411,182.244,224.043L182.244,224.043z M71.063,260.76c4.287-13.04,16.392-21.801,30.121-21.801
	c14.535,0,27.174,9.825,30.737,23.893c1.167,4.604,5.422,7.747,10.156,7.534c0.206-0.01,0.412-0.02,0.619-0.02
	c2.887,0,5.544,0.978,7.681,2.605H69.662C69.385,269.669,69.531,265.365,71.063,260.76z M245.995,293.085v93.459h-94.387v-93.459
	L245.995,293.085L245.995,293.085z M98.749,420.773c10.717-6.278,22.383-10.542,34.57-12.66
	c3.982,23.822,14.752,45.372,30.255,62.585C139.32,458.742,117.209,441.959,98.749,420.773z M348.844,470.216
	c15.272-17.133,25.882-38.501,29.827-62.101c12.136,2.111,23.754,6.35,34.434,12.586
	C395.385,440.945,373.681,457.897,348.844,470.216z M425.646,404.9c-13.912-8.562-29.228-14.238-45.271-16.792
	c0.001-0.189,0.007-0.377,0.007-0.567v-94.456h84.412C462.785,333.96,448.805,372.664,425.646,404.9z"/>
<path d="M431,119.427c21.174,0,38.4-17.227,38.4-38.4s-17.226-38.4-38.4-38.4s-38.4,17.227-38.4,38.4S409.826,119.427,431,119.427z
	 M431,62.626c10.146,0,18.4,8.254,18.4,18.4s-8.254,18.4-18.4,18.4s-18.4-8.254-18.4-18.4S420.854,62.626,431,62.626z"/>
<path d="M502,71.027h-12.826c-5.523,0-10,4.478-10,10s4.477,10,10,10H502c5.523,0,10-4.478,10-10S507.523,71.027,502,71.027z"/>
<path d="M360,91.027h12.826c5.523,0,10-4.478,10-10s-4.477-10-10-10H360c-5.523,0-10,4.478-10,10S354.477,91.027,360,91.027z"/>
<path d="M421,139.201v12.826c0,5.522,4.477,10,10,10s10-4.478,10-10v-12.826c0-5.522-4.477-10-10-10S421,133.678,421,139.201z"/>
<path d="M431,32.853c5.523,0,10-4.478,10-10V10.027c0-5.522-4.477-10-10-10s-10,4.478-10,10v12.826
	C421,28.376,425.477,32.853,431,32.853z"/>
<path d="M479.206,115.091c-3.905-3.906-10.238-3.905-14.142,0.001c-3.905,3.905-3.905,10.236,0,14.142l9.069,9.068
	c1.953,1.953,4.512,2.929,7.071,2.929s5.119-0.977,7.071-2.93c3.905-3.905,3.905-10.236,0-14.142L479.206,115.091z"/>
<path d="M382.794,46.962c1.953,1.953,4.512,2.929,7.071,2.929s5.119-0.977,7.071-2.93c3.905-3.905,3.905-10.236,0-14.142
	l-9.069-9.068c-3.905-3.906-10.238-3.905-14.142,0.001c-3.905,3.905-3.905,10.236,0,14.142L382.794,46.962z"/>
<path d="M382.794,115.091l-9.069,9.068c-3.905,3.905-3.906,10.236,0,14.142c1.953,1.953,4.512,2.93,7.071,2.93
	c2.559,0,5.118-0.977,7.071-2.929l9.069-9.068c3.905-3.905,3.906-10.236,0-14.142C393.032,111.187,386.7,111.187,382.794,115.091z"
	/>
<path d="M472.135,49.891c2.559,0,5.118-0.977,7.071-2.929l9.069-9.068c3.905-3.905,3.906-10.236,0-14.142
	c-3.905-3.905-10.236-3.905-14.142-0.001l-9.069,9.068c-3.905,3.905-3.906,10.236,0,14.142
	C467.017,48.915,469.576,49.891,472.135,49.891z"/>
<path d="M103.68,74.027H47c-5.523,0-10-4.478-10-10s4.477-10,10-10h56.68c4.464,0,8.687-1.81,11.891-5.094
	c3.369-3.454,5.232-8.206,5.111-13.037c-0.071-2.866-1.255-5.533-3.332-7.51s-4.787-3.054-7.667-2.954
	c-3.044,0.076-5.459,2.614-5.383,5.658c0.137,5.521-4.227,10.108-9.748,10.246c-5.49,0.104-10.108-4.227-10.246-9.748
	c-0.35-14.068,10.81-25.799,24.878-26.15c8.226-0.22,16.003,2.801,21.951,8.458c5.948,5.658,9.336,13.295,9.541,21.502
	c0.254,10.187-3.678,20.21-10.788,27.5C122.888,70.075,113.58,74.027,103.68,74.027z"/>
<path d="M81.293,162.027H10c-5.523,0-10-4.478-10-10s4.477-10,10-10h71.293c3.435,0,6.689-1.396,9.162-3.933
	c2.619-2.684,4.066-6.377,3.973-10.133c-0.105-4.214-3.567-7.571-7.76-7.571c-0.065,0-0.13,0.001-0.196,0.003
	c-1.818,0.045-3.26,1.562-3.215,3.38c0.138,5.521-4.227,10.108-9.748,10.246c-5.525,0.113-10.109-4.227-10.247-9.748
	c-0.32-12.842,9.868-23.551,22.71-23.872c15.287-0.374,28.068,11.76,28.449,27.064c0.227,9.111-3.29,18.076-9.649,24.596
	C98.503,158.487,90.165,162.027,81.293,162.027z"/>
<path d="M10,74.027c-2.63,0-5.21-1.07-7.07-2.931C1.07,69.237,0,66.657,0,64.027s1.07-5.21,2.93-7.07s4.44-2.93,7.07-2.93
	s5.21,1.069,7.07,2.93s2.93,4.44,2.93,7.07c0,2.63-1.07,5.21-2.93,7.069C15.21,72.957,12.63,74.027,10,74.027z"/>
<g>
</g>
<g>
</g>
<g>
</g>
<g>
</g>
<g>
</g>
<g>
</g>
<g>
</g>
<g>
</g>
<g>
</g>
<g>
</g>
<g>
</g>
<g>
</g>
<g>
</g>
<g>
</g>
<g>
</g>
</svg>
