<?xml version="1.0" encoding="iso-8859-1"?>
<!-- Generator: Adobe Illustrator 19.0.0, SVG Export Plug-In . SVG Version: 6.00 Build 0)  -->
<svg version="1.1" id="Capa_1" xmlns="http://www.w3.org/2000/svg" xmlns:xlink="http://www.w3.org/1999/xlink" x="0px" y="0px"
	 viewBox="0 0 512 512" style="enable-background:new 0 0 512 512;" xml:space="preserve">
<ellipse style="fill:#C8F5FF;" cx="256" cy="256" rx="124" ry="246"/>
<ellipse transform="matrix(0.866 0.5 -0.5 0.866 162.3005 -93.7064)" style="fill:#73E6E1;" cx="256.004" cy="255.996" rx="245.995" ry="123.997"/>
<ellipse transform="matrix(-0.866 0.5 -0.5 -0.866 605.6988 349.7074)" style="fill:#D7FA91;" cx="255.996" cy="256.004" rx="245.995" ry="123.997"/>
<g>
	<path style="fill:#A5DC69;" d="M287.072,302.072c0-34.809-30.957-48.256-30.957-48.256s-30.957,13.447-30.957,48.256
		s30.712,48.077,30.957,48.257C256.115,350.33,287.072,336.881,287.072,302.072z"/>
	<path style="fill:#A5DC69;" d="M282.598,202.608c-30.145,17.404-26.312,50.937-26.312,50.937s27.124,20.086,57.269,2.682
		c30.145-17.405,26.28-50.635,26.314-50.938C339.869,205.289,312.744,185.204,282.598,202.608z"/>
	<path style="fill:#A5DC69;" d="M198.688,256.239c30.145,17.404,57.269-2.682,57.269-2.682s3.833-33.533-26.312-50.937
		s-56.991,2.559-57.271,2.681C172.374,205.301,168.542,238.835,198.688,256.239z"/>
</g>
<path d="M460.581,138.347c1.841,3.245,5.225,5.067,8.707,5.067c1.672,0,3.367-0.42,4.925-1.305
	c4.804-2.725,6.488-8.828,3.763-13.632l-0.278-0.485c-2.766-4.781-8.884-6.415-13.664-3.647c-4.78,2.766-6.414,8.883-3.648,13.663
	L460.581,138.347z"/>
<path d="M51.619,374.003c-2.76-4.784-8.877-6.426-13.659-3.665c-4.784,2.76-6.425,8.876-3.665,13.659l0.194,0.335
	c1.857,3.192,5.209,4.974,8.653,4.974c1.707,0,3.437-0.438,5.019-1.358c4.774-2.776,6.393-8.898,3.616-13.672L51.619,374.003z"/>
<path d="M458.847,261.557c-1.213-1.851-2.471-3.697-3.748-5.542c19.07-27.474,30.185-54.446,32.423-79.055
	c0.5-5.5-3.553-10.364-9.053-10.864c-5.498-0.5-10.365,3.553-10.865,9.054c-1.819,20.003-10.656,41.873-25.122,64.012
	c-16.067-19.951-35.695-39.297-58.073-57.298c-4.392-28.323-11.313-54.943-20.529-78.796c28.322-1.52,52.788,2.356,70.652,11.416
	c4.926,2.499,10.943,0.53,13.442-4.396c2.498-4.925,0.53-10.943-4.396-13.441c-23.113-11.72-53.602-15.856-88.005-13.002
	c-0.97-2.054-1.953-4.092-2.961-6.093C327.403,27.541,293.093,0,256,0s-71.403,27.541-96.611,77.551
	c-0.999,1.981-1.972,3.999-2.933,6.033c-2.242-0.184-4.477-0.351-6.692-0.476C93.85,79.94,52.844,95.876,34.297,128
	c-18.546,32.123-11.85,75.607,18.855,122.443c1.213,1.851,2.471,3.698,3.748,5.542c-19.538,28.145-30.711,55.728-32.567,80.794
	c-0.408,5.508,3.727,10.304,9.234,10.711c0.251,0.019,0.5,0.027,0.749,0.027c5.187,0,9.573-4.006,9.962-9.262
	c1.452-19.618,10.285-42.162,25.342-65.29c16.048,19.906,35.639,39.207,57.969,57.17c4.392,28.324,11.313,54.946,20.531,78.799
	c-28.525,1.532-53.129-2.415-71.029-11.611c-4.914-2.525-10.94-0.587-13.465,4.325c-2.523,4.912-0.587,10.94,4.325,13.464
	c18.535,9.522,41.84,14.131,68.141,14.131c6.6,0,13.393-0.297,20.341-0.874c0.968,2.049,1.948,4.082,2.954,6.078
	C184.597,484.459,218.907,512,256,512s71.403-27.541,96.611-77.551c0.999-1.981,1.972-3.999,2.933-6.033
	c2.242,0.184,4.477,0.351,6.692,0.476c4.672,0.265,9.239,0.396,13.698,0.396c48.91,0,84.771-15.85,101.768-45.289
	C496.249,351.877,489.552,308.393,458.847,261.557z M430.373,256.084c-11.8,15.173-26.078,30.28-42.39,44.815
	C389.314,286.22,390,271.211,390,256c0-15.225-0.688-30.248-2.021-44.941C404.163,225.5,418.432,240.636,430.373,256.084z
	 M343.154,406.955c-19.33-2.622-39.551-7.411-60.127-14.201c13.367-6.164,26.738-13.066,39.973-20.707
	c13.17-7.604,25.838-15.706,37.91-24.218C356.503,369.026,350.543,388.917,343.154,406.955z M313,354.727
	c-18.799,10.854-37.926,20.24-57.009,28.031c-19.039-7.782-38.175-17.168-56.991-28.031c-18.819-10.865-36.518-22.746-52.779-35.346
	C143.44,298.998,142,277.73,142,256c0-21.724,1.439-42.987,4.219-63.365c16.297-12.638,33.992-24.513,52.781-35.361
	c18.797-10.853,37.925-20.239,57.011-28.031c19.039,7.782,38.174,17.168,56.989,28.031c18.819,10.865,36.518,22.746,52.779,35.346
	C368.56,213.002,370,234.27,370,256c0,21.716-1.438,42.971-4.216,63.342C349.58,331.906,331.88,343.826,313,354.727z
	 M168.846,105.045c19.328,2.622,39.546,7.41,60.119,14.198c-13.367,6.162-26.736,13.072-39.965,20.71
	c-13.173,7.605-25.841,15.704-37.909,24.213C155.498,142.971,161.458,123.082,168.846,105.045z M360.91,164.174
	c-12.058-8.501-24.725-16.608-37.91-24.221c-13.175-7.606-26.518-14.518-39.899-20.706c17.186-5.658,34.192-9.95,50.739-12.764
	c3.14-0.534,6.245-1.003,9.32-1.422C350.547,123.096,356.505,142.982,360.91,164.174z M256,20c29.065,0,56.951,23.501,78.558,66.177
	c-24.979,3.918-51.527,11.179-78.472,21.582c-26.759-10.378-53.309-17.706-78.606-21.654C199.081,43.475,226.952,20,256,20z
	 M51.618,138c13.254-22.957,42.944-35.294,84.301-35.294c3.961,0,8.037,0.119,12.207,0.347
	c-9.22,23.858-16.143,50.485-20.536,78.816c-20.651,16.622-39.036,34.448-54.522,52.974c-1.175,1.406-2.322,2.811-3.457,4.216
	C43.489,199.035,37.093,163.157,51.618,138z M81.702,256.012c2.154-2.782,4.388-5.563,6.71-8.342
	c10.512-12.576,22.454-24.828,35.605-36.577C122.686,225.776,122,240.787,122,256c0,15.225,0.688,30.248,2.021,44.941
	C107.871,286.53,93.628,271.427,81.702,256.012z M151.09,347.826c12.058,8.501,24.725,16.608,37.91,24.221
	c13.175,7.607,26.519,14.518,39.9,20.707c-17.302,5.696-34.421,10.008-51.073,12.82c-3.026,0.511-6.02,0.962-8.986,1.367
	C161.453,388.905,155.495,369.018,151.09,347.826z M256,492c-29.063,0-56.948-23.498-78.553-66.169
	c24.979-3.918,51.524-11.171,78.481-21.585c26.754,10.375,53.3,17.702,78.593,21.649C312.919,468.525,285.048,492,256,492z
	 M460.382,374c-14.524,25.156-48.786,37.555-96.509,34.949c9.221-23.86,16.145-50.491,20.538-78.825
	c20.31-16.347,38.434-33.862,53.756-52.055c1.44-1.71,2.841-3.419,4.222-5.129C468.511,312.965,474.907,348.843,460.382,374z"/>
<path d="M349.855,204.759c-0.157-2.95-1.616-5.715-4.036-7.507c-1.322-0.979-32.802-23.754-68.221-3.304
	c-9.951,5.745-16.792,12.927-21.48,20.322c-4.688-7.39-11.527-14.568-21.473-20.31c-32.551-18.795-61.886-1.01-67.723,2.958
	c-2.477,1.61-4.141,4.257-4.483,7.247c-0.187,1.636-4.169,40.286,31.249,60.734c9.946,5.743,19.574,8.069,28.317,8.434
	c-4.052,7.753-6.847,17.26-6.847,28.739c0,37.585,30.068,54.101,36.423,57.171c1.415,0.72,2.97,1.087,4.535,1.087
	c1.349,0,2.706-0.272,3.984-0.828c1.509-0.656,36.972-16.533,36.972-57.43c0-11.484-2.797-20.994-6.853-28.75
	c8.748-0.363,18.385-2.69,28.336-8.435C351.105,246.096,350.373,211.798,349.855,204.759z M182.232,211.034
	c7.828-4.118,24.457-10.121,42.413,0.246c11.186,6.459,16.602,15.66,19.193,23.729l-13.678-7.901
	c-4.782-2.763-10.898-1.125-13.661,3.657c-2.762,4.782-1.125,10.898,3.657,13.661l13.671,7.897
	c-8.288,1.789-18.969,1.705-30.139-4.744C185.536,237.099,182.565,219.392,182.232,211.034z M256.151,338.927
	c-7.479-4.721-20.994-16.121-20.994-36.854c0-12.92,5.263-22.212,10.957-28.49v12.355c0,5.522,4.477,10,10,10s10-4.478,10-10
	v-12.352c5.697,6.28,10.957,15.571,10.957,28.487C277.071,323.03,263.223,334.458,256.151,338.927z M308.555,247.567
	c-11.19,6.46-21.87,6.547-30.153,4.755l10.847-6.263c4.783-2.762,6.421-8.878,3.66-13.66c-2.762-4.783-8.877-6.42-13.661-3.66
	l-10.825,6.251c2.595-8.07,8.009-17.275,19.175-23.721c18.151-10.479,34.972-4.199,42.376-0.31
	C329.626,219.797,326.511,237.201,308.555,247.567z"/>
<g>
</g>
<g>
</g>
<g>
</g>
<g>
</g>
<g>
</g>
<g>
</g>
<g>
</g>
<g>
</g>
<g>
</g>
<g>
</g>
<g>
</g>
<g>
</g>
<g>
</g>
<g>
</g>
<g>
</g>
</svg>
