<?xml version="1.0" encoding="iso-8859-1"?>
<!-- Generator: Adobe Illustrator 19.0.0, SVG Export Plug-In . SVG Version: 6.00 Build 0)  -->
<svg version="1.1" id="Capa_1" xmlns="http://www.w3.org/2000/svg" xmlns:xlink="http://www.w3.org/1999/xlink" x="0px" y="0px"
	 viewBox="0 0 512 512" style="enable-background:new 0 0 512 512;" xml:space="preserve">
<polygon style="fill:#FFB487;" points="352.833,501.999 128.197,501.999 73.74,277.969 407.29,277.969 "/>
<rect x="59.488" y="221.959" style="fill:#FF6E37;" width="362.048" height="56.007"/>
<path style="fill:#A5DC69;" d="M143.971,192.523c43.083,43.083,93.285,26.165,93.285,26.165s16.917-50.203-26.165-93.285
	s-92.798-26.21-93.287-26.168C117.803,99.234,100.888,149.439,143.971,192.523z"/>
<path style="fill:#46C373;" d="M447.002,15.469c-0.824-0.071-84.471-28.46-156.96,44.029s-44.025,156.957-44.025,156.957
	s84.468,28.464,156.957-44.025S447.002,15.469,447.002,15.469z"/>
<path d="M120.137,165.734c1.12,0,2.259-0.189,3.374-0.589c5.2-1.864,7.904-7.59,6.041-12.79l-0.105-0.294
	c-1.843-5.207-7.558-7.935-12.766-6.091c-5.208,1.843-7.934,7.559-6.091,12.766l0.132,0.368
	C112.186,163.189,116.033,165.734,120.137,165.734z"/>
<path d="M462.152,67.41c2.049-31.781-5.355-54.194-5.672-55.133c-1.097-3.256-3.77-5.684-7.031-6.505l-0.153-0.045
	c-15.463-4.513-96.16-23.468-166.326,46.698c-29.176,29.176-42.596,60.262-48.405,86.307c-4.309-6.836-9.693-13.695-16.401-20.402
	c-43.317-43.317-93.281-31.576-102.859-28.781l-0.02,0.006c-3.229,0.839-5.871,3.254-6.959,6.486
	c-0.297,0.883-2.927,8.989-3.627,21.465c-0.31,5.516,3.911,10.236,9.425,10.546c5.525,0.312,10.237-3.911,10.546-9.425
	c0.254-4.536,0.832-8.339,1.378-11.116c13.853-2.766,47.657-5.352,77.971,24.964c23.42,23.42,27.197,48.876,26.524,65.354
	l-38.303-38.303c-3.906-3.905-10.238-3.905-14.145,0c-3.906,3.906-3.906,10.238,0,14.145l38.231,38.231
	c-0.787,0.029-1.589,0.051-2.415,0.059h-0.885c-16.495-0.013-40.216-4.746-61.98-26.511c-1.41-1.409-2.778-2.857-4.068-4.304
	c-3.676-4.124-9.999-4.487-14.121-0.809c-4.124,3.675-4.486,9.997-0.809,14.121c1.542,1.729,3.174,3.456,4.853,5.136
	c4.762,4.761,9.598,8.848,14.45,12.366h-91.86c-5.524,0-10.001,4.479-10.001,10.001v56.007c0,5.523,4.478,10.001,10.001,10.001
	h6.387l52.6,216.391c1.09,4.483,5.105,7.639,9.718,7.639h224.636c4.614,0,8.628-3.155,9.718-7.639l52.6-216.391h6.388
	c5.524,0,10.001-4.479,10.001-10.001v-56.007c0-5.523-4.478-10.001-10.001-10.001h-54.889c14.381-7.689,29.118-18.18,43.397-32.459
	C449.695,139.852,460.265,96.661,462.152,67.41z M344.972,491.997H136.058L86.463,287.97h308.102L344.972,491.997z M411.538,267.968
	h-4.249H73.74h-4.248v-36.005h342.045V267.968z M297.509,211.588c-12.363,0.865-23.172,0.083-31.414-1.067l74.638-74.638
	c3.906-3.906,3.906-10.238,0-14.145c-3.906-3.905-10.238-3.905-14.145,0l-74.632,74.632c-3.7-26.866-3.384-81.259,45.158-129.8
	c56.763-56.764,120.71-47.895,141.759-42.906c4.352,18.396,14.564,84.157-42.972,141.693
	C367.831,193.428,334.726,208.982,297.509,211.588z"/>
<path d="M312.952,475.175c0.793,0.193,1.588,0.285,2.37,0.285c4.507,0,8.599-3.067,9.71-7.641l25.014-102.904
	c1.304-5.368-1.989-10.775-7.356-12.081c-5.371-1.309-10.776,1.988-12.081,7.355l-25.014,102.904
	C304.291,468.462,307.585,473.87,312.952,475.175z"/>
<path d="M350.502,330.696c2.63,0,5.211-1.07,7.071-2.93c1.86-1.86,2.93-4.441,2.93-7.071c0-2.64-1.07-5.211-2.93-7.071
	c-1.86-1.869-4.431-2.93-7.071-2.93c-2.63,0-5.211,1.061-7.071,2.93c-1.86,1.86-2.93,4.432-2.93,7.071c0,2.63,1.07,5.211,2.93,7.071
	C345.291,329.625,347.871,330.696,350.502,330.696z"/>
<g>
</g>
<g>
</g>
<g>
</g>
<g>
</g>
<g>
</g>
<g>
</g>
<g>
</g>
<g>
</g>
<g>
</g>
<g>
</g>
<g>
</g>
<g>
</g>
<g>
</g>
<g>
</g>
<g>
</g>
</svg>
