<?xml version="1.0" encoding="iso-8859-1"?>
<!-- Generator: Adobe Illustrator 19.0.0, SVG Export Plug-In . SVG Version: 6.00 Build 0)  -->
<svg version="1.1" id="Capa_1" xmlns="http://www.w3.org/2000/svg" xmlns:xlink="http://www.w3.org/1999/xlink" x="0px" y="0px"
	 viewBox="0 0 512 512" style="enable-background:new 0 0 512 512;" xml:space="preserve">
<rect x="10" y="342" style="fill:#FF5A5A;" width="67.81" height="160"/>
<g>
	<path style="fill:#FFCDAC;" d="M315,393.5l82.135-63.018c15.671-12.024,36.631-14.6,54.748-6.73l16.303,4.13l-91.731,78.193
		c-16.43,14.005-37.314,21.698-58.903,21.698H304L315,393.5z"/>
	<path style="fill:#FFCDAC;" d="M77.81,364l74.236-22.232c25.189-6.747,51.937-4.559,75.694,6.191l70.754,32.016
		c13.715,6.206,18.88,23.035,11.007,35.866l0,0c-5.806,9.463-17.154,13.966-27.869,11.058l-88.884-24.122l97.158,24.998h25.18
		c19.36,0,38.122-6.713,53.087-18.995l94.359-77.441c5.804-4.763,13.493-6.555,20.805-4.847l0,0
		c19.183,4.481,25.212,28.813,10.339,41.731L374.995,471.305C352.205,491.1,323.034,502,292.847,502H77.81V364z"/>
</g>
<path style="fill:#73E6E1;" d="M146,188.302C146,248.887,195.249,298,256,298s110-49.113,110-109.698
	c0-26.263-9.259-50.366-24.694-69.252h0.008L256,10l-84.907,108.479h0.064C155.443,137.448,146,161.775,146,188.302z"/>
<path d="M510.985,341.788c-3.1-12.511-12.822-22.104-25.372-25.034c-7.11-1.662-14.568-0.941-21.191,1.877
	c-0.634-0.486-1.329-0.912-2.095-1.244l-6.459-2.806c-21.437-9.313-46.275-6.261-64.818,7.968l-75.732,58.104
	c-3.386-4.155-7.71-7.531-12.7-9.789l-70.754-32.017c-25.795-11.672-55.061-14.066-82.405-6.739L87.81,348.622V342
	c0-5.522-4.478-10-10-10H10c-5.522,0-10,4.478-10,10v160c0,5.522,4.478,10,10,10h282.847c32.595,0,64.098-11.771,88.706-33.146
	l37.796-32.828c4.17-3.622,4.613-9.938,0.992-14.107c-3.622-4.17-9.938-4.614-14.107-0.992l-37.796,32.828
	C347.468,481.969,320.623,492,292.847,492H87.81V369.327l66.823-17.9c22.893-6.132,47.394-4.129,68.984,5.642l70.755,32.017
	c3.98,1.802,6.879,5.094,8.161,9.271s0.729,8.529-1.556,12.255c-3.462,5.641-10.341,8.374-16.726,6.636l-88.885-24.122
	c-5.328-1.441-10.823,1.702-12.271,7.032c-1.446,5.33,1.702,10.823,7.032,12.271l88.884,24.121c2.999,0.814,6.044,1.207,9.061,1.206
	c0.295,0,0.589-0.021,0.884-0.028c0.313,0.029,0.629,0.048,0.949,0.048h25.18c21.616,0,42.723-7.552,59.431-21.265l94.359-77.441
	c3.376-2.772,7.932-3.837,12.187-2.839c5.277,1.232,9.205,5.108,10.509,10.368c1.303,5.26-0.361,10.521-4.452,14.075l-26.482,23.001
	c-4.17,3.621-4.614,9.938-0.992,14.107s9.938,4.614,14.107,0.992l26.482-23.001C509.965,367.32,514.084,354.298,510.985,341.788z
	 M20,352h47.81v140H20V352z M361.83,401.05c-11.9,9.766-26.638,15.542-41.94,16.549c2.59-5.535,3.68-11.638,3.186-17.69
	l80.148-61.493c12.191-9.353,28.321-11.679,42.607-6.307L361.83,401.05z"/>
<path d="M439.02,405.689c-2.63,0-5.21,1.07-7.069,2.931c-1.86,1.859-2.931,4.439-2.931,7.069s1.07,5.21,2.931,7.07
	c1.859,1.86,4.439,2.93,7.069,2.93c2.641,0,5.221-1.069,7.07-2.93c1.86-1.86,2.93-4.44,2.93-7.07s-1.069-5.21-2.93-7.069
	C444.23,406.76,441.661,405.689,439.02,405.689z"/>
<path d="M43.9,372.85c-2.63,0-5.199,1.07-7.069,2.931c-1.86,1.859-2.931,4.439-2.931,7.069s1.07,5.21,2.931,7.07
	c1.87,1.86,4.439,2.93,7.069,2.93c2.641,0,5.21-1.069,7.08-2.93c1.86-1.86,2.931-4.44,2.931-7.07s-1.07-5.21-2.931-7.069
	C49.11,373.92,46.541,372.85,43.9,372.85z"/>
<path d="M256,308c66.168,0,120-53.696,120-119.698c0-27.358-9.492-54.091-26.732-75.312c-0.025-0.034-0.052-0.067-0.078-0.102
	L263.876,3.838C261.982,1.416,259.078,0,256.001,0H256c-3.075,0-5.979,1.415-7.875,3.836l-84.907,108.479
	c-0.159,0.204-0.31,0.413-0.451,0.626C145.498,134.179,136,160.896,136,188.302C136,254.304,189.832,308,256,308z M178.858,124.859
	c0.276-0.333,0.527-0.681,0.754-1.039l76.387-97.594l77.232,98.722c0.107,0.146,0.218,0.29,0.333,0.431
	C348.033,143.081,356,165.428,356,188.302C356,243.275,311.141,288,256,288s-100-44.725-100-99.698
	C156,165.183,164.119,142.651,178.858,124.859z"/>
<path d="M293.646,254.652c1.904,0,3.829-0.543,5.532-1.677c21.731-14.465,34.706-38.642,34.706-64.674c0-5.522-4.478-10-10-10
	s-10,4.478-10,10c0,19.323-9.641,37.277-25.788,48.025c-4.598,3.06-5.844,9.268-2.783,13.865
	C287.239,253.087,290.413,254.652,293.646,254.652z"/>
<path d="M256,266c0.383,0,0.766-0.002,1.147-0.008c5.522-0.081,9.934-4.623,9.853-10.146c-0.08-5.522-4.585-9.944-10.146-9.853
	C256.571,245.998,256.286,246,256,246c-5.522,0-10,4.478-10,10S250.478,266,256,266z"/>
<g>
</g>
<g>
</g>
<g>
</g>
<g>
</g>
<g>
</g>
<g>
</g>
<g>
</g>
<g>
</g>
<g>
</g>
<g>
</g>
<g>
</g>
<g>
</g>
<g>
</g>
<g>
</g>
<g>
</g>
</svg>
