<?xml version="1.0" encoding="iso-8859-1"?>
<!-- Generator: Adobe Illustrator 19.0.0, SVG Export Plug-In . SVG Version: 6.00 Build 0)  -->
<svg version="1.1" id="Capa_1" xmlns="http://www.w3.org/2000/svg" xmlns:xlink="http://www.w3.org/1999/xlink" x="0px" y="0px"
	 viewBox="0 0 512 512" style="enable-background:new 0 0 512 512;" xml:space="preserve">
<path style="fill:#78D2FA;" d="M334.126,364.005v62.229c0,12.023-9.747,21.77-21.77,21.77H199.898
	c-12.023,0-21.77-9.747-21.77-21.77v-62.229H334.126z"/>
<path style="fill:#AAE6FF;" d="M218.265,101.793c-4.509-20.347-24.658-33.186-45.004-28.677l0,0
	c-20.347,4.509-33.186,24.658-28.677,45.004l-4.02-5.662c-10.473-14.753-30.062-19.799-46.358-11.941l0,0
	c-18.772,9.051-26.653,31.606-17.603,50.377l0.002,0.002c-13.422-15.943-37.227-17.987-53.168-4.565l0,0
	c-15.943,13.422-17.987,37.227-4.565,53.168l0,0l210.316,210.317c14.808,14.808,38.818,14.808,53.625,0l210.316-210.316l0,0
	c13.422-15.943,11.378-39.748-4.565-53.168l0,0c-15.943-13.422-39.748-11.378-53.168,4.565l0.002-0.002
	c9.051-18.772,1.17-41.328-17.603-50.377l0,0c-16.298-7.858-35.886-2.812-46.358,11.941l-4.02,5.662
	c4.509-20.347-8.331-40.496-28.677-45.004l0,0c-20.347-4.509-40.496,8.331-45.004,28.677v-0.064
	c0-20.84-16.894-37.735-37.734-37.735l0,0c-20.84,0-37.735,16.894-37.735,37.735L218.265,101.793L218.265,101.793z"/>
<circle style="fill:#FFFFFF;" cx="255.997" cy="290.336" r="63.999"/>
<path d="M511.821,171.117c-1.091-12.704-7.063-24.223-16.817-32.434c-13.229-11.138-30.784-13.84-46.087-8.673
	c-1.547-16.073-11.202-30.99-26.78-38.501c-15.347-7.398-32.87-5.846-46.356,3.058c-1.22-3.563-2.873-7.005-4.948-10.262
	c-6.853-10.753-17.481-18.194-29.931-20.952c-12.447-2.762-25.225-0.506-35.979,6.347c-3.081,1.964-5.891,4.237-8.396,6.774
	c-1.906-3.045-4.172-5.896-6.774-8.499c-9.016-9.016-21.003-13.98-33.754-13.98c-17.06,0-32.057,8.995-40.499,22.509
	c-2.513-2.55-5.332-4.832-8.425-6.804c-10.752-6.852-23.532-9.109-35.979-6.347c-12.449,2.758-23.078,10.199-29.931,20.952
	c-2.075,3.257-3.729,6.698-4.948,10.261c-13.487-8.902-31.014-10.456-46.356-3.057c-15.578,7.511-25.232,22.427-26.78,38.501
	c-15.301-5.168-32.86-2.464-46.087,8.672c-9.754,8.212-15.727,19.73-16.817,32.435c-1.091,12.703,2.831,25.071,11.043,34.825
	c0.184,0.219,0.376,0.429,0.578,0.631l63.071,63.072c3.905,3.904,10.235,3.906,14.143,0c3.905-3.905,3.905-10.237,0-14.143
	l-62.745-62.746c-4.599-5.618-6.786-12.68-6.163-19.929c0.634-7.382,4.104-14.074,9.771-18.846
	c11.574-9.745,28.858-8.368,38.761,2.998l73.183,111.095c1.922,2.918,5.109,4.5,8.36,4.5c1.888,0,3.797-0.534,5.491-1.65
	c4.612-3.038,5.888-9.239,2.85-13.852l-73.14-111.029c-6.261-13.674-0.44-29.959,13.167-36.519
	c11.946-5.762,26.186-2.091,33.862,8.723l3.243,4.568l34.067,93.242c1.481,4.056,5.313,6.571,9.394,6.571
	c1.14,0,2.299-0.196,3.431-0.61c5.188-1.896,7.856-7.637,5.961-12.824l-34.267-93.788c-1.417-7.058-0.083-14.264,3.797-20.353
	c3.981-6.248,10.157-10.571,17.39-12.174c7.234-1.603,14.657-0.293,20.905,3.688c6.147,3.917,10.426,9.964,12.089,17.048
	l10.618,90.214c0.599,5.088,4.919,8.832,9.919,8.832c0.39,0,0.785-0.022,1.182-0.069c5.485-0.646,9.408-5.615,8.763-11.101
	l-10.622-90.246c0.26-15.07,12.591-27.25,27.722-27.25c7.408,0,14.374,2.885,19.612,8.123c5.128,5.129,7.993,11.915,8.111,19.211
	l-9.172,90.32c-0.558,5.495,3.444,10.401,8.938,10.96c0.344,0.034,0.685,0.052,1.022,0.052c5.069,0,9.414-3.84,9.938-8.99
	l9.155-90.145c1.678-7.045,5.945-13.057,12.067-16.958c6.249-3.98,13.673-5.29,20.905-3.688c7.232,1.602,13.408,5.926,17.39,12.174
	c3.88,6.088,5.214,13.294,3.797,20.353l-34.267,93.788c-1.896,5.188,0.773,10.929,5.961,12.824c1.133,0.414,2.291,0.61,3.431,0.61
	c4.08,0,7.912-2.517,9.394-6.571l34.067-93.242l3.243-4.568c7.677-10.813,21.917-14.481,33.862-8.723
	c13.607,6.561,19.429,22.847,13.166,36.521l-53.139,80.666c-3.038,4.612-1.763,10.813,2.85,13.852
	c1.694,1.116,3.604,1.65,5.492,1.65c3.25,0,6.438-1.582,8.359-4.5l53.183-80.734c9.902-11.364,27.185-12.744,38.761-2.997
	c5.668,4.771,9.138,11.463,9.771,18.845c0.623,7.249-1.563,14.311-6.163,19.93l-209.99,209.99
	c-5.273,5.273-12.284,8.178-19.742,8.178c-7.457,0-14.469-2.904-19.741-8.178l-89.5-89.499c-3.906-3.904-10.236-3.904-14.143,0
	c-3.905,3.905-3.905,10.237,0,14.143l35.567,35.567c-0.036,0.345-0.056,0.694-0.056,1.048v62.229c0,17.518,14.252,31.77,31.77,31.77
	h112.46c17.518,0,31.77-14.252,31.77-31.77v-62.229c0-0.431-0.036-0.852-0.089-1.269l156.164-156.164
	c0.201-0.202,0.395-0.412,0.578-0.631C508.99,196.187,512.912,183.819,511.821,171.117z M324.126,426.234
	c0,6.49-5.279,11.77-11.77,11.77H199.898c-6.49,0-11.77-5.279-11.77-11.77V382.9l33.989,33.989
	c9.051,9.051,21.084,14.035,33.884,14.035c12.8,0,24.834-4.984,33.885-14.035l34.242-34.242V426.234z"/>
<path d="M109.702,280.336c-2.631,0-5.21,1.069-7.07,2.93s-2.93,4.44-2.93,7.07s1.069,5.21,2.93,7.069
	c1.86,1.86,4.439,2.931,7.07,2.931c2.64,0,5.21-1.07,7.069-2.931c1.87-1.859,2.931-4.439,2.931-7.069s-1.061-5.21-2.931-7.07
	C114.912,281.405,112.342,280.336,109.702,280.336z"/>
<path d="M368.899,269.645c1.86-1.859,2.931-4.439,2.931-7.07c0-2.63-1.07-5.21-2.931-7.079c-1.859-1.86-4.439-2.921-7.069-2.921
	s-5.21,1.061-7.07,2.921c-1.86,1.869-2.93,4.439-2.93,7.079c0,2.631,1.069,5.211,2.93,7.07c1.86,1.86,4.44,2.93,7.07,2.93
	S367.039,271.506,368.899,269.645z"/>
<path d="M329.999,290.332c0-40.804-33.196-73.999-73.999-73.999s-73.999,33.196-73.999,73.999c0,40.804,33.196,73.999,73.999,73.999
	S329.999,331.135,329.999,290.332z M202.001,290.332c0-29.775,24.225-53.999,53.999-53.999c29.775,0,53.999,24.225,53.999,53.999
	c0,29.775-24.225,53.999-53.999,53.999C226.225,344.331,202.001,320.107,202.001,290.332z"/>
<path d="M274.5,290.332c0,5.522,4.478,10,10,10s10-4.478,10-10c0-21.229-17.271-38.5-38.5-38.5c-5.522,0-10,4.478-10,10
	s4.478,10,10,10C266.201,271.832,274.5,280.131,274.5,290.332z"/>
<g>
</g>
<g>
</g>
<g>
</g>
<g>
</g>
<g>
</g>
<g>
</g>
<g>
</g>
<g>
</g>
<g>
</g>
<g>
</g>
<g>
</g>
<g>
</g>
<g>
</g>
<g>
</g>
<g>
</g>
</svg>
