<?xml version="1.0" encoding="iso-8859-1"?>
<!-- Generator: Adobe Illustrator 19.0.0, SVG Export Plug-In . SVG Version: 6.00 Build 0)  -->
<svg version="1.1" id="Capa_1" xmlns="http://www.w3.org/2000/svg" xmlns:xlink="http://www.w3.org/1999/xlink" x="0px" y="0px"
	 viewBox="0 0 511.999 511.999" style="enable-background:new 0 0 511.999 511.999;" xml:space="preserve">
<path style="fill:#9BBEFF;" d="M321.372,231.247c-14.41,0-26.584-9.554-30.546-22.672c-86.319,26.957-155.333,93.1-186.226,177.603
	c6.767-2.641,14.123-4.106,21.824-4.106c8.123,0,15.869,1.612,22.936,4.534c33.506-74.762,102.069-130.39,184.775-145.962
	l-2.499-9.397L321.372,231.247L321.372,231.247z"/>
<g>
	<path style="fill:#FF5A5A;" d="M409.01,117.249h-9.077c3.089,0,6.121,0.246,9.077,0.719V117.249z"/>
	<path style="fill:#FF5A5A;" d="M289.462,199.338c0-17.623,14.287-31.91,31.91-31.91c8.334,0,15.919,3.198,21.603,8.43
		c-0.015-0.537-0.041-1.07-0.041-1.611c0-31.48,25.52-56.999,56.999-56.999h-29.935c-22.902,0-45.304,2.139-67.018,6.227
		C140.234,154.117,16.174,294.291,10.246,464.495c2.024-16.639,16.189-29.531,33.375-29.531c8.784,0,16.778,3.371,22.769,8.885
		c-0.016-0.566-0.043-1.128-0.043-1.698c0-25.478,15.868-47.235,38.254-55.971c30.893-84.503,99.907-150.646,186.226-177.603
		C289.942,205.652,289.462,202.551,289.462,199.338z"/>
</g>
<path style="fill:#FFE682;" d="M289.462,199.338c0-17.623,14.287-31.91,31.91-31.91c8.334,0,15.919,3.198,21.603,8.43
	c-0.015-0.537-0.041-1.07-0.041-1.611c0-6,0.933-11.781,2.651-17.212c-10.999,0.941-21.848,2.409-32.507,4.416
	C176.876,187.096,70.619,297.531,51.198,435.828c5.773,1.331,10.979,4.142,15.192,8.02c-0.016-0.566-0.043-1.128-0.043-1.698
	c0-25.478,15.868-47.235,38.254-55.971c30.893-84.503,99.907-150.646,186.226-177.603
	C289.942,205.652,289.462,202.551,289.462,199.338z"/>
<g>
	<path style="fill:#AAE6FF;" d="M43.621,502.019c-18.575,0-33.633-15.058-33.633-33.633c0-18.575,15.058-33.633,33.633-33.633
		c8.784,0,16.778,3.371,22.769,8.885c-0.016-0.566-0.043-1.128-0.043-1.698c0-33.18,26.898-60.077,60.077-60.077
		c25.995,0,48.128,16.511,56.498,39.617c3.252-0.832,6.66-1.276,10.171-1.276c22.593,0,40.908,18.315,40.908,40.908
		c0,22.593-18.315,40.908-40.908,40.908H43.621z"/>
	<path style="fill:#AAE6FF;" d="M321.372,231.247c-17.623,0-31.91-14.286-31.91-31.91c0-17.623,14.286-31.91,31.91-31.91
		c8.334,0,15.919,3.198,21.602,8.43c-0.015-0.537-0.041-1.07-0.041-1.611c0-31.48,25.52-56.999,56.999-56.999
		c24.663,0,45.662,15.665,53.603,37.587c3.085-0.789,6.318-1.21,9.65-1.21c21.435,0,38.812,17.377,38.812,38.812
		s-17.377,38.812-38.812,38.812L321.372,231.247L321.372,231.247z"/>
</g>
<circle style="fill:#F5B955;" cx="80.999" cy="80.999" r="28"/>
<path d="M279.463,199.339c0,0.773,0.024,1.541,0.066,2.304c-34.184,11.198-65.656,28.512-93.645,51.536
	c-29.656,24.396-53.838,53.896-71.874,87.684c-2.602,4.872-0.76,10.93,4.112,13.53c1.5,0.801,3.111,1.181,4.7,1.181
	c3.573,0,7.03-1.921,8.83-5.293c32.59-61.047,88.342-107.902,153.729-129.5c7.324,12.247,20.713,20.467,35.99,20.467h141.813
	c26.915,0,48.811-21.896,48.811-48.811s-21.896-48.811-48.811-48.811c-1.198,0-2.395,0.044-3.586,0.131
	c-11.337-22.132-34.372-36.508-59.667-36.508c-31.896,0-58.656,22.405-65.375,52.301c-4.211-1.395-8.655-2.121-13.186-2.121
	C298.264,157.429,279.463,176.229,279.463,199.339z M321.372,177.429c5.509,0,10.775,2.056,14.83,5.787
	c2.961,2.724,7.263,3.41,10.923,1.74c3.659-1.669,5.963-5.368,5.846-9.389l-0.017-0.497c-0.009-0.273-0.021-0.547-0.021-0.822
	c0-25.916,21.084-46.999,46.999-46.999c19.724,0,37.487,12.455,44.201,30.993c1.753,4.839,6.895,7.559,11.88,6.282
	c2.33-0.597,4.743-0.898,7.172-0.898c15.887,0,28.812,12.925,28.812,28.812s-12.925,28.812-28.812,28.812H321.372
	c-12.081,0-21.909-9.828-21.909-21.909C299.463,187.259,309.291,177.429,321.372,177.429z"/>
<path d="M193.073,410.186c-1.369,0-2.736,0.055-4.098,0.164c-6.01-11.886-15.243-21.647-26.364-28.371
	c25.78-51.973,68.951-92.962,122.441-115.969c5.073-2.183,7.417-8.064,5.235-13.138c-2.184-5.074-8.065-7.418-13.138-5.235
	c-58.23,25.047-105.159,69.791-132.98,126.522c-5.717-1.508-11.677-2.313-17.765-2.313c-23.476,0-44.28,11.612-57.004,29.384
	c1.931-7.657,4.146-15.248,6.647-22.699c25.256-75.238,77.828-137.339,148.033-174.865c4.871-2.604,6.709-8.662,4.105-13.533
	c-2.604-4.871-8.662-6.707-13.533-4.105c-36.807,19.673-69.203,45.822-96.293,77.722c-27.299,32.146-47.914,68.622-61.272,108.417
	c-4.623,13.775-8.362,27.995-11.112,42.264l-2.146,10.309c-0.075,0-0.15-0.005-0.226-0.005c-7.346,0-14.27,1.833-20.35,5.053
	c20.203-147.082,133.131-268.538,281.579-296.487c5.427-1.021,8.999-6.25,7.977-11.678c-1.022-5.426-6.25-9.003-11.678-7.977
	C218.635,129.18,143.044,173.12,88.282,237.374c-27.22,31.938-48.637,67.898-63.658,106.886
	C9.956,382.33,1.778,422.359,0.268,463.35c-0.189,1.648-0.248,7.075-0.177,8.092c0.006,0.087,0.012,0.175,0.02,0.261
	c1.711,22.505,20.556,40.297,43.491,40.297h38.381c5.522,0,10-4.478,10-10s-4.478-10-10-10h-38.38
	c-12.315,0-22.454-9.469-23.532-21.508c0.036-1.883,0.096-3.761,0.162-5.638c1.702-11.37,11.533-20.118,23.37-20.118
	c5.942,0,11.623,2.217,15.995,6.242c2.958,2.722,7.259,3.411,10.916,1.744c3.659-1.665,5.965-5.359,5.854-9.378l-0.018-0.57
	c-0.01-0.283-0.021-0.566-0.021-0.852c0-27.612,22.465-50.076,50.077-50.076c21.016,0,39.941,13.271,47.095,33.021
	c1.753,4.84,6.895,7.565,11.881,6.282c2.499-0.639,5.087-0.963,7.692-0.963c17.043,0,30.908,13.865,30.908,30.907
	c0,17.042-13.865,30.907-30.908,30.907h-20.759c-5.522,0-10,4.478-10,10s4.478,10,10,10h20.759
	c28.071,0,50.907-22.837,50.907-50.906C243.982,433.022,221.144,410.186,193.073,410.186z"/>
<path d="M129.001,491.994c-2.63,0-5.21,1.069-7.07,2.93c-1.86,1.861-2.93,4.44-2.93,7.07s1.069,5.21,2.93,7.069
	c1.86,1.86,4.44,2.931,7.07,2.931c2.63,0,5.21-1.07,7.069-2.931c1.86-1.859,2.931-4.439,2.931-7.069s-1.07-5.21-2.931-7.07
	C134.211,493.063,131.631,491.994,129.001,491.994z"/>
<path d="M256.462,187.978c1.189,0,2.4-0.214,3.577-0.665l0.126-0.048c5.167-1.949,7.777-7.718,5.829-12.886
	c-1.948-5.167-7.715-7.777-12.886-5.829l-0.228,0.087c-5.157,1.978-7.735,7.761-5.759,12.917
	C248.648,185.535,252.439,187.978,256.462,187.978z"/>
<path d="M81.002,118.999c20.953,0,38-17.047,38-38s-17.047-38-38-38s-38,17.047-38,38S60.049,118.999,81.002,118.999z
	 M81.002,62.999c9.925,0,18,8.075,18,18s-8.075,18-18,18s-18-8.075-18-18S71.077,62.999,81.002,62.999z"/>
<path d="M129.175,80.999c0,5.522,4.478,10,10,10h12.826c5.522,0,10-4.478,10-10s-4.478-10-10-10h-12.826
	C133.652,70.999,129.175,75.477,129.175,80.999z"/>
<path d="M10.002,90.999h12.826c5.522,0,10-4.478,10-10s-4.478-10-10-10H10.002c-5.522,0-10,4.478-10,10S4.479,90.999,10.002,90.999z
	"/>
<path d="M71.002,139.172v12.826c0,5.522,4.478,10,10,10c5.522,0,10-4.478,10-10v-12.826c0-5.522-4.478-10-10-10
	C75.48,129.172,71.002,133.649,71.002,139.172z"/>
<path d="M81.002,32.826c5.522,0,10-4.478,10-10V10c0-5.522-4.478-10-10-10c-5.522,0-10,4.478-10,10v12.826
	C71.002,28.349,75.479,32.826,81.002,32.826z"/>
<path d="M129.208,115.063c-3.906-3.904-10.236-3.904-14.143,0c-3.905,3.905-3.905,10.237,0,14.143l9.068,9.068
	c1.953,1.952,4.512,2.929,7.071,2.929s5.118-0.977,7.071-2.929c3.905-3.905,3.905-10.237,0-14.143L129.208,115.063z"/>
<path d="M32.795,46.935c1.953,1.952,4.512,2.929,7.071,2.929c2.559,0,5.118-0.977,7.071-2.929c3.905-3.905,3.905-10.237,0-14.143
	l-9.068-9.068c-3.906-3.904-10.236-3.904-14.143,0c-3.905,3.905-3.905,10.237,0,14.143L32.795,46.935z"/>
<path d="M32.795,115.063l-9.068,9.068c-3.905,3.905-3.905,10.237,0,14.143c1.953,1.952,4.512,2.929,7.071,2.929
	s5.118-0.977,7.071-2.929l9.068-9.068c3.905-3.905,3.905-10.237,0-14.143C43.031,111.159,36.701,111.159,32.795,115.063z"/>
<path d="M122.137,49.863c2.56,0,5.118-0.977,7.071-2.929l9.068-9.068c3.905-3.905,3.905-10.237,0-14.143
	c-3.906-3.904-10.236-3.904-14.143,0l-9.068,9.068c-3.905,3.905-3.905,10.237,0,14.143
	C117.019,48.887,119.577,49.863,122.137,49.863z"/>
<path d="M501.997,311.41c-10.713,0-20.375,4.562-27.164,11.839c-6.789-7.276-16.452-11.839-27.165-11.839c-5.522,0-10,4.478-10,10
	s4.478,10,10,10c9.465,0,17.165,7.7,17.165,17.164c0,5.522,4.478,10,10,10s10-4.478,10-10c0-9.464,7.7-17.164,17.164-17.164
	c5.522,0,10-4.478,10-10S507.519,311.41,501.997,311.41z"/>
<path d="M345.103,410.831c-10.713,0-20.376,4.562-27.165,11.839c-6.789-7.277-16.451-11.839-27.164-11.839c-5.522,0-10,4.478-10,10
	s4.478,10,10,10c9.464,0,17.164,7.7,17.164,17.164c0,5.522,4.478,10,10,10s10-4.478,10-10c0-9.464,7.7-17.164,17.165-17.164
	c5.522,0,10-4.478,10-10S350.626,410.831,345.103,410.831z"/>
<path d="M474.736,464.831c-10.713,0-20.375,4.562-27.164,11.839c-6.789-7.277-16.452-11.839-27.165-11.839c-5.522,0-10,4.478-10,10
	s4.478,10,10,10c9.465,0,17.165,7.7,17.165,17.164c0,5.522,4.478,10,10,10c5.522,0,10-4.478,10-10c0-9.464,7.7-17.164,17.164-17.164
	c5.522,0,10-4.478,10-10S480.259,464.831,474.736,464.831z"/>
<g>
</g>
<g>
</g>
<g>
</g>
<g>
</g>
<g>
</g>
<g>
</g>
<g>
</g>
<g>
</g>
<g>
</g>
<g>
</g>
<g>
</g>
<g>
</g>
<g>
</g>
<g>
</g>
<g>
</g>
</svg>
