<?xml version="1.0" encoding="iso-8859-1"?>
<!-- Generator: Adobe Illustrator 19.0.0, SVG Export Plug-In . SVG Version: 6.00 Build 0)  -->
<svg version="1.1" id="Capa_1" xmlns="http://www.w3.org/2000/svg" xmlns:xlink="http://www.w3.org/1999/xlink" x="0px" y="0px"
	 viewBox="0 0 512 512" style="enable-background:new 0 0 512 512;" xml:space="preserve">
<path style="fill:#A5DC69;" d="M256.254,101.013l64.22-64.359c-35.538-35.538-93.156-35.538-128.693,0
	c-35.538,35.538-35.538,93.156,0,128.693s93.156,35.538,128.693,0c17.769-17.769,26.653-41.058,26.653-64.347L256.254,101.013z"/>
<path style="fill:#46C373;" d="M395,237.938l-48.347-28.22c-35.538,35.538-35.538,93.156,0,128.693s93.156,35.538,128.693,0
	s35.538-93.156,0-128.693c-17.769-17.769-41.058-26.653-64.347-26.653L395,237.938z"/>
<path style="fill:#A5DC69;" d="M132.937,365.064V242.128C65.041,242.128,10,297.168,10,365.064s55.041,122.937,122.937,122.937
	s122.937-55.041,122.937-122.937c0-33.948-13.76-64.682-36.007-86.929L132.937,365.064z"/>
<path style="fill:#E68CBE;" d="M369.001,371.334c-3.892,0.014-7.697,0.14-11.4,0.355c2.015-3.114,4.002-6.361,5.936-9.739
	c17.835-31.155,24.522-60.859,14.936-66.347s-31.815,15.32-49.65,46.475c-1.934,3.378-3.728,6.735-5.393,10.05
	c-1.689-3.302-3.508-6.647-5.466-10.01c-18.063-31.023-40.445-51.666-49.99-46.108c-9.546,5.558-2.64,35.213,15.423,66.235
	c1.958,3.363,3.969,6.596,6.007,9.695c-3.704-0.188-7.51-0.285-11.402-0.271c-35.898,0.132-64.967,9.193-64.926,20.239
	c0.041,11.046,29.175,19.893,65.073,19.761c3.892-0.014,7.697-0.14,11.4-0.355c-2.015,3.114-4.002,6.361-5.936,9.739
	c-17.835,31.155-24.522,60.859-14.936,66.347s31.815-15.32,49.65-46.475c1.934-3.378,3.728-6.735,5.393-10.05
	c1.689,3.302,3.508,6.647,5.466,10.01c18.063,31.023,40.445,51.666,49.99,46.108c9.546-5.558,2.64-35.213-15.423-66.235
	c-1.958-3.363-3.969-6.596-6.007-9.695c3.704,0.188,7.51,0.285,11.402,0.271c35.898-0.132,64.967-9.193,64.926-20.239
	C434.033,380.049,404.899,371.202,369.001,371.334z"/>
<path style="fill:#FAB9E6;" d="M372.979,396.931c-3.371-1.946-6.722-3.752-10.03-5.43c3.308-1.677,6.66-3.484,10.03-5.43
	c31.089-17.949,51.814-40.255,46.292-49.82s-35.203-2.77-66.292,15.18c-3.371,1.946-6.61,3.945-9.717,5.972
	c0.202-3.704,0.313-7.509,0.313-11.401c0-35.898-8.954-65-20-65s-20,29.102-20,65c0,3.892,0.111,7.697,0.313,11.401
	c-3.107-2.027-6.347-4.026-9.717-5.972c-31.089-17.949-60.769-24.745-66.292-15.18s15.203,31.871,46.292,49.82
	c3.371,1.946,6.722,3.752,10.03,5.43c-3.308,1.677-6.66,3.484-10.03,5.43c-31.089,17.949-51.814,40.255-46.292,49.82
	s35.203,2.77,66.292-15.18c3.371-1.946,6.61-3.945,9.717-5.972c-0.202,3.704-0.313,7.509-0.313,11.401c0,35.898,8.954,65,20,65
	s20-29.102,20-65c0-3.892-0.111-7.697-0.313-11.401c3.107,2.027,6.347,4.026,9.717,5.972c31.089,17.949,60.769,24.745,66.292,15.18
	S404.068,414.88,372.979,396.931z"/>
<path d="M196.178,458.649c-4.398,2.871-5.849,8.71-3.209,13.33c1.846,3.23,5.22,5.041,8.692,5.041c1.682,0,3.387-0.425,4.951-1.319
	c0.293-0.167,0.598-0.363,0.872-0.559c4.494-3.21,5.535-9.456,2.325-13.95C206.674,456.805,200.646,455.706,196.178,458.649z"/>
<path d="M170.591,471.574c-12.061,4.265-24.73,6.427-37.654,6.427c-27.544,0-52.812-9.917-72.434-26.36l44.068-44.068
	c3.905-3.905,3.905-10.237,0-14.143c-3.906-3.904-10.236-3.904-14.143,0L46.36,437.498C29.917,417.876,20,392.608,20,365.064
	c0-27.545,9.912-52.817,26.355-72.439l33.977,33.977c1.953,1.952,4.512,2.929,7.071,2.929s5.118-0.977,7.071-2.929
	c3.905-3.905,3.905-10.237,0-14.143L60.5,278.486c17.221-14.432,38.792-23.836,62.436-25.919v112.498
	c0,4.045,2.437,7.691,6.173,9.239c3.737,1.546,8.038,0.692,10.898-2.168l79.546-79.546c1.943,2.32,3.793,4.716,5.537,7.173
	c3.197,4.502,9.439,5.563,13.943,2.365c4.503-3.197,5.563-9.439,2.365-13.943c-4.315-6.079-9.182-11.839-14.461-17.12
	c-1.876-1.876-4.419-2.93-7.071-2.93c-0.001,0-0.001,0-0.001,0c-2.652,0-5.196,1.054-7.071,2.929l-69.858,69.858v-98.794
	c0-5.522-4.478-10-10-10C59.635,232.128,0,291.763,0,365.064s59.635,132.937,132.937,132.937c15.202,0,30.114-2.547,44.322-7.571
	c5.207-1.841,7.936-7.555,6.094-12.762C181.512,472.461,175.798,469.733,170.591,471.574z"/>
<path d="M256.127,201.954c25.864,0,51.728-9.846,71.418-29.535c19.076-19.076,29.582-44.439,29.582-71.418
	c0-2.652-1.054-5.196-2.93-7.071c-1.875-1.876-4.419-2.929-7.071-2.929l-66.764,0.01l47.19-47.293
	c3.897-3.906,3.895-10.232-0.008-14.135c-39.381-39.379-103.455-39.379-142.836,0c-39.38,39.38-39.38,103.456,0,142.836
	C204.399,192.108,230.263,201.954,256.127,201.954z M192.282,51.185l30.429,30.429c1.953,1.952,4.512,2.929,7.071,2.929
	s5.118-0.977,7.071-2.929c3.905-3.905,3.905-10.237,0-14.143l-30.414-30.414c14.561-11.33,32.118-17.018,49.688-17.018
	c17.603,0,35.203,5.685,49.779,17.057L249.175,93.95c-2.855,2.862-3.707,7.162-2.157,10.896c1.55,3.734,5.195,6.169,9.237,6.168
	l80.265-0.011c-2.184,17.848-10.201,34.357-23.117,47.273c-29.162,29.162-75.199,31.374-106.949,6.68l30.4-30.401
	c3.905-3.905,3.905-10.237,0-14.143c-3.906-3.904-10.236-3.904-14.143,0l-30.417,30.418
	C169.489,121.66,169.485,80.361,192.282,51.185z"/>
<path d="M411,173.064c-4.444,0-8.356,2.934-9.601,7.201l-12.416,42.581l-37.289-21.766c-3.925-2.29-8.898-1.646-12.112,1.565
	c-10.311,10.312-18.111,22.416-23.184,35.978c-1.935,5.173,0.69,10.935,5.863,12.869c5.17,1.933,10.935-0.688,12.869-5.863
	c3.174-8.486,7.686-16.264,13.453-23.206l41.375,24.15c2.66,1.553,5.887,1.793,8.744,0.652c2.86-1.141,5.035-3.534,5.897-6.49
	l13.804-47.34c18.842,1.695,36.331,9.852,49.871,23.393c0.891,0.891,1.748,1.802,2.588,2.723l-57.208,57.208
	c-1.875,1.876-2.929,4.419-2.929,7.071s1.054,5.195,2.929,7.071l47.112,47.111c-2.86,2.234-5.858,4.275-8.979,6.097
	c-4.77,2.784-6.379,8.908-3.594,13.678c1.858,3.185,5.206,4.96,8.646,4.96c1.712,0,3.447-0.44,5.032-1.366
	c7.468-4.359,14.38-9.695,20.545-15.86c39.38-39.38,39.38-103.456,0-142.836C463.342,183.57,437.978,173.064,411,173.064z
	 M474.895,323.816l-40.025-40.024l47.686-47.686C497.26,263.863,494.696,298.421,474.895,323.816z"/>
<path d="M416.045,366.155c11.632-12.084,17.823-24.62,11.885-34.905c-5.939-10.284-19.891-11.19-36.17-7.16
	c4.323-15.676,5.467-32.684-6.43-39.553c-11.9-6.87-26.056,2.625-37.47,14.207c-4.649-16.114-12.41-27.743-24.286-27.743
	s-19.638,11.629-24.287,27.744c-11.414-11.58-25.57-21.074-37.469-14.208c-11.925,6.885-10.747,23.954-6.4,39.66
	c-0.586-0.146-1.172-0.29-1.749-0.422c-21.995-5.036-30.876,1.285-34.45,7.475c-3.574,6.191-4.611,17.041,10.75,33.574
	c0.403,0.434,0.821,0.869,1.241,1.304c-15.776,4.089-31.147,11.604-31.147,25.372s15.371,21.283,31.147,25.373
	c-0.419,0.435-0.838,0.871-1.241,1.304c-15.361,16.533-14.324,27.383-10.75,33.573c3.573,6.19,12.451,12.516,34.45,7.476
	c0.577-0.132,1.163-0.277,1.749-0.422c-4.347,15.706-5.525,32.775,6.4,39.66c2.781,1.605,5.686,2.317,8.649,2.317
	c9.717,0,20.073-7.651,28.82-16.525c4.649,16.115,12.41,27.744,24.287,27.744c11.875,0,19.637-11.629,24.286-27.744
	c8.747,8.875,19.102,16.525,28.82,16.525c2.963,0,5.87-0.712,8.649-2.317c11.897-6.87,10.753-23.877,6.43-39.554
	c16.281,4.031,30.232,3.125,36.17-7.16c5.938-10.284-0.254-22.821-11.885-34.904c15.738-4.095,31.041-11.608,31.041-25.346
	S431.784,370.251,416.045,366.155z M374.743,302.874c0.432,4.328-0.79,14.321-7.044,29.782c-4.806,2.155-9.584,4.53-14.211,7.034
	c-0.145-5.259-0.478-10.584-1.014-15.824C362.735,310.719,370.779,304.664,374.743,302.874z M272.405,302.874
	c3.964,1.79,12.007,7.844,22.27,20.993c-0.536,5.24-0.869,10.566-1.014,15.825c-4.763-2.573-9.519-4.91-14.191-6.989
	C273.199,317.216,271.974,307.206,272.405,302.874z M250.601,382.704c4.138,3.007,8.54,5.958,13.151,8.797
	c-4.611,2.839-9.013,5.79-13.151,8.797c-16.548-2.313-25.829-6.257-29.365-8.797C224.772,388.961,234.053,385.018,250.601,382.704z
	 M272.405,480.128c-0.432-4.332,0.794-14.342,7.065-29.829c4.672-2.08,9.428-4.416,14.191-6.989
	c0.145,5.26,0.478,10.586,1.014,15.825C284.413,472.283,276.369,478.338,272.405,480.128z M374.743,480.128
	c-3.964-1.79-12.008-7.845-22.27-20.993c0.536-5.239,0.869-10.565,1.014-15.824c4.627,2.504,9.406,4.879,14.211,7.034
	C373.954,465.807,375.175,475.8,374.743,480.128z M357.978,422.91c-3.084-1.779-6.196-3.693-9.252-5.687
	c-3.156-2.058-7.201-2.167-10.463-0.284c-3.264,1.883-5.19,5.44-4.986,9.202c0.197,3.639,0.298,7.292,0.298,10.859
	c0,29.363-5.934,47.986-10,53.743c-4.066-5.757-10-24.38-10-53.743c0-3.573,0.101-7.226,0.299-10.856
	c0.205-3.762-1.722-7.32-4.984-9.204c-1.55-0.896-3.276-1.341-5.001-1.341c-1.904,0-3.806,0.544-5.462,1.624
	c-3.067,1.999-6.181,3.913-9.256,5.688c-25.429,14.682-44.525,18.845-51.542,18.211c2.952-6.399,16.113-20.85,41.542-35.531
	c3.102-1.791,6.314-3.53,9.551-5.17c3.361-1.703,5.479-5.151,5.479-8.92s-2.118-7.217-5.479-8.92
	c-3.236-1.64-6.449-3.379-9.551-5.17c-25.429-14.682-38.59-29.132-41.542-35.531c7.014-0.642,26.115,3.531,51.544,18.212
	c3.086,1.781,6.199,3.694,9.252,5.686c3.156,2.059,7.201,2.168,10.464,0.285c3.264-1.884,5.19-5.442,4.985-9.205
	c-0.198-3.631-0.299-7.283-0.299-10.856c0-29.363,5.934-47.986,10-53.743c4.066,5.757,10,24.38,10,53.743
	c0,3.567-0.101,7.221-0.298,10.859c-0.204,3.762,1.724,7.319,4.987,9.203c3.261,1.883,7.307,1.773,10.464-0.287
	c3.041-1.984,6.153-3.897,9.251-5.686c25.43-14.682,44.521-18.844,51.542-18.211c-2.951,6.399-16.112,20.85-41.543,35.532
	c-3.094,1.786-6.307,3.525-9.55,5.169c-3.361,1.703-5.479,5.151-5.479,8.92s2.118,7.217,5.479,8.92
	c3.243,1.644,6.456,3.383,9.55,5.169c0,0.001,0.001,0.001,0.001,0.001c25.43,14.682,38.591,29.132,41.542,35.531
	C402.514,441.76,383.406,437.592,357.978,422.91z M396.597,400.291c-4.269-3.084-8.715-6.035-13.197-8.79
	c4.482-2.755,8.928-5.706,13.197-8.79c16.517,2.314,25.784,6.253,29.315,8.79C422.38,394.039,413.114,397.977,396.597,400.291z"/>
<path d="M323.569,381.501c-2.63,0-5.199,1.069-7.069,2.93c-1.86,1.86-2.931,4.44-2.931,7.07s1.07,5.21,2.931,7.069
	c1.87,1.86,4.439,2.931,7.069,2.931c2.641,0,5.211-1.07,7.07-2.931c1.87-1.859,2.94-4.439,2.94-7.069s-1.07-5.21-2.94-7.07
	C328.78,382.57,326.21,381.501,323.569,381.501z"/>
<path d="M50.815,182.001c-5.522,0-10,4.478-10,10s4.478,10,10,10h58.644c5.522,0,10-4.478,10-10s-4.478-10-10-10H50.815z"/>
<path d="M150.08,202.001c2.63,0,5.21-1.07,7.069-2.931c1.86-1.859,2.931-4.439,2.931-7.069s-1.07-5.21-2.931-7.07
	c-1.859-1.86-4.439-2.93-7.069-2.93s-5.21,1.069-7.07,2.93s-2.93,4.44-2.93,7.07s1.069,5.21,2.93,7.069
	C144.87,200.931,147.45,202.001,150.08,202.001z"/>
<path d="M10.149,106.001H91.14c5.522,0,10-4.478,10-10s-4.478-10-10-10H10.149c-5.522,0-10,4.478-10,10
	S4.627,106.001,10.149,106.001z"/>
<path d="M448,124.001c5.522,0,10-4.478,10-10s-4.478-10-10-10h-48.997c-5.522,0-10,4.478-10,10s4.478,10,10,10H448z"/>
<path d="M10,154.001h118c5.522,0,10-4.478,10-10s-4.478-10-10-10H10c-5.522,0-10,4.478-10,10S4.478,154.001,10,154.001z"/>
<path d="M401.821,20.001H502c5.522,0,10-4.478,10-10s-4.478-10-10-10H401.821c-5.522,0-10,4.478-10,10
	S396.299,20.001,401.821,20.001z"/>
<path d="M361.2,20.001c2.63,0,5.21-1.07,7.069-2.931c1.861-1.859,2.931-4.439,2.931-7.069s-1.07-5.21-2.931-7.07
	c-1.859-1.861-4.439-2.93-7.069-2.93c-2.631,0-5.21,1.069-7.07,2.93s-2.93,4.44-2.93,7.07s1.069,5.21,2.93,7.069
	C355.99,18.931,358.569,20.001,361.2,20.001z"/>
<path d="M502,48.001H378c-5.522,0-10,4.478-10,10s4.478,10,10,10h124c5.522,0,10-4.478,10-10S507.522,48.001,502,48.001z"/>
<path d="M196.551,414.536l-26.312-26.312c-3.906-3.904-10.236-3.904-14.143,0c-3.905,3.905-3.905,10.237,0,14.143l26.312,26.312
	c1.953,1.952,4.512,2.929,7.071,2.929s5.118-0.977,7.071-2.929C200.456,424.773,200.456,418.441,196.551,414.536z"/>
<g>
</g>
<g>
</g>
<g>
</g>
<g>
</g>
<g>
</g>
<g>
</g>
<g>
</g>
<g>
</g>
<g>
</g>
<g>
</g>
<g>
</g>
<g>
</g>
<g>
</g>
<g>
</g>
<g>
</g>
</svg>
