<?xml version="1.0" encoding="iso-8859-1"?>
<!-- Generator: Adobe Illustrator 19.0.0, SVG Export Plug-In . SVG Version: 6.00 Build 0)  -->
<svg version="1.1" id="Capa_1" xmlns="http://www.w3.org/2000/svg" xmlns:xlink="http://www.w3.org/1999/xlink" x="0px" y="0px"
	 viewBox="0 0 511.996 511.996" style="enable-background:new 0 0 511.996 511.996;" xml:space="preserve">
<g>
	<path style="fill:#D7FA91;" d="M29.169,237.771c-23.434-22.997-18.243-66.121-18.21-66.473l-0.007-0.007l0.005,0.005l-0.009-0.009
		l0.006,0.006c0.183-0.017,41.704-4.102,65.189,18.935c23.472,23.036,19.243,65.283,19.211,65.465l0.012,0.012
		C95.366,255.707,52.698,260.866,29.169,237.771z"/>
	<path style="fill:#D7FA91;" d="M434.742,82.678c22.997-23.434,66.121-18.243,66.473-18.21l0.007-0.007l-0.005,0.005l0.009-0.009
		l-0.006,0.006c0.017,0.183,4.102,41.704-18.935,65.189c-23.036,23.472-65.283,19.243-65.465,19.211l-0.012,0.012
		C416.808,148.876,411.649,106.207,434.742,82.678z"/>
	<path style="fill:#D7FA91;" d="M434.67,442.474c-0.309-32.833,33.855-59.655,34.127-59.88v-0.01v0.008v-0.013v0.009
		c0.141,0.117,32.39,26.588,32.707,59.485c0.308,32.887-32.555,59.769-32.707,59.875v0.017
		C468.797,501.964,434.977,475.441,434.67,442.474z"/>
</g>
<path style="fill:#AAE6FF;" d="M295.456,200.931v45.975v1.158c52.3,16.861,90.137,65.933,90.137,123.842
	c0,71.848-58.245,130.094-130.094,130.094s-130.094-58.245-130.094-130.094c0-57.909,37.836-106.98,90.136-123.842v-1.158v-45.975
	L295.456,200.931L295.456,200.931z"/>
<path style="fill:#87D7C3;" d="M136.232,423.926L136.232,423.926C156.305,469.88,202.147,502,255.499,502
	c65.73,0,120.065-48.751,128.845-112.065l0,0l-33.302,14.485c-28.774,12.516-61.274,13.412-90.695,2.5l0,0
	c-29.389-10.899-61.853-10.017-90.607,2.462L136.232,423.926z"/>
<path style="fill:#C8F5FF;" d="M311.474,200.931H199.471c-13.255,0-24-10.745-24-24l0,0c0-13.255,10.745-24,24-24h112.002
	c13.255,0,24,10.745,24,24l0,0C335.474,190.185,324.728,200.931,311.474,200.931z"/>
<path style="fill:#A5DC69;" d="M174.64,90.809c36.07,36.07,78.1,21.906,78.1,21.906s14.163-42.03-21.906-78.1
	s-77.691-21.943-78.102-21.908C152.732,12.708,138.571,54.74,174.64,90.809z"/>
<path style="fill:#46C373;" d="M358.213,12.708c-0.41-0.035-42.032-14.161-78.102,21.908c-36.07,36.07-21.906,78.1-21.906,78.1
	s42.03,14.163,78.1-21.906S358.213,12.708,358.213,12.708z"/>
<g>
	<circle style="fill:#AFEBA5;" cx="288.203" cy="310.936" r="20"/>
	<circle style="fill:#AFEBA5;" cx="190.971" cy="336.046" r="16"/>
	<circle style="fill:#AFEBA5;" cx="302.484" cy="398.427" r="16"/>
	<circle style="fill:#AFEBA5;" cx="229.852" cy="446.018" r="16"/>
</g>
<path d="M139.712,311.651c1.651,1.033,3.486,1.526,5.3,1.526c3.33,0,6.586-1.662,8.484-4.691l0.152-0.243
	c2.932-4.681,1.515-10.852-3.165-13.784c-4.683-2.931-10.852-1.514-13.784,3.165l-0.152,0.243
	C133.615,302.547,135.032,308.718,139.712,311.651z"/>
<path d="M305.456,240.981v-30.05h6.018c18.748,0,34.001-15.252,34.001-34.001s-15.252-34.001-34.001-34.001h-45.975v-18.426
	c3.62,0.531,8.034,0.943,13.042,0.942c9.638,0,21.451-1.523,33.91-6.651c5.107-2.102,7.544-7.946,5.441-13.053
	c-2.102-5.107-7.945-7.546-13.053-5.441c-9.186,3.781-17.96,5.005-25.193,5.117l29.241-29.241c3.905-3.905,3.905-10.237,0-14.143
	c-3.906-3.904-10.236-3.904-14.143,0l-29.232,29.232c-0.007-0.645-0.019-1.298-0.04-1.961c0.583-13.23,5.14-31.047,21.711-47.617
	c24.083-24.083,50.813-22.819,62.719-20.664c1.304,7.435,2.468,22.07-3.948,37.934c-2.07,5.12,0.401,10.949,5.521,13.021
	c5.121,2.07,10.948-0.401,13.021-5.521c12.07-29.844,3.563-55.85,3.194-56.941c-1.086-3.225-3.72-5.637-6.938-6.48
	c-8.193-2.39-50.811-12.391-87.711,24.51c-7.761,7.761-13.443,15.764-17.567,23.636c-4.125-7.873-9.806-15.875-17.567-23.636
	c-36.9-36.9-79.519-26.9-87.712-24.51c-3.219,0.845-5.852,3.256-6.938,6.48c-0.659,1.956-15.682,48.37,24.313,88.365
	c22.563,22.563,47.168,27.616,64.682,27.616c5.09,0,9.579-0.427,13.247-0.975v18.408h-46.028c-18.748,0-34.001,15.252-34.001,34.001
	s15.252,34.001,34.001,34.001h6.07v30.05c-16.07,6.119-30.729,15.079-43.656,26.699c-4.107,3.691-4.444,10.015-0.753,14.122
	c1.975,2.197,4.702,3.315,7.44,3.315c2.382,0,4.771-0.846,6.682-2.563c12.658-11.377,27.246-19.779,43.355-24.973
	c4.129-1.331,6.928-5.172,6.932-9.509l0.001-37.142h19.956v52.988c0,5.522,4.478,10,10,10c5.522,0,10-4.478,10-10v-52.988h19.956
	v37.133c0,4.341,2.801,8.186,6.932,9.518c49.768,16.044,83.205,61.987,83.205,114.324c0,3.762-0.183,7.482-0.523,11.157
	l-28.016,12.185c-6.114,2.659-12.389,4.742-18.757,6.26c0.12-1.011,0.189-2.039,0.189-3.082c0-14.337-11.663-26.001-26-26.001
	s-26.001,11.663-26.001,26.001c0,1.025,0.066,2.034,0.182,3.028c-4.326-1.04-8.613-2.344-12.841-3.912
	c-31.964-11.854-66.789-10.909-98.066,2.665l-23.952,10.396c-4.146-12.148-6.399-25.165-6.399-38.7
	c0-9.135,1.028-18.235,3.056-27.05c1.238-5.382-2.121-10.749-7.503-11.987c-5.387-1.239-10.749,2.121-11.987,7.503
	c-2.366,10.282-3.565,20.891-3.565,31.534c0,19.658,4.078,38.38,11.419,55.374c0.075,0.209,0.146,0.42,0.235,0.627
	c0.068,0.157,0.16,0.296,0.235,0.448c21.753,49.213,71.029,83.645,128.203,83.645c77.248,0,140.094-62.846,140.094-140.094
	c0-30.236-9.48-59.027-27.418-83.264C352.064,266.877,330.49,250.508,305.456,240.981z M160.987,21.033
	c11.884-2.162,38.655-3.467,62.774,20.654c16.564,16.564,21.123,34.373,21.711,47.595c-0.022,0.671-0.034,1.33-0.041,1.983
	L216.2,62.034c-3.906-3.904-10.236-3.904-14.143,0c-3.905,3.905-3.905,10.237,0,14.143l29.285,29.285
	c-13.414-0.222-32.264-4.356-49.631-21.724C157.282,59.309,158.951,32.156,160.987,21.033z M185.471,176.931c0-7.72,6.28-14,14-14
	h112.002c7.72,0,14,6.28,14,14c0,7.72-6.28,14-14,14H199.471C191.751,190.931,185.471,184.651,185.471,176.931z M302.484,392.428
	c3.309,0,6,2.691,6,6s-2.691,6-6,6s-6-2.691-6-6S299.175,392.428,302.484,392.428z M255.499,491.999
	c-45.598,0-85.339-25.544-105.671-63.073l23.892-10.37c26.517-11.508,56.046-12.311,83.148-2.259
	c32,11.869,66.861,10.908,98.161-2.707l15.352-6.677C355.363,456.11,309.546,491.999,255.499,491.999z"/>
<path d="M329.232,83.738l-0.286,0.286c-3.924,3.887-3.953,10.219-0.065,14.142c1.955,1.974,4.529,2.962,7.104,2.962
	c2.544,0,5.089-0.965,7.038-2.896l0.353-0.351c3.905-3.905,3.905-10.237,0-14.143C339.469,79.833,333.139,79.833,329.232,83.738z"/>
<path d="M288.208,340.934c16.542,0,30.001-13.458,30.001-30.001s-13.458-30.001-30.001-30.001
	c-16.542,0-30.001,13.458-30.001,30.001S271.666,340.934,288.208,340.934z M288.208,300.934c5.514,0,10,4.486,10,10
	c0,5.514-4.486,10-10,10c-5.514,0-10-4.486-10-10C278.208,305.42,282.694,300.934,288.208,300.934z"/>
<path d="M190.967,310.046c-14.337,0-26.001,11.663-26.001,26s11.663,26.001,26.001,26.001c14.337,0,26.001-11.663,26.001-26.001
	S205.305,310.046,190.967,310.046z M190.967,342.046c-3.309,0-6-2.691-6-6s2.691-6,6-6c3.309,0,6,2.691,6,6
	S194.275,342.046,190.967,342.046z"/>
<path d="M229.851,420.021c-14.337,0-26.001,11.663-26.001,26.001c0,14.337,11.663,26,26.001,26c14.337,0,26.001-11.663,26.001-26
	C255.852,431.684,244.187,420.021,229.851,420.021z M229.851,452.021c-3.309,0-6-2.691-6-6s2.691-6,6-6c3.309,0,6,2.691,6,6
	S233.159,452.021,229.851,452.021z"/>
<path d="M357.57,359.112c1.86-1.859,2.931-4.43,2.931-7.069c0-2.63-1.07-5.21-2.931-7.07c-1.859-1.86-4.439-2.92-7.069-2.92
	c-2.63,0-5.21,1.06-7.07,2.92s-2.93,4.44-2.93,7.07c0,2.64,1.069,5.22,2.93,7.069c1.86,1.87,4.44,2.94,7.07,2.94
	C353.13,362.052,355.711,360.982,357.57,359.112z"/>
<path d="M229.567,293c1.86-1.86,2.931-4.44,2.931-7.07s-1.07-5.2-2.931-7.07c-1.859-1.859-4.439-2.93-7.069-2.93
	s-5.21,1.07-7.07,2.93c-1.86,1.86-2.93,4.44-2.93,7.07c0,2.64,1.069,5.21,2.93,7.07c1.86,1.859,4.44,2.93,7.07,2.93
	S227.708,294.86,229.567,293z"/>
<path d="M10.319,161.311c-2.559,0.163-5.055,1.306-6.88,3.383c-1.486,1.692-2.299,3.749-2.456,5.838
	c-0.655,6.218-4.183,49.485,21.181,74.377c18.785,18.436,47.084,21.296,62.835,21.296c6.598,0,10.995-0.502,11.567-0.571
	c3.799-0.459,6.997-3.052,8.246-6.669c0.367-1.063,0.546-2.159,0.547-3.247c0.656-8.738,2.098-48.769-22.213-72.628
	C57.652,158.083,16.19,160.784,10.319,161.311z M84.975,246.188c-12.563,0-35.071-2.076-48.802-15.553
	c-13.966-13.706-15.833-37.026-15.719-49.597c12.218,0.222,34.73,2.641,48.684,16.327c14.038,13.777,16.375,36.559,16.529,48.82
	C85.439,246.188,85.21,246.188,84.975,246.188z"/>
<path d="M489.423,136.656c24.976-25.462,22.312-66.854,21.782-72.807c-0.144-2.352-1.114-4.662-2.911-6.46
	c-1.777-1.777-4.059-2.745-6.384-2.904c-6.473-0.671-49.506-4.079-74.305,21.189c-26.161,26.653-20.959,72.464-20.725,74.402
	c0.459,3.799,3.052,6.997,6.669,8.246c1.063,0.367,2.159,0.546,3.247,0.547c1.657,0.125,4.438,0.277,8.022,0.277
	C440.133,159.147,470.089,156.357,489.423,136.656z M441.879,89.683L441.879,89.683c13.336-13.589,35.774-15.723,48.556-15.723
	c0.354,0,0.701,0.001,1.041,0.004c-0.222,12.218-2.642,34.73-16.328,48.685c-13.777,14.037-36.558,16.374-48.819,16.528
	C426.252,126.765,428.15,103.67,441.879,89.683z"/>
<polygon points="427.605,75.674 427.605,75.674 427.605,75.673 "/>
<path d="M475.454,375.119c-1.769-1.577-4.101-2.536-6.657-2.536c-2.508,0-4.801,0.925-6.557,2.451
	c-4.993,4.052-37.902,32.116-37.57,67.534c0.349,37.345,36.42,66.061,37.956,67.265c1.792,1.406,3.968,2.127,6.161,2.127
	c1.492,0,2.992-0.334,4.385-1.012c1.01-0.49,1.91-1.139,2.68-1.906c6.65-5.713,35.972-32.971,35.652-67.065
	C511.159,406.293,479.061,378.165,475.454,375.119z M468.671,488.374c-8.829-8.723-23.817-26.397-24-45.994
	c-0.185-19.557,14.993-37.378,23.962-46.189c8.479,8.783,22.682,26.395,22.87,45.975
	C491.688,461.836,477.232,479.596,468.671,488.374z"/>
<g>
</g>
<g>
</g>
<g>
</g>
<g>
</g>
<g>
</g>
<g>
</g>
<g>
</g>
<g>
</g>
<g>
</g>
<g>
</g>
<g>
</g>
<g>
</g>
<g>
</g>
<g>
</g>
<g>
</g>
</svg>
