<?xml version="1.0" encoding="iso-8859-1"?>
<!-- Generator: Adobe Illustrator 19.0.0, SVG Export Plug-In . SVG Version: 6.00 Build 0)  -->
<svg version="1.1" id="Capa_1" xmlns="http://www.w3.org/2000/svg" xmlns:xlink="http://www.w3.org/1999/xlink" x="0px" y="0px"
	 viewBox="0 0 512 512" style="enable-background:new 0 0 512 512;" xml:space="preserve">
<path style="fill:#78D2FA;" d="M182.726,290.532l-29.022-29.022c-24.49-24.49-62.561-29.033-92.127-10.994L10,281.985l7.318,10.919
	c26.582,39.664,72.348,62.081,119.98,58.771l0,0L182.726,290.532z"/>
<path style="fill:#FF7373;" d="M280.732,194.25L280.732,194.25c5.03-34.471-6.52-69.292-31.153-93.925l0,0
	c-20.173-20.173-34.835-45.184-42.584-72.641l-4.99-17.683l-48.926,48.926c-19.066,19.066-32.345,43.141-38.301,69.439l0,0
	c-10.828,47.819,3.631,97.85,38.301,132.519l28.089,28.089L280.732,194.25z"/>
<g>
	<circle style="fill:#FFFFFF;" cx="105.24" cy="293.281" r="19.523"/>
	<path style="fill:#FFFFFF;" d="M178.162,133.116l12.415-15.073l12.621,14.993c15.874,18.858,15.879,46.403,0.011,65.267l0,0
		c-6.333,7.528-17.903,7.59-24.315,0.129l-0.047-0.055C162.779,179.684,162.49,152.142,178.162,133.116z"/>
</g>
<path style="fill:#78D2FA;" d="M221.469,329.275l29.022,29.022c24.49,24.49,29.033,62.561,10.994,92.127l-31.468,51.577
	l-10.919-7.318c-39.664-26.582-62.081-72.348-58.771-119.98l0,0L221.469,329.275z"/>
<path style="fill:#FF7373;" d="M317.751,231.269L317.751,231.269c34.471-5.03,69.292,6.52,93.925,31.153l0,0
	c20.173,20.173,45.184,34.835,72.641,42.584l17.682,4.99l-48.926,48.926c-19.066,19.066-43.141,32.345-69.439,38.301l0,0
	c-47.819,10.828-97.85-3.631-132.519-38.301l-28.089-28.089L317.751,231.269z"/>
<g>
	<circle style="fill:#FFFFFF;" cx="218.72" cy="406.761" r="19.523"/>
	<path style="fill:#FFFFFF;" d="M313.623,333.155l-0.055-0.047c-7.461-6.413-7.399-17.983,0.129-24.315l0,0
		c18.864-15.868,46.408-15.863,65.267,0.011l14.993,12.621l-15.073,12.415C359.859,349.511,332.317,349.222,313.623,333.155z"/>
</g>
<g>
	<path style="fill:#FFF0AA;" d="M131.691,379.044L131.691,379.044l0.137-1.078c3.277-25.709,14.998-49.603,33.325-67.929
		l119.133-119.133c10.165-10.165,26.647-10.165,36.812,0l0,0c10.165,10.165,10.165,26.647,0,36.812L203.526,345.288
		C184.246,364.567,158.838,376.507,131.691,379.044z"/>
	<path style="fill:#FFF0AA;" d="M313.269,235.544l7.829-7.829c10.165-10.165,10.165-26.647,0-36.812l0,0
		c-10.165-10.165-26.647-10.165-36.812,0l-7.829,7.829L313.269,235.544z"/>
</g>
<path d="M352.242,168.329c-3.787,4.021-3.598,10.349,0.421,14.136c1.932,1.82,4.396,2.722,6.855,2.722
	c2.66,0,5.313-1.055,7.281-3.143c9.479-10.063,25.38-10.536,35.442-1.059c4.019,3.789,10.35,3.598,14.136-0.421
	c3.787-4.021,3.598-10.35-0.422-14.136C397.868,149.387,369.285,150.238,352.242,168.329z"/>
<path d="M326.384,141.627c-4.02,3.787-4.209,10.116-0.422,14.136c1.967,2.089,4.621,3.144,7.281,3.144
	c2.459,0,4.923-0.901,6.855-2.721c8.763-8.255,13.787-19.429,14.146-31.463S350.255,101.234,342,92.472
	c-3.785-4.02-10.114-4.21-14.136-0.423c-4.02,3.787-4.209,10.116-0.422,14.136c4.592,4.875,7.011,11.247,6.811,17.941
	C334.054,130.82,331.259,137.035,326.384,141.627z"/>
<path d="M438.88,213.481c2.63,0,5.21-1.06,7.07-2.93c1.86-1.86,2.93-4.43,2.93-7.07c0-2.63-1.07-5.21-2.93-7.069
	c-1.86-1.86-4.44-2.931-7.07-2.931c-2.64,0-5.21,1.07-7.07,2.931c-1.86,1.859-2.93,4.439-2.93,7.069c0,2.641,1.07,5.21,2.93,7.07
	C433.67,212.421,436.24,213.481,438.88,213.481z"/>
<path d="M306.42,81.031c2.63,0,5.21-1.07,7.07-2.931c1.87-1.859,2.93-4.439,2.93-7.069c0-2.631-1.06-5.211-2.93-7.07
	c-1.86-1.86-4.43-2.93-7.07-2.93c-2.63,0-5.21,1.069-7.07,2.93c-1.86,1.859-2.93,4.439-2.93,7.07c0,2.63,1.07,5.21,2.93,7.069
	C301.22,79.961,303.79,81.031,306.42,81.031z"/>
<path d="M84.361,272.407c-11.511,11.511-11.511,30.241,0,41.752c5.756,5.755,13.316,8.633,20.876,8.633s15.12-2.878,20.875-8.633
	c11.511-11.511,11.511-30.241,0-41.752C114.602,260.898,95.873,260.898,84.361,272.407z M111.97,300.017
	c-3.712,3.714-9.754,3.713-13.466,0c-3.713-3.713-3.713-9.754,0-13.467c1.856-1.856,4.294-2.785,6.733-2.785
	c2.438,0,4.877,0.929,6.733,2.785c1.799,1.798,2.79,4.189,2.79,6.733S113.769,298.219,111.97,300.017z"/>
<path d="M190.995,213.988c0.047,0,0.093,0,0.14,0c7.627-0.041,14.817-3.411,19.727-9.248c19.047-22.644,19.042-55.508-0.013-78.144
	l-12.621-14.993c-1.912-2.271-4.72-3.531-7.704-3.561c-2.969,0.016-5.778,1.351-7.666,3.643l-12.415,15.072
	c-18.812,22.838-18.467,55.7,0.867,78.193C176.252,210.699,183.42,213.988,190.995,213.988z M185.881,139.473l4.78-5.803
	l4.887,5.806c12.775,15.177,12.779,37.21,0.009,52.39c-1.543,1.835-3.5,2.118-4.529,2.123c-0.991-0.002-2.988-0.256-4.598-2.129
	C173.5,176.816,173.269,154.784,185.881,139.473z"/>
<path d="M381.447,387.465l-0.335,0.075c-5.388,1.214-8.772,6.565-7.559,11.953c1.047,4.648,5.174,7.805,9.747,7.805
	c0.728,0,1.467-0.08,2.207-0.246l0.317-0.071c5.389-1.208,8.778-6.557,7.57-11.945C392.184,389.646,386.837,386.258,381.447,387.465
	z"/>
<path d="M511.676,307.472c-0.896-3.434-3.545-6.136-6.96-7.1l-17.682-4.99c-25.751-7.268-49.365-21.11-68.286-40.031
	c-21.802-21.801-51.291-34.264-81.721-35.164c3.909-12.411,0.963-26.534-8.857-36.354c-6.805-6.806-15.854-10.553-25.478-10.553
	c-3.747,0-7.403,0.575-10.877,1.67c-0.905-30.42-13.369-59.901-35.165-81.697c-18.92-18.92-32.763-42.533-40.031-68.285
	l-4.99-17.683c-0.964-3.416-3.666-6.064-7.1-6.96c-3.433-0.896-7.085,0.095-9.595,2.604l-48.926,48.926
	c-20.43,20.43-34.601,46.123-40.982,74.302c-5.685,25.106-4.913,51.447,2.235,76.176c2.927,10.129,6.92,19.907,11.845,29.184
	c-20.893-4.651-43.36-1.362-62.738,10.462L4.792,273.448c-2.327,1.42-3.974,3.728-4.559,6.391c-0.585,2.662-0.058,5.448,1.46,7.713
	l7.318,10.919c26.017,38.82,69.473,62.365,115.699,63.469c-1.221,4.853-2.167,9.781-2.802,14.763l-0.137,1.079
	c-0.383,3.011,0.622,6.032,2.732,8.214c1.893,1.957,4.491,3.048,7.187,3.048c0.309,0,0.62-0.015,0.931-0.043
	c5.891-0.551,11.711-1.52,17.424-2.876c0.735,46.657,24.341,90.631,63.486,116.865l10.919,7.317c1.66,1.113,3.601,1.693,5.567,1.693
	c0.716,0,1.436-0.077,2.146-0.233c2.663-0.585,4.971-2.231,6.391-4.559l31.469-51.576c11.816-19.365,15.109-41.816,10.471-62.698
	c19.007,10.083,40.079,16.12,61.913,17.509c0.216,0.014,0.431,0.021,0.645,0.021c5.233,0,9.633-4.07,9.97-9.365
	c0.351-5.512-3.833-10.264-9.345-10.614c-32.268-2.053-62.628-15.772-85.488-38.634l-14.581-14.581l-8.96-8.96l87.534-87.534
	c30.235-3.476,60.846,7.138,82.426,28.718c21.335,21.334,47.96,36.942,76.996,45.137l1.265,0.357l-36.864,36.863
	c-9.298,9.299-19.897,17.146-31.505,23.324c-4.875,2.595-6.724,8.65-4.129,13.525c1.798,3.379,5.259,5.304,8.836,5.304
	c1.585,0,3.193-0.378,4.69-1.175c13.355-7.108,25.552-16.138,36.25-26.836l48.926-48.926
	C511.581,314.558,512.572,310.906,511.676,307.472z M314.027,197.975c6.25,6.25,6.25,16.419,0,22.669l-0.93,0.93l-22.67-22.67
	l0.93-0.93c3.028-3.027,7.053-4.694,11.334-4.694S310.999,194.946,314.027,197.975z M160.15,253.814
	c-32.434-32.433-45.749-78.504-35.619-123.238c5.546-24.491,17.863-46.821,35.619-64.577l36.863-36.864l0.357,1.266
	c8.195,29.038,23.804,55.662,45.138,76.996c21.579,21.58,32.192,52.195,28.717,82.427l-2.007,2.007
	c-0.001,0.001-0.003,0.002-0.004,0.004s-0.002,0.003-0.004,0.004l-85.519,85.518L160.15,253.814z M25.625,287.336l-1.508-2.25
	l42.668-26.034c25.712-15.688,58.548-11.771,79.847,9.529l22.916,22.917l-11.467,11.467c-11.223,11.224-20.207,24.508-26.533,38.969
	C89.429,343.115,49.201,322.515,25.625,287.336z M172.223,317.107l30.942-30.942l10.883,10.883c1.953,1.952,4.512,2.929,7.071,2.929
	s5.119-0.977,7.071-2.929c3.905-3.905,3.905-10.237,0-14.143l-10.883-10.883l58.977-58.976l22.67,22.67L276.79,257.88l-9.859-9.859
	c-3.905-3.904-10.237-3.904-14.142,0c-3.905,3.905-3.905,10.237,0,14.143l9.859,9.858l-59.482,59.482l-9.521-9.521
	c-3.905-3.904-10.237-3.904-14.143,0c-3.905,3.905-3.905,10.237,0,14.143l9.145,9.145c-12.959,10.62-28.266,18.076-44.599,21.721
	C148.732,348.222,158.495,330.836,172.223,317.107z M252.949,445.216l-26.034,42.669l-2.25-1.508
	c-35.423-23.742-56.075-64.361-54.58-106.798c15.038-6.337,28.84-15.548,40.512-27.22l9.906-9.906l22.917,22.917
	C264.72,386.668,268.638,419.502,252.949,445.216z"/>
<path d="M197.842,385.889c-11.51,11.511-11.51,30.24,0,41.751c5.756,5.755,13.316,8.633,20.876,8.633s15.12-2.878,20.876-8.633
	c11.51-11.511,11.51-30.24,0-41.751C228.082,374.379,209.354,374.379,197.842,385.889z M225.451,413.497
	c-1.798,1.799-4.19,2.789-6.733,2.789s-4.935-0.99-6.733-2.789c-1.799-1.798-2.79-4.189-2.79-6.733c0-2.543,0.991-4.935,2.79-6.732
	c1.798-1.799,4.19-2.789,6.733-2.789s4.935,0.99,6.733,2.789c1.799,1.798,2.79,4.189,2.79,6.732
	C228.241,409.308,227.25,411.699,225.451,413.497z"/>
<path d="M400.398,313.773l-14.993-12.621c-22.637-19.055-55.501-19.061-78.144-0.013c-5.837,4.91-9.208,12.101-9.248,19.729
	c-0.04,7.627,3.254,14.853,9.048,19.832l0.044,0.038c11.392,9.791,25.466,14.7,39.556,14.699
	c13.663-0.001,27.339-4.619,38.583-13.88l15.073-12.415c2.292-1.888,3.626-4.696,3.642-7.665
	C403.974,318.508,402.67,315.686,400.398,313.773z M372.527,326.12c-15.31,12.612-37.342,12.383-52.385-0.55l-0.055-0.047
	c-1.818-1.563-2.08-3.521-2.075-4.55c0.006-1.029,0.289-2.985,2.124-4.529c7.589-6.384,16.888-9.574,26.189-9.574
	c9.304,0,18.611,3.195,26.2,9.583l5.806,4.887L372.527,326.12z"/>
<g>
</g>
<g>
</g>
<g>
</g>
<g>
</g>
<g>
</g>
<g>
</g>
<g>
</g>
<g>
</g>
<g>
</g>
<g>
</g>
<g>
</g>
<g>
</g>
<g>
</g>
<g>
</g>
<g>
</g>
</svg>
