<?xml version="1.0" encoding="iso-8859-1"?>
<!-- Generator: Adobe Illustrator 19.0.0, SVG Export Plug-In . SVG Version: 6.00 Build 0)  -->
<svg version="1.1" id="Capa_1" xmlns="http://www.w3.org/2000/svg" xmlns:xlink="http://www.w3.org/1999/xlink" x="0px" y="0px"
	 viewBox="0 0 512 512" style="enable-background:new 0 0 512 512;" xml:space="preserve">
<g>
	<path style="fill:#C8F5FF;" d="M66.613,459.346c-31.267,0-56.614-25.347-56.614-56.613c0-31.267,25.347-56.614,56.614-56.614
		s56.614,25.347,56.614,56.614S97.88,459.346,66.613,459.346z"/>
	<path style="fill:#C8F5FF;" d="M213.975,392.112c-37.551,0-67.992-30.441-67.992-67.992s30.441-67.992,67.992-67.992
		s67.992,30.441,67.992,67.992S251.526,392.112,213.975,392.112z"/>
	<path style="fill:#C8F5FF;" d="M141.192,207.557c-42.707,0-77.327-34.621-77.327-77.327s34.621-77.327,77.327-77.327
		s77.327,34.621,77.327,77.327S183.899,207.557,141.192,207.557z"/>
</g>
<g>
	<circle style="fill:#F5C86E;" cx="66.612" cy="402.735" r="20.814"/>
	<circle style="fill:#F5C86E;" cx="213.975" cy="324.124" r="24.997"/>
	<circle style="fill:#F5C86E;" cx="141.194" cy="130.227" r="28.429"/>
</g>
<path d="M66.613,371.92c-16.99,0-30.812,13.822-30.812,30.812c0,16.989,13.822,30.811,30.812,30.811s30.812-13.822,30.812-30.811
	C97.426,385.742,83.603,371.92,66.613,371.92z M66.613,413.547c-5.963,0-10.815-4.851-10.815-10.814
	c0-5.962,4.851-10.815,10.815-10.815c5.963,0,10.815,4.852,10.815,10.815C77.428,408.695,72.577,413.547,66.613,413.547z"/>
<path d="M66.613,336.119C29.883,336.119,0,366.001,0,402.732c0,29.026,18.669,53.761,44.624,62.866
	c-4.562,11.544-6.956,23.973-6.956,36.375c0,5.521,4.476,9.999,9.999,9.999s9.999-4.477,9.999-9.999
	c0-11.217,2.449-22.464,7.099-32.675c0.616,0.017,1.228,0.047,1.848,0.047c36.731,0,66.613-29.883,66.613-66.612
	C133.226,366.001,103.343,336.119,66.613,336.119z M66.613,449.347c-25.704,0-46.616-20.912-46.616-46.615
	c0-25.704,20.912-46.616,46.616-46.616s46.616,20.912,46.616,46.616C113.228,428.435,92.316,449.347,66.613,449.347z"/>
<path d="M178.979,324.12c0,19.297,15.699,34.996,34.996,34.996s34.996-15.699,34.996-34.996s-15.699-34.996-34.996-34.996
	S178.979,304.823,178.979,324.12z M228.974,324.12c0,8.27-6.728,14.998-14.998,14.998c-8.27,0-14.998-6.728-14.998-14.998
	s6.728-14.998,14.998-14.998C222.245,309.122,228.974,315.85,228.974,324.12z"/>
<path d="M255.647,283.787c1.962,2.033,4.576,3.055,7.194,3.055c2.5,0,5.003-0.932,6.944-2.806
	c3.973-3.836,4.084-10.166,0.249-14.138c-0.3-0.311-0.604-0.619-0.91-0.926c-3.905-3.904-10.236-3.904-14.141,0
	c-3.905,3.905-3.905,10.236,0,14.141C255.207,283.336,255.428,283.561,255.647,283.787z"/>
<path d="M141.192,168.657c21.189,0,38.428-17.238,38.428-38.428s-17.239-38.429-38.428-38.429c-21.19,0-38.429,17.239-38.429,38.429
	S120.002,168.657,141.192,168.657z M141.192,111.799c10.163,0,18.43,8.268,18.43,18.431c0,10.162-8.268,18.43-18.43,18.43
	s-18.431-8.268-18.431-18.43C122.761,120.067,131.029,111.799,141.192,111.799z"/>
<path d="M101.084,207.784l-0.753,1.533c-13.643,27.792-20.855,58.847-20.855,89.806c0,5.521,4.476,9.999,9.999,9.999
	c5.522,0,9.999-4.477,9.999-9.999c0-27.922,6.503-55.93,18.809-80.995l1.577-3.213c6.829,1.721,13.974,2.64,21.332,2.64
	c48.151,0,87.326-39.174,87.326-87.326s-39.174-87.326-87.326-87.326s-87.326,39.174-87.326,87.326
	C53.866,163.931,73.058,193.231,101.084,207.784z M141.192,62.901c37.125,0,67.328,30.204,67.328,67.328
	s-30.204,67.328-67.328,67.328s-67.328-30.204-67.328-67.328S104.067,62.901,141.192,62.901z"/>
<path d="M280.915,184.215c5.522,0,9.999-4.477,9.999-9.999v-4.245c0-18.195,5.645-35.6,16.328-50.332
	c3.242-4.471,2.245-10.724-2.227-13.964c-4.471-3.243-10.723-2.245-13.964,2.226c-13.172,18.169-20.135,39.632-20.135,62.071v4.245
	C270.916,179.739,275.392,184.215,280.915,184.215z"/>
<path d="M310.17,94.511c1.96,2.663,4.989,4.073,8.06,4.073c2.059,0,4.135-0.634,5.919-1.947l0.211-0.156
	c4.447-3.274,5.398-9.533,2.125-13.979c-3.274-4.448-9.533-5.398-13.979-2.126l-0.211,0.156
	C307.848,83.805,306.896,90.064,310.17,94.511z"/>
<path d="M298.671,69.335c1.426,0,2.875-0.307,4.25-0.953c4.996-2.352,7.142-8.308,4.791-13.304
	c-5.922-12.588-5.532-27.42,1.042-39.678l0.345-0.644c2.611-4.865,0.782-10.927-4.085-13.537c-4.865-2.61-10.927-0.78-13.537,4.086
	l-0.346,0.644c-9.552,17.809-10.118,39.356-1.515,57.642C291.32,67.212,294.917,69.335,298.671,69.335z"/>
<path d="M392.554,136.228l0.722-0.107c5.462-0.813,9.231-5.899,8.419-11.362c-0.812-5.461-5.898-9.217-11.361-8.419l-0.719,0.107
	c-13.758,2.036-27.85-2.609-37.692-12.439c-3.907-3.903-10.238-3.899-14.14,0.008c-3.903,3.908-3.899,10.238,0.008,14.141
	c12.078,12.064,28.56,18.758,45.439,18.758C386.332,136.915,389.449,136.688,392.554,136.228z"/>
<path d="M330.085,65.256c1.234,0,2.489-0.23,3.705-0.716c5.128-2.048,7.626-7.864,5.579-12.993
	c-2.146-5.374-2.069-11.263,0.214-16.58c2.284-5.316,6.5-9.427,11.875-11.572c5.128-2.047,7.627-7.864,5.58-12.993
	c-2.048-5.129-7.866-7.627-12.993-5.579c-10.335,4.126-18.446,12.029-22.836,22.254c-4.392,10.226-4.537,21.549-0.411,31.883
	C322.358,62.874,326.113,65.256,330.085,65.256z"/>
<path d="M361.493,76.569c-5.029-2.278-10.955-0.049-13.233,4.98c-2.28,5.029-0.049,10.955,4.98,13.233
	c5.562,2.521,11.391,3.713,17.133,3.713c15.861,0,31.048-9.103,38.01-24.466c2.28-5.029,0.049-10.955-4.98-13.233
	c-5.028-2.278-10.955-0.049-13.233,4.98C385.237,76.658,372.375,81.5,361.493,76.569z"/>
<path d="M355.809,60.895c1.972,2.135,4.656,3.217,7.35,3.217c2.425,0,4.857-0.877,6.779-2.652l15.165-13.998
	c4.058-3.746,4.312-10.071,0.565-14.129c-3.747-4.058-10.072-4.312-14.129-0.564l-15.165,13.998
	C352.316,50.512,352.063,56.837,355.809,60.895z"/>
<path d="M394.198,165.8l-0.342,0.639c-9.552,17.809-10.119,39.357-1.515,57.643c1.704,3.621,5.3,5.743,9.054,5.743
	c1.426,0,2.875-0.307,4.25-0.953c4.997-2.352,7.142-8.308,4.79-13.305c-5.921-12.586-5.531-27.419,1.046-39.682l0.345-0.644
	c2.608-4.867,0.775-10.928-4.092-13.535C402.867,159.103,396.806,160.933,394.198,165.8z"/>
<path d="M493.07,276.831l-0.732,0.108c-13.756,2.038-27.85-2.609-37.692-12.438c-3.907-3.903-10.237-3.898-14.14,0.009
	c-3.903,3.907-3.898,10.238,0.009,14.14c12.079,12.064,28.563,18.758,45.435,18.758c3.1,0,6.212-0.226,9.314-0.686l0.722-0.106
	c5.463-0.806,9.239-5.887,8.434-11.351C503.614,279.802,498.532,276.034,493.07,276.831z"/>
<path d="M432.807,225.749c1.234,0,2.489-0.23,3.705-0.716c5.128-2.047,7.626-7.864,5.579-12.993
	c-2.146-5.374-2.07-11.264,0.213-16.58c2.284-5.317,6.5-9.428,11.875-11.573c5.128-2.047,7.627-7.864,5.58-12.993
	c-2.047-5.129-7.867-7.626-12.993-5.579c-10.336,4.126-18.446,12.029-22.836,22.254c-4.391,10.226-4.537,21.55-0.412,31.884
	C425.08,223.368,428.837,225.749,432.807,225.749z"/>
<path d="M464.216,237.061c-5.028-2.282-10.955-0.049-13.234,4.98c-2.279,5.029-0.049,10.955,4.981,13.233
	c5.562,2.521,11.39,3.713,17.132,3.713c15.861,0,31.049-9.103,38.011-24.466c2.28-5.029,0.049-10.955-4.98-13.233
	c-5.029-2.277-10.956-0.05-13.234,4.98C487.961,237.149,475.097,241.989,464.216,237.061z"/>
<path d="M458.531,221.387c1.972,2.135,4.656,3.217,7.35,3.217c2.425,0,4.857-0.877,6.779-2.652l15.165-13.998
	c4.058-3.746,4.312-10.071,0.565-14.129c-3.747-4.057-10.072-4.312-14.129-0.564l-15.165,13.998
	C455.04,211.003,454.786,217.329,458.531,221.387z"/>
<path d="M373.957,317.956v16.753c0,5.521,4.476,9.999,9.999,9.999c5.522,0,9.999-4.477,9.999-9.999v-16.753
	c0-24.985,13.558-48.06,35.383-60.223c4.824-2.688,6.555-8.778,3.868-13.602c-2.689-4.822-8.779-6.555-13.601-3.867
	C391.448,255.954,373.957,285.725,373.957,317.956z"/>
<path d="M222.637,429.284c-3.521-2.9-8.555-3.05-12.243-0.367c-6.804,4.953-12.987,10.581-18.486,16.76
	c3.762-14.4,8.949-28.425,15.495-41.76l1.012-2.062c1.851,0.131,3.705,0.219,5.559,0.219c19.972,0,39.943-7.602,55.149-22.806
	c16.169-16.169,24.405-38.528,22.597-61.342c-0.436-5.505-5.253-9.619-10.758-9.178c-5.504,0.437-9.614,5.252-9.178,10.758
	c1.345,16.97-4.779,33.598-16.803,45.621c-22.611,22.612-59.403,22.612-82.015,0c-22.611-22.611-22.611-59.402,0-82.014
	c11.865-11.865,28.28-18.007,45.037-16.847c5.513,0.359,10.284-3.776,10.665-9.286c0.381-5.509-3.776-10.284-9.285-10.665
	c-22.53-1.547-44.601,6.7-60.557,22.656c-30.408,30.409-30.408,79.887,0,110.296c8.564,8.563,18.64,14.714,29.376,18.454
	c-11.106,23.342-18.426,48.54-21.654,74.222c-5.144-7.76-11.666-14.615-19.351-20.211c-3.707-2.698-8.773-2.53-12.293,0.408
	c-3.52,2.939-4.589,7.894-2.597,12.023l0.014,0.028c0.819,1.696,2.054,3.056,3.523,4.015c11.749,8.71,19.804,21.384,22.702,35.743
	c0.958,4.745,5.128,8.022,9.791,8.022c0.656,0,5.616-0.002,6.299-0.002c4.959,0,9.063-3.614,9.852-8.349
	c4.825-23.492,18.103-44.2,37.441-58.365c1.432-0.981,2.627-2.346,3.413-4.029C227.269,437.096,226.157,432.183,222.637,429.284z"/>
<path d="M480.497,349.7c-14.066,0.352-25.226,12.081-24.875,26.147c0.138,5.52,4.725,9.851,10.245,9.747
	c5.52-0.138,9.884-4.724,9.747-10.245c-0.076-3.044,2.339-5.581,5.382-5.657c0.091-0.003,0.181-0.004,0.271-0.004
	c5.795,0,10.582,4.641,10.728,10.467c0.121,4.83-1.743,9.582-5.11,13.035c-3.204,3.285-7.426,5.093-11.89,5.093h-37.958
	c-5.522,0-9.999,4.477-9.999,9.999s4.476,9.999,9.999,9.999h37.958c9.899,0,19.206-3.952,26.205-11.128
	c7.109-7.288,11.041-17.311,10.788-27.497C511.563,362.717,497.428,349.285,480.497,349.7z"/>
<path d="M410.445,422.15c-5.946-5.657-13.719-8.667-21.948-8.457c-6.814,0.17-13.154,2.984-17.853,7.922
	c-4.698,4.938-7.192,11.412-7.022,18.226c0.138,5.52,4.715,9.847,10.246,9.747c5.52-0.138,9.884-4.725,9.747-10.245
	c-0.037-1.475,0.502-2.875,1.52-3.943c1.017-1.069,2.389-1.679,3.863-1.715c2.875-0.074,5.588,0.979,7.666,2.954
	c2.077,1.977,3.261,4.643,3.332,7.509c0.121,4.83-1.742,9.582-5.11,13.035c-3.204,3.285-7.426,5.093-11.89,5.093H255.97
	c-5.522,0-9.999,4.477-9.999,9.999c0,5.521,4.476,9.999,9.999,9.999h127.022c9.9,0,19.206-3.952,26.205-11.128
	c7.108-7.288,11.041-17.311,10.787-27.497C419.781,435.443,416.392,427.807,410.445,422.15z"/>
<path d="M279.323,398.284c-5.522,0-9.999,4.477-9.999,9.999s4.476,9.999,9.999,9.999h67.356c5.522,0,9.999-4.477,9.999-9.999
	s-4.477-9.999-9.999-9.999H279.323z"/>
<g>
</g>
<g>
</g>
<g>
</g>
<g>
</g>
<g>
</g>
<g>
</g>
<g>
</g>
<g>
</g>
<g>
</g>
<g>
</g>
<g>
</g>
<g>
</g>
<g>
</g>
<g>
</g>
<g>
</g>
</svg>
