<?xml version="1.0" encoding="iso-8859-1"?>
<!-- Generator: Adobe Illustrator 19.0.0, SVG Export Plug-In . SVG Version: 6.00 Build 0)  -->
<svg version="1.1" id="Capa_1" xmlns="http://www.w3.org/2000/svg" xmlns:xlink="http://www.w3.org/1999/xlink" x="0px" y="0px"
	 viewBox="0 0 512.002 512.002" style="enable-background:new 0 0 512.002 512.002;" xml:space="preserve">
<path style="fill:#9BBEFF;" d="M66.174,502.001l7.202-9.147c54.264-68.917,90.349-150.36,104.944-236.853l0,0h22.167l10.34,13.241
	c3.124,4.001,9.281,3.657,11.94-0.667l0,0c3.163-5.142,10.849-4.423,13.003,1.216l6.891,18.037
	c2.354,6.162,11.034,6.268,13.538,0.165l6.211-15.141c1.121-2.733,3.782-4.518,6.736-4.518h3.309c2.385,0,4.62,1.169,5.98,3.128
	l8.372,12.056c2.935,4.226,9.208,4.158,12.05-0.132L317,256.001h16.987l0,0c14.391,86.541,50.408,168.045,104.708,236.95l7.132,9.05
	L66.174,502.001L66.174,502.001z"/>
<g>
	<path style="fill:#6E87F5;" d="M432.539,295.501l-68.401,68.348c18.466,46.207,43.519,89.715,74.557,129.102l7.132,9.05h56.174
		V389.847L432.539,295.501z"/>
	<path style="fill:#6E87F5;" d="M79.454,295.501l68.401,68.348c-18.466,46.207-43.519,89.715-74.557,129.102l-7.132,9.05H9.992
		V389.847L79.454,295.501z"/>
</g>
<g>
	<path style="fill:#F0F0FA;" d="M295.931,143.939c-14.945,17.289-24.318,42.223-24.318,69.965h-30.971
		c0-27.148-8.976-51.606-23.365-68.844L295.931,143.939z"/>
	<path style="fill:#F0F0FA;" d="M330.904,162.218c29.547,0,53.5-23.953,53.5-53.5s-23.953-53.5-53.5-53.5
		c-2.99,0-5.922,0.257-8.779,0.73c-10.805-26.927-37.141-45.947-67.932-45.947c-29.234,0-54.445,17.151-66.166,41.934
		c-2.27-0.294-4.58-0.462-6.93-0.462c-29.547,0-53.5,23.953-53.5,53.5s23.953,53.5,53.5,53.5"/>
</g>
<path d="M181.097,168.472c5.523,0,10-4.478,10-10s-4.477-10-10-10c-23.986,0-43.5-19.514-43.5-43.5s19.514-43.5,43.5-43.5
	c1.804,0,3.703,0.128,5.645,0.379c4.3,0.552,8.471-1.721,10.325-5.642C207.47,34.213,229.893,20,254.193,20
	c25.959,0,48.981,15.572,58.651,39.671c1.748,4.354,6.286,6.912,10.913,6.143c2.389-0.396,4.793-0.596,7.147-0.596
	c23.986,0,43.5,19.514,43.5,43.5s-19.514,43.5-43.5,43.5c-5.523,0-10,4.478-10,10s4.477,10,10,10c35.014,0,63.5-28.486,63.5-63.5
	s-28.486-63.5-63.5-63.5c-0.882,0-1.768,0.02-2.656,0.057c-14.143-27.738-42.444-45.274-74.055-45.274
	c-29.658,0-57.189,16.073-71.958,41.482c-0.381-0.007-0.761-0.011-1.138-0.011c-35.014,0-63.5,28.486-63.5,63.5
	S146.083,168.472,181.097,168.472z"/>
<path d="M66.767,216.188c8.773,8.772,20.438,13.604,32.846,13.604s24.072-4.832,32.846-13.604c3.905-3.905,3.905-10.237,0-14.143
	c-3.905-3.904-10.237-3.904-14.143,0c-10.313,10.314-27.094,10.314-37.406,0c-10.313-10.313-10.313-27.094-0.003-37.403
	c0.776-0.776,1.651-1.54,2.601-2.272c3.432-2.647,4.768-7.205,3.308-11.286c-5.171-14.455-1.509-30.8,9.33-41.641
	c3.905-3.905,3.904-10.237-0.001-14.142c-3.906-3.906-10.237-3.905-14.143,0.001c-14.648,14.65-20.57,35.991-15.952,55.929
	C48.661,169.396,48.9,198.32,66.767,216.188z"/>
<path d="M405.05,209.793c-7.065,0-13.708-2.751-18.703-7.747c-3.905-3.904-10.237-3.904-14.143,0
	c-3.905,3.905-3.905,10.237,0,14.143c9.056,9.056,20.951,13.583,32.846,13.583s23.79-4.527,32.846-13.583
	c17.867-17.867,18.106-46.789,0.718-64.957c4.618-19.938-1.304-41.278-15.952-55.929c-3.905-3.905-10.236-3.905-14.143-0.001
	c-3.905,3.904-3.906,10.236-0.001,14.142c10.839,10.841,14.501,27.186,9.33,41.641c-1.46,4.081-0.125,8.639,3.308,11.286
	c0.949,0.732,1.824,1.496,2.597,2.27c10.313,10.313,10.313,27.094,0,37.406C418.758,207.042,412.116,209.793,405.05,209.793z"/>
<path d="M210.868,137.383c-4.239,3.539-4.807,9.846-1.268,14.085c13.373,16.02,21.042,38.775,21.042,62.436c0,5.522,4.477,10,10,10
	s10-4.478,10-10c0-28.684-9.123-55.408-25.688-75.252C221.414,134.412,215.108,133.842,210.868,137.383z"/>
<path d="M194.067,115.118c-5.08-2.162-10.954,0.197-13.12,5.278c-2.166,5.08,0.198,10.955,5.278,13.12l0.279,0.121
	c1.302,0.567,2.659,0.837,3.994,0.837c3.856,0,7.53-2.244,9.171-6.005c2.208-5.062-0.105-10.956-5.167-13.164L194.067,115.118z"/>
<path d="M271.613,223.904c5.523,0,10-4.478,10-10c0-24.22,7.976-47.337,21.884-63.425c3.611-4.179,3.152-10.493-1.026-14.105
	c-4.178-3.61-10.493-3.152-14.105,1.025c-17.002,19.669-26.753,47.554-26.753,76.505
	C261.613,219.426,266.09,223.904,271.613,223.904z"/>
<path d="M266.128,128.586V70.934c0-5.522-4.477-10-10-10s-10,4.478-10,10v57.651c0,5.522,4.477,10,10,10
	C261.651,138.586,266.128,134.108,266.128,128.586z"/>
<path d="M502.001,492.001h-51.322l-4.129-5.239c-28.995-36.794-52.731-77.46-70.612-120.572l55.443-55.395l62.567,84.981
	c1.96,2.663,4.99,4.072,8.061,4.072c2.059,0,4.136-0.634,5.921-1.948c4.448-3.274,5.398-9.534,2.124-13.981l-69.461-94.347
	c-1.728-2.347-4.392-3.822-7.297-4.043c-2.909-0.216-5.763,0.839-7.823,2.897l-57.472,57.424
	c-10.835-29.625-18.954-60.264-24.147-91.49c-0.802-4.823-4.975-8.359-9.865-8.359h-16.987c-3.354,0-6.484,1.682-8.336,4.478
	l-15.929,24.044l-6.087-8.766c-3.229-4.648-8.535-7.423-14.193-7.423h-3.309c-7.04,0-13.315,4.208-15.988,10.723l-3.605,8.789
	l-4.441-11.624c-2.365-6.191-7.934-10.421-14.533-11.038c-5.317-0.487-10.415,1.436-14.011,5.16l-8.198-10.497
	c-1.895-2.428-4.802-3.846-7.881-3.846h-22.167c-4.881,0-9.048,3.523-9.861,8.336c-14.274,84.592-49.871,164.93-102.94,232.33
	l-4.2,5.334H10.001c-5.523,0-10,4.478-10,10s4.477,10,10,10h492c5.523,0,10-4.478,10-10S507.524,492.001,502.001,492.001z
	 M186.706,266.001h8.903l7.336,9.395c3.482,4.46,8.925,6.924,14.583,6.619c3.953-0.221,7.657-1.788,10.541-4.359l5.25,13.741
	c2.546,6.663,8.799,11.025,15.932,11.112c7.105,0.047,13.492-4.12,16.2-10.721l5.519-13.454h0.063l7.561,10.889
	c3.235,4.658,8.529,7.424,14.193,7.424c0.063,0,0.127,0,0.19-0.001c5.735-0.063,11.05-2.954,14.218-7.736l15.177-22.908h3.211
	c14.987,81.925,49.322,159.713,99.739,226H86.673C137.093,425.697,171.531,347.906,186.706,266.001z"/>
<path d="M4.072,397.9c1.785,1.314,3.862,1.948,5.921,1.948c3.07,0,6.101-1.41,8.061-4.072l62.569-84.985l27.654,27.611
	c3.908,3.902,10.24,3.897,14.142-0.011s3.897-10.239-0.011-14.142l-35.88-35.825c-2.062-2.058-4.916-3.112-7.822-2.896
	c-2.905,0.221-5.569,1.697-7.296,4.043L1.948,383.919C-1.327,388.366-0.376,394.626,4.072,397.9z"/>
<path d="M194.478,353.782c-5.186-1.907-10.931,0.751-12.836,5.936c-13.057,35.516-29.795,69.79-49.75,101.87
	c-2.917,4.69-1.48,10.856,3.209,13.773c1.644,1.022,3.469,1.51,5.272,1.51c3.34,0,6.606-1.674,8.5-4.719
	c20.673-33.235,38.014-68.742,51.54-105.534C202.318,361.434,199.661,355.687,194.478,353.782z"/>
<path d="M206.218,315.358c-5.323-1.479-10.841,1.664-12.319,6.985c-1.475,5.312,1.629,10.801,6.936,12.291
	c0.901,0.253,1.808,0.374,2.701,0.374c4.363,0,8.376-2.884,9.626-7.285c0.005-0.018,0.018-0.063,0.022-0.08
	C214.662,322.322,211.539,316.837,206.218,315.358z"/>
<g>
</g>
<g>
</g>
<g>
</g>
<g>
</g>
<g>
</g>
<g>
</g>
<g>
</g>
<g>
</g>
<g>
</g>
<g>
</g>
<g>
</g>
<g>
</g>
<g>
</g>
<g>
</g>
<g>
</g>
</svg>
