<?xml version="1.0" encoding="iso-8859-1"?>
<!-- Generator: Adobe Illustrator 19.0.0, SVG Export Plug-In . SVG Version: 6.00 Build 0)  -->
<svg version="1.1" id="Capa_1" xmlns="http://www.w3.org/2000/svg" xmlns:xlink="http://www.w3.org/1999/xlink" x="0px" y="0px"
	 viewBox="0 0 512 512" style="enable-background:new 0 0 512 512;" xml:space="preserve">
<g>
	<rect x="38" y="10" style="fill:#C88C64;" width="64" height="277.99"/>
	<rect x="163.7" y="10" style="fill:#C88C64;" width="42.799" height="277.99"/>
</g>
<g>
	<path style="fill:#FFB773;" d="M115.048,369.408l14.732,53.165L149.487,502h28.641l-6.845-26.588
		c-8.906-34.594-11.197-70.559-6.753-106.003l0,0h-49.482V369.408z"/>
	<path style="fill:#FFB773;" d="M223.62,369.408L223.62,369.408c11.286,39.396,18.492,79.847,21.505,120.716L246,502h21.061V369.408
		H223.62z"/>
</g>
<polygon style="fill:#32C8AF;" points="502,154.293 439.832,10.604 278.655,439.832 502,439.832 "/>
<path style="fill:#FFCD8C;" d="M115.048,369.408l-22.499,56.447l9.848,58.85L110.682,502H70.851l-9.848-77.105l9.848-60.291
	l-9.136-24.363c-4.694-12.516-5.168-26.032-1.668-38.603l-1.669,0.538C41.064,307.76,22.086,302.587,10,288.99
	c9.923,1.908,20.053-2.15,25.912-10.397c5.989-8.429,15.916-13.168,26.256-13.168h25.005c9.73-6.047,21.089-9.393,32.899-9.393
	h103.256h6.326c9.838,0,19.445-2.978,27.559-8.541l0,0c13.252-9.087,21.172-24.122,21.172-40.19v-8.917l0,0
	c-8.785-13.805-13.451-29.829-13.451-46.193v-15.299l30.746,22.099h38.804c12.476,0,24.011,6.636,30.283,17.421l23.87,41.046
	c6.686,11.496,2.234,26.25-9.694,32.13l-14.134,6.968l-11.376-11.685c-6.21-6.379-14.735-9.977-23.637-9.977h-1.449l0,0l0,0
	c0,19.157,2.125,38.255,6.337,56.943l1.703,7.555c4.534,20.12-2.075,41.125-17.313,55.024l0,0
	c-3.534,3.224-7.434,5.955-11.587,8.179l-5.823,58.787L328.488,502h-33.019l-28.408-74.799l-5.895-57.793H115.048z"/>
<path d="M369.279,330.58c-1.859,1.859-2.93,4.439-2.93,7.069c0,2.631,1.07,5.21,2.93,7.07c1.86,1.86,4.44,2.93,7.08,2.93
	c2.631,0,5.21-1.069,7.07-2.93s2.92-4.43,2.92-7.07c0-2.63-1.06-5.21-2.92-7.069c-1.86-1.86-4.439-2.931-7.07-2.931
	C373.729,327.649,371.149,328.72,369.279,330.58z"/>
<path d="M395.237,129.362c1.158,0.435,2.346,0.641,3.514,0.641c4.048,0,7.857-2.476,9.363-6.488l32.374-86.212l35.975,83.148
	c2.193,5.069,8.081,7.398,13.148,5.207c5.069-2.193,7.4-8.08,5.207-13.148L449.01,6.633c-1.619-3.742-5.32-6.117-9.424-6.026
	c-4.075,0.1-7.683,2.665-9.115,6.482l-41.079,109.396C387.449,121.655,390.067,127.42,395.237,129.362z"/>
<path d="M492,154.29c0,2.63,1.069,5.21,2.93,7.07s4.44,2.93,7.07,2.93s5.21-1.07,7.069-2.93c1.86-1.86,2.931-4.44,2.931-7.07
	s-1.07-5.21-2.931-7.07c-1.859-1.86-4.439-2.93-7.069-2.93s-5.21,1.07-7.07,2.93S492,151.66,492,154.29z"/>
<path d="M502,429.832h-52.168v-26.305l58.805-58.805c3.905-3.905,3.905-10.237,0-14.143c-3.906-3.904-10.236-3.904-14.143,0
	l-44.662,44.662v-67.408l27.794-27.794c3.905-3.905,3.905-10.237,0-14.143c-3.906-3.904-10.236-3.904-14.143,0l-13.651,13.651
	v-65.891l18.677-18.676c3.905-3.905,3.905-10.237,0-14.142s-10.235-3.905-14.143,0l-4.534,4.534v-40.266c0-5.523-4.478-10-10-10
	s-10,4.477-10,10v39.841l-4.109-4.109c-3.906-3.905-10.236-3.905-14.143,0c-3.905,3.905-3.905,10.237,0,14.142l18.252,18.251v66.316
	l-13.652-13.652c-3.906-3.904-10.236-3.904-14.143,0c-3.905,3.905-3.905,10.237,0,14.143l27.795,27.795v69.15l-19.575-19.575
	c-3.906-3.904-10.236-3.904-14.143,0c-3.905,3.905-3.905,10.237,0,14.143l33.718,33.718v24.562H315.014l-3.188-9.583l5.113-51.621
	c3.155-2.031,6.126-4.314,8.875-6.822c17.851-16.282,25.641-41.04,20.329-64.61l-1.703-7.555c-3.18-14.108-5.126-28.515-5.813-42.97
	c2.851,1.187,5.464,2.94,7.642,5.177l11.376,11.685c3.022,3.104,7.7,3.908,11.587,1.994l14.134-6.968
	c8.162-4.024,14.351-11.329,16.979-20.041s1.512-18.22-3.063-26.087l-23.87-41.046c-1.841-3.165-4.058-6.04-6.551-8.616
	c3.781-2.136,7.303-4.786,10.459-7.937c3.909-3.902,3.915-10.233,0.013-14.142c-3.901-3.908-10.234-3.914-14.142-0.012
	c-5.371,5.361-12.508,8.313-20.096,8.313h-16.277v-28.51h27.792c19.111,0,34.66-15.549,34.66-34.661V73.97c0-5.523-4.478-10-10-10
	s-10,4.477-10,10v11.85c0,8.084-6.576,14.661-14.66,14.661h-2.787c1.225-3.306,1.897-6.879,1.897-10.606v-9.179
	c0-5.523-4.478-10-10-10s-10,4.477-10,10v9.179c0,5.848-4.758,10.606-10.605,10.606h-6.297c-5.522,0-10,4.477-10,10v38.511h-7.917
	l-4.313-3.1c0.02-0.259,0.04-0.519,0.04-0.783V110.48c0-5.523-4.478-10-10-10h-6.297c-5.848,0-10.605-4.758-10.605-10.606v-9.179
	c0-5.523-4.478-10-10-10s-10,4.477-10,10v9.179c0,3.727,0.672,7.3,1.897,10.606h-2.787c-8.084,0-14.66-6.577-14.66-14.661V73.97
	c0-5.523-4.478-10-10-10s-10,4.477-10,10v11.85c0,19.112,15.549,34.661,34.66,34.661h27.792v11.064l-3.857-2.772
	c-3.045-2.189-7.062-2.49-10.398-0.778c-3.338,1.711-5.438,5.147-5.438,8.898v15.299c0,17.297,4.646,34.172,13.451,49.006v6.104
	c0,12.776-6.291,24.717-16.827,31.942c-6.477,4.441-14.052,6.789-21.904,6.789H216.5v-43.028c0-0.003,0-0.007,0-0.01v-57.887
	c0-5.523-4.478-10-10-10s-10,4.477-10,10v37.131c-2.818-0.225-5.713,0.735-7.87,2.891c-3.905,3.905-3.905,10.237,0,14.143l7.87,7.87
	v38.891h-23V128.002c0-0.002,0-0.003,0-0.005V79.31l11.031-11.032c3.905-3.905,3.905-10.237,0-14.142
	c-2.984-2.983-7.379-3.679-11.031-2.105V10c0-5.523-4.478-10-10-10s-10,4.477-10,10v65.163c0,0.003,0,0.007,0,0.01v37.382
	c-1.188,0.488-2.303,1.213-3.268,2.178c-3.905,3.905-3.905,10.237,0.001,14.142l3.267,3.266v113.891h-33.428
	c-2.707,0-5.401,0.161-8.072,0.46v-66.351l11.668-11.668c3.905-3.905,3.905-10.237,0-14.143c-3.159-3.158-7.902-3.76-11.668-1.81
	V85.168h4.597c5.522,0,10-4.477,10-10s-4.478-10-10-10H112V10c0-5.523-4.478-10-10-10S92,4.477,92,10v92.235
	c-3.568-1.355-7.752-0.604-10.627,2.269c-3.905,3.905-3.905,10.237,0,14.143L92,129.273v46.721c0,0.003,0,0.007,0,0.01v75.709
	c-2.584,1.089-5.113,2.323-7.567,3.713H62.168c-13.813,0-26.677,6.495-34.408,17.376c-3.577,5.035-9.812,7.534-15.871,6.368
	c-4.208-0.807-8.463,1.153-10.581,4.877c-2.118,3.725-1.628,8.385,1.218,11.587c11.593,13.043,28.401,19.72,45.329,18.645
	c-0.579,9.966,0.927,19.952,4.497,29.475l8.201,21.868l-9.419,57.661c-0.155,0.952-0.173,1.922-0.05,2.879l9.849,77.104
	C61.57,508.26,65.818,512,70.852,512h39.831c3.436,0,6.631-1.764,8.462-4.671s2.041-6.551,0.557-9.649l-7.674-16.02l-9.153-54.698
	l10.468-26.265l6.766,24.416l19.672,79.295c1.106,4.46,5.11,7.592,9.706,7.592h28.642c3.092,0,6.01-1.43,7.903-3.873
	c1.895-2.443,2.552-5.626,1.781-8.62l-6.845-26.589c-7.896-30.668-10.385-62.083-7.455-93.51h42.52
	c9.92,36.392,16.348,73.847,19.12,111.451l0.875,11.875c0.385,5.224,4.735,9.266,9.973,9.266h21.061c5.522,0,10-4.478,10-10v-20.303
	l9.06,23.854c1.475,3.882,5.195,6.449,9.349,6.449h33.02c3.214,0,6.231-1.544,8.11-4.15c1.88-2.606,2.393-5.958,1.378-9.007
	l-16.308-49.011h108.163V502c0,5.522,4.478,10,10,10s10-4.478,10-10v-52.168H502c5.522,0,10-4.478,10-10
	S507.522,429.832,502,429.832z M161.599,477.904L165.227,492h-7.919l-17.821-71.835c-0.022-0.088-0.045-0.175-0.069-0.263
	l-11.221-40.494h25.237C150.556,412.515,153.281,445.595,161.599,477.904z M255.29,492l-0.192-2.61
	c-2.733-37.074-8.913-74.007-18.372-109.981h15.408l4.927,48.3V492H255.29z M302.368,492l-25.492-67.121l-5.762-56.485
	c-0.521-5.104-4.818-8.985-9.948-8.985h-37.309c-0.01,0-0.021,0-0.031,0H115.049c-4.215,0-7.813,2.612-9.285,6.302
	c-0.001-0.001-0.002-0.003-0.004-0.004l-22.499,56.447c-0.677,1.698-0.876,3.55-0.574,5.353l9.848,58.85
	c0.155,0.925,0.439,1.824,0.845,2.67L94.804,492H79.655l-8.549-66.929l9.614-58.854c0.281-1.723,0.107-3.489-0.506-5.124
	l-9.137-24.361c-3.912-10.435-4.396-21.642-1.397-32.411c0.986-3.544-0.053-7.345-2.707-9.894c-2.653-2.55-6.491-3.434-9.995-2.306
	l-1.67,0.538c-6.688,2.157-13.697,2.26-20.217,0.53c3.434-2.345,6.485-5.303,8.972-8.803c3.987-5.61,10.755-8.96,18.104-8.96h25.005
	c1.865,0,3.693-0.521,5.278-1.507c8.303-5.159,17.854-7.887,27.621-7.887h109.582c11.908,0,23.394-3.56,33.215-10.294
	c15.978-10.957,25.517-29.064,25.517-48.437v-8.917c-0.003,0-0.005,0-0.005,0c-0.001-1.84-0.497-3.702-1.558-5.37
	c-7.007-11.01-11.038-23.561-11.768-36.534l14.79,10.63c1.7,1.222,3.741,1.88,5.836,1.88h38.804c8.882,0,17.173,4.77,21.639,12.448
	l23.87,41.046c1.825,3.138,2.253,6.78,1.204,10.255c-1.049,3.475-3.419,6.273-6.676,7.878l-7.616,3.754l-6.307-6.478
	c-8.044-8.262-19.271-13.001-30.805-13.001h-1.449c-5.521,0.002-9.997,4.479-9.997,10c0,19.866,2.215,39.765,6.581,59.142
	l1.702,7.555c3.736,16.576-1.742,33.987-14.296,45.438c-2.864,2.612-6.084,4.885-9.57,6.752c-2.938,1.574-4.9,4.511-5.229,7.829
	l-5.823,58.787c-0.139,1.397,0.02,2.81,0.463,4.143L314.622,492H302.368z"/>
<path d="M28,207.143V235c0,5.523,4.478,10,10,10s10-4.477,10-10v-31.995c0-0.003,0-0.007,0-0.01v-17.119
	c1.64-0.439,3.191-1.293,4.478-2.579l7.523-7.524c3.905-3.906,3.905-10.237-0.001-14.142c-3.252-3.253-8.185-3.786-12-1.62v-59.005
	c0-0.003,0-0.007,0-0.01V10c0-5.523-4.478-10-10-10S28,4.477,28,10v67.834c-3.662-1.605-8.086-0.918-11.086,2.08
	c-3.905,3.905-3.905,10.237,0,14.142L28,105.142v73.715l-2.429-2.429c-3.906-3.904-10.236-3.904-14.143,0
	c-3.905,3.905-3.905,10.237,0,14.143L28,207.143z"/>
<path d="M63.875,35.625c2.56,0,5.118-0.976,7.071-2.929l7.524-7.524c3.905-3.905,3.905-10.237,0-14.143
	c-3.906-3.905-10.236-3.905-14.143,0l-7.524,7.524c-3.905,3.905-3.905,10.237,0,14.143C58.757,34.649,61.315,35.625,63.875,35.625z"
	/>
<path d="M333.42,203.25c2.63,0,5.21-1.07,7.07-2.93c1.859-1.86,2.93-4.44,2.93-7.07s-1.07-5.21-2.93-7.07s-4.44-2.93-7.07-2.93
	s-5.21,1.07-7.07,2.93c-1.859,1.86-2.93,4.44-2.93,7.07s1.07,5.21,2.93,7.07C328.21,202.18,330.779,203.25,333.42,203.25z"/>
<g>
</g>
<g>
</g>
<g>
</g>
<g>
</g>
<g>
</g>
<g>
</g>
<g>
</g>
<g>
</g>
<g>
</g>
<g>
</g>
<g>
</g>
<g>
</g>
<g>
</g>
<g>
</g>
<g>
</g>
</svg>
