<?xml version="1.0" encoding="iso-8859-1"?>
<!-- Generator: Adobe Illustrator 19.0.0, SVG Export Plug-In . SVG Version: 6.00 Build 0)  -->
<svg version="1.1" id="Capa_1" xmlns="http://www.w3.org/2000/svg" xmlns:xlink="http://www.w3.org/1999/xlink" x="0px" y="0px"
	 viewBox="0 0 512 512" style="enable-background:new 0 0 512 512;" xml:space="preserve">
<path style="fill:#A5DC69;" d="M166.372,440.568l41.954,20.121c73.21,35.113,160.908,16.134,213.051-46.106l0,0
	c33.631-40.144,47.841-93.079,38.834-144.668L414.837,10.003l-247.777,90.66C117.878,118.659,79.14,157.432,61.19,206.629l0,0
	c-27.831,76.277-0.417,161.714,66.596,207.56l38.403,26.273L166.372,440.568z"/>
<path d="M470.062,268.195L424.688,8.283c-0.003,0.001-0.005,0.001-0.008,0.002c-0.101-0.576-0.245-1.15-0.452-1.718
	c-1.898-5.187-7.642-7.854-12.827-5.955l-247.778,90.66c-52.065,19.05-92.825,59.847-111.827,111.929
	c-29.418,80.627-0.491,170.782,70.345,219.242l30.756,21.04l-12.644,21.978c-10.968,19.065-32.913,29.444-54.611,25.828
	c-8.266-1.378-16.188-4.751-22.91-9.755l-7.578-5.641c-4.431-3.297-10.696-2.38-13.993,2.05c-3.298,4.43-2.38,10.695,2.05,13.993
	l7.578,5.641c9.26,6.894,20.175,11.541,31.564,13.44c3.964,0.661,7.93,0.982,11.87,0.982c25.77,0,50.26-13.781,63.366-36.565
	l12.62-21.938L204,469.706c25.431,12.196,53.135,18.466,81.126,18.466c6.612,0,13.245-0.35,19.863-1.055
	c34.178-3.639,66.654-16.545,93.918-37.323c4.393-3.348,5.24-9.623,1.892-14.015c-3.348-4.392-9.622-5.24-14.015-1.892
	c-50.323,38.35-117.048,45.166-174.134,17.785l-32.442-15.559l40.429-70.277l108.546-29.085c5.334-1.429,8.5-6.913,7.071-12.248
	c-1.429-5.334-6.912-8.5-12.248-7.071l-89.287,23.924l61.742-107.326l72.978-19.554c5.334-1.429,8.5-6.913,7.071-12.248
	c-1.43-5.334-6.912-8.503-12.248-7.071l-53.718,14.393L376.1,95.595c2.754-4.787,1.106-10.9-3.682-13.654
	c-4.786-2.754-10.9-1.106-13.654,3.682l-65.265,113.451l-14.192-52.969c-1.43-5.334-6.912-8.501-12.247-7.071
	c-5.335,1.429-8.501,6.913-7.071,12.247l19.385,72.348l-61.934,107.66l-14.872-55.506c-1.429-5.334-6.911-8.503-12.248-7.071
	c-5.334,1.429-8.5,6.913-7.071,12.248l20.065,74.885L162.9,426.093l-29.467-20.158C70.146,362.639,44.303,282.09,70.585,210.056
	c16.978-46.532,53.394-82.982,99.911-100.002l236.547-86.551l43.318,248.13c6.236,35.723,0.551,73.164-16.01,105.423
	c-2.522,4.914-0.583,10.941,4.33,13.463c1.462,0.75,3.021,1.105,4.559,1.105c3.63,0,7.133-1.983,8.905-5.435
	C470.679,350.084,477.042,308.179,470.062,268.195z"/>
<path d="M427.853,406.964c-4.208-3.576-10.519-3.064-14.096,1.143c-0.003,0.003-0.006,0.007-0.01,0.011
	c-3.52,4.118-3.122,10.315,0.937,13.947c1.909,1.708,4.291,2.547,6.665,2.547c2.746,0,5.481-1.125,7.456-3.332
	c0.079-0.089,0.115-0.129,0.191-0.22C432.573,416.852,432.061,410.541,427.853,406.964z"/>
<path d="M174.578,229.278c-1.87,1.86-2.93,4.44-2.93,7.07c0,2.64,1.06,5.21,2.93,7.07c1.86,1.87,4.43,2.93,7.07,2.93
	c2.63,0,5.21-1.06,7.07-2.93c1.86-1.86,2.93-4.43,2.93-7.07c0-2.63-1.07-5.21-2.93-7.07c-1.86-1.86-4.44-2.93-7.07-2.93
	C179.019,226.348,176.439,227.418,174.578,229.278z"/>
<g>
</g>
<g>
</g>
<g>
</g>
<g>
</g>
<g>
</g>
<g>
</g>
<g>
</g>
<g>
</g>
<g>
</g>
<g>
</g>
<g>
</g>
<g>
</g>
<g>
</g>
<g>
</g>
<g>
</g>
</svg>
