<?xml version="1.0" encoding="iso-8859-1"?>
<!-- Generator: Adobe Illustrator 19.0.0, SVG Export Plug-In . SVG Version: 6.00 Build 0)  -->
<svg version="1.1" id="Capa_1" xmlns="http://www.w3.org/2000/svg" xmlns:xlink="http://www.w3.org/1999/xlink" x="0px" y="0px"
	 viewBox="0 0 512 512" style="enable-background:new 0 0 512 512;" xml:space="preserve">
<rect x="9.997" y="327.978" style="fill:#FFE6C3;" width="491.999" height="173.957"/>
<polygon style="fill:#6E87F5;" points="305.051,270.621 195.83,161.399 169.92,187.309 45.658,64.046 9.999,159.01 9.999,327.981 
	249.94,327.981 "/>
<polygon style="fill:#9BBEFF;" points="255.939,322.982 351.928,226.993 384.801,259.866 501.878,142.79 501.878,322.982 "/>
<path style="fill:#73E6E1;" d="M283.92,501.938l14.034-16.84c17.454-20.944,15.793-51.807-3.807-70.758l0,0
	c-15.239-14.734-20.024-37.238-12.097-56.898l11.88-29.462l-37.991-0.012l-45.251,34.252c-17.237,13.047-24.434,35.506-17.99,56.141
	l0,0c5.682,18.192,0.799,38.034-12.676,51.512l-32.056,32.064L283.92,501.938L283.92,501.938z"/>
<g>
	<path style="fill:#AAE6FF;" d="M109.475,125.031h110.378c0-25.775-20.84-46.742-46.459-46.742c-1.6,0-3.195,0.089-4.783,0.249
		c-8.056-21.18-28.349-35.486-51.355-35.486c-23.007,0-43.298,14.306-51.354,35.486L109.475,125.031z"/>
	<path style="fill:#AAE6FF;" d="M337.261,114.034c-16.073,0-29.103-13.03-29.103-29.103s13.03-29.103,29.103-29.103
		c7.601,0,14.518,2.916,19.702,7.688c-0.014-0.49-0.037-0.977-0.037-1.469c0-28.712,23.275-51.987,51.987-51.987
		c22.493,0,41.648,14.287,48.89,34.282c2.814-0.72,5.763-1.104,8.801-1.104c19.55,0,35.398,15.848,35.398,35.398
		s-15.848,35.398-35.398,35.398L337.261,114.034L337.261,114.034z"/>
</g>
<path style="fill:#F5B955;" d="M377.905,20.319c-6.467-6.343-15.323-10.259-25.097-10.259c-19.799,0-35.849,16.05-35.849,35.849
	c0,5.48,1.234,10.669,3.432,15.314c4.76-3.393,10.579-5.396,16.871-5.396c7.601,0,14.518,2.916,19.702,7.688
	c-0.014-0.49-0.037-0.977-0.037-1.469C356.926,44.957,365.174,29.795,377.905,20.319z"/>
<path d="M494.809,135.719l-37.61,37.61c-3.904,3.904-3.904,10.234,0,14.14c1.953,1.953,4.511,2.928,7.069,2.928
	c2.558,0,5.117-0.976,7.069-2.928l37.61-37.61c3.904-3.904,3.904-10.234,0-14.14C505.043,131.815,498.714,131.815,494.809,135.719z"
	/>
<path d="M430.456,200.073c-1.859,1.86-2.929,4.439-2.929,7.068c0,2.629,1.07,5.209,2.929,7.068s4.439,2.929,7.068,2.929
	s5.209-1.07,7.068-2.929c1.859-1.86,2.929-4.439,2.929-7.068c0-2.629-1.07-5.209-2.929-7.068s-4.439-2.929-7.068-2.929
	S432.315,198.213,430.456,200.073z"/>
<path d="M337.26,124.031h129.344c25.032,0,45.396-20.365,45.396-45.396S491.636,33.24,466.604,33.24
	c-0.921,0-1.841,0.028-2.757,0.083C453.267,13.14,432.118,0.062,408.913,0.062c-11.01,0-21.357,2.888-30.328,7.943
	c-7.55-5.157-16.46-7.943-25.779-7.943c-25.28,0-45.846,20.567-45.846,45.847c0,4.244,0.571,8.391,1.699,12.398
	c-6.508,6.986-10.5,16.345-10.5,26.623C298.159,106.491,315.7,124.031,337.26,124.031z M448.402,47.746
	c1.754,4.839,6.89,7.558,11.878,6.28c2.055-0.526,4.183-0.792,6.323-0.792c14.007,0,25.401,11.394,25.401,25.401
	s-11.394,25.401-25.401,25.401H337.26c-10.534,0-19.105-8.571-19.105-19.105s8.571-19.106,19.105-19.106
	c4.804,0,9.397,1.793,12.933,5.047c2.958,2.722,7.261,3.408,10.914,1.743c3.658-1.667,5.963-5.36,5.851-9.378l-0.016-0.49
	c-0.008-0.232-0.018-0.465-0.018-0.7c0-23.153,18.836-41.99,41.99-41.99C426.534,20.057,442.404,31.184,448.402,47.746z
	 M352.807,20.057c3.153,0,6.223,0.571,9.097,1.652c-6.294,7.325-10.92,16.124-13.256,25.81c-3.655-1.112-7.488-1.689-11.388-1.689
	c-3.554,0-6.994,0.486-10.268,1.378c-0.021-0.431-0.035-0.864-0.035-1.299C326.955,31.654,338.552,20.057,352.807,20.057z"/>
<path d="M291.322,361.182l9.356-23.203h201.2c5.521,0,9.998-4.477,9.998-9.998c0-5.521-4.477-9.998-9.998-9.998H275.077
	l76.851-76.852l25.805,25.805c3.905,3.903,10.233,3.903,14.14,0l24.981-24.981c3.904-3.904,3.904-10.234,0-14.14
	c-3.905-3.904-10.233-3.904-14.14,0l-17.912,17.913l-25.805-25.805c-3.905-3.904-10.233-3.903-14.14,0l-38.183,38.184
	L202.899,154.33c-3.905-3.904-10.233-3.904-14.14,0l-18.868,18.869l-38.479-38.17h88.44c5.521,0,9.998-4.476,9.998-9.998
	c0-30.755-24.473-55.874-54.876-56.718c-11.04-21.352-33.399-35.259-57.718-35.259c-23.174,0-44.562,12.637-56.078,32.305
	L52.7,56.95c-2.408-2.388-5.861-3.393-9.176-2.669c-3.312,0.724-6.033,3.078-7.225,6.252L0.641,155.496
	c-1.941,5.169,0.676,10.933,5.845,12.874c5.171,1.942,10.934-0.677,12.874-5.846l30.228-80.499l113.291,112.382
	c3.908,3.876,10.216,3.864,14.111-0.028l18.84-18.84l96.707,96.708l-43.667,43.667c-0.632,0.632-1.151,1.333-1.579,2.07h-46.914
	l-53.738-53.738c-3.905-3.903-10.233-3.903-14.14,0l-12.337,12.337l-62.045-62.045c-3.904-3.904-10.232-3.904-14.14,0
	c-3.904,3.904-3.904,10.234,0,14.139l69.114,69.115c1.876,1.875,4.418,2.928,7.069,2.928c2.651,0,5.194-1.054,7.069-2.928
	l12.337-12.337l32.529,32.529H9.999c-5.521,0-9.998,4.477-9.998,9.998c0,5.521,4.477,9.998,9.998,9.998h216.15l-21.496,16.27
	c-20.537,15.545-29.177,42.509-21.499,67.092c4.588,14.691,0.678,30.579-10.203,41.464l-32.056,32.064
	c-3.903,3.905-3.902,10.234,0.002,14.14c1.953,1.952,4.511,2.927,7.068,2.927c2.559,0,5.118-0.977,7.07-2.929l32.056-32.064
	c16.155-16.16,21.96-39.748,15.148-61.561c-5.172-16.559,0.647-34.719,14.479-45.189l42.56-32.214h19.837l-6.34,15.725
	c-9.497,23.551-3.836,50.174,14.419,67.825c15.751,15.227,17.101,40.34,3.075,57.171l-14.033,16.84
	c-3.534,4.241-2.961,10.545,1.281,14.081c1.869,1.558,4.138,2.316,6.394,2.316c2.863,0,5.709-1.226,7.686-3.598l14.032-16.839
	c20.693-24.831,18.699-61.881-4.537-84.346C288.722,395.19,284.885,377.144,291.322,361.182z M117.256,53.049
	c18.52,0,35.404,11.671,42.011,29.043c1.606,4.226,5.855,6.843,10.348,6.393c1.306-0.132,2.577-0.199,3.779-0.199
	c16.668,0,30.758,11.329,35.089,26.747h-97.228L76.057,80.118C83.158,63.844,99.447,53.049,117.256,53.049z"/>
<path d="M502.002,437.954H356.914c-5.521,0-9.998,4.477-9.998,9.998c0,5.521,4.477,9.998,9.998,9.998h145.088
	c5.521,0,9.998-4.477,9.998-9.998C512,442.431,507.524,437.954,502.002,437.954z"/>
<path d="M434.895,407.961c0-5.521-4.477-9.998-9.998-9.998h-79.383c-5.521,0-9.998,4.477-9.998,9.998
	c0,5.521,4.477,9.998,9.998,9.998h79.383C430.419,417.959,434.895,413.483,434.895,407.961z"/>
<path d="M462.888,417.959h38.99c5.521,0,9.998-4.477,9.998-9.998c0-5.521-4.477-9.998-9.998-9.998h-38.99
	c-5.521,0-9.998,4.477-9.998,9.998C452.89,413.482,457.367,417.959,462.888,417.959z"/>
<path d="M475.385,367.971c0-5.521-4.477-9.998-9.998-9.998H359.746c-5.521,0-9.998,4.477-9.998,9.998
	c0,5.521,4.477,9.998,9.998,9.998h105.641C470.909,377.969,475.385,373.493,475.385,367.971z"/>
<path d="M143.966,447.952c0-5.521-4.477-9.998-9.998-9.998H47.99c-5.521,0-9.998,4.477-9.998,9.998c0,5.521,4.477,9.998,9.998,9.998
	h85.979C139.49,457.949,143.966,453.473,143.966,447.952z"/>
<path d="M9.999,437.954c-2.629,0-5.209,1.069-7.068,2.929s-2.929,4.439-2.929,7.068c0,2.629,1.069,5.209,2.929,7.067
	c1.86,1.86,4.439,2.93,7.068,2.93c2.639,0,5.209-1.07,7.067-2.93c1.86-1.859,2.93-4.438,2.93-7.067c0-2.629-1.07-5.209-2.93-7.068
	C15.208,439.024,12.629,437.954,9.999,437.954z"/>
<path d="M53.988,407.961c0,5.521,4.477,9.998,9.998,9.998h87.978c5.521,0,9.998-4.477,9.998-9.998c0-5.521-4.477-9.998-9.998-9.998
	H63.986C58.465,397.964,53.988,402.441,53.988,407.961z"/>
<path d="M97.563,357.974H10.084c-5.521,0-9.998,4.477-9.998,9.998c0,5.521,4.477,9.998,9.998,9.998h87.478
	c5.521,0,9.998-4.477,9.998-9.998C107.56,362.451,103.084,357.974,97.563,357.974z"/>
<g>
</g>
<g>
</g>
<g>
</g>
<g>
</g>
<g>
</g>
<g>
</g>
<g>
</g>
<g>
</g>
<g>
</g>
<g>
</g>
<g>
</g>
<g>
</g>
<g>
</g>
<g>
</g>
<g>
</g>
</svg>
