<?xml version="1.0" encoding="iso-8859-1"?>
<!-- Generator: Adobe Illustrator 19.0.0, SVG Export Plug-In . SVG Version: 6.00 Build 0)  -->
<svg version="1.1" id="Capa_1" xmlns="http://www.w3.org/2000/svg" xmlns:xlink="http://www.w3.org/1999/xlink" x="0px" y="0px"
	 viewBox="0 0 511.999 511.999" style="enable-background:new 0 0 511.999 511.999;" xml:space="preserve">
<rect x="10" y="315.04" style="fill:#FF5A5A;" width="67.81" height="160"/>
<path style="fill:#FFCDAC;" d="M315,366.542l82.135-63.018c15.671-12.024,36.631-14.6,54.748-6.73l6.459,2.806l-113.387,95.703
	L304,400.816L315,366.542z"/>
<path style="fill:#F5C86E;" d="M417.376,385.336c0-75.626-61.307-136.933-136.934-136.933S143.509,309.71,143.509,385.336
	l146.397,15.481L417.376,385.336z"/>
<path style="fill:#FFCDAC;" d="M80.248,334.042l71.799-19.232c25.189-6.747,51.937-4.559,75.694,6.191l70.754,32.016
	c13.716,6.206,18.88,23.035,11.007,35.866l0,0c-5.806,9.463-17.154,13.966-27.869,11.058l-88.884-24.122l97.158,24.998h25.18
	c19.36,0,38.122-6.713,53.087-18.995l94.359-77.441c5.804-4.763,13.493-6.555,20.804-4.847l0,0
	c19.183,4.481,25.212,28.813,10.339,41.731L374.995,444.348c-22.79,19.795-51.962,30.695-82.149,30.695H77.81L80.248,334.042z"/>
<path style="fill:#46C373;" d="M114.725,41.211c-0.053,0.651-22.138,66.598,35.538,124.183s124.376,35.479,124.376,35.479
	s22.141-66.595-35.535-124.18S114.725,41.211,114.725,41.211z"/>
<path style="fill:#A5DC69;" d="M272.896,76.692c-57.675,57.585-35.535,124.18-35.535,124.18s66.7,22.106,124.376-35.479
	s35.59-123.532,35.538-124.183C397.275,41.211,330.571,19.108,272.896,76.692z"/>
<path d="M510.984,314.83c-3.1-12.511-12.822-22.104-25.372-25.034c-7.11-1.662-14.568-0.942-21.191,1.877
	c-0.634-0.486-1.329-0.912-2.095-1.244l-6.459-2.806c-20.072-8.72-43.128-6.597-61.205,5.389
	c-7.673-9.5-16.499-18.083-26.302-25.415c-25.539-19.1-55.941-29.195-87.918-29.195c-49.033,0-94.31,24.121-121.736,64.659
	c-3.101,0.577-6.187,1.269-9.248,2.089L87.81,321.664v-6.622c0-5.522-4.478-10-10-10H10c-5.522,0-10,4.478-10,10v160
	c0,5.522,4.478,10,10,10h125.667c5.522,0,10-4.478,10-10s-4.478-10-10-10H87.81V342.369l66.823-17.9
	c22.894-6.132,47.394-4.128,68.985,5.643l70.754,32.016c3.98,1.802,6.879,5.095,8.161,9.271c1.282,4.178,0.729,8.53-1.556,12.255
	c-3.461,5.641-10.34,8.374-16.726,6.636l-88.885-24.122c-5.327-1.44-10.823,1.702-12.271,7.032
	c-1.446,5.33,1.702,10.823,7.032,12.271l88.884,24.121c2.999,0.814,6.044,1.207,9.061,1.206c0.295,0,27.013,0.02,27.013,0.02
	c21.616,0,42.723-7.552,59.431-21.265l94.359-77.441c3.376-2.772,7.932-3.838,12.187-2.839c5.277,1.232,9.205,5.108,10.509,10.368
	c1.303,5.26-0.361,10.521-4.452,14.075L368.438,436.798c-20.969,18.214-47.814,28.244-75.591,28.244h-75.18c-5.522,0-10,4.478-10,10
	s4.478,10,10,10h75.18c32.596,0,64.099-11.771,88.706-33.145l118.682-103.083C509.965,340.363,514.084,327.34,510.984,314.83z
	 M20,325.042h47.81v140H20V325.042z M445.831,305.151l-29.525,24.232c-2.859-6.904-6.246-13.591-10.125-19.988
	C417.95,301.799,432.67,300.201,445.831,305.151z M361.829,374.092c-11.9,9.766-26.638,15.542-41.94,16.549
	c3.659-7.818,4.324-16.771,1.765-25.11c-2.947-9.603-9.886-17.484-19.037-21.625l-70.753-32.016
	c-14.66-6.635-30.442-10.268-46.358-10.826c23.919-26.995,58.21-42.662,94.937-42.662c42.072,0,80.063,20.293,103.367,53.061
	c0.273,0.533,0.589,1.051,0.967,1.543c0.14,0.182,0.295,0.343,0.444,0.513c6.074,8.907,11.097,18.682,14.831,29.204L361.829,374.092
	z"/>
<path d="M176.33,465.042c-2.63,0-5.21,1.069-7.07,2.93s-2.93,4.44-2.93,7.07s1.069,5.21,2.93,7.069c1.86,1.86,4.44,2.931,7.07,2.931
	c2.64,0,5.21-1.07,7.069-2.931c1.86-1.859,2.931-4.439,2.931-7.069c0-2.641-1.07-5.21-2.931-7.07
	C181.54,466.112,178.96,465.042,176.33,465.042z"/>
<path d="M324.446,53.891c1.076,0,2.17-0.175,3.244-0.543l1.052-0.355c5.238-1.75,8.065-7.416,6.314-12.654
	s-7.415-8.066-12.654-6.314l-1.198,0.405c-5.225,1.791-8.008,7.479-6.216,12.703C316.411,51.281,320.292,53.891,324.446,53.891z"/>
<path d="M181.555,200.486c1.442,0.726,2.978,1.07,4.489,1.07c3.658,0,7.183-2.015,8.939-5.505
	c2.483-4.933,0.498-10.945-4.435-13.429c-11.881-5.981-23.058-14.159-33.22-24.305c-43.295-43.227-38.147-91.38-34.357-108.897
	c5.996-1.284,16.82-2.955,30.214-2.176c27.313,1.588,51.982,12.115,73.325,31.288c4.107,3.69,10.431,3.352,14.122-0.756
	c3.69-4.108,3.352-10.431-0.757-14.122C180.024,9.885,114.349,30.802,111.58,31.718c-3.281,1.087-5.729,3.773-6.553,7.053
	l-0.022,0.08c-3.559,12.393-18.437,77.078,38.193,133.619C154.867,184.121,167.772,193.547,181.555,200.486z"/>
<path d="M184.148,96.479c-3.908-3.9-10.241-3.892-14.142,0.018s-3.893,10.242,0.019,14.142l53.277,53.14
	c-0.94,23.34,4.332,39.532,4.57,40.247c0.996,2.995,3.348,5.345,6.344,6.337c0.657,0.218,14.377,4.677,34.712,4.676
	c3.085,0,6.324-0.103,9.691-0.338c23.491-1.644,58.206-10.306,90.183-42.232c56.63-56.541,41.751-121.226,38.193-133.619
	l-0.022-0.079c-0.823-3.28-3.271-5.967-6.553-7.054c-0.615-0.204-15.304-4.986-36.823-4.66c-5.522,0.085-9.931,4.63-9.846,10.152
	c0.084,5.47,4.545,9.847,9.996,9.847c0.052,0,0.104,0,0.156-0.001c11.04-0.172,19.913,1.244,25.125,2.36
	c3.79,17.514,8.94,65.67-34.357,108.9c-21.942,21.908-47.717,34.145-76.61,36.373c-7.617,0.588-14.463,0.365-20.169-0.173
	l85.158-84.951c3.91-3.9,3.918-10.232,0.018-14.142c-3.901-3.91-10.231-3.917-14.143-0.017l-85.208,85.001
	c-0.542-5.705-0.768-12.551-0.178-20.17c2.231-28.837,14.485-54.565,36.423-76.467c5.723-5.713,11.807-10.84,18.081-15.237
	c4.523-3.169,5.62-9.405,2.451-13.928c-3.17-4.522-9.404-5.62-13.928-2.451c-7.22,5.059-14.196,10.934-20.735,17.462
	c-23.485,23.448-34.395,48.367-39.19,69.246L184.148,96.479z"/>
<path d="M43.91,345.892c-2.641,0-5.21,1.07-7.07,2.931c-1.87,1.859-2.94,4.439-2.94,7.069s1.07,5.21,2.94,7.07
	c1.86,1.86,4.43,2.93,7.07,2.93c2.63,0,5.199-1.069,7.069-2.93c1.86-1.86,2.931-4.44,2.931-7.07s-1.07-5.21-2.931-7.069
	C49.109,346.962,46.54,345.892,43.91,345.892z"/>
<g>
</g>
<g>
</g>
<g>
</g>
<g>
</g>
<g>
</g>
<g>
</g>
<g>
</g>
<g>
</g>
<g>
</g>
<g>
</g>
<g>
</g>
<g>
</g>
<g>
</g>
<g>
</g>
<g>
</g>
</svg>
