<?xml version="1.0" encoding="iso-8859-1"?>
<!-- Generator: Adobe Illustrator 19.0.0, SVG Export Plug-In . SVG Version: 6.00 Build 0)  -->
<svg version="1.1" id="Capa_1" xmlns="http://www.w3.org/2000/svg" xmlns:xlink="http://www.w3.org/1999/xlink" x="0px" y="0px"
	 viewBox="0 0 512 512" style="enable-background:new 0 0 512 512;" xml:space="preserve">
<rect x="204.016" y="447.999" style="fill:#878791;" width="103.998" height="53.999"/>
<path style="fill:#C8F5FF;" d="M420.628,228.61c0-91.029-73.885-164.8-164.957-164.616
	c-90.978,0.184-164.277,73.639-164.277,164.618c0.001,56.515,28.482,106.374,71.873,136.014
	c25.292,17.278,40.745,45.639,40.745,76.268v7.108H308.01v-6.69c0-30.432,14.797-59.162,40.017-76.193
	C391.827,335.54,420.628,285.44,420.628,228.61z"/>
<path style="fill:#F5B955;" d="M335.996,374.876V144.592H235.011v303.41h72.998v-6.69
	C308.01,416.101,318.172,392.067,335.996,374.876z"/>
<path style="fill:#6E87F5;" d="M170.037,225.174v144.533c21.252,17.472,33.974,43.395,33.974,71.187v7.108h67.009V225.174H170.037z"
	/>
<path style="fill:#78D2FA;" d="M370.002,263.935c0,37.233,29.548,67.416,65.998,67.416s65.998-30.183,65.998-67.416
	c0-16.141-5.556-30.953-14.816-42.56h0.005l-50.953-67.018l-51.177,66.667h0.038C375.668,232.682,370.002,247.632,370.002,263.935z"
	/>
<path style="fill:#A5DC69;" d="M77.561,343.681L77.561,343.681c-33.275,0-61.565-24.296-66.588-57.191l0,0
	c-3.221-21.091,1.75-42.615,13.895-60.157l49.829-71.977h-0.03l49.829,71.977c12.144,17.542,17.116,39.066,13.895,60.157l0,0
	c-5.024,32.893-33.313,57.191-66.588,57.191l0,0"/>
<path d="M363.08,340.148c-6.382,6.128-13.33,11.741-20.65,16.685c-26.913,18.176-43.333,48.33-44.369,81.17h-19.04v-83.022h13.988
	c5.522,0,10-4.478,10-10c0-5.522-4.478-10-10-10h-13.988v-19.937h13.988c5.522,0,10-4.478,10-10c0-5.522-4.478-10-10-10h-13.988
	v-19.937h13.988c5.522,0,10-4.478,10-10s-4.478-10-10-10h-13.988v-19.936h13.988c5.522,0,10-4.477,10-10c0-5.523-4.478-10-10-10
	h-21.988c-0.518,0-1.022,0.052-1.519,0.127c-0.161-0.008-0.319-0.024-0.481-0.024h-23.011v-20.039h46.999c5.522,0,10-4.477,10-10
	c0-5.523-4.478-10-10-10h-46.999v-19.937h78.984v165.702c0,5.522,4.478,10,10,10s10-4.478,10-10V145.303c0-5.523-4.478-10-10-10
	h-98.984c-5.522,0-10,4.477-10,10v69.974h-55.975c-5.522,0-10,4.477-10,10v95.904c0,5.522,4.478,10,10,10c5.522,0,10-4.478,10-10
	v-85.904h78.985v202.725h-45.053c-0.935-32.547-17.63-62.895-45.062-81.635c-6.534-4.463-12.779-9.472-18.562-14.888
	c-4.03-3.774-10.358-3.567-14.135,0.463c-3.775,4.031-3.568,10.359,0.463,14.135c6.527,6.113,13.576,11.768,20.951,16.805
	c22.783,15.565,36.386,40.989,36.386,68.012v7.108V502c0,5.522,4.478,10,10,10h103.998c5.522,0,10-4.478,10-10v-53.999v-6.689
	c0-27.46,13.314-52.847,35.614-67.906c8.263-5.58,16.105-11.916,23.308-18.831c3.983-3.825,4.112-10.155,0.288-14.14
	C373.392,336.451,367.063,336.324,363.08,340.148z M298.01,492h-83.998v-33.999h83.998V492z"/>
<path d="M113.768,144.868c1.72,1.167,3.673,1.726,5.606,1.726c3.203,0,6.35-1.536,8.283-4.386l0.222-0.328
	c3.102-4.57,1.91-10.789-2.659-13.89c-4.568-3.1-10.788-1.911-13.89,2.66l-0.222,0.328
	C108.007,135.548,109.198,141.767,113.768,144.868z"/>
<path d="M256.011,53.993c-0.116,0-0.243,0-0.36,0c-45.157,0.091-87.927,17.271-120.431,48.374
	c-3.99,3.818-4.129,10.148-0.311,14.139c3.818,3.991,10.149,4.13,14.139,0.312c28.774-27.535,66.647-42.743,106.643-42.824
	c0.109,0,0.209,0,0.319,0c52.688,0,101.24,26.429,129.911,70.738c1.914,2.958,5.126,4.568,8.405,4.568
	c1.86,0,3.744-0.519,5.423-1.605c4.637-3,5.963-9.191,2.963-13.828C370.334,83.829,315.519,53.993,256.011,53.993z"/>
<path d="M495.168,215.349c-0.007-0.009-0.014-0.018-0.02-0.026l-50.953-67.019c-1.887-2.481-4.821-3.94-7.938-3.948
	c-3.132-0.032-6.059,1.439-7.956,3.911l-51.177,66.667c-0.117,0.153-0.229,0.309-0.337,0.466
	c-10.831,13.703-16.787,30.902-16.787,48.534c0,42.687,34.093,77.417,75.998,77.417c7.879,0,15.65-1.226,23.099-3.644
	c5.253-1.705,8.13-7.346,6.425-12.599c-1.705-5.253-7.346-8.133-12.599-6.425c-5.452,1.77-11.146,2.667-16.926,2.667
	c-30.878,0-55.999-25.757-55.999-57.418c0-13.355,4.57-26.36,12.87-36.622c0.217-0.269,0.419-0.546,0.604-0.832l42.721-55.652
	l42.877,56.396c0.094,0.131,0.192,0.26,0.293,0.387c8.146,10.211,12.633,23.11,12.633,36.323c0,4.255-0.454,8.493-1.35,12.597
	c-1.177,5.396,2.243,10.725,7.639,11.902c5.4,1.173,10.726-2.242,11.902-7.639c1.2-5.502,1.809-11.175,1.809-16.86
	C511.999,246.298,506.023,229.055,495.168,215.349z"/>
<path d="M477.059,302.98l-0.296,0.324c-3.735,4.068-3.465,10.395,0.604,14.129c1.921,1.764,4.344,2.634,6.76,2.634
	c2.703,0,5.397-1.089,7.369-3.237l0.356-0.391c3.717-4.085,3.418-10.409-0.667-14.126C487.1,298.594,480.774,298.895,477.059,302.98
	z"/>
<path d="M469,253.935c-5.522,0-10,4.478-10,10c0,13.073-10.317,23.709-22.999,23.709c-5.522,0-10,4.478-10,10s4.478,10,10,10
	c23.709,0,42.999-19.608,42.999-43.709C479,258.412,474.522,253.935,469,253.935z"/>
<path d="M132.716,220.642l-49.541-71.561c-1.816-2.923-5.035-4.724-8.51-4.724c-3.545,0-6.811,1.875-8.604,4.903l-49.417,71.382
	C2.99,240.365-2.536,264.287,1.086,288c2.791,18.271,12.05,34.964,26.07,47.006c10.596,9.1,23.409,15.099,37.013,17.492v7.748
	c0,5.522,4.478,10,10,10s10-4.478,10-10v-7.571c13.984-2.268,27.173-8.341,38.034-17.67c14.021-12.042,23.279-28.735,26.07-47.006
	C151.896,264.286,146.37,240.365,132.716,220.642z M124.972,248.905L84.17,289.707V185.654l32.103,46.371
	C119.932,237.312,122.83,242.988,124.972,248.905z M64.17,243.214L41.226,220.27l22.944-33.142V243.214z M20.858,284.981
	c-2.54-16.628,0.656-33.377,8.989-47.808l34.324,34.325v60.627C41.828,326.859,24.472,308.645,20.858,284.981z M128.503,284.981
	c-3.668,24.024-21.499,42.432-44.333,47.376v-14.365l45.158-45.159C129.381,276.867,129.122,280.927,128.503,284.981z"/>
<path d="M256.011,38.331c5.522,0,10-4.477,10-10V10c0-5.523-4.478-10-10-10s-10,4.477-10,10v18.332
	C246.011,33.854,250.488,38.331,256.011,38.331z"/>
<path d="M146.59,61.876c1.952,1.951,4.51,2.926,7.067,2.926c2.561,0,5.121-0.978,7.074-2.932c3.903-3.907,3.9-10.239-0.007-14.142
	l-20.975-20.955c-3.907-3.904-10.238-3.901-14.142,0.006c-3.903,3.907-3.9,10.239,0.007,14.142L146.59,61.876z"/>
<path d="M358.839,64.396c2.561,0,5.122-0.978,7.074-2.933l20.812-20.832c3.903-3.907,3.9-10.239-0.007-14.142
	c-3.906-3.903-10.239-3.901-14.142,0.007l-20.812,20.832c-3.903,3.907-3.9,10.239,0.007,14.142
	C353.724,63.422,356.281,64.396,358.839,64.396z"/>
<path d="M235.903,278.005c5.522,0,10-4.478,10-10v-6.31c0-5.523-4.478-10-10-10c-5.522,0-10,4.477-10,10v6.31
	C225.903,273.529,230.381,278.005,235.903,278.005z"/>
<path d="M203.154,278.005c5.522,0,10-4.478,10-10v-6.31c0-5.523-4.478-10-10-10c-5.522,0-10,4.477-10,10v6.31
	C193.154,273.529,197.632,278.005,203.154,278.005z"/>
<path d="M225.903,307.271c0,5.522,4.478,10,10,10c5.522,0,10-4.478,10-10v-6.309c0-5.522-4.478-10-10-10c-5.522,0-10,4.478-10,10
	V307.271z"/>
<path d="M193.154,307.271c0,5.522,4.478,10,10,10c5.522,0,10-4.478,10-10v-6.309c0-5.522-4.478-10-10-10c-5.522,0-10,4.478-10,10
	V307.271z"/>
<path d="M225.903,346.536c0,5.522,4.478,10,10,10c5.522,0,10-4.478,10-10v-6.31c0-5.522-4.478-10-10-10c-5.522,0-10,4.478-10,10
	V346.536z"/>
<path d="M193.154,346.536c0,5.522,4.478,10,10,10c5.522,0,10-4.478,10-10v-6.31c0-5.522-4.478-10-10-10c-5.522,0-10,4.478-10,10
	V346.536z"/>
<g>
</g>
<g>
</g>
<g>
</g>
<g>
</g>
<g>
</g>
<g>
</g>
<g>
</g>
<g>
</g>
<g>
</g>
<g>
</g>
<g>
</g>
<g>
</g>
<g>
</g>
<g>
</g>
<g>
</g>
</svg>
