<?xml version="1.0" encoding="iso-8859-1"?>
<!-- Generator: Adobe Illustrator 19.0.0, SVG Export Plug-In . SVG Version: 6.00 Build 0)  -->
<svg version="1.1" id="Capa_1" xmlns="http://www.w3.org/2000/svg" xmlns:xlink="http://www.w3.org/1999/xlink" x="0px" y="0px"
	 viewBox="0 0 512.001 512.001" style="enable-background:new 0 0 512.001 512.001;" xml:space="preserve">
<g>
	<path style="fill:#FFCDAC;" d="M481.923,225.973c-9.521,0-17.734,6.687-19.662,16.012l-25.683,124.171
		c-0.129,0.954-0.322,1.901-0.586,2.836l0,0l0,0c-0.922,3.26-2.667,6.354-5.281,8.962l-57.097,47.737l62.378-56.699l0,0l0.586-2.836
		c1.051-7.748-2.316-15.895-9.639-20.395c-6.187-3.803-13.919-4.073-20.356-0.712l-54.477,28.44
		c-16.278,8.498-28.554,23.063-34.171,40.545l-28.27,87.963H393.22l76.722-84.528c15.14-16.681,24.126-38.033,25.47-60.52
		l6.553-109.699C502.655,235.709,493.482,225.973,481.923,225.973z"/>
	<path style="fill:#FFCDAC;" d="M194.065,414.032c-5.619-17.482-17.895-32.047-34.172-40.545l-54.477-28.44
		c-6.437-3.361-14.169-3.091-20.356,0.712l0,0c-7.323,4.501-10.689,12.647-9.639,20.395l0.531,2.567
		c-0.227-0.848-0.414-1.704-0.531-2.567L49.739,241.984c-1.929-9.324-10.14-16.012-19.662-16.012
		c-11.56,0-20.731,9.736-20.042,21.275l6.553,109.699c1.344,22.487,10.33,43.839,25.47,60.52l76.722,84.528h103.555L194.065,414.032
		z M81.289,377.953c-2.609-2.603-4.342-5.693-5.263-8.945l53.167,48.326L81.289,377.953z"/>
</g>
<path style="fill:#FF7373;" d="M256.014,380.706c0,0,199.984-129.267,199.984-250.44c0-66.419-51.862-120.261-115.835-120.261
	c-33.144,0-63.034,14.455-84.148,37.621C234.9,24.46,205.01,10.004,171.866,10.004c-63.974,0-115.836,53.843-115.836,120.261
	C56.03,251.439,256.014,380.706,256.014,380.706z"/>
<path style="fill:#A5DC69;" d="M178.36,216.498c0,42.886,34.766,77.654,77.654,77.654s77.654-34.766,77.654-77.654
	c0-18.591-6.536-35.654-17.433-49.022h0.005l-59.951-77.195l-60.215,76.791h0.045C185.027,180.498,178.36,197.72,178.36,216.498z"/>
<path style="fill:#78D2FA;" d="M316.241,167.476l-59.95-77.195l-0.276,0.352v203.519c42.887,0,77.654-34.767,77.654-77.654
	c0-18.591-6.536-35.654-17.433-49.022L316.241,167.476L316.241,167.476z"/>
<path d="M503.816,225.427c-5.66-6.008-13.639-9.453-21.893-9.453c-14.192,0-26.58,10.087-29.455,23.985l-20.142,97.381
	c-0.052-0.032-0.1-0.068-0.152-0.1c-9.135-5.614-20.713-6.021-30.22-1.057l-54.477,28.44c-18.727,9.775-32.6,26.236-39.063,46.349
	l-28.27,87.963c-1.689,5.258,1.203,10.889,6.46,12.579c1.018,0.327,2.048,0.482,3.062,0.482c4.228,0,8.154-2.702,9.518-6.942
	l28.27-87.963c4.845-15.075,15.243-27.412,29.279-34.74l54.477-28.44c3.299-1.723,7.319-1.583,10.493,0.367
	c2.794,1.718,4.615,4.57,4.997,7.826c0.094,0.8,0.095,1.597,0.013,2.378l-0.391,1.889c-0.497,1.676-1.395,3.226-2.675,4.503
	l-54.785,54.659c-3.909,3.9-3.916,10.231-0.016,14.142c3.901,3.908,10.233,3.916,14.141,0.016l54.784-54.659
	c4.748-4.737,7.728-10.754,8.67-17.203l25.61-123.82c0.963-4.658,5.114-8.037,9.87-8.037c2.807,0,5.412,1.125,7.336,3.168
	s2.893,4.711,2.725,7.512l-6.555,109.701c-1.202,20.139-9.332,39.457-22.892,54.396l-13.944,15.363
	c-3.712,4.089-3.406,10.413,0.684,14.124c1.915,1.738,4.32,2.596,6.717,2.596c2.722,0,5.435-1.104,7.406-3.279l13.944-15.363
	c16.614-18.302,26.574-41.972,28.048-66.644l6.554-109.7C512.44,239.606,509.476,231.435,503.816,225.427z"/>
<path d="M430.4,451.028c-2.63,0-5.21,1.07-7.068,2.931c-1.86,1.859-2.931,4.439-2.931,7.068s1.07,5.21,2.931,7.069
	c1.859,1.86,4.439,2.93,7.068,2.93c2.641,0,5.21-1.069,7.069-2.93s2.93-4.44,2.93-7.069s-1.069-5.21-2.93-7.068
	C435.609,452.098,433.03,451.028,430.4,451.028z"/>
<path d="M400.719,478.856l-14.903,16.419c-3.712,4.089-3.406,10.412,0.684,14.124c1.915,1.738,4.32,2.596,6.717,2.596
	c2.722,0,5.434-1.104,7.406-3.279l14.903-16.419c3.712-4.089,3.406-10.412-0.684-14.124
	C410.753,474.462,404.432,474.765,400.719,478.856z"/>
<path d="M203.585,410.973c-6.463-20.112-20.337-36.573-39.064-46.349l-54.476-28.44c-9.505-4.964-21.084-4.559-30.221,1.057
	c-0.052,0.032-0.1,0.067-0.152,0.099l-20.141-97.381c-2.875-13.898-15.263-23.985-29.455-23.985c-8.254,0-16.233,3.446-21.893,9.453
	s-8.623,14.179-8.131,22.417l6.553,109.7c1.475,24.674,11.435,48.342,28.048,66.644l76.723,84.527
	c1.974,2.175,4.685,3.279,7.406,3.279c2.397,0,4.803-0.857,6.717-2.596c4.09-3.712,4.396-10.035,0.684-14.124l-76.723-84.526
	c-13.56-14.939-21.689-34.258-22.893-54.397l-6.553-109.699c-0.168-2.802,0.8-5.47,2.725-7.512s4.53-3.168,7.336-3.168
	c4.757,0,8.907,3.38,9.87,8.037l25.61,123.818c0.941,6.448,3.922,12.467,8.67,17.205l54.785,54.659
	c3.908,3.899,10.24,3.895,14.141-0.017c3.9-3.909,3.894-10.24-0.017-14.141l-54.783-54.659c-1.28-1.276-2.176-2.824-2.674-4.498
	l-0.392-1.896c-0.082-0.781-0.081-1.577,0.013-2.377c0.382-3.257,2.203-6.109,4.996-7.826c3.174-1.948,7.194-2.089,10.494-0.367
	l54.476,28.441c14.037,7.326,24.436,19.664,29.28,34.739l28.269,87.963c1.363,4.241,5.291,6.942,9.518,6.942
	c1.014,0,2.045-0.155,3.062-0.482c5.258-1.689,8.149-7.321,6.46-12.579L203.585,410.973z"/>
<path d="M90.637,54.528c2.577,0,5.155-0.991,7.11-2.969c0.003-0.004,0.081-0.083,0.1-0.102c3.894-3.906,3.89-10.228-0.012-14.129
	c-3.906-3.905-10.235-3.905-14.142,0l-0.168,0.17c-3.883,3.927-3.847,10.258,0.08,14.141C85.556,53.566,88.097,54.528,90.637,54.528
	z"/>
<path d="M433.16,225.925c21.788-33.887,32.836-66.072,32.836-95.659c0-71.826-56.449-130.26-125.835-130.26
	c-31.53,0-61.039,11.784-84.148,33.395c-23.109-21.611-52.618-33.394-84.148-33.394c-20.1,0-39.31,4.762-57.099,14.152
	c-4.884,2.578-6.752,8.627-4.175,13.511c2.578,4.884,8.624,6.754,13.512,4.175c14.881-7.855,30.949-11.839,47.762-11.839
	c29.305,0,56.564,12.202,76.759,34.357c1.895,2.079,4.578,3.264,7.39,3.264c2.813,0,5.496-1.185,7.39-3.264
	c20.193-22.155,47.454-34.357,76.759-34.357C398.522,20.005,446,69.468,446,130.267c0,103.441-158.393,216.822-189.984,238.399
	C224.424,347.089,66.031,233.707,66.031,130.267c0-18.016,4.261-35.886,12.32-51.68c2.511-4.919,0.558-10.941-4.361-13.452
	c-4.92-2.509-10.943-0.559-13.454,4.361c-9.489,18.595-14.506,39.609-14.506,60.77c0,29.588,11.048,61.772,32.836,95.659
	c17.02,26.471,40.663,54.144,70.27,82.253c50.095,47.557,99.375,79.585,101.448,80.926c1.652,1.067,3.54,1.602,5.429,1.602
	c1.889,0,3.776-0.534,5.429-1.602c2.073-1.341,51.353-33.369,101.448-80.926C392.498,280.068,416.141,252.396,433.16,225.925z"/>
<path d="M346.006,216.565c0-20.553-7.106-40.636-20.019-56.586c-0.012-0.015-0.023-0.031-0.035-0.046l-61.757-79.521
	c-1.89-2.433-4.795-3.859-7.874-3.866c-0.008,0-0.016,0-0.023,0c-0.045,0-0.089,0.007-0.133,0.008
	c-0.051-0.001-0.1-0.008-0.151-0.008c-3.937,0-7.332,2.281-8.963,5.588L186.4,159.478c-0.135,0.171-0.263,0.346-0.385,0.524
	c-12.899,15.953-19.993,36.001-19.993,56.561c0,49.622,40.371,89.993,89.993,89.993S346.006,266.186,346.006,216.565z
	 M310.298,172.382c10.131,12.43,15.71,28.121,15.71,44.182c0,35.199-26.121,64.401-59.995,69.268v-24.617l39.875-39.875
	c3.905-3.905,3.905-10.236,0-14.142c-3.906-3.905-10.235-3.905-14.142,0l-25.733,25.733v-29.457l22.028-22.028
	c3.905-3.905,3.905-10.236,0-14.141c-3.905-3.905-10.234-3.905-14.142,0l-7.887,7.886v-59.838l43.971,56.619
	C310.085,172.113,310.19,172.248,310.298,172.382z M186.02,216.565c0-16.235,5.685-32.055,16.004-44.547
	c0.238-0.288,0.458-0.586,0.658-0.894l43.333-55.26v59.205l-7.76-7.759c-3.906-3.905-10.235-3.905-14.142,0
	c-3.905,3.905-3.905,10.236,0,14.141l21.901,21.901v29.457l-25.606-25.606c-3.906-3.905-10.235-3.905-14.142,0
	c-3.905,3.905-3.905,10.236,0,14.142l39.748,39.748v24.744C212.14,280.965,186.02,251.764,186.02,216.565z"/>
<g>
</g>
<g>
</g>
<g>
</g>
<g>
</g>
<g>
</g>
<g>
</g>
<g>
</g>
<g>
</g>
<g>
</g>
<g>
</g>
<g>
</g>
<g>
</g>
<g>
</g>
<g>
</g>
<g>
</g>
</svg>
