<?xml version="1.0" encoding="iso-8859-1"?>
<!-- Generator: Adobe Illustrator 19.0.0, SVG Export Plug-In . SVG Version: 6.00 Build 0)  -->
<svg version="1.1" id="Capa_1" xmlns="http://www.w3.org/2000/svg" xmlns:xlink="http://www.w3.org/1999/xlink" x="0px" y="0px"
	 viewBox="0 0 511.999 511.999" style="enable-background:new 0 0 511.999 511.999;" xml:space="preserve">
<path style="fill:#FAE196;" d="M501.987,501.994c-60.563-67.295-148.331-109.619-245.994-109.619S70.563,434.699,9.999,501.994
	H501.987z"/>
<path style="fill:#C88C64;" d="M52.693,458.252v-3.056c0-98.337,30.702-194.222,87.822-274.27l0,0l17.595,32.6l0,0
	c-36.866,73.713-56.06,154.999-56.06,237.417v6.052L52.693,458.252z"/>
<g>
	<path style="fill:#A5DC69;" d="M219.196,224.804l52.852,52.852c1.071-28.092-9.11-56.534-30.556-77.979
		s-49.888-31.626-77.979-30.555"/>
	<path style="fill:#A5DC69;" d="M317.004,169.045c-19.107-20.621-46.417-33.533-76.746-33.533s-57.639,12.913-76.746,33.533H317.004
		z"/>
	<path style="fill:#A5DC69;" d="M156.826,170.001c-25.078-12.704-55.172-15.331-83.615-4.8
		c-28.442,10.531-49.57,32.122-60.327,58.095L156.826,170.001z"/>
	<path style="fill:#A5DC69;" d="M272.124,60.509c-28.092-1.071-56.534,9.11-77.979,30.555s-31.626,49.888-30.555,77.979
		L272.124,60.509z"/>
	<path style="fill:#A5DC69;" d="M163.512,10.007c-20.621,19.107-33.533,51.963-33.533,82.292s12.913,57.639,33.533,76.746V10.007z"
		/>
	<path style="fill:#A5DC69;" d="M158.108,169.625c-10.782-25.962-31.928-47.535-60.38-58.04s-58.544-7.851-83.61,4.876
		L158.108,169.625z"/>
</g>
<path style="fill:#C8F5FF;" d="M456.409,256h45.348c0-19.409-15.693-35.197-34.981-35.197c-1.207,0-2.408,0.067-3.604,0.187
	c-6.067-15.949-21.346-26.721-38.671-26.721c-17.324,0-32.605,10.773-38.671,26.721c-1.195-0.121-2.397-0.187-3.602-0.187
	c-19.292,0-34.983,15.789-34.983,35.197h28.034H456.409z"/>
<path style="fill:#A5DC69;" d="M420.961,256h0.118H420.961z"/>
<g>
	<circle style="fill:#46C373;" cx="220.724" cy="362.131" r="31.999"/>
	<circle style="fill:#46C373;" cx="169.075" cy="196.545" r="27.497"/>
	<circle style="fill:#46C373;" cx="181.785" cy="250.544" r="27.497"/>
	<circle style="fill:#46C373;" cx="222.174" cy="213.175" r="27.497"/>
</g>
<circle style="fill:#E6AA46;" cx="424.499" cy="87.508" r="30.999"/>
<path d="M12.886,233.295c1.164,0,2.339-0.204,3.47-0.623l104.245-38.597c-22.87,35.491-40.969,73.762-53.879,114.077
	c-15.24,47.596-22.967,97.068-22.967,147.043v3.056c0,5.522,4.477,10,10,10s10-4.478,10-10v-3.056
	c0-17.58,0.993-35.024,2.934-52.281h28.606c-0.778,8.624-1.357,17.263-1.717,25.906c-0.014,0.198-0.019,0.397-0.021,0.596
	c-0.291,7.174-0.444,14.351-0.444,21.524v6.053c0,5.522,4.477,10,10,10c5.523,0,10-4.478,10-10v-6.053
	c0-5.151,0.084-10.304,0.24-15.456c18.125-9.5,48.473-19.069,48.743-19.154c19.88-6.077,40.316-10.175,61.056-12.284
	c1.145-0.066,2.275-0.182,3.394-0.337c9.761-0.889,19.585-1.338,29.45-1.338c27.529,0,54.862,3.49,81.236,10.373
	c5.344,1.394,10.806-1.807,12.201-7.15c1.395-5.343-1.807-10.807-7.151-12.201c-27.541-7.188-56.059-10.885-84.783-11.01
	c3.325-6.012,5.225-12.918,5.225-20.26c0-23.158-18.841-41.999-41.999-41.999s-41.999,18.841-41.999,41.999
	c0,10.247,3.693,19.645,9.813,26.942c-10.904,2.19-21.701,4.904-32.355,8.161c-1.195,0.374-22.912,7.22-41.634,15.534
	c3.751-50.33,14.853-100.239,32.794-147.42c5.751,13.338,19.025,22.7,34.448,22.7c20.675,0,37.497-16.821,37.497-37.497v-0.002
	c0.955,0.073,1.917,0.122,2.891,0.122c2.709,0,5.349-0.296,7.896-0.844l34.904,34.904c1.912,1.911,4.468,2.929,7.073,2.929
	c1.226,0,2.463-0.226,3.648-0.69c3.701-1.45,6.191-4.956,6.343-8.929c1.339-35.105-9.795-67.218-30.551-88.209
	c-3.669-4.599-8.393-8.315-13.805-10.784h79.321c3.976,0,7.573-2.355,9.164-5.998s0.873-7.882-1.829-10.799
	c-21.632-23.346-52.279-36.736-84.081-36.736c-7.068,0-14.077,0.665-20.943,1.95l59.88-59.88c2.811-2.811,3.69-7.021,2.239-10.722
	c-1.451-3.701-4.957-6.191-8.929-6.342c-31.796-1.21-62.943,10.989-85.432,33.477c-5.053,5.053-9.583,10.547-13.562,16.384V10.007
	c0-3.976-2.355-7.573-5.998-9.164c-3.642-1.592-7.882-0.873-10.799,1.829C134.403,23.35,119.983,58.53,119.983,92.3
	c0,6.73,0.606,13.408,1.773,19.959c-6.462-4.005-13.342-7.389-20.56-10.054c-29.833-11.016-63.22-9.069-91.601,5.34
	c-3.544,1.8-5.687,5.528-5.456,9.497c0.23,3.969,2.79,7.424,6.519,8.801l71.151,26.27c-4.071,1.011-8.101,2.243-12.066,3.711
	c-29.824,11.043-53.915,34.24-66.094,63.645c-1.521,3.673-0.723,7.898,2.034,10.762C7.6,232.224,10.215,233.295,12.886,233.295z
	 M220.722,384.126c-12.131,0-21.999-9.869-21.999-21.999c0-12.131,9.869-21.999,21.999-21.999c12.131,0,21.999,9.869,21.999,21.999
	c0,10.918-7.996,20-18.439,21.707c-0.884,0.082-1.765,0.181-2.647,0.269C221.332,384.115,221.028,384.126,220.722,384.126z
	 M122.654,274.833l-19.313-6.985c3.337-7.506,6.879-14.932,10.626-22.271l16.748,7.323
	C127.871,260.149,125.185,267.463,122.654,274.833z M107.868,325.883l-24.377-4.701c3.565-11.777,7.61-23.404,12.117-34.865
	l20.89,7.556C113.296,304.449,110.423,315.128,107.868,325.883z M123.48,227.908c3.406-6.013,6.942-11.967,10.629-17.848
	c2.011,5.183,5.141,9.809,9.094,13.584c-1.653,3.572-3.255,7.167-4.83,10.776L123.48,227.908z M186.571,196.541
	c0,9.648-7.85,17.498-17.498,17.498s-17.498-7.85-17.498-17.498c0-9.648,7.85-17.498,17.498-17.498S186.571,186.893,186.571,196.541
	z M69.372,382.916c2.244-14.298,5.155-28.445,8.721-42.407l25.496,4.917c-2.477,12.424-4.522,24.931-6.127,37.49H69.372z
	 M181.789,268.043c-9.648,0-17.498-7.85-17.498-17.498c0-9.648,7.85-17.498,17.498-17.498s17.498,7.85,17.498,17.498
	C199.285,260.193,191.437,268.043,181.789,268.043z M204.678,213.17c0-9.648,7.85-17.498,17.498-17.498s17.498,7.85,17.498,17.498
	s-7.85,17.498-17.498,17.498S204.678,222.817,204.678,213.17z M248.436,239.902c2.504-2.461,4.662-5.27,6.401-8.348
	c2.493,6.369,4.379,13.194,5.608,20.357L248.436,239.902z M203.133,180.887c-0.288-0.623-0.59-1.239-0.91-1.843h4.445
	C205.453,179.597,204.273,180.211,203.133,180.887z M288.964,159.045h-97.413c14.594-8.753,31.445-13.534,48.707-13.534
	S274.371,150.291,288.964,159.045z M201.215,98.135c12.208-12.207,27.5-20.741,44.011-24.87l-68.881,68.881
	C180.475,125.638,189.01,110.342,201.215,98.135z M153.512,39.597v101.407c-8.753-14.594-13.534-31.444-13.534-48.706
	C139.979,74.225,145.047,55.282,153.512,39.597z M94.265,120.966c16.193,5.979,30.345,16.3,41.003,29.566l-91.383-33.74
	C60.607,113.634,78.071,114.987,94.265,120.966z M76.684,174.577c10.576-3.916,21.69-5.856,32.792-5.856
	c5.894,0,11.783,0.547,17.583,1.637l-91.352,33.823C46.353,190.905,60.497,180.571,76.684,174.577z"/>
<path d="M424.502,128.504c22.606,0,40.999-18.393,40.999-40.999s-18.393-40.999-40.999-40.999s-40.999,18.393-40.999,40.999
	S401.894,128.504,424.502,128.504z M424.502,66.505c11.58,0,20.999,9.42,20.999,20.999s-9.42,20.999-20.999,20.999
	c-11.58,0-20.999-9.42-20.999-20.999S412.922,66.505,424.502,66.505z"/>
<path d="M478,87.505c0,5.523,4.477,10,10,10h14c5.523,0,10-4.477,10-10s-4.477-10-10-10h-14C482.477,77.505,478,81.982,478,87.505z"
	/>
<path d="M347.004,97.504h14c5.523,0,10-4.477,10-10s-4.477-10-10-10h-14c-5.523,0-10,4.477-10,10S341.481,97.504,347.004,97.504z"/>
<path d="M434.501,165.003v-14c0-5.523-4.477-10-10-10c-5.523,0-10,4.477-10,10v14c0,5.523,4.477,10,10,10
	C430.025,175.002,434.501,170.526,434.501,165.003z"/>
<path d="M424.502,34.006c5.523,0,10-4.477,10-10v-14c0-5.523-4.477-10-10-10c-5.523,0-10,4.477-10,10v14
	C414.502,29.529,418.979,34.006,424.502,34.006z"/>
<path d="M472.229,149.375c1.953,1.953,4.512,2.929,7.071,2.929s5.119-0.976,7.071-2.929c3.905-3.905,3.905-10.237,0-14.143
	l-9.899-9.899c-3.905-3.905-10.237-3.905-14.143,0c-3.906,3.905-3.905,10.237,0,14.143L472.229,149.375z"/>
<path d="M372.53,49.676c1.953,1.953,4.512,2.929,7.071,2.929c2.559,0,5.119-0.976,7.071-2.929c3.905-3.905,3.905-10.237,0-14.143
	l-9.899-9.899c-3.905-3.905-10.237-3.905-14.143,0c-3.906,3.905-3.905,10.237,0,14.143L372.53,49.676z"/>
<path d="M376.773,149.375l9.899-9.899c3.905-3.905,3.905-10.237,0-14.143c-3.905-3.906-10.237-3.905-14.143,0l-9.899,9.899
	c-3.905,3.905-3.905,10.237,0,14.143c1.953,1.953,4.512,2.929,7.071,2.929S374.821,151.327,376.773,149.375z"/>
<path d="M469.401,52.604c2.559,0,5.119-0.976,7.071-2.929l9.899-9.899c3.905-3.905,3.905-10.237,0-14.143s-10.237-3.905-14.143,0
	l-9.899,9.899c-3.905,3.905-3.905,10.237,0,14.143C464.284,51.628,466.843,52.604,469.401,52.604z"/>
<path d="M378.506,426.597l0.565,0.233c1.252,0.519,2.548,0.765,3.824,0.765c3.923,0,7.647-2.325,9.242-6.175
	c2.114-5.103-0.309-10.952-5.411-13.066l-0.582-0.241c-5.105-2.108-10.953,0.319-13.061,5.423
	C370.974,418.64,373.402,424.488,378.506,426.597z"/>
<path d="M428.704,429.32c-4.758-2.805-10.888-1.218-13.691,3.541c-2.803,4.759-1.217,10.889,3.542,13.691
	c21.691,12.776,41.752,28.01,59.862,45.442H32.434c1.655-3.579,1.093-7.957-1.761-11.02c-3.765-4.038-10.092-4.264-14.133-0.498
	c-5.433,5.063-6.972,6.836-9.765,10.054c-1.067,1.23-2.354,2.714-4.208,4.774c-2.642,2.936-3.309,7.15-1.702,10.758
	c1.606,3.607,5.186,5.932,9.135,5.932h491.988c3.949,0,7.528-2.324,9.135-5.932c1.607-3.607,0.94-7.822-1.702-10.758
	C485.981,469.26,458.825,447.06,428.704,429.32z"/>
<path d="M511.757,256c0-24.01-18.73-43.708-42.279-45.117c-8.951-16.166-26.227-26.615-44.976-26.615
	c-18.75,0-36.027,10.45-44.977,26.615c-23.549,1.411-42.28,21.107-42.28,45.117c0,5.522,4.477,10,10,10h154.512
	C507.281,266,511.757,261.522,511.757,256z M359.297,246.001c3.844-8.934,12.676-15.198,22.931-15.198
	c0.823,0,1.697,0.046,2.599,0.137c4.498,0.451,8.743-2.168,10.35-6.395c4.613-12.128,16.398-20.276,29.325-20.276
	c12.926,0,24.71,8.149,29.324,20.277c1.607,4.227,5.853,6.845,10.35,6.395c0.901-0.091,1.776-0.137,2.601-0.137
	c10.254,0,19.085,6.264,22.929,15.198L359.297,246.001L359.297,246.001z"/>
<path d="M442.633,299.997c0-5.522-4.477-10-10-10H302.505c-5.523,0-10,4.478-10,10c0,5.522,4.477,10,10,10h130.129
	C438.156,309.997,442.633,305.519,442.633,299.997z"/>
<path d="M370.332,336.927c-1.86-1.87-4.43-2.93-7.07-2.93c-2.63,0-5.21,1.06-7.07,2.93c-1.86,1.86-2.93,4.43-2.93,7.07
	c0,2.63,1.07,5.21,2.93,7.069c1.86,1.86,4.44,2.931,7.07,2.931c2.64,0,5.21-1.07,7.07-2.931c1.87-1.859,2.93-4.439,2.93-7.069
	C373.263,341.357,372.203,338.788,370.332,336.927z"/>
<path d="M502,333.995h-94.998c-5.523,0-10,4.478-10,10c0,5.522,4.477,10,10,10H502c5.523,0,10-4.478,10-10
	C511.999,338.473,507.523,333.995,502,333.995z"/>
<g>
</g>
<g>
</g>
<g>
</g>
<g>
</g>
<g>
</g>
<g>
</g>
<g>
</g>
<g>
</g>
<g>
</g>
<g>
</g>
<g>
</g>
<g>
</g>
<g>
</g>
<g>
</g>
<g>
</g>
</svg>
