<?xml version="1.0" encoding="iso-8859-1"?>
<!-- Generator: Adobe Illustrator 19.0.0, SVG Export Plug-In . SVG Version: 6.00 Build 0)  -->
<svg version="1.1" id="Capa_1" xmlns="http://www.w3.org/2000/svg" xmlns:xlink="http://www.w3.org/1999/xlink" x="0px" y="0px"
	 viewBox="0 0 512.002 512.002" style="enable-background:new 0 0 512.002 512.002;" xml:space="preserve">
<path style="fill:#73E6E1;" d="M372,406.002h106c13.255,0,24-10.745,24-24s-10.745-24-24-24H34c-13.255,0-24,10.745-24,24
	s10.745,24,24,24h63.779c13.255,0,24,10.745,24,24s-10.745,24-24,24H64c-13.255,0-24,10.745-24,24s10.745,24,24,24h361.086
	c13.255,0,24-10.745,24-24s-10.745-24-24-24H372c-13.255,0-24-10.745-24-24S358.745,406.002,372,406.002z"/>
<path style="fill:#D7FA91;" d="M70,250.995L70,250.995c0-23.925,13.506-45.801,34.896-56.52l12.457-6.243l0,0
	c-9.623,20.906-14.606,43.648-14.606,66.662v1.877L83.49,290.357L70,250.995z"/>
<path style="fill:#A5DC69;" d="M117.353,358.002L117.353,358.002c0-40.222,20.867-77.565,55.122-98.645l0.576-0.355l0,0
	c-11.36,30.308-17.18,62.412-17.18,94.78v4.22H117.353z"/>
<path style="fill:#46C373;" d="M76.94,358.002V352.4c0-56.982,27.252-110.528,73.321-144.063l0,0l-0.034,0.075
	c-21.462,46.776-32.572,97.634-32.572,149.099v0.492H76.94V358.002z"/>
<g>
	<path style="fill:#A5DC69;" d="M83.49,304.542L83.49,304.542c0-37.372-21.465-71.422-55.185-87.537l-18.137-8.668l1.211,2.202
		c24.854,45.176,37.887,95.902,37.887,147.464l0,0H83.49V304.542z"/>
	<path style="fill:#A5DC69;" d="M433.961,358.002v-5.198c0-52.877,25.289-102.565,68.039-133.685l0,0l-0.032,0.07
		c-19.916,43.406-30.226,90.601-30.226,138.358v0.456h-37.781V358.002z"/>
</g>
<path style="fill:#46C373;" d="M440.039,308.394L440.039,308.394c0-34.68-19.919-66.277-51.209-81.231L372,219.119l1.124,2.043
	c23.064,41.922,35.157,88.993,35.157,136.84l0,0h31.758V308.394z"/>
<path style="fill:#D7FA91;" d="M242.009,189.502L242.009,189.502c0-36.56,17.284-70.968,46.614-92.794l22.45-16.706l-3.653,10.93
	c-14.177,42.417-21.405,86.847-21.405,131.57l0,0L266,259.002L242.009,189.502z"/>
<path style="fill:#46C373;" d="M256,358.002v-8.553c0-86.997,41.607-168.747,111.942-219.947l0,0l-0.052,0.114
	c-32.766,71.415-49.729,149.062-49.729,227.635v0.751H256z"/>
<path style="fill:#A5DC69;" d="M256,358.002v-8.553c0-24.989,3.439-49.543,10-73.067l0,0c0-57.058-32.772-109.043-84.252-133.646
	l-27.69-13.234l1.849,3.361c37.946,68.972,57.843,146.417,57.843,225.139l0,0H256z"/>
<path style="fill:#46C373;" d="M298.635,358.002L298.635,358.002c0-40.222,20.867-77.565,55.122-98.645l0.576-0.355l0,0
	c-11.36,30.308-17.18,62.412-17.18,94.78v4.22H298.635z"/>
<path style="fill:#AAE6FF;" d="M150.188,86.001h50.037c0-23.895-19.319-43.333-43.066-43.333c-1.485,0-2.964,0.082-4.437,0.231
	c-7.469-19.636-26.28-32.898-47.608-32.898s-40.142,13.263-47.61,32.898c-1.472-0.148-2.951-0.231-4.434-0.231
	C29.32,42.668,10,62.106,10,86.001h93.146H150.188z"/>
<path d="M481.878,348.23c1.228-43.341,11.028-85.31,29.216-124.949c1.893-4.134,0.757-9.025-2.763-11.904
	c-3.52-2.877-8.539-3.02-12.215-0.343c-22.418,16.319-40.346,37.593-52.728,61.71c-9.051-23.553-26.837-43.417-50.244-54.604
	l-16.83-8.043c-3.919-1.874-8.601-1.002-11.582,2.156c-2.983,3.158-3.585,7.881-1.491,11.687l1.124,2.043
	c20.582,37.411,32.157,79.397,33.727,122.02H390v-4.353c0-9.967-3.881-19.337-10.929-26.385c-3.904-3.906-10.236-3.905-14.142-0.001
	c-3.905,3.905-3.906,10.236,0,14.142c3.27,3.271,5.071,7.619,5.071,12.244v4.353h-22.782c0.644-29.279,6.179-58.01,16.479-85.49
	c1.5-4,0.292-8.511-3.005-11.228c-3.297-2.716-7.957-3.038-11.595-0.801l-0.581,0.357c-3.879,2.387-7.609,4.993-11.194,7.778
	c8.056-43.049,21.344-84.92,39.647-124.812l0.053-0.114c1.908-4.134,0.783-9.035-2.737-11.922c-3.52-2.888-8.546-3.033-12.228-0.354
	c-24.872,18.105-46.71,40.359-64.463,65.489c2.776-31.54,9.225-62.63,19.31-92.805l3.653-10.93
	c1.385-4.144-0.081-8.707-3.619-11.269c-3.538-2.563-8.331-2.531-11.835,0.077l-22.449,16.707
	c-26.115,19.433-43.551,48.424-48.897,80.127c-13.484-14.533-29.62-26.461-47.697-35.1l-27.69-13.234
	c-3.918-1.874-8.599-1.002-11.582,2.156c-2.982,3.158-3.585,7.88-1.492,11.686l1.849,3.362
	c35.424,64.387,54.859,136.897,56.481,210.318h-37.69c0.644-29.279,6.179-58.01,16.479-85.49c1.5-4.001,0.292-8.513-3.007-11.229
	c-3.299-2.717-7.958-3.037-11.597-0.798l-0.577,0.355c-11.362,6.992-21.53,15.766-30.112,25.905
	c5.248-21.933,12.661-43.389,22.231-64.247c1.892-4.134,0.756-9.024-2.764-11.902c-3.519-2.877-8.539-3.018-12.214-0.343
	c-10.567,7.692-20.204,16.41-28.818,25.961c2.285-11.659,5.935-23.057,10.879-33.8c1.775-3.858,0.921-8.416-2.131-11.369
	c-3.052-2.952-7.635-3.656-11.433-1.753l-12.457,6.243c-18.42,9.231-31.675,25.339-37.346,44.368
	c-8.66-8.927-18.919-16.408-30.452-21.92l-18.137-8.668c-3.919-1.874-8.6-1.002-11.583,2.156s-3.585,7.881-1.491,11.687l1.211,2.201
	c22.368,40.656,34.893,86.314,36.473,132.644H34c-18.748,0-34,15.252-34,34s15.252,34,34,34h63.779c7.72,0,14,6.28,14,14
	s-6.28,14-14,14H64c-18.748,0-34,15.252-34,34s15.252,34,34,34h361.086c18.748,0,34-15.252,34-34s-15.252-34-34-34H372
	c-7.72,0-14-6.28-14-14s6.28-14,14-14h106c18.748,0,34-15.252,34-34C512,364.566,498.805,350.161,481.878,348.23z M476.667,257.515
	c-8.995,29.285-13.935,59.557-14.78,90.487h-17.843C445.077,314.938,456.725,283.242,476.667,257.515z M394.3,241.75
	c21.709,14.484,35.349,39.09,35.722,65.535c-3.563,13.186-5.604,26.847-5.988,40.718h-5.945
	C416.833,311.444,408.733,275.306,394.3,241.75z M309.127,348.002c2.143-22.14,11.312-43.079,25.772-59.68
	c-4.699,19.519-7.266,39.48-7.679,59.68H309.127z M342.767,164.175c-14.269,38.51-24.216,78.485-29.682,119.313
	c-3.084,4.192-5.916,8.576-8.464,13.135c-8.828,15.798-14.127,33.385-15.569,51.379h-23.033
	C266.405,278.757,294.473,212.579,342.767,164.175z M292.108,106.64c-10.687,37.689-16.093,76.573-16.093,115.863
	c0,0.108,0.013,0.212,0.016,0.319c-1.971,3.924-3.848,7.894-5.631,11.907c-4.09-14.977-10.366-29.347-18.741-42.639
	c0.221-0.827,0.35-1.691,0.35-2.587C252.009,157.311,266.944,126.57,292.108,106.64z M176.686,151.401l0.75,0.358
	c47.38,22.644,78.1,71.021,78.544,123.475c-6.455,23.691-9.84,48.219-9.968,72.768h-22.379
	C222.193,279.977,206.1,212.686,176.686,151.401z M153.617,288.324c-4.699,19.519-7.266,39.48-7.678,59.679h-18.094
	C129.987,325.863,139.155,304.925,153.617,288.324z M124.949,245.966c-10.497,32.84-16.233,66.863-17.148,101.656
	c-0.01,0.127-0.021,0.254-0.031,0.381H87.004C87.995,310.501,101.607,274.585,124.949,245.966z M98.706,210.452
	c-3.927,14.484-5.958,29.503-5.958,44.443v1.877c0,0.2,0.018,0.396,0.03,0.594c-2.045,3.496-3.966,7.062-5.782,10.681
	c-1.961-5.365-4.351-10.554-7.125-15.525c0.077-0.499,0.129-1.007,0.129-1.527C80,235.076,86.945,220.412,98.706,210.452z
	 M32.463,230.679c24.888,15.55,40.626,43.099,41.008,72.761c-3.906,14.424-6.108,29.379-6.466,44.563h-7.917
	C57.797,307.59,48.72,267.643,32.463,230.679z M478,396.002H372c-18.748,0-34,15.252-34,34s15.252,34,34,34h53.086
	c7.72,0,14,6.28,14,14s-6.28,14-14,14H64c-7.72,0-14-6.28-14-14s6.28-14,14-14h33.779c18.748,0,34-15.252,34-34s-15.252-34-34-34H34
	c-7.72,0-14-6.28-14-14s6.28-14,14-14h444c7.72,0,14,6.28,14,14S485.72,396.002,478,396.002z"/>
<path d="M259.378,444.002h-80.991c-5.523,0-10,4.478-10,10s4.477,10,10,10h80.991c5.523,0,10-4.478,10-10
	S264.901,444.002,259.378,444.002z"/>
<path d="M300,444.002c-2.63,0-5.21,1.069-7.07,2.93c-1.86,1.86-2.93,4.44-2.93,7.07s1.07,5.21,2.93,7.069
	c1.86,1.86,4.44,2.931,7.07,2.931s5.21-1.07,7.07-2.931c1.86-1.859,2.93-4.439,2.93-7.069s-1.07-5.21-2.93-7.07
	S302.63,444.002,300,444.002z"/>
<path d="M311.972,396.002h-71.5c-5.523,0-10,4.478-10,10s4.477,10,10,10h71.5c5.523,0,10-4.478,10-10
	S317.495,396.002,311.972,396.002z"/>
<path d="M200.334,406.002c0-5.522-4.477-10-10-10h-30.415c-5.523,0-10,4.478-10,10s4.477,10,10,10h30.415
	C195.857,416.002,200.334,411.525,200.334,406.002z"/>
<path d="M10,96.001h93.146c5.523,0,10-4.477,10-10s-4.477-10-10-10H21.52c4.223-13.51,16.77-23.333,31.549-23.333
	c1.089,0,2.243,0.061,3.431,0.181c4.498,0.452,8.743-2.168,10.35-6.395c6.019-15.822,21.395-26.453,38.264-26.453
	c16.867,0,32.243,10.631,38.262,26.453c1.607,4.226,5.841,6.842,10.35,6.395c1.188-0.12,2.344-0.181,3.434-0.181
	c18.232,0,33.066,14.953,33.066,33.333c0,5.523,4.477,10,10,10H231c5.523,0,10-4.477,10-10s-4.477-10-10-10h-21.711
	c-4.555-24.035-25.21-42.405-50.218-43.299c-10.428-19.817-31.285-32.701-53.957-32.701c-22.674,0-43.532,12.884-53.96,32.701
	C22.776,33.719,0,57.237,0,86.001C0,91.524,4.477,96.001,10,96.001z"/>
<path d="M150.188,76.001c-5.523,0-10,4.477-10,10s4.477,10,10,10h0.145c5.523,0,10-4.477,10-10s-4.477-10-10-10H150.188z"/>
<path d="M348.986,86.001c0,5.523,4.477,10,10,10H502c5.523,0,10-4.477,10-10s-4.477-10-10-10H358.986
	C353.463,76.001,348.986,80.478,348.986,86.001z"/>
<path d="M282.75,52.002h152.471c5.523,0,10-4.477,10-10s-4.477-10-10-10H282.75c-5.523,0-10,4.477-10,10
	S277.227,52.002,282.75,52.002z"/>
<g>
</g>
<g>
</g>
<g>
</g>
<g>
</g>
<g>
</g>
<g>
</g>
<g>
</g>
<g>
</g>
<g>
</g>
<g>
</g>
<g>
</g>
<g>
</g>
<g>
</g>
<g>
</g>
<g>
</g>
</svg>
