<?xml version="1.0" encoding="iso-8859-1"?>
<!-- Generator: Adobe Illustrator 19.0.0, SVG Export Plug-In . SVG Version: 6.00 Build 0)  -->
<svg version="1.1" id="Capa_1" xmlns="http://www.w3.org/2000/svg" xmlns:xlink="http://www.w3.org/1999/xlink" x="0px" y="0px"
	 viewBox="0 0 512 512" style="enable-background:new 0 0 512 512;" xml:space="preserve">
<g>
	<path style="fill:#FAE196;" d="M355.131,300.865c24.425,27.308,15.516,74.949,15.454,75.338l0.007,0.008l-0.006-0.007l0.009,0.011
		l-0.006-0.007c-0.205,0.005-46.734,1.542-71.213-25.814c-24.464-27.353-16.691-74.087-16.642-74.288l-0.012-0.014
		C282.722,276.092,330.608,273.443,355.131,300.865z"/>
	<path style="fill:#FAE196;" d="M355.131,386.657c24.425,27.308,15.516,74.949,15.454,75.338l0.007,0.008l-0.006-0.007l0.009,0.011
		L370.589,462c-0.205,0.005-46.734,1.542-71.213-25.814c-24.464-27.353-16.691-74.087-16.642-74.288l-0.012-0.014
		C282.722,361.884,330.608,359.236,355.131,386.657z"/>
	<path style="fill:#FAE196;" d="M355.131,214.994c24.425,27.308,15.516,74.949,15.454,75.338l0.007,0.008l-0.006-0.007l0.009,0.011
		l-0.006-0.007c-0.205,0.005-46.734,1.542-71.213-25.814c-24.464-27.353-16.691-74.087-16.642-74.288l-0.012-0.014
		C282.722,190.221,330.608,187.573,355.131,214.994z"/>
</g>
<g>
	<path style="fill:#F5C86E;" d="M461.813,276.092l-0.012,0.014c0.049,0.201,7.823,46.935-16.642,74.288
		c-24.48,27.356-71.008,25.819-71.213,25.814l-0.006,0.007l0.009-0.011l-0.006,0.007l0.007-0.008
		c-0.062-0.389-8.971-48.03,15.454-75.338C413.927,273.443,461.813,276.092,461.813,276.092z"/>
	<path style="fill:#F5C86E;" d="M461.813,361.884l-0.012,0.014c0.049,0.201,7.823,46.935-16.642,74.288
		c-24.48,27.356-71.008,25.819-71.213,25.814l-0.006,0.007l0.009-0.011l-0.006,0.007l0.007-0.008
		c-0.062-0.389-8.971-48.03,15.454-75.338C413.927,359.236,461.813,361.884,461.813,361.884z"/>
	<path style="fill:#F5C86E;" d="M461.813,190.221l-0.012,0.014c0.049,0.201,7.823,46.935-16.642,74.288
		c-24.48,27.356-71.008,25.819-71.213,25.814l-0.006,0.007l0.009-0.011l-0.006,0.007l0.007-0.008
		c-0.062-0.389-8.971-48.03,15.454-75.338C413.927,187.573,461.813,190.221,461.813,190.221z"/>
</g>
<g>
	<path style="fill:#FAE196;" d="M122.643,300.865c24.425,27.308,15.516,74.949,15.454,75.338l0.007,0.008l-0.006-0.007l0.009,0.011
		l-0.006-0.007c-0.205,0.005-46.734,1.542-71.213-25.814c-24.464-27.353-16.691-74.087-16.642-74.288l-0.012-0.014
		C50.234,276.092,98.12,273.443,122.643,300.865z"/>
	<path style="fill:#FAE196;" d="M122.643,386.657c24.425,27.308,15.516,74.949,15.454,75.338l0.007,0.008l-0.006-0.007l0.009,0.011
		L138.102,462c-0.205,0.005-46.734,1.542-71.213-25.814c-24.464-27.353-16.691-74.087-16.642-74.288l-0.012-0.014
		C50.234,361.884,98.12,359.236,122.643,386.657z"/>
	<path style="fill:#FAE196;" d="M122.643,214.994c24.425,27.308,15.516,74.949,15.454,75.338l0.007,0.008l-0.006-0.007l0.009,0.011
		l-0.006-0.007c-0.205,0.005-46.734,1.542-71.213-25.814c-24.464-27.353-16.691-74.087-16.642-74.288l-0.012-0.014
		C50.234,190.221,98.12,187.573,122.643,214.994z"/>
</g>
<g>
	<path style="fill:#F5C86E;" d="M229.326,276.092l-0.012,0.014c0.049,0.201,7.823,46.935-16.642,74.288
		c-24.48,27.356-71.008,25.819-71.213,25.814l-0.006,0.007l0.009-0.011l-0.006,0.007l0.007-0.008
		c-0.062-0.389-8.971-48.03,15.454-75.338C181.44,273.443,229.326,276.092,229.326,276.092z"/>
	<path style="fill:#F5C86E;" d="M229.326,361.884l-0.012,0.014c0.049,0.201,7.823,46.935-16.642,74.288
		c-24.48,27.356-71.008,25.819-71.213,25.814l-0.006,0.007l0.009-0.011l-0.006,0.007l0.007-0.008
		c-0.062-0.389-8.971-48.03,15.454-75.338C181.44,359.236,229.326,361.884,229.326,361.884z"/>
	<path style="fill:#F5C86E;" d="M229.326,190.221l-0.012,0.014c0.049,0.201,7.823,46.935-16.642,74.288
		c-24.48,27.356-71.008,25.819-71.213,25.814l-0.006,0.007l0.009-0.011l-0.006,0.007l0.007-0.008
		c-0.062-0.389-8.971-48.03,15.454-75.338C181.44,187.573,229.326,190.221,229.326,190.221z"/>
</g>
<path style="fill:#FAE196;" d="M122.643,129.089c24.425,27.308,15.516,74.949,15.454,75.338l0.007,0.008l-0.006-0.007l0.009,0.011
	l-0.006-0.007c-0.205,0.005-46.734,1.542-71.213-25.814c-24.464-27.353-16.691-74.087-16.642-74.288l-0.012-0.014
	C50.234,104.316,98.12,101.668,122.643,129.089z"/>
<path style="fill:#F5C86E;" d="M229.326,104.316l-0.012,0.014c0.049,0.201,7.823,46.935-16.642,74.288
	c-24.48,27.356-71.008,25.819-71.213,25.814l-0.006,0.007l0.009-0.011l-0.006,0.007l0.007-0.008
	c-0.062-0.389-8.971-48.03,15.454-75.338C181.44,101.668,229.326,104.316,229.326,104.316z"/>
<path d="M239.26,275.38c-0.069-1.15-0.337-2.299-0.813-3.392c-1.508-3.466-4.842-5.786-8.617-5.994
	c-0.389-0.022-2.38-0.119-5.533-0.083c20.351-28.036,16.219-67.532,14.963-76.319c-0.065-1.096-0.311-2.191-0.746-3.239
	c-1.473-3.548-4.848-5.939-8.684-6.152c-0.392-0.021-2.406-0.119-5.594-0.081c20.418-28.041,16.281-67.604,15.024-76.399
	c-0.065-1.096-0.311-2.191-0.746-3.239c-1.473-3.548-4.848-5.939-8.684-6.152c-1.104-0.06-15.062-0.733-32.091,2.781V64
	c0-5.523-4.477-10-10-10s-10,4.477-10,10v39.113c-10.137,4.146-20.079,10.203-28.07,19.035V64c0-5.523-4.477-10-10-10
	s-10,4.477-10,10v58.01c-8.003-8.792-17.942-14.824-28.07-18.95V64c0-5.523-4.477-10-10-10s-10,4.477-10,10v33.086
	c-16.971-3.484-30.861-2.815-31.964-2.755c-3.836,0.212-7.206,2.61-8.678,6.159c-0.42,1.014-0.664,2.072-0.738,3.133
	c-1.239,8.591-5.486,48.348,15.01,76.498c-3.188-0.038-5.202,0.06-5.594,0.082c-3.836,0.212-7.206,2.61-8.678,6.159
	c-0.42,1.014-0.664,2.072-0.738,3.133c-1.238,8.583-5.479,48.274,14.95,76.418c-3.153-0.036-5.145,0.061-5.534,0.083
	c-3.775,0.208-7.103,2.535-8.611,6.002c-0.46,1.058-0.726,2.167-0.804,3.282c-1.247,8.596-5.519,48.352,15.029,76.532
	c-3.2-0.039-5.221,0.06-5.614,0.082c-3.836,0.212-7.206,2.609-8.678,6.158c-0.42,1.015-0.664,2.072-0.738,3.133
	c-1.317,9.131-6.041,53.476,19.17,81.663c20.901,23.357,54.303,28.094,70.28,28.979V492H10c-5.523,0-10,4.478-10,10s4.477,10,10,10
	h206c5.523,0,10-4.478,10-10s-4.477-10-10-10h-66.331v-20.197c9.08-0.526,24.023-2.313,39.054-8.116
	c5.152-1.989,7.716-7.779,5.727-12.931c-1.99-5.152-7.778-7.717-12.931-5.728c-11.73,4.529-23.584,6.136-31.295,6.693
	c-1.152-13.838-1.151-41.356,14.1-58.407c15.267-17.071,42.249-20.667,55.935-21.353c0.446,7.333,0.458,18.624-2.108,30.275
	c-1.188,5.394,2.221,10.729,7.614,11.917c5.398,1.19,10.729-2.222,11.917-7.614c4.464-20.265,2.438-40.181,1.538-45.753
	c-0.102-0.93-0.335-1.854-0.705-2.744c-1.473-3.549-4.848-5.939-8.684-6.151c-0.392-0.022-2.414-0.121-5.614-0.082
	C244.686,323.743,240.525,284.184,239.26,275.38z M88.409,291.125c2.279,0.949,4.56,1.797,6.828,2.561
	c7.361,3.151,14.383,7.557,19.905,13.731c0,0,0,0,0,0.001c11.537,12.899,14.342,31.797,14.527,46.227v3.258
	c-0.045,3.329-0.216,6.348-0.428,8.9c-13.461-0.996-39.706-5.158-54.947-22.188c-15.343-17.156-15.93-44.063-15.089-57.572
	C66.447,286.391,77.415,287.554,88.409,291.125z M164.323,307.418c5.6-6.262,12.778-10.705,20.296-13.862
	c1.956-0.668,3.921-1.399,5.885-2.203c11.169-3.702,22.387-4.919,29.757-5.288c0.838,13.516,0.246,40.402-15.089,57.547
	c-15.239,17.03-41.477,21.194-54.95,22.19C149.071,351.958,149.08,324.46,164.323,307.418z M179.767,273.968
	c-11.066,3.984-22.194,5.481-29.546,6.031c-1.148-13.849-1.135-41.338,14.102-58.374c15.266-17.07,42.244-20.667,55.938-21.353
	c0.838,13.518,0.243,40.404-15.089,57.547c-6.481,7.243-14.973,12.152-23.628,15.486
	C180.952,273.521,180.359,273.741,179.767,273.968z M164.323,135.755c15.266-17.07,42.244-20.667,55.938-21.353
	c0.838,13.518,0.243,40.404-15.089,57.547c-15.218,17.006-41.461,21.181-54.951,22.185
	C149.072,180.287,149.083,152.795,164.323,135.755z M59.205,114.38c13.665,0.656,40.589,4.213,55.937,21.375l0,0
	c11.534,12.896,14.341,31.786,14.527,46.214v3.276c-0.045,3.325-0.216,6.34-0.427,8.89c-13.468-1.002-39.726-5.174-54.947-22.184
	C58.952,154.797,58.365,127.891,59.205,114.38z M74.294,257.821c-15.343-17.154-15.929-44.06-15.089-57.57
	c13.665,0.656,40.589,4.213,55.937,21.375l0,0c11.564,12.929,14.354,31.889,14.527,46.332v3.107
	c-0.044,3.343-0.215,6.374-0.427,8.936c-7.328-0.549-18.439-2.041-29.497-6.016c-0.621-0.238-1.242-0.469-1.862-0.694
	C89.242,269.959,80.766,265.054,74.294,257.821z M74.294,429.513c-15.333-17.146-15.929-44.031-15.091-57.549
	c13.694,0.686,40.672,4.282,55.938,21.352v0.001c11.533,12.894,14.34,31.781,14.527,46.208v3.285
	c-0.045,3.322-0.216,6.335-0.427,8.884C115.767,450.684,89.499,446.504,74.294,429.513z"/>
<path d="M219.287,428.722c-4.119-3.679-10.44-3.322-14.12,0.794c-0.208,0.233-0.418,0.463-0.629,0.689
	c-3.764,4.042-3.539,10.369,0.502,14.133c1.927,1.795,4.373,2.683,6.813,2.683c2.679,0,5.351-1.07,7.32-3.185
	c0.305-0.328,0.608-0.659,0.908-0.994C223.761,438.723,223.405,432.401,219.287,428.722z"/>
<path d="M372.2,134.4c-2.63,0-5.21,1.07-7.07,2.93c-1.86,1.86-2.93,4.44-2.93,7.07s1.07,5.21,2.93,7.07s4.44,2.93,7.07,2.93
	c2.64,0,5.22-1.07,7.08-2.93s2.93-4.44,2.93-7.07s-1.07-5.21-2.93-7.07C377.42,135.47,374.84,134.4,372.2,134.4z"/>
<path d="M447.671,20c9.464,0,17.164,7.7,17.164,17.165c0,5.523,4.477,10,10,10s10-4.477,10-10C484.835,27.7,492.536,20,502,20
	c5.523,0,10-4.477,10-10s-4.477-10-10-10c-10.713,0-20.376,4.562-27.165,11.839C468.047,4.562,458.384,0,447.671,0
	c-5.523,0-10,4.477-10,10S442.148,20,447.671,20z"/>
<path d="M293.329,36.835c0-5.523-4.477-10-10-10c-10.713,0-20.375,4.562-27.164,11.839c-6.789-7.277-16.451-11.839-27.165-11.839
	c-5.523,0-10,4.477-10,10s4.477,10,10,10c9.464,0,17.165,7.7,17.165,17.165c0,5.523,4.477,10,10,10c5.523,0,10-4.477,10-10
	c0-9.464,7.7-17.165,17.164-17.165C288.852,46.835,293.329,42.358,293.329,36.835z"/>
<path d="M345.04,74c9.464,0,17.165,7.7,17.165,17.165c0,5.523,4.477,10,10,10s10-4.477,10-10c0-9.464,7.7-17.165,17.164-17.165
	c5.523,0,10-4.477,10-10s-4.477-10-10-10c-10.713,0-20.375,4.562-27.164,11.839C365.416,58.562,355.753,54,345.04,54
	c-5.523,0-10,4.477-10,10S339.517,74,345.04,74z"/>
<path d="M502,492H382.204v-20.208c15.798-0.948,49.659-5.751,70.409-28.939c25.118-28.084,20.519-72.213,19.183-81.563
	c-0.065-1.096-0.311-2.19-0.746-3.239c-1.473-3.549-4.848-5.939-8.684-6.151c-0.389-0.022-2.381-0.119-5.533-0.083
	c20.351-28.035,16.219-67.532,14.963-76.319c-0.065-1.096-0.311-2.19-0.746-3.239c-1.473-3.549-4.848-5.939-8.684-6.151
	c-0.392-0.022-2.406-0.12-5.594-0.082c20.417-28.04,16.281-67.603,15.024-76.398c-0.065-1.096-0.311-2.191-0.746-3.239
	c-1.473-3.548-4.848-5.939-8.684-6.152c-1.105-0.06-15.063-0.733-32.091,2.781v-38.615c0-5.523-4.477-10-10-10s-10,4.477-10,10
	v44.615c-10.137,4.146-20.079,10.203-28.07,19.035V176.5c0-5.523-4.477-10-10-10s-10,4.477-10,10v31.415
	c-8.003-8.792-17.942-14.824-28.07-18.95v-44.563c0-5.523-4.477-10-10-10s-10,4.477-10,10v38.589
	c-16.97-3.484-30.861-2.815-31.964-2.755c-3.836,0.212-7.206,2.61-8.678,6.159c-0.42,1.014-0.664,2.072-0.738,3.133
	c-1.239,8.59-5.485,48.346,15.009,76.496c-3.188-0.038-5.201,0.061-5.593,0.083c-3.836,0.212-7.206,2.609-8.678,6.158
	c-0.42,1.015-0.664,2.072-0.738,3.133c-1.238,8.583-5.479,48.274,14.95,76.418c-3.153-0.036-5.144,0.061-5.534,0.083
	c-3.836,0.212-7.206,2.609-8.678,6.158c-0.42,1.015-0.664,2.072-0.738,3.133c-1.317,9.131-6.041,53.477,19.17,81.665
	c20.698,23.13,54.441,27.965,70.28,28.929V492H297c-5.523,0-10,4.478-10,10s4.477,10,10,10h205c5.523,0,10-4.478,10-10
	S507.523,492,502,492z M437.707,429.518c-15.239,17.03-41.475,21.194-54.948,22.19c-1.148-13.848-1.137-41.35,14.1-58.385
	c5.6-6.262,12.777-10.705,20.295-13.862c1.957-0.668,3.922-1.399,5.887-2.203c11.168-3.702,22.386-4.918,29.755-5.287
	C453.634,385.488,453.04,412.375,437.707,429.518z M412.294,359.876c-11.062,3.982-22.186,5.478-29.536,6.028
	c-1.147-13.851-1.132-41.343,14.101-58.374c15.266-17.069,42.244-20.666,55.938-21.353c0.838,13.519,0.243,40.404-15.089,57.548
	c-6.48,7.241-14.969,12.15-23.622,15.484C413.488,359.426,412.891,359.647,412.294,359.876z M396.858,221.66
	c15.266-17.07,42.244-20.667,55.938-21.353c0.838,13.518,0.243,40.404-15.089,57.547c-15.239,17.03-41.475,21.194-54.948,22.19
	C381.61,266.197,381.622,238.695,396.858,221.66z M291.74,200.286c13.665,0.656,40.589,4.213,55.937,21.375l0,0
	c11.439,12.79,14.298,31.469,14.527,45.846v3.805c-0.049,3.263-0.217,6.225-0.426,8.735c-13.46-0.995-39.707-5.156-54.949-22.188
	C291.487,240.702,290.9,213.796,291.74,200.286z M306.83,343.727c-15.334-17.144-15.929-44.03-15.091-57.548
	c13.694,0.686,40.672,4.282,55.938,21.352c0,0,0,0,0,0.001c11.452,12.803,14.304,31.507,14.527,45.89v3.739
	c-0.048,3.267-0.217,6.234-0.425,8.747c-7.327-0.549-18.438-2.04-29.495-6.015c-0.623-0.239-1.245-0.471-1.868-0.696
	C321.776,355.863,313.301,350.958,306.83,343.727z M306.83,429.521c-15.343-17.155-15.929-44.062-15.089-57.572
	c7.242,0.348,18.209,1.511,29.204,5.082c2.279,0.949,4.561,1.797,6.829,2.562c7.361,3.151,14.382,7.557,19.904,13.731
	c0,0,0,0,0,0.001c11.439,12.79,14.298,31.468,14.527,45.845v3.805c-0.049,3.263-0.217,6.225-0.426,8.735
	C348.318,450.714,322.071,446.553,306.83,429.521z"/>
<path d="M257,492c-2.63,0-5.21,1.069-7.07,2.93c-1.86,1.86-2.93,4.44-2.93,7.07s1.07,5.21,2.93,7.069
	c1.86,1.86,4.44,2.931,7.07,2.931s5.21-1.07,7.07-2.931c1.86-1.859,2.93-4.439,2.93-7.069s-1.07-5.21-2.93-7.07S259.63,492,257,492z
	"/>
<g>
</g>
<g>
</g>
<g>
</g>
<g>
</g>
<g>
</g>
<g>
</g>
<g>
</g>
<g>
</g>
<g>
</g>
<g>
</g>
<g>
</g>
<g>
</g>
<g>
</g>
<g>
</g>
<g>
</g>
</svg>
