<?xml version="1.0" encoding="iso-8859-1"?>
<!-- Generator: Adobe Illustrator 19.0.0, SVG Export Plug-In . SVG Version: 6.00 Build 0)  -->
<svg version="1.1" id="Capa_1" xmlns="http://www.w3.org/2000/svg" xmlns:xlink="http://www.w3.org/1999/xlink" x="0px" y="0px"
	 viewBox="0 0 512 512" style="enable-background:new 0 0 512 512;" xml:space="preserve">
<path style="fill:#32C8AF;" d="M450.779,180.755h-1.169c-26.592,0-49.34-19.104-53.937-45.295l0,0
	c-2.111-12.029-0.141-24.419,5.598-35.199l47.173-88.613h-0.025l47.173,88.613c5.739,10.781,7.709,23.17,5.598,35.199l0,0
	c-4.597,26.192-27.345,45.295-53.937,45.295h-1.169"/>
<circle style="fill:#FF5A5A;" cx="255.902" cy="300.484" r="143.945"/>
<path style="fill:#FAE196;" d="M501.807,501.905V220.198c-178.526,0.029-329.297,118.841-377.586,281.707L501.807,501.905
	L501.807,501.905z"/>
<g>
	<path style="fill:#F5C86E;" d="M208.644,501.905l120.23,0.004l0.005-0.003l-32.323-0.002
		c39.706-72.541,116.728-121.743,205.251-121.768v-79.969C367.999,300.195,253.777,383.961,208.644,501.905z"/>
	<path style="fill:#F5C86E;" d="M25.185,220.198c-5.086,0-10.15,0.097-15.189,0.288v281.42h114.225
		c24.065-81.166,73.588-151.386,139.31-201.419C197.361,250.11,114.768,220.198,25.185,220.198z"/>
</g>
<path style="fill:#32C8AF;" d="M66.759,181.723h-1.186c-26.989,0-50.076-19.389-54.741-45.97l0,0
	c-2.143-12.208-0.143-24.783,5.682-35.724L64.39,10.094h-0.025l47.876,89.934c5.825,10.942,7.824,23.516,5.682,35.724l0,0
	c-4.665,26.582-27.753,45.97-54.741,45.97h-1.186"/>
<path d="M501.806,210.202c-14.698,0.002-29.309,0.805-43.794,2.369v-22.715c26.691-4.457,48.209-25.235,53.024-52.667
	c2.484-14.157,0.134-28.939-6.62-41.626L457.469,7.376c-0.141-0.298-0.297-0.59-0.468-0.875c-1.807-3.009-5.072-4.85-8.582-4.85
	c-3.51,0-6.762,1.841-8.57,4.85c-0.205,0.34-0.387,0.689-0.547,1.046l-46.856,88.016c-6.753,12.686-9.104,27.468-6.62,41.626
	c4.765,27.147,25.887,47.776,52.192,52.522v25.529c-16.036,2.547-31.885,6.063-47.491,10.531
	c-20.486-36.906-55.088-63.795-96.111-74.365c-5.35-1.38-10.797,1.84-12.174,7.185c-1.377,5.346,1.839,10.797,7.185,12.174
	c34.343,8.849,63.513,30.855,81.551,61.125c-38.454,13.168-74.566,32.042-107.45,56.125c-32.794-24.02-68.804-42.853-107.147-56.019
	c-4.309-1.479-8.646-2.866-12.997-4.196c16.798-25.87,42.397-45.598,71.807-54.969c5.26-1.676,8.166-7.299,6.49-12.559
	c-1.676-5.26-7.296-8.163-12.559-6.491c-35.777,11.399-66.646,36.124-85.8,68.439c-16.238-4.056-32.717-7.09-49.375-9.094V190.83
	c27.085-4.469,48.933-25.529,53.816-53.35c2.516-14.333,0.135-29.303-6.704-42.15L73.415,5.823c-0.141-0.297-0.297-0.59-0.469-0.875
	c-1.807-3.009-5.072-4.85-8.582-4.85c-3.51,0-6.762,1.84-8.57,4.849c-0.205,0.34-0.387,0.69-0.547,1.046L7.689,95.332
	c-6.839,12.847-9.219,27.816-6.703,42.15c4.832,27.532,26.278,48.444,52.973,53.208v20.542c-9.547-0.672-19.14-1.03-28.773-1.03
	c-5.172,0-10.41,0.099-15.569,0.295C4.247,210.7,0,215.112,0,220.486v240.309c0,0.007,0,0.015,0,0.022v41.089
	c0,5.52,4.475,9.996,9.996,9.996h491.811c5.521,0,9.996-4.476,9.996-9.996V220.198c0-2.651-1.054-5.194-2.929-7.069
	C507,211.254,504.457,210.202,501.806,210.202z M405.518,133.732c-1.717-9.786-0.092-20.005,4.576-28.775l38.337-72.014
	l38.336,72.014c4.668,8.77,6.294,18.989,4.576,28.775c-3.126,17.812-16.438,31.568-33.332,35.725v-19.649l17.147-17.147
	c3.904-3.904,3.904-10.233,0-14.138c-3.904-3.903-10.233-3.903-14.138,0l-3.011,3.011v-19.601c0-5.521-4.475-9.996-9.996-9.996
	c-5.521,0-9.996,4.475-9.996,9.996v19.976l-3.386-3.386c-3.904-3.903-10.233-3.903-14.138,0c-3.903,3.903-3.903,10.233,0,14.138
	l17.522,17.522v19.054C421.522,164.836,408.593,151.249,405.518,133.732z M20.678,134.025c-1.749-9.963-0.094-20.368,4.659-29.299
	L64.376,31.39l39.04,73.335c4.753,8.931,6.409,19.336,4.66,29.3c-3.195,18.201-16.835,32.24-34.125,36.419v-20.448l17.334-17.335
	c3.904-3.904,3.904-10.233,0-14.137c-3.903-3.903-10.233-3.903-14.137,0l-3.198,3.198v-19.996c0-5.521-4.475-9.996-9.996-9.996
	s-9.996,4.475-9.996,9.996v19.996l-3.198-3.198c-3.903-3.903-10.233-3.903-14.138,0c-3.903,3.903-3.903,10.233,0,14.138
	l17.335,17.335v20.232C37.071,165.801,23.82,151.929,20.678,134.025z M314.184,491.909
	c39.337-60.384,105.414-98.306,177.627-101.543v60.06c-36.861,2.239-71.668,16.741-99.278,41.482L314.184,491.909L314.184,491.909z
	 M25.185,230.194c33.89,0,67.071,4.346,98.997,12.817c1.02,0.456,2.076,0.735,3.138,0.833
	c42.641,11.706,82.989,30.824,119.711,56.912l0.007,0.002c-15.927,12.966-30.802,27.087-44.543,42.259
	c-52.747-34.595-113.851-52.846-177.31-52.846c-1.707,0-3.445,0.02-5.193,0.049v-59.992
	C21.728,230.205,23.46,230.194,25.185,230.194z M120.579,480.72c-27.702-19.826-61.06-30.609-95.393-30.609
	c-1.724,0-3.458,0.038-5.193,0.093v-59.998c1.755-0.043,3.495-0.072,5.193-0.072c42.755,0,83.981,11.982,119.802,34.733
	C135.44,442.835,127.297,461.496,120.579,480.72z M154.829,407.441c-38.827-24.432-83.417-37.301-129.644-37.301
	c-1.702,0-3.441,0.027-5.193,0.067v-59.991c1.75-0.031,3.489-0.052,5.193-0.052c58.653,0,115.162,16.608,164.136,48.124
	c-6.656,8.13-13.008,16.527-19.038,25.182C164.834,391.293,159.693,399.294,154.829,407.441z M19.992,470.207
	c1.736-0.063,3.471-0.105,5.193-0.105c27.077,0,53.459,7.639,76.174,21.807H19.992V470.207z M491.811,230.328v59.998
	c-47.236,1.414-92.5,12.807-134.69,33.924c-4.936,2.471-6.935,8.476-4.464,13.413c1.752,3.501,5.281,5.524,8.947,5.524
	c1.503,0,3.03-0.341,4.466-1.06c39.387-19.714,81.642-30.389,125.742-31.797v60.026c-83.278,3.426-159.169,49.2-201.087,121.552
	h-67.155c16.65-37.808,41.193-72.354,71.583-100.58c4.045-3.758,4.278-10.082,0.522-14.128c-3.757-4.045-10.082-4.278-14.128-0.521
	c-34.523,32.065-61.968,71.789-79.69,115.229h-63.993C188.759,340.313,331.583,234.587,491.811,230.328z M425.678,491.909
	c19.874-12.431,42.505-19.819,66.133-21.456v21.456H425.678z"/>
<path d="M322.575,366.4c1.957,0,3.936-0.574,5.668-1.77l0.349-0.242c4.522-3.166,5.623-9.398,2.457-13.922
	c-3.166-4.521-9.397-5.623-13.922-2.457l-0.238,0.166c-4.544,3.136-5.686,9.36-2.551,13.905
	C316.278,364.89,319.4,366.4,322.575,366.4z"/>
<path d="M255.114,166.539c0.019,0,0.038,0,0.057,0l0.731-0.002c5.521,0,9.996-4.475,9.996-9.996c0-5.521-4.475-9.996-9.996-9.996
	l-0.843,0.002c-5.521,0.031-9.971,4.531-9.94,10.052C245.15,162.101,249.619,166.539,255.114,166.539z"/>
<path d="M255.892,120.751c5.521,0,9.996-4.475,9.996-9.996V62.127c0-5.521-4.475-9.996-9.996-9.996
	c-5.521,0-9.996,4.475-9.996,9.996v48.628C245.895,116.276,250.371,120.751,255.892,120.751z"/>
<path d="M171.323,138.785c1.952,1.95,4.508,2.925,7.065,2.925c2.56,0,5.12-0.978,7.071-2.931c3.902-3.906,3.898-10.235-0.006-14.137
	l-20.967-20.947c-3.907-3.902-10.236-3.899-14.137,0.006c-3.903,3.905-3.898,10.235,0.006,14.137L171.323,138.785z"/>
<path d="M333.732,141.464c2.56,0,5.12-0.978,7.072-2.932l20.804-20.825c3.902-3.905,3.898-10.235-0.007-14.137
	c-3.906-3.901-10.235-3.899-14.137,0.007l-20.804,20.825c-3.902,3.906-3.898,10.235,0.007,14.137
	C328.619,140.49,331.176,141.464,333.732,141.464z"/>
<g>
</g>
<g>
</g>
<g>
</g>
<g>
</g>
<g>
</g>
<g>
</g>
<g>
</g>
<g>
</g>
<g>
</g>
<g>
</g>
<g>
</g>
<g>
</g>
<g>
</g>
<g>
</g>
<g>
</g>
</svg>
