<?xml version="1.0" encoding="iso-8859-1"?>
<!-- Generator: Adobe Illustrator 19.0.0, SVG Export Plug-In . SVG Version: 6.00 Build 0)  -->
<svg version="1.1" id="Capa_1" xmlns="http://www.w3.org/2000/svg" xmlns:xlink="http://www.w3.org/1999/xlink" x="0px" y="0px"
	 viewBox="0 0 511.999 511.999" style="enable-background:new 0 0 511.999 511.999;" xml:space="preserve">
<path style="fill:#A5DC69;" d="M325.354,478.609c34.183,34.183,74.015,20.76,74.015,20.76s13.422-39.832-20.76-74.015
	s-73.628-20.796-74.017-20.762C304.592,404.591,291.171,444.425,325.354,478.609z"/>
<path style="fill:#46C373;" d="M499.327,404.591c-0.389-0.034-39.834-13.421-74.017,20.762s-20.76,74.015-20.76,74.015
	s39.832,13.423,74.015-20.76S499.327,404.591,499.327,404.591z"/>
<path style="fill:#E68CBE;" d="M483.862,233.135c17.612-12.316,23.353-35.948,12.632-54.519
	c-10.737-18.598-34.127-25.433-53.617-16.279c-1.861-21.41-19.456-38.199-40.899-38.199c-21.475,0-39.089,16.839-40.906,38.294
	c-19.472-9.094-42.809-2.251-53.531,16.32c-10.737,18.598-4.962,42.272,12.711,54.573c-17.612,12.316-23.353,35.948-12.632,54.519
	c10.737,18.598,34.127,25.433,53.617,16.279c1.861,21.41,19.456,38.199,40.899,38.199c21.475,0,39.089-16.839,40.906-38.294
	c19.471,9.094,42.809,2.251,53.531-16.32C507.31,269.111,501.535,245.436,483.862,233.135z"/>
<circle style="fill:#F5B955;" cx="402.06" cy="233.232" r="32.088"/>
<circle style="fill:#6E6E6E;" cx="205.215" cy="202.445" r="17.282"/>
<path style="fill:#F5B955;" d="M44.952,362.707l48.121-11.369c30.876-7.294,59.111-23.04,81.544-45.474l0,0
	c15.502-15.502,25.758-35.469,29.331-57.099l0,0c4.375-26.485-18.571-49.43-45.056-45.056l0,0
	c-21.629,3.572-41.597,13.829-57.099,29.331l0,0C79.36,255.475,63.614,283.71,56.32,314.585L44.952,362.707z"/>
<g>
	<path style="fill:#6E6E6E;" d="M125.938,339.925l-58.204-58.204c-4.888,10.493-8.727,21.497-11.413,32.865l-11.369,48.121
		l48.121-11.369C104.44,348.652,115.444,344.813,125.938,339.925z"/>
	<path style="fill:#6E6E6E;" d="M121.813,217.393c-7.239,4.366-13.973,9.601-20.019,15.648l0,0
		c-3.678,3.678-7.155,7.525-10.466,11.5l71.79,71.79c3.976-3.31,7.823-6.788,11.501-10.466l0,0
		c6.047-6.047,11.283-12.78,15.648-20.019L121.813,217.393z"/>
</g>
<path style="fill:#C8F5FF;" d="M160.4,318.589l13.806,45.238c3.112,10.196,9.543,19.061,18.272,25.182l0,0
	c18.722,13.131,44.064,11.132,60.505-4.623c15.755-16.442,17.754-41.784,4.623-60.505l0,0c-6.122-8.728-14.986-15.159-25.182-18.272
	l-43.369-13.236L160.4,318.589z"/>
<g>
	<path style="fill:#F5B955;" d="M252.272,385.13l1.455-1.455c-0.244,0.244-0.496,0.474-0.744,0.711
		C252.746,384.634,252.516,384.887,252.272,385.13z"/>
	<path style="fill:#F5B955;" d="M22.552,155.41c0.244-0.244,0.496-0.474,0.744-0.711c0.237-0.248,0.468-0.5,0.711-0.744
		L22.552,155.41z"/>
</g>
<path style="fill:#C8F5FF;" d="M115.309,218.627l-13.236-43.369c-3.112-10.196-9.543-19.061-18.272-25.182
	c-18.722-13.131-44.064-11.132-60.505,4.623c-15.755,16.442-17.754,41.784-4.623,60.505c6.122,8.728,14.985,15.159,25.182,18.272
	l45.238,13.806L115.309,218.627z"/>
<circle style="fill:#E6AA46;" cx="178.267" cy="77.734" r="23.998"/>
<path d="M444.144,233.231c0-23.206-18.88-42.087-42.087-42.087s-42.087,18.88-42.087,42.087c0,23.206,18.88,42.086,42.087,42.086
	S444.144,256.437,444.144,233.231z M402.058,255.319c-12.179,0-22.088-9.908-22.088-22.087c0-12.179,9.909-22.088,22.088-22.088
	c12.179,0,22.088,9.909,22.088,22.088C424.146,245.41,414.238,255.319,402.058,255.319z"/>
<path d="M501.873,394.921c-7.828-2.281-48.463-11.807-83.634,23.361c-2.28,2.28-4.366,4.582-6.285,6.894v-73.823
	c9.242-1.833,17.841-6.238,24.863-12.855c6.333-5.967,11.014-13.372,13.714-21.531c8.399,1.72,17.132,1.354,25.442-1.151
	c12.426-3.744,22.817-11.951,29.259-23.108c6.452-11.174,8.359-24.296,5.371-36.946c-2.001-8.467-6.074-16.225-11.79-22.643
	c5.688-6.416,9.737-14.16,11.724-22.608c2.97-12.633,1.058-25.735-5.384-36.893c-6.452-11.175-16.862-19.388-29.312-23.123
	c-8.333-2.502-17.087-2.854-25.504-1.111c-2.712-8.133-7.394-15.513-13.718-21.457c-9.456-8.889-21.758-13.784-34.642-13.784
	c-12.903,0-25.22,4.909-34.681,13.823c-6.333,5.967-11.014,13.372-13.714,21.531c-8.4-1.72-17.133-1.353-25.442,1.151
	c-12.426,3.745-22.817,11.951-29.259,23.108c-6.452,11.175-8.359,24.296-5.371,36.947c2,8.467,6.074,16.225,11.79,22.643
	c-5.689,6.416-9.738,14.16-11.724,22.608c-2.971,12.633-1.059,25.736,5.384,36.893c6.451,11.175,16.862,19.387,29.311,23.123
	c8.334,2.503,17.089,2.854,25.504,1.111c2.712,8.134,7.394,15.514,13.718,21.458c6.923,6.509,15.376,10.864,24.461,12.737v73.891
	c-1.917-2.31-4.001-4.609-6.277-6.885c-35.031-35.031-75.485-25.717-83.631-23.362c-3.217,0.846-5.848,3.256-6.933,6.479
	c-0.629,1.866-14.963,46.15,23.168,84.28l0,0c21.504,21.504,44.964,26.321,61.669,26.321c11.437-0.001,19.698-2.256,22.006-2.963
	c2.309,0.708,10.567,2.962,22.007,2.962c16.706,0,40.167-4.819,61.669-26.32c38.13-38.13,23.796-82.414,23.167-84.28
	C507.717,398.177,505.088,395.767,501.873,394.921z M371.2,303.257c-0.283-3.256-2.14-6.169-4.972-7.799
	c-1.541-0.887-3.263-1.334-4.991-1.334c-1.449,0-2.901,0.314-4.251,0.949c-14.843,6.972-32.722,1.601-40.706-12.228
	c-8.098-14.027-3.928-31.794,9.703-41.326c2.679-1.873,4.272-4.937,4.269-8.205s-1.604-6.329-4.287-8.195
	c-13.459-9.367-17.748-27.538-9.764-41.367c8.098-14.027,25.569-19.297,40.64-12.26c2.962,1.384,6.413,1.231,9.24-0.406
	c2.829-1.638,4.679-4.554,4.955-7.81c1.384-16.339,14.975-29.139,30.943-29.139c16.198,0,29.498,12.495,30.937,29.065
	c0.283,3.256,2.139,6.169,4.972,7.799c2.832,1.632,6.283,1.776,9.241,0.386c14.842-6.973,32.723-1.602,40.706,12.228
	c8.098,14.027,3.927,31.793-9.703,41.325c-2.679,1.873-4.272,4.937-4.269,8.205s1.604,6.329,4.287,8.195
	c13.459,9.368,17.748,27.538,9.764,41.366c-8.099,14.027-25.57,19.296-40.641,12.26c-2.962-1.384-6.413-1.231-9.24,0.406
	c-2.829,1.637-4.679,4.554-4.955,7.81c-1.383,16.34-14.975,29.14-30.942,29.14C385.94,332.324,372.64,319.829,371.2,303.257z
	 M332.425,471.537c-22.727-22.727-21.436-47.958-19.561-58.607c11.336-1.993,36.218-2.962,58.674,19.494
	c15.584,15.584,19.874,32.343,20.425,44.773c-0.007,0.205-0.011,0.407-0.016,0.61l-26.838-26.838
	c-3.905-3.904-10.236-3.904-14.141,0c-3.905,3.905-3.905,10.236,0,14.142l26.837,26.836
	C365.301,491.497,348.219,487.332,332.425,471.537L332.425,471.537z M471.495,471.537c-15.859,15.859-32.93,20.019-45.422,20.449
	l26.877-26.877c3.905-3.905,3.905-10.236,0-14.142c-3.905-3.904-10.236-3.904-14.142,0l-26.834,26.834
	c0.451-12.506,4.614-29.586,20.407-45.379c22.444-22.443,47.316-21.484,58.657-19.497
	C492.883,423.566,494.15,448.883,471.495,471.537z M500.609,394.674c0.6,0.077,1.06,0.19,1.257,0.245
	C501.456,394.812,501.036,394.73,500.609,394.674z"/>
<path d="M239.136,466.352l-11.469,11.469v-29.856c0-5.522-4.477-9.999-9.999-9.999s-9.999,4.478-9.999,9.999v29.855L196.2,466.352
	c-3.905-3.903-10.236-3.903-14.141,0c-3.905,3.905-3.906,10.236,0,14.142l28.539,28.539c1.875,1.875,4.419,2.929,7.07,2.929
	s5.196-1.054,7.07-2.929l28.539-28.539c3.905-3.905,3.905-10.236,0-14.142C249.373,462.448,243.042,462.448,239.136,466.352z"/>
<path d="M145.863,466.352l-11.469,11.469v-29.856c0-5.522-4.477-9.999-9.999-9.999c-5.523,0-9.999,4.478-9.999,9.999v29.855
	l-11.468-11.468c-3.906-3.903-10.236-3.903-14.141,0c-3.905,3.905-3.906,10.236,0,14.142l28.539,28.539
	c1.875,1.875,4.419,2.929,7.07,2.929c2.652,0,5.196-1.054,7.07-2.929l28.539-28.539c3.905-3.905,3.905-10.236,0-14.142
	C156.099,462.448,149.768,462.448,145.863,466.352z"/>
<path d="M60.024,466.352l-11.468,11.468v-29.855c0-5.522-4.477-9.999-9.999-9.999s-9.999,4.478-9.999,9.999v29.855l-11.469-11.469
	c-3.905-3.904-10.236-3.904-14.142,0c-3.905,3.905-3.905,10.236,0,14.142l28.539,28.539c1.875,1.875,4.419,2.929,7.07,2.929
	s5.196-1.054,7.07-2.929l28.539-28.539c3.905-3.905,3.905-10.236,0-14.142C70.26,462.448,63.929,462.448,60.024,466.352z"/>
<path d="M235.343,296.045l-33.532-10.234c5.862-10.972,9.933-22.884,12.002-35.415c1.226-7.424,0.757-14.789-1.235-21.694
	c4.37-1.218,8.494-3.535,11.925-6.964c10.637-10.637,10.637-27.945,0-38.582c-10.638-10.637-27.945-10.637-38.581,0
	c-3.366,3.366-5.736,7.457-6.98,11.92c-6.901-1.988-14.261-2.456-21.678-1.23c-12.352,2.04-24.104,6.023-34.945,11.749
	c-0.181-0.02-0.362-0.029-0.544-0.039l-10.137-33.216c-3.744-12.27-11.59-23.083-22.093-30.45
	c-22.526-15.801-53.297-13.449-73.165,5.59c-0.103,0.098-0.204,0.199-0.302,0.302c-19.039,19.869-21.389,50.64-5.59,73.165
	c7.366,10.502,18.18,18.35,30.45,22.093l31.755,9.691c-12.168,18.035-21.051,38.177-26.102,59.555l-11.369,48.121
	c-0.797,3.373,0.21,6.918,2.661,9.369c1.897,1.897,4.45,2.929,7.07,2.929c0.766,0,1.537-0.088,2.299-0.268l48.121-11.368
	c21.383-5.052,41.531-13.939,59.569-26.112l8.082,26.482c1.315,4.31,5.277,7.083,9.56,7.083c0.966,0,1.95-0.142,2.922-0.438
	c5.282-1.612,8.257-7.2,6.645-12.482l-10.251-33.589c3.363-2.901,6.633-5.922,9.789-9.077c3.091-3.091,5.98-6.336,8.672-9.71
	l39.145,11.947c8.024,2.449,15.097,7.58,19.914,14.449c10.291,14.673,8.805,34.693-3.51,47.69
	c-5.145,4.875-11.525,8.192-18.466,9.601c-5.413,1.099-8.909,6.376-7.811,11.788c0.962,4.742,5.131,8.013,9.789,8.013
	c0.659,0,1.328-0.065,1.999-0.201c10.725-2.177,20.573-7.331,28.481-14.909c0.103-0.098,0.203-0.198,0.301-0.301
	c19.04-19.868,21.39-50.639,5.59-73.165C258.426,307.637,247.612,299.79,235.343,296.045z M197.93,202.446
	c0-1.945,0.758-3.774,2.133-5.15l0,0c1.419-1.42,3.285-2.13,5.15-2.13s3.73,0.71,5.15,2.13c2.84,2.839,2.84,7.459,0,10.299
	c-2.839,2.84-7.459,2.84-10.299,0C198.688,206.22,197.93,204.391,197.93,202.446z M160.522,213.576
	c1.637-0.27,3.269-0.403,4.885-0.403c7.665,0,14.95,2.998,20.515,8.563c6.74,6.739,9.714,15.998,8.161,25.401
	c-3.251,19.687-12.427,37.549-26.535,51.657c-1.376,1.376-2.778,2.722-4.199,4.045l-58.529-58.529
	c1.322-1.421,2.668-2.823,4.044-4.198c3.856-3.856,8-7.328,12.377-10.427l27.22,27.221c1.953,1.953,4.512,2.929,7.07,2.929
	s5.119-0.977,7.07-2.929c3.905-3.905,3.906-10.236,0-14.141l-23.161-23.162C146.151,216.811,153.21,214.784,160.522,213.576z
	 M46.774,223.912c-8.024-2.449-15.097-7.58-19.914-14.449c-10.291-14.672-8.806-34.693,3.509-47.691
	c12.998-12.315,33.018-13.8,47.691-3.509c6.869,4.818,12,11.89,14.449,19.914l11.936,39.111c-3.38,2.696-6.627,5.588-9.722,8.682
	c-3.16,3.16-6.185,6.435-9.088,9.802L46.774,223.912z M90.774,341.607l-32.37,7.646l7.647-32.37
	c4.875-20.63,13.756-39.971,26.039-57.021l55.705,55.706c-6.114,4.404-12.519,8.369-19.178,11.868l-25.344-25.343
	c-3.905-3.904-10.236-3.904-14.141,0c-3.905,3.905-3.905,10.236,0,14.142l19.882,19.881
	C103.067,338.29,96.983,340.14,90.774,341.607z"/>
<circle cx="192.915" cy="389.32" r="9.999"/>
<path d="M178.266,111.73c18.747,0,33.997-15.251,33.997-33.997s-15.251-33.997-33.997-33.997s-33.997,15.251-33.997,33.997
	S159.52,111.73,178.266,111.73z M178.266,63.734c7.719,0,13.999,6.28,13.999,13.999s-6.28,13.999-13.999,13.999
	c-7.719,0-13.999-6.28-13.999-13.999S170.547,63.734,178.266,63.734z"/>
<path d="M178.393,25.734c5.523,0,9.999-4.477,9.999-9.999V9.999c0-5.523-4.477-9.999-9.999-9.999c-5.523,0-9.999,4.477-9.999,9.999
	v5.736C168.393,21.257,172.87,25.734,178.393,25.734z"/>
<path d="M168.139,139.731v5.736c0,5.523,4.477,9.999,9.999,9.999c5.523,0,9.999-4.477,9.999-9.999v-5.736
	c0-5.523-4.477-9.999-9.999-9.999C172.616,129.732,168.139,134.209,168.139,139.731z"/>
<path d="M230.265,77.86c0,5.523,4.477,9.999,9.999,9.999h5.736c5.523,0,9.999-4.477,9.999-9.999c0-5.523-4.477-9.999-9.999-9.999
	h-5.736C234.741,67.861,230.265,72.337,230.265,77.86z"/>
<path d="M110.533,87.605h5.736c5.523,0,9.999-4.477,9.999-9.999s-4.477-9.999-9.999-9.999h-5.736c-5.523,0-9.999,4.477-9.999,9.999
	S105.01,87.605,110.533,87.605z"/>
<path d="M222.195,43.983c2.559,0,5.119-0.976,7.07-2.929l4.056-4.056c3.905-3.905,3.905-10.236,0-14.142
	c-3.905-3.905-10.236-3.905-14.142,0l-4.056,4.056c-3.905,3.905-3.905,10.236,0,14.142
	C217.077,43.007,219.636,43.983,222.195,43.983z"/>
<path d="M127.265,114.411l-4.056,4.056c-3.905,3.905-3.905,10.236,0,14.142c1.953,1.953,4.512,2.929,7.07,2.929
	c2.559,0,5.119-0.976,7.07-2.929l4.056-4.056c3.905-3.905,3.905-10.236,0-14.142C137.503,110.507,131.171,110.507,127.265,114.411z"
	/>
<path d="M229.087,114.591c-3.905-3.905-10.236-3.905-14.142,0c-3.905,3.905-3.905,10.236,0,14.142l4.056,4.056
	c1.953,1.953,4.512,2.929,7.07,2.929s5.119-0.976,7.07-2.929c3.905-3.905,3.905-10.236,0-14.142L229.087,114.591z"/>
<path d="M127.445,40.874c1.953,1.953,4.512,2.929,7.07,2.929s5.119-0.976,7.07-2.929c3.905-3.905,3.905-10.236,0-14.142
	l-4.056-4.056c-3.905-3.905-10.236-3.905-14.142,0c-3.905,3.905-3.905,10.236,0,14.142L127.445,40.874z"/>
<path d="M395.978,73.994c2.63,0,5.21-1.07,7.069-2.93c1.86-1.86,2.93-4.44,2.93-7.069s-1.07-5.21-2.93-7.069
	c-1.86-1.86-4.44-2.93-7.069-2.93c-2.63,0-5.21,1.07-7.069,2.93c-1.86,1.86-2.93,4.44-2.93,7.069s1.07,5.21,2.93,7.069
	C390.768,72.924,393.348,73.994,395.978,73.994z"/>
<path d="M365.645,63.995c0-5.523-4.477-9.999-9.999-9.999h-64.909c-5.523,0-9.999,4.477-9.999,9.999s4.477,9.999,9.999,9.999h64.909
	C361.169,73.994,365.645,69.518,365.645,63.995z"/>
<path d="M411.275,33.997h79.131c5.523,0,9.999-4.477,9.999-9.999s-4.477-9.999-9.999-9.999h-79.131
	c-5.523,0-9.999,4.477-9.999,9.999S405.752,33.997,411.275,33.997z"/>
<g>
</g>
<g>
</g>
<g>
</g>
<g>
</g>
<g>
</g>
<g>
</g>
<g>
</g>
<g>
</g>
<g>
</g>
<g>
</g>
<g>
</g>
<g>
</g>
<g>
</g>
<g>
</g>
<g>
</g>
</svg>
