<?xml version="1.0" encoding="iso-8859-1"?>
<!-- Generator: Adobe Illustrator 19.0.0, SVG Export Plug-In . SVG Version: 6.00 Build 0)  -->
<svg version="1.1" id="Capa_1" xmlns="http://www.w3.org/2000/svg" xmlns:xlink="http://www.w3.org/1999/xlink" x="0px" y="0px"
	 viewBox="0 0 511.999 511.999" style="enable-background:new 0 0 511.999 511.999;" xml:space="preserve">
<path style="fill:#FFE6C3;" d="M319.269,109.239l-71.107-33.72c-11.477-5.442-25.207-1.666-32.287,8.88l0,0
	c-8,11.918-4.664,28.081,7.403,35.856l53.503,34.475c36.251,23.36,81.631,27.526,121.531,11.16l103.686-42.532V10.025H213.71
	c-30.184,0-59.352,10.899-82.14,30.692L19.452,138.1c-17.196,14.935-9.708,43.113,12.634,47.544l0,0
	c8.225,1.63,16.743-0.597,23.118-6.044l114.156-96.397c14.133-11.934,32.865-16.916,51.059-13.58l23.353,4.282"/>
<path style="fill:#FFCDAC;" d="M192.73,402.76l71.107,33.72c11.477,5.442,25.207,1.666,32.287-8.88l0,0
	c8-11.918,4.664-28.081-7.403-35.856l-53.503-34.475c-36.251-23.36-81.631-27.526-121.531-11.16L10.002,388.64v113.333h288.288
	c30.184,0,59.352-10.899,82.139-30.692L492.548,373.9c17.196-14.935,9.708-43.113-12.634-47.543l0,0
	c-8.225-1.63-16.743,0.597-23.118,6.044l-114.156,96.397c-14.133,11.934-32.865,16.916-51.059,13.58l-23.353-4.282"/>
<path style="fill:#46C373;" d="M191.425,278.456c28.821,28.821,62.404,17.504,62.404,17.504s11.317-33.583-17.504-62.404
	s-62.078-17.534-62.405-17.505C173.919,216.05,162.605,249.635,191.425,278.456z"/>
<path style="fill:#A5DC69;" d="M338.106,216.05c-0.328-0.028-33.585-11.316-62.405,17.505s-17.504,62.404-17.504,62.404
	s33.583,11.317,62.404-17.504C349.422,249.635,338.106,216.05,338.106,216.05z"/>
<path d="M388.799,450.797l-14.894,12.937c-20.968,18.212-47.81,28.242-75.583,28.242H10.034c-5.521,0-9.999,4.477-9.999,9.999
	s4.478,9.999,9.999,9.999h288.288c32.592,0,64.091-11.77,88.697-33.141l14.894-12.937c4.17-3.622,4.613-9.937,0.992-14.106
	C399.283,447.618,392.966,447.176,388.799,450.797z"/>
<path d="M424.24,423.252c-2.63,0-5.209,1.07-7.069,2.93c-1.86,1.86-2.93,4.44-2.93,7.069c0,2.64,1.069,5.209,2.93,7.069
	c1.86,1.87,4.44,2.93,7.069,2.93c2.63,0,5.209-1.06,7.079-2.93c1.859-1.86,2.93-4.44,2.93-7.069s-1.07-5.199-2.93-7.069
	C429.449,424.321,426.88,423.252,424.24,423.252z"/>
<path d="M481.781,316.526c-11.203-2.219-22.632,0.72-31.37,8.064L330.227,425.599c-4.229,3.553-4.774,9.86-1.222,14.087
	c1.978,2.354,4.809,3.566,7.659,3.566c2.271,0,4.555-0.769,6.428-2.345l120.184-101.009c4.071-3.421,9.4-4.791,14.615-3.757
	c6.683,1.325,11.718,6.046,13.468,12.631c1.75,6.584-0.276,13.183-5.42,17.65l-37.546,32.611c-4.17,3.622-4.613,9.937-0.992,14.105
	c3.622,4.169,9.936,4.614,14.106,0.992l37.546-32.611c10.875-9.446,15.332-23.962,11.634-37.884
	C506.987,329.715,495.911,319.328,481.781,316.526z"/>
<path d="M13.828,397.891l103.685-42.532c36.848-15.115,78.839-11.261,112.32,10.314l53.503,34.475
	c3.562,2.294,5.994,5.842,6.851,9.991c0.857,4.149,0.028,8.37-2.333,11.887c-4.286,6.383-12.756,8.713-19.7,5.417l-71.107-33.72
	c-4.989-2.367-10.953-0.239-13.319,4.751c-2.367,4.989-0.24,10.953,4.749,13.319l71.107,33.72
	c4.842,2.297,10.006,3.394,15.125,3.393c11.608-0.001,22.976-5.644,29.748-15.733c5.377-8.011,7.265-17.627,5.313-27.076
	c-1.952-9.449-7.492-17.532-15.602-22.758l-53.503-34.476c-38.974-25.112-87.848-29.599-130.742-12.006L6.239,379.39
	c-5.109,2.096-7.552,7.937-5.456,13.046C2.879,397.544,8.721,399.987,13.828,397.891z"/>
<path d="M422.49,20.024h79.509c5.521,0,9.999-4.477,9.999-9.999s-4.478-9.999-9.999-9.999H422.49c-5.521,0-9.999,4.477-9.999,9.999
	S416.969,20.024,422.49,20.024z"/>
<path d="M383.994,20.024c2.63,0,5.209-1.07,7.068-2.93c1.86-1.86,2.931-4.44,2.931-7.069s-1.07-5.209-2.931-7.069
	c-1.859-1.86-4.439-2.93-7.068-2.93c-2.63,0-5.209,1.07-7.069,2.93c-1.86,1.86-2.93,4.44-2.93,7.069s1.069,5.209,2.93,7.069
	S381.365,20.024,383.994,20.024z"/>
<path d="M30.142,195.452c2.45,0.486,4.909,0.725,7.349,0.725c8.81,0,17.352-3.116,24.21-8.976l116.527-99.58
	c4.198-3.588,4.693-9.899,1.105-14.098c-3.589-4.198-9.898-4.694-14.099-1.105L48.709,171.997c-4.074,3.481-9.418,4.88-14.679,3.839
	c-6.662-1.321-11.681-6.027-13.426-12.592c-1.744-6.563,0.276-13.141,5.403-17.594l112.119-97.384
	c20.969-18.212,47.811-28.242,75.584-28.242h122.289c5.521,0,9.999-4.477,9.999-9.999s-4.478-9.999-9.999-9.999H213.711
	c-32.592,0-64.091,11.77-88.698,33.142L12.894,130.551C2.036,139.983-2.417,154.479,1.278,168.38
	C4.972,182.281,16.031,192.655,30.142,195.452z"/>
<path d="M228.695,111.848c-3.561-2.294-5.993-5.842-6.85-9.991c-0.857-4.149-0.028-8.37,2.333-11.888
	c4.286-6.382,12.756-8.712,19.7-5.417l71.106,33.72c4.992,2.368,10.954,0.239,13.319-4.751c2.367-4.989,0.24-10.953-4.749-13.319
	l-71.107-33.72c-15.822-7.504-35.114-2.199-44.873,12.341c-5.378,8.011-7.265,17.627-5.313,27.077
	c1.951,9.449,7.492,17.531,15.602,22.757l53.503,34.475c23.238,14.973,49.993,22.615,76.904,22.615
	c18.224,0,36.518-3.505,53.837-10.608l103.686-42.532c5.108-2.096,7.552-7.937,5.456-13.046c-2.096-5.108-7.932-7.552-13.046-5.456
	l-103.685,42.532c-36.85,15.115-78.84,11.26-112.319-10.314L228.695,111.848z"/>
<path d="M340.672,206.385c-6.804-1.979-41.792-10.15-72.042,20.1c-5.309,5.309-9.431,10.761-12.617,16.174
	c-3.186-5.414-7.307-10.866-12.617-16.175c-30.142-30.141-64.988-22.137-72.038-20.101c-3.208,0.85-5.829,3.257-6.913,6.473
	c-0.543,1.611-12.92,39.84,19.91,72.669c18.493,18.492,38.695,22.641,53.103,22.641c9.21,0,16.04-1.693,18.555-2.421
	c2.514,0.728,9.343,2.421,18.554,2.421c14.408,0,34.613-4.15,53.104-22.641c32.828-32.829,20.453-71.056,19.91-72.668
	C346.498,209.643,343.878,207.236,340.672,206.385z M182.262,224.443c9.695-1.487,29.246-1.564,46.993,16.183
	c11.325,11.325,15.373,23.406,16.47,33.089l-19.671-19.671c-3.904-3.905-10.233-3.905-14.142,0c-3.905,3.905-3.905,10.236,0,14.141
	l19.656,19.656c-9.686-1.101-21.768-5.148-33.074-16.454C180.576,253.466,180.864,233.649,182.262,224.443z M313.531,271.386
	c-11.325,11.326-23.406,15.374-33.089,16.47l19.672-19.672c3.905-3.905,3.905-10.236,0-14.141c-3.906-3.905-10.235-3.905-14.142,0
	l-19.667,19.668c1.095-9.688,5.145-21.765,16.466-33.086c17.745-17.746,37.292-17.669,46.987-16.184
	C331.145,233.638,331.429,253.487,313.531,271.386z"/>
<g>
</g>
<g>
</g>
<g>
</g>
<g>
</g>
<g>
</g>
<g>
</g>
<g>
</g>
<g>
</g>
<g>
</g>
<g>
</g>
<g>
</g>
<g>
</g>
<g>
</g>
<g>
</g>
<g>
</g>
</svg>
