<?xml version="1.0" encoding="iso-8859-1"?>
<!-- Generator: Adobe Illustrator 19.0.0, SVG Export Plug-In . SVG Version: 6.00 Build 0)  -->
<svg version="1.1" id="Capa_1" xmlns="http://www.w3.org/2000/svg" xmlns:xlink="http://www.w3.org/1999/xlink" x="0px" y="0px"
	 viewBox="0 0 512 512" style="enable-background:new 0 0 512 512;" xml:space="preserve">
<path style="fill:#A5DC69;" d="M148.609,469.219c47.866,47.866,103.642,29.07,103.642,29.07s18.795-55.776-29.07-103.642
	s-103.1-29.12-103.644-29.073C119.536,365.574,100.743,421.353,148.609,469.219z"/>
<path style="fill:#46C373;" d="M392.22,365.574c-0.544-0.047-55.778-18.793-103.644,29.073s-29.07,103.642-29.07,103.642
	s55.776,18.795,103.642-29.07S392.22,365.574,392.22,365.574z"/>
<g>
	<path style="fill:#FF5A5A;" d="M229.758,122.199l-4.199-31.945l-0.023,0.023c-1.345-12.718-6.945-25.152-16.777-34.984
		c-22.456-22.456-58.484-22.839-80.467-0.856s-21.602,58.011,0.856,80.467c9.734,9.734,22.019,15.319,34.605,16.733l-0.003,0.003
		l33.41,4.55L229.758,122.199z"/>
	<path style="fill:#FF5A5A;" d="M315.771,155.729l31.945-4.199l-0.023-0.023c12.718-1.345,25.152-6.945,34.984-16.777
		c22.456-22.456,22.839-58.484,0.856-80.467c-21.983-21.983-58.011-21.602-80.467,0.856c-9.734,9.734-15.319,22.019-16.733,34.605
		l-0.003-0.003l-4.55,33.41L315.771,155.729z"/>
	<path style="fill:#FF5A5A;" d="M282.242,241.741l4.199,31.945l0.023-0.023c1.345,12.718,6.945,25.152,16.777,34.984
		c22.456,22.456,58.484,22.839,80.467,0.856c21.983-21.983,21.602-58.011-0.856-80.467c-9.734-9.734-22.02-15.319-34.605-16.733
		l0.003-0.003l-33.41-4.55L282.242,241.741z"/>
	<path style="fill:#FF5A5A;" d="M196.23,208.213l-31.945,4.199l0.023,0.023c-12.718,1.345-25.152,6.945-34.984,16.777
		c-22.456,22.456-22.839,58.484-0.856,80.467c21.984,21.984,58.011,21.602,80.467-0.856c9.734-9.734,15.319-22.02,16.733-34.605
		l0.003,0.003l4.55-33.41L196.23,208.213z"/>
</g>
<g>
	<path style="fill:#FF7373;" d="M283.286,147.624l22.564-29.394h-0.038c9.25-11.436,14.807-26.103,14.807-42.095
		c0.001-36.526-28.985-66.136-64.744-66.136s-64.745,29.61-64.745,66.136c0,15.833,5.45,30.365,14.535,41.751h-0.004l23.47,30.871"
		/>
	<path style="fill:#FF7373;" d="M228.714,216.317l-22.564,29.394h0.038c-9.25,11.436-14.807,26.103-14.807,42.095
		c0,36.526,28.987,66.136,64.745,66.136s64.745-29.61,64.745-66.136c0-15.833-5.45-30.365-14.535-41.751h0.004l-23.47-30.871"/>
	<path style="fill:#FF7373;" d="M290.347,209.256l29.394,22.564v-0.038c11.436,9.25,26.103,14.807,42.095,14.807
		c36.526,0,66.136-28.987,66.136-64.745s-29.61-64.745-66.136-64.745c-15.833,0-30.365,5.45-41.751,14.535v-0.004l-30.871,23.47"/>
	<path style="fill:#FF7373;" d="M221.654,154.684l-29.394-22.564v0.038c-11.436-9.25-26.103-14.807-42.095-14.807
		c-36.526,0-66.136,28.987-66.136,64.745s29.61,64.745,66.136,64.745c15.833,0,30.365-5.45,41.751-14.535v0.004l30.871-23.47"/>
</g>
<circle style="fill:#E6AA46;" cx="255.999" cy="181.971" r="40.224"/>
<path d="M437.971,181.846c0-25.811-13.397-48.604-33.722-62.039c10.568-24.696,5.485-53.466-13.656-72.607
	c-19.133-19.133-48.032-24.23-72.754-13.598C304.395,13.344,281.637,0,255.876,0c-25.811,0-48.604,13.397-62.039,33.722
	c-24.696-10.568-53.465-5.485-72.607,13.656C102.097,66.511,97,95.41,107.632,120.132c-20.259,13.445-33.603,36.203-33.603,61.964
	c0,25.811,13.397,48.604,33.722,62.039c-10.568,24.696-5.485,53.465,13.655,72.606c12.546,12.545,29.287,19.057,46.3,19.056
	c8.933,0,17.939-1.804,26.452-5.463c13.444,20.261,36.204,33.608,61.968,33.608c25.808,0,48.599-13.394,62.035-33.715
	c8.484,3.631,17.446,5.415,26.337,5.415c16.988,0,33.709-6.513,46.274-19.078c19.134-19.134,24.23-48.032,13.599-72.755
	C424.627,230.366,437.971,207.608,437.971,181.846z M417.974,181.846c0,30.187-25.183,54.746-56.137,54.746
	c-13.059,0-25.776-4.468-35.808-12.583c-0.268-0.216-0.544-0.417-0.828-0.602l-24.422-18.747c3.47-6.821,5.44-14.527,5.44-22.689
	c0-8.281-2.027-16.092-5.592-22.985l25.295-19.232c0.135-0.097,0.268-0.198,0.399-0.302c9.982-7.965,22.596-12.352,35.515-12.352
	C392.791,127.101,417.974,151.66,417.974,181.846z M225.778,181.971c0-16.664,13.558-30.222,30.222-30.222
	c16.664,0,30.222,13.558,30.222,30.222S272.664,212.193,256,212.193C239.336,212.193,225.778,198.635,225.778,181.971z
	 M376.455,61.34c13.068,13.069,16.669,32.662,9.776,49.722c-7.664-2.553-15.862-3.958-24.394-3.958
	c-17.135,0-33.887,5.743-47.284,16.176c10.365-13.379,16.066-30.052,16.066-47.145c0-8.578-1.421-16.819-3.999-24.519
	C343.704,44.673,363.388,48.273,376.455,61.34z M255.876,19.997c30.187,0,54.746,25.183,54.746,56.137
	c0,13.06-4.468,25.776-12.582,35.808c-0.216,0.268-0.417,0.543-0.602,0.828l-18.748,24.423c-6.821-3.47-14.527-5.44-22.689-5.44
	c-8.281,0-16.092,2.027-22.985,5.592l-19.232-25.295c-0.097-0.135-0.198-0.268-0.302-0.399
	c-7.965-9.982-12.352-22.596-12.352-35.515C201.13,45.18,225.689,19.997,255.876,19.997z M135.369,61.516
	c13.068-13.069,32.662-16.669,49.721-9.776c-2.553,7.664-3.958,15.862-3.958,24.394c0,17.135,5.743,33.887,16.176,47.284
	c-13.379-10.365-30.052-16.066-47.145-16.066c-8.578,0-16.819,1.421-24.519,3.999C118.703,94.268,122.303,74.583,135.369,61.516z
	 M94.026,182.096c0-30.187,25.183-54.746,56.137-54.746c13.06,0,25.776,4.468,35.808,12.582c0.268,0.216,0.544,0.417,0.828,0.602
	l24.423,18.748c-3.47,6.821-5.44,14.527-5.44,22.689c0,8.281,2.027,16.092,5.592,22.985l-25.295,19.232
	c-0.135,0.097-0.268,0.198-0.399,0.302c-9.982,7.965-22.596,12.352-35.515,12.352C119.209,236.841,94.026,212.282,94.026,182.096z
	 M135.545,302.601c-13.068-13.068-16.669-32.661-9.776-49.721c7.664,2.553,15.862,3.958,24.394,3.958
	c17.135,0,33.887-5.743,47.284-16.176c-10.365,13.379-16.066,30.052-16.066,47.145c0,8.578,1.421,16.819,3.999,24.519
	C168.296,319.269,148.612,315.668,135.545,302.601z M256.125,343.945c-30.187,0-54.746-25.183-54.746-56.137
	c0-13.06,4.468-25.776,12.582-35.808c0.216-0.268,0.417-0.543,0.602-0.828l18.748-24.423c6.821,3.47,14.527,5.44,22.689,5.44
	c8.281,0,16.092-2.027,22.985-5.592l19.232,25.295c0.097,0.135,0.198,0.268,0.302,0.399c7.965,9.982,12.352,22.596,12.352,35.515
	C310.87,318.762,286.311,343.945,256.125,343.945z M376.63,302.426c-13.067,13.069-32.661,16.669-49.721,9.776
	c2.553-7.664,3.958-15.862,3.958-24.394c0-17.136-5.744-33.888-16.177-47.285c13.38,10.366,30.053,16.067,47.146,16.067
	c8.578,0,16.819-1.421,24.519-3.999C393.297,269.674,389.697,289.359,376.63,302.426z"/>
<path d="M131.42,424.633c-1.845-5.205-7.562-7.929-12.765-6.082c-5.205,1.846-7.928,7.561-6.082,12.765l0.156,0.434
	c1.475,4.066,5.312,6.594,9.4,6.594c1.132,0,2.283-0.194,3.407-0.602c5.191-1.883,7.874-7.617,5.992-12.808L131.42,424.633z"/>
<path d="M394.725,355.894l-0.041-0.012c-10.532-3.073-65.496-15.988-113.179,31.695c-6.179,6.179-11.333,12.474-15.633,18.773
	v-12.74c0-5.522-4.476-9.998-9.998-9.998s-9.998,4.476-9.998,9.998v12.726c-4.299-6.294-9.449-12.584-15.624-18.759
	c-47.684-47.682-102.647-34.768-113.179-31.695l-0.04,0.012c-3.233,0.836-5.881,3.252-6.971,6.488
	c-0.13,0.386-3.19,9.604-3.974,23.555c-0.31,5.513,3.909,10.233,9.422,10.543c5.509,0.316,10.234-3.908,10.543-9.423
	c0.309-5.502,1.04-10.048,1.698-13.232c15.112-3.156,53.775-6.694,88.361,27.892c17.865,17.864,27.797,38.9,29.521,62.522
	c0.097,1.334,0.162,2.637,0.203,3.91c-0.053,2.122-0.05,4.175,0.004,6.145c-0.035,1.131-0.088,2.227-0.157,3.284l-44.233-44.233
	c-3.904-3.904-10.235-3.904-14.141,0c-3.904,3.904-3.904,10.235,0,14.141l44.244,44.244c-18.448,1.169-48.557-2.267-75.874-29.582
	c-1.577-1.576-3.113-3.2-4.564-4.829c-3.676-4.12-9.996-4.481-14.117-0.805c-4.12,3.675-4.48,9.996-0.805,14.117
	c1.704,1.91,3.502,3.812,5.346,5.657C170.73,505.478,202.492,512,225.057,512c17.369,0,29.292-3.867,30.387-4.235
	c0.149-0.05,0.288-0.118,0.434-0.175c0.146,0.057,0.285,0.125,0.434,0.175c1.095,0.369,13.014,4.235,30.387,4.235
	c22.565,0,54.331-6.525,83.518-35.711c51.657-51.658,32.327-111.389,31.478-113.907C400.605,359.147,397.958,356.73,394.725,355.894
	z M385.599,399.624c-1.725,23.623-11.658,44.66-29.522,62.525c-17.864,17.864-38.9,27.797-62.522,29.521
	c-4.874,0.356-9.371,0.308-13.341,0.051l44.234-44.234c3.904-3.904,3.904-10.235,0-14.141c-3.904-3.904-10.235-3.904-14.141,0
	l-44.244,44.244c-0.065-1.033-0.116-2.103-0.149-3.205c0.055-1.961,0.06-4.005,0.009-6.117c0.602-18.354,6.621-43.449,29.721-66.549
	c34.582-34.582,73.242-31.047,88.355-27.892C385.107,379.193,386.417,388.417,385.599,399.624z"/>
<path d="M361.837,163.44l0.302,0.002c0.046,0,0.091,0.001,0.137,0.001c5.459,0,9.921-4.388,9.994-9.864
	c0.074-5.521-4.341-10.057-9.863-10.131l-0.571-0.004c-5.522,0-9.998,4.476-9.998,9.998S356.315,163.44,361.837,163.44z"/>
<path d="M385.375,162.464c-5.15,1.992-7.711,7.782-5.72,12.932c0.795,2.056,1.198,4.226,1.198,6.451
	c0,10.149-8.531,18.406-19.017,18.406c-5.522,0-9.998,4.476-9.998,9.998s4.476,9.998,9.998,9.998
	c21.513,0,39.014-17.227,39.014-38.403c0-4.701-0.856-9.298-2.544-13.663C396.315,163.033,390.525,160.472,385.375,162.464z"/>
<g>
</g>
<g>
</g>
<g>
</g>
<g>
</g>
<g>
</g>
<g>
</g>
<g>
</g>
<g>
</g>
<g>
</g>
<g>
</g>
<g>
</g>
<g>
</g>
<g>
</g>
<g>
</g>
<g>
</g>
</svg>
