<?xml version="1.0" encoding="iso-8859-1"?>
<!-- Generator: Adobe Illustrator 19.0.0, SVG Export Plug-In . SVG Version: 6.00 Build 0)  -->
<svg version="1.1" id="Capa_1" xmlns="http://www.w3.org/2000/svg" xmlns:xlink="http://www.w3.org/1999/xlink" x="0px" y="0px"
	 viewBox="0 0 511.999 511.999" style="enable-background:new 0 0 511.999 511.999;" xml:space="preserve">
<path style="fill:#AAE6FF;" d="M457.223,169.991c24.731,0,44.779-20.048,44.779-44.779s-20.048-44.779-44.779-44.779
	c-11.695,0-22.339,4.487-30.315,11.829c0.021-0.753,0.057-1.502,0.057-2.261c0-44.177-35.812-79.989-79.989-79.989
	c-34.609,0-64.08,21.983-75.223,52.747c-4.329-1.108-8.867-1.699-13.542-1.699c-30.08,0-54.465,24.385-54.465,54.465
	s24.385,54.465,54.465,54.465L457.223,169.991L457.223,169.991z"/>
<path style="fill:#E6AA46;" d="M426.965,90.002c0,0.758-0.036,1.507-0.057,2.261c7.976-7.342,18.619-11.829,30.315-11.829
	c9.68,0,18.633,3.082,25.957,8.303c3.382-7.146,5.28-15.132,5.28-23.563c0-30.464-24.696-55.159-55.159-55.159
	c-15.039,0-28.665,6.026-38.616,15.786C414.275,40.378,426.965,63.707,426.965,90.002z"/>
<g>
	<path style="fill:#A5DC69;" d="M311.307,446.783c-24.613-24.612-53.014-14.973-53.292-14.949c0,0-9.664,28.681,14.949,53.292
		c24.613,24.612,53.292,14.948,53.292,14.948S335.919,471.395,311.307,446.783z"/>
	<path style="fill:#A5DC69;" d="M398.225,431.834c-0.28-0.024-28.681-9.663-53.292,14.949
		c-24.613,24.613-14.948,53.292-14.948,53.292s28.68,9.665,53.292-14.948C407.888,460.514,398.225,431.834,398.225,431.834z"/>
	<path style="fill:#A5DC69;" d="M90.867,421.118c-36.063-36.064-77.678-21.94-78.089-21.905c0,0-14.159,42.025,21.905,78.088
		c36.063,36.064,78.087,21.903,78.087,21.903S126.931,457.181,90.867,421.118z"/>
</g>
<path style="fill:#46C373;" d="M218.225,399.213c-0.41-0.035-42.025-14.159-78.089,21.905
	c-36.063,36.064-21.902,78.087-21.902,78.087s42.023,14.161,78.087-21.903C232.384,441.238,218.225,399.213,218.225,399.213z"/>
<path style="fill:#D7FA91;" d="M49.003,361.128c-23.431-22.994-18.24-66.111-18.207-66.463l-0.007-0.007l0.005,0.005l-0.009-0.009
	l0.006,0.006c0.183-0.017,41.697-4.101,65.179,18.932c23.469,23.033,19.24,65.273,19.208,65.455l0.012,0.012
	C115.19,379.061,72.528,384.218,49.003,361.128z"/>
<path d="M220.766,389.542c-8.19-2.389-50.801-12.395-87.7,24.506c-2.786,2.786-5.294,5.602-7.569,8.433v-51.074
	c0-0.263-0.02-0.521-0.04-0.779c-0.046-15.431-2.953-45.001-22.486-64.171c-25.456-24.969-66.853-22.307-72.793-21.779
	c-2.353,0.143-4.663,1.114-6.462,2.912c-1.777,1.777-2.745,4.056-2.903,6.382c-0.675,6.468-4.08,49.499,21.185,74.295h-0.001
	c18.781,18.434,47.076,21.294,62.825,21.294c0.23,0,0.451-0.002,0.676-0.003v32.916c-2.273-2.828-4.78-5.641-7.562-8.424
	c-36.899-36.898-79.507-26.894-87.699-24.506c-3.219,0.845-5.85,3.256-6.936,6.478c-0.659,1.956-15.68,48.362,24.31,88.351l0,0
	c22.56,22.56,47.159,27.611,64.671,27.611c12.302,0,21.082-2.488,23.219-3.156c2.136,0.668,10.914,3.156,23.219,3.156
	c17.511,0,42.113-5.054,64.671-27.611c39.988-39.989,24.968-86.395,24.31-88.351C226.615,392.798,223.984,390.387,220.766,389.542z
	 M56.006,353.992c-13.963-13.703-15.83-37.018-15.716-49.587c12.217,0.223,34.728,2.644,48.676,16.326
	c9.194,9.023,13.367,21.906,15.196,33.167l-18.859-18.859c-3.905-3.904-10.235-3.904-14.141,0c-3.904,3.904-3.904,10.236,0,14.141
	l19.453,19.452C78.579,366.983,65.091,362.909,56.006,353.992C56.007,353.992,56.007,353.992,56.006,353.992z M41.753,470.232
	c-24.426-24.427-22.757-51.574-20.721-62.695c11.876-2.166,38.645-3.469,62.764,20.651c16.521,16.521,21.097,34.279,21.703,47.488
	v0.285c-0.019,0.607-0.03,1.205-0.036,1.797l-29.227-29.227c-3.905-3.904-10.235-3.904-14.141,0c-3.904,3.904-3.904,10.236,0,14.14
	L91.425,492C78.026,491.808,59.198,487.676,41.753,470.232L41.753,470.232z M189.251,470.232
	c-17.45,17.45-36.284,21.577-49.676,21.772l29.332-29.332c3.904-3.904,3.904-10.236,0-14.14c-3.905-3.904-10.235-3.904-14.141,0
	l-29.226,29.227c-0.004-0.423-0.012-0.85-0.022-1.281c0.472-13.309,4.893-31.494,21.689-48.29
	c24.106-24.106,50.858-22.816,62.745-20.654C211.949,418.645,213.585,445.898,189.251,470.232z"/>
<path d="M400.807,422.174c-5.997-1.74-36.558-8.845-62.944,17.54c-3.957,3.957-7.159,8.007-9.743,12.051
	c-2.583-4.043-5.784-8.093-9.743-12.051c-26.299-26.299-56.741-19.327-62.938-17.541c-3.202,0.853-5.817,3.258-6.899,6.469
	c-0.476,1.411-11.314,34.887,17.354,63.554c16.13,16.13,33.777,19.753,46.383,19.752c7.596,0,13.346-1.313,15.843-2.002
	c2.497,0.689,8.246,2.002,15.843,2.002c12.605,0,30.256-3.625,46.383-19.752c28.669-28.668,17.829-62.144,17.354-63.555
	C406.618,425.432,404.005,423.029,400.807,422.174z M266.436,440.29c8.301-1.057,23.72-0.52,37.802,13.563
	c7.721,7.72,11.353,15.864,12.906,22.968l-13.575-13.575c-3.905-3.904-10.235-3.904-14.141,0c-3.904,3.904-3.904,10.236,0,14.141
	l13.584,13.584c-7.103-1.553-15.249-5.186-22.977-12.915l0,0C265.847,463.87,265.447,448.245,266.436,440.29z M376.205,478.057
	c-7.721,7.721-15.865,11.354-22.969,12.906l13.576-13.576c3.904-3.904,3.904-10.236,0-14.141c-3.905-3.904-10.235-3.904-14.141,0
	l-13.585,13.586c1.553-7.103,5.187-15.25,12.916-22.979c14.087-14.086,29.503-14.622,37.808-13.561
	C390.803,448.232,390.409,463.853,376.205,478.057z M399.899,421.977c0.372,0.063,0.671,0.134,0.859,0.185
	C400.477,422.088,400.189,422.026,399.899,421.977z"/>
<path d="M54.505,245.896h161.961c5.521,0,9.999-4.476,9.999-9.999s-4.477-9.999-9.999-9.999H54.505
	c-9.103,0-17.697-3.669-24.197-10.334c-6.753-6.923-10.488-16.447-10.246-26.129c0.16-6.443,2.821-12.438,7.49-16.881
	c4.67-4.442,10.778-6.803,17.233-6.64c8.571,0.214,15.371,7.361,15.157,15.933c-0.123,4.954-4.192,8.9-9.121,8.9
	c-0.076,0-0.153-0.001-0.23-0.003c-5.478-0.13-10.106,4.225-10.245,9.747c-0.138,5.52,4.226,10.107,9.747,10.245
	c0.246,0.006,0.491,0.009,0.735,0.009c15.725,0,28.711-12.59,29.105-28.398c0.488-19.594-15.056-35.933-34.65-36.422
	c-11.804-0.295-22.976,4.019-31.515,12.143c-8.54,8.124-13.404,19.087-13.698,30.871c-0.375,15.038,5.428,29.832,15.922,40.59
	C26.288,240.083,39.966,245.896,54.505,245.896z"/>
<path d="M511.982,265.978c0-5.522-4.477-9.999-9.999-9.999h-88.185c-4.463,0-8.686-1.809-11.889-5.093
	c-3.368-3.454-5.23-8.205-5.11-13.035c0.071-2.867,1.255-5.533,3.332-7.509c2.076-1.976,4.775-3.03,7.666-2.954
	c1.475,0.037,2.847,0.646,3.862,1.714c1.017,1.069,1.557,2.469,1.52,3.943c-0.138,5.52,4.226,10.107,9.747,10.246
	c5.532,0.139,10.107-4.225,10.245-9.747c0.17-6.814-2.324-13.287-7.022-18.225c-4.698-4.938-11.038-7.752-17.852-7.922
	c-8.207-0.202-16.001,2.799-21.947,8.457c-5.947,5.658-9.335,13.293-9.54,21.499c-0.254,10.187,3.678,20.208,10.787,27.496
	c6.999,7.176,16.305,11.127,26.203,11.127h88.185C507.506,275.976,511.982,271.5,511.982,265.978z"/>
<path d="M91.037,122.563h66.995c5.521,0,9.999-4.476,9.999-9.999s-4.477-9.999-9.999-9.999H91.037c-4.463,0-8.687-1.809-11.89-5.093
	c-3.369-3.454-5.23-8.205-5.11-13.034c0.147-5.917,5.065-10.625,10.998-10.464c3.044,0.076,5.458,2.614,5.382,5.658
	c-0.137,5.52,4.227,10.107,9.748,10.245c5.487,0.121,10.107-4.227,10.244-9.748c0.35-14.066-10.81-25.795-24.875-26.146
	c-0.26-0.006-0.518-0.009-0.777-0.009c-16.591,0-30.294,13.285-30.711,29.965c-0.254,10.187,3.678,20.207,10.786,27.496
	C71.832,118.61,81.139,122.563,91.037,122.563z"/>
<path d="M246.717,296.878c1.953,1.953,4.511,2.929,7.07,2.929c2.56,0,5.117-0.976,7.07-2.929l116.426-116.427
	c0.148-0.148,0.28-0.307,0.417-0.462h79.522c30.205,0,54.777-24.574,54.777-54.777c0-15.503-6.483-29.51-16.869-39.484
	c2.202-6.598,3.328-13.48,3.328-20.555c0-35.928-29.229-65.158-65.158-65.158c-14.388,0-28.092,4.672-39.374,13.267
	c-13.679-8.402-29.754-13.267-46.95-13.267c-34.896,0-66.59,20.367-81.343,51.473c-2.459-0.283-4.937-0.425-7.422-0.425
	c-35.546,0-64.464,28.918-64.464,64.464s28.918,64.464,64.464,64.464h91.254L246.717,282.738
	C242.813,286.643,242.813,292.974,246.717,296.878z M433.302,20.012c24.902,0,45.161,20.259,45.161,45.161
	c0,3.12-0.325,6.182-0.944,9.176c-6.281-2.516-13.126-3.914-20.295-3.914c-7.488,0-14.797,1.518-21.537,4.402
	c-3.209-18.828-12.295-35.672-25.286-48.595C417.274,22.18,425.132,20.012,433.302,20.012z M213.746,115.526
	c0-24.519,19.947-44.467,44.467-44.467c3.744,0,7.467,0.467,11.062,1.387c4.987,1.275,10.127-1.442,11.879-6.281
	c10-27.605,36.452-46.153,65.823-46.153c38.593,0,69.99,31.398,69.99,69.99c0,0.425-0.017,0.846-0.03,1.267l-0.023,0.708
	c-0.114,4.019,2.189,7.716,5.848,9.384c3.658,1.667,7.961,0.981,10.918-1.742c6.437-5.925,14.798-9.188,23.544-9.188
	c19.178,0,34.78,15.603,34.78,34.781s-15.602,34.78-34.78,34.78H258.212C233.693,159.993,213.746,140.045,213.746,115.526z"/>
<path d="M338.596,388.8c-1.86,1.86-2.93,4.439-2.93,7.069s1.069,5.209,2.93,7.069c1.86,1.86,4.438,2.93,7.069,2.93
	c2.63,0,5.209-1.07,7.068-2.93c1.86-1.86,2.931-4.439,2.931-7.069s-1.07-5.209-2.931-7.069c-1.859-1.86-4.438-2.93-7.068-2.93
	C343.035,385.87,340.456,386.941,338.596,388.8z"/>
<path d="M358.216,370.998c1.445,0.729,2.982,1.074,4.496,1.074c3.654,0,7.176-2.011,8.935-5.497l24.075-47.717
	c2.488-4.93,0.508-10.943-4.422-13.431c-4.933-2.488-10.944-0.507-13.431,4.423l-24.075,47.717
	C351.306,362.497,353.285,368.51,358.216,370.998z"/>
<path d="M249.564,391.583c1.878,1.587,4.169,2.363,6.449,2.363c2.842,0,5.663-1.205,7.642-3.545l41.827-49.486
	c3.563-4.217,3.035-10.526-1.183-14.09c-4.216-3.565-10.525-3.036-14.091,1.182l-41.827,49.486
	C244.818,381.71,245.347,388.018,249.564,391.583z"/>
<path d="M145.756,195.903c0,5.522,4.477,9.999,9.999,9.999h55.992c5.521,0,9.999-4.476,9.999-9.999s-4.477-9.999-9.999-9.999
	h-55.992C150.232,185.905,145.756,190.381,145.756,195.903z"/>
<path d="M253.788,245.9c2.63,0,5.209-1.07,7.069-2.93c1.86-1.86,2.93-4.439,2.93-7.069c0-2.64-1.069-5.209-2.93-7.079
	c-1.86-1.86-4.439-2.92-7.069-2.92s-5.209,1.06-7.068,2.92c-1.86,1.87-2.931,4.439-2.931,7.079c0,2.63,1.07,5.209,2.931,7.069
	C248.579,244.83,251.159,245.9,253.788,245.9z"/>
<path d="M216.467,265.894h-81.432c-5.521,0-9.999,4.476-9.999,9.999c0,5.522,4.477,9.999,9.999,9.999h81.432
	c5.521,0,9.999-4.476,9.999-9.999C226.465,270.37,221.989,265.894,216.467,265.894z"/>
<path d="M494.913,462.421l-15.384,15.384v-9.163c0-5.522-4.477-9.999-9.999-9.999c-5.521,0-9.999,4.476-9.999,9.999v9.163
	l-15.384-15.384c-3.905-3.904-10.235-3.904-14.141,0c-3.904,3.904-3.904,10.236,0,14.141l32.452,32.452
	c1.953,1.953,4.511,2.929,7.07,2.929c2.559,0,5.117-0.976,7.07-2.929l32.452-32.452c3.904-3.904,3.904-10.236,0-14.141
	C505.148,458.517,498.819,458.517,494.913,462.421z"/>
<g>
</g>
<g>
</g>
<g>
</g>
<g>
</g>
<g>
</g>
<g>
</g>
<g>
</g>
<g>
</g>
<g>
</g>
<g>
</g>
<g>
</g>
<g>
</g>
<g>
</g>
<g>
</g>
<g>
</g>
</svg>
