<?xml version="1.0" encoding="iso-8859-1"?>
<!-- Generator: Adobe Illustrator 19.0.0, SVG Export Plug-In . SVG Version: 6.00 Build 0)  -->
<svg version="1.1" id="Capa_1" xmlns="http://www.w3.org/2000/svg" xmlns:xlink="http://www.w3.org/1999/xlink" x="0px" y="0px"
	 viewBox="0 0 512 512" style="enable-background:new 0 0 512 512;" xml:space="preserve">
<g>
	<path style="fill:#46C373;" d="M403.083,82.964h0.007c0.046-0.066,11.61-14.464,25.914-14.458
		c14.309,0.01,25.947,13.932,25.999,13.993h0.004H455h0.003h-0.004c-0.097,0.119-11.63,15.082-25.91,15.076
		C414.75,97.569,403.083,82.964,403.083,82.964z"/>
	<path style="fill:#46C373;" d="M354.314,38.16l0.005-0.004c-0.001-0.072,1.021-16.473,11.425-23.806
		c10.409-7.333,26.013-3.181,26.082-3.163l0.003-0.002l-0.004,0.003l0.002-0.002l-0.003,0.002
		c-0.009,0.136-0.719,16.932-11.105,24.254C370.29,42.793,354.314,38.16,354.314,38.16z"/>
	<path style="fill:#46C373;" d="M47.28,89.37l0.005,0.005c0.083-0.015,19.32-1.962,29.823,8.715
		c10.503,10.684,8.664,29.594,8.657,29.677l0.003,0.003l-0.004-0.004l0.003,0.002l-0.003-0.003
		c-0.16,0.015-19.796,2.401-30.281-8.259C44.953,108.805,47.28,89.37,47.28,89.37z"/>
	<path style="fill:#46C373;" d="M421.78,431.006l0.007,0.004c0.087-0.038,20.721-7.252,35.082,1.715
		c14.364,8.974,17.33,30.247,17.343,30.341l0.004,0.002l-0.006-0.003l0.003,0.002l-0.004-0.003
		c-0.172,0.059-21.128,7.861-35.466-1.092C424.347,452.984,421.78,431.006,421.78,431.006z"/>
	<path style="fill:#46C373;" d="M49.918,402.643l-0.004,0.007c0.038,0.087,7.252,20.721-1.715,35.082
		c-8.974,14.364-30.247,17.33-30.341,17.343l-0.002,0.004l0.003-0.006l-0.002,0.003l0.003-0.004
		c-0.059-0.172-7.861-21.128,1.092-35.466C27.94,405.21,49.918,402.643,49.918,402.643z"/>
	<path style="fill:#46C373;" d="M130.79,499.247l-0.007-0.004c-0.087,0.038-20.721,7.252-35.082-1.715
		c-14.364-8.974-17.33-30.247-17.343-30.341l-0.004-0.002l0.006,0.003l-0.003-0.002l0.004,0.003
		c0.172-0.059,21.128-7.861,35.466,1.092C128.223,477.27,130.79,499.247,130.79,499.247z"/>
</g>
<path style="fill:#A5DC69;" d="M307.19,354.424c16.316,18.156,39.977,29.578,66.308,29.578c49.223,0,89.126-39.904,89.126-89.126
	c0-0.057-0.002-0.113-0.002-0.169c23.793-16.523,39.375-44.04,39.375-75.202c0-46.471-34.646-84.848-79.516-90.718
	C398.734,59.672,333.171,10,256,10S113.264,59.672,89.518,128.785c-44.87,5.87-79.516,44.246-79.516,90.718
	c0,31.162,15.582,58.679,39.375,75.202c0,0.057-0.002,0.113-0.002,0.169c0,49.223,39.904,89.126,89.126,89.126
	c26.332,0,49.992-11.422,66.308-29.578H307.19V354.424z"/>
<path style="fill:#C88C64;" d="M337.999,502L337.999,502c-9.746-14.077-23.724-24.682-39.906-30.276l-2.094-0.724V328.346h90.999
	l-20-38.344l-71.698,3.699v-23.5l32.135-32.135l1.438-46.937l-52.791,52.791V121.673h-40.165v92.27h-0.313l-64.52-64.52l-23,22.5
	L216,236.421v28.333h-71.416v36.775H198l18,12.475v156.998l-2.094,0.724c-16.182,5.594-30.16,16.199-39.906,30.276l0,0h163.998V502z
	"/>
<g>
	<circle style="fill:#FF5A5A;" cx="63.999" cy="236.117" r="20"/>
	<circle style="fill:#FF5A5A;" cx="302.476" cy="64.009" r="20"/>
	<circle style="fill:#FF5A5A;" cx="178.587" cy="95.169" r="20"/>
	<circle style="fill:#FF5A5A;" cx="419.375" cy="256.127" r="20"/>
	<circle style="fill:#FF5A5A;" cx="124.588" cy="311.006" r="20"/>
	<circle style="fill:#FF5A5A;" cx="343.556" cy="175.918" r="20"/>
</g>
<path d="M141.197,179.171L206,240.713v14.04h-61.416c-5.522,0-10,4.477-10,10s4.478,10,10,10H216c5.522,0,10-4.477,10-10V236.42
	c0-2.742-1.126-5.363-3.113-7.251l-67.916-64.499c-4.007-3.805-10.335-3.64-14.138,0.365
	C137.029,169.039,137.193,175.368,141.197,179.171z"/>
<path d="M164.013,142.35c-3.905,3.905-3.905,10.237,0,14.142l64.52,64.52c1.876,1.875,4.419,2.929,7.071,2.929h0.313
	c5.522,0,10-4.477,10-10v-92.27c0-5.523-4.478-10-10-10c-5.522,0-10,4.477-10,10v68.44l-47.762-47.762
	C174.249,138.444,167.919,138.444,164.013,142.35z"/>
<path d="M266.082,121.671v122.249c0,4.044,2.437,7.691,6.173,9.239c1.237,0.513,2.537,0.762,3.825,0.762
	c2.603,0,5.16-1.017,7.073-2.929l47.84-47.84c3.826,1.773,8.081,2.769,12.567,2.769c16.542,0,30-13.458,30-30s-13.458-30-30-30
	s-30,13.458-30,30c0,4.764,1.121,9.268,3.105,13.273l-30.585,30.585v-98.107c0-5.523-4.478-10-10-10
	S266.082,116.148,266.082,121.671z M343.561,165.92c5.514,0,10,4.486,10,10c0,5.514-4.486,10-10,10s-10-4.486-10-10
	C333.561,170.406,338.048,165.92,343.561,165.92z"/>
<path d="M165.754,44.877c1.739,0,3.502-0.454,5.105-1.409l0.207-0.124c4.758-2.804,6.342-8.934,3.538-13.692
	c-2.803-4.757-8.933-6.343-13.692-3.538l-0.283,0.168c-4.745,2.825-6.303,8.962-3.478,13.708
	C159.021,43.133,162.344,44.877,165.754,44.877z"/>
<path d="M64.002,206.119c-16.542,0-30,13.458-30,30s13.458,30,30,30s30-13.458,30-30S80.544,206.119,64.002,206.119z
	 M64.002,246.118c-5.514,0-10-4.486-10-10s4.486-10,10-10s10,4.486,10,10S69.516,246.118,64.002,246.118z"/>
<path d="M302.478,94.005c16.542,0,30-13.458,30-30s-13.458-30-30-30c-16.542,0-30,13.458-30,30S285.936,94.005,302.478,94.005z
	 M302.478,54.005c5.514,0,10,4.486,10,10s-4.486,10-10,10s-10-4.486-10-10S296.965,54.005,302.478,54.005z"/>
<path d="M178.583,125.173c16.542,0,30-13.458,30-30s-13.458-30-30-30s-30,13.458-30,30S162.042,125.173,178.583,125.173z
	 M178.583,85.173c5.514,0,10,4.486,10,10c0,5.514-4.486,10-10,10s-10-4.486-10-10C168.584,89.659,173.07,85.173,178.583,85.173z"/>
<path d="M419.377,286.13c16.542,0,30-13.458,30-30s-13.458-30-30-30s-30,13.458-30,30S402.835,286.13,419.377,286.13z
	 M419.377,246.13c5.514,0,10,4.486,10,10s-4.486,10-10,10s-10-4.486-10-10S413.863,246.13,419.377,246.13z"/>
<path d="M462.164,424.243c-16.153-10.085-36.706-4.845-42.688-2.968c-1.136,0.269-2.234,0.738-3.239,1.407
	c-3.13,2.084-4.827,5.749-4.391,9.484c0.32,2.738,3.644,27.077,21.601,38.288c7.123,4.448,15.098,5.851,22.328,5.851
	c10.012,0,18.595-2.691,21.506-3.719c2.218-0.714,4.196-2.201,5.493-4.349c1.276-2.113,1.679-4.511,1.311-6.773
	C483.571,458.039,479.531,435.094,462.164,424.243z M444.039,453.49c-5.064-3.162-8.302-9.424-10.198-14.939
	c5.714-0.689,12.676-0.5,17.729,2.655c5.061,3.161,8.388,9.213,10.39,14.57C456.123,456.622,449.029,456.606,444.039,453.49z"/>
<path d="M56.681,443.029c10.062-16.113,4.84-36.688,2.973-42.671c-0.239-1.021-0.642-2.012-1.208-2.936
	c-2.035-3.323-5.812-5.165-9.688-4.71c-2.738,0.32-27.077,3.643-38.289,21.6c-10.598,16.972-3.901,38.816-2.134,43.829
	c0.64,1.994,1.908,3.802,3.745,5.102c1.752,1.239,3.769,1.836,5.767,1.836c0.53,0,1.059-0.042,1.581-0.125
	C22.75,464.459,45.795,460.451,56.681,443.029z M39.718,432.434c-3.161,5.06-9.212,8.387-14.568,10.389
	c-0.845-5.841-0.829-12.934,2.284-17.919c3.162-5.064,9.425-8.301,14.939-10.198C43.061,420.42,42.872,427.382,39.718,432.434z"/>
<path d="M419.378,492c-2.63,0-5.21,1.07-7.07,2.93c-1.87,1.86-2.93,4.44-2.93,7.07s1.06,5.21,2.93,7.07
	c1.86,1.86,4.44,2.93,7.07,2.93s5.21-1.07,7.07-2.93c1.859-1.86,2.93-4.44,2.93-7.07s-1.07-5.21-2.93-7.07
	C424.588,493.07,422.008,492,419.378,492z"/>
<path d="M374.998,492h-31.966c-9.736-12.453-22.384-22.023-37.034-27.983v-96.57c18.258,16.966,42.396,26.554,67.499,26.554
	c52.986,0,96.396-41.79,99.002-94.141c24.823-19.179,39.497-48.843,39.497-80.357c0-48.713-34.888-90.503-82.111-99.644
	c-1.632-4.295-3.418-8.502-5.341-12.621c1.478,0.211,2.99,0.335,4.541,0.336c0.006,0,0.009,0,0.015,0
	c17.566,0,30.603-14.942,33.55-18.628c1.47-1.741,2.355-3.991,2.355-6.448c0-2.522-0.934-4.825-2.475-6.584
	c-1.994-2.33-15.591-17.396-33.521-17.408c-0.005,0-0.01,0-0.015,0c-11.676,0-21.347,6.389-27.378,11.714
	c-6.627-8.327-13.936-16.037-21.827-23.064c2.294-0.877,4.551-2.032,6.691-3.54c13.155-9.273,15.046-27.265,15.312-31.577
	c0.195-2.274-0.383-4.625-1.801-6.629c-1.447-2.045-3.527-3.386-5.79-3.938c-2.753-0.701-20.765-4.775-34.218,4.704
	c-6.693,4.717-10.531,11.571-12.73,17.737C320.009,8.575,288.746,0,256,0c-20.788,0-41.203,3.407-60.679,10.126
	c-5.221,1.801-7.993,7.494-6.191,12.715c1.801,5.221,7.494,7.992,12.715,6.191C219.216,23.039,237.436,20,256,20
	c70.896,0,133.999,45.023,157.024,112.036c1.233,3.591,4.395,6.173,8.16,6.666c40.37,5.281,70.812,40.019,70.812,80.802
	c0,26.693-13.113,51.735-35.079,66.988c-2.691,1.869-4.296,4.938-4.296,8.214l0.002,0.169c0,43.63-35.496,79.126-79.126,79.126
	c-22.329,0-43.707-9.499-58.696-26.069l-6.353-7.875c-0.532-0.66-1.137-1.224-1.786-1.711h80.334c3.496,0,6.738-1.826,8.551-4.816
	s1.933-6.709,0.315-9.809l-20-38.344c-1.809-3.469-5.478-5.568-9.382-5.362l-61.183,3.157v-8.829l29.207-29.207
	c3.905-3.905,3.905-10.237,0-14.143c-3.906-3.905-10.236-3.905-14.143,0l-32.136,32.136c-1.875,1.875-2.929,4.419-2.929,7.071v23.5
	c0,2.742,1.126,5.363,3.113,7.251c1.988,1.888,4.668,2.875,7.402,2.736l65.285-3.369l9.403,18.027h-74.505c-5.522,0-10,4.477-10,10
	V471c0,4.264,2.703,8.059,6.733,9.452l2.093,0.723c7.329,2.533,14.075,6.191,20.075,10.825H197.099
	c5.999-4.634,12.746-8.292,20.074-10.825l2.094-0.723c4.03-1.393,6.733-5.188,6.733-9.452V314.001c0-3.28-1.608-6.351-4.304-8.219
	l-18-12.475c-1.673-1.16-3.66-1.781-5.696-1.781h-50.624c-5.507-6.435-13.678-10.525-22.792-10.525c-16.542,0-30,13.458-30,30
	s13.458,30,30,30c16.366,0,29.704-13.175,29.987-29.475h40.304L206,319.237v18.634c-0.187,0.183-0.372,0.368-0.547,0.568
	l-8.137,9.359C182.321,364.45,160.888,374,138.501,374c-43.63,0-79.126-35.497-79.127-79.038c0.001-0.058,0.003-0.2,0.003-0.258
	c0-3.276-1.604-6.345-4.296-8.214c-21.966-15.253-35.079-40.296-35.079-66.988c0-40.784,30.443-75.521,70.812-80.802
	c3.766-0.493,6.927-3.075,8.16-6.666c8.498-24.733,23.008-47.444,41.963-65.679c3.979-3.829,4.102-10.16,0.272-14.14
	c-3.828-3.98-10.159-4.102-14.14-0.273c-14.646,14.091-26.916,30.575-36.25,48.542c-1.634-3.327-3.775-6.55-6.584-9.407
	C72.267,78.909,53.283,79.003,47.368,79.371c-1.285-0.013-2.559,0.221-3.782,0.707c-3.406,1.354-5.799,4.464-6.234,8.104
	c-0.297,2.478-2.509,24.605,11.001,38.338c1.443,1.467,2.994,2.732,4.604,3.857c-31.736,17.368-52.953,51.14-52.953,89.127
	c0,31.514,14.674,61.178,39.497,80.357c2.605,52.352,46.015,94.141,99.002,94.141c25.104,0,49.24-9.588,67.499-26.554v96.569
	c-14.649,5.961-27.297,15.531-37.034,27.983h-29.352c-2.005-8.634-7.293-23.96-20.492-32.201
	c-16.999-10.615-38.856-3.892-43.846-2.127c-2.363,0.765-4.444,2.406-5.716,4.757c-1.077,1.991-1.409,4.19-1.088,6.273
	c0.302,2.063,2.148,12.983,8.464,23.298H44.002c-5.522,0-10,4.477-10,10s4.478,10,10,10h330.996c5.522,0,10-4.477,10-10
	S380.52,492,374.998,492z M428.992,78.506c0.002,0,0.004,0,0.005,0c3.999,0.002,8.077,1.984,11.439,4.313
	c-3.335,2.552-7.399,4.756-11.338,4.756c-0.002,0-0.004,0-0.005,0c-3.986-0.001-8.075-2.113-11.433-4.568
	C420.997,80.596,425.065,78.506,428.992,78.506z M371.504,22.525c2.27-1.599,5.328-2.271,8.311-2.458
	c-1.067,2.873-2.631,5.631-4.857,7.202c-2.267,1.598-5.388,2.204-8.437,2.31C367.641,26.796,369.253,24.111,371.504,22.525z
	 M124.584,321.002c-5.514,0-10-4.486-10-10s4.486-10,10-10c5.514,0,10,4.486,10,10S130.098,321.002,124.584,321.002z
	 M69.978,105.102c3.166,3.22,4.721,8.115,5.423,12.574c-4.625-0.579-9.68-2.019-12.789-5.181c-3.156-3.209-4.612-8.238-5.208-12.813
	C61.901,100.363,66.834,101.906,69.978,105.102z M100.999,489.048c-5.06-3.162-8.388-9.214-10.389-14.571
	c5.839-0.844,12.931-0.829,17.92,2.287c5.063,3.162,8.301,9.424,10.197,14.938c-1.226,0.148-6.669,0.298-6.669,0.298
	C108.141,491.847,104.189,491.04,100.999,489.048z"/>
<g>
</g>
<g>
</g>
<g>
</g>
<g>
</g>
<g>
</g>
<g>
</g>
<g>
</g>
<g>
</g>
<g>
</g>
<g>
</g>
<g>
</g>
<g>
</g>
<g>
</g>
<g>
</g>
<g>
</g>
</svg>
