<?xml version="1.0" encoding="iso-8859-1"?>
<!-- Generator: Adobe Illustrator 19.0.0, SVG Export Plug-In . SVG Version: 6.00 Build 0)  -->
<svg version="1.1" id="Capa_1" xmlns="http://www.w3.org/2000/svg" xmlns:xlink="http://www.w3.org/1999/xlink" x="0px" y="0px"
	 viewBox="0 0 512.002 512.002" style="enable-background:new 0 0 512.002 512.002;" xml:space="preserve">
<circle style="fill:#F5B955;" cx="399.67" cy="112.33" r="48"/>
<path style="fill:#73E6E1;" d="M10.001,123.887c0,38.362,30.445,69.461,68,69.461s68-31.099,68-69.461
	c0-16.63-5.724-31.892-15.265-43.851h0.005L78.242,10.985l-52.729,68.69h0.039C15.838,91.686,10.001,107.09,10.001,123.887z"/>
<path style="fill:#C88C64;" d="M331.704,502.001l-30.027-30.027c-26.236-26.236-68.773-26.236-95.009,0l-30.027,30.027H331.704z"/>
<path style="fill:#A5DC69;" d="M164.828,382.319c40.68,40.68,88.082,24.706,88.082,24.706s15.973-47.402-24.706-88.082
	s-87.622-24.748-88.084-24.708C140.12,294.235,124.148,341.639,164.828,382.319z"/>
<path style="fill:#46C373;" d="M393.087,259.676c-0.547-0.047-56.079-18.894-104.203,29.23s-29.227,104.2-29.227,104.2
	s56.076,18.896,104.2-29.227S393.087,259.676,393.087,259.676z"/>
<path d="M399.672,170.328c31.981,0,58-26.019,58-58s-26.019-58-58-58s-58,26.019-58,58S367.691,170.328,399.672,170.328z
	 M399.672,74.328c20.953,0,38,17.047,38,38s-17.047,38-38,38s-38-17.047-38-38S378.719,74.328,399.672,74.328z"/>
<path d="M399.672,30.351c5.522,0,10-4.477,10-10V10c0-5.523-4.478-10-10-10s-10,4.477-10,10v10.351
	C389.672,25.874,394.15,30.351,399.672,30.351z"/>
<path d="M389.672,204.304v10.351c0,5.523,4.478,10,10,10s10-4.477,10-10v-10.351c0-5.523-4.478-10-10-10
	S389.672,198.781,389.672,204.304z"/>
<path d="M502.001,102.328h-10.352c-5.522,0-10,4.477-10,10s4.478,10,10,10h10.352c5.522,0,10-4.477,10-10
	S507.523,102.328,502.001,102.328z"/>
<path d="M297.345,122.328h10.352c5.522,0,10-4.477,10-10s-4.478-10-10-10h-10.352c-5.522,0-10,4.477-10,10
	S291.823,122.328,297.345,122.328z"/>
<path d="M464.711,57.291c2.56,0,5.119-0.977,7.071-2.929l7.319-7.32c3.905-3.905,3.905-10.237,0-14.142
	c-3.906-3.905-10.238-3.905-14.143,0l-7.319,7.32c-3.905,3.905-3.905,10.237,0,14.142C459.592,56.314,462.151,57.291,464.711,57.291
	z"/>
<path d="M327.564,170.293l-7.319,7.319c-3.905,3.905-3.905,10.237,0,14.143c1.953,1.953,4.512,2.929,7.071,2.929
	s5.118-0.976,7.071-2.929l7.319-7.319c3.905-3.905,3.905-10.237,0-14.143C337.8,166.388,331.47,166.388,327.564,170.293z"/>
<path d="M471.782,170.293c-3.906-3.905-10.236-3.905-14.143,0c-3.905,3.905-3.905,10.237,0,14.143l7.319,7.319
	c1.953,1.953,4.512,2.929,7.071,2.929s5.118-0.976,7.071-2.929c3.905-3.905,3.905-10.237,0-14.143L471.782,170.293z"/>
<path d="M327.564,54.361c1.953,1.953,4.512,2.929,7.071,2.929c2.559,0,5.118-0.977,7.071-2.929c3.905-3.905,3.905-10.237,0-14.142
	l-7.319-7.32c-3.905-3.905-10.235-3.905-14.143,0c-3.905,3.905-3.905,10.237,0,14.142L327.564,54.361z"/>
<path d="M156.001,123.887c0-18.098-6.128-35.789-17.263-49.854c-0.013-0.017-0.025-0.033-0.037-0.049L86.203,4.933
	c-1.887-2.481-4.821-3.94-7.938-3.948c-0.008,0-0.016,0-0.023,0c-3.107,0-6.039,1.445-7.933,3.911L17.58,73.585
	c-0.121,0.158-0.236,0.318-0.347,0.482c-11.119,14.064-17.232,31.72-17.232,49.82c0,43.815,34.99,79.461,78,79.461
	S156.001,167.702,156.001,123.887z M20.001,123.887c0-13.83,4.732-27.298,13.327-37.924c0.221-0.274,0.427-0.557,0.615-0.848
	l44.261-57.658l44.403,58.405c0.1,0.139,0.204,0.276,0.312,0.411c8.436,10.572,13.082,23.931,13.082,37.613
	c0,32.787-26.019,59.461-58,59.461S20.001,156.674,20.001,123.887z"/>
<path d="M122.001,123.887c0-5.523-4.478-10-10-10s-10,4.477-10,10c0,13.637-10.767,24.731-24,24.731c-5.522,0-10,4.477-10,10
	s4.478,10,10,10C102.262,168.618,122.001,148.552,122.001,123.887z"/>
<path d="M363.43,374.303c2.542,0,5.085-0.963,7.034-2.893l0.476-0.473c3.898-3.912,3.888-10.244-0.024-14.142
	c-3.911-3.899-10.244-3.888-14.142,0.024l-0.378,0.376c-3.926,3.885-3.958,10.216-0.073,14.142
	C358.279,373.314,360.854,374.303,363.43,374.303z"/>
<path d="M308.749,464.902c-11.751-11.75-26.625-19.237-42.748-21.702v-38.298c5.226,0.966,12.346,1.866,20.766,1.865
	c12.479,0,27.805-1.977,43.993-8.64c5.107-2.103,7.544-7.946,5.441-13.054c-2.103-5.107-7.949-7.542-13.053-5.441
	c-16.274,6.699-31.621,7.606-42.761,6.886l44.526-44.526c3.905-3.905,3.905-10.237,0-14.142c-3.904-3.905-10.234-3.905-14.143,0
	l-44.554,44.554c-0.266-4.02-0.317-8.583,0.043-13.53c1.733-23.764,11.725-44.926,29.696-62.896
	c34.834-34.834,73.774-31.223,88.937-28.044c1.971,9.422,4.579,30.863-5.063,54.702c-2.07,5.12,0.401,10.949,5.521,13.02
	c5.121,2.07,10.949-0.401,13.021-5.521c15.646-38.682,4.667-72.241,4.192-73.651c-1.09-3.235-3.737-5.652-6.971-6.488l-0.041-0.012
	c-10.586-3.089-65.814-16.071-113.738,31.852c-16.477,16.477-25.76,33.768-30.738,49.781c-4.129-6.615-9.31-13.254-15.8-19.743
	c-41.127-41.127-88.579-29.971-97.673-27.315l-0.01,0.003c-3.224,0.841-5.861,3.254-6.949,6.483
	c-0.733,2.176-17.439,53.794,27.113,98.348c25.154,25.154,52.555,30.779,72.043,30.779c6.368,0,11.878-0.603,16.201-1.32v23.882
	c-17.526,1.833-33.77,9.537-46.403,22.17L169.57,494.93c-3.905,3.905-3.905,10.237,0,14.143c3.906,3.905,10.236,3.905,14.143,0
	l30.027-30.028c10.8-10.8,25.159-16.748,40.433-16.748s29.634,5.948,40.434,16.748l30.027,30.027
	c1.953,1.953,4.512,2.929,7.071,2.929s5.118-0.976,7.071-2.929c3.905-3.905,3.905-10.237,0-14.143L308.749,464.902z
	 M171.899,375.248c-28.615-28.615-25.972-60.489-23.563-72.717c13.174-2.565,44.586-4.728,72.797,23.484
	c21.368,21.368,25.302,44.549,24.923,60.014l-35.259-35.258c-3.906-3.905-10.236-3.905-14.143,0c-3.905,3.905-3.905,10.237,0,14.142
	l35.193,35.192C216.35,400.441,193.138,396.487,171.899,375.248z"/>
<path d="M54.001,241.501v0.5c0,5.523,4.478,10,10,10c5.522,0,10-4.477,10-10v-0.5c0-5.523-4.478-10-10-10
	S54.001,235.978,54.001,241.501z"/>
<path d="M146.001,423.628c-3.7,0-6.924,2.015-8.653,5.003c-39.942-36.865-63.347-89.58-63.347-144.304c0-5.523-4.478-10-10-10
	s-10,4.477-10,10c0,33.048,7.743,66.174,22.393,95.798c11.559,23.376,27.477,44.644,46.576,62.439
	c-1.532,1.757-2.467,4.048-2.467,6.562c0,5.523,4.478,10,10,10h15.498c5.522,0,10-4.477,10-10v-15.498
	C156.001,428.105,151.523,423.628,146.001,423.628z"/>
<path d="M448.001,246.001c-5.522,0-10,4.477-10,10v28.326c0,54.724-23.405,107.44-63.347,144.304
	c-1.729-2.988-4.953-5.003-8.653-5.003c-5.522,0-10,4.477-10,10v15.498c0,5.523,4.478,10,10,10h15.498c5.522,0,10-4.477,10-10
	c0-2.514-0.935-4.805-2.467-6.562c19.099-17.795,35.017-39.062,46.576-62.439c14.649-29.624,22.393-62.75,22.393-95.798v-28.326
	C458.001,250.478,453.523,246.001,448.001,246.001z"/>
<g>
</g>
<g>
</g>
<g>
</g>
<g>
</g>
<g>
</g>
<g>
</g>
<g>
</g>
<g>
</g>
<g>
</g>
<g>
</g>
<g>
</g>
<g>
</g>
<g>
</g>
<g>
</g>
<g>
</g>
</svg>
