<?xml version="1.0" encoding="iso-8859-1"?>
<!-- Generator: Adobe Illustrator 19.0.0, SVG Export Plug-In . SVG Version: 6.00 Build 0)  -->
<svg version="1.1" id="Capa_1" xmlns="http://www.w3.org/2000/svg" xmlns:xlink="http://www.w3.org/1999/xlink" x="0px" y="0px"
	 viewBox="0 0 512.001 512.001" style="enable-background:new 0 0 512.001 512.001;" xml:space="preserve">
<g>
	<circle style="fill:#78D2FA;" cx="448" cy="162.26" r="20"/>
	<circle style="fill:#78D2FA;" cx="404.15" cy="256.73" r="16"/>
	<circle style="fill:#78D2FA;" cx="311.33" cy="448.61" r="16"/>
	<circle style="fill:#78D2FA;" cx="64" cy="146.26" r="16"/>
	<circle style="fill:#78D2FA;" cx="345.46" cy="142.27" r="20"/>
</g>
<g>
	<path style="fill:#6E87F5;" d="M239.616,390.419c0,0-19.801,39.636-69.112,41.151c0-26.537,0-48.055,0-48.055L239.616,390.419z"/>
	<path style="fill:#6E87F5;" d="M239.616,218.313c0,0-19.801-39.636-69.112-41.151c0,26.537,0,48.055,0,48.055L239.616,218.313z"/>
</g>
<path style="fill:#9BBEFF;" d="M226.717,217.644c-57.675,0-107.575,25.246-138.759,45.903C72.536,236.492,43.409,218.24,10,218.24
	c0.002,21.357,7.496,40.967,20.001,56.352c14.05,17.285,14.05,42.331,0,59.616C17.496,349.593,10.002,369.202,10,390.559
	c33.409,0,62.536-18.252,77.957-45.307c31.185,20.656,81.086,45.903,138.76,45.903c84.376,0,130.747-86.706,130.747-86.706v-0.1
	C357.464,304.35,311.092,217.644,226.717,217.644z"/>
<path style="fill:#78D2FA;" d="M357.464,304.35c0,0-22.32-41.716-64.154-67.276c-17.792,16.946-28.88,40.866-28.88,67.376
	c0,26.478,11.062,50.373,28.816,67.315c41.875-25.557,64.218-67.315,64.218-67.315V304.35z"/>
<path d="M315.34,315.491c6.111,0,11.083-4.972,11.083-11.083s-4.972-11.083-11.083-11.083s-11.083,4.972-11.083,11.083
	S309.229,315.491,315.34,315.491z"/>
<path d="M330.727,354.947c22.974-22.492,35.052-44.842,35.555-45.782c0.776-1.451,1.182-3.17,1.182-4.815s-0.406-3.265-1.182-4.716
	c-0.503-0.94-12.582-23.29-35.555-45.783c-25.563-25.029-54.618-40.276-84.955-44.786c-7.499-11.674-30.469-40.532-74.961-41.899
	c-2.705-0.09-5.327,0.933-7.269,2.816s-3.039,4.473-3.039,7.179v40.675c-27.097,8.225-50.789,20.295-69.542,31.911
	C72.361,223.915,42.211,208.24,10,208.24c-2.652,0-5.196,1.054-7.071,2.929S0,215.588,0,218.24
	c0.002,22.763,7.901,45.015,22.241,62.658c11.068,13.618,11.068,33.384,0,47.001C7.901,345.543,0.002,367.795,0,390.558
	c0,2.652,1.053,5.196,2.929,7.072s4.419,2.929,7.071,2.929c32.211,0,62.36-15.675,80.96-41.507
	c18.753,11.616,42.445,23.686,69.543,31.911v40.608c0,2.706,1.096,5.295,3.039,7.179c1.868,1.812,4.366,2.821,6.961,2.821
	c0.103,0,0.205-0.001,0.308-0.005c44.397-1.364,67.366-30.103,74.914-41.825C276.078,395.24,305.15,379.989,330.727,354.947z
	 M345.883,304.399c-6.175,9.923-22.577,33.707-47.995,52.192c-12.764-14.437-19.739-32.803-19.739-52.241
	c0-19.426,6.966-37.782,19.716-52.216l-0.031-0.075c6.293,4.587,12.46,9.814,18.489,15.681
	C331.307,282.319,341.348,297.103,345.883,304.399z M180.503,188.14c17.974,2.935,30.546,11.677,38.621,19.657
	c-13.359,0.484-26.273,2.217-38.621,4.863V188.14z M87.957,335.253c-0.774,0-1.552,0.09-2.317,0.272
	c-2.693,0.641-5,2.371-6.371,4.775c-12.362,21.689-34.173,36.202-58.535,39.529c1.968-14.349,7.844-28.016,17.027-39.315
	c17.009-20.927,17.009-51.304,0-72.231c-9.184-11.298-15.059-24.966-17.027-39.314c24.362,3.327,46.173,17.84,58.535,39.529
	c1.371,2.405,3.678,4.134,6.371,4.776c2.696,0.642,5.532,0.138,7.84-1.391c30.468-20.182,78.315-44.24,133.237-44.24
	c18.743,0,36.814,4.603,54.051,13.719c-14.646,17.693-22.617,39.727-22.617,62.987c0,23.254,7.967,45.281,22.605,62.973
	c-12.269,6.495-26.089,11.338-41.376,13.101c-0.51,0.013-1.014,0.071-1.513,0.16c-3.636,0.369-7.351,0.571-11.149,0.571
	c-54.921,0-102.769-24.058-133.237-44.239C91.827,335.822,89.904,335.253,87.957,335.253z M180.503,420.585V396.14
	c12.308,2.637,25.179,4.367,38.492,4.858C210.901,408.946,198.34,417.651,180.503,420.585z"/>
<path d="M10,96.556c18.011,0,35.46-6.395,49.2-17.806c13.739,11.411,31.188,17.806,49.2,17.806s35.461-6.395,49.2-17.806
	c13.739,11.411,31.188,17.806,49.2,17.806s35.461-6.395,49.2-17.806c13.739,11.411,31.189,17.806,49.2,17.806
	s35.46-6.395,49.2-17.806c13.739,11.411,31.188,17.806,49.2,17.806c18.011,0,35.46-6.395,49.2-17.806
	c13.739,11.411,31.188,17.806,49.2,17.806c5.523,0,10-4.477,10-10s-4.477-10-10-10c-15.838,0-31.092-6.686-41.851-18.344
	c-1.893-2.051-4.557-3.218-7.349-3.218l0,0c-2.791,0-5.455,1.167-7.348,3.218c-10.76,11.658-26.014,18.344-41.852,18.344
	c-15.838,0-31.093-6.686-41.852-18.344c-1.893-2.051-4.557-3.218-7.349-3.218s-5.456,1.167-7.349,3.218
	c-10.758,11.658-26.011,18.344-41.85,18.344s-31.093-6.686-41.852-18.344c-1.893-2.051-4.557-3.218-7.349-3.218
	s-5.456,1.167-7.349,3.218c-10.757,11.658-26.012,18.344-41.85,18.344s-31.092-6.686-41.851-18.344
	c-1.893-2.051-4.557-3.218-7.349-3.218s-5.456,1.167-7.349,3.218C139.493,69.87,124.238,76.556,108.4,76.556
	S77.308,69.87,66.549,58.212c-1.893-2.051-4.557-3.218-7.349-3.218l0,0c-2.791,0-5.455,1.167-7.348,3.218
	C41.092,69.87,25.838,76.556,10,76.556c-5.523,0-10,4.477-10,10S4.477,96.556,10,96.556z"/>
<path d="M59.2,42.169c18.012,0,35.461-6.395,49.2-17.806c13.739,11.411,31.188,17.806,49.2,17.806c18.011,0,35.46-6.395,49.2-17.806
	c13.739,11.411,31.188,17.806,49.2,17.806c18.011,0,35.46-6.395,49.2-17.806c13.739,11.411,31.188,17.806,49.2,17.806
	c18.012,0,35.461-6.395,49.2-17.806c13.739,11.411,31.188,17.806,49.2,17.806c21.404,0,42.016-9.032,56.549-24.78
	c3.746-4.059,3.492-10.385-0.567-14.13c-4.059-3.747-10.386-3.493-14.13,0.567C483.893,15.484,468.639,22.17,452.8,22.17
	c-15.838,0-31.092-6.686-41.851-18.344c-1.893-2.052-4.557-3.218-7.349-3.218s-5.456,1.167-7.349,3.218
	c-10.759,11.658-26.013,18.344-41.852,18.344c-15.838,0-31.092-6.686-41.851-18.344c-1.893-2.052-4.557-3.218-7.349-3.218
	s-5.456,1.167-7.349,3.218C287.092,15.483,271.838,22.169,256,22.169c-15.839,0-31.093-6.686-41.852-18.344
	c-1.893-2.052-4.557-3.218-7.349-3.218s-5.456,1.167-7.349,3.218c-10.759,11.658-26.013,18.344-41.851,18.344
	c-15.839,0-31.093-6.686-41.852-18.344c-1.893-2.052-4.557-3.218-7.349-3.218s-5.456,1.167-7.349,3.218
	C90.292,15.483,75.039,22.169,59.2,22.169c-15.838,0-31.092-6.686-41.851-18.344C13.604-0.233,7.276-0.488,3.218,3.259
	C-0.84,7.004-1.094,13.33,2.651,17.389C17.185,33.137,37.795,42.169,59.2,42.169z"/>
<path d="M448,132.257c-16.542,0-30,13.458-30,30s13.458,30,30,30s30-13.458,30-30S464.542,132.257,448,132.257z M448,172.257
	c-5.514,0-10-4.486-10-10s4.486-10,10-10s10,4.486,10,10S453.514,172.257,448,172.257z"/>
<path d="M378.155,256.734c0,14.336,11.664,26,26,26s26-11.664,26-26c0-14.336-11.664-26-26-26S378.155,242.398,378.155,256.734z
	 M404.155,250.734c3.309,0,6,2.691,6,6c0,3.309-2.691,6-6,6s-6-2.691-6-6C398.155,253.426,400.847,250.734,404.155,250.734z"/>
<path d="M311.333,422.607c-14.336,0-26,11.664-26,26s11.664,26,26,26s26-11.664,26-26S325.67,422.607,311.333,422.607z
	 M311.333,454.607c-3.309,0-6-2.691-6-6s2.691-6,6-6s6,2.691,6,6S314.642,454.607,311.333,454.607z"/>
<path d="M38,146.257c0,14.336,11.664,26,26,26s26-11.664,26-26s-11.664-26-26-26S38,131.921,38,146.257z M70,146.257
	c0,3.309-2.691,6-6,6s-6-2.691-6-6s2.691-6,6-6S70,142.948,70,146.257z"/>
<path d="M315.463,142.274c0,16.542,13.458,30,30,30s30-13.458,30-30s-13.458-30-30-30S315.463,125.732,315.463,142.274z
	 M355.463,142.274c0,5.514-4.486,10-10,10s-10-4.486-10-10s4.486-10,10-10S355.463,136.76,355.463,142.274z"/>
<path d="M484.453,290.609c-3.942,3.868-4.002,10.199-0.135,14.142c0.007,0.007,0.067,0.067,0.081,0.082
	c1.958,1.993,4.545,2.993,7.135,2.993c2.527,0,5.057-0.952,7.003-2.862c3.942-3.868,4.002-10.199,0.135-14.142l-0.077-0.078
	C494.726,286.801,488.395,286.741,484.453,290.609z"/>
<path d="M512,425.026c0-12.287-4.785-23.839-13.473-32.526c-4.911-4.911-7.615-11.44-7.615-18.385s2.705-13.474,7.616-18.385
	c5.365-5.366,9.35-12.022,11.523-19.252c1.59-5.289-1.409-10.865-6.698-12.456c-5.288-1.591-10.866,1.408-12.456,6.697
	c-1.242,4.133-3.434,7.79-6.513,10.868c-17.935,17.936-17.935,47.119,0,65.054c10.138,10.137,10.137,26.632,0,36.769
	c-17.935,17.936-17.935,47.118,0,65.054c1.953,1.953,4.512,2.929,7.071,2.929c2.559,0,5.119-0.977,7.071-2.929
	c3.905-3.905,3.906-10.237,0-14.142c-10.137-10.138-10.137-26.632,0-36.77C507.215,448.865,512,437.313,512,425.026z"/>
<path d="M444.634,392.499c-4.911-4.911-7.616-11.44-7.616-18.385s2.705-13.474,7.615-18.384c3.905-3.905,3.906-10.237,0-14.142
	s-10.237-3.905-14.142,0c-8.688,8.688-13.474,20.24-13.474,32.527s4.785,23.839,13.473,32.527c10.137,10.137,10.137,26.632,0,36.769
	c-8.688,8.688-13.474,20.24-13.474,32.527s4.785,23.839,13.473,32.527c1.953,1.953,4.512,2.929,7.071,2.929s5.119-0.976,7.071-2.929
	c3.905-3.905,3.905-10.237,0-14.143c-4.911-4.911-7.616-11.44-7.616-18.385s2.705-13.474,7.616-18.385
	C462.569,439.617,462.569,410.435,444.634,392.499z"/>
<path d="M404.544,425.026c0-12.287-4.785-23.839-13.474-32.527c-3.905-3.905-10.237-3.905-14.142,0s-3.905,10.237,0,14.142
	c4.911,4.911,7.615,11.439,7.615,18.384s-2.705,13.474-7.615,18.385c-8.688,8.688-13.474,20.24-13.474,32.527
	s4.785,23.839,13.473,32.527c1.953,1.953,4.512,2.929,7.071,2.929s5.119-0.976,7.071-2.929c3.905-3.905,3.905-10.237,0-14.143
	c-4.911-4.911-7.616-11.44-7.616-18.385s2.705-13.474,7.616-18.384C399.759,448.865,404.544,437.313,404.544,425.026z"/>
<path d="M183.662,252.941c-26.519,6.415-53.145,18.398-79.138,35.616c-4.604,3.05-5.864,9.255-2.814,13.859
	c1.924,2.905,5.104,4.479,8.346,4.479c1.896,0,3.814-0.539,5.513-1.664c16.535-10.953,42.586-25.542,72.795-32.851
	c5.368-1.299,8.667-6.703,7.369-12.071C194.435,254.942,189.03,251.646,183.662,252.941z"/>
<path d="M236.716,257.644c0-5.523-4.477-10-10-10h-0.498c-5.523,0.018-9.986,4.509-9.969,10.031c0.018,5.513,4.491,9.969,10,9.969
	c0.01,0,0.021,0,0.032,0h0.435C232.239,267.644,236.716,263.167,236.716,257.644z"/>
<g>
</g>
<g>
</g>
<g>
</g>
<g>
</g>
<g>
</g>
<g>
</g>
<g>
</g>
<g>
</g>
<g>
</g>
<g>
</g>
<g>
</g>
<g>
</g>
<g>
</g>
<g>
</g>
<g>
</g>
</svg>
