<?xml version="1.0" encoding="iso-8859-1"?>
<!-- Generator: Adobe Illustrator 19.0.0, SVG Export Plug-In . SVG Version: 6.00 Build 0)  -->
<svg version="1.1" id="Capa_1" xmlns="http://www.w3.org/2000/svg" xmlns:xlink="http://www.w3.org/1999/xlink" x="0px" y="0px"
	 viewBox="0 0 512 512" style="enable-background:new 0 0 512 512;" xml:space="preserve">
<path style="fill:#DC4B4B;" d="M175.671,57.477C185.331,37.705,202.999,24,202.999,24s17.669,13.705,27.33,33.479L203,80.916
	L175.671,57.477z"/>
<path style="fill:#FF5A5A;" d="M203.014,105.294h-0.021C202.708,75.69,177.755,51.773,147,51.773l0.048,51.669
	c0,28.978,25.676,52.165,55.95,52.165c30.284,0,56.002-23.252,56.002-52.165V51.773C228.25,51.773,203.3,75.69,203.014,105.294z"/>
<path style="fill:#FF7373;" d="M203.014,105.294h-0.016v50.313l0,0c30.284,0,56.002-23.252,56.002-52.165V51.773
	C228.25,51.773,203.3,75.69,203.014,105.294z"/>
<path style="fill:#A5DC69;" d="M175.673,408L175.673,408c0-63.434-23.542-124.611-66.066-171.681L106.609,233l0,0
	c16.617,55.569,25.058,113.261,25.058,171.261V408H175.673z"/>
<path style="fill:#D7FA91;" d="M203,408v-5.734c0-58.32,27.892-113.123,75.042-147.445l0,0l0,0
	c-21.277,40.713-32.389,85.968-32.389,131.906V408H203z"/>
<path style="fill:#46C373;" d="M312,408v-5.734c0-58.32,27.892-113.123,75.042-147.445l0,0l0,0
	c-21.277,40.713-32.389,85.968-32.389,131.906V408H312z"/>
<path style="fill:#A5DC69;" d="M454,408v-4.154c0-42.251-20.207-81.954-54.366-106.82l0,0l0,0
	c15.415,29.495,23.465,62.282,23.465,95.562V408H454z"/>
<path style="fill:#DC4B4B;" d="M285.804,128.531c9.26-18.954,26.197-32.092,26.197-32.092s16.938,13.138,26.199,32.093L312.002,151
	L285.804,128.531z"/>
<path style="fill:#FF5A5A;" d="M312.015,174.369h-0.02c-0.273-28.379-24.193-51.306-53.675-51.306l0.046,49.53
	c0,27.778,24.613,50.006,53.635,50.006c29.031,0,53.684-22.29,53.684-50.006v-49.53C336.207,123.063,312.289,145.99,312.015,174.369
	z"/>
<path style="fill:#FF7373;" d="M312.015,174.369H312v48.23l0,0c29.031,0,53.684-22.29,53.684-50.006v-49.53
	C336.207,123.063,312.289,145.99,312.015,174.369z"/>
<g>
	<path style="fill:#FF5A5A;" d="M454,211.702h0.018c0.088-9.057,2.88-17.485,7.618-24.589l0.174-1.54
		C454.222,165.681,428.303,151,406,151v59.114c0,24.779,22.041,44.707,47.995,44.707l0.01-0.091L454,211.702z"/>
</g>
<path style="fill:#FF7373;" d="M454.005,254.821c25.954,0,47.995-19.928,47.995-44.707v-44.281
	c-26.353,0-47.736,20.497-47.982,45.869H454L454.005,254.821z"/>
<path style="fill:#FF5A5A;" d="M58.005,248.305h0.018c0.088-9.057,2.88-17.485,7.618-24.589l0.174-1.54
	c-7.589-19.892-33.507-34.573-55.811-34.573v59.114c0,24.779,22.041,44.707,47.995,44.707l0.01-0.091L58.005,248.305z"/>
<path style="fill:#FF7373;" d="M58.01,291.424c25.954,0,47.995-19.928,47.995-44.707v-44.281c-26.353,0-47.736,20.497-47.982,45.869
	h-0.018L58.01,291.424z"/>
<path d="M203,203.69c2.63,0,5.21-1.07,7.07-2.93s2.93-4.44,2.93-7.07s-1.07-5.21-2.93-7.07c-1.86-1.86-4.44-2.93-7.07-2.93
	s-5.21,1.07-7.07,2.93c-1.86,1.86-2.93,4.44-2.93,7.07s1.07,5.21,2.93,7.07C197.79,202.62,200.37,203.69,203,203.69z"/>
<path d="M448,438H106.608c-5.523,0-10,4.477-10,10s4.477,10,10,10H448c5.523,0,10-4.477,10-10S453.523,438,448,438z"/>
<path d="M64,438c-2.63,0-5.21,1.07-7.07,2.93C55.07,442.79,54,445.37,54,448s1.07,5.21,2.93,7.07c1.86,1.86,4.44,2.93,7.07,2.93
	c2.63,0,5.21-1.07,7.07-2.93S74,450.63,74,448s-1.07-5.21-2.93-7.07C69.21,439.07,66.63,438,64,438z"/>
<path d="M363.984,478H148.016c-5.523,0-10,4.477-10,10s4.477,10,10,10h215.968c5.523,0,10-4.477,10-10S369.507,478,363.984,478z"/>
<path d="M512,210.114v-44.281c0-5.523-4.477-10-10-10c-14.415,0-27.647,5.192-37.826,13.739C451.571,152.838,428.506,141,406,141
	c-5.523,0-10,4.477-10,10v59.114c0,26.951,20.773,49.397,48.005,53.878v67.285c-9.725-16.385-22.735-30.87-38.485-42.336
	c-3.755-2.733-8.898-2.521-12.416,0.512s-4.484,8.088-2.333,12.205c14.607,27.951,22.328,59.395,22.328,90.931V398h-48.446v-11.273
	c0-44.142,10.807-88.153,31.252-127.274c2.151-4.117,1.185-9.172-2.333-12.205s-8.661-3.245-12.416-0.512
	c-25.403,18.492-45.542,42.787-59.157,70.325v-85.208c30.381-4.535,53.684-29.378,53.684-59.26v-49.53c0-5.523-4.477-10-10-10
	c-7.874,0-15.426,1.412-22.407,3.98c-10.309-16.875-24.472-27.981-25.147-28.505c-3.607-2.798-8.651-2.797-12.258,0
	c-0.676,0.524-14.838,11.63-25.146,28.504c-4.044-1.487-8.28-2.584-12.66-3.244c0.608-3.391,0.936-6.849,0.936-10.356V51.773
	c0-5.523-4.477-10-10-10c-8.287,0-16.23,1.509-23.559,4.25c-10.725-17.705-25.607-29.378-26.314-29.925
	c-3.607-2.798-8.651-2.797-12.258,0c-0.706,0.548-15.587,12.22-26.311,29.924c-7.328-2.74-15.271-4.249-23.558-4.249
	c-2.654,0-5.199,1.055-7.074,2.932c-1.876,1.877-2.928,4.423-2.926,7.077l0.048,51.659c0,34.278,29.585,62.165,65.951,62.165
	c16.892,0,32.944-6.105,45.342-17.19l0.022,24.177c0,29.879,23.281,54.721,53.635,59.259V398h-46.347v-11.273
	c0-44.142,10.807-88.153,31.252-127.274c2.151-4.117,1.185-9.172-2.333-12.205c-3.517-3.033-8.66-3.245-12.416-0.512
	c-25.403,18.492-45.542,42.787-59.157,70.325V235.5c0-5.523-4.477-10-10-10s-10,4.477-10,10V398h-7.531
	c-2.331-62.407-26.416-121.866-68.443-168.386L116,228.478v-26.042c0-5.523-4.477-10-10-10c-14.415,0-27.647,5.192-37.826,13.738
	C55.572,189.442,32.506,177.603,10,177.603c-5.523,0-10,4.477-10,10v59.114c0,26.951,20.773,49.397,48.005,53.878V398H10
	c-5.523,0-10,4.477-10,10s4.477,10,10,10h492c5.523,0,10-4.477,10-10s-4.477-10-10-10h-37.995V263.99
	C491.232,259.505,512,237.062,512,210.114z M492,177.119v32.996c0,15.667-12.066,29.309-27.997,33.434L464,212.306
	c0.01-0.168,0.016-0.336,0.018-0.507C464.178,195.271,476.04,181.311,492,177.119z M416,210.114v-48.04
	c14.695,3.082,28.791,12.452,34.872,23.619c-4.18,7.565-6.645,16.144-6.843,25.248c-0.019,0.252-0.029,0.507-0.029,0.762
	l0.004,31.837C428.072,239.416,416,225.782,416,210.114z M427.035,341.836c9.969,16.925,15.841,36.199,16.807,56.164H433.1v-5.412
	C433.099,375.498,431.041,358.431,427.035,341.836z M344.653,386.727V398h-22.594c0.939-37.568,14.24-73.595,37.134-102.62
	C349.616,324.817,344.653,355.74,344.653,386.727z M355.684,172.593c0,18.546-14.636,34.62-33.684,38.888v-36.779
	c0.003-0.079,0.013-0.157,0.014-0.236c0.189-19.541,14.568-35.964,33.67-40.29L355.684,172.593L355.684,172.593z M312.014,109.851
	c4.029,3.952,9.347,9.829,13.783,16.941c-5.381,4.218-10.052,9.261-13.792,14.935c-3.74-5.674-8.412-10.716-13.793-14.935
	C302.64,119.712,307.977,113.818,312.014,109.851z M203.001,37.4c4.326,4.219,10.171,10.626,14.957,18.362
	c-5.88,4.555-10.949,10.059-14.952,16.271c-4.005-6.213-9.076-11.719-14.958-16.274C192.833,48.023,198.678,41.617,203.001,37.4z
	 M157.05,103.433l-0.038-40.602c20.378,4.374,35.783,21.795,35.982,42.56c0,0.03,0.005,0.06,0.005,0.09v39.109
	C172.457,140.387,157.05,123.539,157.05,103.433z M213,144.545v-38.901c0.003-0.085,0.014-0.167,0.015-0.253
	c0.201-20.767,15.608-38.191,35.987-42.562v40.612C249.002,123.161,233.317,140.228,213,144.545z M268.365,172.584l-0.036-38.406
	c19.101,4.329,33.478,20.749,33.665,40.287c0,0.03,0.005,0.06,0.005,0.09v36.971C282.745,207.369,268.365,191.496,268.365,172.584z
	 M235.653,386.727V398h-22.594c0.939-37.568,14.24-73.595,37.134-102.62C240.616,324.817,235.653,355.74,235.653,386.727z
	 M165.463,398h-23.838c-0.417-40.522-4.866-80.814-13.291-120.354C150.872,313.698,163.729,355.082,165.463,398z M96,213.722v32.996
	c0,15.667-12.066,29.309-27.997,33.434L68,248.909c0.01-0.168,0.016-0.336,0.018-0.507C68.178,231.874,80.04,217.914,96,213.722z
	 M20,246.717v-48.04c14.695,3.082,28.791,12.452,34.872,23.619c-4.18,7.565-6.645,16.144-6.843,25.248
	C48.01,247.797,48,248.051,48,248.306l0.004,31.837C32.072,276.019,20,262.385,20,246.717z M68.005,300.594
	c16.602-2.735,30.799-12.141,39.352-25.185c9.04,40.22,13.814,81.282,14.253,122.591H68.005V300.594z"/>
<g>
</g>
<g>
</g>
<g>
</g>
<g>
</g>
<g>
</g>
<g>
</g>
<g>
</g>
<g>
</g>
<g>
</g>
<g>
</g>
<g>
</g>
<g>
</g>
<g>
</g>
<g>
</g>
<g>
</g>
</svg>
