<?xml version="1.0" encoding="iso-8859-1"?>
<!-- Generator: Adobe Illustrator 19.0.0, SVG Export Plug-In . SVG Version: 6.00 Build 0)  -->
<svg version="1.1" id="Capa_1" xmlns="http://www.w3.org/2000/svg" xmlns:xlink="http://www.w3.org/1999/xlink" x="0px" y="0px"
	 viewBox="0 0 511.999 511.999" style="enable-background:new 0 0 511.999 511.999;" xml:space="preserve">
<path style="fill:#C88C64;" d="M279.889,428.936l8.094-6.459c23.596-18.831,56.547-20.599,82.022-4.401L501.998,502H10.002
	l131.993-83.924c25.476-16.198,58.426-14.43,82.022,4.401l8.094,6.459C246.085,440.088,265.915,440.088,279.889,428.936z"/>
<g>
	<path style="fill:#A5DC69;" d="M250.014,20.545c-12.617-13.136-47.482-20.241-76.179,17.344s-15.807,75.673,1.341,85.132
		c17.148,9.459,35.172,0.718,39.836-10.413c5.955-14.209-2.132-21.223,6.586-34.813c8.86-13.811,23.575-10.027,32.722-24.158
		C261.161,43.07,259.591,30.516,250.014,20.545z"/>
	<path style="fill:#A5DC69;" d="M351.096,232.28c18.147-1.562,45.581-24.221,34.373-70.161
		c-11.208-45.942-48.938-59.845-67.07-52.448c-18.133,7.397-22.658,26.911-16.93,37.533c7.313,13.561,17.85,11.677,22.945,26.998
		c5.178,15.57-7.013,24.64-1.767,40.635C326.569,226.799,337.322,233.466,351.096,232.28z"/>
</g>
<path style="fill:#46C373;" d="M238.961,367.093c17.665,4.438,50.986-8.041,55.365-55.126s-26.759-72.527-46.312-71.445
	c-19.553,1.082-30.192,18.056-28.239,29.965c2.493,15.204,13.069,16.857,12.891,33.002c-0.18,16.408-14.661,21.009-14.916,37.84
	C217.56,353.916,225.552,363.724,238.961,367.093z"/>
<path d="M170.345,131.778c6.36,3.508,13.204,5.285,20.046,5.285c4.411,0,8.822-0.739,13.1-2.228
	c9.566-3.33,17.321-10.194,20.744-18.362c3.579-8.54,3.302-15.199,3.08-20.549c-0.214-5.159-0.333-8,2.701-12.729
	c2.625-4.093,5.985-5.68,11.696-8.133c6.574-2.823,14.755-6.337,21.004-15.991c9.336-14.422,7.182-32.264-5.488-45.455
	c-8.816-9.18-23.445-14.369-38.169-13.529c-13.8,0.782-34.228,6.921-53.171,31.732c-21.483,28.137-20.19,53.739-17.508,66.495
	C151.559,113.436,159.77,125.944,170.345,131.778z M181.782,43.958c14.33-18.769,28.795-23.357,38.406-23.901
	c0.714-0.041,1.415-0.06,2.105-0.06c9.788,0,17.095,3.921,20.509,7.476c6.28,6.539,7.418,14.095,3.122,20.732
	c-2.942,4.546-6.786,6.197-12.106,8.482c-6.494,2.789-14.575,6.259-20.638,15.711c-6.444,10.045-6.114,17.981-5.85,24.358
	c0.183,4.388,0.314,7.558-1.543,11.989c-0.931,2.222-3.813,5.442-8.872,7.203c-3.175,1.105-9.593,2.355-16.911-1.681
	c-4.088-2.255-9.699-8.864-12.054-20.066C165.973,84.793,165.139,65.757,181.782,43.958z"/>
<path d="M356.521,129.984c1.922,1.771,4.351,2.646,6.774,2.646c2.696,0,5.385-1.084,7.356-3.224
	c3.743-4.062,3.484-10.388-0.578-14.13l-0.263-0.24c-4.09-3.709-10.415-3.403-14.125,0.688c-3.71,4.09-3.403,10.415,0.688,14.125
	L356.521,129.984z"/>
<path d="M306.719,167.257c4.148,3.075,6.433,4.769,8.206,10.099c1.535,4.615,0.659,8.225-1.022,14.209
	c-1.934,6.888-4.341,15.46-0.758,26.387c4.971,15.156,18.455,24.459,34.943,24.459c1.271,0,2.563-0.055,3.867-0.167
	c12.681-1.092,25.904-9.212,34.508-21.193c8.063-11.227,16.122-30.976,8.723-61.302c-0.858-3.519-1.888-6.974-3.06-10.271
	c-1.851-5.205-7.569-7.921-12.772-6.073c-5.204,1.85-7.923,7.568-6.073,12.772c0.944,2.656,1.776,5.452,2.474,8.311
	c5.597,22.941,0.078,37.077-5.538,44.896c-6.336,8.822-14.722,12.481-19.978,12.933c-9.034,0.781-15.627-3.084-18.091-10.597
	c-1.688-5.146-0.556-9.173,1.009-14.747c1.911-6.804,4.289-15.271,0.745-25.928c-3.766-11.325-10.147-16.055-15.274-19.855
	c-3.528-2.615-6.077-4.504-8.357-8.733c-1.144-2.121-1.837-6.387-0.028-11.429c1.135-3.164,4.195-8.942,11.933-12.099
	c2.45-0.999,5.802-1.353,9.434-0.995c5.496,0.542,10.391-3.476,10.932-8.973c0.541-5.497-3.477-10.391-8.973-10.932
	c-6.91-0.679-13.462,0.144-18.947,2.38c-11.062,4.512-19.302,12.987-23.205,23.864c-3.42,9.535-2.954,19.88,1.25,27.676
	C297.062,160.1,302.416,164.068,306.719,167.257z"/>
<path d="M247.461,230.537c-11.928,0.66-22.481,5.986-29.716,14.997c-6.342,7.899-9.272,17.832-7.839,26.571
	c1.499,9.138,5.267,14.635,8.294,19.052c2.919,4.259,4.527,6.605,4.466,12.222c-0.053,4.863-2.059,7.991-5.598,13.1
	c-4.074,5.881-9.144,13.201-9.317,24.699c-0.26,17.178,11.034,31.158,28.772,35.615l0,0c3.035,0.763,6.238,1.134,9.525,1.134
	c10.079,0,20.927-3.496,30.005-9.922c11.282-7.985,25.337-24.029,28.229-55.111c3.278-35.249-11.404-56.263-20.448-65.652
	C273.118,236.114,259.522,229.867,247.461,230.537z M284.369,311.04c-2.187,23.513-12.012,35.078-19.869,40.639
	c-8.866,6.275-17.988,7-23.103,5.715l0,0c-8.793-2.209-13.768-8.01-13.648-15.916c0.082-5.414,2.463-8.853,5.76-13.613
	c4.024-5.81,9.032-13.04,9.156-24.269c0.131-11.934-4.36-18.485-7.968-23.75c-2.483-3.622-4.277-6.239-5.055-10.98
	c-0.39-2.378,0.345-6.637,3.698-10.814c2.104-2.621,6.88-7.087,15.226-7.548c4.668-0.247,12.924,2.367,20.865,10.61
	C276.1,268.039,286.909,283.732,284.369,311.04z"/>
<path d="M90.241,460.981c2.63,0,5.21-1.07,7.07-2.93c1.86-1.86,2.93-4.44,2.93-7.07s-1.07-5.21-2.93-7.07s-4.44-2.93-7.07-2.93
	c-2.63,0-5.21,1.07-7.07,2.93c-1.86,1.86-2.93,4.44-2.93,7.07s1.07,5.21,2.93,7.07C85.031,459.911,87.611,460.981,90.241,460.981z"
	/>
<path d="M507.364,493.562l-131.993-83.924c-29.072-18.486-66.697-16.466-93.625,5.023l-8.094,6.46
	c-10.393,8.294-24.911,8.294-35.304,0l-8.094-6.459c-26.928-21.49-64.552-23.508-93.625-5.023l-22.792,14.492
	c-4.66,2.963-6.036,9.144-3.073,13.804c2.963,4.661,9.144,6.037,13.804,3.073l22.792-14.492
	c21.866-13.902,50.166-12.385,70.418,3.779l8.094,6.459c17.739,14.156,42.516,14.156,60.254,0l8.095-6.459
	c20.254-16.164,48.553-17.682,70.418-3.778l102.994,65.487H44.367l21.677-13.783c4.66-2.963,6.036-9.144,3.073-13.804
	c-2.963-4.661-9.144-6.038-13.804-3.073L4.636,493.562c-3.752,2.386-5.479,6.963-4.236,11.232c1.242,4.27,5.155,7.206,9.602,7.206
	h491.996c4.447,0,8.359-2.937,9.602-7.206C512.842,500.525,511.116,495.948,507.364,493.562z"/>
<g>
</g>
<g>
</g>
<g>
</g>
<g>
</g>
<g>
</g>
<g>
</g>
<g>
</g>
<g>
</g>
<g>
</g>
<g>
</g>
<g>
</g>
<g>
</g>
<g>
</g>
<g>
</g>
<g>
</g>
</svg>
