<?xml version="1.0" encoding="iso-8859-1"?>
<!-- Generator: Adobe Illustrator 19.0.0, SVG Export Plug-In . SVG Version: 6.00 Build 0)  -->
<svg version="1.1" id="Capa_1" xmlns="http://www.w3.org/2000/svg" xmlns:xlink="http://www.w3.org/1999/xlink" x="0px" y="0px"
	 viewBox="0 0 512 512" style="enable-background:new 0 0 512 512;" xml:space="preserve">
<path style="fill:#AAE6FF;" d="M215.248,135.583c0-25.781-20.845-46.754-46.47-46.754c-1.6,0-3.196,0.089-4.784,0.249
	c-8.058-21.186-28.357-35.495-51.368-35.495c-23.013,0-43.309,14.31-51.367,35.495c-1.589-0.16-3.184-0.249-4.787-0.249
	c-25.621,0-46.466,20.973-46.466,46.754H215.248z"/>
<path style="fill:#F5B955;" d="M203.986,105.119c12.665-9.685,20.841-24.943,20.841-42.119c0-29.271-23.729-53-53-53
	c-26.214,0-47.967,19.034-52.229,44.033"/>
<polygon style="fill:#6E87F5;" points="10.006,502 151.506,237 293.006,502 "/>
<polygon style="fill:#FFFFFF;" points="181.006,387.114 204.718,336.654 151.506,237 64.017,400.849 112.489,368.483 
	134.517,406.543 164.004,367.102 "/>
<polygon style="fill:#9BBEFF;" points="129.026,502 315.51,97.086 501.994,502 "/>
<polygon style="fill:#FFFFFF;" points="353.672,272 432.911,352 432.911,352 315.51,97.086 218.504,307.716 218.504,307.716 
	275.672,271.156 315.51,352 "/>
<path d="M10.006,145.583h60.5c5.522,0,10-4.477,10-10s-4.478-10-10-10H21.377c4.332-15.422,18.425-26.754,35.095-26.754
	c1.204,0,2.477,0.067,3.784,0.199c4.504,0.458,8.742-2.168,10.35-6.395c6.609-17.376,23.496-29.05,42.021-29.05
	s35.413,11.674,42.021,29.05c1.606,4.227,5.857,6.845,10.351,6.395c1.306-0.132,2.578-0.199,3.78-0.199
	c16.672,0,30.766,11.332,35.098,26.754h-47.87c-5.522,0-10,4.477-10,10s4.478,10,10,10h59.242c5.522,0,10-4.477,10-10
	c0-10.591-2.902-20.512-7.948-29.006C228.524,94.925,234.827,79.504,234.827,63c0-34.738-28.262-63-63-63
	c-27.75,0-51.686,17.874-59.94,43.596c-24.036,0.279-46.061,14.115-56.993,35.255C24.486,79.695,0.006,104.82,0.006,135.583
	C0.006,141.106,4.483,145.583,10.006,145.583z M171.827,20c23.71,0,43,19.29,43,43c0,10.626-3.834,20.596-10.703,28.371
	c-9.301-7.526-21.006-12.166-33.766-12.52c-8.005-15.482-21.963-27.046-38.302-32.239C138.539,30.76,154.034,20,171.827,20z"/>
<path d="M115.004,125.583c-5.522,0-9.995,4.477-9.995,10s4.482,10,10.005,10c5.523,0,10-4.477,10-10s-4.477-10-10-10
	C115.014,125.583,115.004,125.583,115.004,125.583z"/>
<path d="M511.077,497.817L386.601,227.542c-2.311-5.017-8.25-7.208-13.267-4.9c-5.016,2.311-7.21,8.25-4.899,13.266l31.666,68.757
	l-39.323-39.701c-2.291-2.313-5.559-3.367-8.774-2.823c-3.21,0.544-5.954,2.616-7.355,5.554l-29.283,61.386l-30.722-62.344
	c-1.257-2.552-3.543-4.448-6.283-5.212c-2.741-0.764-5.678-0.325-8.074,1.208l-28.427,18.179l73.651-159.919l18.684,40.567
	c2.311,5.017,8.249,7.209,13.267,4.9c5.016-2.311,7.21-8.25,4.899-13.266l-27.767-60.289c-1.633-3.546-5.18-5.817-9.083-5.817
	s-7.45,2.271-9.083,5.817L204.303,314.646l-43.976-82.356c-1.739-3.256-5.13-5.29-8.821-5.29s-7.083,2.034-8.821,5.29L55.254,396.03
	c-0.054,0.098-0.107,0.195-0.157,0.295L1.185,497.29c-1.655,3.099-1.562,6.839,0.245,9.853C3.236,510.156,6.492,512,10.006,512
	h491.988c3.409,0,6.583-1.736,8.421-4.607C512.254,504.522,512.503,500.913,511.077,497.817z M151.506,258.23l42.297,79.213
	l-14.72,31.961l-7.458-8.778c-1.971-2.32-4.911-3.616-7.933-3.521c-3.042,0.095-5.875,1.57-7.697,4.007l-20.413,27.305
	l-14.438-24.944c-1.385-2.392-3.697-4.104-6.388-4.73c-2.692-0.625-5.523-0.111-7.82,1.423L91.612,370.4L151.506,258.23z
	 M26.682,492l44.975-84.228l37.52-25.052l16.687,28.832c1.684,2.908,4.715,4.776,8.069,4.974c0.196,0.011,0.392,0.017,0.587,0.017
	c3.141,0,6.114-1.479,8.008-4.012l21.977-29.396l5.354,6.302L122.622,492H26.682z M144.641,492l81.72-177.438l45.283-28.959
	l34.896,70.817c1.684,3.418,5.163,5.58,8.97,5.58c0.021,0,0.042,0,0.063,0c3.832-0.024,7.313-2.236,8.962-5.694l32.04-67.165
	l67.99,68.642L486.379,492H144.641z"/>
<path d="M354.445,204.06c1.87,1.86,4.44,2.93,7.08,2.93c2.62,0,5.2-1.07,7.07-2.93c1.86-1.86,2.92-4.44,2.92-7.07
	s-1.06-5.21-2.92-7.07c-1.87-1.86-4.44-2.93-7.07-2.93c-2.64,0-5.22,1.07-7.08,2.93c-1.859,1.86-2.92,4.44-2.92,7.07
	S352.586,202.2,354.445,204.06z"/>
<g>
</g>
<g>
</g>
<g>
</g>
<g>
</g>
<g>
</g>
<g>
</g>
<g>
</g>
<g>
</g>
<g>
</g>
<g>
</g>
<g>
</g>
<g>
</g>
<g>
</g>
<g>
</g>
<g>
</g>
</svg>
