<?xml version="1.0" encoding="iso-8859-1"?>
<!-- Generator: Adobe Illustrator 19.0.0, SVG Export Plug-In . SVG Version: 6.00 Build 0)  -->
<svg version="1.1" id="Capa_1" xmlns="http://www.w3.org/2000/svg" xmlns:xlink="http://www.w3.org/1999/xlink" x="0px" y="0px"
	 viewBox="0 0 512.002 512.002" style="enable-background:new 0 0 512.002 512.002;" xml:space="preserve">
<path style="fill:#AFFFF5;" d="M107.506,353.508c0,82.01,66.482,148.493,148.493,148.493s148.493-66.482,148.493-148.493
	c0-35.551-12.5-68.179-33.335-93.743h0.01L256.525,112.148L141.379,258.991h0.086C120.252,284.669,107.506,317.599,107.506,353.508z
	"/>
<g>
	<path style="fill:#73E6E1;" d="M369.997,119.58c0,37.234,29.55,67.418,65.999,67.418s65.999-30.184,65.999-67.417
		c0-16.141-5.556-30.954-14.816-42.561h0.005L436.231,10l-51.177,66.668h0.038C375.663,88.326,369.997,103.277,369.997,119.58z"/>
	<path style="fill:#73E6E1;" d="M10.007,119.58c0,37.234,29.549,67.417,65.999,67.417s65.999-30.184,65.999-67.417
		c0-16.141-5.556-30.954-14.816-42.561h0.005L76.24,10L25.063,76.668h0.038C15.672,88.326,10.007,103.277,10.007,119.58z"/>
</g>
<path d="M165.925,237.693c2.63,0,5.21-1.07,7.07-2.93c1.86-1.87,2.93-4.44,2.93-7.07c0-2.64-1.07-5.21-2.93-7.07
	c-1.86-1.87-4.44-2.93-7.07-2.93s-5.21,1.06-7.07,2.93c-1.86,1.86-2.93,4.43-2.93,7.07c0,2.63,1.07,5.2,2.93,7.07
	C160.715,236.623,163.295,237.693,165.925,237.693z"/>
<path d="M379.065,253.631L264.423,106.014c-1.889-2.433-4.794-3.859-7.875-3.866c-0.008,0-0.016,0-0.023,0
	c-3.071,0-5.973,1.412-7.869,3.83l-65.501,83.533c-3.408,4.346-2.647,10.632,1.699,14.04c4.346,3.408,10.631,2.647,14.04-1.699
	l57.594-73.449l106.53,137.172c0.123,0.173,0.252,0.342,0.388,0.508c20.047,24.596,31.087,55.644,31.087,87.425
	c0,76.365-62.127,138.493-138.493,138.493s-138.493-62.127-138.493-138.493c0-32.124,11.247-63.428,31.67-88.147
	c2.466-2.985,2.987-7.126,1.337-10.63s-5.174-5.739-9.047-5.739h-0.086c-3.454,0-6.482,1.751-8.267,4.415
	c-22.969,28.172-35.608,63.679-35.608,100.102c0,87.393,71.1,158.493,158.493,158.493s158.493-71.1,158.493-158.493
	c0-36.232-12.54-71.633-35.319-99.735C379.137,253.725,379.101,253.678,379.065,253.631z"/>
<path d="M293.828,436.093c-5.108,2.101-7.545,7.945-5.444,13.052c1.589,3.863,5.318,6.198,9.252,6.198
	c1.267,0,2.556-0.243,3.801-0.754c33.134-13.63,57.813-42.544,66.018-77.343c1.268-5.375-2.063-10.761-7.438-12.028
	c-5.376-1.268-10.761,2.063-12.028,7.438C341.26,401.194,321.012,424.909,293.828,436.093z"/>
<path d="M360.423,338.426c5.523,0,10-4.477,10-10v-0.235c0-5.523-4.477-10-10-10s-10,4.477-10,10v0.235
	C350.423,333.949,354.9,338.426,360.423,338.426z"/>
<path d="M495.173,71.005c-0.01-0.013-0.019-0.025-0.029-0.038L444.191,3.948c-1.886-2.481-4.821-3.94-7.937-3.948
	c-0.008,0-0.016,0-0.023,0c-3.107,0-6.04,1.445-7.932,3.911l-51.178,66.668c-0.118,0.154-0.231,0.311-0.339,0.47
	c-10.83,13.701-16.785,30.9-16.785,48.53c0,42.689,34.094,77.418,75.999,77.418s75.999-34.73,75.999-77.417
	C511.995,101.947,506.023,84.709,495.173,71.005z M435.996,176.998c-30.878,0-55.999-25.758-55.999-57.417
	c0-13.356,4.57-26.362,12.869-36.623c0.218-0.27,0.42-0.548,0.606-0.835l42.72-55.649l42.868,56.385
	c0.097,0.135,0.198,0.268,0.302,0.399c8.147,10.21,12.633,23.11,12.633,36.324C491.995,151.24,466.875,176.998,435.996,176.998z"/>
<path d="M468.995,109.58c-5.523,0-10,4.477-10,10c0,13.073-10.318,23.709-23,23.709c-5.523,0-10,4.477-10,10c0,5.523,4.477,10,10,10
	c23.71,0,42.999-19.608,42.999-43.708C478.995,114.057,474.518,109.58,468.995,109.58z"/>
<path d="M152.005,119.58c0-17.628-5.969-34.861-16.813-48.562c-0.013-0.017-0.025-0.033-0.038-0.05L84.201,3.948
	C82.315,1.467,79.38,0.007,76.264,0c-0.008,0-0.016,0-0.023,0c-3.107,0-6.04,1.445-7.932,3.911L17.13,70.579
	c-0.119,0.155-0.233,0.313-0.342,0.474C5.96,84.753,0.007,101.951,0.007,119.58c0,42.688,34.093,77.417,75.999,77.417
	S152.005,162.268,152.005,119.58z M76.006,176.998c-30.878,0-55.999-25.758-55.999-57.417c0-13.356,4.57-26.363,12.869-36.623
	c0.219-0.271,0.422-0.551,0.609-0.839l42.716-55.646l42.861,56.374c0.1,0.139,0.203,0.276,0.31,0.41
	c8.147,10.21,12.633,23.11,12.633,36.324C132.005,151.24,106.884,176.998,76.006,176.998z"/>
<path d="M109.006,109.58c-5.523,0-10,4.477-10,10c0,13.073-10.318,23.709-23,23.709c-5.523,0-10,4.477-10,10c0,5.523,4.477,10,10,10
	c23.71,0,43-19.608,43-43.708C119.006,114.057,114.529,109.58,109.006,109.58z"/>
<g>
</g>
<g>
</g>
<g>
</g>
<g>
</g>
<g>
</g>
<g>
</g>
<g>
</g>
<g>
</g>
<g>
</g>
<g>
</g>
<g>
</g>
<g>
</g>
<g>
</g>
<g>
</g>
<g>
</g>
</svg>
