<?xml version="1.0" encoding="UTF-8" standalone="no"?>
<!-- Generator: Adobe Illustrator 19.0.0, SVG Export Plug-In . SVG Version: 6.00 Build 0)  -->

<svg
   xmlns:dc="http://purl.org/dc/elements/1.1/"
   xmlns:cc="http://creativecommons.org/ns#"
   xmlns:rdf="http://www.w3.org/1999/02/22-rdf-syntax-ns#"
   xmlns:svg="http://www.w3.org/2000/svg"
   xmlns="http://www.w3.org/2000/svg"
   xmlns:sodipodi="http://sodipodi.sourceforge.net/DTD/sodipodi-0.dtd"
   xmlns:inkscape="http://www.inkscape.org/namespaces/inkscape"
   version="1.1"
   id="Capa_1"
   x="0px"
   y="0px"
   viewBox="0 0 1024 1024"
   xml:space="preserve"
   sodipodi:docname="compass-3.svg"
   width="1024"
   height="1024"
   inkscape:version="0.92.2 5c3e80d, 2017-08-06"><metadata
     id="metadata4164"><rdf:RDF><cc:Work
         rdf:about=""><dc:format>image/svg+xml</dc:format><dc:type
           rdf:resource="http://purl.org/dc/dcmitype/StillImage" /><dc:title></dc:title></cc:Work></rdf:RDF></metadata><defs
     id="defs4162" /><sodipodi:namedview
     pagecolor="#ffffff"
     bordercolor="#666666"
     borderopacity="1"
     objecttolerance="10"
     gridtolerance="10"
     guidetolerance="10"
     inkscape:pageopacity="0"
     inkscape:pageshadow="2"
     inkscape:window-width="1440"
     inkscape:window-height="855"
     id="namedview4160"
     showgrid="false"
     inkscape:zoom="0.3720826"
     inkscape:cx="28.4715"
     inkscape:cy="139.33398"
     inkscape:window-x="0"
     inkscape:window-y="206"
     inkscape:window-maximized="1"
     inkscape:current-layer="Capa_1" /><path
     style="fill:#bfa380;stroke-width:17.96565056"
     d="m 283.18405,284.18303 c 41.71624,-41.71624 92.056,-69.31147 145.23431,-83.43248 L 235.26967,7.6018512 c -8.80317,-8.8031683 -23.08587,-8.8031683 -31.88903,0 L 6.6028762,204.36165 c -8.8031682,8.80316 -8.8031682,23.08585 0,31.88903 L 199.75157,429.39938 c 14.10304,-53.17833 41.71625,-103.51807 83.43248,-145.21635 z"
     id="path4061"
     inkscape:connector-curvature="0" /><path
     style="fill:#bfa380;stroke-width:17.96565056"
     d="m 739.81697,740.81595 c -41.71624,41.71623 -92.05599,69.31147 -145.23431,83.43248 l 193.1487,193.14877 c 8.80316,8.803 23.08586,8.803 31.88903,0 L 1016.3982,820.61936 c 8.8031,-8.80316 8.8031,-23.08586 0,-31.88903 L 823.24945,595.58164 c -14.12101,53.17831 -41.71624,103.53603 -83.43248,145.23431 z"
     id="path4063"
     inkscape:connector-curvature="0" /><g
     id="g4069"
     transform="matrix(17.96565,0,0,17.96565,-0.00848283,0.99049215)"><path
       style="fill:#9e6c53"
       d="m 14.471,9.463 h -3 v -3 c 0,-0.552 -0.448,-1 -1,-1 -0.552,0 -1,0.448 -1,1 v 3 h -3 c -0.552,0 -1,0.448 -1,1 0,0.552 0.448,1 1,1 h 3 v 3 c 0,0.552 0.448,1 1,1 0.552,0 1,-0.448 1,-1 v -3 h 3 c 0.552,0 1,-0.448 1,-1 0,-0.552 -0.447,-1 -1,-1 z"
       id="path4065"
       inkscape:connector-curvature="0" /><path
       style="fill:#9e6c53"
       d="m 50.471,45.463 h -3 v -3 c 0,-0.552 -0.448,-1 -1,-1 -0.552,0 -1,0.448 -1,1 v 3 h -3 c -0.552,0 -1,0.448 -1,1 0,0.552 0.448,1 1,1 h 3 v 3 c 0,0.552 0.448,1 1,1 0.552,0 1,-0.448 1,-1 v -3 h 3 c 0.552,0 1,-0.448 1,-1 0,-0.552 -0.447,-1 -1,-1 z"
       id="path4067"
       inkscape:connector-curvature="0" /></g><circle
     style="fill:#556080;stroke:#38454f;stroke-width:35.93130112;stroke-miterlimit:10"
     cx="511.49155"
     cy="512.49078"
     id="circle4071"
     r="322.89661" /><g
     id="g4121"
     transform="matrix(17.96565,0,0,17.96565,-0.00848283,0.99049215)"><path
       style="fill:#7383bf"
       d="m 14.471,29.472 c 0.552,0 1,-0.448 1,-1 0,-0.552 -0.448,-1 -1,-1 h -4 c -0.552,0 -1,0.448 -1,1 0,0.552 0.448,1 1,1 z"
       id="path4073"
       inkscape:connector-curvature="0" /><path
       style="fill:#7383bf"
       d="m 46.471,27.472 h -4 c -0.552,0 -1,0.448 -1,1 0,0.552 0.448,1 1,1 h 4 c 0.552,0 1,-0.448 1,-1 0,-0.552 -0.447,-1 -1,-1 z"
       id="path4075"
       inkscape:connector-curvature="0" /><path
       style="fill:#7383bf"
       d="m 28.471,9.463 c -0.552,0 -1,0.448 -1,1 v 4 c 0,0.552 0.448,1 1,1 0.552,0 1,-0.448 1,-1 v -4 c 0,-0.552 -0.447,-1 -1,-1 z"
       id="path4077"
       inkscape:connector-curvature="0" /><path
       style="fill:#7383bf"
       d="m 28.471,41.463 c -0.552,0 -1,0.448 -1,1 v 4 c 0,0.552 0.448,1 1,1 0.552,0 1,-0.448 1,-1 v -4 c 0,-0.552 -0.447,-1 -1,-1 z"
       id="path4079"
       inkscape:connector-curvature="0" /><path
       style="fill:#7383bf"
       d="m 19.285,37.661 c -0.391,-0.391 -1.023,-0.391 -1.414,0 l -2.829,2.828 c -0.391,0.39 -0.391,1.023 0,1.414 0.195,0.195 0.451,0.293 0.707,0.293 0.256,0 0.512,-0.098 0.707,-0.293 l 2.829,-2.828 c 0.391,-0.39 0.391,-1.023 0,-1.414 z"
       id="path4081"
       inkscape:connector-curvature="0" /><path
       style="fill:#7383bf"
       d="m 37.67,19.276 c 0.195,0.195 0.451,0.293 0.707,0.293 0.256,0 0.512,-0.098 0.707,-0.293 l 2.829,-2.828 c 0.391,-0.39 0.391,-1.023 0,-1.414 -0.391,-0.391 -1.023,-0.391 -1.414,0 l -2.829,2.828 c -0.391,0.39 -0.391,1.024 0,1.414 z"
       id="path4083"
       inkscape:connector-curvature="0" /><path
       style="fill:#7383bf"
       d="m 17.865,19.27 c 0.195,0.195 0.451,0.293 0.707,0.293 0.256,0 0.512,-0.098 0.707,-0.293 0.391,-0.391 0.391,-1.023 0,-1.414 L 16.45,15.027 c -0.391,-0.391 -1.023,-0.391 -1.414,0 -0.391,0.391 -0.391,1.023 0,1.414 z"
       id="path4085"
       inkscape:connector-curvature="0" /><path
       style="fill:#7383bf"
       d="m 39.078,37.655 c -0.391,-0.391 -1.023,-0.391 -1.414,0 -0.391,0.391 -0.391,1.023 0,1.414 l 2.829,2.829 c 0.195,0.195 0.451,0.293 0.707,0.293 0.256,0 0.512,-0.098 0.707,-0.293 0.391,-0.391 0.391,-1.023 0,-1.414 z"
       id="path4087"
       inkscape:connector-curvature="0" /><path
       style="fill:#7383bf"
       d="m 15.917,31.836 c -0.143,-0.534 -0.69,-0.852 -1.225,-0.707 l -3.864,1.035 c -0.534,0.143 -0.85,0.691 -0.707,1.225 0.12,0.447 0.523,0.742 0.965,0.742 0.085,0 0.172,-0.011 0.259,-0.035 l 3.864,-1.035 c 0.534,-0.143 0.851,-0.692 0.708,-1.225 z"
       id="path4089"
       inkscape:connector-curvature="0" /><path
       style="fill:#7383bf"
       d="m 41.031,25.106 c 0.12,0.447 0.523,0.742 0.965,0.742 0.085,0 0.172,-0.011 0.259,-0.035 l 3.864,-1.035 c 0.534,-0.143 0.85,-0.691 0.707,-1.225 -0.143,-0.533 -0.688,-0.854 -1.225,-0.707 l -3.864,1.035 c -0.533,0.143 -0.849,0.692 -0.706,1.225 z"
       id="path4091"
       inkscape:connector-curvature="0" /><path
       style="fill:#7383bf"
       d="m 23.882,15.199 c 0.12,0.447 0.523,0.742 0.965,0.742 0.085,0 0.172,-0.011 0.259,-0.035 0.534,-0.143 0.85,-0.691 0.707,-1.225 l -1.035,-3.864 c -0.143,-0.533 -0.689,-0.852 -1.225,-0.707 -0.534,0.143 -0.85,0.691 -0.707,1.225 z"
       id="path4093"
       inkscape:connector-curvature="0" /><path
       style="fill:#7383bf"
       d="m 33.061,41.727 c -0.143,-0.533 -0.688,-0.853 -1.225,-0.707 -0.534,0.143 -0.85,0.691 -0.707,1.225 l 1.035,3.864 c 0.12,0.447 0.523,0.742 0.965,0.742 0.085,0 0.172,-0.011 0.259,-0.035 0.534,-0.143 0.85,-0.691 0.707,-1.225 z"
       id="path4095"
       inkscape:connector-curvature="0" /><path
       style="fill:#7383bf"
       d="m 21.979,39.725 c -0.479,-0.277 -1.09,-0.112 -1.366,0.366 l -2,3.464 c -0.276,0.478 -0.112,1.09 0.366,1.366 0.157,0.091 0.33,0.134 0.499,0.134 0.346,0 0.682,-0.179 0.867,-0.5 l 2,-3.464 c 0.276,-0.477 0.113,-1.089 -0.366,-1.366 z"
       id="path4097"
       inkscape:connector-curvature="0" /><path
       style="fill:#7383bf"
       d="m 34.979,17.209 c 0.157,0.091 0.33,0.134 0.499,0.134 0.346,0 0.682,-0.179 0.867,-0.5 l 2,-3.464 c 0.276,-0.478 0.112,-1.09 -0.366,-1.366 -0.478,-0.277 -1.09,-0.112 -1.366,0.366 l -2,3.464 c -0.276,0.478 -0.112,1.089 0.366,1.366 z"
       id="path4099"
       inkscape:connector-curvature="0" /><path
       style="fill:#7383bf"
       d="m 12.383,20.329 3.464,2 c 0.158,0.091 0.33,0.134 0.499,0.134 0.346,0 0.682,-0.179 0.867,-0.5 0.276,-0.479 0.112,-1.09 -0.366,-1.366 l -3.464,-2 c -0.481,-0.277 -1.09,-0.112 -1.366,0.366 -0.276,0.478 -0.113,1.09 0.366,1.366 z"
       id="path4101"
       inkscape:connector-curvature="0" /><path
       style="fill:#7383bf"
       d="m 44.56,36.597 -3.464,-2 c -0.479,-0.277 -1.09,-0.113 -1.366,0.366 -0.276,0.478 -0.112,1.09 0.366,1.366 l 3.464,2 c 0.157,0.091 0.33,0.134 0.499,0.134 0.346,0 0.682,-0.179 0.867,-0.5 0.276,-0.478 0.112,-1.09 -0.366,-1.366 z"
       id="path4103"
       inkscape:connector-curvature="0" /><path
       style="fill:#7383bf"
       d="M 17.218,34.971 C 16.941,34.493 16.33,34.327 15.852,34.605 l -3.464,2 c -0.479,0.276 -0.642,0.888 -0.366,1.366 0.186,0.321 0.521,0.5 0.867,0.5 0.169,0 0.341,-0.043 0.499,-0.134 l 3.464,-2 c 0.478,-0.277 0.642,-0.888 0.366,-1.366 z"
       id="path4105"
       inkscape:connector-curvature="0" /><path
       style="fill:#7383bf"
       d="m 39.734,21.971 c 0.186,0.321 0.521,0.5 0.867,0.5 0.169,0 0.342,-0.043 0.499,-0.134 l 3.464,-2 c 0.479,-0.276 0.642,-0.888 0.366,-1.366 -0.276,-0.479 -0.888,-0.643 -1.366,-0.366 l -3.464,2 c -0.478,0.276 -0.642,0.888 -0.366,1.366 z"
       id="path4107"
       inkscape:connector-curvature="0" /><path
       style="fill:#7383bf"
       d="m 20.605,16.839 c 0.186,0.321 0.521,0.5 0.867,0.5 0.169,0 0.341,-0.043 0.499,-0.134 0.478,-0.276 0.642,-0.888 0.366,-1.366 l -2,-3.464 c -0.276,-0.479 -0.887,-0.643 -1.366,-0.366 -0.478,0.276 -0.642,0.888 -0.366,1.366 z"
       id="path4109"
       inkscape:connector-curvature="0" /><path
       style="fill:#7383bf"
       d="m 36.337,40.088 c -0.277,-0.479 -0.888,-0.644 -1.366,-0.366 -0.479,0.276 -0.642,0.888 -0.366,1.366 l 2,3.464 c 0.186,0.321 0.521,0.5 0.867,0.5 0.169,0 0.342,-0.043 0.499,-0.134 0.479,-0.276 0.642,-0.888 0.366,-1.366 z"
       id="path4111"
       inkscape:connector-curvature="0" /><path
       style="fill:#7383bf"
       d="M 25.115,41.023 C 24.582,40.88 24.033,41.196 23.89,41.73 l -1.036,3.864 c -0.143,0.533 0.173,1.082 0.707,1.225 0.086,0.023 0.174,0.035 0.259,0.035 0.441,0 0.846,-0.295 0.965,-0.742 l 1.036,-3.864 c 0.144,-0.534 -0.172,-1.082 -0.706,-1.225 z"
       id="path4113"
       inkscape:connector-curvature="0" /><path
       style="fill:#7383bf"
       d="m 33.398,10.113 c -0.533,-0.144 -1.082,0.174 -1.225,0.707 l -1.036,3.864 c -0.143,0.533 0.173,1.082 0.707,1.225 0.086,0.023 0.174,0.035 0.259,0.035 0.441,0 0.846,-0.295 0.965,-0.742 l 1.036,-3.864 c 0.144,-0.533 -0.173,-1.082 -0.706,-1.225 z"
       id="path4115"
       inkscape:connector-curvature="0" /><path
       style="fill:#7383bf"
       d="m 10.826,24.77 3.863,1.035 c 0.087,0.023 0.174,0.035 0.259,0.035 0.442,0 0.846,-0.295 0.965,-0.742 0.143,-0.533 -0.173,-1.082 -0.707,-1.225 l -3.863,-1.035 c -0.538,-0.145 -1.082,0.174 -1.225,0.707 -0.142,0.534 0.175,1.082 0.708,1.225 z"
       id="path4117"
       inkscape:connector-curvature="0" /><path
       style="fill:#7383bf"
       d="m 46.117,32.156 -3.864,-1.035 c -0.536,-0.146 -1.083,0.174 -1.225,0.707 -0.143,0.534 0.173,1.082 0.707,1.225 l 3.864,1.035 c 0.087,0.023 0.174,0.035 0.259,0.035 0.442,0 0.846,-0.295 0.965,-0.742 0.144,-0.534 -0.173,-1.082 -0.706,-1.225 z"
       id="path4119"
       inkscape:connector-curvature="0" /></g><line
     style="fill:none;stroke:#38454f;stroke-width:35.93130112;stroke-miterlimit:10"
     x1="783.16803"
     y1="240.67041"
     x2="745.04498"
     y2="278.79367"
     id="line4123" /><path
     style="fill:#c7cac7;stroke-width:17.96565056"
     d="m 815.48829,272.99043 -64.64041,-64.64041 c -3.19788,-3.19788 -3.19788,-8.38996 0,-11.58784 l 39.21902,-39.21902 c 3.19788,-3.19788 8.38995,-3.19788 11.58784,0 l 64.6404,64.64041 c 3.19789,3.19788 3.19789,8.38996 0,11.58784 l -39.21901,39.21902 c -3.21585,3.19788 -8.38996,3.19788 -11.58784,0 z"
     id="path4125"
     inkscape:connector-curvature="0" /><path
     style="fill:#ffffff;stroke-width:17.96565056"
     d="m 648.44368,606.07357 -74.35982,-59.12495 c 5.73104,-10.31229 9.28824,-22.00792 9.28824,-34.61981 0,-33.38018 -22.99603,-61.28082 -53.89696,-69.31147 V 332.67232 c 0,-9.91704 -8.04861,-17.96565 -17.96565,-17.96565 -9.91703,0 -17.96564,8.04861 -17.96564,17.96565 v 110.34502 c -30.90092,8.03065 -53.89695,35.93129 -53.89695,69.31147 0,39.63222 32.23037,71.8626 71.86259,71.8626 13.92338,0 26.80475,-4.15006 37.8177,-11.03091 l 76.74926,61.01135 c 3.30567,2.62299 7.25812,3.89854 11.17463,3.89854 5.2819,0 10.52787,-2.31756 14.0671,-6.77305 6.18018,-7.74319 4.88666,-19.04358 -2.8745,-25.22377 z M 475.56023,512.34678 c 0,-19.81611 16.11519,-35.9313 35.9313,-35.9313 19.81611,0 35.9313,16.11519 35.9313,35.9313 0,19.81611 -16.11519,35.93129 -35.9313,35.93129 -19.81611,0 -35.9313,-16.11518 -35.9313,-35.93129 z"
     id="path4127"
     inkscape:connector-curvature="0" /><g
     id="g4129"
     transform="matrix(17.96565,0,0,17.96565,-0.00848283,0.99049215)" /><g
     id="g4131"
     transform="matrix(17.96565,0,0,17.96565,-0.00848283,0.99049215)" /><g
     id="g4133"
     transform="matrix(17.96565,0,0,17.96565,-0.00848283,0.99049215)" /><g
     id="g4135"
     transform="matrix(17.96565,0,0,17.96565,-0.00848283,0.99049215)" /><g
     id="g4137"
     transform="matrix(17.96565,0,0,17.96565,-0.00848283,0.99049215)" /><g
     id="g4139"
     transform="matrix(17.96565,0,0,17.96565,-0.00848283,0.99049215)" /><g
     id="g4141"
     transform="matrix(17.96565,0,0,17.96565,-0.00848283,0.99049215)" /><g
     id="g4143"
     transform="matrix(17.96565,0,0,17.96565,-0.00848283,0.99049215)" /><g
     id="g4145"
     transform="matrix(17.96565,0,0,17.96565,-0.00848283,0.99049215)" /><g
     id="g4147"
     transform="matrix(17.96565,0,0,17.96565,-0.00848283,0.99049215)" /><g
     id="g4149"
     transform="matrix(17.96565,0,0,17.96565,-0.00848283,0.99049215)" /><g
     id="g4151"
     transform="matrix(17.96565,0,0,17.96565,-0.00848283,0.99049215)" /><g
     id="g4153"
     transform="matrix(17.96565,0,0,17.96565,-0.00848283,0.99049215)" /><g
     id="g4155"
     transform="matrix(17.96565,0,0,17.96565,-0.00848283,0.99049215)" /><g
     id="g4157"
     transform="matrix(17.96565,0,0,17.96565,-0.00848283,0.99049215)" /></svg>