<?xml version="1.0" encoding="UTF-8" standalone="no"?>
<!-- Generator: Adobe Illustrator 19.0.0, SVG Export Plug-In . SVG Version: 6.00 Build 0)  -->

<svg
   xmlns:dc="http://purl.org/dc/elements/1.1/"
   xmlns:cc="http://creativecommons.org/ns#"
   xmlns:rdf="http://www.w3.org/1999/02/22-rdf-syntax-ns#"
   xmlns:svg="http://www.w3.org/2000/svg"
   xmlns="http://www.w3.org/2000/svg"
   xmlns:sodipodi="http://sodipodi.sourceforge.net/DTD/sodipodi-0.dtd"
   xmlns:inkscape="http://www.inkscape.org/namespaces/inkscape"
   version="1.1"
   id="Capa_1"
   x="0px"
   y="0px"
   viewBox="0 0 1242 2436"
   xml:space="preserve"
   sodipodi:docname="splash.svg"
   width="1242"
   height="2436"
   inkscape:version="0.92.2 5c3e80d, 2017-08-06"><metadata
     id="metadata4164"><rdf:RDF><cc:Work
         rdf:about=""><dc:format>image/svg+xml</dc:format><dc:type
           rdf:resource="http://purl.org/dc/dcmitype/StillImage" /><dc:title></dc:title></cc:Work></rdf:RDF></metadata><defs
     id="defs4162" /><sodipodi:namedview
     pagecolor="#ffffff"
     bordercolor="#666666"
     borderopacity="1"
     objecttolerance="10"
     gridtolerance="10"
     guidetolerance="10"
     inkscape:pageopacity="0"
     inkscape:pageshadow="2"
     inkscape:window-width="1440"
     inkscape:window-height="855"
     id="namedview4160"
     showgrid="false"
     inkscape:zoom="0.3720826"
     inkscape:cx="28.4715"
     inkscape:cy="1091.9565"
     inkscape:window-x="0"
     inkscape:window-y="206"
     inkscape:window-maximized="1"
     inkscape:current-layer="Capa_1"
     inkscape:pagecheckerboard="true" /><path
     style="fill:#bfa380;stroke-width:17.96565056"
     d="m 392.68355,989.68355 c 41.71624,-41.7162 92.056,-69.3114 145.23431,-83.4324 L 344.76917,713.10245 c -8.80317,-8.8032 -23.08587,-8.8032 -31.88903,0 l -196.77776,196.7598 c -8.80317,8.8031 -8.80317,23.0858 0,31.889 L 309.25107,1134.9 c 14.10304,-53.1783 41.71625,-103.5181 83.43248,-145.21645 z"
     id="path4061"
     inkscape:connector-curvature="0" /><path
     style="fill:#bfa380;stroke-width:17.96565056"
     d="m 849.31647,1446.3166 c -41.71624,41.7161 -92.05599,69.3114 -145.23431,83.4324 l 193.1487,193.1488 c 8.80316,8.803 23.08586,8.803 31.88903,0 L 1125.8977,1526.12 c 8.8031,-8.8032 8.8031,-23.0859 0,-31.8891 L 932.74895,1301.0822 c -14.12101,53.1784 -41.71624,103.5361 -83.43248,145.2344 z"
     id="path4063"
     inkscape:connector-curvature="0" /><g
     id="g4069"
     transform="matrix(17.96565,0,0,17.96565,109.49102,706.49105)"><path
       style="fill:#9e6c53"
       d="m 14.471,9.463 h -3 v -3 c 0,-0.552 -0.448,-1 -1,-1 -0.552,0 -1,0.448 -1,1 v 3 h -3 c -0.552,0 -1,0.448 -1,1 0,0.552 0.448,1 1,1 h 3 v 3 c 0,0.552 0.448,1 1,1 0.552,0 1,-0.448 1,-1 v -3 h 3 c 0.552,0 1,-0.448 1,-1 0,-0.552 -0.447,-1 -1,-1 z"
       id="path4065"
       inkscape:connector-curvature="0" /><path
       style="fill:#9e6c53"
       d="m 50.471,45.463 h -3 v -3 c 0,-0.552 -0.448,-1 -1,-1 -0.552,0 -1,0.448 -1,1 v 3 h -3 c -0.552,0 -1,0.448 -1,1 0,0.552 0.448,1 1,1 h 3 v 3 c 0,0.552 0.448,1 1,1 0.552,0 1,-0.448 1,-1 v -3 h 3 c 0.552,0 1,-0.448 1,-1 0,-0.552 -0.447,-1 -1,-1 z"
       id="path4067"
       inkscape:connector-curvature="0" /></g><circle
     style="fill:#556080;stroke:#38454f;stroke-width:35.93130112;stroke-miterlimit:10"
     cx="620.99109"
     cy="1217.9913"
     id="circle4071"
     r="322.89661" /><g
     id="g4121"
     transform="matrix(17.96565,0,0,17.96565,109.49102,706.49105)"><path
       style="fill:#7383bf"
       d="m 14.471,29.472 c 0.552,0 1,-0.448 1,-1 0,-0.552 -0.448,-1 -1,-1 h -4 c -0.552,0 -1,0.448 -1,1 0,0.552 0.448,1 1,1 z"
       id="path4073"
       inkscape:connector-curvature="0" /><path
       style="fill:#7383bf"
       d="m 46.471,27.472 h -4 c -0.552,0 -1,0.448 -1,1 0,0.552 0.448,1 1,1 h 4 c 0.552,0 1,-0.448 1,-1 0,-0.552 -0.447,-1 -1,-1 z"
       id="path4075"
       inkscape:connector-curvature="0" /><path
       style="fill:#7383bf"
       d="m 28.471,9.463 c -0.552,0 -1,0.448 -1,1 v 4 c 0,0.552 0.448,1 1,1 0.552,0 1,-0.448 1,-1 v -4 c 0,-0.552 -0.447,-1 -1,-1 z"
       id="path4077"
       inkscape:connector-curvature="0" /><path
       style="fill:#7383bf"
       d="m 28.471,41.463 c -0.552,0 -1,0.448 -1,1 v 4 c 0,0.552 0.448,1 1,1 0.552,0 1,-0.448 1,-1 v -4 c 0,-0.552 -0.447,-1 -1,-1 z"
       id="path4079"
       inkscape:connector-curvature="0" /><path
       style="fill:#7383bf"
       d="m 19.285,37.661 c -0.391,-0.391 -1.023,-0.391 -1.414,0 l -2.829,2.828 c -0.391,0.39 -0.391,1.023 0,1.414 0.195,0.195 0.451,0.293 0.707,0.293 0.256,0 0.512,-0.098 0.707,-0.293 l 2.829,-2.828 c 0.391,-0.39 0.391,-1.023 0,-1.414 z"
       id="path4081"
       inkscape:connector-curvature="0" /><path
       style="fill:#7383bf"
       d="m 37.67,19.276 c 0.195,0.195 0.451,0.293 0.707,0.293 0.256,0 0.512,-0.098 0.707,-0.293 l 2.829,-2.828 c 0.391,-0.39 0.391,-1.023 0,-1.414 -0.391,-0.391 -1.023,-0.391 -1.414,0 l -2.829,2.828 c -0.391,0.39 -0.391,1.024 0,1.414 z"
       id="path4083"
       inkscape:connector-curvature="0" /><path
       style="fill:#7383bf"
       d="m 17.865,19.27 c 0.195,0.195 0.451,0.293 0.707,0.293 0.256,0 0.512,-0.098 0.707,-0.293 0.391,-0.391 0.391,-1.023 0,-1.414 L 16.45,15.027 c -0.391,-0.391 -1.023,-0.391 -1.414,0 -0.391,0.391 -0.391,1.023 0,1.414 z"
       id="path4085"
       inkscape:connector-curvature="0" /><path
       style="fill:#7383bf"
       d="m 39.078,37.655 c -0.391,-0.391 -1.023,-0.391 -1.414,0 -0.391,0.391 -0.391,1.023 0,1.414 l 2.829,2.829 c 0.195,0.195 0.451,0.293 0.707,0.293 0.256,0 0.512,-0.098 0.707,-0.293 0.391,-0.391 0.391,-1.023 0,-1.414 z"
       id="path4087"
       inkscape:connector-curvature="0" /><path
       style="fill:#7383bf"
       d="m 15.917,31.836 c -0.143,-0.534 -0.69,-0.852 -1.225,-0.707 l -3.864,1.035 c -0.534,0.143 -0.85,0.691 -0.707,1.225 0.12,0.447 0.523,0.742 0.965,0.742 0.085,0 0.172,-0.011 0.259,-0.035 l 3.864,-1.035 c 0.534,-0.143 0.851,-0.692 0.708,-1.225 z"
       id="path4089"
       inkscape:connector-curvature="0" /><path
       style="fill:#7383bf"
       d="m 41.031,25.106 c 0.12,0.447 0.523,0.742 0.965,0.742 0.085,0 0.172,-0.011 0.259,-0.035 l 3.864,-1.035 c 0.534,-0.143 0.85,-0.691 0.707,-1.225 -0.143,-0.533 -0.688,-0.854 -1.225,-0.707 l -3.864,1.035 c -0.533,0.143 -0.849,0.692 -0.706,1.225 z"
       id="path4091"
       inkscape:connector-curvature="0" /><path
       style="fill:#7383bf"
       d="m 23.882,15.199 c 0.12,0.447 0.523,0.742 0.965,0.742 0.085,0 0.172,-0.011 0.259,-0.035 0.534,-0.143 0.85,-0.691 0.707,-1.225 l -1.035,-3.864 c -0.143,-0.533 -0.689,-0.852 -1.225,-0.707 -0.534,0.143 -0.85,0.691 -0.707,1.225 z"
       id="path4093"
       inkscape:connector-curvature="0" /><path
       style="fill:#7383bf"
       d="m 33.061,41.727 c -0.143,-0.533 -0.688,-0.853 -1.225,-0.707 -0.534,0.143 -0.85,0.691 -0.707,1.225 l 1.035,3.864 c 0.12,0.447 0.523,0.742 0.965,0.742 0.085,0 0.172,-0.011 0.259,-0.035 0.534,-0.143 0.85,-0.691 0.707,-1.225 z"
       id="path4095"
       inkscape:connector-curvature="0" /><path
       style="fill:#7383bf"
       d="m 21.979,39.725 c -0.479,-0.277 -1.09,-0.112 -1.366,0.366 l -2,3.464 c -0.276,0.478 -0.112,1.09 0.366,1.366 0.157,0.091 0.33,0.134 0.499,0.134 0.346,0 0.682,-0.179 0.867,-0.5 l 2,-3.464 c 0.276,-0.477 0.113,-1.089 -0.366,-1.366 z"
       id="path4097"
       inkscape:connector-curvature="0" /><path
       style="fill:#7383bf"
       d="m 34.979,17.209 c 0.157,0.091 0.33,0.134 0.499,0.134 0.346,0 0.682,-0.179 0.867,-0.5 l 2,-3.464 c 0.276,-0.478 0.112,-1.09 -0.366,-1.366 -0.478,-0.277 -1.09,-0.112 -1.366,0.366 l -2,3.464 c -0.276,0.478 -0.112,1.089 0.366,1.366 z"
       id="path4099"
       inkscape:connector-curvature="0" /><path
       style="fill:#7383bf"
       d="m 12.383,20.329 3.464,2 c 0.158,0.091 0.33,0.134 0.499,0.134 0.346,0 0.682,-0.179 0.867,-0.5 0.276,-0.479 0.112,-1.09 -0.366,-1.366 l -3.464,-2 c -0.481,-0.277 -1.09,-0.112 -1.366,0.366 -0.276,0.478 -0.113,1.09 0.366,1.366 z"
       id="path4101"
       inkscape:connector-curvature="0" /><path
       style="fill:#7383bf"
       d="m 44.56,36.597 -3.464,-2 c -0.479,-0.277 -1.09,-0.113 -1.366,0.366 -0.276,0.478 -0.112,1.09 0.366,1.366 l 3.464,2 c 0.157,0.091 0.33,0.134 0.499,0.134 0.346,0 0.682,-0.179 0.867,-0.5 0.276,-0.478 0.112,-1.09 -0.366,-1.366 z"
       id="path4103"
       inkscape:connector-curvature="0" /><path
       style="fill:#7383bf"
       d="M 17.218,34.971 C 16.941,34.493 16.33,34.327 15.852,34.605 l -3.464,2 c -0.479,0.276 -0.642,0.888 -0.366,1.366 0.186,0.321 0.521,0.5 0.867,0.5 0.169,0 0.341,-0.043 0.499,-0.134 l 3.464,-2 c 0.478,-0.277 0.642,-0.888 0.366,-1.366 z"
       id="path4105"
       inkscape:connector-curvature="0" /><path
       style="fill:#7383bf"
       d="m 39.734,21.971 c 0.186,0.321 0.521,0.5 0.867,0.5 0.169,0 0.342,-0.043 0.499,-0.134 l 3.464,-2 c 0.479,-0.276 0.642,-0.888 0.366,-1.366 -0.276,-0.479 -0.888,-0.643 -1.366,-0.366 l -3.464,2 c -0.478,0.276 -0.642,0.888 -0.366,1.366 z"
       id="path4107"
       inkscape:connector-curvature="0" /><path
       style="fill:#7383bf"
       d="m 20.605,16.839 c 0.186,0.321 0.521,0.5 0.867,0.5 0.169,0 0.341,-0.043 0.499,-0.134 0.478,-0.276 0.642,-0.888 0.366,-1.366 l -2,-3.464 c -0.276,-0.479 -0.887,-0.643 -1.366,-0.366 -0.478,0.276 -0.642,0.888 -0.366,1.366 z"
       id="path4109"
       inkscape:connector-curvature="0" /><path
       style="fill:#7383bf"
       d="m 36.337,40.088 c -0.277,-0.479 -0.888,-0.644 -1.366,-0.366 -0.479,0.276 -0.642,0.888 -0.366,1.366 l 2,3.464 c 0.186,0.321 0.521,0.5 0.867,0.5 0.169,0 0.342,-0.043 0.499,-0.134 0.479,-0.276 0.642,-0.888 0.366,-1.366 z"
       id="path4111"
       inkscape:connector-curvature="0" /><path
       style="fill:#7383bf"
       d="M 25.115,41.023 C 24.582,40.88 24.033,41.196 23.89,41.73 l -1.036,3.864 c -0.143,0.533 0.173,1.082 0.707,1.225 0.086,0.023 0.174,0.035 0.259,0.035 0.441,0 0.846,-0.295 0.965,-0.742 l 1.036,-3.864 c 0.144,-0.534 -0.172,-1.082 -0.706,-1.225 z"
       id="path4113"
       inkscape:connector-curvature="0" /><path
       style="fill:#7383bf"
       d="m 33.398,10.113 c -0.533,-0.144 -1.082,0.174 -1.225,0.707 l -1.036,3.864 c -0.143,0.533 0.173,1.082 0.707,1.225 0.086,0.023 0.174,0.035 0.259,0.035 0.441,0 0.846,-0.295 0.965,-0.742 l 1.036,-3.864 c 0.144,-0.533 -0.173,-1.082 -0.706,-1.225 z"
       id="path4115"
       inkscape:connector-curvature="0" /><path
       style="fill:#7383bf"
       d="m 10.826,24.77 3.863,1.035 c 0.087,0.023 0.174,0.035 0.259,0.035 0.442,0 0.846,-0.295 0.965,-0.742 0.143,-0.533 -0.173,-1.082 -0.707,-1.225 l -3.863,-1.035 c -0.538,-0.145 -1.082,0.174 -1.225,0.707 -0.142,0.534 0.175,1.082 0.708,1.225 z"
       id="path4117"
       inkscape:connector-curvature="0" /><path
       style="fill:#7383bf"
       d="m 46.117,32.156 -3.864,-1.035 c -0.536,-0.146 -1.083,0.174 -1.225,0.707 -0.143,0.534 0.173,1.082 0.707,1.225 l 3.864,1.035 c 0.087,0.023 0.174,0.035 0.259,0.035 0.442,0 0.846,-0.295 0.965,-0.742 0.144,-0.534 -0.173,-1.082 -0.706,-1.225 z"
       id="path4119"
       inkscape:connector-curvature="0" /></g><line
     style="fill:none;stroke:#38454f;stroke-width:35.93130112;stroke-miterlimit:10"
     x1="892.66754"
     y1="946.17096"
     x2="854.54449"
     y2="984.29425"
     id="line4123" /><path
     style="fill:#c7cac7;stroke-width:17.96565056"
     d="m 924.98779,978.49095 -64.64041,-64.6404 c -3.19788,-3.1979 -3.19788,-8.3899 0,-11.5878 l 39.21902,-39.219 c 3.19788,-3.1979 8.38995,-3.1979 11.58784,0 l 64.6404,64.6404 c 3.19789,3.1979 3.19789,8.3899 0,11.5878 l -39.21901,39.219 c -3.21585,3.1979 -8.38996,3.1979 -11.58784,0 z"
     id="path4125"
     inkscape:connector-curvature="0" /><path
     style="fill:#ffffff;stroke-width:17.96565056"
     d="m 757.94318,1311.5742 -74.35982,-59.125 c 5.73104,-10.3123 9.28824,-22.0079 9.28824,-34.6198 0,-33.3802 -22.99603,-61.2808 -53.89696,-69.3115 v -110.345 c 0,-9.917 -8.04861,-17.9656 -17.96565,-17.9656 -9.91703,0 -17.96564,8.0486 -17.96564,17.9656 v 110.345 c -30.90092,8.0307 -53.89695,35.9313 -53.89695,69.3115 0,39.6322 32.23037,71.8626 71.86259,71.8626 13.92338,0 26.80475,-4.15 37.8177,-11.0309 l 76.74926,61.0114 c 3.30567,2.6229 7.25812,3.8985 11.17463,3.8985 5.2819,0 10.52787,-2.3176 14.0671,-6.7731 6.18018,-7.7431 4.88666,-19.0435 -2.8745,-25.2237 z m -172.88345,-93.7268 c 0,-19.8161 16.11519,-35.9313 35.9313,-35.9313 19.81611,0 35.9313,16.1152 35.9313,35.9313 0,19.8161 -16.11519,35.9313 -35.9313,35.9313 -19.81611,0 -35.9313,-16.1152 -35.9313,-35.9313 z"
     id="path4127"
     inkscape:connector-curvature="0" /><g
     id="g4129"
     transform="matrix(17.96565,0,0,17.96565,109.49102,706.49105)" /><g
     id="g4131"
     transform="matrix(17.96565,0,0,17.96565,109.49102,706.49105)" /><g
     id="g4133"
     transform="matrix(17.96565,0,0,17.96565,109.49102,706.49105)" /><g
     id="g4135"
     transform="matrix(17.96565,0,0,17.96565,109.49102,706.49105)" /><g
     id="g4137"
     transform="matrix(17.96565,0,0,17.96565,109.49102,706.49105)" /><g
     id="g4139"
     transform="matrix(17.96565,0,0,17.96565,109.49102,706.49105)" /><g
     id="g4141"
     transform="matrix(17.96565,0,0,17.96565,109.49102,706.49105)" /><g
     id="g4143"
     transform="matrix(17.96565,0,0,17.96565,109.49102,706.49105)" /><g
     id="g4145"
     transform="matrix(17.96565,0,0,17.96565,109.49102,706.49105)" /><g
     id="g4147"
     transform="matrix(17.96565,0,0,17.96565,109.49102,706.49105)" /><g
     id="g4149"
     transform="matrix(17.96565,0,0,17.96565,109.49102,706.49105)" /><g
     id="g4151"
     transform="matrix(17.96565,0,0,17.96565,109.49102,706.49105)" /><g
     id="g4153"
     transform="matrix(17.96565,0,0,17.96565,109.49102,706.49105)" /><g
     id="g4155"
     transform="matrix(17.96565,0,0,17.96565,109.49102,706.49105)" /><g
     id="g4157"
     transform="matrix(17.96565,0,0,17.96565,109.49102,706.49105)" /></svg>