<?xml version="1.0" encoding="iso-8859-1"?>
<!-- Generator: Adobe Illustrator 19.0.0, SVG Export Plug-In . SVG Version: 6.00 Build 0)  -->
<svg version="1.1" id="Layer_1" xmlns="http://www.w3.org/2000/svg" xmlns:xlink="http://www.w3.org/1999/xlink" x="0px" y="0px"
	 viewBox="0 0 512 512" style="enable-background:new 0 0 512 512;" xml:space="preserve">
<path style="fill:#C4743D;" d="M262.667,44.564l-6.666-4.213l-6.666,4.213L6.393,198.025l12.617,19.976l0.715,1.12l31.772-20.072
	c-2.186,5.898-3.466,11.945-3.466,16.094c0,4.351,1.408,8.372,3.807,11.636c3.573,4.906,9.375,8.095,15.923,8.095
	c-10.9,0-19.731,8.841-19.731,19.731c0,10.9,8.831,19.731,19.731,19.731c-10.9,0-19.731,8.841-19.731,19.731
	c0,10.9,8.831,19.731,19.731,19.731c-10.9,0-19.731,8.841-19.731,19.731c0,10.9,8.831,19.731,19.731,19.731
	c-10.9,0-19.731,8.841-19.731,19.731c0,10.9,8.831,19.731,19.731,19.731c-10.9,0-19.731,8.841-19.731,19.731
	c0,10.9,8.831,19.731,19.731,19.731c-10.9,0-19.731,8.841-19.731,19.731c0,10.9,8.831,19.731,19.731,19.731
	c0.917,0,1.813-0.085,2.688-0.203h371.096c0.885,0.117,1.781,0.203,2.698,0.203c10.889,0,19.731-8.831,19.731-19.731
	c0-10.889-8.841-19.731-19.731-19.731c-0.181,0-0.352,0.021-0.533,0.032v-0.053c0.181,0,0.352,0.021,0.533,0.021
	c10.889,0,19.731-8.831,19.731-19.731c0-10.889-8.841-19.731-19.731-19.731c-0.181,0-0.352,0.021-0.533,0.032v-0.053
	c0.181,0,0.352,0.021,0.533,0.021c10.889,0,19.731-8.831,19.731-19.731c0-10.889-8.841-19.731-19.731-19.731
	c-0.181,0-0.352,0.021-0.533,0.032v-0.053c0.181,0,0.352,0.021,0.533,0.021c10.889,0,19.731-8.831,19.731-19.731
	c0-10.889-8.841-19.731-19.731-19.731c-0.181,0-0.352,0.021-0.533,0.032v-0.053c0.181,0,0.352,0.021,0.533,0.021
	c10.889,0,19.731-8.831,19.731-19.731c0-10.889-8.841-19.731-19.731-19.731c-0.181,0-0.352,0.021-0.533,0.032v-0.053
	c0.181,0,0.352,0.021,0.533,0.021c10.889,0,19.731-8.831,19.731-19.731c0-10.889-8.841-19.731-19.731-19.731
	c-0.181,0-0.352,0.021-0.533,0.032v-0.053c0.181,0,0.352,0.021,0.533,0.021c6.538,0,12.329-3.178,15.923-8.084
	c2.4-3.264,3.807-7.284,3.807-11.646c0-3.36-0.843-9.065-2.325-15.369l30.62,19.347l0.715-1.131l12.617-19.965L262.667,44.564z"/>
<path style="fill:#AD6432;" d="M492.267,219.121l-30.62-19.347c1.482,6.303,2.325,12.009,2.325,15.369
	c0,4.362-1.408,8.383-3.807,11.646L256.001,97.815L51.837,226.779c-2.4-3.264-3.807-7.284-3.807-11.636
	c0-4.149,1.28-10.196,3.466-16.094l-31.772,20.072l-0.715-1.12L249.336,72.506l6.666-4.213l6.666,4.213L492.982,217.99
	L492.267,219.121z"/>
<polygon style="fill:#D68E5C;" points="492.27,219.121 255.998,69.87 19.725,219.121 6.397,198.021 249.333,44.56 255.998,40.351 
	262.662,44.56 505.598,198.021 "/>
<polyline style="fill:#919EAF;" points="279.993,471.641 279.993,432.18 279.993,392.718 279.993,353.257 279.993,313.796 
	279.993,295.089 383.445,295.089 383.445,313.796 383.445,353.257 383.445,392.718 383.445,432.18 383.445,471.641 "/>
<polyline style="fill:#D68E5C;" points="301.451,471.641 301.451,432.18 301.451,392.718 301.451,353.257 301.451,316.548 
	361.987,316.548 361.987,353.257 361.987,392.718 361.987,432.18 361.987,471.641 "/>
<rect x="128.548" y="295.085" style="fill:#919EAF;" width="103.452" height="103.452"/>
<rect x="150.017" y="316.554" style="fill:#CDEFF7;" width="60.525" height="60.525"/>
<path d="M509.018,192.615l-249.6-157.671c-2.088-1.318-4.747-1.318-6.835,0L2.982,192.615c-2.987,1.888-3.88,5.84-1.992,8.828
	l13.328,21.1c0.907,1.434,2.345,2.451,4.001,2.824c1.655,0.374,3.393,0.074,4.827-0.832l18.595-11.747
	c-0.07,0.777-0.112,1.565-0.112,2.36c0,7.872,3.504,14.937,9.028,19.731c-5.525,4.794-9.028,11.859-9.028,19.731
	s3.504,14.937,9.028,19.731c-5.525,4.794-9.028,11.859-9.028,19.731c0,7.872,3.504,14.937,9.028,19.731
	c-5.525,4.794-9.028,11.859-9.028,19.731c0,7.872,3.504,14.937,9.028,19.731c-5.525,4.794-9.028,11.859-9.028,19.731
	c0,7.872,3.504,14.937,9.028,19.731c-5.525,4.794-9.028,11.859-9.028,19.731c0,7.872,3.504,14.937,9.028,19.731
	c-5.525,4.794-9.028,11.859-9.028,19.731c0,14.408,11.722,26.13,26.13,26.13H444.24c14.408,0,26.13-11.722,26.13-26.13
	c0-7.872-3.504-14.937-9.028-19.731c5.525-4.794,9.028-11.859,9.028-19.731c0-7.872-3.504-14.937-9.028-19.731
	c5.525-4.794,9.028-11.859,9.028-19.731c0-7.872-3.504-14.937-9.028-19.731c5.525-4.794,9.028-11.859,9.028-19.731
	c0-7.872-3.504-14.937-9.028-19.731c5.525-4.794,9.028-11.859,9.028-19.731c0-7.872-3.504-14.937-9.028-19.731
	c5.525-4.794,9.028-11.859,9.028-19.731c0-7.872-3.504-14.937-9.028-19.731c5.525-4.794,9.028-11.859,9.028-19.731
	c0-0.796-0.042-1.583-0.112-2.36l18.596,11.747c1.031,0.651,2.217,0.989,3.418,0.989c0.47,0,0.943-0.052,1.409-0.157
	c1.655-0.373,3.094-1.39,4.001-2.824l13.328-21.1C512.898,198.454,512.007,194.502,509.018,192.615z M256,79.657
	c7.352,0,13.332,5.98,13.332,13.331c0,7.352-5.98,13.332-13.332,13.332s-13.331-5.98-13.331-13.332
	C242.669,85.637,248.649,79.657,256,79.657z M282.105,93.933l27.66,17.473h-35.251C279.011,106.887,281.862,100.737,282.105,93.933z
	 M229.894,93.934c0.243,6.803,3.095,12.954,7.589,17.473h-35.25L229.894,93.934z M181.974,124.204h148.052l40.52,25.596H141.454
	L181.974,124.204z M121.193,162.599h269.614l41.824,26.42H79.37L121.193,162.599z M355.59,465.247h-47.737V322.95h47.737V465.247z
	 M361.989,310.152h-60.536c-3.533,0-6.399,2.866-6.399,6.399v148.696h-8.66V301.492h90.654v163.756h-8.66V316.551
	C368.388,313.017,365.523,310.152,361.989,310.152z M122.152,346.861H90.221c2.326-3.906,3.668-8.463,3.668-13.329
	c0-4.869-1.342-9.427-3.67-13.334h31.933C122.152,320.198,122.152,346.861,122.152,346.861z M122.152,359.659v26.663H90.221
	c2.326-3.906,3.668-8.463,3.668-13.329c0-4.869-1.342-9.427-3.67-13.334H122.152z M122.181,399.121
	c0.291,3.264,3.031,5.823,6.37,5.823h103.452c3.339,0,6.078-2.56,6.37-5.823h35.223v26.663H90.221
	c2.326-3.906,3.668-8.463,3.668-13.329c0-4.869-1.342-9.427-3.67-13.334H122.181z M134.95,392.146v-90.654h90.654v90.654H134.95z
	 M238.403,320.198h35.194v26.663h-35.194L238.403,320.198L238.403,320.198z M238.403,359.659h35.194v26.663h-35.194L238.403,359.659
	L238.403,359.659z M273.596,438.582v26.665H90.22c2.327-3.906,3.669-8.464,3.669-13.332c0-4.869-1.342-9.427-3.67-13.334H273.596z
	 M389.846,438.582h31.935c-2.328,3.907-3.67,8.465-3.67,13.334c0,4.868,1.342,9.426,3.669,13.332h-31.933v-26.665H389.846z
	 M389.846,425.784v-26.663h31.935c-2.328,3.907-3.67,8.465-3.67,13.334c0,4.867,1.342,9.424,3.668,13.329H389.846z M389.846,386.322
	v-26.663h31.935c-2.328,3.907-3.67,8.465-3.67,13.334c0,4.867,1.342,9.424,3.668,13.329H389.846z M389.846,346.861v-26.663h31.935
	c-2.328,3.907-3.67,8.465-3.67,13.334c0,4.867,1.342,9.424,3.668,13.329H389.846z M389.846,307.4v-12.308
	c0-3.533-2.866-6.399-6.399-6.399H279.995c-3.533,0-6.399,2.866-6.399,6.399V307.4h-35.194v-12.308c0-3.533-2.866-6.399-6.399-6.399
	H128.55c-3.533,0-6.399,2.866-6.399,6.399V307.4H90.221c2.326-3.906,3.668-8.463,3.668-13.329c0-4.868-1.342-9.426-3.669-13.331
	h331.56c-2.327,3.906-3.669,8.464-3.669,13.331c0,4.867,1.342,9.424,3.668,13.329H389.846z M90.22,267.941
	c2.327-3.906,3.669-8.464,3.669-13.331c0-4.868-1.342-9.426-3.669-13.331h331.56c-2.327,3.906-3.669,8.464-3.669,13.331
	c0,4.868,1.342,9.426,3.669,13.331H90.22z M90.22,228.48c2.327-3.906,3.669-8.464,3.669-13.332c0-4.868-1.342-9.426-3.669-13.331
	h331.56c-2.327,3.906-3.669,8.464-3.669,13.331c0,4.868,1.342,9.426,3.669,13.332H90.22z M54.428,215.148
	c0-7.352,5.98-13.331,13.331-13.331s13.332,5.98,13.332,13.331c0,7.352-5.98,13.332-13.331,13.332S54.428,222.5,54.428,215.148z
	 M54.428,254.609c0-7.352,5.98-13.331,13.331-13.331s13.332,5.98,13.332,13.331c0,7.352-5.98,13.331-13.331,13.331
	S54.428,261.961,54.428,254.609z M54.428,294.071c0-7.352,5.98-13.331,13.331-13.331s13.332,5.98,13.332,13.331
	c0,7.352-5.98,13.332-13.331,13.332S54.428,301.422,54.428,294.071z M54.428,333.532c0-7.352,5.98-13.331,13.331-13.331
	s13.332,5.98,13.332,13.331s-5.98,13.332-13.331,13.332S54.428,340.883,54.428,333.532z M54.428,372.993
	c0-7.352,5.98-13.331,13.331-13.331s13.332,5.98,13.332,13.331s-5.98,13.332-13.331,13.332S54.428,380.345,54.428,372.993z
	 M54.428,412.454c0-7.352,5.98-13.331,13.331-13.331s13.332,5.98,13.332,13.331s-5.98,13.332-13.331,13.332
	S54.428,419.806,54.428,412.454z M54.428,451.916c0-7.352,5.98-13.332,13.331-13.332s13.332,5.98,13.332,13.332
	s-5.98,13.332-13.331,13.332S54.428,459.267,54.428,451.916z M457.572,451.916c0,7.352-5.98,13.332-13.332,13.332
	s-13.331-5.98-13.331-13.332s5.98-13.332,13.331-13.332S457.572,444.565,457.572,451.916z M457.572,412.454
	c0,7.352-5.98,13.332-13.332,13.332s-13.331-5.98-13.331-13.332s5.98-13.331,13.331-13.331S457.572,405.104,457.572,412.454z
	 M457.572,372.993c0,7.352-5.98,13.332-13.332,13.332s-13.331-5.98-13.331-13.332s5.98-13.331,13.331-13.331
	S457.572,365.643,457.572,372.993z M457.572,333.532c0,7.352-5.98,13.332-13.332,13.332s-13.331-5.98-13.331-13.332
	s5.98-13.331,13.331-13.331S457.572,326.181,457.572,333.532z M457.572,294.071c0,7.352-5.98,13.332-13.332,13.332
	s-13.331-5.98-13.331-13.332c0-7.352,5.98-13.331,13.331-13.331S457.572,286.72,457.572,294.071z M457.572,254.609
	c0,7.352-5.98,13.331-13.332,13.331s-13.331-5.98-13.331-13.331c0-7.352,5.98-13.331,13.331-13.331S457.572,247.259,457.572,254.609
	z M430.909,215.148c0-7.352,5.98-13.331,13.331-13.331s13.332,5.98,13.332,13.331c0,7.352-5.98,13.332-13.332,13.332
	S430.909,222.5,430.909,215.148z M490.279,210.297L259.418,64.464c-1.044-0.659-2.231-0.989-3.418-0.989s-2.374,0.33-3.418,0.989
	L21.721,210.297l-6.493-10.28L256,47.923l240.772,152.094L490.279,210.297z"/>
<path d="M210.54,310.157h-60.525c-3.533,0-6.399,2.866-6.399,6.399v60.525c0,3.533,2.866,6.399,6.399,6.399h60.525
	c3.533,0,6.399-2.866,6.399-6.399v-60.525C216.939,313.023,214.074,310.157,210.54,310.157z M204.141,339.886h-17.464v-16.931
	h17.464V339.886z M173.878,322.955v16.931h-17.464v-16.931H173.878z M156.414,352.684h17.464v17.998h-17.464V352.684z
	 M186.676,370.682v-17.998h17.464v17.998H186.676z"/>
<g>
</g>
<g>
</g>
<g>
</g>
<g>
</g>
<g>
</g>
<g>
</g>
<g>
</g>
<g>
</g>
<g>
</g>
<g>
</g>
<g>
</g>
<g>
</g>
<g>
</g>
<g>
</g>
<g>
</g>
</svg>
