<?xml version="1.0" encoding="iso-8859-1"?>
<!-- Generator: Adobe Illustrator 19.0.0, SVG Export Plug-In . SVG Version: 6.00 Build 0)  -->
<svg version="1.1" id="Capa_1" xmlns="http://www.w3.org/2000/svg" xmlns:xlink="http://www.w3.org/1999/xlink" x="0px" y="0px"
	 viewBox="0 0 511.999 511.999" style="enable-background:new 0 0 511.999 511.999;" xml:space="preserve">
<path style="fill:#FF5023;" d="M503.813,83.88c-5.496-4.948-13.183-10.197-21.043-15.023c-19.153-11.759-43.837-9.175-60.123,6.312
	c-0.038,0.036-0.078,0.074-0.116,0.11c0.045-18.246-4.088-39.529-19.672-55.469c-6.339-6.484-14.008-10.512-19.991-11.671
	c-13.439-2.602-25.535,8.615-24.036,22.22c0,0,13.846,76.712,23.62,93.224c1.223,4.416,5.024,8.072,10.263,8.464l42.443-1.726
	c19.105,1.433,37.836-5.807,51.032-19.697C497.122,99.116,507.206,86.934,503.813,83.88z"/>
<path style="fill:#DDB200;" d="M321.728,118.349c-0.771-0.801-1.653-1.523-2.664-2.154c-32.965-20.562-58.63-21.545-77.196-15.968
	c23.431-21.104,25.874-54.338,24.718-74.985c-0.08-1.462-0.371-2.825-0.841-4.077c-2.634-7.072-10.828-10.458-18.131-6.571
	c-34.307,18.28-47.983,40.027-52.429,58.901c-6.553-30.853-34.116-49.597-52.578-58.921c-0.611-0.311-1.222-0.561-1.833-0.771
	c-8.164-2.795-16.568,2.815-16.878,11.88c-1.324,38.838,10.665,61.554,24.783,74.842c-22.569-7.329-45.143-0.934-62.306,7.507
	c-5.65,2.775-10.708,5.77-14.995,8.574c-8.144,5.329-8.003,16.598,0.26,21.757c32.967,20.564,58.639,21.549,77.205,15.97
	c-23.424,21.105-25.877,54.333-24.717,74.983c0.541,9.716,10.367,15.226,18.962,10.648c5.549-2.955,10.558-6,15.075-9.115
	c0,0,0.01-0.02,0.02-0.01c23.397-16.12,33.607-33.952,37.335-49.769c6.56,30.851,34.127,49.585,52.587,58.914
	c8.064,4.077,16.989-0.591,18.491-9.085c0.12-0.651,0.19-1.322,0.21-2.023c1.325-38.836-10.657-61.557-24.772-74.844
	c27.885,9.055,55.777-2.838,73.464-13.655c1.342-0.821,2.624-1.633,3.836-2.424C326.486,133.274,327.248,124.018,321.728,118.349z"
	/>
<path style="fill:#FF3501;" d="M416.829,113.43c-3.095,8.304-11.349,15.426-19.513,16.808c-4.998,0.861-9.967-0.441-13.683-4.928
	c-9.796-11.82-24.802-94.95-24.802-94.95c-1.503-13.603,10.598-24.822,24.04-22.217c5.66,1.092,12.832,4.758,18.952,10.638
	c0.351,0.341,0.691,0.681,1.032,1.032C436.472,54.191,416.829,113.43,416.829,113.43z"/>
<g>
	<path style="fill:#FF5023;" d="M416.829,113.43c-3.095,8.304-11.349,15.426-19.513,16.808
		c-9.596-21.656-21.897-89.811-21.897-89.811c-1.492-13.613,10.598-24.822,24.04-22.227c0.761,0.15,1.553,0.341,2.364,0.581
		c0.351,0.341,0.691,0.681,1.032,1.032C436.472,54.191,416.829,113.43,416.829,113.43z"/>
	<path style="fill:#FF5023;" d="M486.185,110.626c-13.192,13.893-31.924,21.126-51.026,19.693l-42.441,1.733
		c-9.065-0.681-13.833-11.109-8.384-18.371c1.472-1.963,3.366-4.187,5.549-6.581c9.165-10.037,23.379-23.009,32.765-31.934
		c16.287-15.486,40.969-18.07,60.121-6.311c7.863,4.828,15.546,10.077,21.045,15.025c0.26,0.23,0.431,0.511,0.541,0.831
		C505.698,88.759,496.302,99.978,486.185,110.626z"/>
</g>
<path style="fill:#FF7956;" d="M504.356,84.712c-3.025,3.686-6.641,7.673-10.347,11.579c-13.202,13.883-31.924,21.126-51.036,19.693
	l-42.441,1.723c-6.07-0.451-10.217-5.289-10.648-10.608c9.165-10.037,23.379-23.009,32.765-31.934
	c16.287-15.486,40.969-18.07,60.121-6.311c7.863,4.828,15.546,10.077,21.045,15.025C504.076,84.111,504.246,84.391,504.356,84.712z"
	/>
<path style="fill:#5EAC24;" d="M161.869,306.616c-0.401,1.723-0.942,3.406-1.593,5.049c-1.222,3.065-2.855,5.97-4.828,8.594
	c-8.404,11.159-23.129,17.279-39.627,9.246c-20.885-10.167-42.181-37.914-52.939-53.41c-0.751-1.082-1.452-2.104-2.094-3.055
	c-2.554-3.776-0.351-8.895,4.137-9.696c1.563-0.28,3.115-0.541,4.658-0.771c0.01,0,0.01,0,0.02,0
	c34.208-5.209,62.395,1.302,75.477,8.104C160.747,278.829,164.995,293.524,161.869,306.616z"/>
<path style="fill:#6DC82A;" d="M161.869,306.616c-0.401,1.723-0.942,3.406-1.593,5.049c-8.665,8.885-21.977,12.982-36.692,5.82
	c-20.885-10.167-42.181-37.914-52.939-53.41c-0.361-0.521-0.701-1.022-1.042-1.503c34.208-5.209,62.395,1.302,75.477,8.104
	C160.747,278.829,164.995,293.524,161.869,306.616z"/>
<path style="fill:#5EAC24;" d="M367.345,240.174c-0.481,1.322-0.972,2.634-1.472,3.917h-0.01
	c-12.571,32.244-32.284,53.44-44.715,61.373c-14.885,9.506-29.73,5.85-39.517-3.386c-3.676-3.476-6.631-7.733-8.604-12.391
	c-4.277-10.047-3.957-21.907,3.646-31.513c2.124-2.685,4.808-5.189,8.124-7.433c19.232-13.022,53.911-17.63,72.702-19.202
	c1.102-0.09,2.154-0.18,3.135-0.25c3.055-0.23,5.599,1.593,6.621,4.117C367.856,236.848,367.946,238.521,367.345,240.174z"/>
<path style="fill:#6DC82A;" d="M367.255,235.406c-12.371,25.844-28.859,42.982-39.757,49.934c-14.885,9.506-29.73,5.85-39.517-3.386
	c-3.676-3.476-6.631-7.733-8.604-12.391c-1.543-3.626-2.484-7.483-2.705-11.389c2.124-2.685,4.808-5.189,8.124-7.433
	c19.232-13.022,53.911-17.63,72.702-19.202c1.102-0.09,2.154-0.18,3.135-0.25C363.689,231.058,366.233,232.881,367.255,235.406z"/>
<path style="fill:#5EAC24;" d="M410.378,427.519c-6.651,7.402-12.301,17.329-16.949,27.576c-1.192,2.644-2.324,5.299-3.386,7.943
	c-7.513,18.701-4.137,35.46-22.788,41.209c-6.281,1.943-31.874,0-38.665,0H99.595c-14.274,0-33.426,8.064-44.565,0
	c-8.594-6.23-10.167-27.176-15.025-37.082c-6.912-14.104-17.229-29.239-32.274-39.496c-0.421-0.29-0.17-0.952,0.341-0.861
	c10.418,1.823,54.672,11.049,64.639,36.982c0.19,0.501,0.932,0.351,0.912-0.19c-0.481-14.084-3.696-70.048-24.652-100.089
	c-0.331-0.471,0.29-1.012,0.711-0.621c10.237,9.416,38.765,36.652,50.104,58.038c0.23,0.431,0.871,0.301,0.892-0.19
	c0.841-17.269,8.474-48.672,32.334-68.075c0.351-0.29,0.871,0.04,0.771,0.481c-2.344,10.408-16.678,78.753,3.476,108.483
	c0.28,0.431,0.942,0.18,0.871-0.331c-1.332-9.406-3.997-49.243,41.249-72.392c0.411-0.21,0.861,0.23,0.651,0.641
	c-4.738,9.135-31.984,63.327-23.72,87.607c0.15,0.431,0.751,0.441,0.902,0c9.256-27.657,27.326-53.43,33.607-60.522
	c0.361-0.401,0.992,0,0.801,0.491c-11.9,30.191,4.588,52.559,7.893,57.046c0.25,0.341,0.781,0.2,0.851-0.21l36.021-82.439
	c0.06-0.361,0.491-0.521,0.781-0.29c12.802,10.267,23.78,74.706,25.182,85.574c0.07,0.481,0.711,0.571,0.922,0.13
	c12.401-26.835-1.432-96.853-3.296-105.898c-0.08-0.391,0.341-0.691,0.691-0.511c45.587,23.279,33.917,77.2,30.381,90.032
	c-0.14,0.521,0.571,0.841,0.861,0.391c20.214-30.642,15.176-103.725,14.394-113.501c-0.03-0.421,0.461-0.661,0.781-0.401
	c24,19.102,31.393,39.276,32.224,55.794c0.03,0.481,0.671,0.631,0.901,0.2c11.159-21.156,29.159-29.249,34.538-31.273
	c0.451-0.17,0.831,0.371,0.531,0.751c-22.748,29.159-21.186,79.864-20.464,91.805c0.03,0.521,0.751,0.601,0.922,0.11
	c9.105-26.805,46.418-36.051,54.201-37.703C410.388,426.638,410.688,427.169,410.378,427.519z"/>
<path style="fill:#EEBF00;" d="M185.679,127.855c0,0-4.488,7.062-13.583,14.254c-17.059,13.523-50.325,27.526-100.459-3.746
	c-8.264-5.159-8.404-16.428-0.26-21.757c4.287-2.805,9.346-5.8,14.995-8.574C113.157,94.859,153.125,86.665,185.679,127.855z"/>
<path style="fill:#FFD422;" d="M185.679,127.855c0,0-4.488,7.062-13.583,14.254c-18.892,7.883-46.729,9.516-83.791-13.603
	c-7.663-4.778-8.344-14.805-1.933-20.474C113.157,94.859,153.125,86.665,185.679,127.855z"/>
<g>
	<path style="fill:#EEBF00;" d="M266.806,228.875c-0.02,0.701-0.09,1.372-0.21,2.023c-1.503,8.494-10.428,13.162-18.491,9.085
		c-26.244-13.262-70.899-45.537-47.42-104.616c0,0,5.179,0.23,12.641,2.404C233.139,143.551,269.05,163.114,266.806,228.875z"/>
	<path style="fill:#EEBF00;" d="M158.183,230.838c-0.01-0.01-0.02,0.01-0.02,0.01c-4.518,3.115-9.526,6.16-15.075,9.115
		c-8.594,4.578-18.421-0.932-18.962-10.648c-1.422-25.343,2.584-69.637,44.134-87.207c6.591-2.795,14.134-4.908,22.748-6.17
		C191.008,135.938,218.725,189.128,158.183,230.838z"/>
</g>
<g>
	<path style="fill:#FFD422;" d="M158.183,230.838c-0.01-0.01-0.02,0.01-0.02,0.01c-8.174,3.145-16.858-2.284-17.379-11.389
		c-1.192-21.436,1.482-56.425,27.476-77.35c6.591-2.795,14.134-4.908,22.748-6.17C191.008,135.938,218.725,189.128,158.183,230.838z
		"/>
	<path style="fill:#FFD422;" d="M266.806,228.875c-0.02,0.701-0.09,1.372-0.21,2.023c-0.611-0.21-1.222-0.461-1.833-0.771
		c-24.371-12.311-64.609-41.019-51.437-92.355C233.139,143.551,269.05,163.114,266.806,228.875z"/>
</g>
<path style="fill:#EEBF00;" d="M321.929,135.768c-0.741,0.801-1.603,1.533-2.594,2.184c-1.212,0.791-2.494,1.603-3.836,2.424
	c-23.7,14.494-65.721,30.922-101.491-3.706c-2.033-1.953-4.037-4.077-6.02-6.381c-1.002-1.152-1.983-2.344-2.965-3.586
	c0,0,3.075-4.828,9.276-10.568c15.376-14.234,50.004-34.097,104.766,0.06c1.012,0.631,1.893,1.352,2.664,2.154
	C326.486,123.237,326.577,130.78,321.929,135.768z"/>
<path style="fill:#FFD422;" d="M321.929,135.768c-0.741,0.801-1.603,1.533-2.594,2.184c-1.212,0.791-2.494,1.603-3.836,2.424
	c-23.7,14.494-65.721,30.922-101.491-3.706c0.601-0.591,1.232-1.202,1.913-1.833c15.376-14.234,50.004-34.097,104.766,0.06
	C321.128,135.167,321.538,135.457,321.929,135.768z"/>
<path style="fill:#EEBF00;" d="M222.071,112.599c-6.501,2.725-13.923,4.788-22.378,6.02c0,0-32.014-61.433,47.921-104.025
	c7.302-3.887,15.496-0.501,18.131,6.571c0.471,1.252,0.761,2.614,0.841,4.077C268.008,50.655,263.981,95.14,222.071,112.599z"/>
<path style="fill:#FFD422;" d="M222.071,112.599c-5.289-17.489-10.418-58.939,43.674-91.434c0.471,1.252,0.761,2.614,0.841,4.077
	C268.008,50.655,263.981,95.14,222.071,112.599z"/>
<path style="fill:#EEBF00;" d="M194.033,106.939c-1.012,3.947-2.344,8.034-4.017,12.251c0,0-69.207-2.995-66.121-93.507
	c0.311-9.065,8.715-14.675,16.878-11.88c0.611,0.21,1.222,0.461,1.833,0.771C166.978,26.885,207.226,55.603,194.033,106.939z"/>
<path style="fill:#FFD422;" d="M194.033,106.939c-19.813-5.8-55.714-25.373-53.47-91.113c0.02-0.701,0.09-1.372,0.21-2.023
	c0.611,0.21,1.222,0.461,1.833,0.771C166.978,26.885,207.226,55.603,194.033,106.939z"/>
<path style="fill:#FF3501;" d="M221.82,127.855c0,10.568-6.07,19.713-14.925,24.141c-3.626,1.823-7.723,2.845-12.06,2.845
	c-14.895,0-26.975-12.08-26.975-26.985c0-14.905,12.08-26.985,26.975-26.985c4.337,0,8.434,1.022,12.06,2.845
	C215.75,108.141,221.82,117.287,221.82,127.855z"/>
<path style="fill:#FF5023;" d="M221.82,127.855c0,10.568-6.07,19.713-14.925,24.141c-8.855-4.417-14.935-13.563-14.935-24.141
	s6.08-19.723,14.935-24.141C215.75,108.141,221.82,117.287,221.82,127.855z"/>
<path style="fill:#47821C;" d="M394.451,442.775c-0.902,2.574-1.012,6.942-1.022,12.321c-1.192,2.644-2.324,5.299-3.386,7.943
	c-7.513,18.701-4.137,35.46-22.788,41.209c-6.281,1.943-31.874,0-38.665,0H99.595c-9.326,0-18.351-1.953-26.595-5.549
	c-7.222-3.145-12.341-9.726-14.014-17.429c-1.723-7.933-4.267-14.765-5.97-18.852c-0.541-1.302,0.881-2.524,2.084-1.813
	c7.142,4.237,22.187,13.663,28.618,21.406c0.831,1.002,2.454,0.511,2.574-0.791c0.821-9.446,2.554-33.326,0.25-46.598
	c-0.21-1.222,1.082-2.144,2.154-1.523c4.267,2.434,12.261,7.933,15.736,16.307c0.551,1.312,2.464,1.122,2.765-0.27
	c1.603-7.402,4.397-20.114,6.381-27.917c0.401-1.543,2.624-1.432,2.865,0.14c2.043,13.663,7.963,45.226,21.256,65.791
	c0.791,1.222,2.685,0.671,2.695-0.781c0.06-9.105,0.821-29.65,6.19-45.216c0.571-1.633,3.015-1.082,2.835,0.631
	c-1.392,13.312-1.793,36.562,9.696,50.285c0.681,0.821,1.993,0.641,2.444-0.321l17.269-36.692c0.601-1.262,2.444-1.052,2.755,0.311
	c1.963,8.795,7.863,28.328,22.278,34.558c0.661,0.29,1.432,0.01,1.803-0.601c4.077-6.862,26.404-44.625,31.954-59.51
	c0.471-1.272,2.274-1.252,2.735,0.03c4.307,12.13,16.177,46.699,15.696,57.697c-0.04,0.892,0.721,1.623,1.603,1.513
	c4.327-0.531,15.296-5.059,19.262-36.481c0.19-1.523,2.314-1.743,2.825-0.29c2.855,8.204,7.573,23.029,7.923,32.274
	c0.04,1.242,1.503,1.883,2.424,1.052c7.352-6.631,28.328-28.548,28.398-62.876c0-0.992,0.952-1.723,1.893-1.412
	c2.554,0.861,7.082,3.676,9.897,12.932c0.421,1.382,2.404,1.362,2.805-0.03c1.653-5.68,5.018-14.314,11.319-21.045
	c1.032-1.092,2.865-0.07,2.474,1.382c-3.135,11.87-9.586,42.131,1.082,58.949c0.24,0.371,0.621,0.601,1.062,0.651
	c2.414,0.26,10.838,0.01,21.436-13.312c8.685-10.898,17.319-17.029,21.867-19.793C393.479,440.341,394.902,441.483,394.451,442.775z
	"/>
<path style="fill:#FF9811;" d="M448.061,172.44c-4.648,7.342-91.204-45.897-91.204-45.897c-2.995-1.893-4.638-5.139-4.638-8.454
	c0-1.823,0.501-3.666,1.543-5.309c1.753-2.795,4.698-4.407,7.773-4.608c2.043-0.14,4.137,0.341,5.99,1.513
	c0,0,42.321,27.526,65.671,46.348C442.983,163.915,449.434,170.266,448.061,172.44z"/>
<path style="fill:#FFA733;" d="M433.196,156.032c-27.076-13.443-67.113-38.074-67.113-38.074c-2.995-1.893-4.638-5.139-4.638-8.454
	c0-0.441,0.03-0.881,0.09-1.332c2.043-0.14,4.137,0.341,5.99,1.513C367.526,109.684,409.847,137.21,433.196,156.032z"/>
<path style="fill:#EE8700;" d="M361.025,109.724c-0.321,1.292-0.861,2.564-1.613,3.756c-3.887,6.13-12,7.963-18.141,4.077
	c-6.13-3.877-7.963-12-4.077-18.131c2.043-3.245,5.279-5.279,8.775-5.91c3.125-0.571,6.461-0.01,9.356,1.823
	C360.273,98.475,362.417,104.345,361.025,109.724z"/>
<path style="fill:#FF9811;" d="M361.025,109.724c-3.125,0.561-6.461,0-9.346-1.823c-4.948-3.125-7.092-9.005-5.71-14.384
	c3.125-0.571,6.461-0.01,9.356,1.823C360.273,98.475,362.417,104.345,361.025,109.724z"/>
<path d="M508.844,78.291c-6.429-5.775-22.897-17.972-35.279-21.777c-3.967-1.212-8.174,1.012-9.386,4.978
	c-1.222,3.967,1.012,8.174,4.978,9.386c8.756,2.695,21.798,12.113,26.845,16.207c-1.563,2.634-5.489,8.084-15.256,18.361
	c-11.923,12.554-29.257,19.06-46.749,17.249c-0.012-0.001-0.021-0.002-0.032-0.002c0,0,0.001,0,0.002,0
	c-0.013-0.001-0.029-0.002-0.048-0.004c0.009,0.001,0.017,0.001,0.025,0.002c-0.054-0.004-0.103-0.008-0.147-0.011
	c-0.017-0.001-0.035-0.003-0.054-0.004c-0.033-0.003-0.062-0.005-0.089-0.007c0.001,0,0.001,0,0.002,0c-0.001,0-0.003,0-0.004,0
	c-0.016-0.001-0.03-0.002-0.044-0.003c-0.028-0.002-0.055-0.004-0.087-0.006c-0.015-0.001-0.028-0.002-0.039-0.003
	c-0.011-0.001-0.023-0.002-0.035-0.003c-0.001,0-0.001,0-0.002,0c-1.848-0.138-9.122-0.684-33.785-2.533
	c-3.136-0.233-4.839-3.809-2.935-6.361c8.964-11.952,28.613-31.01,31.794-33.777c4.498-4.107,9.716-7.122,15.516-8.965
	c3.957-1.262,6.15-5.479,4.888-9.436c-1.252-3.957-5.479-6.14-9.436-4.888c-3.666,1.172-7.162,2.675-10.458,4.518
	c-2.57-33.967-25.685-56.766-44.735-60.452c-19.981-3.864-35.953,14.408-32.855,30.912c1.503,8.444,7.262,39.867,14.084,63.367
	c-1.573-2.404-3.666-4.458-6.18-6.05c-4.658-2.945-10.197-3.897-15.576-2.695c-2.164,0.491-4.197,1.302-6.05,2.404
	c-18.763-14.452-17.707-13.649-17.93-13.793c-5.089-3.416-6.461-10.347-3.035-15.446c2.274-3.396,6.882-4.297,10.267-2.023
	c2.063,1.368,2.548,4.147,1.212,6.13c-2.314,3.446-1.392,8.114,2.053,10.428c3.446,2.314,8.114,1.392,10.428-2.053
	c5.969-8.933,3.615-20.994-5.319-26.985c-17.272-11.594-39.262,4.327-35.069,25.763c1.342,6.761,5.189,12.621,10.878,16.518
	l17.299,13.322c-3.761,12.475,5.099,25.797,18.691,26.515c1.382,2.344,3.326,4.347,5.73,5.87
	c13.322,8.48,54.958,32.856,75.838,42.271c8.646,3.897,20.567,9.281,25.643,1.242c5.912-9.345-7.11-19.992-34.198-39.727
	c6.4-0.656,42.273,9.768,71.43-20.935c16.898-17.78,20.364-24.942,20.364-30.211C511.999,82.719,510.877,80.124,508.844,78.291z
	 M353.061,109.464c-1.523,2.404-4.578,3.265-7.092,2.114c-4.647-2.017-4.327-8.952,0.631-10.488
	C351.499,99.459,355.875,104.995,353.061,109.464z M381.439,15.515c3.816,0.741,10.317,3.686,16.047,9.546
	c12.181,12.451,17.73,28.598,16.518,47.991c-7.062,6.811-24.115,23.899-29.48,31.944c-5.449-13.563-13.032-46.358-18.251-75.677
	C365.486,20.765,373.116,13.891,381.439,15.515z M362.657,121.294c1.162-1.102,2.204-2.374,3.105-3.796
	c16.908,11.059,34.789,23.399,48.922,33.827C399.049,142.94,380.007,131.921,362.657,121.294z"/>
<path d="M433.532,122.661c0.015,0.001,0.031,0.002,0.049,0.004C433.562,122.663,433.546,122.662,433.532,122.661z"/>
<path d="M433.651,122.67c0.001,0,0.001,0,0.001,0c-0.025-0.002-0.049-0.004-0.072-0.005c0.009,0.001,0.017,0.001,0.027,0.002
	C433.621,122.668,433.638,122.669,433.651,122.67z"/>
<path d="M433.943,122.692c0.007,0.001,0.014,0.001,0.021,0.002C433.958,122.693,433.951,122.692,433.943,122.692z"/>
<path d="M433.482,122.657c0.012,0.001,0.027,0.002,0.039,0.003c0.004,0,0.007,0,0.011,0.001c-0.059-0.004-0.096-0.007-0.086-0.006
	c0.001,0,0.001,0,0.001,0C433.452,122.655,433.464,122.656,433.482,122.657z"/>
<path d="M408.365,419.381c-8.283,1.761-30.547,7.626-46.071,22.081c1.012-19.527,5.103-46.63,18.9-64.322
	c2.196-2.814,2.255-6.783,0.144-9.657c-2.108-2.868-5.907-3.996-9.243-2.745c-4.466,1.677-17.121,7.267-28.39,20.063
	c-4.954-16.039-15.642-30.659-31.934-43.633c-5.46-4.349-13.51-0.08-12.957,6.875c1.177,14.812,1.724,36.364,0.019,57.088
	c-5.14-16.739-15.937-31.691-34.759-41.306c-5.947-3.028-12.803,2.186-11.458,8.735c2.984,14.481,6.373,35.542,7.693,55.317
	c-3.59-14.207-12.675-48.975-26.323-43.737c-2.157,0.828-3.835,2.56-4.626,4.69l-14.81,33.892
	c4.844-32.226,5.817-65.153,4.918-94.876c0.261-0.019,0.525-0.046,0.788-0.093c16.056-2.852,35.3-11.29,54.586-21.873
	c13.074,13.664,32.593,17.253,50.347,5.916c13.294-8.491,39.305-34.666,52.463-78.919c0.686-2.307,0.225-4.802-1.238-6.711
	c-1.464-1.91-3.752-3.003-6.159-2.94c-2.473,0.064-60.895,1.812-89.675,21.292c-18.756,12.694-21.177,32.947-14.135,48.847
	c-17.042,9.307-33.753,16.653-47.599,19.357c-1.596-30.694-5.272-62.457-10.404-92.52c10.216,10.979,23.006,19.779,36.274,26.482
	c13.471,6.824,29.064-2.25,29.6-17.55c0.992-29.229-5.339-49.884-14.154-64.408c22.555,0.572,44.478-8.186,63.277-20.494
	c12.704-8.3,12.547-26.345-0.401-34.408c-24.812-15.476-45.857-20.314-62.856-19.954c11.724-18.842,15.14-42.715,13.903-65.05
	C273.23,9.559,257.442,0.846,244.078,7.962c-25.813,13.753-40.528,29.57-48.702,44.465c-10.54-19.729-29.672-34.598-49.383-44.555
	c-13.592-6.882-29.089,2.366-29.6,17.55c-1.002,29.229,5.339,49.884,14.154,64.418c-6.165-0.223-13.383,0.367-20.885,1.983
	c-4.057,0.871-6.641,4.868-5.76,8.925c0.871,4.057,4.868,6.641,8.925,5.76c15.75-3.375,30.927-1.872,45.116,6.411
	c-0.838,2.172-1.51,4.506-1.953,6.852h-45.336c-4.147,0-7.513,3.356-7.513,7.513c0,4.147,3.366,7.513,7.513,7.513h45.336
	c0.483,2.567,1.241,5.149,2.244,7.573c-26.853,14.539-56.765,5.751-82.619-10.387c-3.594-2.218-3.714-6.743-0.13-9.085
	c3.676-2.404,7.443-4.628,11.189-6.591c3.666-1.933,5.079-6.471,3.155-10.147c-1.933-3.666-6.471-5.089-10.147-3.155
	c-4.167,2.194-8.354,4.658-12.421,7.322c-12.741,8.328-12.516,26.35,0.401,34.408c19.169,11.956,40.412,20.377,62.826,20.004
	c-11.737,19.051-15.114,42.666-13.863,64.999c0.85,15.107,16.497,24.04,30.001,16.858c21.875-11.655,35.784-24.792,44.489-37.599
	c4.954,26.273,12.504,74.36,13.506,127.587c-9.898-8.95-22.483-17.738-36.054-25.988c4.86-16.601-0.051-36.193-20.013-46.579
	c-13.995-7.281-49.66-16.751-94.572-6.059c-4.97,1.182-7.329,6.88-4.669,11.228c1.291,2.111,31.971,51.858,63.217,67.072
	c18.868,9.184,38.059,3.355,49.384-12.142c17.054,10.416,32.148,21.565,41.346,32.519c0.418,0.498,0.891,0.92,1.395,1.28
	c-0.473,28.885-3.142,58.599-9.385,86.631c-0.976-8.145,0.114-16.486,3.336-24.663c1.423-3.615,0.053-7.715-3.258-9.745
	c-3.307-2.028-7.574-1.391-10.146,1.511c-3.547,4.001-10.029,12.816-16.799,24.192c4.56-13.926,11.193-29.144,18.299-42.831
	c1.603-3.096,1.027-6.837-1.434-9.309c-2.464-2.475-6.207-3.069-9.312-1.48c-24.183,12.373-35.863,29.35-41.334,44.619
	c-2.547-30.223,5.26-66.577,6.489-72.037c0.751-3.32-0.689-6.757-3.585-8.552c-2.896-1.796-6.615-1.562-9.257,0.589
	c-17.813,14.49-27.835,35.74-32.308,54.564c-13.536-17.901-32.273-35.839-41.189-44.032c-3.005-2.766-7.587-2.824-10.661-0.141
	c-3.075,2.686-3.632,7.238-1.295,10.592c13.553,19.429,19.26,51.487,21.652,73.603c-18.172-14.4-45.105-20.261-55.084-22.015
	c-3.742-0.658-7.352,1.338-8.782,4.855c-1.432,3.525-0.235,7.482,2.906,9.62c31.964,21.809,41.28,69.367,41.663,71.39
	c0.716,3.76,4.018,6.49,7.849,6.49h46.578c4.149,0,7.513-3.363,7.513-7.513s-3.364-7.513-7.513-7.513H58.661
	c-2.748-11.159-10.09-35.228-25.952-55.521c15.206,5.709,28.715,14.164,32.983,25.271c3.224,8.383,15.749,5.832,15.439-3.14
	c-0.383-11.198-2.14-40.726-10.078-68.35c8.683,9.606,17.194,20.208,22.088,29.444c3.798,7.174,14.657,4.733,15.043-3.341
	c0.611-12.667,4.68-29.546,13.722-44.256c-3.74,26.895-5.891,66.836,9.126,89.003c4.744,6.992,15.715,2.761,14.534-5.602
	c-1.097-7.756-2.236-30.123,16.166-49.34c-9.198,21.891-18.537,51.025-12.54,68.668c1.889,5.549,7.487,5.386,7.587,5.42
	c3.43-0.008,6.466-2.201,7.556-5.456c4.093-12.234,10.058-24.164,15.838-34.08c1.218,11.581,5.675,22.843,13.283,33.162
	c1.91,2.597,5.169,3.791,8.303,3.033c2.646-0.637,4.742-2.548,5.644-5.043l30.557-69.931c2.36,5.708,5.352,14.714,8.766,28.881
	c4.368,18.128,7.442,36.581,8.172,42.215c0.455,3.508,3.214,6.333,6.71,6.871c3.501,0.541,6.984-1.331,8.474-4.55
	c10.153-21.959,4.684-67.67,0.366-93.679c24.255,22.865,16.695,60.023,13.359,72.14c-1.051,3.812,0.801,7.767,4.404,9.403
	c3.602,1.635,7.795,0.428,9.973-2.875c16.374-24.838,17.441-73.289,16.559-100.629c10.636,11.858,16.361,24.848,17.059,38.765
	c0.178,3.582,2.75,6.625,6.254,7.401c3.504,0.777,7.118-0.899,8.792-4.071c2.614-4.957,5.646-9.106,8.779-12.56
	c-9.759,28.052-8.992,59.58-8.319,70.779c0.526,8.714,12.727,10.333,15.538,2.076c4.549-13.379,17.979-21.794,29.747-26.774
	c-11.394,20.461-18.42,45.392-21.24,56.668H131.511c-4.149,0-7.513,3.363-7.513,7.513s3.364,7.513,7.513,7.513h245.408
	c3.787,0,6.996-2.58,7.803-6.269c4.127-18.772,15.351-55.261,31.242-72.955C421.113,426.797,415.926,417.78,408.365,419.381z
	 M317.105,299.132c-10.938,6.988-21.294,4.936-28.661-1.045c2.701-1.61,5.386-3.246,8.05-4.9l18.82,2.78
	c4.107,0.604,7.924-2.23,8.53-6.335c0.606-4.105-2.23-7.923-6.334-8.53l-1.908-0.281c14.793-9.943,28.024-19.648,37.849-27.108
	C341.171,278.685,325.373,293.852,317.105,299.132z M346.26,240.254c-5.609,4.273-12.519,9.426-20.298,15.002
	c-0.124-3.745-3.022-6.894-6.849-7.228c-4.127-0.356-7.777,2.696-8.139,6.828l-1.014,11.579
	c-9.616,6.539-19.939,13.224-30.389,19.438C267.511,254.848,313.293,244.295,346.26,240.254z M76.042,281.472
	c6.504,2.728,14.419,6.141,23.137,10.098c-6.434,3.991-3.543,13.89,3.97,13.89c1.061,0,2.139-0.226,3.163-0.702l10.545-4.904
	c10.466,5.067,21.411,10.673,32.012,16.626C128.013,342.423,96.013,308.037,76.042,281.472z M155.02,302.699
	c-2.743-1.536-5.501-3.046-8.264-4.529l-6.988-17.697c-1.525-3.858-5.888-5.752-9.746-4.228c-3.859,1.524-5.753,5.887-4.229,9.746
	l0.708,1.794c-16-7.854-31.015-14.473-42.383-19.262c27.765-1.827,48.796,4.29,57.499,8.819
	C153.13,283.334,156.523,293.331,155.02,302.699z M315.087,122.566c2.374,1.482,2.745,3.476,2.755,4.538
	c0.01,1.062-0.311,3.045-2.624,4.558c-26.075,17.075-55.844,25.726-82.479,10.037c0.818-2.108,1.488-4.354,1.973-6.902h45.346
	c4.147,0,7.513-3.366,7.513-7.513c0-4.157-3.366-7.513-7.513-7.513h-45.346c-0.463-2.478-1.213-5.091-2.244-7.583
	C259.2,97.814,289.098,106.359,315.087,122.566z M202.918,73.553v-0.01c4.528-16.718,17.389-35.88,48.231-52.318
	c3.881-2.069,7.709,0.32,7.933,4.437c1.712,30.797-5.49,61.17-32.565,76.449c-1.418-1.738-3.156-3.581-4.988-5.149l22.678-39.286
	c2.074-3.586,0.841-8.184-2.745-10.257c-3.596-2.073-8.194-0.841-10.267,2.745L208.528,89.43c-2.477-0.86-5.074-1.497-7.683-1.843
	C200.975,83.209,201.586,78.482,202.918,73.553z M131.408,25.933c0.135-4.186,3.937-6.591,7.803-4.658
	c27.82,14.051,50.177,35.488,49.934,66.412c-2.257,0.346-4.814,0.98-6.972,1.753l-22.668-39.276
	c-2.073-3.586-6.671-4.818-10.257-2.745c-3.596,2.073-4.828,6.671-2.755,10.257l22.678,39.286c-1.969,1.711-3.766,3.586-5.439,5.72
	C137.926,86.779,130.367,56.475,131.408,25.933z M139.562,233.332c-3.73,1.986-7.694-0.155-7.943-4.437
	c-1.713-30.785,5.5-61.212,32.575-76.449c1.452,1.801,3.062,3.495,4.978,5.149l-22.678,39.286
	c-2.906,5.025,0.786,11.269,6.501,11.269c2.594,0,5.119-1.352,6.511-3.756l22.668-39.276c2.477,0.878,5.127,1.513,7.693,1.853
	C188.964,197.301,166.564,218.945,139.562,233.332z M178.998,146.226c0,0,0,0-0.01,0c-0.069-0.104-11.133-9.038-8.234-23.63
	c-0.01-0.02,0-0.04,0.01-0.06c2.003-11.081,12.058-20.304,24.591-20.304c16.352,0,27.511,15.043,24.591,29.74
	c0.01,0.02,0,0.04-0.01,0.05c-1.468,8.207-7.6,15.864-16.348,18.902c-0.02,0.02-0.04,0.02-0.06,0.02
	C195.558,153.809,185.958,152.256,178.998,146.226z M201.556,166.87c2.353-0.361,4.864-1.006,6.972-1.743l22.668,39.266
	c1.392,2.404,3.917,3.756,6.511,3.756c5.719,0,9.408-6.242,6.501-11.269l-22.678-39.286c1.876-1.63,3.651-3.463,5.409-5.68
	c26.177,15.924,33.4,46.12,32.364,76.709c-0.154,4.281-4.043,6.558-7.813,4.658C223.651,219.208,201.312,197.801,201.556,166.87z"/>
<g>
</g>
<g>
</g>
<g>
</g>
<g>
</g>
<g>
</g>
<g>
</g>
<g>
</g>
<g>
</g>
<g>
</g>
<g>
</g>
<g>
</g>
<g>
</g>
<g>
</g>
<g>
</g>
<g>
</g>
</svg>
