<?xml version="1.0" encoding="iso-8859-1"?>
<!-- Generator: Adobe Illustrator 19.0.0, SVG Export Plug-In . SVG Version: 6.00 Build 0)  -->
<svg version="1.1" id="Capa_1" xmlns="http://www.w3.org/2000/svg" xmlns:xlink="http://www.w3.org/1999/xlink" x="0px" y="0px"
	 viewBox="0 0 511.998 511.998" style="enable-background:new 0 0 511.998 511.998;" xml:space="preserve">
<g>
	<path style="fill:#00AC65;" d="M89.603,235.445c-12.408-14.377-20.056-34.017-20.056-55.675c0-44.067,31.645-79.791,70.68-79.791
		c7.953,0,15.598,1.482,22.731,4.217c7.955-23.321,23.399-42.444,43.008-53.606c-34.283-34.465-101.199-2.602-116.225,41.45
		c-6.09-2.334-12.616-3.6-19.405-3.6C37.014,88.439,10,118.935,10,156.554c0,18.489,6.528,35.254,17.12,47.527
		c-18.697,65.508,19.025,89.63,58.519,86.019C82.519,275.533,83.331,257.416,89.603,235.445z"/>
	<path style="fill:#24D883;" d="M163.283,241.136c-9.288-26.299,11.263-38.696,33.707-10.308
		c30.698,38.828,41.543,37.354,43.547,14.581l4.917-55.877c2.813-31.964,33.696-30.081,29.548,12.46l-7.011,71.903
		c-2.375,24.345,12.749,17.367,15.7,14.036l34.825-39.315c25.43-28.708,46.108,2.768,16.411,35.634
		c-10.073,11.147-17.497,24.251-22.729,38.61c10.679,17.474,22.669,27.442,47.276,27.442c4.568,0,9.272-0.811,13.933-2.332
		c10.624-3.46,21.037-10.6,29.173-20.207c7.527-8.888,13.106-19.888,15.102-32.042c20.241-14.036,33.742-39.255,33.742-68.038
		c0-31.79-16.47-59.234-40.301-72.061c3.942-9.038,6.16-19.207,6.16-29.962c0-15.134-4.385-29.112-11.798-40.403
		c-10.962-16.695-28.544-27.516-48.364-27.516c-16.386,0-31.238,7.399-42.089,19.395c-16.294-22.715-41.198-37.237-69.106-37.237
		c-14.373,0-27.948,3.851-39.961,10.69c-19.608,11.163-35.053,30.285-43.008,53.606c-7.134-2.734-14.778-4.217-22.731-4.217
		c-39.035,0-70.68,35.724-70.68,79.791c0,21.659,7.647,41.298,20.056,55.675c-6.271,21.971-7.084,40.088-3.964,54.655
		c5.42,25.275,22.686,39.864,43.839,45.358c24.367,6.329,53.893,0.591,76.413-14.781c-2.369-10.781-5.409-21.361-9.08-31.487
		C192.729,277.926,166.219,249.449,163.283,241.136z"/>
	<path style="fill:#00AC65;" d="M423.509,332.127c21.007,0,45.336-20.08,49.689-46.592c17.278-11.981,28.804-33.51,28.804-58.081
		c0-27.137-14.059-50.566-34.402-61.515c3.365-7.715,5.259-16.396,5.259-25.578c0-32.021-22.994-57.979-51.358-57.979
		c-5.593,0-10.975,1.011-16.015,2.877c7.415,11.29,11.8,25.268,11.8,40.401c0,10.756-2.218,20.925-6.16,29.962
		c23.831,12.827,40.301,40.271,40.301,72.061c0,28.782-13.501,54.002-33.742,68.038c-1.995,12.154-7.574,23.153-15.102,32.04
		C408.327,330.573,415.141,332.127,423.509,332.127z"/>
	<path style="fill:#E0AC91;" d="M255.274,476.014h58.965c-3.346-12.411-6.206-25.479-8.328-38.825
		c-6.201-38.908-6.158-80.169,6.288-114.33c5.232-14.359,12.655-27.463,22.729-38.61c29.697-32.866,9.018-64.341-16.411-35.634
		l-34.825,39.315c-2.951,3.331-18.075,10.31-15.7-14.036l7.011-71.903c4.148-42.54-26.735-44.424-29.548-12.46l-4.917,55.877
		c-2.004,22.773-12.849,24.248-43.547-14.581c-22.444-28.389-42.995-15.992-33.707,10.308c2.936,8.313,29.445,36.791,33.527,48.055
		c3.671,10.126,6.711,20.706,9.08,31.487c3.809,17.327,5.883,35.177,6.049,52.51l0.327,34.003l0.661,68.823h42.346V476.014z"/>
	<g>
		<path style="fill:#C2744D;" d="M305.911,437.189h77.176c-7.503-27.832-12.072-59.635-9.679-89.219
			c-4.661,1.521-9.364,2.332-13.933,2.332c-24.607,0-36.598-9.968-47.276-27.442C299.753,357.02,299.71,398.281,305.911,437.189z"/>
		<path style="fill:#C2744D;" d="M124.499,407.191h87.768l-0.327-34.003c-0.166-17.333-2.24-35.183-6.049-52.51
			c-22.52,15.371-52.046,21.11-76.413,14.781L124.499,407.191z"/>
	</g>
</g>
<path d="M479.758,161.774c2.06-6.865,3.1-14.036,3.1-21.413c0-37.484-27.525-67.979-61.358-67.979c-4.1,0-8.158,0.45-12.137,1.334
	c-12.855-15.929-31.509-25.975-52.24-25.975c-14.944,0-29.18,5.151-41.05,14.693c-18.487-20.807-43.519-32.536-70.145-32.536
	c-13.387,0-26.405,2.971-38.48,8.669C192.44,26.85,172.664,23.148,150.924,28.17c-28.539,6.593-54.775,27.21-66.927,51.74
	c-4.478-0.978-9.045-1.471-13.659-1.471C31.553,78.439,0,113.481,0,156.554c0,18.353,5.7,35.838,16.149,49.828
	c-9.536,37.961-0.009,60.1,9.946,72.113c11.744,14.172,30.364,21.958,51.943,21.957c0.023,0,0.047-0.002,0.07-0.002
	c5.681,17.033,15.974,27.389,24.119,33.264c5.092,3.672,10.727,6.618,16.73,8.875l-4.436,63.91
	c-0.192,2.766,0.772,5.487,2.664,7.514s4.539,3.178,7.312,3.178h77.863l0.566,58.919c0.053,5.485,4.514,9.904,9.999,9.904h101.311
	c3.111,0,6.046-1.449,7.939-3.918c1.892-2.47,2.526-5.68,1.717-8.685c-1.635-6.064-3.874-15.154-5.969-26.222h65.161
	c3.111,0,6.046-1.448,7.938-3.919c1.892-2.47,2.526-5.68,1.717-8.684c-5.353-19.859-11.185-49.252-9.765-79.54
	c8.113-3.615,15.725-8.942,22.317-15.506c5.531,1.722,11.542,2.587,18.214,2.587c26.113,0,52.121-22.883,58.729-50.838
	c18.71-14.643,29.764-38.188,29.764-63.835C512.001,200.881,499.58,176.021,479.758,161.774z M41.495,265.734
	c-10.497-12.668-12.142-33.038-4.759-58.908c0.925-3.24,0.155-6.727-2.046-9.278C25.217,186.57,20,172.012,20,156.554
	c0-32.045,22.58-58.115,50.336-58.115c5.414,0,10.739,0.988,15.827,2.938c2.537,0.971,5.358,0.871,7.82-0.282
	c2.46-1.152,4.346-3.256,5.223-5.828c7.428-21.778,31.071-41.801,56.218-47.61c7.865-1.818,21.102-3.317,33.214,2.626
	c-13.602,10.801-24.416,25.061-31.639,41.637c-5.487-1.29-11.098-1.941-16.772-1.941c-44.487,0-80.68,40.28-80.68,89.791
	c0,21.414,6.735,41.796,19.068,57.994c-4.253,16.619-5.369,30.683-4.451,42.569C60.303,279.538,48.714,274.445,41.495,265.734z
	 M135.217,397.191l3.46-49.848c19.499,2.365,40.846-1.318,60.025-10.89c2.008,12.314,3.122,24.75,3.238,36.831l0.229,23.907H135.217
	z M265.274,466.014v-55.953c0-5.523-4.478-10-10-10s-10,4.477-10,10v55.953h-22.442l-0.566-58.82c0-0.001,0-0.002,0-0.004
	c0-0.002,0-0.003,0-0.005l-0.328-34.094c-0.174-18.104-2.296-36.459-6.213-54.318c-0.014-0.074-0.03-0.147-0.047-0.221
	c-2.462-11.181-5.624-22.167-9.467-32.769c-2.541-7.013-9.693-16.4-20.313-29.92c-4.822-6.139-12.11-15.416-13.187-18.058
	c-2.619-7.417-1.686-11.676-0.825-12.891c0.144-0.204,0.21-0.297,0.817-0.297c2.462,0,8.695,2.614,16.441,12.412
	c19.349,24.473,31.649,34.455,42.459,34.454h0.004c7.607-0.002,17.058-4.375,18.89-25.198l4.917-55.877
	c0.781-8.875,4.1-12.514,5.17-12.833c1.163,0.518,6.135,6.314,4.464,23.447l-7.011,71.902c-1.036,10.63,0.648,18.211,5.151,23.175
	c3.143,3.464,7.511,5.371,12.301,5.371c6.572,0,12.738-3.581,15.686-6.909L326,255.246c5.154-5.819,9.418-7.883,11.503-7.883
	c0.425,0,0.793,0,1.32,1.188c1.972,4.438,0.585,15.823-11.316,28.994c-20.953,23.186-32.797,55.351-35.203,95.6
	c-2.057,34.388,3.218,67.808,9.102,92.869H265.274z M370.296,427.189h-55.582c-3.264-24.789-4.477-54.748,1.634-82.616
	c9.43,9.179,22.495,15.728,43.128,15.728c1.114,0,2.228-0.048,3.341-0.12C362.357,384.874,366.032,408.505,370.296,427.189z
	 M359.476,340.301c-18.897,0-27.934-6.493-36.121-18.569c4.57-11.214,10.76-21.667,18.993-30.778
	c15.148-16.766,20.94-36.596,14.756-50.521c-3.635-8.183-10.962-13.069-19.599-13.069c-6.169,0-15.769,2.537-26.474,14.622
	l-33.278,37.568c-0.038-1.185-0.001-2.722,0.191-4.688l7.011-71.902c1.618-16.599-1.478-30.136-8.719-38.117
	c-4.261-4.696-9.803-7.283-15.606-7.283c-11.15,0-23.247,9.614-25.137,31.092l-4.917,55.877c-0.244,2.77-0.595,4.665-0.919,5.931
	c-3.357-2.049-10.789-8.086-24.822-25.836c-10.201-12.902-21.611-20.008-32.131-20.008c-6.964,0-13.213,3.188-17.146,8.747
	c-5.457,7.715-6.063,18.761-1.704,31.101c1.823,5.164,7.117,12.041,16.316,23.752c6.583,8.381,15.6,19.858,17.238,24.379
	c2.73,7.535,5.099,15.39,7.095,23.415c-26.61,15.279-60.204,16.174-80.575,1.48c-19.972-14.405-25.195-42.568-14.71-79.304
	c0.925-3.24,0.155-6.728-2.046-9.278c-11.366-13.17-17.626-30.622-17.626-49.141c0-38.483,27.221-69.791,60.68-69.791
	c6.556,0,12.999,1.196,19.152,3.554c2.536,0.972,5.359,0.872,7.82-0.282c2.461-1.152,4.347-3.256,5.224-5.827
	C184.158,73.017,213.697,49.9,245.926,49.9c20.91,0,40.683,9.402,55.401,26.068c-7.518-0.117-15.137,0.786-22.663,2.803
	c-6.936,1.858-13.604,4.62-19.818,8.209c-4.783,2.762-6.422,8.878-3.66,13.661c2.762,4.781,8.877,6.421,13.66,3.66
	c4.702-2.715,9.747-4.805,14.994-6.211c24.37-6.532,50.043,2.181,65.407,22.191c1.97,2.565,4.938,3.911,7.938,3.911
	c2.125,0,4.268-0.674,6.083-2.069c4.381-3.363,5.205-9.641,1.842-14.021c-10.214-13.303-23.876-22.822-39.032-27.906
	c8.831-8.065,19.686-12.452,31.043-12.452c27.659,0,50.162,25.982,50.162,57.919c0,9.127-1.792,17.862-5.326,25.964
	c-2.08,4.77-0.155,10.338,4.427,12.804c21.286,11.457,35.04,36.286,35.04,63.256c0,24.674-11.006,47.037-29.44,59.819
	c-2.226,1.544-3.73,3.924-4.17,6.598C403.474,320.543,378.713,340.301,359.476,340.301z M467.499,277.317
	c-2.227,1.544-3.73,3.924-4.17,6.597c-3.59,21.871-23.984,38.212-39.82,38.212c-1.655,0-3.237-0.072-4.754-0.214
	c3.609-6.376,6.356-13.26,7.985-20.432c21.792-16.801,34.685-44.065,34.685-73.797c0-31.027-14.696-60.012-38.061-76.258
	c2.604-8.238,3.921-16.87,3.921-25.766c0-11.892-2.42-23.164-6.729-33.257c0.314-0.008,0.629-0.021,0.943-0.021
	c22.805,0,41.358,21.523,41.358,47.979c0,7.588-1.488,14.848-4.425,21.58c-2.08,4.77-0.155,10.337,4.427,12.804
	c17.703,9.528,29.142,30.217,29.142,52.709C492.001,248.038,482.842,266.678,467.499,277.317z"/>
<path d="M255.274,370.014c-5.522,0-10,4.477-10,10v0.324c0,5.523,4.478,10,10,10c5.523,0,10-4.477,10-10v-0.324
	C265.274,374.491,260.797,370.014,255.274,370.014z"/>
<path d="M379.239,136.623c-1.452-5.313-6.912-8.4-12.233-6.963c-5.318,1.434-8.462,6.953-7.048,12.277
	c0.005,0.017,0.035,0.129,0.04,0.147c1.206,4.444,5.217,7.339,9.607,7.339c0.866,0,1.747-0.113,2.624-0.348
	c5.323-1.43,8.474-6.945,7.059-12.273L379.239,136.623z"/>
<g>
</g>
<g>
</g>
<g>
</g>
<g>
</g>
<g>
</g>
<g>
</g>
<g>
</g>
<g>
</g>
<g>
</g>
<g>
</g>
<g>
</g>
<g>
</g>
<g>
</g>
<g>
</g>
<g>
</g>
</svg>
