<?xml version="1.0" encoding="iso-8859-1"?>
<!-- Generator: Adobe Illustrator 19.0.0, SVG Export Plug-In . SVG Version: 6.00 Build 0)  -->
<svg version="1.1" id="Capa_1" xmlns="http://www.w3.org/2000/svg" xmlns:xlink="http://www.w3.org/1999/xlink" x="0px" y="0px"
	 viewBox="0 0 512 512" style="enable-background:new 0 0 512 512;" xml:space="preserve">
<polygon style="fill:#9DB55F;" points="436.183,224.367 411.183,224.367 396.183,185 411.183,149.367 436.183,149.367 "/>
<rect x="386.18" y="149.37" style="fill:#B9D171;" width="25" height="75"/>
<path style="fill:#85453D;" d="M411.183,69.367l-15,25l15,25c13.807,0,25-11.193,25-25S424.99,69.367,411.183,69.367z"/>
<path style="fill:#A45E43;" d="M386.183,94.367c0,13.807,11.193,25,25,25v-50C397.376,69.367,386.183,80.56,386.183,94.367z"/>
<polygon style="fill:#FFA754;" points="281,162.5 256,162.5 241,123.133 256,87.5 281,87.5 "/>
<rect x="231" y="87.5" style="fill:#FFCB63;" width="25" height="75"/>
<path style="fill:#C27749;" d="M256,7.5l-15,25l15,25c13.807,0,25-11.193,25-25S269.807,7.5,256,7.5z"/>
<path style="fill:#E18F4E;" d="M231,32.5c0,13.807,11.193,25,25,25v-50C242.193,7.5,231,18.693,231,32.5z"/>
<polygon style="fill:#2DADE3;" points="125.817,224.367 100.817,224.367 85.817,185 100.817,149.367 125.817,149.367 "/>
<rect x="75.82" y="149.37" style="fill:#49C9FF;" width="25" height="75"/>
<path style="fill:#FF8D7E;" d="M100.817,69.367l-15,25l15,25c13.807,0,25-11.193,25-25S114.624,69.367,100.817,69.367z"/>
<path style="fill:#FFB4A9;" d="M75.817,94.367c0,13.807,11.193,25,25,25v-50C87.01,69.367,75.817,80.56,75.817,94.367z"/>
<g>
	<polygon style="fill:#1990C2;" points="100.82,323.291 201.8,421.601 7.5,504.501 7.5,414.571 	"/>
	<polygon style="fill:#1990C2;" points="504.5,414.571 411.18,323.291 310.203,421.598 504.5,504.501 	"/>
</g>
<polygon style="fill:#869E47;" points="365.11,368.151 308.766,368.151 444.5,504.5 504.499,504.5 "/>
<polygon style="fill:#9DB55F;" points="146.89,368.151 7.501,504.5 444.5,504.5 338.766,368.151 "/>
<polygon style="fill:#DBF4FF;" points="365.11,368.151 256,261.421 350.098,382.764 "/>
<polygon style="fill:#FFFFFF;" points="256,261.421 146.89,368.151 201.8,421.601 256,370.271 310.2,421.601 350.098,382.764 "/>
<path d="M223.5,94.534v149.375c0,4.142,3.358,7.5,7.5,7.5s7.5-3.358,7.5-7.5V170h35v73.909c0,4.142,3.357,7.5,7.5,7.5
	s7.5-3.358,7.5-7.5V94.534c30.937-3.719,55-30.111,55-62.034c0-4.142-3.357-7.5-7.5-7.5s-7.5,3.358-7.5,7.5
	c0,26.191-21.309,47.5-47.5,47.5h-50c-26.191,0-47.5-21.309-47.5-47.5c0-4.142-3.358-7.5-7.5-7.5s-7.5,3.358-7.5,7.5
	C168.5,64.423,192.563,90.815,223.5,94.534z M238.5,155V95h35v60H238.5z"/>
<path d="M256,65c17.92,0,32.5-14.58,32.5-32.5S273.92,0,256,0s-32.5,14.58-32.5,32.5S238.08,65,256,65z M256,15
	c9.65,0,17.5,7.851,17.5,17.5S265.65,50,256,50c-9.649,0-17.5-7.851-17.5-17.5S246.351,15,256,15z"/>
<path d="M509.745,409.208l-93.316-91.281c-2.909-2.847-7.559-2.852-10.476-0.013l-24.576,23.926
	c-2.968,2.89-3.032,7.638-0.143,10.605c2.889,2.968,7.637,3.032,10.605,0.143l19.332-18.82L497,417.724v68.948L261.245,256.06
	c-2.917-2.852-7.575-2.851-10.489,0L15,486.673l0.001-68.949l85.829-83.957l19.334,18.822c2.967,2.889,7.715,2.827,10.605-0.142
	c2.889-2.968,2.826-7.716-0.142-10.606l-24.579-23.928c-2.917-2.839-7.565-2.834-10.476,0.013L2.256,409.208
	c-1.442,1.411-2.255,3.343-2.255,5.361L0,504.5c0,1.989,0.79,3.896,2.197,5.303C3.603,511.21,5.511,512,7.5,512h497
	c4.143,0,7.5-3.358,7.5-7.5v-89.931C512,412.552,511.187,410.618,509.745,409.208z M146.908,378.626l49.663,48.348
	c2.882,2.806,7.466,2.838,10.389,0.071L256,380.598l49.042,46.446c1.447,1.371,3.303,2.055,5.157,2.055
	c1.889,0,3.777-0.71,5.231-2.126l49.662-48.347L486.108,497H25.894L146.908,378.626z M256,271.913l98.367,96.221l-44.239,43.068
	l-48.971-46.378c-2.893-2.739-7.422-2.739-10.314,0l-48.97,46.378l-44.239-43.068L256,271.913z"/>
<path d="M68.317,156.402v149.375c0,4.142,3.358,7.5,7.5,7.5s7.5-3.358,7.5-7.5v-73.909h35v73.909c0,4.142,3.358,7.5,7.5,7.5
	s7.5-3.358,7.5-7.5V157.465c22.64,3.607,40,23.263,40,46.902c0,4.142,3.358,7.5,7.5,7.5s7.5-3.358,7.5-7.5
	c0-34.462-28.038-62.5-62.5-62.5h-50c-26.191,0-47.5-21.309-47.5-47.5c0-4.142-3.358-7.5-7.5-7.5s-7.5,3.358-7.5,7.5
	C13.317,126.29,37.38,152.682,68.317,156.402z M83.317,216.867v-60h35v60H83.317z"/>
<path d="M100.817,126.867c17.92,0,32.5-14.58,32.5-32.5s-14.58-32.5-32.5-32.5s-32.5,14.58-32.5,32.5
	S82.896,126.867,100.817,126.867z M100.817,76.867c9.649,0,17.5,7.851,17.5,17.5s-7.851,17.5-17.5,17.5s-17.5-7.851-17.5-17.5
	S91.167,76.867,100.817,76.867z"/>
<path d="M386.183,141.867c-34.463,0-62.5,28.038-62.5,62.5c0,4.142,3.357,7.5,7.5,7.5s7.5-3.358,7.5-7.5
	c0-23.639,17.36-43.295,40-46.902v148.312c0,4.142,3.357,7.5,7.5,7.5s7.5-3.358,7.5-7.5v-73.909h35v73.909
	c0,4.142,3.357,7.5,7.5,7.5s7.5-3.358,7.5-7.5V156.402c30.937-3.719,55-30.111,55-62.034c0-4.142-3.357-7.5-7.5-7.5
	s-7.5,3.358-7.5,7.5c0,26.191-21.309,47.5-47.5,47.5L386.183,141.867L386.183,141.867z M393.683,216.867v-60h35v60H393.683z"/>
<path d="M411.183,126.867c17.921,0,32.5-14.58,32.5-32.5s-14.579-32.5-32.5-32.5s-32.5,14.58-32.5,32.5
	S393.262,126.867,411.183,126.867z M411.183,76.867c9.649,0,17.5,7.851,17.5,17.5s-7.851,17.5-17.5,17.5s-17.5-7.851-17.5-17.5
	S401.534,76.867,411.183,76.867z"/>
<g>
</g>
<g>
</g>
<g>
</g>
<g>
</g>
<g>
</g>
<g>
</g>
<g>
</g>
<g>
</g>
<g>
</g>
<g>
</g>
<g>
</g>
<g>
</g>
<g>
</g>
<g>
</g>
<g>
</g>
</svg>
