<?xml version="1.0" encoding="iso-8859-1"?>
<!-- Generator: Adobe Illustrator 19.0.0, SVG Export Plug-In . SVG Version: 6.00 Build 0)  -->
<svg version="1.1" id="Capa_1" xmlns="http://www.w3.org/2000/svg" xmlns:xlink="http://www.w3.org/1999/xlink" x="0px" y="0px"
	 viewBox="0 0 511.999 511.999" style="enable-background:new 0 0 511.999 511.999;" xml:space="preserve">
<g>
	<polygon style="fill:#0072A2;" points="468.921,352.304 468.921,413.135 428.366,413.135 428.366,352.304 438.505,332.026 
		448.643,332.026 458.782,332.026 	"/>
	<polygon style="fill:#0072A2;" points="408.089,98.849 408.089,159.681 397.95,179.958 387.812,179.958 377.673,179.958 
		367.534,159.681 367.534,98.849 	"/>
</g>
<polygon style="fill:#F3E8D6;" points="73.494,301.622 73.494,311.76 43.079,311.76 43.079,200.245 73.494,200.245 73.494,220.513 
	"/>
<path style="fill:#A0D860;" d="M326.96,311.76v20.277c0,16.729-6.114,42.653-13.596,57.617l-43.768,87.537
	c-7.482,14.954-27.293,27.202-44.022,27.202h-81.099c-16.729,0-36.54-12.247-44.022-27.202l-43.768-87.517
	c-7.482-14.965-13.606-40.899-13.606-57.628v-20.287h30.416v20.287c0,11.943,5.058,33.336,10.392,44.022l8.405,16.81l35.363,70.707
	c2.332,4.664,11.609,10.392,16.82,10.392h81.099c5.211,0,14.488-5.728,16.82-10.392l35.353-70.717l8.405-16.82
	c5.343-10.676,10.392-32.068,10.392-44.012v-20.277h30.416V311.76z"/>
<polygon style="fill:#E5D8C6;" points="326.96,200.245 326.96,311.76 296.544,311.76 296.544,301.622 296.544,220.513 
	296.544,200.245 "/>
<rect x="73.494" y="210.376" style="fill:#FFB123;" width="223.049" height="91.244"/>
<g>
	<path style="fill:#78A833;" d="M73.494,311.76v20.287c0,11.943,5.058,33.336,10.392,44.022l8.405,16.81l35.363,70.707
		c2.332,4.664,11.609,10.392,16.82,10.392h81.099c5.211,0,14.488-5.728,16.82-10.392l35.353-70.717l8.405-16.82
		c5.343-10.676,10.392-32.068,10.392-44.012V311.76v-10.139H73.494C73.494,301.622,73.494,311.76,73.494,311.76z"/>
	<path style="fill:#78A833;" d="M286.152,135.936l-8.405-16.81l-35.353-70.717c-2.332-4.664-11.609-10.392-16.82-10.392h-81.099
		c-5.211,0-14.478,5.728-16.81,10.392l-35.363,70.717l-8.415,16.82c-5.344,10.676-10.392,32.068-10.392,44.012v20.287v10.127h223.05
		v-10.127v-20.287C296.544,168.014,291.495,146.622,286.152,135.936z"/>
</g>
<path style="fill:#A0D860;" d="M326.96,179.958v20.287h-30.416v-20.287c0-11.943-5.049-33.336-10.392-44.023l-8.405-16.81
	l-35.353-70.717c-2.332-4.664-11.609-10.392-16.82-10.392h-81.099c-5.211,0-14.478,5.728-16.81,10.392l-35.363,70.717l-8.415,16.82
	c-5.344,10.676-10.392,32.068-10.392,44.012v20.287H43.078v-20.287c0-16.729,6.124-42.653,13.606-57.618l43.768-87.537
	c7.482-14.965,27.293-27.201,44.022-27.201h81.099c16.729,0,36.54,12.237,44.022,27.201l43.768,87.527
	C320.846,137.294,326.96,163.23,326.96,179.958z"/>
<g>
	<path style="fill:#89BF43;" d="M313.364,122.329l-43.768-87.527c-7.482-14.965-27.293-27.201-44.022-27.201h-34.303
		c16.729,0,36.54,12.237,44.022,27.201l5.897,11.791c0.497,0.612,0.908,1.223,1.204,1.815l35.353,70.717l8.405,16.81
		c5.343,10.686,10.392,32.079,10.392,44.023v20.287h30.416v-20.287C326.96,163.23,320.846,137.294,313.364,122.329z"/>
	<path style="fill:#89BF43;" d="M313.364,389.671l-43.768,87.527c-7.482,14.965-27.293,27.201-44.022,27.201h-34.303
		c16.729,0,36.54-12.237,44.022-27.201l5.897-11.791c0.497-0.613,0.908-1.223,1.204-1.815l35.353-70.717l8.405-16.809
		c5.343-10.686,10.392-32.079,10.392-44.023v-20.287h30.416v20.287C326.96,348.77,320.846,374.705,313.364,389.671z"/>
</g>
<path d="M334.568,200.245c0-0.029-0.004-0.059-0.004-0.088V179.96c-0.01-8.79-1.46-19.578-4.197-31.217
	c-2.758-11.629-6.286-21.94-10.199-29.808l-43.768-87.527c-4.329-8.587-11.71-16.293-21.342-22.285
	C245.395,3.184,235.205,0.03,225.574,0h-81.099c-9.622,0.03-19.811,3.184-29.473,9.125c-9.632,5.992-17.013,13.697-21.342,22.285
	l-43.779,87.537c-0.101,0.213-0.213,0.436-0.324,0.659c-1.835,3.761-0.274,8.324,3.498,10.169c1.054,0.507,2.17,0.771,3.336,0.771
	c2.93,0,5.546-1.632,6.833-4.268c0.061-0.112,0.112-0.223,0.172-0.335l43.86-87.729c2.879-5.83,8.76-11.862,15.735-16.151
	c6.903-4.289,14.883-6.854,21.362-6.854h29.868c0.061,0,0.122,0.02,0.182,0h51.301c6.468,0,14.448,2.565,21.352,6.854
	c6.975,4.289,12.866,10.321,15.735,16.151l43.768,87.527c3.325,6.621,6.6,16.272,9.003,26.492
	c2.423,10.22,3.812,20.328,3.792,27.729v12.68h-15.204v-12.681c0-13.1-5.335-35.701-11.194-47.418l-43.765-87.532
	c-3.614-7.228-15.532-14.594-23.615-14.594h-81.102c-8.083,0-20,7.366-23.616,14.595l-43.771,87.538
	c-5.859,11.717-11.195,34.318-11.195,47.418v12.675H50.682V179.96c-0.01-7.077,1.277-16.739,3.518-26.512
	c0.933-4.086-1.632-8.172-5.718-9.104c-0.558-0.132-1.136-0.193-1.703-0.193c-3.569,0-6.61,2.423-7.411,5.911
	c-2.535,11.142-3.883,21.484-3.883,29.899v20.167c-0.001,0.04-0.006,0.078-0.006,0.118c0,0.04,0.005,0.078,0.006,0.118v111.279
	c-0.001,0.04-0.006,0.078-0.006,0.118s0.005,0.078,0.006,0.118v20.182c0.01,8.78,1.46,19.578,4.197,31.217
	c2.758,11.629,6.286,21.94,10.199,29.797L93.65,480.59c4.339,8.598,11.72,16.303,21.352,22.285
	c9.662,5.931,19.851,9.094,29.473,9.125h81.099c9.632-0.03,19.821-3.194,29.483-9.125c9.632-5.992,17.013-13.697,21.342-22.285
	l43.768-87.527c3.913-7.868,7.442-18.179,10.199-29.808c2.737-11.639,4.187-22.437,4.197-31.217v-20.191
	c0.001-0.029,0.004-0.059,0.004-0.088s-0.004-0.059-0.004-0.088V200.334C334.564,200.304,334.568,200.275,334.568,200.245z
	 M134.46,51.817c1.138-2.14,7.6-6.134,10.016-6.194h81.096c2.422,0.06,8.884,4.053,10.018,6.189l29.856,59.711H104.605
	L134.46,51.817z M81.102,179.965c0-10.821,4.75-30.939,9.589-40.616l6.309-12.619h176.05l6.306,12.611
	c4.838,9.678,9.588,29.797,9.588,40.617v22.811H81.103v-22.805H81.102z M81.102,217.979h207.842v76.041H81.102L81.102,217.979
	L81.102,217.979z M81.102,309.228h207.842v22.812c0,10.821-4.75,30.94-9.589,40.618l-6.303,12.607H96.991l-6.298-12.594
	c-4.839-9.677-9.59-29.794-9.59-40.614V309.228z M265.448,400.473l-29.855,59.711c-1.137,2.138-7.594,6.13-10.018,6.193h-81.093
	c-2.423-0.06-8.888-4.054-10.022-6.189l-29.864-59.714L265.448,400.473L265.448,400.473z M50.682,207.849h15.212v96.307H50.682
	V207.849z M319.356,332.04c0.02,7.401-1.369,17.509-3.792,27.729c-2.403,10.22-5.678,19.872-9.003,26.492l-43.768,87.527
	c-2.869,5.83-8.76,11.862-15.735,16.151c-6.904,4.289-14.883,6.854-21.352,6.854h-81.352c-6.479,0-14.458-2.565-21.362-6.854
	c-6.975-4.279-12.856-10.321-15.735-16.151l-43.768-87.517c-3.325-6.621-6.61-16.272-9.013-26.492
	c-2.423-10.22-3.802-20.328-3.792-27.719v-12.696h15.212v12.693c0,13.099,5.336,35.7,11.196,47.416l43.767,87.518
	c3.615,7.229,15.535,14.595,23.618,14.595h81.102c8.083,0,20-7.366,23.615-14.595l43.765-87.532
	c5.859-11.717,11.195-34.318,11.195-47.419v-12.676h15.204v12.676H319.356z M319.356,304.156h-15.204V207.85h15.204V304.156z"/>
<path d="M475.717,348.912l-10.139-20.279c-1.289-2.576-3.922-4.203-6.801-4.203h-2.535V98.856c0-4.199-3.405-7.604-7.604-7.604
	s-7.604,3.405-7.604,7.604V324.43h-2.535c-2.88,0-5.513,1.627-6.801,4.203l-10.139,20.279c-0.528,1.055-0.803,2.219-0.803,3.399
	v60.831c0,4.199,3.405,7.604,7.604,7.604h40.554c4.199,0,7.604-3.405,7.604-7.604v-60.831
	C476.521,351.133,476.246,349.969,475.717,348.912z M461.313,405.539h-25.347v-51.431l7.234-14.47h10.878l7.235,14.47V405.539z"/>
<path d="M408.086,91.252h-40.554c-4.199,0-7.604,3.405-7.604,7.604v60.831c0,1.18,0.275,2.345,0.803,3.4l10.139,20.279
	c1.289,2.576,3.922,4.203,6.801,4.203h2.535v225.574c0,4.199,3.405,7.604,7.604,7.604c4.199,0,7.604-3.405,7.604-7.604V187.569
	h2.535c2.88,0,5.513-1.627,6.801-4.203l10.139-20.279c0.528-1.055,0.803-2.219,0.803-3.4V98.856
	C415.69,94.656,412.285,91.252,408.086,91.252z M400.482,157.891l-7.234,14.47H382.37l-7.235-14.47v-51.432h25.347V157.891z"/>
<g>
</g>
<g>
</g>
<g>
</g>
<g>
</g>
<g>
</g>
<g>
</g>
<g>
</g>
<g>
</g>
<g>
</g>
<g>
</g>
<g>
</g>
<g>
</g>
<g>
</g>
<g>
</g>
<g>
</g>
</svg>
