<?xml version="1.0" encoding="iso-8859-1"?>
<!-- Generator: Adobe Illustrator 19.0.0, SVG Export Plug-In . SVG Version: 6.00 Build 0)  -->
<svg version="1.1" id="Capa_1" xmlns="http://www.w3.org/2000/svg" xmlns:xlink="http://www.w3.org/1999/xlink" x="0px" y="0px"
	 viewBox="0 0 512.001 512.001" style="enable-background:new 0 0 512.001 512.001;" xml:space="preserve">
<rect x="240.248" y="319.615" style="fill:#9F6751;" width="40.077" height="184.355"/>
<polygon style="fill:#C27D63;" points="472.7,207.403 472.7,319.619 280.328,319.619 240.251,319.619 112.004,319.619 
	55.896,263.512 112.004,207.403 240.251,207.403 280.328,207.403 "/>
<g>
	<rect x="240.248" y="159.306" style="fill:#9F6751;" width="40.077" height="48.093"/>
	<rect x="240.248" y="7.016" style="fill:#9F6751;" width="40.077" height="40.078"/>
</g>
<polygon style="fill:#C27D63;" points="464.684,103.202 408.576,159.31 280.328,159.31 240.251,159.31 47.88,159.31 47.88,47.094 
	240.251,47.094 280.328,47.094 408.576,47.094 "/>
<g>
	<rect x="47.88" y="47.094" style="fill:#9F6751;" width="56.109" height="112.217"/>
	<polygon style="fill:#9F6751;" points="192.159,207.403 112.004,207.403 55.896,263.512 112.004,319.619 192.159,319.619 
		136.05,263.512 	"/>
</g>
<path style="fill:#231F20;" d="M487.928,488.449c0-15.499,13.81-16.486,16.578-16.526l-0.053-7.521v-7.521
	c-5.055,0-11.091,1.341-16.525,4.41v-20.935h-15.041v20.936c-5.435-3.07-11.47-4.41-16.526-4.41l-0.053,15.041
	c2.769,0.041,16.579,1.028,16.579,16.526v8.51h-57.098v-8.51c0-15.499,13.81-16.486,16.578-16.526l-0.053-7.521v-7.521
	c-5.055,0-11.091,1.341-16.525,4.41v-20.936h-15.041v20.936c-5.435-3.07-11.47-4.41-16.525-4.41v15.041
	c1.692,0,16.525,0.463,16.525,16.526v8.51h-57.097v-8.51c0-15.499,13.81-16.486,16.578-16.526l-0.053-7.521v-7.521
	c-5.055,0-11.091,1.341-16.525,4.41v-20.936h-15.041v20.936c-5.435-3.07-11.47-4.41-16.526-4.41l-0.053,15.041
	c2.769,0.041,16.579,1.028,16.579,16.526v8.51h-41.067V367.722h16.526v-15.041h-16.526v-25.037h96.681v-15.041H114.811
	l-48.588-48.588l48.588-48.588h350.061v97.175h-56.603v15.041h71.644V200.387H287.541v-33.051h123.842l63.629-63.629l-63.629-63.629
	H287.541V0h-55.118v40.078h-72.635v15.041h245.365l48.588,48.588l-48.588,48.588H55.092V55.119h80.65V40.078H40.051v127.257h192.372
	v33.051H108.581l-63.629,63.629l63.629,63.629h123.842v25.037h-16.525v15.041h16.525v24.541h15.041v-24.541H272.5V496.96h-25.036
	v-80.65h-15.041v80.65h-49.082v-8.51c0-15.499,13.81-16.486,16.578-16.526l-0.053-7.521v-7.521c-5.055,0-11.091,1.341-16.525,4.41
	v-20.936h-15.041v20.936c-5.435-3.07-11.47-4.41-16.525-4.41v15.041c1.692,0,16.525,0.463,16.525,16.526v8.51h-57.098v-8.51
	c0-15.499,13.81-16.486,16.579-16.526l-0.053-7.521v-7.521c-5.056,0-11.091,1.341-16.526,4.41v-20.936H96.16v20.936
	c-5.435-3.07-11.47-4.41-16.525-4.41v15.041c1.692,0,16.525,0.463,16.525,16.526v8.51H39.061v-8.51
	c0-15.499,13.81-16.486,16.578-16.526l-0.053-7.521v-7.521c-5.055,0-11.091,1.341-16.525,4.41v-20.936H24.02v20.936
	c-5.435-3.07-11.47-4.41-16.525-4.41v15.041c1.692,0,16.525,0.463,16.525,16.526v8.51H7.495v15.041h496.959V496.96h-16.525
	L487.928,488.449L487.928,488.449z M247.464,15.041H272.5v25.037h-25.036V15.041z M247.464,167.335H272.5v33.051h-25.036V167.335z
	 M247.464,352.681v-25.037H272.5v25.037H247.464z"/>
<rect x="95.662" y="80.154" style="fill:#FFFFFF;" width="264.514" height="15.041"/>
<rect x="95.662" y="112.217" style="fill:#231F20;" width="16.031" height="15.041"/>
<rect x="127.73" y="112.217" style="fill:#FFFFFF;" width="16.031" height="15.041"/>
<rect x="344.143" y="112.217" style="fill:#231F20;" width="16.031" height="15.041"/>
<g>
	<rect x="159.788" y="240.468" style="fill:#FFFFFF;" width="264.514" height="15.041"/>
	<rect x="159.788" y="272.526" style="fill:#FFFFFF;" width="16.031" height="15.041"/>
</g>
<g>
	<rect x="191.846" y="272.526" style="fill:#231F20;" width="16.031" height="15.041"/>
	<rect x="408.268" y="272.526" style="fill:#231F20;" width="16.031" height="15.041"/>
</g>
<g>
</g>
<g>
</g>
<g>
</g>
<g>
</g>
<g>
</g>
<g>
</g>
<g>
</g>
<g>
</g>
<g>
</g>
<g>
</g>
<g>
</g>
<g>
</g>
<g>
</g>
<g>
</g>
<g>
</g>
</svg>
