<?xml version="1.0" encoding="iso-8859-1"?>
<!-- Generator: Adobe Illustrator 19.0.0, SVG Export Plug-In . SVG Version: 6.00 Build 0)  -->
<svg version="1.1" id="Layer_1" xmlns="http://www.w3.org/2000/svg" xmlns:xlink="http://www.w3.org/1999/xlink" x="0px" y="0px"
	 viewBox="0 0 512 512" style="enable-background:new 0 0 512 512;" xml:space="preserve">
<g>
	<path style="fill:#90BC42;" d="M492.549,277.315c3.692,0,7.429,0.276,11.187,0.849c-6.139,40.175-43.669,67.764-83.845,61.624
		C425.458,303.383,456.805,277.315,492.549,277.315z"/>
	<path style="fill:#90BC42;" d="M431.366,81.751c23.565,33.11,15.828,79.05-17.283,102.616c-9.214-12.94-13.634-27.842-13.634-42.6
		C400.449,118.763,411.206,96.101,431.366,81.751z"/>
	<path style="fill:#90BC42;" d="M111.549,141.766c0,14.759-4.42,29.66-13.634,42.6c-33.099-23.565-40.848-69.505-17.283-102.616
		C100.802,96.101,111.549,118.763,111.549,141.766z"/>
	<path style="fill:#90BC42;" d="M19.459,277.315c35.734,0,67.091,26.067,72.647,62.473C51.941,345.928,14.4,318.34,8.272,278.164
		C12.031,277.591,15.767,277.315,19.459,277.315z"/>
</g>
<g>
	<path style="fill:#9AD14B;" d="M434.077,375.754c16.39,0,32.89,5.456,46.568,16.654c-25.748,31.435-72.106,36.053-103.541,10.306
		c0.198-0.242,0.397-0.485,0.595-0.716c1.543-1.609,3.042-3.24,4.508-4.894C396.371,383.017,415.152,375.754,434.077,375.754z"/>
	<path style="fill:#9AD14B;" d="M423.606,305.003c0,6.845-0.959,13.789-2.976,20.688c-39.007-11.408-61.371-52.267-49.974-91.274
		C402.763,243.808,423.606,273.16,423.606,305.003z"/>
	<path style="fill:#9AD14B;" d="M488.614,168.792c8.873,39.657-16.07,78.995-55.728,87.879c-1.212-5.412-1.797-10.824-1.797-16.147
		C431.09,206.84,454.369,176.452,488.614,168.792z"/>
	<path style="fill:#9AD14B;" d="M420.465,205.495c-38.302,13.557-80.351-6.492-93.919-44.805c8.123-2.877,16.401-4.232,24.557-4.232
		C381.392,156.458,409.773,175.306,420.465,205.495z"/>
	<path style="fill:#9AD14B;" d="M160.906,156.458c8.145,0,16.434,1.356,24.546,4.232c-13.557,38.313-55.606,58.362-93.919,44.805
		C102.224,175.306,130.606,156.458,160.906,156.458z"/>
	<path style="fill:#9AD14B;" d="M23.394,168.792c34.235,7.66,57.513,38.048,57.513,71.732c0,5.324-0.584,10.736-1.797,16.147
		C39.464,247.787,14.511,208.449,23.394,168.792z"/>
	<path style="fill:#9AD14B;" d="M141.342,234.417c11.408,39.007-10.967,79.866-49.974,91.274
		c-2.017-6.889-2.976-13.844-2.976-20.677C88.392,273.171,109.234,243.808,141.342,234.417z"/>
	<path style="fill:#9AD14B;" d="M134.221,401.909c0.22,0.265,0.452,0.529,0.672,0.805c-31.435,25.748-77.794,21.129-103.541-10.306
		c13.678-11.198,30.178-16.654,46.579-16.654c18.947,0,37.751,7.286,51.914,21.405c1.4,1.576,2.833,3.13,4.299,4.673
		C134.177,401.865,134.199,401.887,134.221,401.909z"/>
</g>
<polygon style="fill:#F7B239;" points="322.545,268.443 289.269,300.881 297.128,346.677 256.004,325.052 214.87,346.677 
	222.729,300.881 189.453,268.443 235.437,261.763 256.004,220.1 276.561,261.763 "/>
<g>
	<path style="fill:#333333;" d="M323.735,260.265l-41.68-6.057l-18.641-37.77c-1.393-2.822-4.267-4.608-7.413-4.608
		c-3.147,0-6.02,1.787-7.413,4.608l-18.641,37.77l-41.681,6.057c-3.114,0.452-5.702,2.633-6.674,5.626
		c-0.972,2.992-0.161,6.278,2.091,8.474l30.161,29.4l-7.12,41.514c-0.531,3.1,0.744,6.235,3.289,8.085
		c2.545,1.848,5.919,2.093,8.705,0.629l37.281-19.601l37.281,19.601c1.21,0.636,2.531,0.949,3.846,0.949
		c1.715,0,3.42-0.532,4.86-1.579c2.546-1.849,3.821-4.983,3.288-8.085l-7.12-41.514l30.161-29.399
		c2.253-2.197,3.063-5.481,2.091-8.474C329.437,262.898,326.849,260.717,323.735,260.265z M283.503,294.959
		c-1.949,1.899-2.837,4.636-2.376,7.318l5.024,29.288l-26.302-13.828c-2.409-1.265-5.285-1.265-7.693,0l-26.302,13.828l5.023-29.289
		c0.461-2.682-0.429-5.417-2.376-7.316l-21.279-20.741l29.407-4.273c2.693-0.391,5.021-2.082,6.224-4.522l13.152-26.647
		l13.152,26.647c1.205,2.439,3.531,4.131,6.224,4.522l29.406,4.273L283.503,294.959z"/>
	<path style="fill:#333333;" d="M172.583,423.347c-10.407-6.871-20.199-14.871-29.104-23.775
		c-19.915-19.915-34.333-43.273-43.279-68.172c39.254-15.129,61.092-58.205,49.077-99.297c-1.281-4.381-5.87-6.894-10.254-5.615
		c-20.983,6.135-38.32,20.075-48.819,39.25c-0.334,0.61-0.636,1.23-0.953,1.846c0.078-17.587,2.63-35.164,7.666-52.158
		c6.723,1.725,13.503,2.559,20.205,2.559c33.706,0,65.351-20.995,77.226-54.533c1.523-4.304-0.73-9.028-5.034-10.551
		c-20.5-7.259-42.59-6.136-62.245,3.143c4.982-6.532,10.445-12.813,16.411-18.778c3.228-3.228,3.228-8.463,0-11.69
		c-3.229-3.228-8.463-3.228-11.691,0c-4.26,4.26-8.275,8.673-12.075,13.207c-0.905-24.555-12.766-48.449-34.287-63.764
		c-3.721-2.648-8.882-1.777-11.528,1.942c-12.675,17.812-17.656,39.493-14.024,61.05c3.362,19.95,13.737,37.571,29.379,50.136
		c-2.717,6.294-5.091,12.701-7.139,19.191c-1.621-3.626-3.514-7.161-5.679-10.577c-11.708-18.462-29.904-31.26-51.236-36.037
		c-2.137-0.479-4.382-0.088-6.233,1.086c-1.852,1.174-3.16,3.035-3.639,5.175c-9.518,42.504,16.059,84.824,57.447,96.585
		c-0.208,8.763,0.162,17.534,1.085,26.258c-1.917-1.704-3.917-3.334-6.01-4.873C50.233,272.01,28.636,266.698,7.02,269.996
		c-4.514,0.689-7.613,4.906-6.924,9.419c3.299,21.611,14.817,40.643,32.432,53.59c14.203,10.44,30.997,15.916,48.299,15.916
		c2.769,0,5.552-0.154,8.338-0.436c3.38,7.855,7.279,15.539,11.701,22.996c-25.575-8.2-54.672-3.717-76.953,14.529
		c-3.531,2.893-4.051,8.101-1.158,11.634c13.85,16.913,33.458,27.421,55.212,29.587c2.765,0.276,5.519,0.411,8.26,0.411
		c16.883,0,33.172-5.19,47.004-14.972c9.305,9.122,19.464,17.358,30.241,24.475c1.402,0.926,2.984,1.369,4.548,1.369
		c2.684,0,5.316-1.306,6.906-3.712C177.441,430.991,176.392,425.863,172.583,423.347z M175.24,166.087
		c-13.375,25.963-42.692,39.953-71.291,34.009c6.492-12.642,16.881-22.766,29.927-28.99
		C146.923,164.881,161.331,163.177,175.24,166.087z M76.176,135.265c-2.402-14.254-0.085-28.575,6.534-41.151
		c21.291,19.99,26.689,52.025,13.123,77.889C85.459,162.29,78.577,149.518,76.176,135.265z M72.406,246.079
		c-27.378-10.17-44.775-37.605-42.299-66.706c13.329,4.931,24.624,14.034,32.364,26.241S73.631,231.921,72.406,246.079z
		 M42.32,319.684c-11.646-8.561-19.953-20.455-23.956-34.09c0.351-0.006,0.701-0.009,1.052-0.009
		c28.775,0,54.426,19.115,62.592,46.79C67.797,332.611,53.966,328.245,42.32,319.684z M104.705,273.678
		c6.942-12.678,17.63-22.487,30.614-28.264c4.338,28.881-11.263,57.377-37.932,69.282
		C95.258,300.646,97.765,286.356,104.705,273.678z M79.606,410.78c-14.383-1.432-27.59-7.434-37.983-17.127
		c24.886-15.284,57.212-12.067,78.598,7.826C108.121,408.931,93.987,412.21,79.606,410.78z"/>
	<path style="fill:#333333;" d="M431.173,348.921c17.301,0,34.098-5.477,48.299-15.916c17.614-12.948,29.134-31.979,32.432-53.59
		c0.689-4.514-2.412-8.729-6.924-9.419c-25.062-3.827-49.249,4.205-66.843,19.889c0.926-8.743,1.299-17.533,1.09-26.314
		c19.369-5.49,35.834-17.737,46.701-34.875c11.707-18.462,15.523-40.378,10.747-61.71c-0.996-4.456-5.417-7.256-9.872-6.261
		c-21.332,4.776-39.529,17.575-51.235,36.037c-2.166,3.416-4.058,6.952-5.68,10.578c-2.047-6.49-4.422-12.897-7.139-19.192
		c33.464-26.915,40.574-75.749,15.356-111.186c-1.271-1.787-3.199-2.995-5.361-3.358c-2.164-0.368-4.38,0.144-6.167,1.416
		c-17.812,12.675-29.621,31.528-33.254,53.086c-0.597,3.547-0.939,7.096-1.075,10.632c-3.788-4.518-7.79-8.915-12.036-13.16
		c-3.228-3.228-8.462-3.229-11.691,0c-3.228,3.228-3.228,8.463,0,11.69c5.966,5.966,11.429,12.246,16.41,18.778
		c-19.653-9.278-41.744-10.403-62.243-3.144c-4.304,1.523-6.557,6.247-5.034,10.551c11.875,33.541,43.517,54.533,77.226,54.533
		c6.698,0,13.48-0.834,20.203-2.559c5.044,17.019,7.595,34.625,7.667,52.239c-9.911-19.278-27.374-34.628-49.771-41.177
		c-4.383-1.282-8.972,1.233-10.254,5.615c-6.136,20.983-3.734,43.099,6.765,62.274c9.39,17.15,24.261,30.094,42.308,37.03
		c-8.947,24.897-23.365,48.252-43.277,68.166c-8.901,8.903-18.695,16.901-29.104,23.775c-3.809,2.516-4.859,7.644-2.343,11.454
		c1.589,2.407,4.223,3.712,6.906,3.712c1.564,0,3.146-0.443,4.548-1.369c10.782-7.119,20.941-15.355,30.246-24.478
		c14.195,10.022,30.677,14.933,47.078,14.933c23.71,0,47.236-10.223,63.396-29.955c1.389-1.696,2.047-3.875,1.83-6.057
		s-1.292-4.187-2.988-5.577c-16.915-13.85-38.21-20.282-59.962-18.119c-5.83,0.581-11.497,1.779-16.949,3.519
		c4.404-7.435,8.29-15.095,11.659-22.926C425.621,348.768,428.403,348.921,431.173,348.921z M493.63,285.593
		c-8.268,28.009-34.446,47.221-63.634,46.776C438.264,304.36,464.425,285.112,493.63,285.593z M481.901,179.379
		c1.223,14.158-2.194,28.257-9.935,40.464s-19.036,21.31-32.364,26.241C437.126,216.984,454.523,189.548,481.901,179.379z
		 M409.628,130.851c2.402-14.253,9.283-27.025,19.657-36.738c13.566,25.863,8.168,57.899-13.123,77.889
		C409.542,159.425,407.226,145.104,409.628,130.851z M336.761,166.087c13.909-2.911,28.315-1.205,41.361,5.018
		c13.046,6.223,23.437,16.348,29.928,28.99C379.444,206.033,350.135,192.05,336.761,166.087z M383.993,286.437
		c-6.942-12.678-9.447-26.968-7.319-41.019c26.669,11.905,42.271,40.4,37.933,69.281
		C401.621,308.924,390.934,299.115,383.993,286.437z M429.763,384.343c14.389-1.432,28.515,1.848,40.615,9.302
		c-21.385,19.89-53.713,23.109-78.598,7.826C402.173,391.777,415.38,385.776,429.763,384.343z"/>
</g>
<g>
</g>
<g>
</g>
<g>
</g>
<g>
</g>
<g>
</g>
<g>
</g>
<g>
</g>
<g>
</g>
<g>
</g>
<g>
</g>
<g>
</g>
<g>
</g>
<g>
</g>
<g>
</g>
<g>
</g>
</svg>
