<?xml version="1.0" encoding="iso-8859-1"?>
<!-- Generator: Adobe Illustrator 19.0.0, SVG Export Plug-In . SVG Version: 6.00 Build 0)  -->
<svg version="1.1" id="Layer_1" xmlns="http://www.w3.org/2000/svg" xmlns:xlink="http://www.w3.org/1999/xlink" x="0px" y="0px"
	 viewBox="0 0 512.001 512.001" style="enable-background:new 0 0 512.001 512.001;" xml:space="preserve">
<polygon style="fill:#AA8B65;" points="7.61,475.631 7.61,36.371 45.779,58.716 58.346,90.764 84.111,68.141 116.159,68.141 
	130.282,108.602 381.72,108.602 427.035,64.395 458.421,82.33 504.392,36.371 504.392,475.631 "/>
<polygon style="opacity:0.52;fill:#836948;enable-background:new    ;" points="458.24,83.656 441.861,74.297 262.047,329.519 
	7.428,419.635 7.428,476.959 504.211,476.959 504.211,37.698 "/>
<path style="fill:#ACD4F3;" d="M367.814,441.979c0,0,3.755-131.605,3.525-145.166c-0.295-17.42-5.24-52.81-4.149-69.569
	c0.914-14.052,9.832-40.121,12.172-53.673c2.772-16.048,1.851-64.969,1.851-64.969h-39.233h-38.88h-172.82
	c0,0,1.459,48.921,4.23,64.969c2.34,13.552,11.258,39.621,12.172,53.673c1.091,16.759-3.854,52.149-4.149,69.569
	c-0.23,13.561,3.301,140.954,3.301,140.954L367.814,441.979z"/>
<path style="fill:#52A2E7;" d="M504.392,431.638h-99.439c0-14.888-12.07-26.958-26.958-26.958c-14.888,0-26.958,12.07-26.958,26.958
	l-0.344,1.449c0-16.734-13.566-30.301-30.301-30.301s-30.301,13.566-30.301,30.301c0-18.326-14.857-33.183-33.183-33.183
	s-33.183,14.857-33.183,33.183c0-16.734-13.566-30.301-30.301-30.301s-30.301,13.566-30.301,30.301v-1.672
	c0-14.888-12.07-26.958-26.958-26.958c-14.888,0-26.958,12.07-26.958,26.958H7.61v44.216h496.782V431.638z"/>
<path style="fill:#B6E892;" d="M453.911,294.91c-23.408-0.642-43.38-17.604-43.38-17.604s18.875-24.01,44.794-26.531
	s49.068,17.4,49.068,17.4"/>
<path style="fill:#A4E276;" d="M457.055,290.617c16.545-20.111,47-22.393,47-22.393s3.631,30.324-12.913,50.435
	c-16.544,20.111-47,22.393-47,22.393s-3.147-26.285,9.77-46.14C454.868,293.439,455.913,292.003,457.055,290.617z"/>
<path style="fill:#DCF4CA;" d="M457.242,250.63c-0.507-0.49-1.006-0.993-1.494-1.511c-17.889-18.924-16.354-49.426-16.354-49.426
	s30.54,0.18,48.429,19.105s16.354,49.426,16.354,49.426"/>
<path style="fill:#B6E892;" d="M58.091,294.91c23.408-0.642,43.38-17.604,43.38-17.604s-18.875-24.01-44.794-26.531
	s-49.068,17.4-49.068,17.4"/>
<path style="fill:#A4E276;" d="M54.947,290.617c-16.545-20.111-47-22.393-47-22.393s-3.631,30.324,12.913,50.435
	c16.544,20.111,47,22.393,47,22.393s3.147-26.285-9.77-46.14C57.134,293.439,56.089,292.003,54.947,290.617z"/>
<path style="fill:#DCF4CA;" d="M54.759,250.63c0.507-0.49,1.006-0.993,1.494-1.511c17.889-18.924,16.354-49.426,16.354-49.426
	s-30.54,0.18-48.43,19.105S7.825,268.224,7.825,268.224"/>
<path d="M182.138,239.754c4.199,0,7.604-3.404,7.604-7.604v-93.353c0-4.199-3.404-7.604-7.604-7.604s-7.604,3.404-7.604,7.604
	v93.354C174.535,236.35,177.939,239.754,182.138,239.754z"/>
<path d="M182.139,256.938c-4.199,0-7.604,3.404-7.604,7.604v99.805c0,4.199,3.404,7.604,7.604,7.604s7.604-3.404,7.604-7.604
	v-99.805C189.743,260.341,186.339,256.938,182.139,256.938z"/>
<path d="M218.964,207.024c4.199,0,7.604-3.404,7.604-7.604v-60.623c0-4.199-3.404-7.604-7.604-7.604s-7.604,3.404-7.604,7.604
	v60.623C211.36,203.62,214.765,207.024,218.964,207.024z"/>
<path d="M331.068,250.47c4.2,0,7.604-3.404,7.604-7.604v-91.088c0-4.199-3.403-7.604-7.604-7.604s-7.604,3.404-7.604,7.604v91.088
	C323.464,247.066,326.867,250.47,331.068,250.47z"/>
<path d="M218.964,375.979c4.199,0,7.604-3.404,7.604-7.604V223.714c0-4.199-3.404-7.604-7.604-7.604s-7.604,3.404-7.604,7.604
	v144.662C211.36,372.576,214.765,375.979,218.964,375.979z"/>
<path d="M258.501,234.844c4.2,0,7.604-3.404,7.604-7.604v-88.722c0-4.199-3.403-7.604-7.604-7.604c-4.199,0-7.604,3.404-7.604,7.604
	v88.722C250.897,231.441,254.302,234.844,258.501,234.844z"/>
<path d="M295.326,200.718c4.2,0,7.604-3.404,7.604-7.604v-57.108c0-4.199-3.403-7.604-7.604-7.604s-7.604,3.404-7.604,7.604v57.108
	C287.722,197.314,291.126,200.718,295.326,200.718z"/>
<path d="M295.326,386.072c4.2,0,7.604-3.404,7.604-7.604V223.714c0-4.199-3.403-7.604-7.604-7.604s-7.604,3.404-7.604,7.604v154.754
	C287.722,382.667,291.126,386.072,295.326,386.072z"/>
<path d="M329.812,356.062c4.2,0,7.604-3.404,7.604-7.604v-76.046c0-4.199-3.403-7.604-7.604-7.604s-7.604,3.404-7.604,7.604v76.046
	C322.208,352.658,325.611,356.062,329.812,356.062z"/>
<path d="M511.996,274.613V36.371c0-3.075-1.852-5.848-4.694-7.025c-2.841-1.179-6.111-0.527-8.286,1.647l-41.864,41.853
	l-26.345-15.055c-2.945-1.684-6.653-1.212-9.082,1.159l-43.1,42.047h-0.63H135.681l-12.344-35.363
	c-1.066-3.053-3.946-5.098-7.179-5.098H84.111c-1.846,0-3.63,0.672-5.018,1.89L61.47,77.903L52.858,55.94
	c-0.624-1.59-1.764-2.923-3.237-3.786L11.451,29.809c-2.352-1.376-5.26-1.39-7.624-0.034c-2.364,1.356-3.822,3.872-3.822,6.596
	v238.248c-0.006,0.625-0.007,1.275,0,1.963v199.05c0,4.199,3.404,7.604,7.604,7.604h496.782c4.2,0,7.604-3.404,7.604-7.604V276.584
	C512.003,275.894,512.002,275.24,511.996,274.613z M460.286,299.055c0.821-1.262,1.709-2.476,2.64-3.607l0.001-0.001
	c9.445-11.482,24.63-16.367,33.835-18.36c-0.18,9.422-2.049,25.261-11.493,36.74c-9.446,11.482-24.632,16.367-33.836,18.36
	C451.594,323.721,453.119,310.071,460.286,299.055z M451.184,285.785c-0.327,0.397-0.637,0.82-0.956,1.231
	c-11.469-1.323-21.883-6.788-28.262-10.863c6.762-6.527,19.227-16.362,34.094-17.809c10.504-1.023,20.71,2.359,28.581,6.231
	C473.859,267.988,460.652,274.274,451.184,285.785z M460.451,242.962c-9.535-10.758-12.368-25.809-13.173-34.927
	c9.324,1.354,24.808,5.184,35.019,15.986c8.004,8.468,11.544,19.92,13.102,28.997C486.494,248.104,474.096,243.091,460.451,242.962z
	 M428.241,73.841l26.409,15.09c2.976,1.702,6.723,1.199,9.148-1.225l32.99-32.982v162.862c-1.07-1.375-2.213-2.717-3.44-4.014
	c-19.893-21.042-52.53-21.476-53.911-21.484c-0.015,0-0.029,0-0.046,0c-4.047,0-7.389,3.173-7.593,7.222
	c-0.06,1.195-1.113,25.904,11.602,46.169c-22.775,6.988-38.111,26.188-38.849,27.125c-2.525,3.213-2.059,7.849,1.055,10.495
	c0.76,0.646,16.208,13.586,36.562,17.983c-7.991,19.524-5.7,39.866-5.58,40.871c0.461,3.848,3.729,6.7,7.543,6.7
	c0.191,0,0.382-0.007,0.575-0.021c1.37-0.102,33.643-2.767,52.079-24.885v100.286h-85.073
	c-3.473-15.412-17.273-26.958-33.719-26.958c-2.549,0-5.03,0.289-7.422,0.815c0.956-26.255,3.225-90.206,3.043-101.205
	c-0.123-7.42-1.016-17.683-1.961-28.55c-1.267-14.58-2.703-31.105-2.112-40.41c0.488-7.661,3.794-20.259,6.71-31.374
	c2.122-8.087,4.125-15.725,5.104-21.516c2.193-12.989,3.536-45.622,4.028-59.579c0.595-0.327,1.151-0.73,1.644-1.213L428.241,73.841
	z M370.131,116.205c-0.525,14.368-1.817,44.53-3.77,56.1c-0.865,5.121-2.784,12.44-4.818,20.189
	c-3.242,12.358-6.595,25.137-7.176,34.268c-0.665,10.448,0.759,26.839,2.137,42.692c0.921,10.593,1.791,20.598,1.905,27.485
	c0.199,11.975-2.766,93.156-3.346,108.876c-1.572,1.398-3.024,2.929-4.32,4.589c-6.919-9.234-17.949-15.222-30.35-15.222
	c-12.167,0-23.014,5.764-29.955,14.703c-5.691-8.2-14.314-14.204-24.334-16.523V259.134c0-4.199-3.403-7.604-7.604-7.604
	c-4.199,0-7.604,3.404-7.604,7.604v133.627c-11.371,1.689-21.232,8.07-27.517,17.126c-6.94-8.939-17.788-14.703-29.955-14.703
	c-12.25,0-23.162,5.842-30.096,14.885c-2.809-3.566-6.306-6.564-10.285-8.8c-0.408-11.007-3.382-91.966-3.177-104.328
	c0.114-6.887,0.984-16.894,1.905-27.487c1.378-15.851,2.803-32.243,2.138-42.69c-0.582-9.131-3.935-21.91-7.178-34.27
	c-2.033-7.748-3.952-15.066-4.817-20.186c-1.953-11.566-3.245-41.731-3.769-56.099h231.986V116.205z M39.662,63.946L51.268,93.54
	c0.905,2.306,2.876,4.028,5.284,4.613c2.406,0.585,4.95-0.041,6.812-1.675l23.611-20.733h23.784l11.957,34.257
	c0.241,7.746,1.643,49.673,4.203,64.836c0.978,5.79,2.982,13.427,5.103,21.513c2.917,11.116,6.222,23.717,6.711,31.377
	c0.592,9.304-0.845,25.829-2.112,40.407c-0.945,10.867-1.838,21.133-1.961,28.553c-0.194,11.702,2.23,79.133,3.004,100.211
	c-0.498-0.021-0.996-0.044-1.498-0.044c-16.447,0-30.246,11.546-33.719,26.958H15.214V323.75
	c18.436,22.117,50.708,24.782,52.079,24.885c0.193,0.014,0.384,0.021,0.575,0.021c3.815,0,7.082-2.853,7.543-6.7
	c0.121-1.005,2.412-21.346-5.579-40.871c20.356-4.396,35.803-17.337,36.563-17.983c3.116-2.646,3.582-7.281,1.055-10.495
	c-0.737-0.938-16.074-20.137-38.85-27.125c12.717-20.266,11.664-44.974,11.604-46.169c-0.205-4.063-3.574-7.212-7.639-7.222
	c-1.38,0.008-34.017,0.442-53.91,21.484c-1.226,1.297-2.37,2.639-3.44,4.014V49.633L39.662,63.946z M51.717,299.057
	c7.167,11.017,8.691,24.669,8.852,33.129c-9.209-1.993-24.392-6.879-33.837-18.36c-9.446-11.482-11.313-27.323-11.494-36.74
	c9.21,1.993,24.392,6.88,33.836,18.359c0,0,0,0.001,0.001,0.001C50.005,296.577,50.893,297.79,51.717,299.057z M61.775,287.017
	c-0.319-0.412-0.63-0.835-0.957-1.233l0.001,0.001c-9.471-11.512-22.682-17.8-33.465-21.214c7.869-3.873,18.074-7.252,28.587-6.229
	c14.785,1.439,27.301,11.305,34.09,17.837C83.672,280.254,73.292,285.7,61.775,287.017z M51.55,242.964
	c-13.662,0.133-26.076,5.159-34.985,10.079c1.544-9.058,5.083-20.499,13.139-29.021c10.223-10.814,25.725-14.639,35.042-15.99
	C63.962,217.128,61.147,232.145,51.55,242.964z M15.214,468.028V439.02h93.995c4.199,0,7.604-3.404,7.604-7.604
	c0-10.672,8.682-19.354,19.354-19.354s19.354,8.682,19.354,19.354v1.671c0,4.199,3.404,7.604,7.604,7.604
	c4.199,0,7.604-3.404,7.604-7.604c0-12.515,10.182-22.697,22.697-22.697s22.697,10.182,22.697,22.697
	c0,4.199,3.404,7.604,7.604,7.604c4.199,0,7.604-3.404,7.604-7.604c0-14.105,11.475-25.579,25.579-25.579
	s25.579,11.475,25.579,25.579c0,4.199,3.403,7.604,7.604,7.604s7.604-3.404,7.604-7.604c0-12.515,10.182-22.697,22.697-22.697
	c12.515,0,22.697,10.182,22.697,22.697c0,3.858,2.889,7.104,6.721,7.552c0.299,0.035,0.595,0.052,0.89,0.052
	c3.481,0,6.571-2.389,7.392-5.85l0.344-1.449c0.136-0.575,0.205-1.164,0.205-1.754c0-10.672,8.682-19.354,19.354-19.354
	c10.673,0,19.354,8.681,19.354,19.354c0,4.199,3.403,7.604,7.604,7.604h91.835v28.786L15.214,468.028L15.214,468.028z"/>
<g>
</g>
<g>
</g>
<g>
</g>
<g>
</g>
<g>
</g>
<g>
</g>
<g>
</g>
<g>
</g>
<g>
</g>
<g>
</g>
<g>
</g>
<g>
</g>
<g>
</g>
<g>
</g>
<g>
</g>
</svg>
